solid Untitled-57e4562e
facet normal 0.3826834323650927 0.9238795325112856 0.0
  outer loop
    vertex 83.64728875660637 53.66001523860864 30.0
    vertex 85.45614591833746 52.91076206982392 1.127986593019159e-14
    vertex 83.64728875660637 53.66001523860864 1.127986593019159e-14
  endloop
endfacet
facet normal 0.3826834323650927 0.9238795325112856 0.0
  outer loop
    vertex 85.45614591833746 52.91076206982392 1.127986593019159e-14
    vertex 83.64728875660637 53.66001523860864 30.0
    vertex 85.45614591833746 52.91076206982392 30.0
  endloop
endfacet
facet normal 1.0 0.0 0.0
  outer loop
    vertex 105.39728875660637 77.52602414458157 9.0
    vertex 105.39728875660637 63.655205766991934 30.0
    vertex 105.39728875660637 63.655205766991934 9.0
  endloop
endfacet
facet normal 1.0 0.0 0.0
  outer loop
    vertex 105.39728875660637 63.655205766991934 30.0
    vertex 105.39728875660637 77.52602414458157 9.0
    vertex 105.39728875660637 77.52602414458157 30.0
  endloop
endfacet
facet normal -0.3826834323650907 0.9238795325112865 0.0
  outer loop
    vertex 89.33843159487527 52.91076206982392 30.0
    vertex 91.14728875660637 53.66001523860864 1.127986593019159e-14
    vertex 89.33843159487527 52.91076206982392 1.127986593019159e-14
  endloop
endfacet
facet normal -0.3826834323650907 0.9238795325112865 0.0
  outer loop
    vertex 91.14728875660637 53.66001523860864 1.127986593019159e-14
    vertex 89.33843159487527 52.91076206982392 30.0
    vertex 91.14728875660637 53.66001523860864 30.0
  endloop
endfacet
facet normal 0.13052619222005044 0.9914448613738106 0.0
  outer loop
    vertex 85.45614591833746 52.91076206982392 30.0
    vertex 87.39728875660636 52.655205766991934 1.127986593019159e-14
    vertex 85.45614591833746 52.91076206982392 1.127986593019159e-14
  endloop
endfacet
facet normal 0.13052619222005044 0.9914448613738106 0.0
  outer loop
    vertex 87.39728875660636 52.655205766991934 1.127986593019159e-14
    vertex 85.45614591833746 52.91076206982392 30.0
    vertex 87.39728875660636 52.655205766991934 30.0
  endloop
endfacet
facet normal -0.9238795325112856 -0.3826834323650927 -0.0
  outer loop
    vertex 93.89247928498965 63.905205766991934 30.0
    vertex 94.64173245377438 62.09634860526084 1.127986593019159e-14
    vertex 94.64173245377438 62.09634860526084 30.0
  endloop
endfacet
facet normal -0.9238795325112856 -0.3826834323650927 -0.0
  outer loop
    vertex 94.64173245377438 62.09634860526084 1.127986593019159e-14
    vertex 93.89247928498965 63.905205766991934 30.0
    vertex 93.89247928498965 63.905205766991934 1.127986593019159e-14
  endloop
endfacet
facet normal -0.9914448613738106 0.13052619222005044 0.0
  outer loop
    vertex 94.89728875660636 60.155205766991934 30.0
    vertex 94.64173245377438 58.214062928723024 1.127986593019159e-14
    vertex 94.64173245377438 58.214062928723024 30.0
  endloop
endfacet
facet normal -0.9914448613738106 0.13052619222005044 0.0
  outer loop
    vertex 94.64173245377438 58.214062928723024 1.127986593019159e-14
    vertex 94.89728875660636 60.155205766991934 30.0
    vertex 94.89728875660636 60.155205766991934 1.127986593019159e-14
  endloop
endfacet
facet normal 0.6087614290087163 0.7933533402912384 0.0
  outer loop
    vertex 82.09398789770725 54.85190490809282 30.0
    vertex 83.64728875660637 53.66001523860864 1.127986593019159e-14
    vertex 82.09398789770725 54.85190490809282 1.127986593019159e-14
  endloop
endfacet
facet normal 0.6087614290087163 0.7933533402912384 0.0
  outer loop
    vertex 83.64728875660637 53.66001523860864 1.127986593019159e-14
    vertex 82.09398789770725 54.85190490809282 30.0
    vertex 83.64728875660637 53.66001523860864 30.0
  endloop
endfacet
facet normal -0.7933533402912384 0.6087614290087163 0.0
  outer loop
    vertex 93.89247928498965 56.40520576699194 30.0
    vertex 92.70058961550548 54.85190490809282 1.127986593019159e-14
    vertex 92.70058961550548 54.85190490809282 30.0
  endloop
endfacet
facet normal -0.7933533402912384 0.6087614290087163 0.0
  outer loop
    vertex 92.70058961550548 54.85190490809282 1.127986593019159e-14
    vertex 93.89247928498965 56.40520576699194 30.0
    vertex 93.89247928498965 56.40520576699194 1.127986593019159e-14
  endloop
endfacet
facet normal 0.0 1.0 0.0
  outer loop
    vertex 105.39728875660637 63.655205766991934 30.0
    vertex 147.39728875660637 63.655205766991934 9.0
    vertex 105.39728875660637 63.655205766991934 9.0
  endloop
endfacet
facet normal 0.9914448613738106 0.13052619222005044 0.0
  outer loop
    vertex 79.89728875660637 60.155205766991934 1.127986593019159e-14
    vertex 80.15284505943835 58.214062928723024 30.0
    vertex 80.15284505943835 58.214062928723024 1.127986593019159e-14
  endloop
endfacet
facet normal 0.9914448613738106 0.13052619222005044 0.0
  outer loop
    vertex 80.15284505943835 58.214062928723024 30.0
    vertex 79.89728875660637 60.155205766991934 1.127986593019159e-14
    vertex 79.89728875660637 60.155205766991934 30.0
  endloop
endfacet
facet normal -0.7933533402912364 -0.6087614290087192 -0.0
  outer loop
    vertex 92.70058961550548 65.45850662589103 30.0
    vertex 93.89247928498965 63.905205766991934 1.127986593019159e-14
    vertex 93.89247928498965 63.905205766991934 30.0
  endloop
endfacet
facet normal -0.7933533402912364 -0.6087614290087192 -0.0
  outer loop
    vertex 93.89247928498965 63.905205766991934 1.127986593019159e-14
    vertex 92.70058961550548 65.45850662589103 30.0
    vertex 92.70058961550548 65.45850662589103 1.127986593019159e-14
  endloop
endfacet
facet normal -0.9914448613738106 -0.13052619222004969 -0.0
  outer loop
    vertex 94.64173245377438 62.09634860526084 30.0
    vertex 94.89728875660636 60.155205766991934 1.127986593019159e-14
    vertex 94.89728875660636 60.155205766991934 30.0
  endloop
endfacet
facet normal -0.9914448613738106 -0.13052619222004969 -0.0
  outer loop
    vertex 94.89728875660636 60.155205766991934 1.127986593019159e-14
    vertex 94.64173245377438 62.09634860526084 30.0
    vertex 94.64173245377438 62.09634860526084 1.127986593019159e-14
  endloop
endfacet
facet normal -0.13052619222005044 0.9914448613738106 0.0
  outer loop
    vertex 87.39728875660636 52.655205766991934 30.0
    vertex 89.33843159487527 52.91076206982392 1.127986593019159e-14
    vertex 87.39728875660636 52.655205766991934 1.127986593019159e-14
  endloop
endfacet
facet normal -0.13052619222005044 0.9914448613738106 0.0
  outer loop
    vertex 89.33843159487527 52.91076206982392 1.127986593019159e-14
    vertex 87.39728875660636 52.655205766991934 30.0
    vertex 89.33843159487527 52.91076206982392 30.0
  endloop
endfacet
facet normal -0.6087614290087192 0.7933533402912364 0.0
  outer loop
    vertex 91.14728875660637 53.66001523860864 30.0
    vertex 92.70058961550548 54.85190490809282 1.127986593019159e-14
    vertex 91.14728875660637 53.66001523860864 1.127986593019159e-14
  endloop
endfacet
facet normal -0.6087614290087192 0.7933533402912364 0.0
  outer loop
    vertex 92.70058961550548 54.85190490809282 1.127986593019159e-14
    vertex 91.14728875660637 53.66001523860864 30.0
    vertex 92.70058961550548 54.85190490809282 30.0
  endloop
endfacet
facet normal -0.3826834323650927 -0.9238795325112856 -0.0
  outer loop
    vertex 91.14728875660636 66.65039629537522 30.0
    vertex 89.33843159487527 67.39964946415995 1.127986593019159e-14
    vertex 91.14728875660636 66.65039629537522 1.127986593019159e-14
  endloop
endfacet
facet normal -0.3826834323650927 -0.9238795325112856 -0.0
  outer loop
    vertex 89.33843159487527 67.39964946415995 1.127986593019159e-14
    vertex 91.14728875660636 66.65039629537522 30.0
    vertex 89.33843159487527 67.39964946415995 30.0
  endloop
endfacet
facet normal -0.9238795325112856 0.3826834323650927 0.0
  outer loop
    vertex 94.64173245377438 58.214062928723024 30.0
    vertex 93.89247928498965 56.40520576699194 1.127986593019159e-14
    vertex 93.89247928498965 56.40520576699194 30.0
  endloop
endfacet
facet normal -0.9238795325112856 0.3826834323650927 0.0
  outer loop
    vertex 93.89247928498965 56.40520576699194 1.127986593019159e-14
    vertex 94.64173245377438 58.214062928723024 30.0
    vertex 94.64173245377438 58.214062928723024 1.127986593019159e-14
  endloop
endfacet
facet normal 0.13052619222004969 -0.9914448613738106 0.0
  outer loop
    vertex 87.39728875660636 67.65520576699193 30.0
    vertex 85.45614591833746 67.39964946415995 1.127986593019159e-14
    vertex 87.39728875660636 67.65520576699193 1.127986593019159e-14
  endloop
endfacet
facet normal 0.13052619222004969 -0.9914448613738106 0.0
  outer loop
    vertex 85.45614591833746 67.39964946415995 1.127986593019159e-14
    vertex 87.39728875660636 67.65520576699193 30.0
    vertex 85.45614591833746 67.39964946415995 30.0
  endloop
endfacet
facet normal 0.0 0.0 1.0
  outer loop
    vertex 147.39728875660637 63.655205766991934 9.0
    vertex 105.39728875660637 77.52602414458157 9.0
    vertex 105.39728875660637 63.655205766991934 9.0
  endloop
endfacet
facet normal 0.0 0.0 1.0
  outer loop
    vertex 105.39728875660637 77.52602414458157 9.0
    vertex 147.39728875660637 63.655205766991934 9.0
    vertex 138.39728875660637 77.52602414458157 9.0
  endloop
endfacet
facet normal 0.0 0.0 1.0
  outer loop
    vertex 138.39728875660637 77.52602414458157 9.0
    vertex 147.39728875660637 63.655205766991934 9.0
    vertex 147.39728875660637 66.15520576699193 9.0
  endloop
endfacet
facet normal 0.3826834323650927 -0.9238795325112856 0.0
  outer loop
    vertex 85.45614591833746 67.39964946415995 30.0
    vertex 83.64728875660636 66.65039629537522 1.127986593019159e-14
    vertex 85.45614591833746 67.39964946415995 1.127986593019159e-14
  endloop
endfacet
facet normal 0.3826834323650927 -0.9238795325112856 0.0
  outer loop
    vertex 83.64728875660636 66.65039629537522 1.127986593019159e-14
    vertex 85.45614591833746 67.39964946415995 30.0
    vertex 83.64728875660636 66.65039629537522 30.0
  endloop
endfacet
facet normal -0.6087614290087163 -0.7933533402912384 -0.0
  outer loop
    vertex 92.70058961550548 65.45850662589103 30.0
    vertex 91.14728875660636 66.65039629537522 1.127986593019159e-14
    vertex 92.70058961550548 65.45850662589103 1.127986593019159e-14
  endloop
endfacet
facet normal -0.6087614290087163 -0.7933533402912384 -0.0
  outer loop
    vertex 91.14728875660636 66.65039629537522 1.127986593019159e-14
    vertex 92.70058961550548 65.45850662589103 30.0
    vertex 91.14728875660636 66.65039629537522 30.0
  endloop
endfacet
facet normal -0.13052619222005044 -0.9914448613738106 -0.0
  outer loop
    vertex 89.33843159487527 67.39964946415995 30.0
    vertex 87.39728875660636 67.65520576699193 1.127986593019159e-14
    vertex 89.33843159487527 67.39964946415995 1.127986593019159e-14
  endloop
endfacet
facet normal -0.13052619222005044 -0.9914448613738106 -0.0
  outer loop
    vertex 87.39728875660636 67.65520576699193 1.127986593019159e-14
    vertex 89.33843159487527 67.39964946415995 30.0
    vertex 87.39728875660636 67.65520576699193 30.0
  endloop
endfacet
facet normal 0.9238795325112865 0.3826834323650907 0.0
  outer loop
    vertex 80.15284505943835 58.214062928723024 1.127986593019159e-14
    vertex 80.90209822822308 56.40520576699193 30.0
    vertex 80.90209822822308 56.40520576699193 1.127986593019159e-14
  endloop
endfacet
facet normal 0.9238795325112865 0.3826834323650907 0.0
  outer loop
    vertex 80.90209822822308 56.40520576699193 30.0
    vertex 80.15284505943835 58.214062928723024 1.127986593019159e-14
    vertex 80.15284505943835 58.214062928723024 30.0
  endloop
endfacet
facet normal 0.7933533402912364 0.6087614290087192 0.0
  outer loop
    vertex 80.90209822822308 56.40520576699193 1.127986593019159e-14
    vertex 82.09398789770725 54.85190490809282 30.0
    vertex 82.09398789770725 54.85190490809282 1.127986593019159e-14
  endloop
endfacet
facet normal 0.7933533402912364 0.6087614290087192 0.0
  outer loop
    vertex 82.09398789770725 54.85190490809282 30.0
    vertex 80.90209822822308 56.40520576699193 1.127986593019159e-14
    vertex 80.90209822822308 56.40520576699193 30.0
  endloop
endfacet
facet normal 0.6087614290087228 -0.7933533402912335 0.0
  outer loop
    vertex 83.64728875660636 66.65039629537522 30.0
    vertex 82.09398789770725 65.45850662589103 1.127986593019159e-14
    vertex 83.64728875660636 66.65039629537522 1.127986593019159e-14
  endloop
endfacet
facet normal 0.6087614290087228 -0.7933533402912335 0.0
  outer loop
    vertex 82.09398789770725 65.45850662589103 1.127986593019159e-14
    vertex 83.64728875660636 66.65039629537522 30.0
    vertex 82.09398789770725 65.45850662589103 30.0
  endloop
endfacet
facet normal 0.7933533402912364 -0.6087614290087192 0.0
  outer loop
    vertex 82.09398789770725 65.45850662589103 1.127986593019159e-14
    vertex 80.90209822822308 63.90520576699193 30.0
    vertex 80.90209822822308 63.90520576699193 1.127986593019159e-14
  endloop
endfacet
facet normal 0.7933533402912364 -0.6087614290087192 0.0
  outer loop
    vertex 80.90209822822308 63.90520576699193 30.0
    vertex 82.09398789770725 65.45850662589103 1.127986593019159e-14
    vertex 82.09398789770725 65.45850662589103 30.0
  endloop
endfacet
facet normal 0.9238795325112856 -0.3826834323650927 0.0
  outer loop
    vertex 80.90209822822308 63.90520576699193 1.127986593019159e-14
    vertex 80.15284505943835 62.096348605260836 30.0
    vertex 80.15284505943835 62.096348605260836 1.127986593019159e-14
  endloop
endfacet
facet normal 0.9238795325112856 -0.3826834323650927 0.0
  outer loop
    vertex 80.15284505943835 62.096348605260836 30.0
    vertex 80.90209822822308 63.90520576699193 1.127986593019159e-14
    vertex 80.90209822822308 63.90520576699193 30.0
  endloop
endfacet
facet normal 0.9914448613738106 -0.13052619222005044 0.0
  outer loop
    vertex 80.15284505943835 62.096348605260836 1.127986593019159e-14
    vertex 79.89728875660637 60.155205766991934 30.0
    vertex 79.89728875660637 60.155205766991934 1.127986593019159e-14
  endloop
endfacet
facet normal 0.9914448613738106 -0.13052619222005044 0.0
  outer loop
    vertex 79.89728875660637 60.155205766991934 30.0
    vertex 80.15284505943835 62.096348605260836 1.127986593019159e-14
    vertex 80.15284505943835 62.096348605260836 30.0
  endloop
endfacet
facet normal 0.0 0.0 1.0
  outer loop
    vertex 138.39728875660637 42.78438738940229 9.0
    vertex 105.39728875660637 57.15520576699193 9.0
    vertex 105.39728875660637 42.78438738940229 9.0
  endloop
endfacet
facet normal 0.0 0.0 1.0
  outer loop
    vertex 105.39728875660637 57.15520576699193 9.0
    vertex 138.39728875660637 42.78438738940229 9.0
    vertex 147.39728875660637 57.15520576699193 9.0
  endloop
endfacet
facet normal 0.0 0.0 1.0
  outer loop
    vertex 147.39728875660637 57.15520576699193 9.0
    vertex 138.39728875660637 42.78438738940229 9.0
    vertex 147.39728875660637 54.155205766991934 9.0
  endloop
endfacet
facet normal 0.7841095115466671 -0.6206224890398728 0.0
  outer loop
    vertex 147.39728875660637 54.155205766991934 0.0
    vertex 138.39728875660637 42.78438738940229 9.0
    vertex 138.39728875660637 42.78438738940229 0.0
  endloop
endfacet
facet normal 0.7841095115466671 -0.6206224890398728 0.0
  outer loop
    vertex 138.39728875660637 42.78438738940229 9.0
    vertex 147.39728875660637 54.155205766991934 0.0
    vertex 147.39728875660637 54.155205766991934 9.0
  endloop
endfacet
facet normal 0.0 -1.0 0.0
  outer loop
    vertex 105.39728875660637 57.15520576699193 30.0
    vertex 105.39728875660637 57.15520576699193 9.0
    vertex 147.39728875660637 57.15520576699193 9.0
  endloop
endfacet
facet normal 1.0 0.0 0.0
  outer loop
    vertex 105.39728875660637 57.15520576699193 9.0
    vertex 105.39728875660637 42.78438738940229 30.0
    vertex 105.39728875660637 42.78438738940229 9.0
  endloop
endfacet
facet normal 1.0 0.0 0.0
  outer loop
    vertex 105.39728875660637 42.78438738940229 30.0
    vertex 105.39728875660637 57.15520576699193 9.0
    vertex 105.39728875660637 57.15520576699193 30.0
  endloop
endfacet
facet normal 0.44721359549995804 -7.93538813124475e-17 0.8944271909999159
  outer loop
    vertex 147.39728875660637 57.15520576699193 9.0
    vertex 105.39728875660637 63.655205766991934 30.0
    vertex 105.39728875660637 57.15520576699193 30.0
  endloop
endfacet
facet normal 0.44721359549995804 -7.93538813124475e-17 0.8944271909999159
  outer loop
    vertex 105.39728875660637 63.655205766991934 30.0
    vertex 147.39728875660637 57.15520576699193 9.0
    vertex 147.39728875660637 63.655205766991934 9.0
  endloop
endfacet
facet normal 0.44721359549995804 -7.93538813124475e-17 0.8944271909999159
  outer loop
    vertex 147.39728875660637 63.655205766991934 9.0
    vertex 147.39728875660637 57.15520576699193 9.0
    vertex 147.39728875660637 60.155205766991934 9.0
  endloop
endfacet
facet normal 0.0 -1.0 0.0
  outer loop
    vertex 105.39728875660637 42.78438738940229 9.0
    vertex 87.39728875660636 42.78438738940229 0.0
    vertex 105.39728875660637 42.78438738940229 0.0
  endloop
endfacet
facet normal 0.0 -1.0 0.0
  outer loop
    vertex 87.39728875660636 42.78438738940229 0.0
    vertex 105.39728875660637 42.78438738940229 9.0
    vertex 87.39728875660636 42.78438738940229 30.0
  endloop
endfacet
facet normal 0.0 -1.0 0.0
  outer loop
    vertex 87.39728875660636 42.78438738940229 30.0
    vertex 105.39728875660637 42.78438738940229 9.0
    vertex 105.39728875660637 42.78438738940229 30.0
  endloop
endfacet
facet normal 0.0 0.0 -1.0
  outer loop
    vertex 70.61836666191576 64.65110439212899 0.0
    vertex 70.61836666191576 55.65930714185486 0.0
    vertex 70.02647037901671 60.155205766991934 0.0
  endloop
endfacet
facet normal 0.0 0.0 -1.0
  outer loop
    vertex 70.61836666191576 55.65930714185486 0.0
    vertex 70.61836666191576 64.65110439212899 0.0
    vertex 72.35371875708816 68.84061495578675 0.0
  endloop
endfacet
facet normal 0.0 0.0 -1.0
  outer loop
    vertex 70.61836666191576 55.65930714185486 0.0
    vertex 72.35371875708816 68.84061495578675 0.0
    vertex 72.35371875708816 51.46979657819711 0.0
  endloop
endfacet
facet normal 0.0 0.0 -1.0
  outer loop
    vertex 72.35371875708816 51.46979657819711 0.0
    vertex 72.35371875708816 68.84061495578675 0.0
    vertex 75.11426528705283 72.43822923654547 0.0
  endloop
endfacet
facet normal 0.0 0.0 -1.0
  outer loop
    vertex 72.35371875708816 51.46979657819711 0.0
    vertex 75.11426528705283 72.43822923654547 0.0
    vertex 75.11426528705283 47.87218229743839 0.0
  endloop
endfacet
facet normal 0.0 0.0 -1.0
  outer loop
    vertex 75.11426528705283 47.87218229743839 0.0
    vertex 75.11426528705283 72.43822923654547 0.0
    vertex 78.71187956781155 75.19877576651014 0.0
  endloop
endfacet
facet normal 0.0 0.0 -1.0
  outer loop
    vertex 75.11426528705283 47.87218229743839 0.0
    vertex 78.71187956781155 75.19877576651014 0.0
    vertex 78.71187956781155 45.11163576747372 0.0
  endloop
endfacet
facet normal 0.0 0.0 -1.0
  outer loop
    vertex 78.71187956781155 45.11163576747372 0.0
    vertex 78.71187956781155 75.19877576651014 0.0
    vertex 79.89728875660637 60.155205766991934 1.127986593019159e-14
  endloop
endfacet
facet normal 0.0 0.0 -1.0
  outer loop
    vertex 79.89728875660637 60.155205766991934 1.127986593019159e-14
    vertex 78.71187956781155 75.19877576651014 0.0
    vertex 80.15284505943835 62.096348605260836 1.127986593019159e-14
  endloop
endfacet
facet normal 0.0 0.0 -1.0
  outer loop
    vertex 80.15284505943835 62.096348605260836 1.127986593019159e-14
    vertex 78.71187956781155 75.19877576651014 0.0
    vertex 82.9013901314693 76.93412786168254 0.0
  endloop
endfacet
facet normal 0.0 0.0 -1.0
  outer loop
    vertex 80.15284505943835 62.096348605260836 1.127986593019159e-14
    vertex 82.9013901314693 76.93412786168254 0.0
    vertex 80.90209822822308 63.90520576699193 1.127986593019159e-14
  endloop
endfacet
facet normal 0.0 0.0 -1.0
  outer loop
    vertex 80.90209822822308 63.90520576699193 1.127986593019159e-14
    vertex 82.9013901314693 76.93412786168254 0.0
    vertex 82.09398789770725 65.45850662589103 1.127986593019159e-14
  endloop
endfacet
facet normal 0.0 0.0 -1.0
  outer loop
    vertex 82.09398789770725 65.45850662589103 1.127986593019159e-14
    vertex 82.9013901314693 76.93412786168254 0.0
    vertex 83.64728875660636 66.65039629537522 1.127986593019159e-14
  endloop
endfacet
facet normal 0.0 0.0 -1.0
  outer loop
    vertex 83.64728875660636 66.65039629537522 1.127986593019159e-14
    vertex 82.9013901314693 76.93412786168254 0.0
    vertex 87.39728875660636 77.52602414458157 0.0
  endloop
endfacet
facet normal 0.0 0.0 -1.0
  outer loop
    vertex 83.64728875660636 66.65039629537522 1.127986593019159e-14
    vertex 87.39728875660636 77.52602414458157 0.0
    vertex 85.45614591833746 67.39964946415995 1.127986593019159e-14
  endloop
endfacet
facet normal 0.0 0.0 -1.0
  outer loop
    vertex 85.45614591833746 67.39964946415995 1.127986593019159e-14
    vertex 87.39728875660636 77.52602414458157 0.0
    vertex 87.39728875660636 67.65520576699193 1.127986593019159e-14
  endloop
endfacet
facet normal 0.0 0.0 -1.0
  outer loop
    vertex 87.39728875660636 67.65520576699193 1.127986593019159e-14
    vertex 87.39728875660636 77.52602414458157 0.0
    vertex 138.39728875660637 77.52602414458157 0.0
  endloop
endfacet
facet normal 0.0 0.0 -1.0
  outer loop
    vertex 87.39728875660636 67.65520576699193 1.127986593019159e-14
    vertex 138.39728875660637 77.52602414458157 0.0
    vertex 89.33843159487527 67.39964946415995 1.127986593019159e-14
  endloop
endfacet
facet normal 0.0 0.0 -1.0
  outer loop
    vertex 89.33843159487527 67.39964946415995 1.127986593019159e-14
    vertex 138.39728875660637 77.52602414458157 0.0
    vertex 91.14728875660636 66.65039629537522 1.127986593019159e-14
  endloop
endfacet
facet normal 0.0 0.0 -1.0
  outer loop
    vertex 91.14728875660636 66.65039629537522 1.127986593019159e-14
    vertex 138.39728875660637 77.52602414458157 0.0
    vertex 92.70058961550548 65.45850662589103 1.127986593019159e-14
  endloop
endfacet
facet normal 0.0 0.0 -1.0
  outer loop
    vertex 92.70058961550548 65.45850662589103 1.127986593019159e-14
    vertex 138.39728875660637 77.52602414458157 0.0
    vertex 93.89247928498965 63.905205766991934 1.127986593019159e-14
  endloop
endfacet
facet normal 0.0 0.0 -1.0
  outer loop
    vertex 93.89247928498965 63.905205766991934 1.127986593019159e-14
    vertex 138.39728875660637 77.52602414458157 0.0
    vertex 94.64173245377438 62.09634860526084 1.127986593019159e-14
  endloop
endfacet
facet normal 0.0 0.0 -1.0
  outer loop
    vertex 94.64173245377438 62.09634860526084 1.127986593019159e-14
    vertex 138.39728875660637 77.52602414458157 0.0
    vertex 94.89728875660636 60.155205766991934 1.127986593019159e-14
  endloop
endfacet
facet normal 0.0 0.0 -1.0
  outer loop
    vertex 94.89728875660636 60.155205766991934 1.127986593019159e-14
    vertex 138.39728875660637 77.52602414458157 0.0
    vertex 105.39728875660637 42.78438738940229 0.0
  endloop
endfacet
facet normal 0.0 0.0 -1.0
  outer loop
    vertex 105.39728875660637 42.78438738940229 0.0
    vertex 138.39728875660637 77.52602414458157 0.0
    vertex 138.39728875660637 42.78438738940229 0.0
  endloop
endfacet
facet normal 0.0 0.0 -1.0
  outer loop
    vertex 138.39728875660637 42.78438738940229 0.0
    vertex 138.39728875660637 77.52602414458157 0.0
    vertex 147.39728875660637 66.15520576699193 0.0
  endloop
endfacet
facet normal 0.0 0.0 -1.0
  outer loop
    vertex 138.39728875660637 42.78438738940229 0.0
    vertex 147.39728875660637 66.15520576699193 0.0
    vertex 147.39728875660637 54.155205766991934 0.0
  endloop
endfacet
facet normal 0.0 0.0 -1.0
  outer loop
    vertex 78.71187956781155 45.11163576747372 0.0
    vertex 80.15284505943835 58.214062928723024 1.127986593019159e-14
    vertex 82.9013901314693 43.37628367230133 0.0
  endloop
endfacet
facet normal 0.0 0.0 -1.0
  outer loop
    vertex 80.15284505943835 58.214062928723024 1.127986593019159e-14
    vertex 78.71187956781155 45.11163576747372 0.0
    vertex 79.89728875660637 60.155205766991934 1.127986593019159e-14
  endloop
endfacet
facet normal 0.0 0.0 -1.0
  outer loop
    vertex 82.9013901314693 43.37628367230133 0.0
    vertex 80.15284505943835 58.214062928723024 1.127986593019159e-14
    vertex 80.90209822822308 56.40520576699193 1.127986593019159e-14
  endloop
endfacet
facet normal 0.0 0.0 -1.0
  outer loop
    vertex 82.9013901314693 43.37628367230133 0.0
    vertex 80.90209822822308 56.40520576699193 1.127986593019159e-14
    vertex 82.09398789770725 54.85190490809282 1.127986593019159e-14
  endloop
endfacet
facet normal 0.0 0.0 -1.0
  outer loop
    vertex 82.9013901314693 43.37628367230133 0.0
    vertex 82.09398789770725 54.85190490809282 1.127986593019159e-14
    vertex 83.64728875660637 53.66001523860864 1.127986593019159e-14
  endloop
endfacet
facet normal 0.0 0.0 -1.0
  outer loop
    vertex 82.9013901314693 43.37628367230133 0.0
    vertex 83.64728875660637 53.66001523860864 1.127986593019159e-14
    vertex 87.39728875660636 42.78438738940229 0.0
  endloop
endfacet
facet normal 0.0 0.0 -1.0
  outer loop
    vertex 87.39728875660636 42.78438738940229 0.0
    vertex 83.64728875660637 53.66001523860864 1.127986593019159e-14
    vertex 85.45614591833746 52.91076206982392 1.127986593019159e-14
  endloop
endfacet
facet normal 0.0 0.0 -1.0
  outer loop
    vertex 87.39728875660636 42.78438738940229 0.0
    vertex 85.45614591833746 52.91076206982392 1.127986593019159e-14
    vertex 87.39728875660636 52.655205766991934 1.127986593019159e-14
  endloop
endfacet
facet normal 0.0 0.0 -1.0
  outer loop
    vertex 87.39728875660636 42.78438738940229 0.0
    vertex 87.39728875660636 52.655205766991934 1.127986593019159e-14
    vertex 89.33843159487527 52.91076206982392 1.127986593019159e-14
  endloop
endfacet
facet normal 0.0 0.0 -1.0
  outer loop
    vertex 87.39728875660636 42.78438738940229 0.0
    vertex 89.33843159487527 52.91076206982392 1.127986593019159e-14
    vertex 105.39728875660637 42.78438738940229 0.0
  endloop
endfacet
facet normal 0.0 0.0 -1.0
  outer loop
    vertex 105.39728875660637 42.78438738940229 0.0
    vertex 89.33843159487527 52.91076206982392 1.127986593019159e-14
    vertex 91.14728875660637 53.66001523860864 1.127986593019159e-14
  endloop
endfacet
facet normal 0.0 0.0 -1.0
  outer loop
    vertex 105.39728875660637 42.78438738940229 0.0
    vertex 91.14728875660637 53.66001523860864 1.127986593019159e-14
    vertex 92.70058961550548 54.85190490809282 1.127986593019159e-14
  endloop
endfacet
facet normal 0.0 0.0 -1.0
  outer loop
    vertex 105.39728875660637 42.78438738940229 0.0
    vertex 92.70058961550548 54.85190490809282 1.127986593019159e-14
    vertex 93.89247928498965 56.40520576699194 1.127986593019159e-14
  endloop
endfacet
facet normal 0.0 0.0 -1.0
  outer loop
    vertex 105.39728875660637 42.78438738940229 0.0
    vertex 93.89247928498965 56.40520576699194 1.127986593019159e-14
    vertex 94.64173245377438 58.214062928723024 1.127986593019159e-14
  endloop
endfacet
facet normal 0.0 0.0 -1.0
  outer loop
    vertex 105.39728875660637 42.78438738940229 0.0
    vertex 94.64173245377438 58.214062928723024 1.127986593019159e-14
    vertex 94.89728875660636 60.155205766991934 1.127986593019159e-14
  endloop
endfacet
facet normal 1.0 0.0 0.0
  outer loop
    vertex 147.39728875660637 66.15520576699193 0.0
    vertex 147.39728875660637 54.155205766991934 9.0
    vertex 147.39728875660637 54.155205766991934 0.0
  endloop
endfacet
facet normal 1.0 0.0 0.0
  outer loop
    vertex 147.39728875660637 54.155205766991934 9.0
    vertex 147.39728875660637 66.15520576699193 0.0
    vertex 147.39728875660637 57.15520576699193 9.0
  endloop
endfacet
facet normal 1.0 0.0 0.0
  outer loop
    vertex 147.39728875660637 57.15520576699193 9.0
    vertex 147.39728875660637 66.15520576699193 0.0
    vertex 147.39728875660637 60.155205766991934 9.0
  endloop
endfacet
facet normal 1.0 0.0 0.0
  outer loop
    vertex 147.39728875660637 60.155205766991934 9.0
    vertex 147.39728875660637 66.15520576699193 0.0
    vertex 147.39728875660637 63.655205766991934 9.0
  endloop
endfacet
facet normal 1.0 0.0 0.0
  outer loop
    vertex 147.39728875660637 63.655205766991934 9.0
    vertex 147.39728875660637 66.15520576699193 0.0
    vertex 147.39728875660637 66.15520576699193 9.0
  endloop
endfacet
facet normal -0.793353340291236 0.6087614290087195 0.0
  outer loop
    vertex 75.11426528705283 72.43822923654547 30.0
    vertex 72.35371875708816 68.84061495578675 0.0
    vertex 72.35371875708816 68.84061495578675 30.0
  endloop
endfacet
facet normal -0.793353340291236 0.6087614290087195 0.0
  outer loop
    vertex 72.35371875708816 68.84061495578675 0.0
    vertex 75.11426528705283 72.43822923654547 30.0
    vertex 75.11426528705283 72.43822923654547 0.0
  endloop
endfacet
facet normal -0.9914448613738105 -0.1305261922200519 -0.0
  outer loop
    vertex 70.02647037901671 60.155205766991934 30.0
    vertex 70.61836666191576 55.65930714185486 0.0
    vertex 70.61836666191576 55.65930714185486 30.0
  endloop
endfacet
facet normal -0.9914448613738105 -0.1305261922200519 -0.0
  outer loop
    vertex 70.61836666191576 55.65930714185486 0.0
    vertex 70.02647037901671 60.155205766991934 30.0
    vertex 70.02647037901671 60.155205766991934 0.0
  endloop
endfacet
facet normal -0.9238795325112865 0.38268343236509067 0.0
  outer loop
    vertex 72.35371875708816 68.84061495578675 30.0
    vertex 70.61836666191576 64.65110439212899 0.0
    vertex 70.61836666191576 64.65110439212899 30.0
  endloop
endfacet
facet normal -0.9238795325112865 0.38268343236509067 0.0
  outer loop
    vertex 70.61836666191576 64.65110439212899 0.0
    vertex 72.35371875708816 68.84061495578675 30.0
    vertex 72.35371875708816 68.84061495578675 0.0
  endloop
endfacet
facet normal -0.13052619222005066 -0.9914448613738105 -0.0
  outer loop
    vertex 87.39728875660636 42.78438738940229 30.0
    vertex 82.9013901314693 43.37628367230133 0.0
    vertex 87.39728875660636 42.78438738940229 0.0
  endloop
endfacet
facet normal -0.13052619222005066 -0.9914448613738105 -0.0
  outer loop
    vertex 82.9013901314693 43.37628367230133 0.0
    vertex 87.39728875660636 42.78438738940229 30.0
    vertex 82.9013901314693 43.37628367230133 30.0
  endloop
endfacet
facet normal -0.38268343236509156 -0.9238795325112861 -0.0
  outer loop
    vertex 82.9013901314693 43.37628367230133 30.0
    vertex 78.71187956781155 45.11163576747372 0.0
    vertex 82.9013901314693 43.37628367230133 0.0
  endloop
endfacet
facet normal -0.38268343236509156 -0.9238795325112861 -0.0
  outer loop
    vertex 78.71187956781155 45.11163576747372 0.0
    vertex 82.9013901314693 43.37628367230133 30.0
    vertex 78.71187956781155 45.11163576747372 30.0
  endloop
endfacet
facet normal 0.0 -1.0 0.0
  outer loop
    vertex 138.39728875660637 42.78438738940229 9.0
    vertex 105.39728875660637 42.78438738940229 0.0
    vertex 138.39728875660637 42.78438738940229 0.0
  endloop
endfacet
facet normal 0.0 -1.0 0.0
  outer loop
    vertex 105.39728875660637 42.78438738940229 0.0
    vertex 138.39728875660637 42.78438738940229 9.0
    vertex 105.39728875660637 42.78438738940229 9.0
  endloop
endfacet
facet normal 0.0 0.0 1.0
  outer loop
    vertex 70.61836666191576 55.65930714185486 30.0
    vertex 70.61836666191576 64.65110439212899 30.0
    vertex 70.02647037901671 60.155205766991934 30.0
  endloop
endfacet
facet normal 0.0 0.0 1.0
  outer loop
    vertex 70.61836666191576 64.65110439212899 30.0
    vertex 70.61836666191576 55.65930714185486 30.0
    vertex 72.35371875708816 51.46979657819711 30.0
  endloop
endfacet
facet normal 0.0 0.0 1.0
  outer loop
    vertex 70.61836666191576 64.65110439212899 30.0
    vertex 72.35371875708816 51.46979657819711 30.0
    vertex 72.35371875708816 68.84061495578675 30.0
  endloop
endfacet
facet normal 0.0 0.0 1.0
  outer loop
    vertex 72.35371875708816 68.84061495578675 30.0
    vertex 72.35371875708816 51.46979657819711 30.0
    vertex 75.11426528705283 47.87218229743839 30.0
  endloop
endfacet
facet normal 0.0 0.0 1.0
  outer loop
    vertex 72.35371875708816 68.84061495578675 30.0
    vertex 75.11426528705283 47.87218229743839 30.0
    vertex 75.11426528705283 72.43822923654547 30.0
  endloop
endfacet
facet normal 0.0 0.0 1.0
  outer loop
    vertex 75.11426528705283 72.43822923654547 30.0
    vertex 75.11426528705283 47.87218229743839 30.0
    vertex 78.71187956781155 45.11163576747372 30.0
  endloop
endfacet
facet normal 0.0 0.0 1.0
  outer loop
    vertex 75.11426528705283 72.43822923654547 30.0
    vertex 78.71187956781155 45.11163576747372 30.0
    vertex 78.71187956781155 75.19877576651014 30.0
  endloop
endfacet
facet normal 0.0 0.0 1.0
  outer loop
    vertex 78.71187956781155 75.19877576651014 30.0
    vertex 78.71187956781155 45.11163576747372 30.0
    vertex 79.89728875660637 60.155205766991934 30.0
  endloop
endfacet
facet normal 0.0 0.0 1.0
  outer loop
    vertex 79.89728875660637 60.155205766991934 30.0
    vertex 78.71187956781155 45.11163576747372 30.0
    vertex 80.15284505943835 58.214062928723024 30.0
  endloop
endfacet
facet normal 0.0 0.0 1.0
  outer loop
    vertex 80.15284505943835 58.214062928723024 30.0
    vertex 78.71187956781155 45.11163576747372 30.0
    vertex 82.9013901314693 43.37628367230133 30.0
  endloop
endfacet
facet normal 0.0 0.0 1.0
  outer loop
    vertex 80.15284505943835 58.214062928723024 30.0
    vertex 82.9013901314693 43.37628367230133 30.0
    vertex 80.90209822822308 56.40520576699193 30.0
  endloop
endfacet
facet normal 0.0 0.0 1.0
  outer loop
    vertex 80.90209822822308 56.40520576699193 30.0
    vertex 82.9013901314693 43.37628367230133 30.0
    vertex 82.09398789770725 54.85190490809282 30.0
  endloop
endfacet
facet normal 0.0 0.0 1.0
  outer loop
    vertex 82.09398789770725 54.85190490809282 30.0
    vertex 82.9013901314693 43.37628367230133 30.0
    vertex 83.64728875660637 53.66001523860864 30.0
  endloop
endfacet
facet normal 0.0 0.0 1.0
  outer loop
    vertex 83.64728875660637 53.66001523860864 30.0
    vertex 82.9013901314693 43.37628367230133 30.0
    vertex 87.39728875660636 42.78438738940229 30.0
  endloop
endfacet
facet normal 0.0 0.0 1.0
  outer loop
    vertex 83.64728875660637 53.66001523860864 30.0
    vertex 87.39728875660636 42.78438738940229 30.0
    vertex 85.45614591833746 52.91076206982392 30.0
  endloop
endfacet
facet normal 0.0 0.0 1.0
  outer loop
    vertex 85.45614591833746 52.91076206982392 30.0
    vertex 87.39728875660636 42.78438738940229 30.0
    vertex 87.39728875660636 52.655205766991934 30.0
  endloop
endfacet
facet normal 0.0 0.0 1.0
  outer loop
    vertex 87.39728875660636 52.655205766991934 30.0
    vertex 87.39728875660636 42.78438738940229 30.0
    vertex 105.39728875660637 42.78438738940229 30.0
  endloop
endfacet
facet normal 0.0 0.0 1.0
  outer loop
    vertex 87.39728875660636 52.655205766991934 30.0
    vertex 105.39728875660637 42.78438738940229 30.0
    vertex 89.33843159487527 52.91076206982392 30.0
  endloop
endfacet
facet normal 0.0 0.0 1.0
  outer loop
    vertex 89.33843159487527 52.91076206982392 30.0
    vertex 105.39728875660637 42.78438738940229 30.0
    vertex 91.14728875660637 53.66001523860864 30.0
  endloop
endfacet
facet normal 0.0 0.0 1.0
  outer loop
    vertex 91.14728875660637 53.66001523860864 30.0
    vertex 105.39728875660637 42.78438738940229 30.0
    vertex 92.70058961550548 54.85190490809282 30.0
  endloop
endfacet
facet normal 0.0 0.0 1.0
  outer loop
    vertex 92.70058961550548 54.85190490809282 30.0
    vertex 105.39728875660637 42.78438738940229 30.0
    vertex 93.89247928498965 56.40520576699194 30.0
  endloop
endfacet
facet normal 0.0 0.0 1.0
  outer loop
    vertex 93.89247928498965 56.40520576699194 30.0
    vertex 105.39728875660637 42.78438738940229 30.0
    vertex 94.64173245377438 58.214062928723024 30.0
  endloop
endfacet
facet normal 0.0 0.0 1.0
  outer loop
    vertex 94.64173245377438 58.214062928723024 30.0
    vertex 105.39728875660637 42.78438738940229 30.0
    vertex 94.89728875660636 60.155205766991934 30.0
  endloop
endfacet
facet normal 0.0 0.0 1.0
  outer loop
    vertex 78.71187956781155 75.19877576651014 30.0
    vertex 80.15284505943835 62.096348605260836 30.0
    vertex 82.9013901314693 76.93412786168254 30.0
  endloop
endfacet
facet normal 0.0 0.0 1.0
  outer loop
    vertex 80.15284505943835 62.096348605260836 30.0
    vertex 78.71187956781155 75.19877576651014 30.0
    vertex 79.89728875660637 60.155205766991934 30.0
  endloop
endfacet
facet normal 0.0 0.0 1.0
  outer loop
    vertex 82.9013901314693 76.93412786168254 30.0
    vertex 80.15284505943835 62.096348605260836 30.0
    vertex 80.90209822822308 63.90520576699193 30.0
  endloop
endfacet
facet normal 0.0 0.0 1.0
  outer loop
    vertex 82.9013901314693 76.93412786168254 30.0
    vertex 80.90209822822308 63.90520576699193 30.0
    vertex 82.09398789770725 65.45850662589103 30.0
  endloop
endfacet
facet normal 0.0 0.0 1.0
  outer loop
    vertex 82.9013901314693 76.93412786168254 30.0
    vertex 82.09398789770725 65.45850662589103 30.0
    vertex 83.64728875660636 66.65039629537522 30.0
  endloop
endfacet
facet normal 0.0 0.0 1.0
  outer loop
    vertex 82.9013901314693 76.93412786168254 30.0
    vertex 83.64728875660636 66.65039629537522 30.0
    vertex 87.39728875660636 77.52602414458157 30.0
  endloop
endfacet
facet normal 0.0 0.0 1.0
  outer loop
    vertex 87.39728875660636 77.52602414458157 30.0
    vertex 83.64728875660636 66.65039629537522 30.0
    vertex 85.45614591833746 67.39964946415995 30.0
  endloop
endfacet
facet normal 0.0 0.0 1.0
  outer loop
    vertex 87.39728875660636 77.52602414458157 30.0
    vertex 85.45614591833746 67.39964946415995 30.0
    vertex 87.39728875660636 67.65520576699193 30.0
  endloop
endfacet
facet normal 0.0 0.0 1.0
  outer loop
    vertex 87.39728875660636 77.52602414458157 30.0
    vertex 87.39728875660636 67.65520576699193 30.0
    vertex 89.33843159487527 67.39964946415995 30.0
  endloop
endfacet
facet normal 0.0 0.0 1.0
  outer loop
    vertex 87.39728875660636 77.52602414458157 30.0
    vertex 89.33843159487527 67.39964946415995 30.0
    vertex 105.39728875660637 77.52602414458157 30.0
  endloop
endfacet
facet normal 0.0 0.0 1.0
  outer loop
    vertex 105.39728875660637 77.52602414458157 30.0
    vertex 89.33843159487527 67.39964946415995 30.0
    vertex 91.14728875660636 66.65039629537522 30.0
  endloop
endfacet
facet normal 0.0 0.0 1.0
  outer loop
    vertex 105.39728875660637 77.52602414458157 30.0
    vertex 91.14728875660636 66.65039629537522 30.0
    vertex 92.70058961550548 65.45850662589103 30.0
  endloop
endfacet
facet normal 0.0 0.0 1.0
  outer loop
    vertex 105.39728875660637 77.52602414458157 30.0
    vertex 92.70058961550548 65.45850662589103 30.0
    vertex 93.89247928498965 63.905205766991934 30.0
  endloop
endfacet
facet normal 0.0 0.0 1.0
  outer loop
    vertex 105.39728875660637 77.52602414458157 30.0
    vertex 93.89247928498965 63.905205766991934 30.0
    vertex 94.64173245377438 62.09634860526084 30.0
  endloop
endfacet
facet normal 0.0 0.0 1.0
  outer loop
    vertex 105.39728875660637 77.52602414458157 30.0
    vertex 94.64173245377438 62.09634860526084 30.0
    vertex 94.89728875660636 60.155205766991934 30.0
  endloop
endfacet
facet normal 0.0 0.0 1.0
  outer loop
    vertex 105.39728875660637 77.52602414458157 30.0
    vertex 94.89728875660636 60.155205766991934 30.0
    vertex 105.39728875660637 42.78438738940229 30.0
  endloop
endfacet
facet normal 0.0 0.0 1.0
  outer loop
    vertex 105.39728875660637 77.52602414458157 30.0
    vertex 105.39728875660637 42.78438738940229 30.0
    vertex 105.39728875660637 57.15520576699193 30.0
  endloop
endfacet
facet normal 0.0 0.0 1.0
  outer loop
    vertex 105.39728875660637 77.52602414458157 30.0
    vertex 105.39728875660637 57.15520576699193 30.0
    vertex 105.39728875660637 63.655205766991934 30.0
  endloop
endfacet
facet normal -0.6087614290087195 -0.793353340291236 -0.0
  outer loop
    vertex 78.71187956781155 45.11163576747372 30.0
    vertex 75.11426528705283 47.87218229743839 0.0
    vertex 78.71187956781155 45.11163576747372 0.0
  endloop
endfacet
facet normal -0.6087614290087195 -0.793353340291236 -0.0
  outer loop
    vertex 75.11426528705283 47.87218229743839 0.0
    vertex 78.71187956781155 45.11163576747372 30.0
    vertex 75.11426528705283 47.87218229743839 30.0
  endloop
endfacet
facet normal -0.9914448613738104 0.13052619222005218 0.0
  outer loop
    vertex 70.61836666191576 64.65110439212899 30.0
    vertex 70.02647037901671 60.155205766991934 0.0
    vertex 70.02647037901671 60.155205766991934 30.0
  endloop
endfacet
facet normal -0.9914448613738104 0.13052619222005218 0.0
  outer loop
    vertex 70.02647037901671 60.155205766991934 0.0
    vertex 70.61836666191576 64.65110439212899 30.0
    vertex 70.61836666191576 64.65110439212899 0.0
  endloop
endfacet
facet normal -0.793353340291236 -0.6087614290087195 -0.0
  outer loop
    vertex 72.35371875708816 51.46979657819711 30.0
    vertex 75.11426528705283 47.87218229743839 0.0
    vertex 75.11426528705283 47.87218229743839 30.0
  endloop
endfacet
facet normal -0.793353340291236 -0.6087614290087195 -0.0
  outer loop
    vertex 75.11426528705283 47.87218229743839 0.0
    vertex 72.35371875708816 51.46979657819711 30.0
    vertex 72.35371875708816 51.46979657819711 0.0
  endloop
endfacet
facet normal -0.9238795325112861 -0.38268343236509156 -0.0
  outer loop
    vertex 70.61836666191576 55.65930714185486 30.0
    vertex 72.35371875708816 51.46979657819711 0.0
    vertex 72.35371875708816 51.46979657819711 30.0
  endloop
endfacet
facet normal -0.9238795325112861 -0.38268343236509156 -0.0
  outer loop
    vertex 72.35371875708816 51.46979657819711 0.0
    vertex 70.61836666191576 55.65930714185486 30.0
    vertex 70.61836666191576 55.65930714185486 0.0
  endloop
endfacet
facet normal -0.6087614290087195 0.793353340291236 0.0
  outer loop
    vertex 75.11426528705283 72.43822923654547 30.0
    vertex 78.71187956781155 75.19877576651014 0.0
    vertex 75.11426528705283 72.43822923654547 0.0
  endloop
endfacet
facet normal -0.6087614290087195 0.793353340291236 0.0
  outer loop
    vertex 78.71187956781155 75.19877576651014 0.0
    vertex 75.11426528705283 72.43822923654547 30.0
    vertex 78.71187956781155 75.19877576651014 30.0
  endloop
endfacet
facet normal 0.0 1.0 0.0
  outer loop
    vertex 87.39728875660636 77.52602414458157 0.0
    vertex 105.39728875660637 77.52602414458157 9.0
    vertex 138.39728875660637 77.52602414458157 0.0
  endloop
endfacet
facet normal 0.0 1.0 0.0
  outer loop
    vertex 105.39728875660637 77.52602414458157 9.0
    vertex 87.39728875660636 77.52602414458157 0.0
    vertex 87.39728875660636 77.52602414458157 30.0
  endloop
endfacet
facet normal 0.0 1.0 0.0
  outer loop
    vertex 105.39728875660637 77.52602414458157 9.0
    vertex 87.39728875660636 77.52602414458157 30.0
    vertex 105.39728875660637 77.52602414458157 30.0
  endloop
endfacet
facet normal 0.0 1.0 0.0
  outer loop
    vertex 138.39728875660637 77.52602414458157 9.0
    vertex 138.39728875660637 77.52602414458157 0.0
    vertex 105.39728875660637 77.52602414458157 9.0
  endloop
endfacet
facet normal -0.1305261922200519 0.9914448613738105 0.0
  outer loop
    vertex 82.9013901314693 76.93412786168254 30.0
    vertex 87.39728875660636 77.52602414458157 0.0
    vertex 82.9013901314693 76.93412786168254 0.0
  endloop
endfacet
facet normal -0.1305261922200519 0.9914448613738105 0.0
  outer loop
    vertex 87.39728875660636 77.52602414458157 0.0
    vertex 82.9013901314693 76.93412786168254 30.0
    vertex 87.39728875660636 77.52602414458157 30.0
  endloop
endfacet
facet normal -0.38268343236509156 0.9238795325112861 0.0
  outer loop
    vertex 78.71187956781155 75.19877576651014 30.0
    vertex 82.9013901314693 76.93412786168254 0.0
    vertex 78.71187956781155 75.19877576651014 0.0
  endloop
endfacet
facet normal -0.38268343236509156 0.9238795325112861 0.0
  outer loop
    vertex 82.9013901314693 76.93412786168254 0.0
    vertex 78.71187956781155 75.19877576651014 30.0
    vertex 82.9013901314693 76.93412786168254 30.0
  endloop
endfacet
facet normal 0.7841095115466674 0.6206224890398727 0.0
  outer loop
    vertex 138.39728875660637 77.52602414458157 0.0
    vertex 147.39728875660637 66.15520576699193 9.0
    vertex 147.39728875660637 66.15520576699193 0.0
  endloop
endfacet
facet normal 0.7841095115466674 0.6206224890398727 0.0
  outer loop
    vertex 147.39728875660637 66.15520576699193 9.0
    vertex 138.39728875660637 77.52602414458157 0.0
    vertex 138.39728875660637 77.52602414458157 9.0
  endloop
endfacet
endsolid Untitled-57e4562e
