solid ascii
  facet normal 0.000000e+000 0.000000e+000 1.000000e+000
    outer loop
      vertex   -2.850000e+001 3.950000e+001 8.500000e+000
      vertex   -2.850000e+001 2.050000e+001 8.500000e+000
      vertex   -2.628500e+001 2.004000e+001 8.500000e+000
    endloop
  endfacet
  facet normal 0.000000e+000 0.000000e+000 1.000000e+000
    outer loop
      vertex   -2.628500e+001 3.996000e+001 8.500000e+000
      vertex   -2.850000e+001 3.950000e+001 8.500000e+000
      vertex   -2.628500e+001 2.004000e+001 8.500000e+000
    endloop
  endfacet
  facet normal 0.000000e+000 0.000000e+000 1.000000e+000
    outer loop
      vertex   -2.628500e+001 3.996000e+001 8.500000e+000
      vertex   -4.371500e+001 3.996000e+001 8.500000e+000
      vertex   -2.850000e+001 3.950000e+001 8.500000e+000
    endloop
  endfacet
  facet normal 0.000000e+000 0.000000e+000 1.000000e+000
    outer loop
      vertex   -2.850000e+001 3.950000e+001 8.500000e+000
      vertex   -4.371500e+001 3.996000e+001 8.500000e+000
      vertex   -4.150000e+001 3.950000e+001 8.500000e+000
    endloop
  endfacet
  facet normal 0.000000e+000 0.000000e+000 1.000000e+000
    outer loop
      vertex   -4.150000e+001 3.950000e+001 8.500000e+000
      vertex   -4.371500e+001 3.996000e+001 8.500000e+000
      vertex   -4.371500e+001 2.004000e+001 8.500000e+000
    endloop
  endfacet
  facet normal 0.000000e+000 0.000000e+000 1.000000e+000
    outer loop
      vertex   -4.150000e+001 2.050000e+001 8.500000e+000
      vertex   -4.371500e+001 2.004000e+001 8.500000e+000
      vertex   -2.628500e+001 2.004000e+001 8.500000e+000
    endloop
  endfacet
  facet normal 0.000000e+000 0.000000e+000 1.000000e+000
    outer loop
      vertex   -2.850000e+001 2.050000e+001 8.500000e+000
      vertex   -4.150000e+001 2.050000e+001 8.500000e+000
      vertex   -2.628500e+001 2.004000e+001 8.500000e+000
    endloop
  endfacet
  facet normal 0.000000e+000 -0.000000e+000 1.000000e+000
    outer loop
      vertex   -4.150000e+001 2.050000e+001 8.500000e+000
      vertex   -4.150000e+001 3.950000e+001 8.500000e+000
      vertex   -4.371500e+001 2.004000e+001 8.500000e+000
    endloop
  endfacet
  facet normal -0.000000e+000 9.723873e-001 2.333730e-001
    outer loop
      vertex   -4.371500e+001 3.996000e+001 8.500000e+000
      vertex   -2.628500e+001 3.996000e+001 8.500000e+000
      vertex   -4.550000e+001 4.200000e+001 2.240083e-015
    endloop
  endfacet
  facet normal 0.000000e+000 9.723873e-001 2.333730e-001
    outer loop
      vertex   -4.550000e+001 4.200000e+001 2.240083e-015
      vertex   -2.628500e+001 3.996000e+001 8.500000e+000
      vertex   -2.450000e+001 4.200000e+001 2.240083e-015
    endloop
  endfacet
  facet normal 9.786535e-001 0.000000e+000 2.055172e-001
    outer loop
      vertex   -2.628500e+001 2.004000e+001 8.500000e+000
      vertex   -2.450000e+001 1.800000e+001 2.240083e-015
      vertex   -2.628500e+001 3.996000e+001 8.500000e+000
    endloop
  endfacet
  facet normal 9.786535e-001 -0.000000e+000 2.055172e-001
    outer loop
      vertex   -2.628500e+001 3.996000e+001 8.500000e+000
      vertex   -2.450000e+001 1.800000e+001 2.240083e-015
      vertex   -2.450000e+001 4.200000e+001 2.240083e-015
    endloop
  endfacet
  facet normal -0.000000e+000 1.000000e+000 0.000000e+000
    outer loop
      vertex   -4.150000e+001 2.050000e+001 0.000000e+000
      vertex   -4.150000e+001 2.050000e+001 8.500000e+000
      vertex   -2.850000e+001 2.050000e+001 0.000000e+000
    endloop
  endfacet
  facet normal 0.000000e+000 1.000000e+000 -0.000000e+000
    outer loop
      vertex   -2.850000e+001 2.050000e+001 0.000000e+000
      vertex   -4.150000e+001 2.050000e+001 8.500000e+000
      vertex   -2.850000e+001 2.050000e+001 8.500000e+000
    endloop
  endfacet
  facet normal 1.000000e+000 0.000000e+000 -0.000000e+000
    outer loop
      vertex   -4.150000e+001 3.950000e+001 0.000000e+000
      vertex   -4.150000e+001 3.950000e+001 8.500000e+000
      vertex   -4.150000e+001 2.050000e+001 0.000000e+000
    endloop
  endfacet
  facet normal 1.000000e+000 0.000000e+000 -0.000000e+000
    outer loop
      vertex   -4.150000e+001 2.050000e+001 0.000000e+000
      vertex   -4.150000e+001 3.950000e+001 8.500000e+000
      vertex   -4.150000e+001 2.050000e+001 8.500000e+000
    endloop
  endfacet
  facet normal -0.000000e+000 -1.000000e+000 0.000000e+000
    outer loop
      vertex   -2.850000e+001 3.950000e+001 0.000000e+000
      vertex   -2.850000e+001 3.950000e+001 8.500000e+000
      vertex   -4.150000e+001 3.950000e+001 0.000000e+000
    endloop
  endfacet
  facet normal 0.000000e+000 -1.000000e+000 0.000000e+000
    outer loop
      vertex   -4.150000e+001 3.950000e+001 0.000000e+000
      vertex   -2.850000e+001 3.950000e+001 8.500000e+000
      vertex   -4.150000e+001 3.950000e+001 8.500000e+000
    endloop
  endfacet
  facet normal -1.000000e+000 0.000000e+000 0.000000e+000
    outer loop
      vertex   -2.850000e+001 2.050000e+001 0.000000e+000
      vertex   -2.850000e+001 2.050000e+001 8.500000e+000
      vertex   -2.850000e+001 3.950000e+001 0.000000e+000
    endloop
  endfacet
  facet normal -1.000000e+000 0.000000e+000 0.000000e+000
    outer loop
      vertex   -2.850000e+001 3.950000e+001 0.000000e+000
      vertex   -2.850000e+001 2.050000e+001 8.500000e+000
      vertex   -2.850000e+001 3.950000e+001 8.500000e+000
    endloop
  endfacet
  facet normal -5.600208e-016 -0.000000e+000 -1.000000e+000
    outer loop
      vertex   -4.150000e+001 3.950000e+001 0.000000e+000
      vertex   -4.150000e+001 2.050000e+001 0.000000e+000
      vertex   -4.550000e+001 1.800000e+001 2.240083e-015
    endloop
  endfacet
  facet normal -5.600208e-016 0.000000e+000 -1.000000e+000
    outer loop
      vertex   -4.550000e+001 4.200000e+001 2.240083e-015
      vertex   -4.150000e+001 3.950000e+001 0.000000e+000
      vertex   -4.550000e+001 1.800000e+001 2.240083e-015
    endloop
  endfacet
  facet normal 0.000000e+000 8.960333e-016 -1.000000e+000
    outer loop
      vertex   -4.550000e+001 4.200000e+001 2.240083e-015
      vertex   -2.450000e+001 4.200000e+001 2.240083e-015
      vertex   -4.150000e+001 3.950000e+001 0.000000e+000
    endloop
  endfacet
  facet normal 0.000000e+000 8.960333e-016 -1.000000e+000
    outer loop
      vertex   -4.150000e+001 3.950000e+001 0.000000e+000
      vertex   -2.450000e+001 4.200000e+001 2.240083e-015
      vertex   -2.850000e+001 3.950000e+001 0.000000e+000
    endloop
  endfacet
  facet normal 5.600208e-016 0.000000e+000 -1.000000e+000
    outer loop
      vertex   -2.850000e+001 3.950000e+001 0.000000e+000
      vertex   -2.450000e+001 4.200000e+001 2.240083e-015
      vertex   -2.450000e+001 1.800000e+001 2.240083e-015
    endloop
  endfacet
  facet normal -0.000000e+000 -8.960333e-016 -1.000000e+000
    outer loop
      vertex   -2.850000e+001 2.050000e+001 0.000000e+000
      vertex   -2.450000e+001 1.800000e+001 2.240083e-015
      vertex   -4.550000e+001 1.800000e+001 2.240083e-015
    endloop
  endfacet
  facet normal 0.000000e+000 -8.960333e-016 -1.000000e+000
    outer loop
      vertex   -4.150000e+001 2.050000e+001 0.000000e+000
      vertex   -2.850000e+001 2.050000e+001 0.000000e+000
      vertex   -4.550000e+001 1.800000e+001 2.240083e-015
    endloop
  endfacet
  facet normal 5.600208e-016 0.000000e+000 -1.000000e+000
    outer loop
      vertex   -2.850000e+001 2.050000e+001 0.000000e+000
      vertex   -2.850000e+001 3.950000e+001 0.000000e+000
      vertex   -2.450000e+001 1.800000e+001 2.240083e-015
    endloop
  endfacet
  facet normal -1.865405e-016 -9.723873e-001 2.333730e-001
    outer loop
      vertex   -4.371500e+001 2.004000e+001 8.500000e+000
      vertex   -4.550000e+001 1.800000e+001 2.240083e-015
      vertex   -2.628500e+001 2.004000e+001 8.500000e+000
    endloop
  endfacet
  facet normal 0.000000e+000 -9.723873e-001 2.333730e-001
    outer loop
      vertex   -2.628500e+001 2.004000e+001 8.500000e+000
      vertex   -4.550000e+001 1.800000e+001 2.240083e-015
      vertex   -2.450000e+001 1.800000e+001 2.240083e-015
    endloop
  endfacet
  facet normal -9.786535e-001 0.000000e+000 2.055172e-001
    outer loop
      vertex   -4.371500e+001 2.004000e+001 8.500000e+000
      vertex   -4.371500e+001 3.996000e+001 8.500000e+000
      vertex   -4.550000e+001 1.800000e+001 2.240083e-015
    endloop
  endfacet
  facet normal -9.786535e-001 0.000000e+000 2.055172e-001
    outer loop
      vertex   -4.550000e+001 1.800000e+001 2.240083e-015
      vertex   -4.371500e+001 3.996000e+001 8.500000e+000
      vertex   -4.550000e+001 4.200000e+001 2.240083e-015
    endloop
  endfacet
endsolid
