solid feedrate_surface
facet normal 0.0 0.0 -1.0
  outer loop
    vertex 62.87418941230268 106.07534673270114 0.0
    vertex 42.874189412302684 86.07534673270115 0.0
    vertex 42.874189412302684 106.07534673270114 0.0
  endloop
endfacet
facet normal 0.0 0.0 -1.0
  outer loop
    vertex 42.874189412302684 86.07534673270115 0.0
    vertex 62.87418941230268 106.07534673270114 0.0
    vertex 62.87418941230268 86.07534673270115 0.0
  endloop
endfacet
facet normal -1.0 0.0 0.0
  outer loop
    vertex 42.874189412302684 106.07534673270114 0.9999999999999999
    vertex 42.874189412302684 86.07534673270115 0.0
    vertex 42.874189412302684 86.07534673270115 0.9999999999999999
  endloop
endfacet
facet normal -1.0 0.0 0.0
  outer loop
    vertex 42.874189412302684 86.07534673270115 0.0
    vertex 42.874189412302684 106.07534673270114 0.9999999999999999
    vertex 42.874189412302684 106.07534673270114 0.0
  endloop
endfacet
facet normal -0.0 -1.0 -0.0
  outer loop
    vertex 62.87418941230268 86.07534673270115 0.9999999999999999
    vertex 42.874189412302684 86.07534673270115 0.0
    vertex 62.87418941230268 86.07534673270115 0.0
  endloop
endfacet
facet normal -0.0 -1.0 -0.0
  outer loop
    vertex 42.874189412302684 86.07534673270115 0.0
    vertex 62.87418941230268 86.07534673270115 0.9999999999999999
    vertex 42.874189412302684 86.07534673270115 0.9999999999999999
  endloop
endfacet
facet normal 1.0 0.0 0.0
  outer loop
    vertex 62.87418941230268 106.07534673270114 0.0
    vertex 62.87418941230268 86.07534673270115 0.9999999999999999
    vertex 62.87418941230268 86.07534673270115 0.0
  endloop
endfacet
facet normal 1.0 0.0 0.0
  outer loop
    vertex 62.87418941230268 86.07534673270115 0.9999999999999999
    vertex 62.87418941230268 106.07534673270114 0.0
    vertex 62.87418941230268 106.07534673270114 0.9999999999999999
  endloop
endfacet
facet normal 0.0 1.0 0.0
  outer loop
    vertex 42.874189412302684 106.07534673270114 0.9999999999999999
    vertex 62.87418941230268 106.07534673270114 0.0
    vertex 42.874189412302684 106.07534673270114 0.0
  endloop
endfacet
facet normal 0.0 1.0 0.0
  outer loop
    vertex 62.87418941230268 106.07534673270114 0.0
    vertex 42.874189412302684 106.07534673270114 0.9999999999999999
    vertex 62.87418941230268 106.07534673270114 0.9999999999999999
  endloop
endfacet
facet normal 0.0 0.0 1.0
  outer loop
    vertex 62.87418941230268 86.07534673270115 0.9999999999999999
    vertex 42.874189412302684 106.07534673270114 0.9999999999999999
    vertex 42.874189412302684 86.07534673270115 0.9999999999999999
  endloop
endfacet
facet normal 0.0 0.0 1.0
  outer loop
    vertex 42.874189412302684 106.07534673270114 0.9999999999999999
    vertex 62.87418941230268 86.07534673270115 0.9999999999999999
    vertex 62.87418941230268 106.07534673270114 0.9999999999999999
  endloop
endfacet
endsolid feedrate_surface
