solid neahdings
facet normal -0.4720528413511362 0.8815702552674514 0.0
  outer loop
    vertex 6.822929824797165 4.907055474524429 9.999999999999996
    vertex 7.348560601817485 5.284309439627978 -2.8199664825478975e-15
    vertex 6.822929824797165 4.907055474524429 -2.8199664825478975e-15
  endloop
endfacet
facet normal -0.6841352024933045 0.7293552116146462 0.0
  outer loop
    vertex 7.348560601817485 5.284309439627978 -2.8199664825478975e-15
    vertex 6.822929824797165 4.907055474524429 9.999999999999996
    vertex 7.348560601817485 5.284309439627978 9.999999999999996
  endloop
endfacet
facet normal -0.2278008591750916 0.9737077428875105 0.0
  outer loop
    vertex 6.217568971171603 4.678699382345849 9.999999999999996
    vertex 6.822929824797165 4.907055474524429 -2.8199664825478975e-15
    vertex 6.217568971171603 4.678699382345849 -2.8199664825478975e-15
  endloop
endfacet
facet normal -0.4720528413511362 0.8815702552674514 0.0
  outer loop
    vertex 6.822929824797165 4.907055474524429 -2.8199664825478975e-15
    vertex 6.217568971171603 4.678699382345849 9.999999999999996
    vertex 6.822929824797165 4.907055474524429 9.999999999999996
  endloop
endfacet
facet normal 0.28957254039420705 0.9571560707897357 0.0
  outer loop
    vertex 4.935296458923613 4.71972150327512 9.999999999999996
    vertex 5.57373238270928 4.614803253397927 -2.8199664825478975e-15
    vertex 4.935296458923613 4.71972150327512 -2.8199664825478975e-15
  endloop
endfacet
facet normal 0.0319753750950178 0.9994886569579131 0.0
  outer loop
    vertex 5.57373238270928 4.614803253397927 -2.8199664825478975e-15
    vertex 4.935296458923613 4.71972150327512 9.999999999999996
    vertex 5.57373238270928 4.614803253397927 9.999999999999996
  endloop
endfacet
facet normal 0.5274358156067787 0.8495948801724339 0.0
  outer loop
    vertex 4.3457695529553755 4.986304126633895 9.999999999999996
    vertex 4.935296458923613 4.71972150327512 -2.8199664825478975e-15
    vertex 4.3457695529553755 4.986304126633895 -2.8199664825478975e-15
  endloop
endfacet
facet normal 0.28957254039420705 0.9571560707897357 0.0
  outer loop
    vertex 4.935296458923613 4.71972150327512 -2.8199664825478975e-15
    vertex 4.3457695529553755 4.986304126633895 9.999999999999996
    vertex 4.935296458923613 4.71972150327512 9.999999999999996
  endloop
endfacet
facet normal 0.0319753750950178 0.9994886569579131 0.0
  outer loop
    vertex 5.57373238270928 4.614803253397927 9.999999999999996
    vertex 6.217568971171603 4.678699382345849 -2.8199664825478975e-15
    vertex 5.57373238270928 4.614803253397927 -2.8199664825478975e-15
  endloop
endfacet
facet normal -0.2278008591750916 0.9737077428875105 0.0
  outer loop
    vertex 6.217568971171603 4.678699382345849 -2.8199664825478975e-15
    vertex 5.57373238270928 4.614803253397927 9.999999999999996
    vertex 6.217568971171603 4.678699382345849 9.999999999999996
  endloop
endfacet
facet normal -0.8495948801724337 0.527435815606779 0.0
  outer loop
    vertex 7.758640433424557 5.784752043376338 9.999999999999996
    vertex 7.348560601817485 5.284309439627978 -2.8199664825478975e-15
    vertex 7.348560601817485 5.284309439627978 9.999999999999996
  endloop
endfacet
facet normal -0.6841352024933045 0.7293552116146462 0.0
  outer loop
    vertex 7.348560601817485 5.284309439627978 -2.8199664825478975e-15
    vertex 7.758640433424557 5.784752043376338 9.999999999999996
    vertex 7.758640433424557 5.784752043376338 -2.8199664825478975e-15
  endloop
endfacet
facet normal -0.9571560707897362 0.2895725403942057 0.0
  outer loop
    vertex 8.025223056783338 6.3742789493445855 9.999999999999996
    vertex 7.758640433424557 5.784752043376338 -2.8199664825478975e-15
    vertex 7.758640433424557 5.784752043376338 9.999999999999996
  endloop
endfacet
facet normal -0.8495948801724337 0.527435815606779 0.0
  outer loop
    vertex 7.758640433424557 5.784752043376338 -2.8199664825478975e-15
    vertex 8.025223056783338 6.3742789493445855 9.999999999999996
    vertex 8.025223056783338 6.3742789493445855 -2.8199664825478975e-15
  endloop
endfacet
facet normal -0.9994886569579132 0.03197537509501707 0.0
  outer loop
    vertex 8.130141306660528 7.012714873130245 9.999999999999996
    vertex 8.025223056783338 6.3742789493445855 -2.8199664825478975e-15
    vertex 8.025223056783338 6.3742789493445855 9.999999999999996
  endloop
endfacet
facet normal -0.9571560707897362 0.2895725403942057 0.0
  outer loop
    vertex 8.025223056783338 6.3742789493445855 -2.8199664825478975e-15
    vertex 8.130141306660528 7.012714873130245 9.999999999999996
    vertex 8.130141306660528 7.012714873130245 -2.8199664825478975e-15
  endloop
endfacet
facet normal -0.9737077428875107 -0.22780085917509085 0.0
  outer loop
    vertex 8.066245177712606 7.656551461592575 9.999999999999996
    vertex 8.130141306660528 7.012714873130245 -2.8199664825478975e-15
    vertex 8.130141306660528 7.012714873130245 9.999999999999996
  endloop
endfacet
facet normal -0.9994886569579132 0.03197537509501707 0.0
  outer loop
    vertex 8.130141306660528 7.012714873130245 -2.8199664825478975e-15
    vertex 8.066245177712606 7.656551461592575 9.999999999999996
    vertex 8.066245177712606 7.656551461592575 -2.8199664825478975e-15
  endloop
endfacet
facet normal -0.8815702552674514 -0.4720528413511359 0.0
  outer loop
    vertex 7.837889085534027 8.261912315218135 9.999999999999996
    vertex 8.066245177712606 7.656551461592575 -2.8199664825478975e-15
    vertex 8.066245177712606 7.656551461592575 9.999999999999996
  endloop
endfacet
facet normal -0.9737077428875107 -0.22780085917509085 0.0
  outer loop
    vertex 8.066245177712606 7.656551461592575 -2.8199664825478975e-15
    vertex 7.837889085534027 8.261912315218135 9.999999999999996
    vertex 7.837889085534027 8.261912315218135 -2.8199664825478975e-15
  endloop
endfacet
facet normal -0.7293552116146448 -0.684135202493306 0.0
  outer loop
    vertex 7.4606351204304815 8.787543092238447 9.999999999999996
    vertex 7.837889085534027 8.261912315218135 -2.8199664825478975e-15
    vertex 7.837889085534027 8.261912315218135 9.999999999999996
  endloop
endfacet
facet normal -0.8815702552674514 -0.4720528413511359 0.0
  outer loop
    vertex 7.837889085534027 8.261912315218135 -2.8199664825478975e-15
    vertex 7.4606351204304815 8.787543092238447 9.999999999999996
    vertex 7.4606351204304815 8.787543092238447 -2.8199664825478975e-15
  endloop
endfacet
facet normal -0.7293552116146448 -0.684135202493306 0.0
  outer loop
    vertex 7.4606351204304815 8.787543092238447 9.999999999999996
    vertex 6.960192516682106 9.197622923845532 -2.8199664825478975e-15
    vertex 7.4606351204304815 8.787543092238447 -2.8199664825478975e-15
  endloop
endfacet
facet normal -0.5274358156067779 -0.8495948801724343 0.0
  outer loop
    vertex 6.960192516682106 9.197622923845532 -2.8199664825478975e-15
    vertex 7.4606351204304815 8.787543092238447 9.999999999999996
    vertex 6.960192516682106 9.197622923845532 9.999999999999996
  endloop
endfacet
facet normal -0.5274358156067779 -0.8495948801724343 0.0
  outer loop
    vertex 6.960192516682106 9.197622923845532 9.999999999999996
    vertex 6.3706656107138695 9.464205547204307 -2.8199664825478975e-15
    vertex 6.960192516682106 9.197622923845532 -2.8199664825478975e-15
  endloop
endfacet
facet normal -0.28957254039420605 -0.9571560707897361 0.0
  outer loop
    vertex 6.3706656107138695 9.464205547204307 -2.8199664825478975e-15
    vertex 6.960192516682106 9.197622923845532 9.999999999999996
    vertex 6.3706656107138695 9.464205547204307 9.999999999999996
  endloop
endfacet
facet normal -0.28957254039420605 -0.9571560707897361 0.0
  outer loop
    vertex 6.3706656107138695 9.464205547204307 9.999999999999996
    vertex 5.73222968692821 9.569123797081495 -2.8199664825478975e-15
    vertex 6.3706656107138695 9.464205547204307 -2.8199664825478975e-15
  endloop
endfacet
facet normal -0.03197537509501789 -0.9994886569579132 0.0
  outer loop
    vertex 5.73222968692821 9.569123797081495 -2.8199664825478975e-15
    vertex 6.3706656107138695 9.464205547204307 9.999999999999996
    vertex 5.73222968692821 9.569123797081495 9.999999999999996
  endloop
endfacet
facet normal -0.03197537509501789 -0.9994886569579132 0.0
  outer loop
    vertex 5.73222968692821 9.569123797081495 9.999999999999996
    vertex 5.088393098465883 9.505227668133577 -2.8199664825478975e-15
    vertex 5.73222968692821 9.569123797081495 -2.8199664825478975e-15
  endloop
endfacet
facet normal 0.22780085917509052 -0.9737077428875108 0.0
  outer loop
    vertex 5.088393098465883 9.505227668133577 -2.8199664825478975e-15
    vertex 5.73222968692821 9.569123797081495 9.999999999999996
    vertex 5.088393098465883 9.505227668133577 9.999999999999996
  endloop
endfacet
facet normal 0.22780085917509052 -0.9737077428875108 0.0
  outer loop
    vertex 5.088393098465883 9.505227668133577 9.999999999999996
    vertex 4.483032244840322 9.276871575954996 -2.8199664825478975e-15
    vertex 5.088393098465883 9.505227668133577 -2.8199664825478975e-15
  endloop
endfacet
facet normal 0.4720528413511367 -0.8815702552674509 0.0
  outer loop
    vertex 4.483032244840322 9.276871575954996 -2.8199664825478975e-15
    vertex 5.088393098465883 9.505227668133577 9.999999999999996
    vertex 4.483032244840322 9.276871575954996 9.999999999999996
  endloop
endfacet
facet normal 0.4720528413511367 -0.8815702552674509 0.0
  outer loop
    vertex 4.483032244840322 9.276871575954996 9.999999999999996
    vertex 3.957401467820004 8.899617610851447 -2.8199664825478975e-15
    vertex 4.483032244840322 9.276871575954996 -2.8199664825478975e-15
  endloop
endfacet
facet normal 0.6841352024933057 -0.7293552116146451 0.0
  outer loop
    vertex 3.957401467820004 8.899617610851447 -2.8199664825478975e-15
    vertex 4.483032244840322 9.276871575954996 9.999999999999996
    vertex 3.957401467820004 8.899617610851447 9.999999999999996
  endloop
endfacet
facet normal 0.6841352024933057 -0.7293552116146451 0.0
  outer loop
    vertex 3.957401467820004 8.899617610851447 -2.8199664825478975e-15
    vertex 3.5473216362129234 8.399175007103075 9.999999999999996
    vertex 3.5473216362129234 8.399175007103075 -2.8199664825478975e-15
  endloop
endfacet
facet normal 0.8495948801724346 -0.5274358156067777 0.0
  outer loop
    vertex 3.5473216362129234 8.399175007103075 9.999999999999996
    vertex 3.957401467820004 8.899617610851447 -2.8199664825478975e-15
    vertex 3.957401467820004 8.899617610851447 9.999999999999996
  endloop
endfacet
facet normal 0.8495948801724346 -0.5274358156067777 0.0
  outer loop
    vertex 3.5473216362129234 8.399175007103075 -2.8199664825478975e-15
    vertex 3.2807390128541494 7.809648101134837 9.999999999999996
    vertex 3.2807390128541494 7.809648101134837 -2.8199664825478975e-15
  endloop
endfacet
facet normal 0.9571560707897364 -0.28957254039420444 0.0
  outer loop
    vertex 3.2807390128541494 7.809648101134837 9.999999999999996
    vertex 3.5473216362129234 8.399175007103075 -2.8199664825478975e-15
    vertex 3.5473216362129234 8.399175007103075 9.999999999999996
  endloop
endfacet
facet normal 0.9571560707897364 -0.28957254039420444 0.0
  outer loop
    vertex 3.2807390128541494 7.809648101134837 -2.8199664825478975e-15
    vertex 3.1758207629769593 7.171212177349175 9.999999999999996
    vertex 3.1758207629769593 7.171212177349175 -2.8199664825478975e-15
  endloop
endfacet
facet normal 0.9994886569579132 -0.03197537509501636 0.0
  outer loop
    vertex 3.1758207629769593 7.171212177349175 9.999999999999996
    vertex 3.2807390128541494 7.809648101134837 -2.8199664825478975e-15
    vertex 3.2807390128541494 7.809648101134837 9.999999999999996
  endloop
endfacet
facet normal 0.9994886569579132 -0.03197537509501636 0.0
  outer loop
    vertex 3.1758207629769593 7.171212177349175 -2.8199664825478975e-15
    vertex 3.239716891924881 6.527375588886852 9.999999999999996
    vertex 3.239716891924881 6.527375588886852 -2.8199664825478975e-15
  endloop
endfacet
facet normal 0.9737077428875107 0.22780085917509083 0.0
  outer loop
    vertex 3.239716891924881 6.527375588886852 9.999999999999996
    vertex 3.1758207629769593 7.171212177349175 -2.8199664825478975e-15
    vertex 3.1758207629769593 7.171212177349175 9.999999999999996
  endloop
endfacet
facet normal 0.9737077428875107 0.22780085917509083 0.0
  outer loop
    vertex 3.239716891924881 6.527375588886852 -2.8199664825478975e-15
    vertex 3.4680729841034577 5.922014735261297 9.999999999999996
    vertex 3.4680729841034577 5.922014735261297 -2.8199664825478975e-15
  endloop
endfacet
facet normal 0.8815702552674517 0.4720528413511356 0.0
  outer loop
    vertex 3.4680729841034577 5.922014735261297 9.999999999999996
    vertex 3.239716891924881 6.527375588886852 -2.8199664825478975e-15
    vertex 3.239716891924881 6.527375588886852 9.999999999999996
  endloop
endfacet
facet normal 0.8815702552674517 0.4720528413511356 0.0
  outer loop
    vertex 3.4680729841034577 5.922014735261297 -2.8199664825478975e-15
    vertex 3.8453269492070135 5.3963839582409685 9.999999999999996
    vertex 3.8453269492070135 5.3963839582409685 -2.8199664825478975e-15
  endloop
endfacet
facet normal 0.7293552116146453 0.6841352024933053 0.0
  outer loop
    vertex 3.8453269492070135 5.3963839582409685 9.999999999999996
    vertex 3.4680729841034577 5.922014735261297 -2.8199664825478975e-15
    vertex 3.4680729841034577 5.922014735261297 9.999999999999996
  endloop
endfacet
facet normal 0.7293552116146453 0.6841352024933053 0.0
  outer loop
    vertex 3.8453269492070135 5.3963839582409685 9.999999999999996
    vertex 4.3457695529553755 4.986304126633895 -2.8199664825478975e-15
    vertex 3.8453269492070135 5.3963839582409685 -2.8199664825478975e-15
  endloop
endfacet
facet normal 0.5274358156067787 0.8495948801724339 0.0
  outer loop
    vertex 4.3457695529553755 4.986304126633895 -2.8199664825478975e-15
    vertex 3.8453269492070135 5.3963839582409685 9.999999999999996
    vertex 4.3457695529553755 4.986304126633895 9.999999999999996
  endloop
endfacet
facet normal -0.9737077428875107 -0.22780085917509046 0.0
  outer loop
    vertex 0.7844423203811897 5.95295922936426 9.999999999999996
    vertex 1.2451297584814842 4.731699318484036 -2.8199664825478975e-15
    vertex 1.2451297584814842 4.731699318484036 9.999999999999996
  endloop
endfacet
facet normal -0.8815702552674519 -0.4720528413511352 0.0
  outer loop
    vertex 1.2451297584814842 4.731699318484036 -2.8199664825478975e-15
    vertex 0.7844423203811897 5.95295922936426 9.999999999999996
    vertex 0.7844423203811897 5.95295922936426 -2.8199664825478975e-15
  endloop
endfacet
facet normal -0.2895725403942056 -0.9571560707897361 0.0
  outer loop
    vertex 4.205118332847714 2.3061831712910315 9.999999999999996
    vertex 3.0158019567848537 2.84398912437754 -2.8199664825478975e-15
    vertex 4.205118332847714 2.3061831712910315 -2.8199664825478975e-15
  endloop
endfacet
facet normal -0.5274358156067778 -0.8495948801724343 0.0
  outer loop
    vertex 3.0158019567848537 2.84398912437754 -2.8199664825478975e-15
    vertex 4.205118332847714 2.3061831712910315 9.999999999999996
    vertex 3.0158019567848537 2.84398912437754 9.999999999999996
  endloop
endfacet
facet normal -0.5274358156067778 -0.8495948801724343 0.0
  outer loop
    vertex 3.0158019567848537 2.84398912437754 9.999999999999996
    vertex 2.0062049767455163 3.6712875127731848 -2.8199664825478975e-15
    vertex 3.0158019567848537 2.84398912437754 -2.8199664825478975e-15
  endloop
endfacet
facet normal -0.7293552116146456 -0.6841352024933051 0.0
  outer loop
    vertex 2.0062049767455163 3.6712875127731848 -2.8199664825478975e-15
    vertex 3.0158019567848537 2.84398912437754 9.999999999999996
    vertex 2.0062049767455163 3.6712875127731848 9.999999999999996
  endloop
endfacet
facet normal 0.47205284135113534 -0.8815702552674518 0.0
  outer loop
    vertex 8.013245241574419 2.684112248902452 9.999999999999996
    vertex 6.791985330694197 2.223424810802158 -2.8199664825478975e-15
    vertex 8.013245241574419 2.684112248902452 -2.8199664825478975e-15
  endloop
endfacet
facet normal 0.22780085917509033 -0.9737077428875107 0.0
  outer loop
    vertex 6.791985330694197 2.223424810802158 -2.8199664825478975e-15
    vertex 8.013245241574419 2.684112248902452 9.999999999999996
    vertex 6.791985330694197 2.223424810802158 9.999999999999996
  endloop
endfacet
facet normal -0.8815702552674519 -0.4720528413511352 0.0
  outer loop
    vertex 1.2451297584814842 4.731699318484036 9.999999999999996
    vertex 2.0062049767455163 3.6712875127731848 -2.8199664825478975e-15
    vertex 2.0062049767455163 3.6712875127731848 9.999999999999996
  endloop
endfacet
facet normal -0.7293552116146456 -0.6841352024933051 0.0
  outer loop
    vertex 2.0062049767455163 3.6712875127731848 -2.8199664825478975e-15
    vertex 1.2451297584814842 4.731699318484036 9.999999999999996
    vertex 1.2451297584814842 4.731699318484036 -2.8199664825478975e-15
  endloop
endfacet
facet normal 0.22780085917509033 -0.9737077428875107 0.0
  outer loop
    vertex 6.791985330694197 2.223424810802158 9.999999999999996
    vertex 5.493104159343657 2.0945202404501457 -2.8199664825478975e-15
    vertex 6.791985330694197 2.223424810802158 -2.8199664825478975e-15
  endloop
endfacet
facet normal -0.03197537509501727 -0.9994886569579131 0.0
  outer loop
    vertex 5.493104159343657 2.0945202404501457 -2.8199664825478975e-15
    vertex 6.791985330694197 2.223424810802158 9.999999999999996
    vertex 5.493104159343657 2.0945202404501457 9.999999999999996
  endloop
endfacet
facet normal -0.03197537509501727 -0.9994886569579131 0.0
  outer loop
    vertex 5.493104159343657 2.0945202404501457 9.999999999999996
    vertex 4.205118332847714 2.3061831712910315 -2.8199664825478975e-15
    vertex 5.493104159343657 2.0945202404501457 -2.8199664825478975e-15
  endloop
endfacet
facet normal -0.2895725403942056 -0.9571560707897361 0.0
  outer loop
    vertex 4.205118332847714 2.3061831712910315 -2.8199664825478975e-15
    vertex 5.493104159343657 2.0945202404501457 9.999999999999996
    vertex 4.205118332847714 2.3061831712910315 9.999999999999996
  endloop
endfacet
facet normal 0.6841352024933055 -0.7293552116146453 0.0
  outer loop
    vertex 9.073657047285272 3.4451874671664853 9.999999999999996
    vertex 8.013245241574419 2.684112248902452 -2.8199664825478975e-15
    vertex 9.073657047285272 3.4451874671664853 -2.8199664825478975e-15
  endloop
endfacet
facet normal 0.47205284135113534 -0.8815702552674518 0.0
  outer loop
    vertex 8.013245241574419 2.684112248902452 -2.8199664825478975e-15
    vertex 9.073657047285272 3.4451874671664853 9.999999999999996
    vertex 8.013245241574419 2.684112248902452 9.999999999999996
  endloop
endfacet
facet normal 0.8495948801724345 -0.5274358156067778 0.0
  outer loop
    vertex 9.900955435680917 4.454784447205824 -2.8199664825478975e-15
    vertex 9.073657047285272 3.4451874671664853 9.999999999999996
    vertex 9.073657047285272 3.4451874671664853 -2.8199664825478975e-15
  endloop
endfacet
facet normal 0.6841352024933055 -0.7293552116146453 0.0
  outer loop
    vertex 9.073657047285272 3.4451874671664853 9.999999999999996
    vertex 9.900955435680917 4.454784447205824 -2.8199664825478975e-15
    vertex 9.900955435680917 4.454784447205824 9.999999999999996
  endloop
endfacet
facet normal 0.9994886569579132 -0.03197537509501678 0.0
  outer loop
    vertex 10.650424319608312 6.932086649764628 -2.8199664825478975e-15
    vertex 10.438761388767427 5.644100823268686 9.999999999999996
    vertex 10.438761388767427 5.644100823268686 -2.8199664825478975e-15
  endloop
endfacet
facet normal 0.9571560707897362 -0.28957254039420555 0.0
  outer loop
    vertex 10.438761388767427 5.644100823268686 9.999999999999996
    vertex 10.650424319608312 6.932086649764628 -2.8199664825478975e-15
    vertex 10.650424319608312 6.932086649764628 9.999999999999996
  endloop
endfacet
facet normal 0.9571560707897362 -0.28957254039420555 0.0
  outer loop
    vertex 10.438761388767427 5.644100823268686 -2.8199664825478975e-15
    vertex 9.900955435680917 4.454784447205824 9.999999999999996
    vertex 9.900955435680917 4.454784447205824 -2.8199664825478975e-15
  endloop
endfacet
facet normal 0.8495948801724345 -0.5274358156067778 0.0
  outer loop
    vertex 9.900955435680917 4.454784447205824 9.999999999999996
    vertex 10.438761388767427 5.644100823268686 -2.8199664825478975e-15
    vertex 10.438761388767427 5.644100823268686 9.999999999999996
  endloop
endfacet
facet normal 0.03197537509501731 0.9994886569579132 0.0
  outer loop
    vertex 5.812857910293828 12.089406810029278 9.999999999999996
    vertex 7.100843736789769 11.877743879188392 -2.8199664825478975e-15
    vertex 5.812857910293828 12.089406810029278 -2.8199664825478975e-15
  endloop
endfacet
facet normal 0.28957254039420505 0.9571560707897362 0.0
  outer loop
    vertex 7.100843736789769 11.877743879188392 -2.8199664825478975e-15
    vertex 5.812857910293828 12.089406810029278 9.999999999999996
    vertex 7.100843736789769 11.877743879188392 9.999999999999996
  endloop
endfacet
facet normal 0.9737077428875107 0.22780085917509088 0.0
  outer loop
    vertex 10.521519749256298 8.230967821115165 -2.8199664825478975e-15
    vertex 10.650424319608312 6.932086649764628 9.999999999999996
    vertex 10.650424319608312 6.932086649764628 -2.8199664825478975e-15
  endloop
endfacet
facet normal 0.9994886569579132 -0.03197537509501678 0.0
  outer loop
    vertex 10.650424319608312 6.932086649764628 9.999999999999996
    vertex 10.521519749256298 8.230967821115165 -2.8199664825478975e-15
    vertex 10.521519749256298 8.230967821115165 9.999999999999996
  endloop
endfacet
facet normal 0.8815702552674517 0.47205284135113545 0.0
  outer loop
    vertex 10.060832311156004 9.45222773199539 -2.8199664825478975e-15
    vertex 10.521519749256298 8.230967821115165 9.999999999999996
    vertex 10.521519749256298 8.230967821115165 -2.8199664825478975e-15
  endloop
endfacet
facet normal 0.9737077428875107 0.22780085917509088 0.0
  outer loop
    vertex 10.521519749256298 8.230967821115165 9.999999999999996
    vertex 10.060832311156004 9.45222773199539 -2.8199664825478975e-15
    vertex 10.060832311156004 9.45222773199539 9.999999999999996
  endloop
endfacet
facet normal 0.5274358156067771 0.849594880172435 0.0
  outer loop
    vertex 8.29016011285263 11.339937926101884 9.999999999999996
    vertex 9.299757092891971 10.512639537706239 -2.8199664825478975e-15
    vertex 8.29016011285263 11.339937926101884 -2.8199664825478975e-15
  endloop
endfacet
facet normal 0.7293552116146451 0.6841352024933057 0.0
  outer loop
    vertex 9.299757092891971 10.512639537706239 -2.8199664825478975e-15
    vertex 8.29016011285263 11.339937926101884 9.999999999999996
    vertex 9.299757092891971 10.512639537706239 9.999999999999996
  endloop
endfacet
facet normal 0.7293552116146451 0.6841352024933057 0.0
  outer loop
    vertex 9.299757092891971 10.512639537706239 -2.8199664825478975e-15
    vertex 10.060832311156004 9.45222773199539 9.999999999999996
    vertex 10.060832311156004 9.45222773199539 -2.8199664825478975e-15
  endloop
endfacet
facet normal 0.8815702552674517 0.47205284135113545 0.0
  outer loop
    vertex 10.060832311156004 9.45222773199539 9.999999999999996
    vertex 9.299757092891971 10.512639537706239 -2.8199664825478975e-15
    vertex 9.299757092891971 10.512639537706239 9.999999999999996
  endloop
endfacet
facet normal 0.28957254039420505 0.9571560707897362 0.0
  outer loop
    vertex 7.100843736789769 11.877743879188392 9.999999999999996
    vertex 8.29016011285263 11.339937926101884 -2.8199664825478975e-15
    vertex 7.100843736789769 11.877743879188392 -2.8199664825478975e-15
  endloop
endfacet
facet normal 0.5274358156067771 0.849594880172435 0.0
  outer loop
    vertex 8.29016011285263 11.339937926101884 -2.8199664825478975e-15
    vertex 7.100843736789769 11.877743879188392 9.999999999999996
    vertex 8.29016011285263 11.339937926101884 9.999999999999996
  endloop
endfacet
facet normal -0.4720528413511356 0.8815702552674517 0.0
  outer loop
    vertex 3.292716828063065 11.499814801576973 9.999999999999996
    vertex 4.51397673894329 11.960502239677265 -2.8199664825478975e-15
    vertex 3.292716828063065 11.499814801576973 -2.8199664825478975e-15
  endloop
endfacet
facet normal -0.2278008591750903 0.9737077428875107 0.0
  outer loop
    vertex 4.51397673894329 11.960502239677265 -2.8199664825478975e-15
    vertex 3.292716828063065 11.499814801576973 9.999999999999996
    vertex 4.51397673894329 11.960502239677265 9.999999999999996
  endloop
endfacet
facet normal -0.2278008591750903 0.9737077428875107 0.0
  outer loop
    vertex 4.51397673894329 11.960502239677265 9.999999999999996
    vertex 5.812857910293828 12.089406810029278 -2.8199664825478975e-15
    vertex 4.51397673894329 11.960502239677265 -2.8199664825478975e-15
  endloop
endfacet
facet normal 0.03197537509501731 0.9994886569579132 0.0
  outer loop
    vertex 5.812857910293828 12.089406810029278 -2.8199664825478975e-15
    vertex 4.51397673894329 11.960502239677265 9.999999999999996
    vertex 5.812857910293828 12.089406810029278 9.999999999999996
  endloop
endfacet
facet normal -0.8495948801724342 0.5274358156067781 0.0
  outer loop
    vertex 1.4050066339565705 9.729142603273601 9.999999999999996
    vertex 0.8672006808700615 8.53982622721074 -2.8199664825478975e-15
    vertex 0.8672006808700615 8.53982622721074 9.999999999999996
  endloop
endfacet
facet normal -0.9571560707897362 0.28957254039420516 0.0
  outer loop
    vertex 0.8672006808700615 8.53982622721074 -2.8199664825478975e-15
    vertex 1.4050066339565705 9.729142603273601 9.999999999999996
    vertex 1.4050066339565705 9.729142603273601 -2.8199664825478975e-15
  endloop
endfacet
facet normal -0.6841352024933051 0.7293552116146456 0.0
  outer loop
    vertex 2.2323050223522163 10.738739583312938 9.999999999999996
    vertex 3.292716828063065 11.499814801576973 -2.8199664825478975e-15
    vertex 2.2323050223522163 10.738739583312938 -2.8199664825478975e-15
  endloop
endfacet
facet normal -0.4720528413511356 0.8815702552674517 0.0
  outer loop
    vertex 3.292716828063065 11.499814801576973 -2.8199664825478975e-15
    vertex 2.2323050223522163 10.738739583312938 9.999999999999996
    vertex 3.292716828063065 11.499814801576973 9.999999999999996
  endloop
endfacet
facet normal -0.6841352024933051 0.7293552116146456 0.0
  outer loop
    vertex 2.2323050223522163 10.738739583312938 9.999999999999996
    vertex 1.4050066339565705 9.729142603273601 -2.8199664825478975e-15
    vertex 1.4050066339565705 9.729142603273601 9.999999999999996
  endloop
endfacet
facet normal -0.8495948801724342 0.5274358156067781 0.0
  outer loop
    vertex 1.4050066339565705 9.729142603273601 -2.8199664825478975e-15
    vertex 2.2323050223522163 10.738739583312938 9.999999999999996
    vertex 2.2323050223522163 10.738739583312938 -2.8199664825478975e-15
  endloop
endfacet
facet normal -0.9994886569579132 0.031975375095016925 0.0
  outer loop
    vertex 0.6555377500291772 7.251840400714799 9.999999999999996
    vertex 0.7844423203811897 5.95295922936426 -2.8199664825478975e-15
    vertex 0.7844423203811897 5.95295922936426 9.999999999999996
  endloop
endfacet
facet normal -0.9737077428875107 -0.22780085917509046 0.0
  outer loop
    vertex 0.7844423203811897 5.95295922936426 -2.8199664825478975e-15
    vertex 0.6555377500291772 7.251840400714799 9.999999999999996
    vertex 0.6555377500291772 7.251840400714799 -2.8199664825478975e-15
  endloop
endfacet
facet normal -0.9571560707897362 0.28957254039420516 0.0
  outer loop
    vertex 0.8672006808700615 8.53982622721074 9.999999999999996
    vertex 0.6555377500291772 7.251840400714799 -2.8199664825478975e-15
    vertex 0.6555377500291772 7.251840400714799 9.999999999999996
  endloop
endfacet
facet normal -0.9994886569579132 0.031975375095016925 0.0
  outer loop
    vertex 0.6555377500291772 7.251840400714799 -2.8199664825478975e-15
    vertex 0.8672006808700615 8.53982622721074 9.999999999999996
    vertex 0.8672006808700615 8.53982622721074 -2.8199664825478975e-15
  endloop
endfacet
facet normal 0.0 0.0 -1.0
  outer loop
    vertex 0.8672006808700615 8.53982622721074 -2.8199664825478975e-15
    vertex 0.7844423203811897 5.95295922936426 -2.8199664825478975e-15
    vertex 0.6555377500291772 7.251840400714799 -2.8199664825478975e-15
  endloop
endfacet
facet normal 0.0 0.0 -1.0
  outer loop
    vertex 0.7844423203811897 5.95295922936426 -2.8199664825478975e-15
    vertex 0.8672006808700615 8.53982622721074 -2.8199664825478975e-15
    vertex 1.2451297584814842 4.731699318484036 -2.8199664825478975e-15
  endloop
endfacet
facet normal 0.0 0.0 -1.0
  outer loop
    vertex 1.2451297584814842 4.731699318484036 -2.8199664825478975e-15
    vertex 0.8672006808700615 8.53982622721074 -2.8199664825478975e-15
    vertex 1.4050066339565705 9.729142603273601 -2.8199664825478975e-15
  endloop
endfacet
facet normal 0.0 0.0 -1.0
  outer loop
    vertex 1.2451297584814842 4.731699318484036 -2.8199664825478975e-15
    vertex 1.4050066339565705 9.729142603273601 -2.8199664825478975e-15
    vertex 2.0062049767455163 3.6712875127731848 -2.8199664825478975e-15
  endloop
endfacet
facet normal 0.0 0.0 -1.0
  outer loop
    vertex 2.0062049767455163 3.6712875127731848 -2.8199664825478975e-15
    vertex 1.4050066339565705 9.729142603273601 -2.8199664825478975e-15
    vertex 2.2323050223522163 10.738739583312938 -2.8199664825478975e-15
  endloop
endfacet
facet normal 0.0 0.0 -1.0
  outer loop
    vertex 2.0062049767455163 3.6712875127731848 -2.8199664825478975e-15
    vertex 2.2323050223522163 10.738739583312938 -2.8199664825478975e-15
    vertex 3.0158019567848537 2.84398912437754 -2.8199664825478975e-15
  endloop
endfacet
facet normal 0.0 0.0 -1.0
  outer loop
    vertex 3.0158019567848537 2.84398912437754 -2.8199664825478975e-15
    vertex 2.2323050223522163 10.738739583312938 -2.8199664825478975e-15
    vertex 3.292716828063065 11.499814801576973 -2.8199664825478975e-15
  endloop
endfacet
facet normal 0.0 0.0 -1.0
  outer loop
    vertex 3.0158019567848537 2.84398912437754 -2.8199664825478975e-15
    vertex 3.292716828063065 11.499814801576973 -2.8199664825478975e-15
    vertex 3.1758207629769593 7.171212177349175 -2.8199664825478975e-15
  endloop
endfacet
facet normal 0.0 0.0 -1.0
  outer loop
    vertex 3.1758207629769593 7.171212177349175 -2.8199664825478975e-15
    vertex 3.292716828063065 11.499814801576973 -2.8199664825478975e-15
    vertex 3.2807390128541494 7.809648101134837 -2.8199664825478975e-15
  endloop
endfacet
facet normal 0.0 0.0 -1.0
  outer loop
    vertex 3.2807390128541494 7.809648101134837 -2.8199664825478975e-15
    vertex 3.292716828063065 11.499814801576973 -2.8199664825478975e-15
    vertex 3.5473216362129234 8.399175007103075 -2.8199664825478975e-15
  endloop
endfacet
facet normal 0.0 0.0 -1.0
  outer loop
    vertex 3.5473216362129234 8.399175007103075 -2.8199664825478975e-15
    vertex 3.292716828063065 11.499814801576973 -2.8199664825478975e-15
    vertex 4.51397673894329 11.960502239677265 -2.8199664825478975e-15
  endloop
endfacet
facet normal 0.0 0.0 -1.0
  outer loop
    vertex 3.5473216362129234 8.399175007103075 -2.8199664825478975e-15
    vertex 4.51397673894329 11.960502239677265 -2.8199664825478975e-15
    vertex 3.957401467820004 8.899617610851447 -2.8199664825478975e-15
  endloop
endfacet
facet normal 0.0 0.0 -1.0
  outer loop
    vertex 3.957401467820004 8.899617610851447 -2.8199664825478975e-15
    vertex 4.51397673894329 11.960502239677265 -2.8199664825478975e-15
    vertex 4.483032244840322 9.276871575954996 -2.8199664825478975e-15
  endloop
endfacet
facet normal 0.0 0.0 -1.0
  outer loop
    vertex 4.483032244840322 9.276871575954996 -2.8199664825478975e-15
    vertex 4.51397673894329 11.960502239677265 -2.8199664825478975e-15
    vertex 5.088393098465883 9.505227668133577 -2.8199664825478975e-15
  endloop
endfacet
facet normal 0.0 0.0 -1.0
  outer loop
    vertex 5.088393098465883 9.505227668133577 -2.8199664825478975e-15
    vertex 4.51397673894329 11.960502239677265 -2.8199664825478975e-15
    vertex 5.812857910293828 12.089406810029278 -2.8199664825478975e-15
  endloop
endfacet
facet normal 0.0 0.0 -1.0
  outer loop
    vertex 5.088393098465883 9.505227668133577 -2.8199664825478975e-15
    vertex 5.812857910293828 12.089406810029278 -2.8199664825478975e-15
    vertex 5.73222968692821 9.569123797081495 -2.8199664825478975e-15
  endloop
endfacet
facet normal 0.0 0.0 -1.0
  outer loop
    vertex 5.73222968692821 9.569123797081495 -2.8199664825478975e-15
    vertex 5.812857910293828 12.089406810029278 -2.8199664825478975e-15
    vertex 6.3706656107138695 9.464205547204307 -2.8199664825478975e-15
  endloop
endfacet
facet normal 0.0 0.0 -1.0
  outer loop
    vertex 6.3706656107138695 9.464205547204307 -2.8199664825478975e-15
    vertex 5.812857910293828 12.089406810029278 -2.8199664825478975e-15
    vertex 7.100843736789769 11.877743879188392 -2.8199664825478975e-15
  endloop
endfacet
facet normal 0.0 0.0 -1.0
  outer loop
    vertex 6.3706656107138695 9.464205547204307 -2.8199664825478975e-15
    vertex 7.100843736789769 11.877743879188392 -2.8199664825478975e-15
    vertex 6.960192516682106 9.197622923845532 -2.8199664825478975e-15
  endloop
endfacet
facet normal 0.0 0.0 -1.0
  outer loop
    vertex 6.960192516682106 9.197622923845532 -2.8199664825478975e-15
    vertex 7.100843736789769 11.877743879188392 -2.8199664825478975e-15
    vertex 7.4606351204304815 8.787543092238447 -2.8199664825478975e-15
  endloop
endfacet
facet normal 0.0 0.0 -1.0
  outer loop
    vertex 7.4606351204304815 8.787543092238447 -2.8199664825478975e-15
    vertex 7.100843736789769 11.877743879188392 -2.8199664825478975e-15
    vertex 8.29016011285263 11.339937926101884 -2.8199664825478975e-15
  endloop
endfacet
facet normal 0.0 0.0 -1.0
  outer loop
    vertex 7.4606351204304815 8.787543092238447 -2.8199664825478975e-15
    vertex 8.29016011285263 11.339937926101884 -2.8199664825478975e-15
    vertex 7.837889085534027 8.261912315218135 -2.8199664825478975e-15
  endloop
endfacet
facet normal 0.0 0.0 -1.0
  outer loop
    vertex 7.837889085534027 8.261912315218135 -2.8199664825478975e-15
    vertex 8.29016011285263 11.339937926101884 -2.8199664825478975e-15
    vertex 8.066245177712606 7.656551461592575 -2.8199664825478975e-15
  endloop
endfacet
facet normal 0.0 0.0 -1.0
  outer loop
    vertex 8.066245177712606 7.656551461592575 -2.8199664825478975e-15
    vertex 8.29016011285263 11.339937926101884 -2.8199664825478975e-15
    vertex 8.130141306660528 7.012714873130245 -2.8199664825478975e-15
  endloop
endfacet
facet normal 0.0 0.0 -1.0
  outer loop
    vertex 3.0158019567848537 2.84398912437754 -2.8199664825478975e-15
    vertex 3.239716891924881 6.527375588886852 -2.8199664825478975e-15
    vertex 4.205118332847714 2.3061831712910315 -2.8199664825478975e-15
  endloop
endfacet
facet normal 0.0 0.0 -1.0
  outer loop
    vertex 3.239716891924881 6.527375588886852 -2.8199664825478975e-15
    vertex 3.0158019567848537 2.84398912437754 -2.8199664825478975e-15
    vertex 3.1758207629769593 7.171212177349175 -2.8199664825478975e-15
  endloop
endfacet
facet normal 0.0 0.0 -1.0
  outer loop
    vertex 4.205118332847714 2.3061831712910315 -2.8199664825478975e-15
    vertex 3.239716891924881 6.527375588886852 -2.8199664825478975e-15
    vertex 3.4680729841034577 5.922014735261297 -2.8199664825478975e-15
  endloop
endfacet
facet normal 0.0 0.0 -1.0
  outer loop
    vertex 4.205118332847714 2.3061831712910315 -2.8199664825478975e-15
    vertex 3.4680729841034577 5.922014735261297 -2.8199664825478975e-15
    vertex 3.8453269492070135 5.3963839582409685 -2.8199664825478975e-15
  endloop
endfacet
facet normal 0.0 0.0 -1.0
  outer loop
    vertex 4.205118332847714 2.3061831712910315 -2.8199664825478975e-15
    vertex 3.8453269492070135 5.3963839582409685 -2.8199664825478975e-15
    vertex 4.3457695529553755 4.986304126633895 -2.8199664825478975e-15
  endloop
endfacet
facet normal 0.0 0.0 -1.0
  outer loop
    vertex 4.205118332847714 2.3061831712910315 -2.8199664825478975e-15
    vertex 4.3457695529553755 4.986304126633895 -2.8199664825478975e-15
    vertex 5.493104159343657 2.0945202404501457 -2.8199664825478975e-15
  endloop
endfacet
facet normal 0.0 0.0 -1.0
  outer loop
    vertex 5.493104159343657 2.0945202404501457 -2.8199664825478975e-15
    vertex 4.3457695529553755 4.986304126633895 -2.8199664825478975e-15
    vertex 4.935296458923613 4.71972150327512 -2.8199664825478975e-15
  endloop
endfacet
facet normal 0.0 0.0 -1.0
  outer loop
    vertex 5.493104159343657 2.0945202404501457 -2.8199664825478975e-15
    vertex 4.935296458923613 4.71972150327512 -2.8199664825478975e-15
    vertex 5.57373238270928 4.614803253397927 -2.8199664825478975e-15
  endloop
endfacet
facet normal 0.0 0.0 -1.0
  outer loop
    vertex 5.493104159343657 2.0945202404501457 -2.8199664825478975e-15
    vertex 5.57373238270928 4.614803253397927 -2.8199664825478975e-15
    vertex 6.791985330694197 2.223424810802158 -2.8199664825478975e-15
  endloop
endfacet
facet normal 0.0 0.0 -1.0
  outer loop
    vertex 6.791985330694197 2.223424810802158 -2.8199664825478975e-15
    vertex 5.57373238270928 4.614803253397927 -2.8199664825478975e-15
    vertex 6.217568971171603 4.678699382345849 -2.8199664825478975e-15
  endloop
endfacet
facet normal 0.0 0.0 -1.0
  outer loop
    vertex 6.791985330694197 2.223424810802158 -2.8199664825478975e-15
    vertex 6.217568971171603 4.678699382345849 -2.8199664825478975e-15
    vertex 6.822929824797165 4.907055474524429 -2.8199664825478975e-15
  endloop
endfacet
facet normal 0.0 0.0 -1.0
  outer loop
    vertex 6.791985330694197 2.223424810802158 -2.8199664825478975e-15
    vertex 6.822929824797165 4.907055474524429 -2.8199664825478975e-15
    vertex 8.013245241574419 2.684112248902452 -2.8199664825478975e-15
  endloop
endfacet
facet normal 0.0 0.0 -1.0
  outer loop
    vertex 8.013245241574419 2.684112248902452 -2.8199664825478975e-15
    vertex 6.822929824797165 4.907055474524429 -2.8199664825478975e-15
    vertex 7.348560601817485 5.284309439627978 -2.8199664825478975e-15
  endloop
endfacet
facet normal 0.0 0.0 -1.0
  outer loop
    vertex 8.013245241574419 2.684112248902452 -2.8199664825478975e-15
    vertex 7.348560601817485 5.284309439627978 -2.8199664825478975e-15
    vertex 7.758640433424557 5.784752043376338 -2.8199664825478975e-15
  endloop
endfacet
facet normal 0.0 0.0 -1.0
  outer loop
    vertex 8.013245241574419 2.684112248902452 -2.8199664825478975e-15
    vertex 7.758640433424557 5.784752043376338 -2.8199664825478975e-15
    vertex 8.025223056783338 6.3742789493445855 -2.8199664825478975e-15
  endloop
endfacet
facet normal 0.0 0.0 -1.0
  outer loop
    vertex 8.013245241574419 2.684112248902452 -2.8199664825478975e-15
    vertex 8.025223056783338 6.3742789493445855 -2.8199664825478975e-15
    vertex 9.073657047285272 3.4451874671664853 -2.8199664825478975e-15
  endloop
endfacet
facet normal 0.0 0.0 -1.0
  outer loop
    vertex 9.073657047285272 3.4451874671664853 -2.8199664825478975e-15
    vertex 8.025223056783338 6.3742789493445855 -2.8199664825478975e-15
    vertex 8.130141306660528 7.012714873130245 -2.8199664825478975e-15
  endloop
endfacet
facet normal 0.0 0.0 -1.0
  outer loop
    vertex 9.073657047285272 3.4451874671664853 -2.8199664825478975e-15
    vertex 8.130141306660528 7.012714873130245 -2.8199664825478975e-15
    vertex 8.29016011285263 11.339937926101884 -2.8199664825478975e-15
  endloop
endfacet
facet normal 0.0 0.0 -1.0
  outer loop
    vertex 9.073657047285272 3.4451874671664853 -2.8199664825478975e-15
    vertex 8.29016011285263 11.339937926101884 -2.8199664825478975e-15
    vertex 9.299757092891971 10.512639537706239 -2.8199664825478975e-15
  endloop
endfacet
facet normal 0.0 0.0 -1.0
  outer loop
    vertex 9.073657047285272 3.4451874671664853 -2.8199664825478975e-15
    vertex 9.299757092891971 10.512639537706239 -2.8199664825478975e-15
    vertex 9.900955435680917 4.454784447205824 -2.8199664825478975e-15
  endloop
endfacet
facet normal 0.0 0.0 -1.0
  outer loop
    vertex 9.900955435680917 4.454784447205824 -2.8199664825478975e-15
    vertex 9.299757092891971 10.512639537706239 -2.8199664825478975e-15
    vertex 10.060832311156004 9.45222773199539 -2.8199664825478975e-15
  endloop
endfacet
facet normal 0.0 0.0 -1.0
  outer loop
    vertex 9.900955435680917 4.454784447205824 -2.8199664825478975e-15
    vertex 10.060832311156004 9.45222773199539 -2.8199664825478975e-15
    vertex 10.438761388767427 5.644100823268686 -2.8199664825478975e-15
  endloop
endfacet
facet normal 0.0 0.0 -1.0
  outer loop
    vertex 10.438761388767427 5.644100823268686 -2.8199664825478975e-15
    vertex 10.060832311156004 9.45222773199539 -2.8199664825478975e-15
    vertex 10.521519749256298 8.230967821115165 -2.8199664825478975e-15
  endloop
endfacet
facet normal 0.0 0.0 -1.0
  outer loop
    vertex 10.438761388767427 5.644100823268686 -2.8199664825478975e-15
    vertex 10.521519749256298 8.230967821115165 -2.8199664825478975e-15
    vertex 10.650424319608312 6.932086649764628 -2.8199664825478975e-15
  endloop
endfacet
facet normal 0.0 0.0 1.0
  outer loop
    vertex 3.0158019567848537 2.84398912437754 9.999999999999996
    vertex 3.239716891924881 6.527375588886852 9.999999999999996
    vertex 3.1758207629769593 7.171212177349175 9.999999999999996
  endloop
endfacet
facet normal 0.0 0.0 1.0
  outer loop
    vertex 3.239716891924881 6.527375588886852 9.999999999999996
    vertex 3.0158019567848537 2.84398912437754 9.999999999999996
    vertex 4.205118332847714 2.3061831712910315 9.999999999999996
  endloop
endfacet
facet normal 0.0 0.0 1.0
  outer loop
    vertex 3.239716891924881 6.527375588886852 9.999999999999996
    vertex 4.205118332847714 2.3061831712910315 9.999999999999996
    vertex 3.4680729841034577 5.922014735261297 9.999999999999996
  endloop
endfacet
facet normal 0.0 0.0 1.0
  outer loop
    vertex 3.4680729841034577 5.922014735261297 9.999999999999996
    vertex 4.205118332847714 2.3061831712910315 9.999999999999996
    vertex 3.8453269492070135 5.3963839582409685 9.999999999999996
  endloop
endfacet
facet normal 0.0 0.0 1.0
  outer loop
    vertex 3.8453269492070135 5.3963839582409685 9.999999999999996
    vertex 4.205118332847714 2.3061831712910315 9.999999999999996
    vertex 4.3457695529553755 4.986304126633895 9.999999999999996
  endloop
endfacet
facet normal 0.0 0.0 1.0
  outer loop
    vertex 4.3457695529553755 4.986304126633895 9.999999999999996
    vertex 4.205118332847714 2.3061831712910315 9.999999999999996
    vertex 5.493104159343657 2.0945202404501457 9.999999999999996
  endloop
endfacet
facet normal 0.0 0.0 1.0
  outer loop
    vertex 4.3457695529553755 4.986304126633895 9.999999999999996
    vertex 5.493104159343657 2.0945202404501457 9.999999999999996
    vertex 4.935296458923613 4.71972150327512 9.999999999999996
  endloop
endfacet
facet normal 0.0 0.0 1.0
  outer loop
    vertex 4.935296458923613 4.71972150327512 9.999999999999996
    vertex 5.493104159343657 2.0945202404501457 9.999999999999996
    vertex 5.57373238270928 4.614803253397927 9.999999999999996
  endloop
endfacet
facet normal 0.0 0.0 1.0
  outer loop
    vertex 5.57373238270928 4.614803253397927 9.999999999999996
    vertex 5.493104159343657 2.0945202404501457 9.999999999999996
    vertex 6.791985330694197 2.223424810802158 9.999999999999996
  endloop
endfacet
facet normal 0.0 0.0 1.0
  outer loop
    vertex 5.57373238270928 4.614803253397927 9.999999999999996
    vertex 6.791985330694197 2.223424810802158 9.999999999999996
    vertex 6.217568971171603 4.678699382345849 9.999999999999996
  endloop
endfacet
facet normal 0.0 0.0 1.0
  outer loop
    vertex 6.217568971171603 4.678699382345849 9.999999999999996
    vertex 6.791985330694197 2.223424810802158 9.999999999999996
    vertex 6.822929824797165 4.907055474524429 9.999999999999996
  endloop
endfacet
facet normal 0.0 0.0 1.0
  outer loop
    vertex 6.822929824797165 4.907055474524429 9.999999999999996
    vertex 6.791985330694197 2.223424810802158 9.999999999999996
    vertex 8.013245241574419 2.684112248902452 9.999999999999996
  endloop
endfacet
facet normal 0.0 0.0 1.0
  outer loop
    vertex 6.822929824797165 4.907055474524429 9.999999999999996
    vertex 8.013245241574419 2.684112248902452 9.999999999999996
    vertex 7.348560601817485 5.284309439627978 9.999999999999996
  endloop
endfacet
facet normal 0.0 0.0 1.0
  outer loop
    vertex 7.348560601817485 5.284309439627978 9.999999999999996
    vertex 8.013245241574419 2.684112248902452 9.999999999999996
    vertex 7.758640433424557 5.784752043376338 9.999999999999996
  endloop
endfacet
facet normal 0.0 0.0 1.0
  outer loop
    vertex 7.758640433424557 5.784752043376338 9.999999999999996
    vertex 8.013245241574419 2.684112248902452 9.999999999999996
    vertex 8.025223056783338 6.3742789493445855 9.999999999999996
  endloop
endfacet
facet normal 0.0 0.0 1.0
  outer loop
    vertex 8.025223056783338 6.3742789493445855 9.999999999999996
    vertex 8.013245241574419 2.684112248902452 9.999999999999996
    vertex 9.073657047285272 3.4451874671664853 9.999999999999996
  endloop
endfacet
facet normal 0.0 0.0 1.0
  outer loop
    vertex 8.025223056783338 6.3742789493445855 9.999999999999996
    vertex 9.073657047285272 3.4451874671664853 9.999999999999996
    vertex 8.130141306660528 7.012714873130245 9.999999999999996
  endloop
endfacet
facet normal 0.0 0.0 1.0
  outer loop
    vertex 8.130141306660528 7.012714873130245 9.999999999999996
    vertex 9.073657047285272 3.4451874671664853 9.999999999999996
    vertex 8.29016011285263 11.339937926101884 9.999999999999996
  endloop
endfacet
facet normal 0.0 0.0 1.0
  outer loop
    vertex 8.29016011285263 11.339937926101884 9.999999999999996
    vertex 9.073657047285272 3.4451874671664853 9.999999999999996
    vertex 9.299757092891971 10.512639537706239 9.999999999999996
  endloop
endfacet
facet normal 0.0 0.0 1.0
  outer loop
    vertex 9.299757092891971 10.512639537706239 9.999999999999996
    vertex 9.073657047285272 3.4451874671664853 9.999999999999996
    vertex 9.900955435680917 4.454784447205824 9.999999999999996
  endloop
endfacet
facet normal 0.0 0.0 1.0
  outer loop
    vertex 9.299757092891971 10.512639537706239 9.999999999999996
    vertex 9.900955435680917 4.454784447205824 9.999999999999996
    vertex 10.060832311156004 9.45222773199539 9.999999999999996
  endloop
endfacet
facet normal 0.0 0.0 1.0
  outer loop
    vertex 10.060832311156004 9.45222773199539 9.999999999999996
    vertex 9.900955435680917 4.454784447205824 9.999999999999996
    vertex 10.438761388767427 5.644100823268686 9.999999999999996
  endloop
endfacet
facet normal 0.0 0.0 1.0
  outer loop
    vertex 10.060832311156004 9.45222773199539 9.999999999999996
    vertex 10.438761388767427 5.644100823268686 9.999999999999996
    vertex 10.521519749256298 8.230967821115165 9.999999999999996
  endloop
endfacet
facet normal 0.0 0.0 1.0
  outer loop
    vertex 10.521519749256298 8.230967821115165 9.999999999999996
    vertex 10.438761388767427 5.644100823268686 9.999999999999996
    vertex 10.650424319608312 6.932086649764628 9.999999999999996
  endloop
endfacet
facet normal 0.0 0.0 1.0
  outer loop
    vertex 0.7844423203811897 5.95295922936426 9.999999999999996
    vertex 0.8672006808700615 8.53982622721074 9.999999999999996
    vertex 0.6555377500291772 7.251840400714799 9.999999999999996
  endloop
endfacet
facet normal 0.0 0.0 1.0
  outer loop
    vertex 0.8672006808700615 8.53982622721074 9.999999999999996
    vertex 0.7844423203811897 5.95295922936426 9.999999999999996
    vertex 1.2451297584814842 4.731699318484036 9.999999999999996
  endloop
endfacet
facet normal 0.0 0.0 1.0
  outer loop
    vertex 0.8672006808700615 8.53982622721074 9.999999999999996
    vertex 1.2451297584814842 4.731699318484036 9.999999999999996
    vertex 1.4050066339565705 9.729142603273601 9.999999999999996
  endloop
endfacet
facet normal 0.0 0.0 1.0
  outer loop
    vertex 1.4050066339565705 9.729142603273601 9.999999999999996
    vertex 1.2451297584814842 4.731699318484036 9.999999999999996
    vertex 2.0062049767455163 3.6712875127731848 9.999999999999996
  endloop
endfacet
facet normal 0.0 0.0 1.0
  outer loop
    vertex 1.4050066339565705 9.729142603273601 9.999999999999996
    vertex 2.0062049767455163 3.6712875127731848 9.999999999999996
    vertex 2.2323050223522163 10.738739583312938 9.999999999999996
  endloop
endfacet
facet normal 0.0 0.0 1.0
  outer loop
    vertex 2.2323050223522163 10.738739583312938 9.999999999999996
    vertex 2.0062049767455163 3.6712875127731848 9.999999999999996
    vertex 3.0158019567848537 2.84398912437754 9.999999999999996
  endloop
endfacet
facet normal 0.0 0.0 1.0
  outer loop
    vertex 2.2323050223522163 10.738739583312938 9.999999999999996
    vertex 3.0158019567848537 2.84398912437754 9.999999999999996
    vertex 3.292716828063065 11.499814801576973 9.999999999999996
  endloop
endfacet
facet normal 0.0 0.0 1.0
  outer loop
    vertex 3.292716828063065 11.499814801576973 9.999999999999996
    vertex 3.0158019567848537 2.84398912437754 9.999999999999996
    vertex 3.1758207629769593 7.171212177349175 9.999999999999996
  endloop
endfacet
facet normal 0.0 0.0 1.0
  outer loop
    vertex 3.292716828063065 11.499814801576973 9.999999999999996
    vertex 3.1758207629769593 7.171212177349175 9.999999999999996
    vertex 3.2807390128541494 7.809648101134837 9.999999999999996
  endloop
endfacet
facet normal 0.0 0.0 1.0
  outer loop
    vertex 3.292716828063065 11.499814801576973 9.999999999999996
    vertex 3.2807390128541494 7.809648101134837 9.999999999999996
    vertex 3.5473216362129234 8.399175007103075 9.999999999999996
  endloop
endfacet
facet normal 0.0 0.0 1.0
  outer loop
    vertex 3.292716828063065 11.499814801576973 9.999999999999996
    vertex 3.5473216362129234 8.399175007103075 9.999999999999996
    vertex 4.51397673894329 11.960502239677265 9.999999999999996
  endloop
endfacet
facet normal 0.0 0.0 1.0
  outer loop
    vertex 4.51397673894329 11.960502239677265 9.999999999999996
    vertex 3.5473216362129234 8.399175007103075 9.999999999999996
    vertex 3.957401467820004 8.899617610851447 9.999999999999996
  endloop
endfacet
facet normal 0.0 0.0 1.0
  outer loop
    vertex 4.51397673894329 11.960502239677265 9.999999999999996
    vertex 3.957401467820004 8.899617610851447 9.999999999999996
    vertex 4.483032244840322 9.276871575954996 9.999999999999996
  endloop
endfacet
facet normal 0.0 0.0 1.0
  outer loop
    vertex 4.51397673894329 11.960502239677265 9.999999999999996
    vertex 4.483032244840322 9.276871575954996 9.999999999999996
    vertex 5.088393098465883 9.505227668133577 9.999999999999996
  endloop
endfacet
facet normal 0.0 0.0 1.0
  outer loop
    vertex 4.51397673894329 11.960502239677265 9.999999999999996
    vertex 5.088393098465883 9.505227668133577 9.999999999999996
    vertex 5.812857910293828 12.089406810029278 9.999999999999996
  endloop
endfacet
facet normal 0.0 0.0 1.0
  outer loop
    vertex 5.812857910293828 12.089406810029278 9.999999999999996
    vertex 5.088393098465883 9.505227668133577 9.999999999999996
    vertex 5.73222968692821 9.569123797081495 9.999999999999996
  endloop
endfacet
facet normal 0.0 0.0 1.0
  outer loop
    vertex 5.812857910293828 12.089406810029278 9.999999999999996
    vertex 5.73222968692821 9.569123797081495 9.999999999999996
    vertex 6.3706656107138695 9.464205547204307 9.999999999999996
  endloop
endfacet
facet normal 0.0 0.0 1.0
  outer loop
    vertex 5.812857910293828 12.089406810029278 9.999999999999996
    vertex 6.3706656107138695 9.464205547204307 9.999999999999996
    vertex 7.100843736789769 11.877743879188392 9.999999999999996
  endloop
endfacet
facet normal 0.0 0.0 1.0
  outer loop
    vertex 7.100843736789769 11.877743879188392 9.999999999999996
    vertex 6.3706656107138695 9.464205547204307 9.999999999999996
    vertex 6.960192516682106 9.197622923845532 9.999999999999996
  endloop
endfacet
facet normal 0.0 0.0 1.0
  outer loop
    vertex 7.100843736789769 11.877743879188392 9.999999999999996
    vertex 6.960192516682106 9.197622923845532 9.999999999999996
    vertex 7.4606351204304815 8.787543092238447 9.999999999999996
  endloop
endfacet
facet normal 0.0 0.0 1.0
  outer loop
    vertex 7.100843736789769 11.877743879188392 9.999999999999996
    vertex 7.4606351204304815 8.787543092238447 9.999999999999996
    vertex 8.29016011285263 11.339937926101884 9.999999999999996
  endloop
endfacet
facet normal 0.0 0.0 1.0
  outer loop
    vertex 8.29016011285263 11.339937926101884 9.999999999999996
    vertex 7.4606351204304815 8.787543092238447 9.999999999999996
    vertex 7.837889085534027 8.261912315218135 9.999999999999996
  endloop
endfacet
facet normal 0.0 0.0 1.0
  outer loop
    vertex 8.29016011285263 11.339937926101884 9.999999999999996
    vertex 7.837889085534027 8.261912315218135 9.999999999999996
    vertex 8.066245177712606 7.656551461592575 9.999999999999996
  endloop
endfacet
facet normal 0.0 0.0 1.0
  outer loop
    vertex 8.29016011285263 11.339937926101884 9.999999999999996
    vertex 8.066245177712606 7.656551461592575 9.999999999999996
    vertex 8.130141306660528 7.012714873130245 9.999999999999996
  endloop
endfacet
endsolid neahdings
