solid gogorilla_adapter
facet normal 0.0 1.0 0.0
  outer loop
    vertex 59.900405660172716 83.3394117415202 13.444664999999954
    vertex 62.629743199989576 83.3394117415202 10.344664999999955
    vertex 59.900405660172716 83.3394117415202 10.344664999999955
  endloop
endfacet
facet normal 0.0 1.0 0.0
  outer loop
    vertex 62.629743199989576 83.3394117415202 10.344664999999955
    vertex 59.900405660172716 83.3394117415202 13.444664999999954
    vertex 62.629743199989576 83.3394117415202 13.444664999999954
  endloop
endfacet
facet normal -2.1888188223489967e-16 -3.266874979782086e-17 1.0
  outer loop
    vertex 62.629743199989576 83.3394117415202 10.344664999999955
    vertex 59.900405660172716 108.0394117415202 10.344664999999955
    vertex 59.900405660172716 83.3394117415202 10.344664999999955
  endloop
endfacet
facet normal -2.1888188223489967e-16 -3.266874979782086e-17 1.0
  outer loop
    vertex 59.900405660172716 108.0394117415202 10.344664999999955
    vertex 62.629743199989576 83.3394117415202 10.344664999999955
    vertex 62.629743199989576 108.0394117415202 10.344664999999956
  endloop
endfacet
facet normal 0.0 0.0 -1.0
  outer loop
    vertex 101.92974319998955 100.68941174152022 10.344664999999955
    vertex 96.52974319998954 90.6894117415202 10.344664999999955
    vertex 96.52974319998954 100.68941174152022 10.344664999999955
  endloop
endfacet
facet normal 0.0 0.0 -1.0
  outer loop
    vertex 96.52974319998954 90.6894117415202 10.344664999999955
    vertex 101.92974319998955 100.68941174152022 10.344664999999955
    vertex 101.92974319998955 90.6894117415202 10.344664999999955
  endloop
endfacet
facet normal 0.9465633801141404 -0.3225178559814845 -9.312792338971685e-18
  outer loop
    vertex 103.37025283228398 87.42493566001187 10.344664999999953
    vertex 103.1694021614547 86.91241113031006 13.44466499999995
    vertex 103.1694021614547 86.91241113031006 10.344664999999953
  endloop
endfacet
facet normal 0.9136613305433346 -0.4064762884471657 -8.970382876435833e-18
  outer loop
    vertex 103.1694021614547 86.91241113031006 13.44466499999995
    vertex 103.37025283228398 87.42493566001187 10.344664999999953
    vertex 103.37025283228398 87.42493566001187 13.44466499999995
  endloop
endfacet
facet normal -1.0 0.0 0.0
  outer loop
    vertex 62.629743199989576 108.0394117415202 13.444664999999954
    vertex 62.629743199989576 83.3394117415202 10.344664999999955
    vertex 62.629743199989576 83.3394117415202 13.444664999999954
  endloop
endfacet
facet normal -1.0 0.0 0.0
  outer loop
    vertex 62.629743199989576 83.3394117415202 10.344664999999955
    vertex 62.629743199989576 108.0394117415202 13.444664999999954
    vertex 62.629743199989576 108.0394117415202 10.344664999999956
  endloop
endfacet
facet normal 0.9717683896912741 -0.23593684917118873 -9.579474241587388e-18
  outer loop
    vertex 103.52411689691998 87.95346970350603 10.344664999999953
    vertex 103.37025283228398 87.42493566001187 13.44466499999995
    vertex 103.37025283228398 87.42493566001187 10.344664999999953
  endloop
endfacet
facet normal 0.9465633801141404 -0.3225178559814845 -9.312792338971685e-18
  outer loop
    vertex 103.37025283228398 87.42493566001187 13.44466499999995
    vertex 103.52411689691998 87.95346970350603 10.344664999999953
    vertex 103.52411689691998 87.95346970350603 13.44466499999995
  endloop
endfacet
facet normal 0.9814179616942315 -0.1918822150798245 -9.683715117811208e-18
  outer loop
    vertex 103.62974319998959 88.49371545278898 10.344664999999953
    vertex 103.52411689691998 87.95346970350603 13.44466499999995
    vertex 103.52411689691998 87.95346970350603 10.344664999999953
  endloop
endfacet
facet normal 0.9717683896912741 -0.23593684917118873 -9.579474241587388e-18
  outer loop
    vertex 103.52411689691998 87.95346970350603 13.44466499999995
    vertex 103.62974319998959 88.49371545278898 10.344664999999953
    vertex 103.62974319998959 88.49371545278898 13.44466499999995
  endloop
endfacet
facet normal 1.0 0.0 0.0
  outer loop
    vertex 59.900405660172716 108.0394117415202 10.344664999999955
    vertex 59.900405660172716 83.3394117415202 13.444664999999954
    vertex 59.900405660172716 83.3394117415202 10.344664999999955
  endloop
endfacet
facet normal 1.0 0.0 0.0
  outer loop
    vertex 59.900405660172716 83.3394117415202 13.444664999999954
    vertex 59.900405660172716 108.0394117415202 10.344664999999955
    vertex 59.900405660172716 108.0394117415202 13.444664999999954
  endloop
endfacet
facet normal 1.0 2.669542191039615e-15 3.0467524300161443e-30
  outer loop
    vertex 103.62974319998955 102.8851080302514 10.344664999999953
    vertex 103.62974319998959 88.49371545278898 13.44466499999995
    vertex 103.62974319998959 88.49371545278898 10.344664999999953
  endloop
endfacet
facet normal 1.0 2.669542191039615e-15 3.0467524300161443e-30
  outer loop
    vertex 103.62974319998959 88.49371545278898 13.44466499999995
    vertex 103.62974319998955 102.8851080302514 10.344664999999953
    vertex 103.62974319998956 91.43941174152019 13.44466499999995
  endloop
endfacet
facet normal 1.0 2.669542191039615e-15 3.0467524300161443e-30
  outer loop
    vertex 103.62974319998956 91.43941174152019 13.44466499999995
    vertex 103.62974319998955 102.8851080302514 10.344664999999953
    vertex 103.62974319998956 95.68941174152019 13.44466499999995
  endloop
endfacet
facet normal 1.0 2.669542191039615e-15 3.0467524300161443e-30
  outer loop
    vertex 103.62974319998956 95.68941174152019 13.44466499999995
    vertex 103.62974319998955 102.8851080302514 10.344664999999953
    vertex 103.62974319998956 99.93941174152019 13.44466499999995
  endloop
endfacet
facet normal 1.0 2.669542191039615e-15 3.0467524300161443e-30
  outer loop
    vertex 103.62974319998956 99.93941174152019 13.44466499999995
    vertex 103.62974319998955 102.8851080302514 10.344664999999953
    vertex 103.62974319998955 102.8851080302514 13.44466499999995
  endloop
endfacet
facet normal 0.9717683896912828 0.23593684917115262 -9.672202137708378e-18
  outer loop
    vertex 103.52411689691994 103.42535377953453 10.344664999999953
    vertex 103.62974319998955 102.8851080302514 13.44466499999995
    vertex 103.62974319998955 102.8851080302514 10.344664999999953
  endloop
endfacet
facet normal 0.9814179616942436 0.19188221507976277 -9.759128662452078e-18
  outer loop
    vertex 103.62974319998955 102.8851080302514 13.44466499999995
    vertex 103.52411689691994 103.42535377953453 10.344664999999953
    vertex 103.52411689691994 103.42535377953453 13.44466499999995
  endloop
endfacet
facet normal -1.0 0.0 0.0
  outer loop
    vertex 101.92974319998955 95.6894117415202 13.444664999999954
    vertex 101.92974319998955 90.6894117415202 10.344664999999955
    vertex 101.92974319998955 90.6894117415202 13.444664999999954
  endloop
endfacet
facet normal -1.0 0.0 0.0
  outer loop
    vertex 101.92974319998955 90.6894117415202 10.344664999999955
    vertex 101.92974319998955 95.6894117415202 13.444664999999954
    vertex 101.92974319998955 100.68941174152022 10.344664999999955
  endloop
endfacet
facet normal -1.0 0.0 0.0
  outer loop
    vertex 101.92974319998955 100.68941174152022 10.344664999999955
    vertex 101.92974319998955 95.6894117415202 13.444664999999954
    vertex 101.92974319998955 100.68941174152022 13.444664999999954
  endloop
endfacet
facet normal 0.9465633801141484 0.32251785598146104 -9.439548300796485e-18
  outer loop
    vertex 103.37025283228394 103.95388782302871 10.344664999999953
    vertex 103.52411689691994 103.42535377953453 13.44466499999995
    vertex 103.52411689691994 103.42535377953453 10.344664999999953
  endloop
endfacet
facet normal 0.9717683896912828 0.23593684917115262 -9.672202137708378e-18
  outer loop
    vertex 103.52411689691994 103.42535377953453 13.44466499999995
    vertex 103.37025283228394 103.95388782302871 10.344664999999953
    vertex 103.37025283228394 103.95388782302871 13.44466499999995
  endloop
endfacet
facet normal 0.913661330543309 0.4064762884472236 -9.13013617984346e-18
  outer loop
    vertex 103.16940216145468 104.46641235273052 10.344664999999953
    vertex 103.37025283228394 103.95388782302871 13.44466499999995
    vertex 103.37025283228394 103.95388782302871 10.344664999999953
  endloop
endfacet
facet normal 0.9465633801141484 0.32251785598146104 -9.439548300796485e-18
  outer loop
    vertex 103.37025283228394 103.95388782302871 13.44466499999995
    vertex 103.16940216145468 104.46641235273052 10.344664999999953
    vertex 103.16940216145468 104.46641235273052 13.44466499999995
  endloop
endfacet
facet normal 0.0 1.0 0.0
  outer loop
    vertex 96.52974319998954 90.6894117415202 13.444664999999954
    vertex 101.92974319998955 90.6894117415202 10.344664999999955
    vertex 96.52974319998954 90.6894117415202 10.344664999999955
  endloop
endfacet
facet normal 0.0 1.0 0.0
  outer loop
    vertex 101.92974319998955 90.6894117415202 10.344664999999955
    vertex 96.52974319998954 90.6894117415202 13.444664999999954
    vertex 101.92974319998955 90.6894117415202 13.444664999999954
  endloop
endfacet
facet normal 0.0 1.0 0.0
  outer loop
    vertex 101.92974319998955 90.6894117415202 13.444664999999954
    vertex 96.52974319998954 90.6894117415202 13.444664999999954
    vertex 99.62974319998953 90.6894117415202 13.444664999999954
  endloop
endfacet
facet normal 0.8733297860758494 0.4871294332646213 -8.746481779080625e-18
  outer loop
    vertex 102.92319811436548 104.95875974301053 10.344664999999955
    vertex 103.16940216145468 104.46641235273052 13.44466499999995
    vertex 103.16940216145468 104.46641235273052 10.344664999999953
  endloop
endfacet
facet normal 0.913661330543309 0.40647628844722355 -9.130136179843458e-18
  outer loop
    vertex 103.16940216145468 104.46641235273052 13.44466499999995
    vertex 102.92319811436548 104.95875974301053 10.344664999999955
    vertex 102.92319811436548 104.95875974301053 13.444664999999954
  endloop
endfacet
facet normal 0.8258967052164835 0.5638214542854475 -8.291704808533038e-18
  outer loop
    vertex 102.63364271479713 105.42692643992461 10.344664999999955
    vertex 102.92319811436548 104.95875974301053 13.444664999999954
    vertex 102.92319811436548 104.95875974301053 10.344664999999955
  endloop
endfacet
facet normal 0.8733297860758494 0.48712943326462144 -8.746481779080625e-18
  outer loop
    vertex 102.92319811436548 104.95875974301053 13.444664999999954
    vertex 102.63364271479713 105.42692643992461 10.344664999999955
    vertex 102.63364271479713 105.42692643992461 13.444664999999954
  endloop
endfacet
facet normal 0.7717477930622827 0.635928725490126 -7.769503315900588e-18
  outer loop
    vertex 102.3030905007951 105.8671055163662 10.344664999999955
    vertex 102.63364271479713 105.42692643992461 13.444664999999954
    vertex 102.63364271479713 105.42692643992461 10.344664999999955
  endloop
endfacet
facet normal 0.8258967052164835 0.5638214542854475 -8.291704808533038e-18
  outer loop
    vertex 102.63364271479713 105.42692643992461 13.444664999999954
    vertex 102.3030905007951 105.8671055163662 10.344664999999955
    vertex 102.3030905007951 105.8671055163662 13.444664999999954
  endloop
endfacet
facet normal 0.7113233649172439 0.702864902042213 -7.184123615648869e-18
  outer loop
    vertex 101.93422937859427 106.27571762833473 10.344664999999955
    vertex 102.3030905007951 105.8671055163662 13.444664999999954
    vertex 102.3030905007951 105.8671055163662 10.344664999999955
  endloop
endfacet
facet normal 0.7717477930622827 0.635928725490126 -7.769503315900588e-18
  outer loop
    vertex 102.3030905007951 105.8671055163662 13.444664999999954
    vertex 101.93422937859427 106.27571762833473 10.344664999999955
    vertex 101.93422937859427 106.27571762833473 13.444664999999954
  endloop
endfacet
facet normal 1.0 0.0 0.0
  outer loop
    vertex 96.52974319998954 100.68941174152022 10.344664999999955
    vertex 96.52974319998954 90.6894117415202 13.444664999999954
    vertex 96.52974319998954 90.6894117415202 10.344664999999955
  endloop
endfacet
facet normal 1.0 0.0 0.0
  outer loop
    vertex 96.52974319998954 90.6894117415202 13.444664999999954
    vertex 96.52974319998954 100.68941174152022 10.344664999999955
    vertex 96.52974319998954 100.68941174152022 13.444664999999954
  endloop
endfacet
facet normal -1.0 0.0 9.90548601061815e-18
  outer loop
    vertex 52.12974319998957 83.9894117415202 13.444664999999954
    vertex 52.12974319998957 79.4394117415202 10.344664999999955
    vertex 52.12974319998957 79.4394117415202 13.444664999999954
  endloop
endfacet
facet normal -1.0 0.0 9.90548601061815e-18
  outer loop
    vertex 52.12974319998957 79.4394117415202 10.344664999999955
    vertex 52.12974319998957 83.9894117415202 13.444664999999954
    vertex 52.12974319998957 83.9894117415202 10.344664999999955
  endloop
endfacet
facet normal 0.0 1.0 -1.9650999080188074e-19
  outer loop
    vertex 52.12974319998957 83.9894117415202 13.444664999999954
    vertex 52.81721488478112 83.9894117415202 10.344664999999955
    vertex 52.12974319998957 83.9894117415202 10.344664999999955
  endloop
endfacet
facet normal 0.0 1.0 -1.9650999080188074e-19
  outer loop
    vertex 52.81721488478112 83.9894117415202 10.344664999999955
    vertex 52.12974319998957 83.9894117415202 13.444664999999954
    vertex 52.81721488478112 83.9894117415202 13.444664999999954
  endloop
endfacet
facet normal 0.0 -1.0 1.9650999080188077e-19
  outer loop
    vertex 69.12974319998958 79.4394117415202 13.444664999999954
    vertex 52.12974319998957 79.4394117415202 10.344664999999955
    vertex 69.12974319998958 79.4394117415202 10.344664999999955
  endloop
endfacet
facet normal 0.0 -1.0 1.9650999080188077e-19
  outer loop
    vertex 52.12974319998957 79.4394117415202 10.344664999999955
    vertex 69.12974319998958 79.4394117415202 13.444664999999954
    vertex 52.12974319998957 79.4394117415202 13.444664999999954
  endloop
endfacet
facet normal 0.6451147658405507 0.7640856881884988 -6.54032575983455e-18
  outer loop
    vertex 101.53005876573961 106.6494401205978 13.444664999999954
    vertex 101.93422937859427 106.27571762833473 10.344664999999955
    vertex 101.53005876573961 106.6494401205978 10.344664999999955
  endloop
endfacet
facet normal 0.7113233649172439 0.702864902042213 -7.184123615648869e-18
  outer loop
    vertex 101.93422937859427 106.27571762833473 10.344664999999955
    vertex 101.53005876573961 106.6494401205978 13.444664999999954
    vertex 101.93422937859427 106.27571762833473 13.444664999999954
  endloop
endfacet
facet normal 0.10266563425835346 -0.9947159230364868 -8.214813870309754e-19
  outer loop
    vertex 90.92974319998955 81.68941174152022 13.444664999999954
    vertex 69.12974319998958 79.4394117415202 10.344664999999955
    vertex 90.92974319998955 81.68941174152022 10.344664999999955
  endloop
endfacet
facet normal 0.10266563425835346 -0.9947159230364868 -8.214813870309754e-19
  outer loop
    vertex 69.12974319998958 79.4394117415202 10.344664999999955
    vertex 90.92974319998955 81.68941174152022 13.444664999999954
    vertex 69.12974319998958 79.4394117415202 13.444664999999954
  endloop
endfacet
facet normal 0.5736603752431396 0.8190932632343526 -5.843344831440943e-18
  outer loop
    vertex 101.09386520113256 106.98523404507235 13.444664999999954
    vertex 101.53005876573961 106.6494401205978 10.344664999999955
    vertex 101.09386520113256 106.98523404507235 10.344664999999955
  endloop
endfacet
facet normal 0.6451147658405507 0.7640856881884988 -6.54032575983455e-18
  outer loop
    vertex 101.53005876573961 106.6494401205978 10.344664999999955
    vertex 101.09386520113256 106.98523404507235 13.444664999999954
    vertex 101.53005876573961 106.6494401205978 13.444664999999954
  endloop
endfacet
facet normal 0.0 -1.0 1.9650999080188072e-19
  outer loop
    vertex 95.62974319998955 81.68941174152022 13.444664999999954
    vertex 90.92974319998955 81.68941174152022 10.344664999999955
    vertex 95.62974319998955 81.68941174152022 10.344664999999955
  endloop
endfacet
facet normal 0.0 -1.0 1.9650999080188072e-19
  outer loop
    vertex 90.92974319998955 81.68941174152022 10.344664999999955
    vertex 95.62974319998955 81.68941174152022 13.444664999999954
    vertex 90.92974319998955 81.68941174152022 13.444664999999954
  endloop
endfacet
facet normal 0.4975412290215502 0.8674403296041322 -5.098848374970415e-18
  outer loop
    vertex 100.62919562033208 107.28036887222316 13.444664999999954
    vertex 101.09386520113256 106.98523404507235 10.344664999999955
    vertex 100.62919562033208 107.28036887222316 10.344664999999955
  endloop
endfacet
facet normal 0.5736603752431396 0.8190932632343526 -5.843344831440943e-18
  outer loop
    vertex 101.09386520113256 106.98523404507235 10.344664999999955
    vertex 100.62919562033208 107.28036887222316 13.444664999999954
    vertex 101.09386520113256 106.98523404507235 13.444664999999954
  endloop
endfacet
facet normal 0.43820224719101025 -0.8988764044943826 -4.16396803539277e-18
  outer loop
    vertex 99.62974319998955 83.6394117415202 13.444664999999954
    vertex 95.62974319998955 81.68941174152022 10.344664999999955
    vertex 99.62974319998955 83.6394117415202 10.344664999999955
  endloop
endfacet
facet normal 0.43820224719101025 -0.8988764044943826 -4.16396803539277e-18
  outer loop
    vertex 95.62974319998955 81.68941174152022 10.344664999999955
    vertex 99.62974319998955 83.6394117415202 13.444664999999954
    vertex 95.62974319998955 81.68941174152022 13.444664999999954
  endloop
endfacet
facet normal 0.4173762948276539 0.9087337500698098 -4.3128903104465394e-18
  outer loop
    vertex 100.13982851342396 107.53244469453662 13.444664999999954
    vertex 100.62919562033208 107.28036887222316 10.344664999999955
    vertex 100.13982851342396 107.53244469453662 10.344664999999955
  endloop
endfacet
facet normal 0.4975412290215502 0.8674403296041322 -5.098848374970415e-18
  outer loop
    vertex 100.62919562033208 107.28036887222316 10.344664999999955
    vertex 100.13982851342396 107.53244469453662 13.444664999999954
    vertex 100.62919562033208 107.28036887222316 13.444664999999954
  endloop
endfacet
facet normal 0.41737629482778493 -0.9087337500697497 -3.955739788712695e-18
  outer loop
    vertex 100.13982851342399 83.8463787885039 13.444664999999954
    vertex 99.62974319998955 83.6394117415202 10.344664999999955
    vertex 100.13982851342399 83.8463787885039 10.344664999999955
  endloop
endfacet
facet normal 0.37597922363688946 -0.9266280933542875 -3.542165261916466e-18
  outer loop
    vertex 99.62974319998955 83.6394117415202 10.344664999999955
    vertex 100.13982851342399 83.8463787885039 13.444664999999954
    vertex 99.62974319998955 83.6394117415202 13.444664999999954
  endloop
endfacet
facet normal 0.3759792236367486 0.9266280933543446 -3.906348618118713e-18
  outer loop
    vertex 99.62974319998952 107.73941174152021 13.444664999999954
    vertex 100.13982851342396 107.53244469453662 10.344664999999955
    vertex 99.62974319998952 107.73941174152021 10.344664999999955
  endloop
endfacet
facet normal 0.4173762948276539 0.9087337500698098 -4.3128903104465394e-18
  outer loop
    vertex 100.13982851342396 107.53244469453662 10.344664999999955
    vertex 99.62974319998952 107.73941174152021 13.444664999999954
    vertex 100.13982851342396 107.53244469453662 13.444664999999954
  endloop
endfacet
facet normal 0.4975412290215391 -0.8674403296041385 -4.7579269925869275e-18
  outer loop
    vertex 100.62919562033214 84.09845461081744 13.444664999999954
    vertex 100.13982851342399 83.8463787885039 10.344664999999955
    vertex 100.62919562033214 84.09845461081744 10.344664999999955
  endloop
endfacet
facet normal 0.41737629482778493 -0.9087337500697497 -3.955739788712695e-18
  outer loop
    vertex 100.13982851342399 83.8463787885039 10.344664999999955
    vertex 100.62919562033214 84.09845461081744 13.444664999999954
    vertex 100.13982851342399 83.8463787885039 13.444664999999954
  endloop
endfacet
facet normal 0.4382022471910112 0.898876404494382 -4.517244423351216e-18
  outer loop
    vertex 95.62974319998955 109.6894117415202 13.444664999999954
    vertex 99.62974319998952 107.73941174152021 10.344664999999955
    vertex 95.62974319998955 109.6894117415202 10.344664999999955
  endloop
endfacet
facet normal 0.4382022471910112 0.898876404494382 -4.517244423351216e-18
  outer loop
    vertex 99.62974319998952 107.73941174152021 10.344664999999955
    vertex 95.62974319998955 109.6894117415202 13.444664999999954
    vertex 99.62974319998952 107.73941174152021 13.444664999999954
  endloop
endfacet
facet normal 0.5736603752430784 -0.8190932632343955 -5.5214248121921995e-18
  outer loop
    vertex 101.09386520113259 84.39358943796815 13.444664999999954
    vertex 100.62919562033214 84.09845461081744 10.344664999999955
    vertex 101.09386520113259 84.39358943796815 10.344664999999955
  endloop
endfacet
facet normal 0.4975412290215391 -0.8674403296041385 -4.7579269925869275e-18
  outer loop
    vertex 100.62919562033214 84.09845461081744 10.344664999999955
    vertex 101.09386520113259 84.39358943796815 13.444664999999954
    vertex 100.62919562033214 84.09845461081744 13.444664999999954
  endloop
endfacet
facet normal 0.0 1.0 -1.9650999080188072e-19
  outer loop
    vertex 90.92974319998955 109.6894117415202 13.444664999999954
    vertex 95.62974319998955 109.6894117415202 10.344664999999955
    vertex 90.92974319998955 109.6894117415202 10.344664999999955
  endloop
endfacet
facet normal 0.0 1.0 -1.9650999080188072e-19
  outer loop
    vertex 95.62974319998955 109.6894117415202 10.344664999999955
    vertex 90.92974319998955 109.6894117415202 13.444664999999954
    vertex 95.62974319998955 109.6894117415202 13.444664999999954
  endloop
endfacet
facet normal 0.6451147658405678 -0.7640856881884841 -6.24002481671918e-18
  outer loop
    vertex 101.53005876573964 84.72938336244269 13.444664999999954
    vertex 101.09386520113259 84.39358943796815 10.344664999999955
    vertex 101.53005876573964 84.72938336244269 10.344664999999955
  endloop
endfacet
facet normal 0.5736603752430784 -0.8190932632343955 -5.5214248121921995e-18
  outer loop
    vertex 101.09386520113259 84.39358943796815 10.344664999999955
    vertex 101.53005876573964 84.72938336244269 13.444664999999954
    vertex 101.09386520113259 84.39358943796815 13.444664999999954
  endloop
endfacet
facet normal 0.10266563425835334 0.9947159230364868 8.807786318749935e-16
  outer loop
    vertex 69.12974319998958 111.93941174152022 13.444664999999954
    vertex 90.92974319998955 109.6894117415202 10.344664999999955
    vertex 69.12974319998958 111.93941174152022 10.344664999999955
  endloop
endfacet
facet normal 0.10266563425835334 0.9947159230364868 8.807786318749935e-16
  outer loop
    vertex 90.92974319998955 109.6894117415202 10.344664999999955
    vertex 69.12974319998958 111.93941174152022 13.444664999999954
    vertex 90.92974319998955 109.6894117415202 13.444664999999954
  endloop
endfacet
facet normal 0.7113233649172456 -0.7028649020422112 -6.907883664778327e-18
  outer loop
    vertex 101.93422937859431 85.10310585470582 13.444664999999954
    vertex 101.53005876573964 84.72938336244269 10.344664999999955
    vertex 101.93422937859431 85.10310585470582 10.344664999999955
  endloop
endfacet
facet normal 0.6451147658405678 -0.7640856881884841 -6.24002481671918e-18
  outer loop
    vertex 101.53005876573964 84.72938336244269 10.344664999999955
    vertex 101.93422937859431 85.10310585470582 13.444664999999954
    vertex 101.53005876573964 84.72938336244269 13.444664999999954
  endloop
endfacet
facet normal 0.0 1.0 0.0
  outer loop
    vertex 52.12974319998957 111.93941174152022 13.444664999999954
    vertex 69.12974319998958 111.93941174152022 10.344664999999955
    vertex 52.12974319998957 111.93941174152022 10.344664999999955
  endloop
endfacet
facet normal 0.0 1.0 0.0
  outer loop
    vertex 69.12974319998958 111.93941174152022 10.344664999999955
    vertex 52.12974319998957 111.93941174152022 13.444664999999954
    vertex 69.12974319998958 111.93941174152022 13.444664999999954
  endloop
endfacet
facet normal 0.0 1.0 0.0
  outer loop
    vertex 69.12974319998958 111.93941174152022 13.444664999999954
    vertex 52.12974319998957 111.93941174152022 13.444664999999954
    vertex 64.32974319998957 111.93941174152022 13.444664999999954
  endloop
endfacet
facet normal 0.771747793062227 -0.6359287254901936 -7.519570619906589e-18
  outer loop
    vertex 102.30309050079515 85.51171796667433 10.344664999999955
    vertex 101.93422937859431 85.10310585470582 13.444664999999954
    vertex 101.93422937859431 85.10310585470582 10.344664999999955
  endloop
endfacet
facet normal 0.7113233649172456 -0.7028649020422112 -6.907883664778327e-18
  outer loop
    vertex 101.93422937859431 85.10310585470582 13.444664999999954
    vertex 102.30309050079515 85.51171796667433 10.344664999999955
    vertex 102.30309050079515 85.51171796667433 13.444664999999954
  endloop
endfacet
facet normal -1.0 0.0 9.90548601061815e-18
  outer loop
    vertex 52.12974319998957 111.93941174152022 13.444664999999954
    vertex 52.12974319998957 107.3894117415202 10.344664999999955
    vertex 52.12974319998957 107.3894117415202 13.444664999999954
  endloop
endfacet
facet normal -1.0 0.0 9.90548601061815e-18
  outer loop
    vertex 52.12974319998957 107.3894117415202 10.344664999999955
    vertex 52.12974319998957 111.93941174152022 13.444664999999954
    vertex 52.12974319998957 111.93941174152022 10.344664999999955
  endloop
endfacet
facet normal 0.8258967052164518 -0.5638214542854941 -8.070111710941638e-18
  outer loop
    vertex 102.63364271479719 85.95189704311576 10.344664999999955
    vertex 102.30309050079515 85.51171796667433 13.444664999999954
    vertex 102.30309050079515 85.51171796667433 10.344664999999955
  endloop
endfacet
facet normal 0.771747793062227 -0.6359287254901936 -7.519570619906589e-18
  outer loop
    vertex 102.30309050079515 85.51171796667433 13.444664999999954
    vertex 102.63364271479719 85.95189704311576 10.344664999999955
    vertex 102.63364271479719 85.95189704311576 13.444664999999954
  endloop
endfacet
facet normal 0.0 -1.0 1.9650999080188074e-19
  outer loop
    vertex 52.81721488478112 107.3894117415202 13.444664999999954
    vertex 52.12974319998957 107.3894117415202 10.344664999999955
    vertex 52.81721488478112 107.3894117415202 10.344664999999955
  endloop
endfacet
facet normal 0.0 -1.0 1.9650999080188074e-19
  outer loop
    vertex 52.12974319998957 107.3894117415202 10.344664999999955
    vertex 52.81721488478112 107.3894117415202 13.444664999999954
    vertex 52.12974319998957 107.3894117415202 13.444664999999954
  endloop
endfacet
facet normal 0.8733297860758981 -0.4871294332645342 -8.555030178180811e-18
  outer loop
    vertex 102.9231981143655 86.42006374002986 10.344664999999955
    vertex 102.63364271479719 85.95189704311576 13.444664999999954
    vertex 102.63364271479719 85.95189704311576 10.344664999999955
  endloop
endfacet
facet normal 0.8258967052164518 -0.5638214542854941 -8.070111710941638e-18
  outer loop
    vertex 102.63364271479719 85.95189704311576 13.444664999999954
    vertex 102.9231981143655 86.42006374002986 10.344664999999955
    vertex 102.9231981143655 86.42006374002986 13.444664999999954
  endloop
endfacet
facet normal -1.0 0.0 9.905486010618152e-18
  outer loop
    vertex 52.81721488478112 107.3894117415202 13.444664999999954
    vertex 52.81721488478112 83.9894117415202 10.344664999999955
    vertex 52.81721488478112 83.9894117415202 13.444664999999954
  endloop
endfacet
facet normal -1.0 0.0 9.905486010618152e-18
  outer loop
    vertex 52.81721488478112 83.9894117415202 10.344664999999955
    vertex 52.81721488478112 107.3894117415202 13.444664999999954
    vertex 52.81721488478112 107.3894117415202 10.344664999999955
  endloop
endfacet
facet normal 0.9136613305433346 -0.40647628844716566 -8.970382876435836e-18
  outer loop
    vertex 103.1694021614547 86.91241113031006 10.344664999999953
    vertex 102.9231981143655 86.42006374002986 13.444664999999954
    vertex 102.9231981143655 86.42006374002986 10.344664999999955
  endloop
endfacet
facet normal 0.873329786075898 -0.4871294332645342 -8.55503017818081e-18
  outer loop
    vertex 102.9231981143655 86.42006374002986 13.444664999999954
    vertex 103.1694021614547 86.91241113031006 10.344664999999953
    vertex 103.1694021614547 86.91241113031006 13.44466499999995
  endloop
endfacet
facet normal 0.0 -1.0 0.0
  outer loop
    vertex 101.92974319998955 100.68941174152022 13.444664999999954
    vertex 96.52974319998954 100.68941174152022 10.344664999999955
    vertex 101.92974319998955 100.68941174152022 10.344664999999955
  endloop
endfacet
facet normal 0.0 -1.0 0.0
  outer loop
    vertex 96.52974319998954 100.68941174152022 10.344664999999955
    vertex 101.92974319998955 100.68941174152022 13.444664999999954
    vertex 96.52974319998954 100.68941174152022 13.444664999999954
  endloop
endfacet
facet normal -6.472698368774271e-17 1.5006451012063655e-16 1.0
  outer loop
    vertex 99.62974319998953 90.6894117415202 13.444664999999954
    vertex 96.52974319998954 100.68941174152022 13.444664999999954
    vertex 96.52974319998954 90.6894117415202 13.444664999999954
  endloop
endfacet
facet normal -6.472698368774271e-17 1.5006451012063655e-16 1.0
  outer loop
    vertex 96.52974319998954 100.68941174152022 13.444664999999954
    vertex 99.62974319998953 90.6894117415202 13.444664999999954
    vertex 99.62974319998953 95.6894117415202 13.444664999999954
  endloop
endfacet
facet normal -6.472698368774271e-17 1.5006451012063655e-16 1.0
  outer loop
    vertex 96.52974319998954 100.68941174152022 13.444664999999954
    vertex 99.62974319998953 95.6894117415202 13.444664999999954
    vertex 101.92974319998955 100.68941174152022 13.444664999999954
  endloop
endfacet
facet normal -6.472698368774271e-17 1.5006451012063655e-16 1.0
  outer loop
    vertex 101.92974319998955 100.68941174152022 13.444664999999954
    vertex 99.62974319998953 95.6894117415202 13.444664999999954
    vertex 101.12273119998954 95.6894117415202 13.444664999999954
  endloop
endfacet
facet normal -6.472698368774271e-17 1.5006451012063655e-16 1.0
  outer loop
    vertex 101.92974319998955 100.68941174152022 13.444664999999954
    vertex 101.12273119998954 95.6894117415202 13.444664999999954
    vertex 101.92974319998955 95.6894117415202 13.444664999999954
  endloop
endfacet
facet normal 3.7530445514393445e-17 2.2423367735150145e-17 1.0
  outer loop
    vertex 103.62974319998959 88.49371545278898 13.44466499999995
    vertex 103.62974319998956 91.43941174152019 13.44466499999995
    vertex 103.52411689691998 87.95346970350603 13.44466499999995
  endloop
endfacet
facet normal 3.7530445514393445e-17 2.2423367735150145e-17 1.0
  outer loop
    vertex 103.62974319998956 95.68941174152019 13.44466499999995
    vertex 101.92974319998955 100.68941174152022 13.444664999999954
    vertex 101.92974319998955 95.6894117415202 13.444664999999954
  endloop
endfacet
facet normal 3.7530445514393445e-17 2.2423367735150145e-17 1.0
  outer loop
    vertex 101.92974319998955 100.68941174152022 13.444664999999954
    vertex 103.62974319998956 95.68941174152019 13.44466499999995
    vertex 102.08989769248466 103.30273146550628 13.444664999999954
  endloop
endfacet
facet normal 3.7530445514393445e-17 2.2423367735150145e-17 1.0
  outer loop
    vertex 102.08989769248466 103.30273146550628 13.444664999999954
    vertex 103.62974319998956 95.68941174152019 13.44466499999995
    vertex 102.4785040540869 102.921623236666 13.44466499999995
  endloop
endfacet
facet normal 3.7530445514393445e-17 2.2423367735150145e-17 1.0
  outer loop
    vertex 102.4785040540869 102.921623236666 13.44466499999995
    vertex 103.62974319998956 95.68941174152019 13.44466499999995
    vertex 102.81770195912384 102.49594358295201 13.44466499999995
  endloop
endfacet
facet normal 3.7530445514393445e-17 2.2423367735150145e-17 1.0
  outer loop
    vertex 102.81770195912384 102.49594358295201 13.44466499999995
    vertex 103.62974319998956 95.68941174152019 13.44466499999995
    vertex 103.10242183625009 102.03205461139014 13.44466499999995
  endloop
endfacet
facet normal 3.7530445514393445e-17 2.2423367735150145e-17 1.0
  outer loop
    vertex 103.10242183625009 102.03205461139014 13.44466499999995
    vertex 103.62974319998956 95.68941174152019 13.44466499999995
    vertex 103.32840832978951 101.53688949639792 13.44466499999995
  endloop
endfacet
facet normal 3.7530445514393445e-17 2.2423367735150145e-17 1.0
  outer loop
    vertex 103.32840832978951 101.53688949639792 13.44466499999995
    vertex 103.62974319998956 95.68941174152019 13.44466499999995
    vertex 103.49228389927066 101.01784885820594 13.444664999999949
  endloop
endfacet
facet normal 3.7530445514393445e-17 2.2423367735150145e-17 1.0
  outer loop
    vertex 103.49228389927066 101.01784885820594 13.444664999999949
    vertex 103.62974319998956 95.68941174152019 13.44466499999995
    vertex 103.59159929934468 100.48269015494526 13.444664999999949
  endloop
endfacet
facet normal 3.7530445514393445e-17 2.2423367735150145e-17 1.0
  outer loop
    vertex 103.59159929934468 100.48269015494526 13.444664999999949
    vertex 103.62974319998956 95.68941174152019 13.44466499999995
    vertex 103.62974319998956 99.93941174152019 13.44466499999995
  endloop
endfacet
facet normal 3.7530445514393445e-17 2.2423367735150145e-17 1.0
  outer loop
    vertex 99.62974319998955 83.6394117415202 13.444664999999954
    vertex 96.52974319998954 90.6894117415202 13.444664999999954
    vertex 95.62974319998955 81.68941174152022 13.444664999999954
  endloop
endfacet
facet normal 3.7530445514393445e-17 2.2423367735150145e-17 1.0
  outer loop
    vertex 96.52974319998954 90.6894117415202 13.444664999999954
    vertex 99.62974319998955 83.6394117415202 13.444664999999954
    vertex 99.62974319998953 90.6894117415202 13.444664999999954
  endloop
endfacet
facet normal 3.7530445514393445e-17 2.2423367735150145e-17 1.0
  outer loop
    vertex 99.62974319998953 90.6894117415202 13.444664999999954
    vertex 99.62974319998955 83.6394117415202 13.444664999999954
    vertex 101.92974319998955 90.6894117415202 13.444664999999954
  endloop
endfacet
facet normal 3.7530445514393445e-17 2.2423367735150145e-17 1.0
  outer loop
    vertex 101.92974319998955 90.6894117415202 13.444664999999954
    vertex 99.62974319998955 83.6394117415202 13.444664999999954
    vertex 100.13982851342399 83.8463787885039 13.444664999999954
  endloop
endfacet
facet normal 3.7530445514393445e-17 2.2423367735150145e-17 1.0
  outer loop
    vertex 101.92974319998955 90.6894117415202 13.444664999999954
    vertex 100.13982851342399 83.8463787885039 13.444664999999954
    vertex 100.62919562033214 84.09845461081744 13.444664999999954
  endloop
endfacet
facet normal 3.7530445514393445e-17 2.2423367735150145e-17 1.0
  outer loop
    vertex 101.92974319998955 90.6894117415202 13.444664999999954
    vertex 100.62919562033214 84.09845461081744 13.444664999999954
    vertex 101.09386520113259 84.39358943796815 13.444664999999954
  endloop
endfacet
facet normal 3.7530445514393445e-17 2.2423367735150145e-17 1.0
  outer loop
    vertex 101.92974319998955 90.6894117415202 13.444664999999954
    vertex 101.09386520113259 84.39358943796815 13.444664999999954
    vertex 101.53005876573964 84.72938336244269 13.444664999999954
  endloop
endfacet
facet normal 3.7530445514393445e-17 2.2423367735150145e-17 1.0
  outer loop
    vertex 101.92974319998955 90.6894117415202 13.444664999999954
    vertex 101.53005876573964 84.72938336244269 13.444664999999954
    vertex 101.93422937859431 85.10310585470582 13.444664999999954
  endloop
endfacet
facet normal 3.7530445514393445e-17 2.2423367735150145e-17 1.0
  outer loop
    vertex 101.92974319998955 90.6894117415202 13.444664999999954
    vertex 101.93422937859431 85.10310585470582 13.444664999999954
    vertex 101.92974319998955 95.6894117415202 13.444664999999954
  endloop
endfacet
facet normal 3.7530445514393445e-17 2.2423367735150145e-17 1.0
  outer loop
    vertex 101.92974319998955 95.6894117415202 13.444664999999954
    vertex 101.93422937859431 85.10310585470582 13.444664999999954
    vertex 103.62974319998956 95.68941174152019 13.44466499999995
  endloop
endfacet
facet normal 3.7530445514393445e-17 2.2423367735150145e-17 1.0
  outer loop
    vertex 103.62974319998956 95.68941174152019 13.44466499999995
    vertex 101.93422937859431 85.10310585470582 13.444664999999954
    vertex 102.30309050079515 85.51171796667433 13.444664999999954
  endloop
endfacet
facet normal 3.7530445514393445e-17 2.2423367735150145e-17 1.0
  outer loop
    vertex 103.62974319998956 95.68941174152019 13.44466499999995
    vertex 102.30309050079515 85.51171796667433 13.444664999999954
    vertex 102.63364271479719 85.95189704311576 13.444664999999954
  endloop
endfacet
facet normal 3.7530445514393445e-17 2.2423367735150145e-17 1.0
  outer loop
    vertex 103.62974319998956 95.68941174152019 13.44466499999995
    vertex 102.63364271479719 85.95189704311576 13.444664999999954
    vertex 102.9231981143655 86.42006374002986 13.444664999999954
  endloop
endfacet
facet normal 3.7530445514393445e-17 2.2423367735150145e-17 1.0
  outer loop
    vertex 103.62974319998956 95.68941174152019 13.44466499999995
    vertex 102.9231981143655 86.42006374002986 13.444664999999954
    vertex 103.1694021614547 86.91241113031006 13.44466499999995
  endloop
endfacet
facet normal 3.7530445514393445e-17 2.2423367735150145e-17 1.0
  outer loop
    vertex 103.62974319998956 95.68941174152019 13.44466499999995
    vertex 103.1694021614547 86.91241113031006 13.44466499999995
    vertex 103.37025283228398 87.42493566001187 13.44466499999995
  endloop
endfacet
facet normal 3.7530445514393445e-17 2.2423367735150145e-17 1.0
  outer loop
    vertex 103.62974319998956 95.68941174152019 13.44466499999995
    vertex 103.37025283228398 87.42493566001187 13.44466499999995
    vertex 103.52411689691998 87.95346970350603 13.44466499999995
  endloop
endfacet
facet normal 3.7530445514393445e-17 2.2423367735150145e-17 1.0
  outer loop
    vertex 103.62974319998956 95.68941174152019 13.44466499999995
    vertex 103.52411689691998 87.95346970350603 13.44466499999995
    vertex 103.62974319998956 91.43941174152019 13.44466499999995
  endloop
endfacet
facet normal 3.7530445514393445e-17 2.2423367735150145e-17 1.0
  outer loop
    vertex 69.12974319998958 79.4394117415202 13.444664999999954
    vertex 52.12974319998957 83.9894117415202 13.444664999999954
    vertex 52.12974319998957 79.4394117415202 13.444664999999954
  endloop
endfacet
facet normal 3.7530445514393445e-17 2.2423367735150145e-17 1.0
  outer loop
    vertex 52.12974319998957 83.9894117415202 13.444664999999954
    vertex 69.12974319998958 79.4394117415202 13.444664999999954
    vertex 52.81721488478112 83.9894117415202 13.444664999999954
  endloop
endfacet
facet normal 3.7530445514393445e-17 2.2423367735150145e-17 1.0
  outer loop
    vertex 52.81721488478112 83.9894117415202 13.444664999999954
    vertex 69.12974319998958 79.4394117415202 13.444664999999954
    vertex 59.900405660172716 83.3394117415202 13.444664999999954
  endloop
endfacet
facet normal 3.7530445514393445e-17 2.2423367735150145e-17 1.0
  outer loop
    vertex 52.81721488478112 83.9894117415202 13.444664999999954
    vertex 59.900405660172716 83.3394117415202 13.444664999999954
    vertex 52.81721488478112 107.3894117415202 13.444664999999954
  endloop
endfacet
facet normal 3.7530445514393445e-17 2.2423367735150145e-17 1.0
  outer loop
    vertex 59.900405660172716 83.3394117415202 13.444664999999954
    vertex 69.12974319998958 79.4394117415202 13.444664999999954
    vertex 62.629743199989576 83.3394117415202 13.444664999999954
  endloop
endfacet
facet normal 3.7530445514393445e-17 2.2423367735150145e-17 1.0
  outer loop
    vertex 62.629743199989576 83.3394117415202 13.444664999999954
    vertex 69.12974319998958 79.4394117415202 13.444664999999954
    vertex 62.629743199989576 108.0394117415202 13.444664999999954
  endloop
endfacet
facet normal 3.7530445514393445e-17 2.2423367735150145e-17 1.0
  outer loop
    vertex 62.629743199989576 108.0394117415202 13.444664999999954
    vertex 69.12974319998958 79.4394117415202 13.444664999999954
    vertex 64.32974319998957 111.93941174152022 13.444664999999954
  endloop
endfacet
facet normal 3.7530445514393445e-17 2.2423367735150145e-17 1.0
  outer loop
    vertex 64.32974319998957 111.93941174152022 13.444664999999954
    vertex 69.12974319998958 79.4394117415202 13.444664999999954
    vertex 64.47108577291765 111.37498580066176 13.444664999999954
  endloop
endfacet
facet normal 3.7530445514393445e-17 2.2423367735150145e-17 1.0
  outer loop
    vertex 64.47108577291765 111.37498580066176 13.444664999999954
    vertex 69.12974319998958 79.4394117415202 13.444664999999954
    vertex 64.67113734900215 110.82860339561748 13.444664999999954
  endloop
endfacet
facet normal 3.7530445514393445e-17 2.2423367735150145e-17 1.0
  outer loop
    vertex 64.67113734900215 110.82860339561748 13.444664999999954
    vertex 69.12974319998958 79.4394117415202 13.444664999999954
    vertex 64.9276688687916 110.30635255072548 13.444664999999954
  endloop
endfacet
facet normal 3.7530445514393445e-17 2.2423367735150145e-17 1.0
  outer loop
    vertex 64.9276688687916 110.30635255072548 13.444664999999954
    vertex 69.12974319998958 79.4394117415202 13.444664999999954
    vertex 65.23782194936301 109.81405240625269 13.444664999999954
  endloop
endfacet
facet normal 3.7530445514393445e-17 2.2423367735150145e-17 1.0
  outer loop
    vertex 65.23782194936301 109.81405240625269 13.444664999999954
    vertex 69.12974319998958 79.4394117415202 13.444664999999954
    vertex 65.59814073363604 109.3571883790675 13.444664999999954
  endloop
endfacet
facet normal 3.7530445514393445e-17 2.2423367735150145e-17 1.0
  outer loop
    vertex 65.59814073363604 109.3571883790675 13.444664999999954
    vertex 69.12974319998958 79.4394117415202 13.444664999999954
    vertex 66.0046103969972 108.94085104180004 13.444664999999954
  endloop
endfacet
facet normal 3.7530445514393445e-17 2.2423367735150145e-17 1.0
  outer loop
    vertex 66.0046103969972 108.94085104180004 13.444664999999954
    vertex 69.12974319998958 79.4394117415202 13.444664999999954
    vertex 66.4527018821774 108.56967940152444 13.444664999999954
  endloop
endfacet
facet normal 3.7530445514393445e-17 2.2423367735150145e-17 1.0
  outer loop
    vertex 66.4527018821774 108.56967940152444 13.444664999999954
    vertex 69.12974319998958 79.4394117415202 13.444664999999954
    vertex 66.9374223639277 108.2478092099757 13.444664999999954
  endloop
endfacet
facet normal 3.7530445514393445e-17 2.2423367735150145e-17 1.0
  outer loop
    vertex 66.9374223639277 108.2478092099757 13.444664999999954
    vertex 69.12974319998958 79.4394117415202 13.444664999999954
    vertex 67.45337088119435 107.97882688125088 13.444664999999954
  endloop
endfacet
facet normal 3.7530445514393445e-17 2.2423367735150145e-17 1.0
  outer loop
    vertex 67.45337088119435 107.97882688125088 13.444664999999954
    vertex 69.12974319998958 79.4394117415202 13.444664999999954
    vertex 67.99479851691608 107.76572953046336 13.444664999999954
  endloop
endfacet
facet normal 3.7530445514393445e-17 2.2423367735150145e-17 1.0
  outer loop
    vertex 67.99479851691608 107.76572953046336 13.444664999999954
    vertex 69.12974319998958 79.4394117415202 13.444664999999954
    vertex 68.55567245489456 107.6108915786157 13.444664999999954
  endloop
endfacet
facet normal 3.7530445514393445e-17 2.2423367735150145e-17 1.0
  outer loop
    vertex 68.55567245489456 107.6108915786157 13.444664999999954
    vertex 69.12974319998958 79.4394117415202 13.444664999999954
    vertex 69.12974319998958 107.51603829579463 13.444664999999954
  endloop
endfacet
facet normal 3.7530445514393445e-17 2.2423367735150145e-17 1.0
  outer loop
    vertex 69.12974319998958 107.51603829579463 13.444664999999954
    vertex 69.12974319998958 79.4394117415202 13.444664999999954
    vertex 90.92974319998955 81.68941174152022 13.444664999999954
  endloop
endfacet
facet normal 3.7530445514393445e-17 2.2423367735150145e-17 1.0
  outer loop
    vertex 69.12974319998958 107.51603829579463 13.444664999999954
    vertex 90.92974319998955 81.68941174152022 13.444664999999954
    vertex 96.52974319998954 100.68941174152022 13.444664999999954
  endloop
endfacet
facet normal 3.7530445514393445e-17 2.2423367735150145e-17 1.0
  outer loop
    vertex 69.12974319998958 107.51603829579463 13.444664999999954
    vertex 96.52974319998954 100.68941174152022 13.444664999999954
    vertex 99.62974319998953 104.36810251597811 13.444664999999954
  endloop
endfacet
facet normal 3.7530445514393445e-17 2.2423367735150145e-17 1.0
  outer loop
    vertex 96.52974319998954 100.68941174152022 13.444664999999954
    vertex 90.92974319998955 81.68941174152022 13.444664999999954
    vertex 95.62974319998955 81.68941174152022 13.444664999999954
  endloop
endfacet
facet normal 3.7530445514393445e-17 2.2423367735150145e-17 1.0
  outer loop
    vertex 96.52974319998954 100.68941174152022 13.444664999999954
    vertex 95.62974319998955 81.68941174152022 13.444664999999954
    vertex 96.52974319998954 90.6894117415202 13.444664999999954
  endloop
endfacet
facet normal 3.7530445514393445e-17 2.2423367735150145e-17 1.0
  outer loop
    vertex 99.62974319998953 104.36810251597811 13.444664999999954
    vertex 96.52974319998954 100.68941174152022 13.444664999999954
    vertex 101.92974319998955 100.68941174152022 13.444664999999954
  endloop
endfacet
facet normal 3.7530445514393445e-17 2.2423367735150145e-17 1.0
  outer loop
    vertex 99.62974319998953 104.36810251597811 13.444664999999954
    vertex 101.92974319998955 100.68941174152022 13.444664999999954
    vertex 100.16673511182317 104.27923141272865 13.444664999999954
  endloop
endfacet
facet normal 3.7530445514393445e-17 2.2423367735150145e-17 1.0
  outer loop
    vertex 100.16673511182317 104.27923141272865 13.444664999999954
    vertex 101.92974319998955 100.68941174152022 13.444664999999954
    vertex 100.68886971676791 104.12549839517317 13.444664999999954
  endloop
endfacet
facet normal 3.7530445514393445e-17 2.2423367735150145e-17 1.0
  outer loop
    vertex 100.68886971676791 104.12549839517317 13.444664999999954
    vertex 101.92974319998955 100.68941174152022 13.444664999999954
    vertex 101.18834331500027 103.90920112048777 13.444664999999954
  endloop
endfacet
facet normal 3.7530445514393445e-17 2.2423367735150145e-17 1.0
  outer loop
    vertex 101.18834331500027 103.90920112048777 13.444664999999954
    vertex 101.92974319998955 100.68941174152022 13.444664999999954
    vertex 101.65769089272219 103.63357231637961 13.444664999999954
  endloop
endfacet
facet normal 3.7530445514393445e-17 2.2423367735150145e-17 1.0
  outer loop
    vertex 101.65769089272219 103.63357231637961 13.444664999999954
    vertex 101.92974319998955 100.68941174152022 13.444664999999954
    vertex 102.08989769248466 103.30273146550628 13.444664999999954
  endloop
endfacet
facet normal 3.7530445514393445e-17 2.2423367735150145e-17 1.0
  outer loop
    vertex 52.81721488478112 107.3894117415202 13.444664999999954
    vertex 52.12974319998957 111.93941174152022 13.444664999999954
    vertex 52.12974319998957 107.3894117415202 13.444664999999954
  endloop
endfacet
facet normal 3.7530445514393445e-17 2.2423367735150145e-17 1.0
  outer loop
    vertex 52.12974319998957 111.93941174152022 13.444664999999954
    vertex 52.81721488478112 107.3894117415202 13.444664999999954
    vertex 64.32974319998957 111.93941174152022 13.444664999999954
  endloop
endfacet
facet normal 3.7530445514393445e-17 2.2423367735150145e-17 1.0
  outer loop
    vertex 64.32974319998957 111.93941174152022 13.444664999999954
    vertex 52.81721488478112 107.3894117415202 13.444664999999954
    vertex 59.900405660172716 108.0394117415202 13.444664999999954
  endloop
endfacet
facet normal 3.7530445514393445e-17 2.2423367735150145e-17 1.0
  outer loop
    vertex 59.900405660172716 108.0394117415202 13.444664999999954
    vertex 52.81721488478112 107.3894117415202 13.444664999999954
    vertex 59.900405660172716 83.3394117415202 13.444664999999954
  endloop
endfacet
facet normal 3.7530445514393445e-17 2.2423367735150145e-17 1.0
  outer loop
    vertex 64.32974319998957 111.93941174152022 13.444664999999954
    vertex 59.900405660172716 108.0394117415202 13.444664999999954
    vertex 62.629743199989576 108.0394117415202 13.444664999999954
  endloop
endfacet
facet normal 0.0 -1.0 0.0
  outer loop
    vertex 62.629743199989576 108.0394117415202 10.344664999999956
    vertex 59.900405660172716 108.0394117415202 13.444664999999954
    vertex 59.900405660172716 108.0394117415202 10.344664999999955
  endloop
endfacet
facet normal 0.0 -1.0 0.0
  outer loop
    vertex 59.900405660172716 108.0394117415202 13.444664999999954
    vertex 62.629743199989576 108.0394117415202 10.344664999999956
    vertex 62.629743199989576 108.0394117415202 13.444664999999954
  endloop
endfacet
facet normal -2.5498007870098854e-17 -4.3707944221973054e-16 1.0
  outer loop
    vertex 64.47108577291765 111.37498580066176 13.444664999999954
    vertex 69.12974319998958 111.93941174152022 13.444664999999954
    vertex 64.32974319998957 111.93941174152022 13.444664999999954
  endloop
endfacet
facet normal -2.5498007870098854e-17 -4.3707944221973054e-16 1.0
  outer loop
    vertex 69.12974319998958 111.93941174152022 13.444664999999954
    vertex 64.47108577291765 111.37498580066176 13.444664999999954
    vertex 64.67113734900215 110.82860339561748 13.444664999999954
  endloop
endfacet
facet normal -2.5498007870098854e-17 -4.3707944221973054e-16 1.0
  outer loop
    vertex 69.12974319998958 111.93941174152022 13.444664999999954
    vertex 64.67113734900215 110.82860339561748 13.444664999999954
    vertex 64.9276688687916 110.30635255072548 13.444664999999954
  endloop
endfacet
facet normal -2.5498007870098854e-17 -4.3707944221973054e-16 1.0
  outer loop
    vertex 69.12974319998958 111.93941174152022 13.444664999999954
    vertex 64.9276688687916 110.30635255072548 13.444664999999954
    vertex 65.23782194936301 109.81405240625269 13.444664999999954
  endloop
endfacet
facet normal -2.5498007870098854e-17 -4.3707944221973054e-16 1.0
  outer loop
    vertex 69.12974319998958 111.93941174152022 13.444664999999954
    vertex 65.23782194936301 109.81405240625269 13.444664999999954
    vertex 65.59814073363604 109.3571883790675 13.444664999999954
  endloop
endfacet
facet normal -2.5498007870098854e-17 -4.3707944221973054e-16 1.0
  outer loop
    vertex 69.12974319998958 111.93941174152022 13.444664999999954
    vertex 65.59814073363604 109.3571883790675 13.444664999999954
    vertex 66.0046103969972 108.94085104180004 13.444664999999954
  endloop
endfacet
facet normal -2.5498007870098854e-17 -4.3707944221973054e-16 1.0
  outer loop
    vertex 69.12974319998958 111.93941174152022 13.444664999999954
    vertex 66.0046103969972 108.94085104180004 13.444664999999954
    vertex 66.4527018821774 108.56967940152444 13.444664999999954
  endloop
endfacet
facet normal -2.5498007870098854e-17 -4.3707944221973054e-16 1.0
  outer loop
    vertex 69.12974319998958 111.93941174152022 13.444664999999954
    vertex 66.4527018821774 108.56967940152444 13.444664999999954
    vertex 66.9374223639277 108.2478092099757 13.444664999999954
  endloop
endfacet
facet normal -2.5498007870098854e-17 -4.3707944221973054e-16 1.0
  outer loop
    vertex 69.12974319998958 111.93941174152022 13.444664999999954
    vertex 66.9374223639277 108.2478092099757 13.444664999999954
    vertex 67.45337088119435 107.97882688125088 13.444664999999954
  endloop
endfacet
facet normal -2.5498007870098854e-17 -4.3707944221973054e-16 1.0
  outer loop
    vertex 69.12974319998958 111.93941174152022 13.444664999999954
    vertex 67.45337088119435 107.97882688125088 13.444664999999954
    vertex 67.99479851691608 107.76572953046336 13.444664999999954
  endloop
endfacet
facet normal -2.5498007870098854e-17 -4.3707944221973054e-16 1.0
  outer loop
    vertex 69.12974319998958 111.93941174152022 13.444664999999954
    vertex 67.99479851691608 107.76572953046336 13.444664999999954
    vertex 68.55567245489456 107.6108915786157 13.444664999999954
  endloop
endfacet
facet normal -2.5498007870098854e-17 -4.3707944221973054e-16 1.0
  outer loop
    vertex 69.12974319998958 111.93941174152022 13.444664999999954
    vertex 68.55567245489456 107.6108915786157 13.444664999999954
    vertex 69.12974319998958 107.51603829579463 13.444664999999954
  endloop
endfacet
facet normal -2.5498007870098854e-17 -4.3707944221973054e-16 1.0
  outer loop
    vertex 69.12974319998958 111.93941174152022 13.444664999999954
    vertex 69.12974319998958 107.51603829579463 13.444664999999954
    vertex 99.62974319998953 104.36810251597811 13.444664999999954
  endloop
endfacet
facet normal -2.5498007870098854e-17 -4.3707944221973054e-16 1.0
  outer loop
    vertex 69.12974319998958 111.93941174152022 13.444664999999954
    vertex 99.62974319998953 104.36810251597811 13.444664999999954
    vertex 90.92974319998955 109.6894117415202 13.444664999999954
  endloop
endfacet
facet normal -2.5498007870098854e-17 -4.3707944221973054e-16 1.0
  outer loop
    vertex 90.92974319998955 109.6894117415202 13.444664999999954
    vertex 99.62974319998953 104.36810251597811 13.444664999999954
    vertex 95.62974319998955 109.6894117415202 13.444664999999954
  endloop
endfacet
facet normal -2.5498007870098854e-17 -4.3707944221973054e-16 1.0
  outer loop
    vertex 95.62974319998955 109.6894117415202 13.444664999999954
    vertex 99.62974319998953 104.36810251597811 13.444664999999954
    vertex 99.62974319998952 107.73941174152021 13.444664999999954
  endloop
endfacet
facet normal -2.5498007870098854e-17 -4.3707944221973054e-16 1.0
  outer loop
    vertex 99.62974319998952 107.73941174152021 13.444664999999954
    vertex 99.62974319998953 104.36810251597811 13.444664999999954
    vertex 100.13982851342396 107.53244469453662 13.444664999999954
  endloop
endfacet
facet normal -2.5498007870098854e-17 -4.3707944221973054e-16 1.0
  outer loop
    vertex 100.13982851342396 107.53244469453662 13.444664999999954
    vertex 99.62974319998953 104.36810251597811 13.444664999999954
    vertex 100.16673511182317 104.27923141272865 13.444664999999954
  endloop
endfacet
facet normal -2.5498007870098854e-17 -4.3707944221973054e-16 1.0
  outer loop
    vertex 100.13982851342396 107.53244469453662 13.444664999999954
    vertex 100.16673511182317 104.27923141272865 13.444664999999954
    vertex 100.62919562033208 107.28036887222316 13.444664999999954
  endloop
endfacet
facet normal -2.5498007870098854e-17 -4.3707944221973054e-16 1.0
  outer loop
    vertex 100.62919562033208 107.28036887222316 13.444664999999954
    vertex 100.16673511182317 104.27923141272865 13.444664999999954
    vertex 100.68886971676791 104.12549839517317 13.444664999999954
  endloop
endfacet
facet normal -2.5498007870098854e-17 -4.3707944221973054e-16 1.0
  outer loop
    vertex 100.62919562033208 107.28036887222316 13.444664999999954
    vertex 100.68886971676791 104.12549839517317 13.444664999999954
    vertex 101.09386520113256 106.98523404507235 13.444664999999954
  endloop
endfacet
facet normal -2.5498007870098854e-17 -4.3707944221973054e-16 1.0
  outer loop
    vertex 101.09386520113256 106.98523404507235 13.444664999999954
    vertex 100.68886971676791 104.12549839517317 13.444664999999954
    vertex 101.18834331500027 103.90920112048777 13.444664999999954
  endloop
endfacet
facet normal -2.5498007870098854e-17 -4.3707944221973054e-16 1.0
  outer loop
    vertex 101.09386520113256 106.98523404507235 13.444664999999954
    vertex 101.18834331500027 103.90920112048777 13.444664999999954
    vertex 101.53005876573961 106.6494401205978 13.444664999999954
  endloop
endfacet
facet normal -2.5498007870098854e-17 -4.3707944221973054e-16 1.0
  outer loop
    vertex 101.53005876573961 106.6494401205978 13.444664999999954
    vertex 101.18834331500027 103.90920112048777 13.444664999999954
    vertex 101.65769089272219 103.63357231637961 13.444664999999954
  endloop
endfacet
facet normal -2.5498007870098854e-17 -4.3707944221973054e-16 1.0
  outer loop
    vertex 101.53005876573961 106.6494401205978 13.444664999999954
    vertex 101.65769089272219 103.63357231637961 13.444664999999954
    vertex 101.93422937859427 106.27571762833473 13.444664999999954
  endloop
endfacet
facet normal -2.5498007870098854e-17 -4.3707944221973054e-16 1.0
  outer loop
    vertex 101.93422937859427 106.27571762833473 13.444664999999954
    vertex 101.65769089272219 103.63357231637961 13.444664999999954
    vertex 102.08989769248466 103.30273146550628 13.444664999999954
  endloop
endfacet
facet normal -2.5498007870098854e-17 -4.3707944221973054e-16 1.0
  outer loop
    vertex 101.93422937859427 106.27571762833473 13.444664999999954
    vertex 102.08989769248466 103.30273146550628 13.444664999999954
    vertex 102.3030905007951 105.8671055163662 13.444664999999954
  endloop
endfacet
facet normal -2.5498007870098854e-17 -4.3707944221973054e-16 1.0
  outer loop
    vertex 102.3030905007951 105.8671055163662 13.444664999999954
    vertex 102.08989769248466 103.30273146550628 13.444664999999954
    vertex 102.4785040540869 102.921623236666 13.44466499999995
  endloop
endfacet
facet normal -2.5498007870098854e-17 -4.3707944221973054e-16 1.0
  outer loop
    vertex 102.3030905007951 105.8671055163662 13.444664999999954
    vertex 102.4785040540869 102.921623236666 13.44466499999995
    vertex 102.63364271479713 105.42692643992461 13.444664999999954
  endloop
endfacet
facet normal -2.5498007870098854e-17 -4.3707944221973054e-16 1.0
  outer loop
    vertex 102.63364271479713 105.42692643992461 13.444664999999954
    vertex 102.4785040540869 102.921623236666 13.44466499999995
    vertex 102.81770195912384 102.49594358295201 13.44466499999995
  endloop
endfacet
facet normal -2.5498007870098854e-17 -4.3707944221973054e-16 1.0
  outer loop
    vertex 102.63364271479713 105.42692643992461 13.444664999999954
    vertex 102.81770195912384 102.49594358295201 13.44466499999995
    vertex 102.92319811436548 104.95875974301053 13.444664999999954
  endloop
endfacet
facet normal -2.5498007870098854e-17 -4.3707944221973054e-16 1.0
  outer loop
    vertex 102.92319811436548 104.95875974301053 13.444664999999954
    vertex 102.81770195912384 102.49594358295201 13.44466499999995
    vertex 103.10242183625009 102.03205461139014 13.44466499999995
  endloop
endfacet
facet normal -2.5498007870098854e-17 -4.3707944221973054e-16 1.0
  outer loop
    vertex 102.92319811436548 104.95875974301053 13.444664999999954
    vertex 103.10242183625009 102.03205461139014 13.44466499999995
    vertex 103.16940216145468 104.46641235273052 13.44466499999995
  endloop
endfacet
facet normal -2.5498007870098854e-17 -4.3707944221973054e-16 1.0
  outer loop
    vertex 103.16940216145468 104.46641235273052 13.44466499999995
    vertex 103.10242183625009 102.03205461139014 13.44466499999995
    vertex 103.32840832978951 101.53688949639792 13.44466499999995
  endloop
endfacet
facet normal -2.5498007870098854e-17 -4.3707944221973054e-16 1.0
  outer loop
    vertex 103.16940216145468 104.46641235273052 13.44466499999995
    vertex 103.32840832978951 101.53688949639792 13.44466499999995
    vertex 103.37025283228394 103.95388782302871 13.44466499999995
  endloop
endfacet
facet normal -2.5498007870098854e-17 -4.3707944221973054e-16 1.0
  outer loop
    vertex 103.37025283228394 103.95388782302871 13.44466499999995
    vertex 103.32840832978951 101.53688949639792 13.44466499999995
    vertex 103.49228389927066 101.01784885820594 13.444664999999949
  endloop
endfacet
facet normal -2.5498007870098854e-17 -4.3707944221973054e-16 1.0
  outer loop
    vertex 103.37025283228394 103.95388782302871 13.44466499999995
    vertex 103.49228389927066 101.01784885820594 13.444664999999949
    vertex 103.52411689691994 103.42535377953453 13.44466499999995
  endloop
endfacet
facet normal -2.5498007870098854e-17 -4.3707944221973054e-16 1.0
  outer loop
    vertex 103.52411689691994 103.42535377953453 13.44466499999995
    vertex 103.49228389927066 101.01784885820594 13.444664999999949
    vertex 103.59159929934468 100.48269015494526 13.444664999999949
  endloop
endfacet
facet normal -2.5498007870098854e-17 -4.3707944221973054e-16 1.0
  outer loop
    vertex 103.52411689691994 103.42535377953453 13.44466499999995
    vertex 103.59159929934468 100.48269015494526 13.444664999999949
    vertex 103.62974319998955 102.8851080302514 13.44466499999995
  endloop
endfacet
facet normal -2.5498007870098854e-17 -4.3707944221973054e-16 1.0
  outer loop
    vertex 103.62974319998955 102.8851080302514 13.44466499999995
    vertex 103.59159929934468 100.48269015494526 13.444664999999949
    vertex 103.62974319998956 99.93941174152019 13.44466499999995
  endloop
endfacet
facet normal 0.0 0.0 1.0
  outer loop
    vertex 101.92974319998955 90.6894117415202 13.444664999999954
    vertex 99.62974319998953 95.6894117415202 13.444664999999954
    vertex 99.62974319998953 90.6894117415202 13.444664999999954
  endloop
endfacet
facet normal 0.0 0.0 1.0
  outer loop
    vertex 99.62974319998953 95.6894117415202 13.444664999999954
    vertex 101.92974319998955 90.6894117415202 13.444664999999954
    vertex 101.12273119998954 95.6894117415202 13.444664999999954
  endloop
endfacet
facet normal 0.0 0.0 1.0
  outer loop
    vertex 101.12273119998954 95.6894117415202 13.444664999999954
    vertex 101.92974319998955 90.6894117415202 13.444664999999954
    vertex 101.92974319998955 95.6894117415202 13.444664999999954
  endloop
endfacet
endsolid gogorilla_adapter
