solid gogorilla_adapter
facet normal -1.0 0.0 0.0
  outer loop
    vertex 62.629743199989576 108.0394117415202 16.444664999999954
    vertex 62.629743199989576 83.3394117415202 10.344664999999955
    vertex 62.629743199989576 83.3394117415202 16.444664999999954
  endloop
endfacet
facet normal -1.0 0.0 0.0
  outer loop
    vertex 62.629743199989576 83.3394117415202 10.344664999999955
    vertex 62.629743199989576 108.0394117415202 16.444664999999954
    vertex 62.629743199989576 108.0394117415202 10.344664999999956
  endloop
endfacet
facet normal -1.0 0.0 0.0
  outer loop
    vertex 101.92974319998955 100.68941174152022 13.344664999999955
    vertex 101.92974319998955 90.6894117415202 12.18466499999996
    vertex 101.92974319998955 90.6894117415202 13.344664999999955
  endloop
endfacet
facet normal -1.0 0.0 0.0
  outer loop
    vertex 101.92974319998955 90.6894117415202 12.18466499999996
    vertex 101.92974319998955 100.68941174152022 13.344664999999955
    vertex 101.92974319998955 100.68941174152022 12.18466499999996
  endloop
endfacet
facet normal -1.0 0.0 9.90548601061815e-18
  outer loop
    vertex 52.12974319998957 83.9894117415202 16.444664999999954
    vertex 52.12974319998957 79.4394117415202 10.344664999999955
    vertex 52.12974319998957 79.4394117415202 16.444664999999954
  endloop
endfacet
facet normal -1.0 0.0 9.90548601061815e-18
  outer loop
    vertex 52.12974319998957 79.4394117415202 10.344664999999955
    vertex 52.12974319998957 83.9894117415202 16.444664999999954
    vertex 52.12974319998957 83.9894117415202 10.344664999999955
  endloop
endfacet
facet normal 0.0 1.0 -1.9650999080188074e-19
  outer loop
    vertex 52.12974319998957 83.9894117415202 16.444664999999954
    vertex 52.81721488478112 83.9894117415202 10.344664999999955
    vertex 52.12974319998957 83.9894117415202 10.344664999999955
  endloop
endfacet
facet normal 0.0 1.0 -1.9650999080188074e-19
  outer loop
    vertex 52.81721488478112 83.9894117415202 10.344664999999955
    vertex 52.12974319998957 83.9894117415202 16.444664999999954
    vertex 52.81721488478112 83.9894117415202 16.444664999999954
  endloop
endfacet
facet normal 2.7998504399724577e-16 -1.0 3.527274529869349e-15
  outer loop
    vertex 69.12974319998958 79.4394117415202 13.444664999999954
    vertex 52.12974319998957 79.4394117415202 10.344664999999955
    vertex 69.12974319998958 79.4394117415202 10.344664999999955
  endloop
endfacet
facet normal 2.7998504399724577e-16 -1.0 3.527274529869349e-15
  outer loop
    vertex 52.12974319998957 79.4394117415202 10.344664999999955
    vertex 69.12974319998958 79.4394117415202 13.444664999999954
    vertex 64.32974319998962 79.43941174152023 13.444664999999954
  endloop
endfacet
facet normal 2.7998504399724577e-16 -1.0 3.527274529869349e-15
  outer loop
    vertex 52.12974319998957 79.4394117415202 10.344664999999955
    vertex 64.32974319998962 79.43941174152023 13.444664999999954
    vertex 52.12974319998957 79.4394117415202 16.444664999999954
  endloop
endfacet
facet normal 2.7998504399724577e-16 -1.0 3.527274529869349e-15
  outer loop
    vertex 52.12974319998957 79.4394117415202 16.444664999999954
    vertex 64.32974319998962 79.43941174152023 13.444664999999954
    vertex 64.32974319998962 79.43941174152023 16.444664999999954
  endloop
endfacet
facet normal 0.10266563425835346 -0.9947159230364868 -8.214813870309754e-19
  outer loop
    vertex 90.92974319998955 81.68941174152022 13.444664999999954
    vertex 69.12974319998958 79.4394117415202 10.344664999999955
    vertex 90.92974319998955 81.68941174152022 10.344664999999955
  endloop
endfacet
facet normal 0.10266563425835346 -0.9947159230364868 -8.214813870309754e-19
  outer loop
    vertex 69.12974319998958 79.4394117415202 10.344664999999955
    vertex 90.92974319998955 81.68941174152022 13.444664999999954
    vertex 69.12974319998958 79.4394117415202 13.444664999999954
  endloop
endfacet
facet normal 0.5698488350029668 0.8217495392428046 2.2177505460120447e-15
  outer loop
    vertex 101.09386520113253 106.98523404507237 12.351840599771363
    vertex 101.53005876573961 106.6494401205978 10.344664999999955
    vertex 101.09386520113256 106.98523404507235 10.344664999999955
  endloop
endfacet
facet normal 0.645114765840546 0.7640856881885025 3.0024490061853853e-15
  outer loop
    vertex 101.53005876573961 106.6494401205978 10.344664999999955
    vertex 101.09386520113253 106.98523404507237 12.351840599771363
    vertex 101.53005876573958 106.6494401205978 12.264601886849949
  endloop
endfacet
facet normal 0.0 -1.0 0.0
  outer loop
    vertex 95.62974319998955 81.68941174152022 13.444664999999954
    vertex 90.92974319998955 81.68941174152022 10.344664999999955
    vertex 95.62974319998955 81.68941174152022 10.344664999999955
  endloop
endfacet
facet normal 0.0 -1.0 0.0
  outer loop
    vertex 90.92974319998955 81.68941174152022 10.344664999999955
    vertex 95.62974319998955 81.68941174152022 13.444664999999954
    vertex 90.92974319998955 81.68941174152022 13.444664999999954
  endloop
endfacet
facet normal 0.4932700334796298 0.8698762406635814 1.0545200084165966e-15
  outer loop
    vertex 100.62919562033208 107.28036887222315 12.444774515931453
    vertex 101.09386520113256 106.98523404507235 10.344664999999955
    vertex 100.62919562033208 107.28036887222316 10.344664999999955
  endloop
endfacet
facet normal 0.5736603752431414 0.8190932632343513 2.3907824344740993e-15
  outer loop
    vertex 101.09386520113256 106.98523404507235 10.344664999999955
    vertex 100.62919562033208 107.28036887222315 12.444774515931453
    vertex 101.09386520113253 106.98523404507237 12.351840599771363
  endloop
endfacet
facet normal 0.41269214758564055 0.9108705678202321 4.2061194047141e-15
  outer loop
    vertex 100.13982851342398 107.53244469453661 12.542647937313063
    vertex 100.62919562033208 107.28036887222316 10.344664999999955
    vertex 100.13982851342396 107.53244469453662 10.344664999999955
  endloop
endfacet
facet normal 0.49754122902154596 0.8674403296041348 1.0206900892717958e-15
  outer loop
    vertex 100.62919562033208 107.28036887222316 10.344664999999955
    vertex 100.13982851342398 107.53244469453661 12.542647937313063
    vertex 100.62919562033208 107.28036887222315 12.444774515931453
  endloop
endfacet
facet normal 0.4126921475857663 -0.9108705678201753 7.947764948632843e-16
  outer loop
    vertex 100.139828513424 83.84637878850391 12.542647937313069
    vertex 99.62974319998955 83.6394117415202 10.344664999999955
    vertex 100.13982851342399 83.8463787885039 10.344664999999955
  endloop
endfacet
facet normal 0.37597922363689296 -0.926628093354286 1.2090301840720848e-15
  outer loop
    vertex 99.62974319998955 83.6394117415202 10.344664999999955
    vertex 100.139828513424 83.84637878850391 12.542647937313069
    vertex 99.62974319998955 83.63941174152022 12.644664999999959
  endloop
endfacet
facet normal 0.37597922363674574 0.9266280933543456 6.485683812001119e-15
  outer loop
    vertex 99.62974319998953 107.7394117415202 12.64466499999996
    vertex 100.13982851342396 107.53244469453662 10.344664999999955
    vertex 99.62974319998952 107.73941174152021 10.344664999999955
  endloop
endfacet
facet normal 0.4173762948276565 0.9087337500698085 3.91180922904786e-15
  outer loop
    vertex 100.13982851342396 107.53244469453662 10.344664999999955
    vertex 99.62974319998953 107.7394117415202 12.64466499999996
    vertex 100.13982851342398 107.53244469453661 12.542647937313063
  endloop
endfacet
facet normal 0.4932700334796357 -0.8698762406635782 3.0091769049445445e-16
  outer loop
    vertex 100.62919562033214 84.09845461081743 12.444774515931442
    vertex 100.13982851342399 83.8463787885039 10.344664999999955
    vertex 100.62919562033214 84.09845461081744 10.344664999999955
  endloop
endfacet
facet normal 0.41737629482777955 -0.908733750069752 7.412894655731493e-16
  outer loop
    vertex 100.13982851342399 83.8463787885039 10.344664999999955
    vertex 100.62919562033214 84.09845461081743 12.444774515931442
    vertex 100.139828513424 83.84637878850391 12.542647937313069
  endloop
endfacet
facet normal 0.5698488350029033 -0.8217495392428487 4.620103848847509e-16
  outer loop
    vertex 101.0938652011326 84.39358943796817 12.351840599771348
    vertex 100.62919562033214 84.09845461081744 10.344664999999955
    vertex 101.09386520113259 84.39358943796815 10.344664999999955
  endloop
endfacet
facet normal 0.497541229021541 -0.8674403296041374 3.04418496430607e-16
  outer loop
    vertex 100.62919562033214 84.09845461081744 10.344664999999955
    vertex 101.0938652011326 84.39358943796817 12.351840599771348
    vertex 100.62919562033214 84.09845461081743 12.444774515931442
  endloop
endfacet
facet normal 0.0 1.0 0.0
  outer loop
    vertex 90.92974319998955 109.6894117415202 13.444664999999958
    vertex 95.62974319998955 109.6894117415202 10.344664999999955
    vertex 90.92974319998955 109.6894117415202 10.344664999999955
  endloop
endfacet
facet normal 0.0 1.0 0.0
  outer loop
    vertex 95.62974319998955 109.6894117415202 10.344664999999955
    vertex 90.92974319998955 109.6894117415202 13.444664999999958
    vertex 95.62974319998955 109.6894117415202 13.444664999999958
  endloop
endfacet
facet normal 0.6417949170139462 -0.7668763162955692 3.3816059927240247e-16
  outer loop
    vertex 101.53005876573964 84.72938336244269 12.264601886849938
    vertex 101.09386520113259 84.39358943796815 10.344664999999955
    vertex 101.53005876573964 84.72938336244269 10.344664999999955
  endloop
endfacet
facet normal 0.5736603752430811 -0.8190932632343936 4.764157702324356e-16
  outer loop
    vertex 101.09386520113259 84.39358943796815 10.344664999999955
    vertex 101.53005876573964 84.72938336244269 12.264601886849938
    vertex 101.0938652011326 84.39358943796817 12.351840599771348
  endloop
endfacet
facet normal 0.10266563425835334 0.9947159230364868 8.807786318749935e-16
  outer loop
    vertex 69.12974319998958 111.93941174152022 13.444664999999958
    vertex 90.92974319998955 109.6894117415202 10.344664999999955
    vertex 69.12974319998958 111.93941174152022 10.344664999999955
  endloop
endfacet
facet normal 0.10266563425835334 0.9947159230364868 8.807786318749935e-16
  outer loop
    vertex 90.92974319998955 109.6894117415202 10.344664999999955
    vertex 69.12974319998958 111.93941174152022 13.444664999999958
    vertex 90.92974319998955 109.6894117415202 13.444664999999958
  endloop
endfacet
facet normal 0.0 1.0 0.0
  outer loop
    vertex 52.12974319998957 111.93941174152022 16.444664999999954
    vertex 69.12974319998958 111.93941174152022 10.344664999999955
    vertex 52.12974319998957 111.93941174152022 10.344664999999955
  endloop
endfacet
facet normal 0.0 1.0 0.0
  outer loop
    vertex 69.12974319998958 111.93941174152022 10.344664999999955
    vertex 52.12974319998957 111.93941174152022 16.444664999999954
    vertex 64.32974319998957 111.93941174152022 13.444664999999954
  endloop
endfacet
facet normal 0.0 1.0 0.0
  outer loop
    vertex 64.32974319998957 111.93941174152022 13.444664999999954
    vertex 52.12974319998957 111.93941174152022 16.444664999999954
    vertex 64.32974319998957 111.93941174152022 16.444664999999954
  endloop
endfacet
facet normal 0.0 1.0 0.0
  outer loop
    vertex 69.12974319998958 111.93941174152022 13.444664999999958
    vertex 69.12974319998958 111.93941174152022 10.344664999999955
    vertex 64.32974319998957 111.93941174152022 13.444664999999954
  endloop
endfacet
facet normal -1.0 0.0 9.90548601061815e-18
  outer loop
    vertex 52.12974319998957 111.93941174152022 16.444664999999954
    vertex 52.12974319998957 107.3894117415202 10.344664999999955
    vertex 52.12974319998957 107.3894117415202 16.444664999999954
  endloop
endfacet
facet normal -1.0 0.0 9.90548601061815e-18
  outer loop
    vertex 52.12974319998957 107.3894117415202 10.344664999999955
    vertex 52.12974319998957 111.93941174152022 16.444664999999954
    vertex 52.12974319998957 111.93941174152022 10.344664999999955
  endloop
endfacet
facet normal 0.0 -1.0 1.9650999080188074e-19
  outer loop
    vertex 52.81721488478112 107.3894117415202 16.444664999999954
    vertex 52.12974319998957 107.3894117415202 10.344664999999955
    vertex 52.81721488478112 107.3894117415202 10.344664999999955
  endloop
endfacet
facet normal 0.0 -1.0 1.9650999080188074e-19
  outer loop
    vertex 52.12974319998957 107.3894117415202 10.344664999999955
    vertex 52.81721488478112 107.3894117415202 16.444664999999954
    vertex 52.12974319998957 107.3894117415202 16.444664999999954
  endloop
endfacet
facet normal -1.0 0.0 9.905486010618152e-18
  outer loop
    vertex 52.81721488478112 107.3894117415202 16.444664999999954
    vertex 52.81721488478112 83.9894117415202 10.344664999999955
    vertex 52.81721488478112 83.9894117415202 16.444664999999954
  endloop
endfacet
facet normal -1.0 0.0 9.905486010618152e-18
  outer loop
    vertex 52.81721488478112 83.9894117415202 10.344664999999955
    vertex 52.81721488478112 107.3894117415202 16.444664999999954
    vertex 52.81721488478112 107.3894117415202 10.344664999999955
  endloop
endfacet
facet normal 0.0 -1.0 0.0
  outer loop
    vertex 101.60281819998956 100.68941174152022 13.344664999999955
    vertex 100.21960611336979 100.68941174152022 12.52669241732391
    vertex 101.72476162659746 100.68941174152022 12.225661314678375
  endloop
endfacet
facet normal 0.0 -1.0 0.0
  outer loop
    vertex 62.629743199989576 108.0394117415202 10.344664999999956
    vertex 59.900405660172716 108.0394117415202 16.444664999999954
    vertex 59.900405660172716 108.0394117415202 10.344664999999955
  endloop
endfacet
facet normal 0.0 -1.0 0.0
  outer loop
    vertex 59.900405660172716 108.0394117415202 16.444664999999954
    vertex 62.629743199989576 108.0394117415202 10.344664999999956
    vertex 62.629743199989576 108.0394117415202 16.444664999999954
  endloop
endfacet
facet normal 1.0 0.0 0.0
  outer loop
    vertex 59.900405660172716 108.0394117415202 10.344664999999955
    vertex 59.900405660172716 83.3394117415202 16.444664999999954
    vertex 59.900405660172716 83.3394117415202 10.344664999999955
  endloop
endfacet
facet normal 1.0 0.0 0.0
  outer loop
    vertex 59.900405660172716 83.3394117415202 16.444664999999954
    vertex 59.900405660172716 108.0394117415202 10.344664999999955
    vertex 59.900405660172716 108.0394117415202 16.444664999999954
  endloop
endfacet
facet normal 0.0 1.0 0.0
  outer loop
    vertex 59.900405660172716 83.3394117415202 16.444664999999954
    vertex 62.629743199989576 83.3394117415202 10.344664999999955
    vertex 59.900405660172716 83.3394117415202 10.344664999999955
  endloop
endfacet
facet normal 0.0 1.0 0.0
  outer loop
    vertex 62.629743199989576 83.3394117415202 10.344664999999955
    vertex 59.900405660172716 83.3394117415202 16.444664999999954
    vertex 62.629743199989576 83.3394117415202 16.444664999999954
  endloop
endfacet
facet normal 0.5963771224206103 -0.8027043838508124 0.0
  outer loop
    vertex 66.45270188217759 82.80914408151585 16.444664999999954
    vertex 66.00461039699744 82.4379724412404 13.444664999999954
    vertex 66.45270188217759 82.80914408151585 13.444664999999954
  endloop
endfacet
facet normal 0.677668094970528 -0.7353679032015304 0.0
  outer loop
    vertex 66.00461039699744 82.4379724412404 13.444664999999954
    vertex 66.45270188217759 82.80914408151585 16.444664999999954
    vertex 66.00461039699744 82.4379724412404 16.444664999999954
  endloop
endfacet
facet normal 0.677668094970528 -0.7353679032015304 0.0
  outer loop
    vertex 66.00461039699744 82.4379724412404 13.444664999999954
    vertex 65.598140733636 82.02163510397307 16.444664999999954
    vertex 65.598140733636 82.02163510397307 13.444664999999954
  endloop
endfacet
facet normal 0.7514082023809029 -0.659837641692788 0.0
  outer loop
    vertex 65.598140733636 82.02163510397307 16.444664999999954
    vertex 66.00461039699744 82.4379724412404 13.444664999999954
    vertex 66.00461039699744 82.4379724412404 16.444664999999954
  endloop
endfacet
facet normal 0.16327708753955275 0.9865802515176356 8.313737115212229e-17
  outer loop
    vertex 99.62974319998953 104.36810251597811 16.444664999999958
    vertex 100.16673511182317 104.27923141272865 13.444664999999958
    vertex 99.62974319998953 104.36810251597811 13.444664999999958
  endloop
endfacet
facet normal 0.22327789473122603 0.9747548315983828 7.948436672880721e-17
  outer loop
    vertex 100.16673511182317 104.27923141272865 13.444664999999958
    vertex 99.62974319998953 104.36810251597811 16.444664999999958
    vertex 100.16673511182317 104.27923141272865 16.444664999999958
  endloop
endfacet
facet normal 0.22327789473122603 0.9747548315983828 7.948436672880721e-17
  outer loop
    vertex 100.16673511182317 104.27923141272865 16.444664999999958
    vertex 100.68886971676791 104.12549839517317 13.444664999999958
    vertex 100.16673511182317 104.27923141272865 13.444664999999958
  endloop
endfacet
facet normal 0.3405530968072724 0.9402252859049137 7.130133197615278e-17
  outer loop
    vertex 100.68886971676791 104.12549839517317 13.444664999999958
    vertex 100.16673511182317 104.27923141272865 16.444664999999958
    vertex 100.68886971676791 104.12549839517317 16.444664999999958
  endloop
endfacet
facet normal 0.3405530968072724 0.9402252859049137 7.130133197615278e-17
  outer loop
    vertex 100.68886971676791 104.12549839517317 16.444664999999958
    vertex 101.18834331500027 103.90920112048777 13.444664999999958
    vertex 100.68886971676791 104.12549839517317 13.444664999999958
  endloop
endfacet
facet normal 0.4527384731635369 0.8916433563468914 6.205264444644187e-17
  outer loop
    vertex 101.18834331500027 103.90920112048777 13.444664999999958
    vertex 100.68886971676791 104.12549839517317 16.444664999999958
    vertex 101.18834331500027 103.90920112048777 16.444664999999958
  endloop
endfacet
facet normal 0.4527384731635369 0.8916433563468914 6.205264444644187e-17
  outer loop
    vertex 101.18834331500027 103.90920112048777 16.444664999999958
    vertex 101.65769089272219 103.63357231637961 13.444664999999958
    vertex 101.18834331500027 103.90920112048777 13.444664999999958
  endloop
endfacet
facet normal 0.5581573278036496 0.8297351369076094 5.187653282737344e-17
  outer loop
    vertex 101.65769089272219 103.63357231637961 13.444664999999958
    vertex 101.18834331500027 103.90920112048777 16.444664999999958
    vertex 101.65769089272219 103.63357231637961 16.444664999999958
  endloop
endfacet
facet normal 0.5581573278036496 0.8297351369076094 5.187653282737344e-17
  outer loop
    vertex 101.65769089272219 103.63357231637961 16.444664999999958
    vertex 102.08989769248466 103.30273146550628 13.444664999999958
    vertex 101.65769089272219 103.63357231637961 13.444664999999958
  endloop
endfacet
facet normal 0.6552340955581047 0.7554258931345633 4.0925086866865633e-17
  outer loop
    vertex 102.08989769248466 103.30273146550628 13.444664999999958
    vertex 101.65769089272219 103.63357231637961 16.444664999999958
    vertex 102.08989769248466 103.30273146550628 16.444664999999958
  endloop
endfacet
facet normal 0.7514082023809029 -0.659837641692788 0.0
  outer loop
    vertex 65.598140733636 82.02163510397307 13.444664999999954
    vertex 65.23782194936318 81.56477107678788 16.444664999999954
    vertex 65.23782194936318 81.56477107678788 13.444664999999954
  endloop
endfacet
facet normal 0.8167758011202221 -0.576955189511646 0.0
  outer loop
    vertex 65.23782194936318 81.56477107678788 16.444664999999954
    vertex 65.598140733636 82.02163510397307 13.444664999999954
    vertex 65.598140733636 82.02163510397307 16.444664999999954
  endloop
endfacet
facet normal 0.6552340955581047 0.7554258931345633 4.0925086866865633e-17
  outer loop
    vertex 102.08989769248466 103.30273146550628 13.444664999999958
    vertex 102.4785040540869 102.921623236666 16.444664999999954
    vertex 102.4785040540869 102.921623236666 13.444664999999954
  endloop
endfacet
facet normal 0.7425178901071503 0.6698262333402791 2.9361984275797504e-17
  outer loop
    vertex 102.4785040540869 102.921623236666 16.444664999999954
    vertex 102.08989769248466 103.30273146550628 13.444664999999958
    vertex 102.08989769248466 103.30273146550628 16.444664999999958
  endloop
endfacet
facet normal 0.9558740244385014 -0.2937768700965812 0.0
  outer loop
    vertex 64.4710857729178 80.00383768237856 13.444664999999954
    vertex 64.32974319998962 79.43941174152023 16.444664999999954
    vertex 64.32974319998962 79.43941174152023 13.444664999999954
  endloop
endfacet
facet normal 0.9700469542531014 -0.24291748916922695 0.0
  outer loop
    vertex 64.32974319998962 79.43941174152023 16.444664999999954
    vertex 64.4710857729178 80.00383768237856 13.444664999999954
    vertex 64.4710857729178 80.00383768237856 16.444664999999954
  endloop
endfacet
facet normal 0.5090152446185743 0.0 -0.8607575040311255
  outer loop
    vertex 100.21960611336979 100.68941174152022 12.52669241732391
    vertex 96.52974319998954 90.6894117415202 10.344664999999955
    vertex 96.52974319998954 100.68941174152022 10.344664999999955
  endloop
endfacet
facet normal 0.5090152446185743 0.0 -0.8607575040311255
  outer loop
    vertex 96.52974319998954 90.6894117415202 10.344664999999955
    vertex 100.21960611336979 100.68941174152022 12.52669241732391
    vertex 100.21960611336979 90.6894117415202 12.52669241732391
  endloop
endfacet
facet normal 0.5090152446185743 0.0 -0.8607575040311255
  outer loop
    vertex 100.21960611336979 90.6894117415202 12.52669241732391
    vertex 100.21960611336979 100.68941174152022 12.52669241732391
    vertex 101.60281819998956 100.68941174152022 13.344664999999955
  endloop
endfacet
facet normal 0.5090152446185743 0.0 -0.8607575040311255
  outer loop
    vertex 100.21960611336979 90.6894117415202 12.52669241732391
    vertex 101.60281819998956 100.68941174152022 13.344664999999955
    vertex 101.60281819998956 90.6894117415202 13.344664999999955
  endloop
endfacet
facet normal 0.0 -1.0 0.0
  outer loop
    vertex 96.52974319998955 100.68941174152022 13.264664999999958
    vertex 96.52974319998954 100.68941174152022 10.344664999999955
    vertex 100.21960611336979 100.68941174152022 12.52669241732391
  endloop
endfacet
facet normal 0.873042537697257 -0.48764405807016026 0.0
  outer loop
    vertex 64.92766886879171 81.07247093231474 13.444664999999954
    vertex 64.67113734900221 80.55022008742282 16.444664999999954
    vertex 64.67113734900221 80.55022008742282 13.444664999999954
  endloop
endfacet
facet normal 0.9195814642851462 -0.3928993898483254 0.0
  outer loop
    vertex 64.67113734900221 80.55022008742282 16.444664999999954
    vertex 64.92766886879171 81.07247093231474 13.444664999999954
    vertex 64.92766886879171 81.07247093231474 16.444664999999954
  endloop
endfacet
facet normal 0.9195814642851462 -0.3928993898483254 0.0
  outer loop
    vertex 64.67113734900221 80.55022008742282 13.444664999999954
    vertex 64.4710857729178 80.00383768237856 16.444664999999954
    vertex 64.4710857729178 80.00383768237856 13.444664999999954
  endloop
endfacet
facet normal 0.9558740244385014 -0.2937768700965812 0.0
  outer loop
    vertex 64.4710857729178 80.00383768237856 16.444664999999954
    vertex 64.67113734900221 80.55022008742282 13.444664999999954
    vertex 64.67113734900221 80.55022008742282 16.444664999999954
  endloop
endfacet
facet normal 0.8167758011202221 -0.576955189511646 0.0
  outer loop
    vertex 65.23782194936318 81.56477107678788 13.444664999999954
    vertex 64.92766886879171 81.07247093231474 16.444664999999954
    vertex 64.92766886879171 81.07247093231474 13.444664999999954
  endloop
endfacet
facet normal 0.873042537697257 -0.48764405807016026 0.0
  outer loop
    vertex 64.92766886879171 81.07247093231474 16.444664999999954
    vertex 65.23782194936318 81.56477107678788 13.444664999999954
    vertex 65.23782194936318 81.56477107678788 16.444664999999954
  endloop
endfacet
facet normal 0.7425178901071504 0.669826233340279 2.9361984275797485e-17
  outer loop
    vertex 102.4785040540869 102.921623236666 13.444664999999954
    vertex 102.81770195912384 102.49594358295201 16.444664999999954
    vertex 102.81770195912384 102.49594358295201 13.444664999999954
  endloop
endfacet
facet normal 0.8187041885831896 0.5742155097142022 1.73600444398097e-17
  outer loop
    vertex 102.81770195912384 102.49594358295201 16.444664999999954
    vertex 102.4785040540869 102.921623236666 13.444664999999954
    vertex 102.4785040540869 102.921623236666 16.444664999999954
  endloop
endfacet
facet normal 0.0 1.0 0.0
  outer loop
    vertex 101.72476162659746 90.6894117415202 12.225661314678375
    vertex 101.92974319998955 90.6894117415202 12.18466499999996
    vertex 101.92974319998955 90.6894117415202 10.344664999999955
  endloop
endfacet
facet normal 0.0 1.0 0.0
  outer loop
    vertex 101.72476162659746 90.6894117415202 12.225661314678375
    vertex 101.92974319998955 90.6894117415202 13.344664999999955
    vertex 101.92974319998955 90.6894117415202 12.18466499999996
  endloop
endfacet
facet normal 0.0 1.0 0.0
  outer loop
    vertex 101.92974319998955 90.6894117415202 13.344664999999955
    vertex 101.72476162659746 90.6894117415202 12.225661314678375
    vertex 101.60281819998956 90.6894117415202 13.344664999999955
  endloop
endfacet
facet normal 0.882654328659775 0.4700226974287113 5.098645501808741e-18
  outer loop
    vertex 103.10242183625009 102.03205461139014 13.444664999999954
    vertex 103.32840832978951 101.53688949639792 16.444664999999954
    vertex 103.32840832978951 101.53688949639792 13.444664999999954
  endloop
endfacet
facet normal 0.9334125267284392 0.35880503751540427 -7.238956581175581e-18
  outer loop
    vertex 103.32840832978951 101.53688949639792 16.444664999999954
    vertex 103.10242183625009 102.03205461139014 13.444664999999954
    vertex 103.10242183625009 102.03205461139014 16.444664999999954
  endloop
endfacet
facet normal 0.8187041885831441 -0.5742155097142675 -8.756532005168252e-17
  outer loop
    vertex 102.81770195912384 88.88287990008834 13.44466499999995
    vertex 102.4785040540869 88.45720024637451 16.44466499999995
    vertex 102.4785040540869 88.45720024637451 13.44466499999995
  endloop
endfacet
facet normal 0.7425178901071293 -0.6698262333403022 -9.303415530979233e-17
  outer loop
    vertex 102.4785040540869 88.45720024637451 16.44466499999995
    vertex 102.81770195912384 88.88287990008834 13.44466499999995
    vertex 102.81770195912384 88.88287990008834 16.44466499999995
  endloop
endfacet
facet normal 0.9334125267284393 0.35880503751540405 -7.238956581175601e-18
  outer loop
    vertex 103.32840832978951 101.53688949639792 13.444664999999954
    vertex 103.49228389927066 101.01784885820594 16.44466499999995
    vertex 103.49228389927066 101.01784885820594 13.44466499999995
  endloop
endfacet
facet normal 0.9702201628135111 0.24222476271043028 -1.946836693800589e-17
  outer loop
    vertex 103.49228389927066 101.01784885820594 16.44466499999995
    vertex 103.32840832978951 101.53688949639792 13.444664999999954
    vertex 103.32840832978951 101.53688949639792 16.444664999999954
  endloop
endfacet
facet normal 0.7425178901071293 -0.6698262333403022 -9.303415530979233e-17
  outer loop
    vertex 102.4785040540869 88.45720024637451 16.44466499999995
    vertex 102.08989769248466 88.07609201753414 13.444664999999958
    vertex 102.4785040540869 88.45720024637451 13.44466499999995
  endloop
endfacet
facet normal 0.6552340955581247 -0.755425893134546 -9.711252417380878e-17
  outer loop
    vertex 102.08989769248466 88.07609201753414 13.444664999999958
    vertex 102.4785040540869 88.45720024637451 16.44466499999995
    vertex 102.08989769248466 88.07609201753414 16.444664999999958
  endloop
endfacet
facet normal 0.5084410632013602 -0.861096792033666 0.0
  outer loop
    vertex 66.93742236392788 83.13101427306485 16.444664999999954
    vertex 66.45270188217759 82.80914408151585 13.444664999999954
    vertex 66.93742236392788 83.13101427306485 13.444664999999954
  endloop
endfacet
facet normal 0.5963771224206103 -0.8027043838508124 0.0
  outer loop
    vertex 66.45270188217759 82.80914408151585 13.444664999999954
    vertex 66.93742236392788 83.13101427306485 16.444664999999954
    vertex 66.45270188217759 82.80914408151585 16.444664999999954
  endloop
endfacet
facet normal 0.6552340955581244 -0.7554258931345462 -9.711252417380881e-17
  outer loop
    vertex 102.08989769248466 88.07609201753414 16.444664999999958
    vertex 101.65769089272219 87.74525116666085 13.444664999999958
    vertex 102.08989769248466 88.07609201753414 13.444664999999958
  endloop
endfacet
facet normal 0.5581573278036669 -0.8297351369075979 -9.97394723111104e-17
  outer loop
    vertex 101.65769089272219 87.74525116666085 13.444664999999958
    vertex 102.08989769248466 88.07609201753414 16.444664999999958
    vertex 101.65769089272219 87.74525116666085 16.444664999999958
  endloop
endfacet
facet normal 0.5581573278036669 -0.8297351369075979 -9.97394723111104e-17
  outer loop
    vertex 101.65769089272219 87.74525116666085 16.444664999999958
    vertex 101.18834331500027 87.46962236255263 13.444664999999958
    vertex 101.65769089272219 87.74525116666085 13.444664999999958
  endloop
endfacet
facet normal 0.4527384731635677 -0.8916433563468756 -1.0087573797860962e-16
  outer loop
    vertex 101.18834331500027 87.46962236255263 13.444664999999958
    vertex 101.65769089272219 87.74525116666085 16.444664999999958
    vertex 101.18834331500027 87.46962236255263 16.444664999999958
  endloop
endfacet
facet normal 0.9919723250895096 0.1264551551203522 -3.097819518232602e-17
  outer loop
    vertex 103.59159929934468 100.48269015494526 13.44466499999995
    vertex 103.62974319998956 99.93941174152019 16.444664999999954
    vertex 103.62974319998956 99.93941174152019 13.444664999999954
  endloop
endfacet
facet normal 0.9975443114943051 0.07003817962620597 -3.637158492637774e-17
  outer loop
    vertex 103.62974319998956 99.93941174152019 16.444664999999954
    vertex 103.59159929934468 100.48269015494526 13.44466499999995
    vertex 103.59159929934468 100.48269015494526 16.44466499999995
  endloop
endfacet
facet normal 0.4527384731635677 -0.8916433563468756 -1.0087573797860962e-16
  outer loop
    vertex 101.18834331500027 87.46962236255263 16.444664999999958
    vertex 100.68886971676791 87.25332508786725 13.444664999999958
    vertex 101.18834331500027 87.46962236255263 13.444664999999958
  endloop
endfacet
facet normal 0.3405530968072732 -0.9402252859049134 -1.005043388194488e-16
  outer loop
    vertex 100.68886971676791 87.25332508786725 13.444664999999958
    vertex 101.18834331500027 87.46962236255263 16.444664999999958
    vertex 100.68886971676791 87.25332508786725 16.444664999999958
  endloop
endfacet
facet normal 0.8187041885831896 0.5742155097142022 1.73600444398097e-17
  outer loop
    vertex 102.81770195912384 102.49594358295201 13.444664999999954
    vertex 103.10242183625009 102.03205461139014 16.444664999999954
    vertex 103.10242183625009 102.03205461139014 13.444664999999954
  endloop
endfacet
facet normal 0.882654328659775 0.4700226974287113 5.098645501808741e-18
  outer loop
    vertex 103.10242183625009 102.03205461139014 16.444664999999954
    vertex 102.81770195912384 102.49594358295201 13.444664999999954
    vertex 102.81770195912384 102.49594358295201 16.444664999999954
  endloop
endfacet
facet normal 0.3405530968072732 -0.9402252859049134 -1.005043388194488e-16
  outer loop
    vertex 100.68886971676791 87.25332508786725 16.444664999999958
    vertex 100.16673511182317 87.09959207031174 13.444664999999958
    vertex 100.68886971676791 87.25332508786725 13.444664999999958
  endloop
endfacet
facet normal 0.2232778947312454 -0.9747548315983784 -9.863082567727165e-17
  outer loop
    vertex 100.16673511182317 87.09959207031174 13.444664999999958
    vertex 100.68886971676791 87.25332508786725 16.444664999999958
    vertex 100.16673511182317 87.09959207031174 16.444664999999958
  endloop
endfacet
facet normal 0.9919723250895097 -0.12645515512035185 -5.408511761539391e-17
  outer loop
    vertex 103.59159929934468 90.89613332809515 13.444664999999945
    vertex 103.49228389927066 90.36097462483444 16.444664999999947
    vertex 103.49228389927066 90.36097462483444 13.444664999999945
  endloop
endfacet
facet normal 0.9702201628135039 -0.2422247627104589 -6.372966097533911e-17
  outer loop
    vertex 103.49228389927066 90.36097462483444 16.444664999999947
    vertex 103.59159929934468 90.89613332809515 13.444664999999945
    vertex 103.59159929934468 90.89613332809515 16.444664999999947
  endloop
endfacet
facet normal 0.41483973815563924 -0.9098944947887972 0.0
  outer loop
    vertex 67.45337088119445 83.39999660178967 16.444664999999954
    vertex 66.93742236392788 83.13101427306485 13.444664999999954
    vertex 67.45337088119445 83.39999660178967 13.444664999999954
  endloop
endfacet
facet normal 0.5084410632013602 -0.861096792033666 0.0
  outer loop
    vertex 66.93742236392788 83.13101427306485 13.444664999999954
    vertex 67.45337088119445 83.39999660178967 16.444664999999954
    vertex 66.93742236392788 83.13101427306485 16.444664999999954
  endloop
endfacet
facet normal 0.9702201628135111 0.2422247627104301 -1.946836693800591e-17
  outer loop
    vertex 103.49228389927066 101.01784885820594 13.44466499999995
    vertex 103.59159929934468 100.48269015494526 16.44466499999995
    vertex 103.59159929934468 100.48269015494526 13.44466499999995
  endloop
endfacet
facet normal 0.9919723250895096 0.12645515512035196 -3.097819518232603e-17
  outer loop
    vertex 103.59159929934468 100.48269015494526 16.44466499999995
    vertex 103.49228389927066 101.01784885820594 13.44466499999995
    vertex 103.49228389927066 101.01784885820594 16.44466499999995
  endloop
endfacet
facet normal 0.9702201628135041 -0.24222476271045854 -6.372966097533906e-17
  outer loop
    vertex 103.49228389927066 90.36097462483444 13.444664999999945
    vertex 103.32840832978951 89.84193398664257 16.44466499999995
    vertex 103.32840832978951 89.84193398664257 13.44466499999995
  endloop
endfacet
facet normal 0.9334125267284451 -0.3588050375153893 -7.280275398090663e-17
  outer loop
    vertex 103.32840832978951 89.84193398664257 16.44466499999995
    vertex 103.49228389927066 90.36097462483444 13.444664999999945
    vertex 103.49228389927066 90.36097462483444 16.444664999999947
  endloop
endfacet
facet normal 0.2232778947312454 -0.9747548315983784 -9.863082567727165e-17
  outer loop
    vertex 100.16673511182317 87.09959207031174 16.444664999999958
    vertex 99.62974319998953 87.01072096706228 13.444664999999958
    vertex 100.16673511182317 87.09959207031174 13.444664999999958
  endloop
endfacet
facet normal 0.16327708753955275 -0.9865802515176356 -9.71386589086375e-17
  outer loop
    vertex 99.62974319998953 87.01072096706228 13.444664999999958
    vertex 100.16673511182317 87.09959207031174 16.444664999999958
    vertex 99.62974319998953 87.01072096706228 16.444664999999958
  endloop
endfacet
facet normal 0.9334125267284453 -0.358805037515389 -7.280275398090663e-17
  outer loop
    vertex 103.32840832978951 89.84193398664257 13.44466499999995
    vertex 103.10242183625009 89.34676887165024 16.44466499999995
    vertex 103.10242183625009 89.34676887165024 13.44466499999995
  endloop
endfacet
facet normal 0.8826543286598024 -0.4700226974286599 -8.078775431265139e-17
  outer loop
    vertex 103.10242183625009 89.34676887165024 16.44466499999995
    vertex 103.32840832978951 89.84193398664257 13.44466499999995
    vertex 103.32840832978951 89.84193398664257 16.44466499999995
  endloop
endfacet
facet normal -1.0 0.0 0.0
  outer loop
    vertex 101.92974319998955 100.68941174152022 13.444664999999954
    vertex 101.92974319998955 90.6894117415202 13.344664999999955
    vertex 101.92974319998955 90.6894117415202 13.444664999999954
  endloop
endfacet
facet normal -1.0 0.0 0.0
  outer loop
    vertex 101.92974319998955 90.6894117415202 13.344664999999955
    vertex 101.92974319998955 100.68941174152022 13.444664999999954
    vertex 101.92974319998955 100.68941174152022 13.344664999999955
  endloop
endfacet
facet normal 0.9975443114943051 -0.07003817962620888 -4.916953517550591e-17
  outer loop
    vertex 103.62974319998956 91.43941174152019 13.44466499999995
    vertex 103.59159929934468 90.89613332809515 16.444664999999947
    vertex 103.59159929934468 90.89613332809515 13.444664999999945
  endloop
endfacet
facet normal 0.9919723250895098 -0.12645515512035146 -5.408511761539389e-17
  outer loop
    vertex 103.59159929934468 90.89613332809515 16.444664999999947
    vertex 103.62974319998956 91.43941174152019 13.44466499999995
    vertex 103.62974319998956 91.43941174152019 16.44466499999995
  endloop
endfacet
facet normal 0.8826543286598024 -0.4700226974286599 -8.078775431265139e-17
  outer loop
    vertex 103.10242183625009 89.34676887165024 13.44466499999995
    vertex 102.81770195912384 88.88287990008834 16.44466499999995
    vertex 102.81770195912384 88.88287990008834 13.44466499999995
  endloop
endfacet
facet normal 0.8187041885831441 -0.5742155097142675 -8.756532005168252e-17
  outer loop
    vertex 102.81770195912384 88.88287990008834 16.44466499999995
    vertex 103.10242183625009 89.34676887165024 13.44466499999995
    vertex 103.10242183625009 89.34676887165024 16.44466499999995
  endloop
endfacet
facet normal 4.287584978242431e-17 -9.136409824920223e-17 1.0
  outer loop
    vertex 74.41289853306913 84.40806498079756 16.444664999999954
    vertex 69.12974319998958 84.51603829579463 16.444664999999954
    vertex 69.12974319998958 83.86278518724578 16.444664999999954
  endloop
endfacet
facet normal 4.287584978242431e-17 -9.136409824920223e-17 1.0
  outer loop
    vertex 69.12974319998958 84.51603829579463 16.444664999999954
    vertex 74.41289853306913 84.40806498079756 16.444664999999954
    vertex 69.12974319998958 107.51603829579463 16.444664999999954
  endloop
endfacet
facet normal 4.287584978242431e-17 -9.136409824920223e-17 1.0
  outer loop
    vertex 69.12974319998958 107.51603829579463 16.444664999999954
    vertex 74.41289853306913 84.40806498079756 16.444664999999954
    vertex 99.62974319998953 104.36810251597811 16.444664999999958
  endloop
endfacet
facet normal 4.287584978242431e-17 -9.136409824920223e-17 1.0
  outer loop
    vertex 99.62974319998953 104.36810251597811 16.444664999999958
    vertex 74.41289853306913 84.40806498079756 16.444664999999954
    vertex 99.62974319998953 87.01072096706228 16.444664999999958
  endloop
endfacet
facet normal 4.287584978242431e-17 -9.136409824920223e-17 1.0
  outer loop
    vertex 99.62974319998953 104.36810251597811 16.444664999999958
    vertex 99.62974319998953 87.01072096706228 16.444664999999958
    vertex 100.16673511182317 87.09959207031174 16.444664999999958
  endloop
endfacet
facet normal 4.287584978242431e-17 -9.136409824920223e-17 1.0
  outer loop
    vertex 99.62974319998953 104.36810251597811 16.444664999999958
    vertex 100.16673511182317 87.09959207031174 16.444664999999958
    vertex 100.16673511182317 104.27923141272865 16.444664999999958
  endloop
endfacet
facet normal 4.287584978242431e-17 -9.136409824920223e-17 1.0
  outer loop
    vertex 100.16673511182317 104.27923141272865 16.444664999999958
    vertex 100.16673511182317 87.09959207031174 16.444664999999958
    vertex 100.68886971676791 87.25332508786725 16.444664999999958
  endloop
endfacet
facet normal 4.287584978242431e-17 -9.136409824920223e-17 1.0
  outer loop
    vertex 100.16673511182317 104.27923141272865 16.444664999999958
    vertex 100.68886971676791 87.25332508786725 16.444664999999958
    vertex 100.68886971676791 104.12549839517317 16.444664999999958
  endloop
endfacet
facet normal 4.287584978242431e-17 -9.136409824920223e-17 1.0
  outer loop
    vertex 100.68886971676791 104.12549839517317 16.444664999999958
    vertex 100.68886971676791 87.25332508786725 16.444664999999958
    vertex 101.18834331500027 87.46962236255263 16.444664999999958
  endloop
endfacet
facet normal 4.287584978242431e-17 -9.136409824920223e-17 1.0
  outer loop
    vertex 100.68886971676791 104.12549839517317 16.444664999999958
    vertex 101.18834331500027 87.46962236255263 16.444664999999958
    vertex 101.18834331500027 103.90920112048777 16.444664999999958
  endloop
endfacet
facet normal 4.287584978242431e-17 -9.136409824920223e-17 1.0
  outer loop
    vertex 101.18834331500027 103.90920112048777 16.444664999999958
    vertex 101.18834331500027 87.46962236255263 16.444664999999958
    vertex 101.65769089272219 87.74525116666085 16.444664999999958
  endloop
endfacet
facet normal 4.287584978242431e-17 -9.136409824920223e-17 1.0
  outer loop
    vertex 101.18834331500027 103.90920112048777 16.444664999999958
    vertex 101.65769089272219 87.74525116666085 16.444664999999958
    vertex 101.65769089272219 103.63357231637961 16.444664999999958
  endloop
endfacet
facet normal 4.287584978242431e-17 -9.136409824920223e-17 1.0
  outer loop
    vertex 101.65769089272219 103.63357231637961 16.444664999999958
    vertex 101.65769089272219 87.74525116666085 16.444664999999958
    vertex 102.08989769248466 88.07609201753414 16.444664999999958
  endloop
endfacet
facet normal 4.287584978242431e-17 -9.136409824920223e-17 1.0
  outer loop
    vertex 101.65769089272219 103.63357231637961 16.444664999999958
    vertex 102.08989769248466 88.07609201753414 16.444664999999958
    vertex 102.08989769248466 103.30273146550628 16.444664999999958
  endloop
endfacet
facet normal 4.287584978242431e-17 -9.136409824920223e-17 1.0
  outer loop
    vertex 102.08989769248466 103.30273146550628 16.444664999999958
    vertex 102.08989769248466 88.07609201753414 16.444664999999958
    vertex 102.4785040540869 88.45720024637451 16.44466499999995
  endloop
endfacet
facet normal 4.287584978242431e-17 -9.136409824920223e-17 1.0
  outer loop
    vertex 102.08989769248466 103.30273146550628 16.444664999999958
    vertex 102.4785040540869 88.45720024637451 16.44466499999995
    vertex 102.4785040540869 102.921623236666 16.444664999999954
  endloop
endfacet
facet normal 4.287584978242431e-17 -9.136409824920223e-17 1.0
  outer loop
    vertex 102.4785040540869 102.921623236666 16.444664999999954
    vertex 102.4785040540869 88.45720024637451 16.44466499999995
    vertex 102.81770195912384 88.88287990008834 16.44466499999995
  endloop
endfacet
facet normal 4.287584978242431e-17 -9.136409824920223e-17 1.0
  outer loop
    vertex 102.4785040540869 102.921623236666 16.444664999999954
    vertex 102.81770195912384 88.88287990008834 16.44466499999995
    vertex 102.81770195912384 102.49594358295201 16.444664999999954
  endloop
endfacet
facet normal 4.287584978242431e-17 -9.136409824920223e-17 1.0
  outer loop
    vertex 102.81770195912384 102.49594358295201 16.444664999999954
    vertex 102.81770195912384 88.88287990008834 16.44466499999995
    vertex 103.10242183625009 89.34676887165024 16.44466499999995
  endloop
endfacet
facet normal 4.287584978242431e-17 -9.136409824920223e-17 1.0
  outer loop
    vertex 102.81770195912384 102.49594358295201 16.444664999999954
    vertex 103.10242183625009 89.34676887165024 16.44466499999995
    vertex 103.10242183625009 102.03205461139014 16.444664999999954
  endloop
endfacet
facet normal 4.287584978242431e-17 -9.136409824920223e-17 1.0
  outer loop
    vertex 103.10242183625009 102.03205461139014 16.444664999999954
    vertex 103.10242183625009 89.34676887165024 16.44466499999995
    vertex 103.32840832978951 89.84193398664257 16.44466499999995
  endloop
endfacet
facet normal 4.287584978242431e-17 -9.136409824920223e-17 1.0
  outer loop
    vertex 103.10242183625009 102.03205461139014 16.444664999999954
    vertex 103.32840832978951 89.84193398664257 16.44466499999995
    vertex 103.32840832978951 101.53688949639792 16.444664999999954
  endloop
endfacet
facet normal 4.287584978242431e-17 -9.136409824920223e-17 1.0
  outer loop
    vertex 103.32840832978951 101.53688949639792 16.444664999999954
    vertex 103.32840832978951 89.84193398664257 16.44466499999995
    vertex 103.49228389927066 90.36097462483444 16.444664999999947
  endloop
endfacet
facet normal 4.287584978242431e-17 -9.136409824920223e-17 1.0
  outer loop
    vertex 103.32840832978951 101.53688949639792 16.444664999999954
    vertex 103.49228389927066 90.36097462483444 16.444664999999947
    vertex 103.49228389927066 101.01784885820594 16.44466499999995
  endloop
endfacet
facet normal 4.287584978242431e-17 -9.136409824920223e-17 1.0
  outer loop
    vertex 103.49228389927066 101.01784885820594 16.44466499999995
    vertex 103.49228389927066 90.36097462483444 16.444664999999947
    vertex 103.59159929934468 90.89613332809515 16.444664999999947
  endloop
endfacet
facet normal 4.287584978242431e-17 -9.136409824920223e-17 1.0
  outer loop
    vertex 103.49228389927066 101.01784885820594 16.44466499999995
    vertex 103.59159929934468 90.89613332809515 16.444664999999947
    vertex 103.59159929934468 100.48269015494526 16.44466499999995
  endloop
endfacet
facet normal 4.287584978242431e-17 -9.136409824920223e-17 1.0
  outer loop
    vertex 103.59159929934468 100.48269015494526 16.44466499999995
    vertex 103.59159929934468 90.89613332809515 16.444664999999947
    vertex 103.62974319998956 91.43941174152019 16.44466499999995
  endloop
endfacet
facet normal 4.287584978242431e-17 -9.136409824920223e-17 1.0
  outer loop
    vertex 103.59159929934468 100.48269015494526 16.44466499999995
    vertex 103.62974319998956 91.43941174152019 16.44466499999995
    vertex 103.62974319998956 99.93941174152019 16.444664999999954
  endloop
endfacet
facet normal 0.3166160929201684 -0.9485537674291149 0.0
  outer loop
    vertex 67.99479851691612 83.613093952577 16.444664999999954
    vertex 67.45337088119445 83.39999660178967 13.444664999999954
    vertex 67.99479851691612 83.613093952577 13.444664999999954
  endloop
endfacet
facet normal 0.41483973815563924 -0.9098944947887972 0.0
  outer loop
    vertex 67.45337088119445 83.39999660178967 13.444664999999954
    vertex 67.99479851691612 83.613093952577 16.444664999999954
    vertex 67.45337088119445 83.39999660178967 16.444664999999954
  endloop
endfacet
facet normal 0.2148645769814463 -0.9766438519535072 0.0
  outer loop
    vertex 68.5556724548947 83.76793190442478 16.444664999999954
    vertex 67.99479851691612 83.613093952577 13.444664999999954
    vertex 68.5556724548947 83.76793190442478 13.444664999999954
  endloop
endfacet
facet normal 0.3166160929201684 -0.9485537674291149 0.0
  outer loop
    vertex 67.99479851691612 83.613093952577 13.444664999999954
    vertex 68.5556724548947 83.76793190442478 16.444664999999954
    vertex 67.99479851691612 83.613093952577 16.444664999999954
  endloop
endfacet
facet normal 0.16301897457352846 -0.9866229340173456 0.0
  outer loop
    vertex 69.12974319998958 83.86278518724578 16.444664999999954
    vertex 68.5556724548947 83.76793190442478 13.444664999999954
    vertex 69.12974319998958 83.86278518724578 13.444664999999954
  endloop
endfacet
facet normal 0.2148645769814463 -0.9766438519535072 0.0
  outer loop
    vertex 68.5556724548947 83.76793190442478 13.444664999999954
    vertex 69.12974319998958 83.86278518724578 16.444664999999954
    vertex 68.5556724548947 83.76793190442478 16.444664999999954
  endloop
endfacet
facet normal 0.2148645769814142 0.9766438519535144 0.0
  outer loop
    vertex 68.55567245489456 107.6108915786157 16.444664999999954
    vertex 69.12974319998958 107.51603829579463 13.444664999999954
    vertex 68.55567245489456 107.6108915786157 13.444664999999954
  endloop
endfacet
facet normal 0.1630189745736389 0.9866229340173273 0.0
  outer loop
    vertex 69.12974319998958 107.51603829579463 13.444664999999954
    vertex 68.55567245489456 107.6108915786157 16.444664999999954
    vertex 69.12974319998958 107.51603829579463 16.444664999999954
  endloop
endfacet
facet normal 0.31661609292020415 0.948553767429103 0.0
  outer loop
    vertex 67.99479851691608 107.76572953046336 16.444664999999954
    vertex 68.55567245489456 107.6108915786157 13.444664999999954
    vertex 67.99479851691608 107.76572953046336 13.444664999999954
  endloop
endfacet
facet normal 0.2148645769814142 0.9766438519535144 0.0
  outer loop
    vertex 68.55567245489456 107.6108915786157 13.444664999999954
    vertex 67.99479851691608 107.76572953046336 16.444664999999954
    vertex 68.55567245489456 107.6108915786157 16.444664999999954
  endloop
endfacet
facet normal 0.414839738155726 0.909894494788758 0.0
  outer loop
    vertex 67.45337088119435 107.97882688125088 16.444664999999954
    vertex 67.99479851691608 107.76572953046336 13.444664999999954
    vertex 67.45337088119435 107.97882688125088 13.444664999999954
  endloop
endfacet
facet normal 0.31661609292020415 0.948553767429103 0.0
  outer loop
    vertex 67.99479851691608 107.76572953046336 13.444664999999954
    vertex 67.45337088119435 107.97882688125088 16.444664999999954
    vertex 67.99479851691608 107.76572953046336 16.444664999999954
  endloop
endfacet
facet normal 0.508441063201171 0.8610967920337776 0.0
  outer loop
    vertex 66.9374223639277 108.2478092099757 16.444664999999954
    vertex 67.45337088119435 107.97882688125088 13.444664999999954
    vertex 66.9374223639277 108.2478092099757 13.444664999999954
  endloop
endfacet
facet normal 0.414839738155726 0.909894494788758 0.0
  outer loop
    vertex 67.45337088119435 107.97882688125088 13.444664999999954
    vertex 66.9374223639277 108.2478092099757 16.444664999999954
    vertex 67.45337088119435 107.97882688125088 16.444664999999954
  endloop
endfacet
facet normal 0.5963771224205281 0.8027043838508737 0.0
  outer loop
    vertex 66.4527018821774 108.56967940152444 16.444664999999954
    vertex 66.9374223639277 108.2478092099757 13.444664999999954
    vertex 66.4527018821774 108.56967940152444 13.444664999999954
  endloop
endfacet
facet normal 0.508441063201171 0.8610967920337776 0.0
  outer loop
    vertex 66.9374223639277 108.2478092099757 13.444664999999954
    vertex 66.4527018821774 108.56967940152444 16.444664999999954
    vertex 66.9374223639277 108.2478092099757 16.444664999999954
  endloop
endfacet
facet normal 0.6776680949707634 0.7353679032013136 0.0
  outer loop
    vertex 66.0046103969972 108.94085104180004 16.444664999999954
    vertex 66.4527018821774 108.56967940152444 13.444664999999954
    vertex 66.0046103969972 108.94085104180004 13.444664999999954
  endloop
endfacet
facet normal 0.5963771224205281 0.8027043838508737 0.0
  outer loop
    vertex 66.4527018821774 108.56967940152444 13.444664999999954
    vertex 66.0046103969972 108.94085104180004 16.444664999999954
    vertex 66.4527018821774 108.56967940152444 16.444664999999954
  endloop
endfacet
facet normal 0.7514082023809671 0.6598376416927151 0.0
  outer loop
    vertex 65.59814073363604 109.3571883790675 13.444664999999954
    vertex 66.0046103969972 108.94085104180004 16.444664999999954
    vertex 66.0046103969972 108.94085104180004 13.444664999999954
  endloop
endfacet
facet normal 0.6776680949707634 0.7353679032013136 0.0
  outer loop
    vertex 66.0046103969972 108.94085104180004 16.444664999999954
    vertex 65.59814073363604 109.3571883790675 13.444664999999954
    vertex 65.59814073363604 109.3571883790675 16.444664999999954
  endloop
endfacet
facet normal 0.8167758011200773 0.5769551895118511 0.0
  outer loop
    vertex 65.23782194936301 109.81405240625269 13.444664999999954
    vertex 65.59814073363604 109.3571883790675 16.444664999999954
    vertex 65.59814073363604 109.3571883790675 13.444664999999954
  endloop
endfacet
facet normal 0.7514082023809671 0.6598376416927151 0.0
  outer loop
    vertex 65.59814073363604 109.3571883790675 16.444664999999954
    vertex 65.23782194936301 109.81405240625269 13.444664999999954
    vertex 65.23782194936301 109.81405240625269 16.444664999999954
  endloop
endfacet
facet normal 0.873042537697235 0.4876440580701993 0.0
  outer loop
    vertex 64.9276688687916 110.30635255072548 13.444664999999954
    vertex 65.23782194936301 109.81405240625269 16.444664999999954
    vertex 65.23782194936301 109.81405240625269 13.444664999999954
  endloop
endfacet
facet normal 0.8167758011200773 0.5769551895118511 0.0
  outer loop
    vertex 65.23782194936301 109.81405240625269 16.444664999999954
    vertex 64.9276688687916 110.30635255072548 13.444664999999954
    vertex 64.9276688687916 110.30635255072548 16.444664999999954
  endloop
endfacet
facet normal 0.9195814642851439 0.3928993898483312 0.0
  outer loop
    vertex 64.67113734900215 110.82860339561748 13.444664999999954
    vertex 64.9276688687916 110.30635255072548 16.444664999999954
    vertex 64.9276688687916 110.30635255072548 13.444664999999954
  endloop
endfacet
facet normal 0.873042537697235 0.4876440580701993 0.0
  outer loop
    vertex 64.9276688687916 110.30635255072548 16.444664999999954
    vertex 64.67113734900215 110.82860339561748 13.444664999999954
    vertex 64.67113734900215 110.82860339561748 16.444664999999954
  endloop
endfacet
facet normal 0.9558740244385124 0.29377687009654524 0.0
  outer loop
    vertex 64.47108577291765 111.37498580066176 13.444664999999954
    vertex 64.67113734900215 110.82860339561748 16.444664999999954
    vertex 64.67113734900215 110.82860339561748 13.444664999999954
  endloop
endfacet
facet normal 0.9195814642851439 0.3928993898483312 0.0
  outer loop
    vertex 64.67113734900215 110.82860339561748 16.444664999999954
    vertex 64.47108577291765 111.37498580066176 13.444664999999954
    vertex 64.47108577291765 111.37498580066176 16.444664999999954
  endloop
endfacet
facet normal 0.9700469542531562 0.24291748916900796 0.0
  outer loop
    vertex 64.32974319998957 111.93941174152022 13.444664999999954
    vertex 64.47108577291765 111.37498580066176 16.444664999999954
    vertex 64.47108577291765 111.37498580066176 13.444664999999954
  endloop
endfacet
facet normal 0.9558740244385124 0.29377687009654524 0.0
  outer loop
    vertex 64.47108577291765 111.37498580066176 16.444664999999954
    vertex 64.32974319998957 111.93941174152022 13.444664999999954
    vertex 64.32974319998957 111.93941174152022 16.444664999999954
  endloop
endfacet
facet normal 1.0 1.3347710955198077e-15 -7.519910620127743e-15
  outer loop
    vertex 103.62974319998955 102.8851080302514 10.344664999999953
    vertex 103.62974319998959 88.49371545278898 11.844664999999953
    vertex 103.62974319998959 88.49371545278898 10.344664999999953
  endloop
endfacet
facet normal 1.0 1.3347710955198077e-15 -7.519910620127743e-15
  outer loop
    vertex 103.62974319998959 88.49371545278898 11.844664999999953
    vertex 103.62974319998955 102.8851080302514 10.344664999999953
    vertex 103.62974319998956 91.43941174152019 11.84466499999995
  endloop
endfacet
facet normal 1.0 1.3347710955198077e-15 -7.519910620127743e-15
  outer loop
    vertex 103.62974319998956 91.43941174152019 11.84466499999995
    vertex 103.62974319998955 102.8851080302514 10.344664999999953
    vertex 103.62974319998956 99.93941174152019 11.844664999999953
  endloop
endfacet
facet normal 1.0 1.3347710955198077e-15 -7.519910620127743e-15
  outer loop
    vertex 103.62974319998956 99.93941174152019 11.844664999999953
    vertex 103.62974319998955 102.8851080302514 10.344664999999953
    vertex 103.62974319998959 102.8851080302514 11.844664999999953
  endloop
endfacet
facet normal 0.825896705216482 0.5638214542854498 -4.3925165616819616e-15
  outer loop
    vertex 102.63364271479713 105.42692643992461 10.344664999999955
    vertex 102.92319811436546 104.95875974301057 11.985974017124775
    vertex 102.92319811436548 104.95875974301053 10.344664999999955
  endloop
endfacet
facet normal 0.8719752550496203 0.48954995105826543 2.611193263181402e-16
  outer loop
    vertex 102.92319811436546 104.95875974301057 11.985974017124775
    vertex 102.63364271479713 105.42692643992461 10.344664999999955
    vertex 102.63364271479713 105.42692643992464 12.043885097038437
  endloop
endfacet
facet normal 0.0 0.0 -1.0
  outer loop
    vertex 69.12974319998958 111.93941174152022 10.344664999999955
    vertex 52.12974319998957 107.3894117415202 10.344664999999955
    vertex 52.12974319998957 111.93941174152022 10.344664999999955
  endloop
endfacet
facet normal 0.0 0.0 -1.0
  outer loop
    vertex 52.12974319998957 107.3894117415202 10.344664999999955
    vertex 69.12974319998958 111.93941174152022 10.344664999999955
    vertex 52.81721488478112 107.3894117415202 10.344664999999955
  endloop
endfacet
facet normal 0.0 0.0 -1.0
  outer loop
    vertex 52.81721488478112 107.3894117415202 10.344664999999955
    vertex 69.12974319998958 111.93941174152022 10.344664999999955
    vertex 59.900405660172716 108.0394117415202 10.344664999999955
  endloop
endfacet
facet normal 0.0 0.0 -1.0
  outer loop
    vertex 52.81721488478112 107.3894117415202 10.344664999999955
    vertex 59.900405660172716 108.0394117415202 10.344664999999955
    vertex 52.81721488478112 83.9894117415202 10.344664999999955
  endloop
endfacet
facet normal 0.0 0.0 -1.0
  outer loop
    vertex 59.900405660172716 108.0394117415202 10.344664999999955
    vertex 69.12974319998958 111.93941174152022 10.344664999999955
    vertex 62.629743199989576 108.0394117415202 10.344664999999956
  endloop
endfacet
facet normal 0.0 0.0 -1.0
  outer loop
    vertex 62.629743199989576 108.0394117415202 10.344664999999956
    vertex 69.12974319998958 111.93941174152022 10.344664999999955
    vertex 62.629743199989576 83.3394117415202 10.344664999999955
  endloop
endfacet
facet normal 0.0 0.0 -1.0
  outer loop
    vertex 52.81721488478112 83.9894117415202 10.344664999999955
    vertex 52.12974319998957 79.4394117415202 10.344664999999955
    vertex 52.12974319998957 83.9894117415202 10.344664999999955
  endloop
endfacet
facet normal 0.0 0.0 -1.0
  outer loop
    vertex 52.12974319998957 79.4394117415202 10.344664999999955
    vertex 52.81721488478112 83.9894117415202 10.344664999999955
    vertex 69.12974319998958 79.4394117415202 10.344664999999955
  endloop
endfacet
facet normal 0.0 0.0 -1.0
  outer loop
    vertex 69.12974319998958 79.4394117415202 10.344664999999955
    vertex 52.81721488478112 83.9894117415202 10.344664999999955
    vertex 59.900405660172716 83.3394117415202 10.344664999999955
  endloop
endfacet
facet normal 0.0 0.0 -1.0
  outer loop
    vertex 59.900405660172716 83.3394117415202 10.344664999999955
    vertex 52.81721488478112 83.9894117415202 10.344664999999955
    vertex 59.900405660172716 108.0394117415202 10.344664999999955
  endloop
endfacet
facet normal 0.0 0.0 -1.0
  outer loop
    vertex 69.12974319998958 79.4394117415202 10.344664999999955
    vertex 59.900405660172716 83.3394117415202 10.344664999999955
    vertex 62.629743199989576 83.3394117415202 10.344664999999955
  endloop
endfacet
facet normal 0.0 0.0 -1.0
  outer loop
    vertex 69.12974319998958 79.4394117415202 10.344664999999955
    vertex 62.629743199989576 83.3394117415202 10.344664999999955
    vertex 69.12974319998958 111.93941174152022 10.344664999999955
  endloop
endfacet
facet normal 0.8733297860758559 0.4871294332646097 6.022798098095503e-16
  outer loop
    vertex 102.92319811436548 104.95875974301053 10.344664999999955
    vertex 103.16940216145466 104.46641235273052 11.93673320770694
    vertex 103.16940216145468 104.46641235273052 10.344664999999953
  endloop
endfacet
facet normal 0.9127174280301465 0.40859135645536365 6.449630792445093e-15
  outer loop
    vertex 103.16940216145466 104.46641235273052 11.93673320770694
    vertex 102.92319811436548 104.95875974301053 10.344664999999955
    vertex 102.92319811436546 104.95875974301057 11.985974017124775
  endloop
endfacet
facet normal -2.504060548392191e-17 -1.5055559987636178e-16 1.0
  outer loop
    vertex 69.12974319998958 79.4394117415202 13.444664999999954
    vertex 64.4710857729178 80.00383768237856 13.444664999999954
    vertex 64.32974319998962 79.43941174152023 13.444664999999954
  endloop
endfacet
facet normal -2.504060548392191e-17 -1.5055559987636178e-16 1.0
  outer loop
    vertex 64.4710857729178 80.00383768237856 13.444664999999954
    vertex 69.12974319998958 79.4394117415202 13.444664999999954
    vertex 64.67113734900221 80.55022008742282 13.444664999999954
  endloop
endfacet
facet normal -2.504060548392191e-17 -1.5055559987636178e-16 1.0
  outer loop
    vertex 64.67113734900221 80.55022008742282 13.444664999999954
    vertex 69.12974319998958 79.4394117415202 13.444664999999954
    vertex 64.92766886879171 81.07247093231474 13.444664999999954
  endloop
endfacet
facet normal -2.504060548392191e-17 -1.5055559987636178e-16 1.0
  outer loop
    vertex 64.92766886879171 81.07247093231474 13.444664999999954
    vertex 69.12974319998958 79.4394117415202 13.444664999999954
    vertex 65.23782194936318 81.56477107678788 13.444664999999954
  endloop
endfacet
facet normal -2.504060548392191e-17 -1.5055559987636178e-16 1.0
  outer loop
    vertex 65.23782194936318 81.56477107678788 13.444664999999954
    vertex 69.12974319998958 79.4394117415202 13.444664999999954
    vertex 65.598140733636 82.02163510397307 13.444664999999954
  endloop
endfacet
facet normal -2.504060548392191e-17 -1.5055559987636178e-16 1.0
  outer loop
    vertex 65.598140733636 82.02163510397307 13.444664999999954
    vertex 69.12974319998958 79.4394117415202 13.444664999999954
    vertex 66.00461039699744 82.4379724412404 13.444664999999954
  endloop
endfacet
facet normal -2.504060548392191e-17 -1.5055559987636178e-16 1.0
  outer loop
    vertex 66.00461039699744 82.4379724412404 13.444664999999954
    vertex 69.12974319998958 79.4394117415202 13.444664999999954
    vertex 66.45270188217759 82.80914408151585 13.444664999999954
  endloop
endfacet
facet normal -2.504060548392191e-17 -1.5055559987636178e-16 1.0
  outer loop
    vertex 66.45270188217759 82.80914408151585 13.444664999999954
    vertex 69.12974319998958 79.4394117415202 13.444664999999954
    vertex 66.93742236392788 83.13101427306485 13.444664999999954
  endloop
endfacet
facet normal -2.504060548392191e-17 -1.5055559987636178e-16 1.0
  outer loop
    vertex 66.93742236392788 83.13101427306485 13.444664999999954
    vertex 69.12974319998958 79.4394117415202 13.444664999999954
    vertex 67.45337088119445 83.39999660178967 13.444664999999954
  endloop
endfacet
facet normal -2.504060548392191e-17 -1.5055559987636178e-16 1.0
  outer loop
    vertex 67.45337088119445 83.39999660178967 13.444664999999954
    vertex 69.12974319998958 79.4394117415202 13.444664999999954
    vertex 67.99479851691612 83.613093952577 13.444664999999954
  endloop
endfacet
facet normal -2.504060548392191e-17 -1.5055559987636178e-16 1.0
  outer loop
    vertex 67.99479851691612 83.613093952577 13.444664999999954
    vertex 69.12974319998958 79.4394117415202 13.444664999999954
    vertex 68.5556724548947 83.76793190442478 13.444664999999954
  endloop
endfacet
facet normal -2.504060548392191e-17 -1.5055559987636178e-16 1.0
  outer loop
    vertex 68.5556724548947 83.76793190442478 13.444664999999954
    vertex 69.12974319998958 79.4394117415202 13.444664999999954
    vertex 69.12974319998958 83.86278518724578 13.444664999999954
  endloop
endfacet
facet normal -2.504060548392191e-17 -1.5055559987636178e-16 1.0
  outer loop
    vertex 69.12974319998958 83.86278518724578 13.444664999999954
    vertex 69.12974319998958 79.4394117415202 13.444664999999954
    vertex 90.92974319998955 81.68941174152022 13.444664999999954
  endloop
endfacet
facet normal -2.504060548392191e-17 -1.5055559987636178e-16 1.0
  outer loop
    vertex 69.12974319998958 83.86278518724578 13.444664999999954
    vertex 90.92974319998955 81.68941174152022 13.444664999999954
    vertex 74.41289853306913 84.40806498079756 13.444664999999954
  endloop
endfacet
facet normal -2.504060548392191e-17 -1.5055559987636178e-16 1.0
  outer loop
    vertex 74.41289853306913 84.40806498079756 13.444664999999954
    vertex 90.92974319998955 81.68941174152022 13.444664999999954
    vertex 95.62974319998955 86.59787693036505 13.444664999999958
  endloop
endfacet
facet normal -2.504060548392191e-17 -1.5055559987636178e-16 1.0
  outer loop
    vertex 95.62974319998955 86.59787693036505 13.444664999999958
    vertex 90.92974319998955 81.68941174152022 13.444664999999954
    vertex 95.62974319998955 81.68941174152022 13.444664999999954
  endloop
endfacet
facet normal -1.0956304420378575e-16 -2.1100851190714347e-16 1.0
  outer loop
    vertex 64.47108577291765 111.37498580066176 13.444664999999954
    vertex 69.12974319998958 111.93941174152022 13.444664999999958
    vertex 64.32974319998957 111.93941174152022 13.444664999999954
  endloop
endfacet
facet normal -1.0956304420378575e-16 -2.1100851190714347e-16 1.0
  outer loop
    vertex 69.12974319998958 111.93941174152022 13.444664999999958
    vertex 64.47108577291765 111.37498580066176 13.444664999999954
    vertex 64.67113734900215 110.82860339561748 13.444664999999954
  endloop
endfacet
facet normal -1.0956304420378575e-16 -2.1100851190714347e-16 1.0
  outer loop
    vertex 69.12974319998958 111.93941174152022 13.444664999999958
    vertex 64.67113734900215 110.82860339561748 13.444664999999954
    vertex 64.9276688687916 110.30635255072548 13.444664999999954
  endloop
endfacet
facet normal -1.0956304420378575e-16 -2.1100851190714347e-16 1.0
  outer loop
    vertex 69.12974319998958 111.93941174152022 13.444664999999958
    vertex 64.9276688687916 110.30635255072548 13.444664999999954
    vertex 65.23782194936301 109.81405240625269 13.444664999999954
  endloop
endfacet
facet normal -1.0956304420378575e-16 -2.1100851190714347e-16 1.0
  outer loop
    vertex 69.12974319998958 111.93941174152022 13.444664999999958
    vertex 65.23782194936301 109.81405240625269 13.444664999999954
    vertex 65.59814073363604 109.3571883790675 13.444664999999954
  endloop
endfacet
facet normal -1.0956304420378575e-16 -2.1100851190714347e-16 1.0
  outer loop
    vertex 69.12974319998958 111.93941174152022 13.444664999999958
    vertex 65.59814073363604 109.3571883790675 13.444664999999954
    vertex 66.0046103969972 108.94085104180004 13.444664999999954
  endloop
endfacet
facet normal -1.0956304420378575e-16 -2.1100851190714347e-16 1.0
  outer loop
    vertex 69.12974319998958 111.93941174152022 13.444664999999958
    vertex 66.0046103969972 108.94085104180004 13.444664999999954
    vertex 66.4527018821774 108.56967940152444 13.444664999999954
  endloop
endfacet
facet normal -1.0956304420378575e-16 -2.1100851190714347e-16 1.0
  outer loop
    vertex 69.12974319998958 111.93941174152022 13.444664999999958
    vertex 66.4527018821774 108.56967940152444 13.444664999999954
    vertex 66.9374223639277 108.2478092099757 13.444664999999954
  endloop
endfacet
facet normal -1.0956304420378575e-16 -2.1100851190714347e-16 1.0
  outer loop
    vertex 69.12974319998958 111.93941174152022 13.444664999999958
    vertex 66.9374223639277 108.2478092099757 13.444664999999954
    vertex 67.45337088119435 107.97882688125088 13.444664999999954
  endloop
endfacet
facet normal -1.0956304420378575e-16 -2.1100851190714347e-16 1.0
  outer loop
    vertex 69.12974319998958 111.93941174152022 13.444664999999958
    vertex 67.45337088119435 107.97882688125088 13.444664999999954
    vertex 67.99479851691608 107.76572953046336 13.444664999999954
  endloop
endfacet
facet normal -1.0956304420378575e-16 -2.1100851190714347e-16 1.0
  outer loop
    vertex 69.12974319998958 111.93941174152022 13.444664999999958
    vertex 67.99479851691608 107.76572953046336 13.444664999999954
    vertex 68.55567245489456 107.6108915786157 13.444664999999954
  endloop
endfacet
facet normal -1.0956304420378575e-16 -2.1100851190714347e-16 1.0
  outer loop
    vertex 69.12974319998958 111.93941174152022 13.444664999999958
    vertex 68.55567245489456 107.6108915786157 13.444664999999954
    vertex 69.12974319998958 107.51603829579463 13.444664999999954
  endloop
endfacet
facet normal -1.0956304420378575e-16 -2.1100851190714347e-16 1.0
  outer loop
    vertex 69.12974319998958 111.93941174152022 13.444664999999958
    vertex 69.12974319998958 107.51603829579463 13.444664999999954
    vertex 95.62974319998955 104.78094655267536 13.444664999999958
  endloop
endfacet
facet normal -1.0956304420378575e-16 -2.1100851190714347e-16 1.0
  outer loop
    vertex 69.12974319998958 111.93941174152022 13.444664999999958
    vertex 95.62974319998955 104.78094655267536 13.444664999999958
    vertex 90.92974319998955 109.6894117415202 13.444664999999958
  endloop
endfacet
facet normal -1.0956304420378575e-16 -2.1100851190714347e-16 1.0
  outer loop
    vertex 90.92974319998955 109.6894117415202 13.444664999999958
    vertex 95.62974319998955 104.78094655267536 13.444664999999958
    vertex 95.62974319998955 109.6894117415202 13.444664999999958
  endloop
endfacet
facet normal 0.913661330543309 0.4064762884472235 6.4656676556168715e-15
  outer loop
    vertex 103.16940216145468 104.46641235273052 10.344664999999953
    vertex 103.37025283228394 103.95388782302871 11.896563073541087
    vertex 103.37025283228394 103.95388782302871 10.344664999999953
  endloop
endfacet
facet normal 0.9459687196856476 0.32425789331378974 2.5522375018006435e-15
  outer loop
    vertex 103.37025283228394 103.95388782302871 11.896563073541087
    vertex 103.16940216145468 104.46641235273052 10.344664999999953
    vertex 103.16940216145466 104.46641235273052 11.93673320770694
  endloop
endfacet
facet normal 0.1961161351381835 -4.0493904154009147e-16 0.9805806756909203
  outer loop
    vertex 99.62974319998953 104.36810251597811 12.644664999999957
    vertex 95.62974319998955 109.6894117415202 13.444664999999958
    vertex 95.62974319998955 104.78094655267536 13.444664999999958
  endloop
endfacet
facet normal 0.1961161351381835 -4.0493904154009147e-16 0.9805806756909203
  outer loop
    vertex 95.62974319998955 109.6894117415202 13.444664999999958
    vertex 99.62974319998953 104.36810251597811 12.644664999999957
    vertex 99.62974319998953 107.7394117415202 12.64466499999996
  endloop
endfacet
facet normal 0.1961161351381835 -4.0493904154009147e-16 0.9805806756909203
  outer loop
    vertex 99.62974319998953 107.7394117415202 12.64466499999996
    vertex 99.62974319998953 104.36810251597811 12.644664999999957
    vertex 100.13982851342398 107.53244469453661 12.542647937313063
  endloop
endfacet
facet normal 0.1961161351381835 -4.0493904154009147e-16 0.9805806756909203
  outer loop
    vertex 100.13982851342398 107.53244469453661 12.542647937313063
    vertex 99.62974319998953 104.36810251597811 12.644664999999957
    vertex 100.16673511182317 104.27923141272865 12.53726661763323
  endloop
endfacet
facet normal 0.1961161351381835 -4.0493904154009147e-16 0.9805806756909203
  outer loop
    vertex 100.13982851342398 107.53244469453661 12.542647937313063
    vertex 100.16673511182317 104.27923141272865 12.53726661763323
    vertex 100.62919562033208 107.28036887222315 12.444774515931453
  endloop
endfacet
facet normal 0.1961161351381835 -4.0493904154009147e-16 0.9805806756909203
  outer loop
    vertex 100.62919562033208 107.28036887222315 12.444774515931453
    vertex 100.16673511182317 104.27923141272865 12.53726661763323
    vertex 100.68886971676791 104.12549839517317 12.432839696644287
  endloop
endfacet
facet normal 0.1961161351381835 -4.0493904154009147e-16 0.9805806756909203
  outer loop
    vertex 100.62919562033208 107.28036887222315 12.444774515931453
    vertex 100.68886971676791 104.12549839517317 12.432839696644287
    vertex 101.09386520113253 106.98523404507237 12.351840599771363
  endloop
endfacet
facet normal 0.1961161351381835 -4.0493904154009147e-16 0.9805806756909203
  outer loop
    vertex 101.09386520113253 106.98523404507237 12.351840599771363
    vertex 100.68886971676791 104.12549839517317 12.432839696644287
    vertex 101.18834331500027 103.90920112048777 12.332944976997808
  endloop
endfacet
facet normal 0.1961161351381835 -4.0493904154009147e-16 0.9805806756909203
  outer loop
    vertex 101.09386520113253 106.98523404507237 12.351840599771363
    vertex 101.18834331500027 103.90920112048777 12.332944976997808
    vertex 101.53005876573958 106.6494401205978 12.264601886849949
  endloop
endfacet
facet normal 0.1961161351381835 -4.0493904154009147e-16 0.9805806756909203
  outer loop
    vertex 101.53005876573958 106.6494401205978 12.264601886849949
    vertex 101.18834331500027 103.90920112048777 12.332944976997808
    vertex 101.65769089272219 103.63357231637961 12.239075461453426
  endloop
endfacet
facet normal 0.1961161351381835 -4.0493904154009147e-16 0.9805806756909203
  outer loop
    vertex 101.53005876573958 106.6494401205978 12.264601886849949
    vertex 101.65769089272219 103.63357231637961 12.239075461453426
    vertex 101.93422937859427 106.27571762833475 12.183767764279018
  endloop
endfacet
facet normal 0.1961161351381835 -4.0493904154009147e-16 0.9805806756909203
  outer loop
    vertex 101.93422937859427 106.27571762833475 12.183767764279018
    vertex 101.65769089272219 103.63357231637961 12.239075461453426
    vertex 102.08989769248466 103.30273146550628 12.15263410150093
  endloop
endfacet
facet normal 0.1961161351381835 -4.0493904154009147e-16 0.9805806756909203
  outer loop
    vertex 101.93422937859427 106.27571762833475 12.183767764279018
    vertex 102.08989769248466 103.30273146550628 12.15263410150093
    vertex 102.3030905007951 105.8671055163662 12.10999553983885
  endloop
endfacet
facet normal 0.1961161351381835 -4.0493904154009147e-16 0.9805806756909203
  outer loop
    vertex 102.3030905007951 105.8671055163662 12.10999553983885
    vertex 102.08989769248466 103.30273146550628 12.15263410150093
    vertex 102.4785040540869 102.921623236666 12.074912829180487
  endloop
endfacet
facet normal 0.1961161351381835 -4.0493904154009147e-16 0.9805806756909203
  outer loop
    vertex 102.3030905007951 105.8671055163662 12.10999553983885
    vertex 102.4785040540869 102.921623236666 12.074912829180487
    vertex 102.63364271479713 105.42692643992464 12.043885097038437
  endloop
endfacet
facet normal 0.1961161351381835 -4.0493904154009147e-16 0.9805806756909203
  outer loop
    vertex 102.63364271479713 105.42692643992464 12.043885097038437
    vertex 102.4785040540869 102.921623236666 12.074912829180487
    vertex 102.81770195912384 102.49594358295201 12.007073248173095
  endloop
endfacet
facet normal 0.1961161351381835 -4.0493904154009147e-16 0.9805806756909203
  outer loop
    vertex 102.63364271479713 105.42692643992464 12.043885097038437
    vertex 102.81770195912384 102.49594358295201 12.007073248173095
    vertex 102.92319811436546 104.95875974301057 11.985974017124775
  endloop
endfacet
facet normal 0.1961161351381835 -4.0493904154009147e-16 0.9805806756909203
  outer loop
    vertex 102.92319811436546 104.95875974301057 11.985974017124775
    vertex 102.81770195912384 102.49594358295201 12.007073248173095
    vertex 103.10242183625009 102.03205461139014 11.950129272747848
  endloop
endfacet
facet normal 0.1961161351381835 -4.0493904154009147e-16 0.9805806756909203
  outer loop
    vertex 102.92319811436546 104.95875974301057 11.985974017124775
    vertex 103.10242183625009 102.03205461139014 11.950129272747848
    vertex 103.16940216145466 104.46641235273052 11.93673320770694
  endloop
endfacet
facet normal 0.1961161351381835 -4.0493904154009147e-16 0.9805806756909203
  outer loop
    vertex 103.16940216145466 104.46641235273052 11.93673320770694
    vertex 103.10242183625009 102.03205461139014 11.950129272747848
    vertex 103.32840832978951 101.53688949639792 11.904931974039963
  endloop
endfacet
facet normal 0.1961161351381835 -4.0493904154009147e-16 0.9805806756909203
  outer loop
    vertex 103.16940216145466 104.46641235273052 11.93673320770694
    vertex 103.32840832978951 101.53688949639792 11.904931974039963
    vertex 103.37025283228394 103.95388782302871 11.896563073541087
  endloop
endfacet
facet normal 0.1961161351381835 -4.0493904154009147e-16 0.9805806756909203
  outer loop
    vertex 103.37025283228394 103.95388782302871 11.896563073541087
    vertex 103.32840832978951 101.53688949639792 11.904931974039963
    vertex 103.49228389927066 101.01784885820594 11.872156860143733
  endloop
endfacet
facet normal 0.1961161351381835 -4.0493904154009147e-16 0.9805806756909203
  outer loop
    vertex 103.37025283228394 103.95388782302871 11.896563073541087
    vertex 103.49228389927066 101.01784885820594 11.872156860143733
    vertex 103.52411689691994 103.42535377953456 11.865790260613881
  endloop
endfacet
facet normal 0.1961161351381835 -4.0493904154009147e-16 0.9805806756909203
  outer loop
    vertex 103.52411689691994 103.42535377953456 11.865790260613881
    vertex 103.49228389927066 101.01784885820594 11.872156860143733
    vertex 103.59159929934468 100.48269015494526 11.85229378012893
  endloop
endfacet
facet normal 0.1961161351381835 -4.0493904154009147e-16 0.9805806756909203
  outer loop
    vertex 103.52411689691994 103.42535377953456 11.865790260613881
    vertex 103.59159929934468 100.48269015494526 11.85229378012893
    vertex 103.62974319998959 102.8851080302514 11.844664999999953
  endloop
endfacet
facet normal 0.1961161351381835 -4.0493904154009147e-16 0.9805806756909203
  outer loop
    vertex 103.62974319998959 102.8851080302514 11.844664999999953
    vertex 103.59159929934468 100.48269015494526 11.85229378012893
    vertex 103.62974319998956 99.93941174152019 11.844664999999953
  endloop
endfacet
facet normal 0.8733297860758983 -0.487129433264534 -1.8757797853766317e-15
  outer loop
    vertex 102.9231981143655 86.42006374002986 10.344664999999955
    vertex 102.6336427147972 85.9518970431158 12.043885097038434
    vertex 102.63364271479719 85.95189704311576 10.344664999999955
  endloop
endfacet
facet normal 0.8240837454567498 -0.56646798715724 4.07201186487871e-16
  outer loop
    vertex 102.6336427147972 85.9518970431158 12.043885097038434
    vertex 102.9231981143655 86.42006374002986 10.344664999999955
    vertex 102.9231981143655 86.42006374002985 11.98597401712477
  endloop
endfacet
facet normal 0.8258967052164491 -0.5638214542854982 2.363109068010656e-16
  outer loop
    vertex 102.63364271479719 85.95189704311576 10.344664999999955
    vertex 102.30309050079515 85.51171796667434 12.109995539838838
    vertex 102.30309050079515 85.51171796667433 10.344664999999955
  endloop
endfacet
facet normal 0.7694436883798902 -0.638714654922173 2.320799534961028e-15
  outer loop
    vertex 102.30309050079515 85.51171796667434 12.109995539838838
    vertex 102.63364271479719 85.95189704311576 10.344664999999955
    vertex 102.6336427147972 85.9518970431158 12.043885097038434
  endloop
endfacet
facet normal 0.7717477930622281 -0.6359287254901926 2.3445327758793008e-15
  outer loop
    vertex 102.30309050079515 85.51171796667433 10.344664999999955
    vertex 101.93422937859431 85.10310585470582 12.183767764279004
    vertex 101.93422937859431 85.10310585470582 10.344664999999955
  endloop
endfacet
facet normal 0.7085114626083922 -0.7056993037778322 9.34083424467438e-16
  outer loop
    vertex 101.93422937859431 85.10310585470582 12.183767764279004
    vertex 102.30309050079515 85.51171796667433 10.344664999999955
    vertex 102.30309050079515 85.51171796667434 12.109995539838838
  endloop
endfacet
facet normal 0.9465633801141442 -0.3225178559814735 5.165828141496428e-15
  outer loop
    vertex 103.37025283228398 87.42493566001187 10.344664999999953
    vertex 103.1694021614547 86.91241113031006 11.93673320770693
    vertex 103.1694021614547 86.91241113031006 10.344664999999953
  endloop
endfacet
facet normal 0.9127174280301762 -0.4085913564552978 -2.193218727790027e-16
  outer loop
    vertex 103.1694021614547 86.91241113031006 11.93673320770693
    vertex 103.37025283228398 87.42493566001187 10.344664999999953
    vertex 103.37025283228398 87.42493566001188 11.896563073541072
  endloop
endfacet
facet normal 0.9717683896912739 -0.2359368491711898 8.573433698983869e-15
  outer loop
    vertex 103.52411689691998 87.95346970350603 10.344664999999953
    vertex 103.37025283228398 87.42493566001188 11.896563073541072
    vertex 103.37025283228398 87.42493566001187 10.344664999999953
  endloop
endfacet
facet normal 0.9459687196856473 -0.32425789331379057 5.008010881856728e-15
  outer loop
    vertex 103.37025283228398 87.42493566001188 11.896563073541072
    vertex 103.52411689691998 87.95346970350603 10.344664999999953
    vertex 103.52411689691996 87.95346970350604 11.865790260613876
  endloop
endfacet
facet normal 0.9717683896912779 0.2359368491711728 -9.021586147599617e-15
  outer loop
    vertex 103.52411689691994 103.42535377953453 10.344664999999953
    vertex 103.62974319998959 102.8851080302514 11.844664999999953
    vertex 103.62974319998955 102.8851080302514 10.344664999999953
  endloop
endfacet
facet normal 0.9814179616942367 0.19188221507979875 -1.5994593914022236e-14
  outer loop
    vertex 103.62974319998959 102.8851080302514 11.844664999999953
    vertex 103.52411689691994 103.42535377953453 10.344664999999953
    vertex 103.52411689691994 103.42535377953456 11.865790260613881
  endloop
endfacet
facet normal 0.7717477930622829 0.6359287254901257 -4.061028539865824e-15
  outer loop
    vertex 102.3030905007951 105.8671055163662 10.344664999999955
    vertex 102.63364271479713 105.42692643992464 12.043885097038437
    vertex 102.63364271479713 105.42692643992461 10.344664999999955
  endloop
endfacet
facet normal 0.8240837454567849 0.5664679871571886 -4.352944960360468e-15
  outer loop
    vertex 102.63364271479713 105.42692643992464 12.043885097038437
    vertex 102.3030905007951 105.8671055163662 10.344664999999955
    vertex 102.3030905007951 105.8671055163662 12.10999553983885
  endloop
endfacet
facet normal -1.0 0.0 0.0
  outer loop
    vertex 101.92974319998955 100.68941174152022 12.18466499999996
    vertex 101.92974319998955 90.6894117415202 10.344664999999955
    vertex 101.92974319998955 90.6894117415202 12.18466499999996
  endloop
endfacet
facet normal -1.0 0.0 0.0
  outer loop
    vertex 101.92974319998955 90.6894117415202 10.344664999999955
    vertex 101.92974319998955 100.68941174152022 12.18466499999996
    vertex 101.92974319998955 100.68941174152022 10.344664999999955
  endloop
endfacet
facet normal 0.7085114626083922 -0.7056993037778322 9.34083424467438e-16
  outer loop
    vertex 101.93422937859431 85.10310585470582 12.183767764279004
    vertex 101.53005876573964 84.72938336244269 10.344664999999955
    vertex 101.93422937859431 85.10310585470582 10.344664999999955
  endloop
endfacet
facet normal 0.6451147658405632 -0.7640856881884881 3.0859456133857534e-16
  outer loop
    vertex 101.53005876573964 84.72938336244269 10.344664999999955
    vertex 101.93422937859431 85.10310585470582 12.183767764279004
    vertex 101.53005876573964 84.72938336244269 12.264601886849938
  endloop
endfacet
facet normal 0.8733297860758983 -0.487129433264534 -1.8757797853766317e-15
  outer loop
    vertex 102.9231981143655 86.42006374002986 10.344664999999955
    vertex 103.1694021614547 86.91241113031006 11.93673320770693
    vertex 102.9231981143655 86.42006374002985 11.98597401712477
  endloop
endfacet
facet normal 0.9127174280301762 -0.4085913564552978 -2.193218727790027e-16
  outer loop
    vertex 103.1694021614547 86.91241113031006 11.93673320770693
    vertex 102.9231981143655 86.42006374002986 10.344664999999955
    vertex 103.1694021614547 86.91241113031006 10.344664999999953
  endloop
endfacet
facet normal 0.6417949170139319 0.7668763162955812 3.1051486279025512e-15
  outer loop
    vertex 101.53005876573958 106.6494401205978 12.264601886849949
    vertex 101.93422937859427 106.27571762833473 10.344664999999955
    vertex 101.53005876573961 106.6494401205978 10.344664999999955
  endloop
endfacet
facet normal 0.7113233649172362 0.7028649020422206 -1.1762924774699795e-15
  outer loop
    vertex 101.93422937859427 106.27571762833473 10.344664999999955
    vertex 101.53005876573958 106.6494401205978 12.264601886849949
    vertex 101.93422937859427 106.27571762833475 12.183767764279018
  endloop
endfacet
facet normal 0.9814179616942272 -0.19188221507984599 8.099464592979215e-15
  outer loop
    vertex 103.62974319998959 88.49371545278898 10.344664999999953
    vertex 103.52411689691996 87.95346970350604 11.865790260613876
    vertex 103.52411689691998 87.95346970350603 10.344664999999953
  endloop
endfacet
facet normal 0.9714499735368957 -0.2372444918542157 8.587313523705102e-15
  outer loop
    vertex 103.52411689691996 87.95346970350604 11.865790260613876
    vertex 103.62974319998959 88.49371545278898 10.344664999999953
    vertex 103.62974319998959 88.49371545278898 11.844664999999953
  endloop
endfacet
facet normal 0.9465633801141444 0.32251785598147276 2.372768842674411e-15
  outer loop
    vertex 103.37025283228394 103.95388782302871 10.344664999999953
    vertex 103.52411689691994 103.42535377953456 11.865790260613881
    vertex 103.52411689691994 103.42535377953453 10.344664999999953
  endloop
endfacet
facet normal 0.9714499735368992 0.2372444918542008 -8.813161791398775e-15
  outer loop
    vertex 103.52411689691994 103.42535377953456 11.865790260613881
    vertex 103.37025283228394 103.95388782302871 10.344664999999953
    vertex 103.37025283228394 103.95388782302871 11.896563073541087
  endloop
endfacet
facet normal 0.7113233649172362 0.7028649020422206 -1.1762924774699795e-15
  outer loop
    vertex 101.93422937859427 106.27571762833473 10.344664999999955
    vertex 102.3030905007951 105.8671055163662 12.10999553983885
    vertex 102.3030905007951 105.8671055163662 10.344664999999955
  endloop
endfacet
facet normal 0.7694436883799425 0.6387146549221099 -4.079019936635309e-15
  outer loop
    vertex 102.3030905007951 105.8671055163662 12.10999553983885
    vertex 101.93422937859427 106.27571762833473 10.344664999999955
    vertex 101.93422937859427 106.27571762833475 12.183767764279018
  endloop
endfacet
facet normal 0.10266563425835205 -0.994715923036487 -1.3699170618904625e-17
  outer loop
    vertex 99.62974319998953 87.01072096706228 12.644664999999954
    vertex 95.62974319998955 86.59787693036505 11.844664999999956
    vertex 99.62974319998953 87.01072096706228 11.844664999999956
  endloop
endfacet
facet normal 0.10266563425835205 -0.994715923036487 -1.3699170618904625e-17
  outer loop
    vertex 95.62974319998955 86.59787693036505 11.844664999999956
    vertex 99.62974319998953 87.01072096706228 12.644664999999954
    vertex 95.62974319998955 86.59787693036505 13.444664999999958
  endloop
endfacet
facet normal 0.10266563425835486 0.9947159230364868 -5.1371889820892375e-17
  outer loop
    vertex 99.62974319998953 104.36810251597811 13.444664999999958
    vertex 99.62974319998953 104.36810251597811 12.644664999999957
    vertex 95.62974319998955 104.78094655267536 13.444664999999958
  endloop
endfacet
facet normal 1.0 1.1279865930191604e-15 -7.725935568624367e-15
  outer loop
    vertex 96.52974319998954 100.68941174152022 10.344664999999955
    vertex 96.52974319998958 90.6894117415202 13.264664999999953
    vertex 96.52974319998954 90.6894117415202 10.344664999999955
  endloop
endfacet
facet normal 1.0 1.1279865930191604e-15 -7.725935568624367e-15
  outer loop
    vertex 96.52974319998958 90.6894117415202 13.264664999999953
    vertex 96.52974319998954 100.68941174152022 10.344664999999955
    vertex 96.52974319998955 100.68941174152022 13.264664999999958
  endloop
endfacet
facet normal 0.0 1.0 0.0
  outer loop
    vertex 96.52974319998958 90.6894117415202 13.264664999999953
    vertex 100.21960611336979 90.6894117415202 12.52669241732391
    vertex 96.52974319998954 90.6894117415202 10.344664999999955
  endloop
endfacet
facet normal 0.0 -1.0 0.0
  outer loop
    vertex 101.72476162659746 100.68941174152022 12.225661314678375
    vertex 96.52974319998954 100.68941174152022 10.344664999999955
    vertex 101.92974319998955 100.68941174152022 10.344664999999955
  endloop
endfacet
facet normal 0.0 -1.0 0.0
  outer loop
    vertex 96.52974319998954 100.68941174152022 10.344664999999955
    vertex 101.72476162659746 100.68941174152022 12.225661314678375
    vertex 100.21960611336979 100.68941174152022 12.52669241732391
  endloop
endfacet
facet normal 0.0 0.0 -1.0
  outer loop
    vertex 101.92974319998955 100.68941174152022 13.344664999999955
    vertex 101.60281819998956 90.6894117415202 13.344664999999955
    vertex 101.60281819998956 100.68941174152022 13.344664999999955
  endloop
endfacet
facet normal 0.0 0.0 -1.0
  outer loop
    vertex 101.60281819998956 90.6894117415202 13.344664999999955
    vertex 101.92974319998955 100.68941174152022 13.344664999999955
    vertex 101.92974319998955 90.6894117415202 13.344664999999955
  endloop
endfacet
facet normal 0.0 -1.0 0.0
  outer loop
    vertex 101.92974319998955 100.68941174152022 13.344664999999955
    vertex 101.72476162659746 100.68941174152022 12.225661314678375
    vertex 101.92974319998955 100.68941174152022 12.18466499999996
  endloop
endfacet
facet normal 0.0 -1.0 0.0
  outer loop
    vertex 101.72476162659746 100.68941174152022 12.225661314678375
    vertex 101.92974319998955 100.68941174152022 13.344664999999955
    vertex 101.60281819998956 100.68941174152022 13.344664999999955
  endloop
endfacet
facet normal -0.994114592458949 0.0 -0.10833363771321311
  outer loop
    vertex 101.60281819998956 100.68941174152022 13.344664999999955
    vertex 101.72476162659746 90.6894117415202 12.225661314678375
    vertex 101.60281819998956 90.6894117415202 13.344664999999955
  endloop
endfacet
facet normal -0.994114592458949 0.0 -0.10833363771321311
  outer loop
    vertex 101.72476162659746 90.6894117415202 12.225661314678375
    vertex 101.60281819998956 100.68941174152022 13.344664999999955
    vertex 101.92974319998955 90.6894117415202 10.344664999999955
  endloop
endfacet
facet normal -0.994114592458949 0.0 -0.10833363771321311
  outer loop
    vertex 101.92974319998955 90.6894117415202 10.344664999999955
    vertex 101.60281819998956 100.68941174152022 13.344664999999955
    vertex 101.92974319998955 100.68941174152022 10.344664999999955
  endloop
endfacet
facet normal -0.994114592458949 0.0 -0.10833363771321311
  outer loop
    vertex 101.92974319998955 100.68941174152022 10.344664999999955
    vertex 101.60281819998956 100.68941174152022 13.344664999999955
    vertex 101.72476162659746 100.68941174152022 12.225661314678375
  endloop
endfacet
facet normal 0.0 -1.0 0.0
  outer loop
    vertex 101.72476162659746 100.68941174152022 12.225661314678375
    vertex 101.92974319998955 100.68941174152022 10.344664999999955
    vertex 101.92974319998955 100.68941174152022 12.18466499999996
  endloop
endfacet
facet normal 0.0 1.0 0.0
  outer loop
    vertex 101.60281819998956 90.6894117415202 13.344664999999955
    vertex 101.72476162659746 90.6894117415202 12.225661314678375
    vertex 100.21960611336979 90.6894117415202 12.52669241732391
  endloop
endfacet
facet normal 0.0 1.0 0.0
  outer loop
    vertex 100.21960611336979 90.6894117415202 12.52669241732391
    vertex 101.92974319998955 90.6894117415202 10.344664999999955
    vertex 96.52974319998954 90.6894117415202 10.344664999999955
  endloop
endfacet
facet normal 0.0 1.0 0.0
  outer loop
    vertex 101.92974319998955 90.6894117415202 10.344664999999955
    vertex 100.21960611336979 90.6894117415202 12.52669241732391
    vertex 101.72476162659746 90.6894117415202 12.225661314678375
  endloop
endfacet
endsolid gogorilla_adapter
