solid bytespeicher_kabelhalter
facet normal -0.0 -0.0 1.0
  outer loop
    vertex 0.0 -50.0 40.0
    vertex 5.0 -45.0 40.0
    vertex 0.0 3.9999999999999996 40.0
  endloop
endfacet
facet normal -0.0 -0.0 1.0
  outer loop
    vertex 5.0 -45.0 40.0
    vertex 0.0 -50.0 40.0
    vertex 30.0 -50.0 40.0
  endloop
endfacet
facet normal -0.0 -0.0 1.0
  outer loop
    vertex 5.0 -45.0 40.0
    vertex 30.0 -50.0 40.0
    vertex 26.000000000000004 -45.0 40.0
  endloop
endfacet
facet normal -0.0 -0.0 1.0
  outer loop
    vertex 26.000000000000004 -45.0 40.0
    vertex 30.0 -50.0 40.0
    vertex 26.000000000000004 -29.999999999999996 40.0
  endloop
endfacet
facet normal -0.0 -0.0 1.0
  outer loop
    vertex 26.000000000000004 -29.999999999999996 40.0
    vertex 30.0 -50.0 40.0
    vertex 30.0 -29.999999999999996 40.0
  endloop
endfacet
facet normal -0.0 -0.0 1.0
  outer loop
    vertex 0.0 3.9999999999999996 40.0
    vertex 5.0 0.0 40.0
    vertex 95.0 3.9999999999999996 40.0
  endloop
endfacet
facet normal -0.0 -0.0 1.0
  outer loop
    vertex 5.0 0.0 40.0
    vertex 0.0 3.9999999999999996 40.0
    vertex 5.0 -45.0 40.0
  endloop
endfacet
facet normal -0.0 -0.0 1.0
  outer loop
    vertex 95.0 3.9999999999999996 40.0
    vertex 5.0 0.0 40.0
    vertex 100.0 0.0 40.0
  endloop
endfacet
facet normal -0.0 -0.0 1.0
  outer loop
    vertex 95.0 3.9999999999999996 40.0
    vertex 100.0 0.0 40.0
    vertex 95.0 6.999999999999998 40.0
  endloop
endfacet
facet normal -0.0 -0.0 1.0
  outer loop
    vertex 95.0 6.999999999999998 40.0
    vertex 75.0 9.999999999999998 40.0
    vertex 75.0 6.999999999999998 40.0
  endloop
endfacet
facet normal -0.0 -0.0 1.0
  outer loop
    vertex 75.0 9.999999999999998 40.0
    vertex 95.0 6.999999999999998 40.0
    vertex 100.0 9.999999999999998 40.0
  endloop
endfacet
facet normal -0.0 -0.0 1.0
  outer loop
    vertex 100.0 9.999999999999998 40.0
    vertex 95.0 6.999999999999998 40.0
    vertex 100.0 0.0 40.0
  endloop
endfacet
facet normal -1.0 0.0 0.0
  outer loop
    vertex 0.0 3.9999999999999996 40.0
    vertex 0.0 -50.0 0.0
    vertex 0.0 -50.0 40.0
  endloop
endfacet
facet normal -1.0 0.0 0.0
  outer loop
    vertex 0.0 -50.0 0.0
    vertex 0.0 3.9999999999999996 40.0
    vertex 0.0 3.9999999999999996 0.0
  endloop
endfacet
facet normal 0.0 0.0 -1.0
  outer loop
    vertex 100.0 9.999999999999998 0.0
    vertex 75.0 6.999999999999998 0.0
    vertex 75.0 9.999999999999998 0.0
  endloop
endfacet
facet normal 0.0 0.0 -1.0
  outer loop
    vertex 75.0 6.999999999999998 0.0
    vertex 100.0 9.999999999999998 0.0
    vertex 95.0 6.999999999999998 0.0
  endloop
endfacet
facet normal 0.0 0.0 -1.0
  outer loop
    vertex 95.0 6.999999999999998 0.0
    vertex 100.0 9.999999999999998 0.0
    vertex 95.0 3.9999999999999996 0.0
  endloop
endfacet
facet normal 0.0 0.0 -1.0
  outer loop
    vertex 0.0 3.9999999999999996 0.0
    vertex 5.0 0.0 0.0
    vertex 0.0 -50.0 0.0
  endloop
endfacet
facet normal 0.0 0.0 -1.0
  outer loop
    vertex 5.0 0.0 0.0
    vertex 0.0 3.9999999999999996 0.0
    vertex 95.0 3.9999999999999996 0.0
  endloop
endfacet
facet normal 0.0 0.0 -1.0
  outer loop
    vertex 5.0 0.0 0.0
    vertex 95.0 3.9999999999999996 0.0
    vertex 100.0 0.0 0.0
  endloop
endfacet
facet normal 0.0 0.0 -1.0
  outer loop
    vertex 100.0 0.0 0.0
    vertex 95.0 3.9999999999999996 0.0
    vertex 100.0 9.999999999999998 0.0
  endloop
endfacet
facet normal 0.0 0.0 -1.0
  outer loop
    vertex 30.0 -29.999999999999996 0.0
    vertex 26.000000000000004 -45.0 0.0
    vertex 26.000000000000004 -29.999999999999996 0.0
  endloop
endfacet
facet normal 0.0 0.0 -1.0
  outer loop
    vertex 0.0 -50.0 0.0
    vertex 5.0 -45.0 0.0
    vertex 30.0 -50.0 0.0
  endloop
endfacet
facet normal 0.0 0.0 -1.0
  outer loop
    vertex 5.0 -45.0 0.0
    vertex 0.0 -50.0 0.0
    vertex 5.0 0.0 0.0
  endloop
endfacet
facet normal 0.0 0.0 -1.0
  outer loop
    vertex 30.0 -50.0 0.0
    vertex 5.0 -45.0 0.0
    vertex 26.000000000000004 -45.0 0.0
  endloop
endfacet
facet normal 0.0 0.0 -1.0
  outer loop
    vertex 30.0 -50.0 0.0
    vertex 26.000000000000004 -45.0 0.0
    vertex 30.0 -29.999999999999996 0.0
  endloop
endfacet
facet normal 1.0 -0.0 -0.0
  outer loop
    vertex 100.0 9.999999999999998 0.0
    vertex 100.0 0.0 40.0
    vertex 100.0 0.0 0.0
  endloop
endfacet
facet normal 1.0 -0.0 -0.0
  outer loop
    vertex 100.0 0.0 40.0
    vertex 100.0 9.999999999999998 0.0
    vertex 100.0 9.999999999999998 40.0
  endloop
endfacet
facet normal -0.0 1.0 -0.0
  outer loop
    vertex 0.0 3.9999999999999996 40.0
    vertex 95.0 3.9999999999999996 0.0
    vertex 0.0 3.9999999999999996 0.0
  endloop
endfacet
facet normal -0.0 1.0 -0.0
  outer loop
    vertex 95.0 3.9999999999999996 0.0
    vertex 0.0 3.9999999999999996 40.0
    vertex 95.0 3.9999999999999996 40.0
  endloop
endfacet
facet normal -0.0 1.0 -0.0
  outer loop
    vertex 75.0 9.999999999999998 40.0
    vertex 100.0 9.999999999999998 0.0
    vertex 75.0 9.999999999999998 0.0
  endloop
endfacet
facet normal -0.0 1.0 -0.0
  outer loop
    vertex 100.0 9.999999999999998 0.0
    vertex 75.0 9.999999999999998 40.0
    vertex 100.0 9.999999999999998 40.0
  endloop
endfacet
facet normal -1.0 0.0 0.0
  outer loop
    vertex 95.0 6.999999999999998 40.0
    vertex 95.0 3.9999999999999996 0.0
    vertex 95.0 3.9999999999999996 40.0
  endloop
endfacet
facet normal -1.0 0.0 0.0
  outer loop
    vertex 95.0 3.9999999999999996 0.0
    vertex 95.0 6.999999999999998 40.0
    vertex 95.0 6.999999999999998 0.0
  endloop
endfacet
facet normal -1.0 0.0 0.0
  outer loop
    vertex 75.0 9.999999999999998 40.0
    vertex 75.0 6.999999999999998 0.0
    vertex 75.0 6.999999999999998 40.0
  endloop
endfacet
facet normal -1.0 0.0 0.0
  outer loop
    vertex 75.0 6.999999999999998 0.0
    vertex 75.0 9.999999999999998 40.0
    vertex 75.0 9.999999999999998 0.0
  endloop
endfacet
facet normal 0.0 -1.0 0.0
  outer loop
    vertex 95.0 6.999999999999998 40.0
    vertex 75.0 6.999999999999998 0.0
    vertex 95.0 6.999999999999998 0.0
  endloop
endfacet
facet normal 0.0 -1.0 0.0
  outer loop
    vertex 75.0 6.999999999999998 0.0
    vertex 95.0 6.999999999999998 40.0
    vertex 75.0 6.999999999999998 40.0
  endloop
endfacet
facet normal 0.0 -1.0 0.0
  outer loop
    vertex 100.0 0.0 40.0
    vertex 5.0 0.0 0.0
    vertex 100.0 0.0 0.0
  endloop
endfacet
facet normal 0.0 -1.0 0.0
  outer loop
    vertex 5.0 0.0 0.0
    vertex 100.0 0.0 40.0
    vertex 5.0 0.0 40.0
  endloop
endfacet
facet normal 0.0 -1.0 0.0
  outer loop
    vertex 30.0 -50.0 40.0
    vertex 0.0 -50.0 0.0
    vertex 30.0 -50.0 0.0
  endloop
endfacet
facet normal 0.0 -1.0 0.0
  outer loop
    vertex 0.0 -50.0 0.0
    vertex 30.0 -50.0 40.0
    vertex 0.0 -50.0 40.0
  endloop
endfacet
facet normal 1.0 -0.0 -0.0
  outer loop
    vertex 5.0 0.0 0.0
    vertex 5.0 -45.0 40.0
    vertex 5.0 -45.0 0.0
  endloop
endfacet
facet normal 1.0 -0.0 -0.0
  outer loop
    vertex 5.0 -45.0 40.0
    vertex 5.0 0.0 0.0
    vertex 5.0 0.0 40.0
  endloop
endfacet
facet normal 1.0 -0.0 -0.0
  outer loop
    vertex 30.0 -29.999999999999996 0.0
    vertex 30.0 -50.0 40.0
    vertex 30.0 -50.0 0.0
  endloop
endfacet
facet normal 1.0 -0.0 -0.0
  outer loop
    vertex 30.0 -50.0 40.0
    vertex 30.0 -29.999999999999996 0.0
    vertex 30.0 -29.999999999999996 40.0
  endloop
endfacet
facet normal -0.0 1.0 -0.0
  outer loop
    vertex 5.0 -45.0 40.0
    vertex 26.000000000000004 -45.0 0.0
    vertex 5.0 -45.0 0.0
  endloop
endfacet
facet normal -0.0 1.0 -0.0
  outer loop
    vertex 26.000000000000004 -45.0 0.0
    vertex 5.0 -45.0 40.0
    vertex 26.000000000000004 -45.0 40.0
  endloop
endfacet
facet normal 0.0 1.0 0.0
  outer loop
    vertex 26.000000000000004 -29.999999999999996 40.0
    vertex 30.0 -29.999999999999996 0.0
    vertex 26.000000000000004 -29.999999999999996 0.0
  endloop
endfacet
facet normal 0.0 1.0 0.0
  outer loop
    vertex 30.0 -29.999999999999996 0.0
    vertex 26.000000000000004 -29.999999999999996 40.0
    vertex 30.0 -29.999999999999996 40.0
  endloop
endfacet
facet normal -1.0 0.0 0.0
  outer loop
    vertex 26.000000000000004 -29.999999999999996 40.0
    vertex 26.000000000000004 -45.0 0.0
    vertex 26.000000000000004 -45.0 40.0
  endloop
endfacet
facet normal -1.0 0.0 0.0
  outer loop
    vertex 26.000000000000004 -45.0 0.0
    vertex 26.000000000000004 -29.999999999999996 40.0
    vertex 26.000000000000004 -29.999999999999996 0.0
  endloop
endfacet
endsolid bytespeicher_kabelhalter
