solid OpenSCAD_Model
  facet normal 0.998795 0.0490679 0
    outer loop
      vertex 2.5 0 12
      vertex 2.48796 0.245043 10
      vertex 2.48796 0.245043 12
    endloop
  endfacet
  facet normal 0.998795 0.0490679 0
    outer loop
      vertex 2.48796 0.245043 10
      vertex 2.5 0 12
      vertex 2.5 0 10
    endloop
  endfacet
  facet normal -0.998795 0.0490679 0
    outer loop
      vertex -2.5 0 10
      vertex -2.48796 0.245043 12
      vertex -2.48796 0.245043 10
    endloop
  endfacet
  facet normal -0.998795 0.0490679 0
    outer loop
      vertex -2.48796 0.245043 12
      vertex -2.5 0 10
      vertex -2.5 0 12
    endloop
  endfacet
  facet normal 0.0490679 0.998795 -0
    outer loop
      vertex 0.245043 2.48796 10
      vertex 0 2.5 12
      vertex 0.245043 2.48796 12
    endloop
  endfacet
  facet normal 0.0490679 0.998795 0
    outer loop
      vertex 0 2.5 12
      vertex 0.245043 2.48796 10
      vertex 0 2.5 10
    endloop
  endfacet
  facet normal -0.0490679 -0.998795 0
    outer loop
      vertex -0.245043 -2.48796 10
      vertex 0 -2.5 12
      vertex -0.245043 -2.48796 12
    endloop
  endfacet
  facet normal -0.0490679 -0.998795 -0
    outer loop
      vertex 0 -2.5 12
      vertex -0.245043 -2.48796 10
      vertex 0 -2.5 10
    endloop
  endfacet
  facet normal -0.740954 -0.671556 0
    outer loop
      vertex -1.76777 -1.76777 10
      vertex -1.93253 -1.58598 12
      vertex -1.93253 -1.58598 10
    endloop
  endfacet
  facet normal -0.740954 -0.671556 0
    outer loop
      vertex -1.93253 -1.58598 12
      vertex -1.76777 -1.76777 10
      vertex -1.76777 -1.76777 12
    endloop
  endfacet
  facet normal 0.740954 0.671556 0
    outer loop
      vertex 1.93253 1.58598 12
      vertex 1.76777 1.76777 10
      vertex 1.76777 1.76777 12
    endloop
  endfacet
  facet normal 0.740954 0.671556 0
    outer loop
      vertex 1.76777 1.76777 10
      vertex 1.93253 1.58598 12
      vertex 1.93253 1.58598 10
    endloop
  endfacet
  facet normal -0.671556 0.740954 0
    outer loop
      vertex -1.58598 1.93253 10
      vertex -1.76777 1.76777 12
      vertex -1.58598 1.93253 12
    endloop
  endfacet
  facet normal -0.671556 0.740954 0
    outer loop
      vertex -1.76777 1.76777 12
      vertex -1.58598 1.93253 10
      vertex -1.76777 1.76777 10
    endloop
  endfacet
  facet normal -0.33689 0.941544 0
    outer loop
      vertex -0.725711 2.39235 10
      vertex -0.956708 2.3097 12
      vertex -0.725711 2.39235 12
    endloop
  endfacet
  facet normal -0.33689 0.941544 0
    outer loop
      vertex -0.956708 2.3097 12
      vertex -0.725711 2.39235 10
      vertex -0.956708 2.3097 10
    endloop
  endfacet
  facet normal 0.90399 0.427554 0
    outer loop
      vertex 2.3097 0.956708 12
      vertex 2.2048 1.17849 10
      vertex 2.2048 1.17849 12
    endloop
  endfacet
  facet normal 0.90399 0.427554 0
    outer loop
      vertex 2.2048 1.17849 10
      vertex 2.3097 0.956708 12
      vertex 2.3097 0.956708 10
    endloop
  endfacet
  facet normal 0.857729 0.514102 0
    outer loop
      vertex 2.2048 1.17849 12
      vertex 2.07867 1.38893 10
      vertex 2.07867 1.38893 12
    endloop
  endfacet
  facet normal 0.857729 0.514102 0
    outer loop
      vertex 2.07867 1.38893 10
      vertex 2.2048 1.17849 12
      vertex 2.2048 1.17849 10
    endloop
  endfacet
  facet normal 0.427554 0.90399 -0
    outer loop
      vertex 1.17849 2.2048 10
      vertex 0.956708 2.3097 12
      vertex 1.17849 2.2048 12
    endloop
  endfacet
  facet normal 0.427554 0.90399 0
    outer loop
      vertex 0.956708 2.3097 12
      vertex 1.17849 2.2048 10
      vertex 0.956708 2.3097 10
    endloop
  endfacet
  facet normal 0.595701 0.803207 -0
    outer loop
      vertex 1.58598 1.93253 10
      vertex 1.38893 2.07867 12
      vertex 1.58598 1.93253 12
    endloop
  endfacet
  facet normal 0.595701 0.803207 0
    outer loop
      vertex 1.38893 2.07867 12
      vertex 1.58598 1.93253 10
      vertex 1.38893 2.07867 10
    endloop
  endfacet
  facet normal -0.90399 0.427554 0
    outer loop
      vertex -2.3097 0.956708 10
      vertex -2.2048 1.17849 12
      vertex -2.2048 1.17849 10
    endloop
  endfacet
  facet normal -0.90399 0.427554 0
    outer loop
      vertex -2.2048 1.17849 12
      vertex -2.3097 0.956708 10
      vertex -2.3097 0.956708 12
    endloop
  endfacet
  facet normal -0.146733 0.989176 0
    outer loop
      vertex -0.245043 2.48796 10
      vertex -0.487725 2.45196 12
      vertex -0.245043 2.48796 12
    endloop
  endfacet
  facet normal -0.146733 0.989176 0
    outer loop
      vertex -0.487725 2.45196 12
      vertex -0.245043 2.48796 10
      vertex -0.487725 2.45196 10
    endloop
  endfacet
  facet normal 0.970031 0.24298 0
    outer loop
      vertex 2.45196 0.487725 12
      vertex 2.39235 0.725711 10
      vertex 2.39235 0.725711 12
    endloop
  endfacet
  facet normal 0.970031 0.24298 0
    outer loop
      vertex 2.39235 0.725711 10
      vertex 2.45196 0.487725 12
      vertex 2.45196 0.487725 10
    endloop
  endfacet
  facet normal 0.989176 0.146733 0
    outer loop
      vertex 2.48796 0.245043 12
      vertex 2.45196 0.487725 10
      vertex 2.45196 0.487725 12
    endloop
  endfacet
  facet normal 0.989176 0.146733 0
    outer loop
      vertex 2.45196 0.487725 10
      vertex 2.48796 0.245043 12
      vertex 2.48796 0.245043 10
    endloop
  endfacet
  facet normal 0.941544 0.33689 0
    outer loop
      vertex 2.39235 0.725711 12
      vertex 2.3097 0.956708 10
      vertex 2.3097 0.956708 12
    endloop
  endfacet
  facet normal 0.941544 0.33689 0
    outer loop
      vertex 2.3097 0.956708 10
      vertex 2.39235 0.725711 12
      vertex 2.39235 0.725711 10
    endloop
  endfacet
  facet normal 0.803207 0.595701 0
    outer loop
      vertex 2.07867 1.38893 12
      vertex 1.93253 1.58598 10
      vertex 1.93253 1.58598 12
    endloop
  endfacet
  facet normal 0.803207 0.595701 0
    outer loop
      vertex 1.93253 1.58598 10
      vertex 2.07867 1.38893 12
      vertex 2.07867 1.38893 10
    endloop
  endfacet
  facet normal 0.24298 0.970031 -0
    outer loop
      vertex 0.725711 2.39235 10
      vertex 0.487725 2.45196 12
      vertex 0.725711 2.39235 12
    endloop
  endfacet
  facet normal 0.24298 0.970031 0
    outer loop
      vertex 0.487725 2.45196 12
      vertex 0.725711 2.39235 10
      vertex 0.487725 2.45196 10
    endloop
  endfacet
  facet normal 0.33689 0.941544 -0
    outer loop
      vertex 0.956708 2.3097 10
      vertex 0.725711 2.39235 12
      vertex 0.956708 2.3097 12
    endloop
  endfacet
  facet normal 0.33689 0.941544 0
    outer loop
      vertex 0.725711 2.39235 12
      vertex 0.956708 2.3097 10
      vertex 0.725711 2.39235 10
    endloop
  endfacet
  facet normal 0.146733 0.989176 -0
    outer loop
      vertex 0.487725 2.45196 10
      vertex 0.245043 2.48796 12
      vertex 0.487725 2.45196 12
    endloop
  endfacet
  facet normal 0.146733 0.989176 0
    outer loop
      vertex 0.245043 2.48796 12
      vertex 0.487725 2.45196 10
      vertex 0.245043 2.48796 10
    endloop
  endfacet
  facet normal 0.514102 0.857729 -0
    outer loop
      vertex 1.38893 2.07867 10
      vertex 1.17849 2.2048 12
      vertex 1.38893 2.07867 12
    endloop
  endfacet
  facet normal 0.514102 0.857729 0
    outer loop
      vertex 1.17849 2.2048 12
      vertex 1.38893 2.07867 10
      vertex 1.17849 2.2048 10
    endloop
  endfacet
  facet normal 0.671556 0.740954 -0
    outer loop
      vertex 1.76777 1.76777 10
      vertex 1.58598 1.93253 12
      vertex 1.76777 1.76777 12
    endloop
  endfacet
  facet normal 0.671556 0.740954 0
    outer loop
      vertex 1.58598 1.93253 12
      vertex 1.76777 1.76777 10
      vertex 1.58598 1.93253 10
    endloop
  endfacet
  facet normal -0.970031 0.24298 0
    outer loop
      vertex -2.45196 0.487725 10
      vertex -2.39235 0.725711 12
      vertex -2.39235 0.725711 10
    endloop
  endfacet
  facet normal -0.970031 0.24298 0
    outer loop
      vertex -2.39235 0.725711 12
      vertex -2.45196 0.487725 10
      vertex -2.45196 0.487725 12
    endloop
  endfacet
  facet normal -0.803207 0.595701 0
    outer loop
      vertex -2.07867 1.38893 10
      vertex -1.93253 1.58598 12
      vertex -1.93253 1.58598 10
    endloop
  endfacet
  facet normal -0.803207 0.595701 0
    outer loop
      vertex -1.93253 1.58598 12
      vertex -2.07867 1.38893 10
      vertex -2.07867 1.38893 12
    endloop
  endfacet
  facet normal -0.740954 0.671556 0
    outer loop
      vertex -1.93253 1.58598 10
      vertex -1.76777 1.76777 12
      vertex -1.76777 1.76777 10
    endloop
  endfacet
  facet normal -0.740954 0.671556 0
    outer loop
      vertex -1.76777 1.76777 12
      vertex -1.93253 1.58598 10
      vertex -1.93253 1.58598 12
    endloop
  endfacet
  facet normal -0.857729 0.514102 0
    outer loop
      vertex -2.2048 1.17849 10
      vertex -2.07867 1.38893 12
      vertex -2.07867 1.38893 10
    endloop
  endfacet
  facet normal -0.857729 0.514102 0
    outer loop
      vertex -2.07867 1.38893 12
      vertex -2.2048 1.17849 10
      vertex -2.2048 1.17849 12
    endloop
  endfacet
  facet normal -0.941544 0.33689 0
    outer loop
      vertex -2.39235 0.725711 10
      vertex -2.3097 0.956708 12
      vertex -2.3097 0.956708 10
    endloop
  endfacet
  facet normal -0.941544 0.33689 0
    outer loop
      vertex -2.3097 0.956708 12
      vertex -2.39235 0.725711 10
      vertex -2.39235 0.725711 12
    endloop
  endfacet
  facet normal -0.989176 0.146733 0
    outer loop
      vertex -2.48796 0.245043 10
      vertex -2.45196 0.487725 12
      vertex -2.45196 0.487725 10
    endloop
  endfacet
  facet normal -0.989176 0.146733 0
    outer loop
      vertex -2.45196 0.487725 12
      vertex -2.48796 0.245043 10
      vertex -2.48796 0.245043 12
    endloop
  endfacet
  facet normal 0 0 -1
    outer loop
      vertex 1.3 0 10
      vertex 2.5 0 10
      vertex 2.48796 -0.245043 10
    endloop
  endfacet
  facet normal 0 0 -1
    outer loop
      vertex 1.29374 -0.127421 10
      vertex 2.48796 -0.245043 10
      vertex 2.45196 -0.487725 10
    endloop
  endfacet
  facet normal 0 0 -1
    outer loop
      vertex 2.5 0 10
      vertex 1.3 0 10
      vertex 2.48796 0.245043 10
    endloop
  endfacet
  facet normal 0 0 -1
    outer loop
      vertex 1.27502 -0.253617 10
      vertex 2.45196 -0.487725 10
      vertex 2.39235 -0.725711 10
    endloop
  endfacet
  facet normal 0 0 -1
    outer loop
      vertex 1.29374 0.127421 10
      vertex 2.48796 0.245043 10
      vertex 1.3 0 10
    endloop
  endfacet
  facet normal 0 0 -1
    outer loop
      vertex 1.24402 -0.37737 10
      vertex 2.39235 -0.725711 10
      vertex 2.3097 -0.956708 10
    endloop
  endfacet
  facet normal -0 0 -1
    outer loop
      vertex 2.48796 0.245043 10
      vertex 1.29374 0.127421 10
      vertex 2.45196 0.487725 10
    endloop
  endfacet
  facet normal 0 0 -1
    outer loop
      vertex 1.20104 -0.497488 10
      vertex 2.3097 -0.956708 10
      vertex 2.2048 -1.17849 10
    endloop
  endfacet
  facet normal 0 0 -1
    outer loop
      vertex 1.27502 0.253617 10
      vertex 2.45196 0.487725 10
      vertex 1.29374 0.127421 10
    endloop
  endfacet
  facet normal 0 0 -1
    outer loop
      vertex 1.1465 -0.612815 10
      vertex 2.2048 -1.17849 10
      vertex 2.07867 -1.38893 10
    endloop
  endfacet
  facet normal -0 0 -1
    outer loop
      vertex 2.45196 0.487725 10
      vertex 1.27502 0.253617 10
      vertex 2.39235 0.725711 10
    endloop
  endfacet
  facet normal 0 0 -1
    outer loop
      vertex 1.08091 -0.72224 10
      vertex 2.07867 -1.38893 10
      vertex 1.93253 -1.58598 10
    endloop
  endfacet
  facet normal 0 0 -1
    outer loop
      vertex 1.24402 0.37737 10
      vertex 2.39235 0.725711 10
      vertex 1.27502 0.253617 10
    endloop
  endfacet
  facet normal 0 0 -1
    outer loop
      vertex 1.00491 -0.824711 10
      vertex 1.93253 -1.58598 10
      vertex 1.76777 -1.76777 10
    endloop
  endfacet
  facet normal -0 0 -1
    outer loop
      vertex 2.39235 0.725711 10
      vertex 1.24402 0.37737 10
      vertex 2.3097 0.956708 10
    endloop
  endfacet
  facet normal 0 0 -1
    outer loop
      vertex 0.919238 -0.919238 10
      vertex 1.76777 -1.76777 10
      vertex 1.58598 -1.93253 10
    endloop
  endfacet
  facet normal 0 0 -1
    outer loop
      vertex 1.20104 0.497488 10
      vertex 2.3097 0.956708 10
      vertex 1.24402 0.37737 10
    endloop
  endfacet
  facet normal 0 0 -1
    outer loop
      vertex 0.824711 -1.00491 10
      vertex 1.58598 -1.93253 10
      vertex 1.38893 -2.07867 10
    endloop
  endfacet
  facet normal -0 0 -1
    outer loop
      vertex 2.3097 0.956708 10
      vertex 1.20104 0.497488 10
      vertex 2.2048 1.17849 10
    endloop
  endfacet
  facet normal 0 0 -1
    outer loop
      vertex 1.1465 0.612815 10
      vertex 2.2048 1.17849 10
      vertex 1.20104 0.497488 10
    endloop
  endfacet
  facet normal 0 0 -1
    outer loop
      vertex 2.48796 -0.245043 10
      vertex 1.29374 -0.127421 10
      vertex 1.3 0 10
    endloop
  endfacet
  facet normal 0 0 -1
    outer loop
      vertex 2.45196 -0.487725 10
      vertex 1.27502 -0.253617 10
      vertex 1.29374 -0.127421 10
    endloop
  endfacet
  facet normal 0 0 -1
    outer loop
      vertex 2.39235 -0.725711 10
      vertex 1.24402 -0.37737 10
      vertex 1.27502 -0.253617 10
    endloop
  endfacet
  facet normal 0 0 -1
    outer loop
      vertex 2.3097 -0.956708 10
      vertex 1.20104 -0.497488 10
      vertex 1.24402 -0.37737 10
    endloop
  endfacet
  facet normal 0 0 -1
    outer loop
      vertex 0.72224 -1.08091 10
      vertex 1.38893 -2.07867 10
      vertex 1.17849 -2.2048 10
    endloop
  endfacet
  facet normal 0 0 -1
    outer loop
      vertex 2.2048 -1.17849 10
      vertex 1.1465 -0.612815 10
      vertex 1.20104 -0.497488 10
    endloop
  endfacet
  facet normal 0 0 -1
    outer loop
      vertex 2.07867 -1.38893 10
      vertex 1.08091 -0.72224 10
      vertex 1.1465 -0.612815 10
    endloop
  endfacet
  facet normal 0 0 -1
    outer loop
      vertex 1.93253 -1.58598 10
      vertex 1.00491 -0.824711 10
      vertex 1.08091 -0.72224 10
    endloop
  endfacet
  facet normal 0 0 -1
    outer loop
      vertex 0.612815 -1.1465 10
      vertex 1.17849 -2.2048 10
      vertex 0.956708 -2.3097 10
    endloop
  endfacet
  facet normal 0 0 -1
    outer loop
      vertex 1.76777 -1.76777 10
      vertex 0.919238 -0.919238 10
      vertex 1.00491 -0.824711 10
    endloop
  endfacet
  facet normal 0 0 -1
    outer loop
      vertex 1.58598 -1.93253 10
      vertex 0.824711 -1.00491 10
      vertex 0.919238 -0.919238 10
    endloop
  endfacet
  facet normal 0 0 -1
    outer loop
      vertex 0.497488 -1.20104 10
      vertex 0.956708 -2.3097 10
      vertex 0.725711 -2.39235 10
    endloop
  endfacet
  facet normal 0 0 -1
    outer loop
      vertex 1.38893 -2.07867 10
      vertex 0.72224 -1.08091 10
      vertex 0.824711 -1.00491 10
    endloop
  endfacet
  facet normal 0 0 -1
    outer loop
      vertex 1.17849 -2.2048 10
      vertex 0.612815 -1.1465 10
      vertex 0.72224 -1.08091 10
    endloop
  endfacet
  facet normal 0 0 -1
    outer loop
      vertex 0.956708 -2.3097 10
      vertex 0.497488 -1.20104 10
      vertex 0.612815 -1.1465 10
    endloop
  endfacet
  facet normal 0 0 -1
    outer loop
      vertex 0.37737 -1.24402 10
      vertex 0.725711 -2.39235 10
      vertex 0.487725 -2.45196 10
    endloop
  endfacet
  facet normal 0 0 -1
    outer loop
      vertex 0.725711 -2.39235 10
      vertex 0.37737 -1.24402 10
      vertex 0.497488 -1.20104 10
    endloop
  endfacet
  facet normal 0 0 -1
    outer loop
      vertex 0.487725 -2.45196 10
      vertex 0.253617 -1.27502 10
      vertex 0.37737 -1.24402 10
    endloop
  endfacet
  facet normal 0 0 -1
    outer loop
      vertex 0.245043 -2.48796 10
      vertex 0.253617 -1.27502 10
      vertex 0.487725 -2.45196 10
    endloop
  endfacet
  facet normal 0 0 -1
    outer loop
      vertex 0.245043 -2.48796 10
      vertex 0.127421 -1.29374 10
      vertex 0.253617 -1.27502 10
    endloop
  endfacet
  facet normal 0 0 -1
    outer loop
      vertex 0 -2.5 10
      vertex 0.127421 -1.29374 10
      vertex 0.245043 -2.48796 10
    endloop
  endfacet
  facet normal 0 0 -1
    outer loop
      vertex 0 -2.5 10
      vertex 0 -1.3 10
      vertex 0.127421 -1.29374 10
    endloop
  endfacet
  facet normal 0 0 -1
    outer loop
      vertex 0 -2.5 10
      vertex -0.127421 -1.29374 10
      vertex 0 -1.3 10
    endloop
  endfacet
  facet normal 0 0 -1
    outer loop
      vertex -0.245043 -2.48796 10
      vertex -0.127421 -1.29374 10
      vertex 0 -2.5 10
    endloop
  endfacet
  facet normal 0 0 -1
    outer loop
      vertex -0.245043 -2.48796 10
      vertex -0.253617 -1.27502 10
      vertex -0.127421 -1.29374 10
    endloop
  endfacet
  facet normal 0 0 -1
    outer loop
      vertex -0.487725 -2.45196 10
      vertex -0.253617 -1.27502 10
      vertex -0.245043 -2.48796 10
    endloop
  endfacet
  facet normal -0 0 -1
    outer loop
      vertex -0.253617 -1.27502 10
      vertex -0.487725 -2.45196 10
      vertex -0.37737 -1.24402 10
    endloop
  endfacet
  facet normal 0 0 -1
    outer loop
      vertex -0.725711 -2.39235 10
      vertex -0.37737 -1.24402 10
      vertex -0.487725 -2.45196 10
    endloop
  endfacet
  facet normal -0 0 -1
    outer loop
      vertex -0.37737 -1.24402 10
      vertex -0.725711 -2.39235 10
      vertex -0.497488 -1.20104 10
    endloop
  endfacet
  facet normal 0 0 -1
    outer loop
      vertex -0.956708 -2.3097 10
      vertex -0.497488 -1.20104 10
      vertex -0.725711 -2.39235 10
    endloop
  endfacet
  facet normal -0 0 -1
    outer loop
      vertex -0.497488 -1.20104 10
      vertex -0.956708 -2.3097 10
      vertex -0.612815 -1.1465 10
    endloop
  endfacet
  facet normal 0 0 -1
    outer loop
      vertex -1.17849 -2.2048 10
      vertex -0.612815 -1.1465 10
      vertex -0.956708 -2.3097 10
    endloop
  endfacet
  facet normal -0 0 -1
    outer loop
      vertex -0.612815 -1.1465 10
      vertex -1.17849 -2.2048 10
      vertex -0.72224 -1.08091 10
    endloop
  endfacet
  facet normal 0 0 -1
    outer loop
      vertex -1.38893 -2.07867 10
      vertex -0.72224 -1.08091 10
      vertex -1.17849 -2.2048 10
    endloop
  endfacet
  facet normal -0 0 -1
    outer loop
      vertex -0.72224 -1.08091 10
      vertex -1.38893 -2.07867 10
      vertex -0.824711 -1.00491 10
    endloop
  endfacet
  facet normal 0 0 -1
    outer loop
      vertex -1.58598 -1.93253 10
      vertex -0.824711 -1.00491 10
      vertex -1.38893 -2.07867 10
    endloop
  endfacet
  facet normal -0 0 -1
    outer loop
      vertex -0.824711 -1.00491 10
      vertex -1.58598 -1.93253 10
      vertex -0.919238 -0.919238 10
    endloop
  endfacet
  facet normal 0 0 -1
    outer loop
      vertex -1.76777 -1.76777 10
      vertex -0.919238 -0.919238 10
      vertex -1.58598 -1.93253 10
    endloop
  endfacet
  facet normal -0 0 -1
    outer loop
      vertex -0.919238 -0.919238 10
      vertex -1.76777 -1.76777 10
      vertex -1.00491 -0.824711 10
    endloop
  endfacet
  facet normal 0 0 -1
    outer loop
      vertex -1.93253 -1.58598 10
      vertex -1.00491 -0.824711 10
      vertex -1.76777 -1.76777 10
    endloop
  endfacet
  facet normal -0 0 -1
    outer loop
      vertex -1.00491 -0.824711 10
      vertex -1.93253 -1.58598 10
      vertex -1.08091 -0.72224 10
    endloop
  endfacet
  facet normal 0 0 -1
    outer loop
      vertex -2.07867 -1.38893 10
      vertex -1.08091 -0.72224 10
      vertex -1.93253 -1.58598 10
    endloop
  endfacet
  facet normal 0 0 -1
    outer loop
      vertex -2.2048 -1.17849 10
      vertex -1.1465 -0.612815 10
      vertex -2.07867 -1.38893 10
    endloop
  endfacet
  facet normal -0 0 -1
    outer loop
      vertex -1.08091 -0.72224 10
      vertex -2.07867 -1.38893 10
      vertex -1.1465 -0.612815 10
    endloop
  endfacet
  facet normal -0 0 -1
    outer loop
      vertex 2.2048 1.17849 10
      vertex 1.1465 0.612815 10
      vertex 2.07867 1.38893 10
    endloop
  endfacet
  facet normal 0 0 -1
    outer loop
      vertex 1.08091 0.72224 10
      vertex 2.07867 1.38893 10
      vertex 1.1465 0.612815 10
    endloop
  endfacet
  facet normal -0 0 -1
    outer loop
      vertex 2.07867 1.38893 10
      vertex 1.08091 0.72224 10
      vertex 1.93253 1.58598 10
    endloop
  endfacet
  facet normal 0 0 -1
    outer loop
      vertex 1.00491 0.824711 10
      vertex 1.93253 1.58598 10
      vertex 1.08091 0.72224 10
    endloop
  endfacet
  facet normal -0 0 -1
    outer loop
      vertex 1.93253 1.58598 10
      vertex 1.00491 0.824711 10
      vertex 1.76777 1.76777 10
    endloop
  endfacet
  facet normal 0 0 -1
    outer loop
      vertex 0.919238 0.919238 10
      vertex 1.76777 1.76777 10
      vertex 1.00491 0.824711 10
    endloop
  endfacet
  facet normal -0 0 -1
    outer loop
      vertex 1.76777 1.76777 10
      vertex 0.919238 0.919238 10
      vertex 1.58598 1.93253 10
    endloop
  endfacet
  facet normal 0 0 -1
    outer loop
      vertex 0.824711 1.00491 10
      vertex 1.58598 1.93253 10
      vertex 0.919238 0.919238 10
    endloop
  endfacet
  facet normal -0 0 -1
    outer loop
      vertex 1.58598 1.93253 10
      vertex 0.824711 1.00491 10
      vertex 1.38893 2.07867 10
    endloop
  endfacet
  facet normal 0 0 -1
    outer loop
      vertex 0.72224 1.08091 10
      vertex 1.38893 2.07867 10
      vertex 0.824711 1.00491 10
    endloop
  endfacet
  facet normal -0 0 -1
    outer loop
      vertex 1.38893 2.07867 10
      vertex 0.72224 1.08091 10
      vertex 1.17849 2.2048 10
    endloop
  endfacet
  facet normal 0 0 -1
    outer loop
      vertex 0.612815 1.1465 10
      vertex 1.17849 2.2048 10
      vertex 0.72224 1.08091 10
    endloop
  endfacet
  facet normal -0 0 -1
    outer loop
      vertex 1.17849 2.2048 10
      vertex 0.612815 1.1465 10
      vertex 0.956708 2.3097 10
    endloop
  endfacet
  facet normal 0 0 -1
    outer loop
      vertex 0.497488 1.20104 10
      vertex 0.956708 2.3097 10
      vertex 0.612815 1.1465 10
    endloop
  endfacet
  facet normal -0 0 -1
    outer loop
      vertex 0.956708 2.3097 10
      vertex 0.497488 1.20104 10
      vertex 0.725711 2.39235 10
    endloop
  endfacet
  facet normal 0 0 -1
    outer loop
      vertex 0.37737 1.24402 10
      vertex 0.725711 2.39235 10
      vertex 0.497488 1.20104 10
    endloop
  endfacet
  facet normal -0 0 -1
    outer loop
      vertex 0.725711 2.39235 10
      vertex 0.37737 1.24402 10
      vertex 0.487725 2.45196 10
    endloop
  endfacet
  facet normal 0 0 -1
    outer loop
      vertex 0.253617 1.27502 10
      vertex 0.487725 2.45196 10
      vertex 0.37737 1.24402 10
    endloop
  endfacet
  facet normal 0 0 -1
    outer loop
      vertex 0.253617 1.27502 10
      vertex 0.245043 2.48796 10
      vertex 0.487725 2.45196 10
    endloop
  endfacet
  facet normal 0 0 -1
    outer loop
      vertex 0.127421 1.29374 10
      vertex 0.245043 2.48796 10
      vertex 0.253617 1.27502 10
    endloop
  endfacet
  facet normal 0 0 -1
    outer loop
      vertex 0 1.3 10
      vertex 0.245043 2.48796 10
      vertex 0.127421 1.29374 10
    endloop
  endfacet
  facet normal 0 0 -1
    outer loop
      vertex 0 1.3 10
      vertex 0 2.5 10
      vertex 0.245043 2.48796 10
    endloop
  endfacet
  facet normal 0 0 -1
    outer loop
      vertex -0.127421 1.29374 10
      vertex 0 2.5 10
      vertex 0 1.3 10
    endloop
  endfacet
  facet normal 0 0 -1
    outer loop
      vertex -0.127421 1.29374 10
      vertex -0.245043 2.48796 10
      vertex 0 2.5 10
    endloop
  endfacet
  facet normal 0 0 -1
    outer loop
      vertex -0.253617 1.27502 10
      vertex -0.245043 2.48796 10
      vertex -0.127421 1.29374 10
    endloop
  endfacet
  facet normal 0 0 -1
    outer loop
      vertex -0.487725 2.45196 10
      vertex -0.253617 1.27502 10
      vertex -0.37737 1.24402 10
    endloop
  endfacet
  facet normal 0 0 -1
    outer loop
      vertex -0.253617 1.27502 10
      vertex -0.487725 2.45196 10
      vertex -0.245043 2.48796 10
    endloop
  endfacet
  facet normal 0 0 -1
    outer loop
      vertex -0.725711 2.39235 10
      vertex -0.37737 1.24402 10
      vertex -0.497488 1.20104 10
    endloop
  endfacet
  facet normal 0 0 -1
    outer loop
      vertex -0.956708 2.3097 10
      vertex -0.497488 1.20104 10
      vertex -0.612815 1.1465 10
    endloop
  endfacet
  facet normal 0 0 -1
    outer loop
      vertex -1.17849 2.2048 10
      vertex -0.612815 1.1465 10
      vertex -0.72224 1.08091 10
    endloop
  endfacet
  facet normal 0 0 -1
    outer loop
      vertex -0.37737 1.24402 10
      vertex -0.725711 2.39235 10
      vertex -0.487725 2.45196 10
    endloop
  endfacet
  facet normal 0 0 -1
    outer loop
      vertex -1.38893 2.07867 10
      vertex -0.72224 1.08091 10
      vertex -0.824711 1.00491 10
    endloop
  endfacet
  facet normal 0 0 -1
    outer loop
      vertex -1.58598 1.93253 10
      vertex -0.824711 1.00491 10
      vertex -0.919238 0.919238 10
    endloop
  endfacet
  facet normal 0 0 -1
    outer loop
      vertex -0.497488 1.20104 10
      vertex -0.956708 2.3097 10
      vertex -0.725711 2.39235 10
    endloop
  endfacet
  facet normal 0 0 -1
    outer loop
      vertex -1.76777 1.76777 10
      vertex -0.919238 0.919238 10
      vertex -1.00491 0.824711 10
    endloop
  endfacet
  facet normal 0 0 -1
    outer loop
      vertex -1.93253 1.58598 10
      vertex -1.00491 0.824711 10
      vertex -1.08091 0.72224 10
    endloop
  endfacet
  facet normal 0 0 -1
    outer loop
      vertex -2.07867 1.38893 10
      vertex -1.08091 0.72224 10
      vertex -1.1465 0.612815 10
    endloop
  endfacet
  facet normal 0 0 -1
    outer loop
      vertex -0.612815 1.1465 10
      vertex -1.17849 2.2048 10
      vertex -0.956708 2.3097 10
    endloop
  endfacet
  facet normal 0 0 -1
    outer loop
      vertex -2.2048 1.17849 10
      vertex -1.1465 0.612815 10
      vertex -1.20104 0.497488 10
    endloop
  endfacet
  facet normal 0 0 -1
    outer loop
      vertex -2.3097 0.956708 10
      vertex -1.20104 0.497488 10
      vertex -1.24402 0.37737 10
    endloop
  endfacet
  facet normal 0 0 -1
    outer loop
      vertex -2.39235 0.725711 10
      vertex -1.24402 0.37737 10
      vertex -1.27502 0.253617 10
    endloop
  endfacet
  facet normal 0 0 -1
    outer loop
      vertex -2.45196 0.487725 10
      vertex -1.27502 0.253617 10
      vertex -1.29374 0.127421 10
    endloop
  endfacet
  facet normal 0 0 -1
    outer loop
      vertex -0.72224 1.08091 10
      vertex -1.38893 2.07867 10
      vertex -1.17849 2.2048 10
    endloop
  endfacet
  facet normal 0 0 -1
    outer loop
      vertex -2.48796 0.245043 10
      vertex -1.29374 0.127421 10
      vertex -1.3 0 10
    endloop
  endfacet
  facet normal -0 0 -1
    outer loop
      vertex -1.1465 -0.612815 10
      vertex -2.2048 -1.17849 10
      vertex -1.20104 -0.497488 10
    endloop
  endfacet
  facet normal 0 0 -1
    outer loop
      vertex -2.3097 -0.956708 10
      vertex -1.20104 -0.497488 10
      vertex -2.2048 -1.17849 10
    endloop
  endfacet
  facet normal 0 0 -1
    outer loop
      vertex -0.824711 1.00491 10
      vertex -1.58598 1.93253 10
      vertex -1.38893 2.07867 10
    endloop
  endfacet
  facet normal -0 0 -1
    outer loop
      vertex -1.20104 -0.497488 10
      vertex -2.3097 -0.956708 10
      vertex -1.24402 -0.37737 10
    endloop
  endfacet
  facet normal 0 0 -1
    outer loop
      vertex -0.919238 0.919238 10
      vertex -1.76777 1.76777 10
      vertex -1.58598 1.93253 10
    endloop
  endfacet
  facet normal 0 0 -1
    outer loop
      vertex -2.39235 -0.725711 10
      vertex -1.24402 -0.37737 10
      vertex -2.3097 -0.956708 10
    endloop
  endfacet
  facet normal 0 0 -1
    outer loop
      vertex -1.00491 0.824711 10
      vertex -1.93253 1.58598 10
      vertex -1.76777 1.76777 10
    endloop
  endfacet
  facet normal -0 0 -1
    outer loop
      vertex -1.24402 -0.37737 10
      vertex -2.39235 -0.725711 10
      vertex -1.27502 -0.253617 10
    endloop
  endfacet
  facet normal 0 0 -1
    outer loop
      vertex -1.08091 0.72224 10
      vertex -2.07867 1.38893 10
      vertex -1.93253 1.58598 10
    endloop
  endfacet
  facet normal 0 0 -1
    outer loop
      vertex -2.45196 -0.487725 10
      vertex -1.27502 -0.253617 10
      vertex -2.39235 -0.725711 10
    endloop
  endfacet
  facet normal 0 0 -1
    outer loop
      vertex -1.1465 0.612815 10
      vertex -2.2048 1.17849 10
      vertex -2.07867 1.38893 10
    endloop
  endfacet
  facet normal -0 0 -1
    outer loop
      vertex -1.27502 -0.253617 10
      vertex -2.45196 -0.487725 10
      vertex -1.29374 -0.127421 10
    endloop
  endfacet
  facet normal 0 0 -1
    outer loop
      vertex -1.20104 0.497488 10
      vertex -2.3097 0.956708 10
      vertex -2.2048 1.17849 10
    endloop
  endfacet
  facet normal 0 0 -1
    outer loop
      vertex -2.48796 -0.245043 10
      vertex -1.29374 -0.127421 10
      vertex -2.45196 -0.487725 10
    endloop
  endfacet
  facet normal 0 0 -1
    outer loop
      vertex -1.24402 0.37737 10
      vertex -2.39235 0.725711 10
      vertex -2.3097 0.956708 10
    endloop
  endfacet
  facet normal -0 0 -1
    outer loop
      vertex -1.29374 -0.127421 10
      vertex -2.48796 -0.245043 10
      vertex -1.3 0 10
    endloop
  endfacet
  facet normal 0 0 -1
    outer loop
      vertex -1.27502 0.253617 10
      vertex -2.45196 0.487725 10
      vertex -2.39235 0.725711 10
    endloop
  endfacet
  facet normal 0 0 -1
    outer loop
      vertex -2.5 0 10
      vertex -1.3 0 10
      vertex -2.48796 -0.245043 10
    endloop
  endfacet
  facet normal 0 0 -1
    outer loop
      vertex -1.29374 0.127421 10
      vertex -2.48796 0.245043 10
      vertex -2.45196 0.487725 10
    endloop
  endfacet
  facet normal 0 0 -1
    outer loop
      vertex -1.3 0 10
      vertex -2.5 0 10
      vertex -2.48796 0.245043 10
    endloop
  endfacet
  facet normal -0.514102 0.857729 0
    outer loop
      vertex -1.17849 2.2048 10
      vertex -1.38893 2.07867 12
      vertex -1.17849 2.2048 12
    endloop
  endfacet
  facet normal -0.514102 0.857729 0
    outer loop
      vertex -1.38893 2.07867 12
      vertex -1.17849 2.2048 10
      vertex -1.38893 2.07867 10
    endloop
  endfacet
  facet normal -0.427554 0.90399 0
    outer loop
      vertex -0.956708 2.3097 10
      vertex -1.17849 2.2048 12
      vertex -0.956708 2.3097 12
    endloop
  endfacet
  facet normal -0.427554 0.90399 0
    outer loop
      vertex -1.17849 2.2048 12
      vertex -0.956708 2.3097 10
      vertex -1.17849 2.2048 10
    endloop
  endfacet
  facet normal -0.595701 0.803207 0
    outer loop
      vertex -1.38893 2.07867 10
      vertex -1.58598 1.93253 12
      vertex -1.38893 2.07867 12
    endloop
  endfacet
  facet normal -0.595701 0.803207 0
    outer loop
      vertex -1.58598 1.93253 12
      vertex -1.38893 2.07867 10
      vertex -1.58598 1.93253 10
    endloop
  endfacet
  facet normal -0.24298 0.970031 0
    outer loop
      vertex -0.487725 2.45196 10
      vertex -0.725711 2.39235 12
      vertex -0.487725 2.45196 12
    endloop
  endfacet
  facet normal -0.24298 0.970031 0
    outer loop
      vertex -0.725711 2.39235 12
      vertex -0.487725 2.45196 10
      vertex -0.725711 2.39235 10
    endloop
  endfacet
  facet normal -0.0490679 0.998795 0
    outer loop
      vertex 0 2.5 10
      vertex -0.245043 2.48796 12
      vertex 0 2.5 12
    endloop
  endfacet
  facet normal -0.0490679 0.998795 0
    outer loop
      vertex -0.245043 2.48796 12
      vertex 0 2.5 10
      vertex -0.245043 2.48796 10
    endloop
  endfacet
  facet normal 0.998795 -0.0490679 0
    outer loop
      vertex 2.48796 -0.245043 12
      vertex 2.5 0 10
      vertex 2.5 0 12
    endloop
  endfacet
  facet normal 0.998795 -0.0490679 0
    outer loop
      vertex 2.5 0 10
      vertex 2.48796 -0.245043 12
      vertex 2.48796 -0.245043 10
    endloop
  endfacet
  facet normal 0.0490679 -0.998795 0
    outer loop
      vertex 0 -2.5 10
      vertex 0.245043 -2.48796 12
      vertex 0 -2.5 12
    endloop
  endfacet
  facet normal 0.0490679 -0.998795 0
    outer loop
      vertex 0.245043 -2.48796 12
      vertex 0 -2.5 10
      vertex 0.245043 -2.48796 10
    endloop
  endfacet
  facet normal 0.24298 -0.970031 0
    outer loop
      vertex 0.487725 -2.45196 10
      vertex 0.725711 -2.39235 12
      vertex 0.487725 -2.45196 12
    endloop
  endfacet
  facet normal 0.24298 -0.970031 0
    outer loop
      vertex 0.725711 -2.39235 12
      vertex 0.487725 -2.45196 10
      vertex 0.725711 -2.39235 10
    endloop
  endfacet
  facet normal 0.595701 -0.803207 0
    outer loop
      vertex 1.38893 -2.07867 10
      vertex 1.58598 -1.93253 12
      vertex 1.38893 -2.07867 12
    endloop
  endfacet
  facet normal 0.595701 -0.803207 0
    outer loop
      vertex 1.58598 -1.93253 12
      vertex 1.38893 -2.07867 10
      vertex 1.58598 -1.93253 10
    endloop
  endfacet
  facet normal 0.427554 -0.90399 0
    outer loop
      vertex 0.956708 -2.3097 10
      vertex 1.17849 -2.2048 12
      vertex 0.956708 -2.3097 12
    endloop
  endfacet
  facet normal 0.427554 -0.90399 0
    outer loop
      vertex 1.17849 -2.2048 12
      vertex 0.956708 -2.3097 10
      vertex 1.17849 -2.2048 10
    endloop
  endfacet
  facet normal -0.671556 -0.740954 0
    outer loop
      vertex -1.76777 -1.76777 10
      vertex -1.58598 -1.93253 12
      vertex -1.76777 -1.76777 12
    endloop
  endfacet
  facet normal -0.671556 -0.740954 -0
    outer loop
      vertex -1.58598 -1.93253 12
      vertex -1.76777 -1.76777 10
      vertex -1.58598 -1.93253 10
    endloop
  endfacet
  facet normal -0.514102 -0.857729 0
    outer loop
      vertex -1.38893 -2.07867 10
      vertex -1.17849 -2.2048 12
      vertex -1.38893 -2.07867 12
    endloop
  endfacet
  facet normal -0.514102 -0.857729 -0
    outer loop
      vertex -1.17849 -2.2048 12
      vertex -1.38893 -2.07867 10
      vertex -1.17849 -2.2048 10
    endloop
  endfacet
  facet normal -0.33689 -0.941544 0
    outer loop
      vertex -0.956708 -2.3097 10
      vertex -0.725711 -2.39235 12
      vertex -0.956708 -2.3097 12
    endloop
  endfacet
  facet normal -0.33689 -0.941544 -0
    outer loop
      vertex -0.725711 -2.39235 12
      vertex -0.956708 -2.3097 10
      vertex -0.725711 -2.39235 10
    endloop
  endfacet
  facet normal -0.146733 -0.989176 0
    outer loop
      vertex -0.487725 -2.45196 10
      vertex -0.245043 -2.48796 12
      vertex -0.487725 -2.45196 12
    endloop
  endfacet
  facet normal -0.146733 -0.989176 -0
    outer loop
      vertex -0.245043 -2.48796 12
      vertex -0.487725 -2.45196 10
      vertex -0.245043 -2.48796 10
    endloop
  endfacet
  facet normal -0.90399 -0.427554 0
    outer loop
      vertex -2.2048 -1.17849 10
      vertex -2.3097 -0.956708 12
      vertex -2.3097 -0.956708 10
    endloop
  endfacet
  facet normal -0.90399 -0.427554 0
    outer loop
      vertex -2.3097 -0.956708 12
      vertex -2.2048 -1.17849 10
      vertex -2.2048 -1.17849 12
    endloop
  endfacet
  facet normal -0.803207 -0.595701 0
    outer loop
      vertex -1.93253 -1.58598 10
      vertex -2.07867 -1.38893 12
      vertex -2.07867 -1.38893 10
    endloop
  endfacet
  facet normal -0.803207 -0.595701 0
    outer loop
      vertex -2.07867 -1.38893 12
      vertex -1.93253 -1.58598 10
      vertex -1.93253 -1.58598 12
    endloop
  endfacet
  facet normal -0.970031 -0.24298 0
    outer loop
      vertex -2.39235 -0.725711 10
      vertex -2.45196 -0.487725 12
      vertex -2.45196 -0.487725 10
    endloop
  endfacet
  facet normal -0.970031 -0.24298 0
    outer loop
      vertex -2.45196 -0.487725 12
      vertex -2.39235 -0.725711 10
      vertex -2.39235 -0.725711 12
    endloop
  endfacet
  facet normal -0.998795 -0.0490679 0
    outer loop
      vertex -2.48796 -0.245043 10
      vertex -2.5 0 12
      vertex -2.5 0 10
    endloop
  endfacet
  facet normal -0.998795 -0.0490679 0
    outer loop
      vertex -2.5 0 12
      vertex -2.48796 -0.245043 10
      vertex -2.48796 -0.245043 12
    endloop
  endfacet
  facet normal 0.90399 -0.427554 0
    outer loop
      vertex 2.2048 -1.17849 12
      vertex 2.3097 -0.956708 10
      vertex 2.3097 -0.956708 12
    endloop
  endfacet
  facet normal 0.90399 -0.427554 0
    outer loop
      vertex 2.3097 -0.956708 10
      vertex 2.2048 -1.17849 12
      vertex 2.2048 -1.17849 10
    endloop
  endfacet
  facet normal 0.970031 -0.24298 0
    outer loop
      vertex 2.39235 -0.725711 12
      vertex 2.45196 -0.487725 10
      vertex 2.45196 -0.487725 12
    endloop
  endfacet
  facet normal 0.970031 -0.24298 0
    outer loop
      vertex 2.45196 -0.487725 10
      vertex 2.39235 -0.725711 12
      vertex 2.39235 -0.725711 10
    endloop
  endfacet
  facet normal 0.146733 -0.989176 0
    outer loop
      vertex 0.245043 -2.48796 10
      vertex 0.487725 -2.45196 12
      vertex 0.245043 -2.48796 12
    endloop
  endfacet
  facet normal 0.146733 -0.989176 0
    outer loop
      vertex 0.487725 -2.45196 12
      vertex 0.245043 -2.48796 10
      vertex 0.487725 -2.45196 10
    endloop
  endfacet
  facet normal 0.33689 -0.941544 0
    outer loop
      vertex 0.725711 -2.39235 10
      vertex 0.956708 -2.3097 12
      vertex 0.725711 -2.39235 12
    endloop
  endfacet
  facet normal 0.33689 -0.941544 0
    outer loop
      vertex 0.956708 -2.3097 12
      vertex 0.725711 -2.39235 10
      vertex 0.956708 -2.3097 10
    endloop
  endfacet
  facet normal 0.671556 -0.740954 0
    outer loop
      vertex 1.58598 -1.93253 10
      vertex 1.76777 -1.76777 12
      vertex 1.58598 -1.93253 12
    endloop
  endfacet
  facet normal 0.671556 -0.740954 0
    outer loop
      vertex 1.76777 -1.76777 12
      vertex 1.58598 -1.93253 10
      vertex 1.76777 -1.76777 10
    endloop
  endfacet
  facet normal 0.514102 -0.857729 0
    outer loop
      vertex 1.17849 -2.2048 10
      vertex 1.38893 -2.07867 12
      vertex 1.17849 -2.2048 12
    endloop
  endfacet
  facet normal 0.514102 -0.857729 0
    outer loop
      vertex 1.38893 -2.07867 12
      vertex 1.17849 -2.2048 10
      vertex 1.38893 -2.07867 10
    endloop
  endfacet
  facet normal 0.803207 -0.595701 0
    outer loop
      vertex 1.93253 -1.58598 12
      vertex 2.07867 -1.38893 10
      vertex 2.07867 -1.38893 12
    endloop
  endfacet
  facet normal 0.803207 -0.595701 0
    outer loop
      vertex 2.07867 -1.38893 10
      vertex 1.93253 -1.58598 12
      vertex 1.93253 -1.58598 10
    endloop
  endfacet
  facet normal 0.740954 -0.671556 0
    outer loop
      vertex 1.76777 -1.76777 12
      vertex 1.93253 -1.58598 10
      vertex 1.93253 -1.58598 12
    endloop
  endfacet
  facet normal 0.740954 -0.671556 0
    outer loop
      vertex 1.93253 -1.58598 10
      vertex 1.76777 -1.76777 12
      vertex 1.76777 -1.76777 10
    endloop
  endfacet
  facet normal -0.595701 -0.803207 0
    outer loop
      vertex -1.58598 -1.93253 10
      vertex -1.38893 -2.07867 12
      vertex -1.58598 -1.93253 12
    endloop
  endfacet
  facet normal -0.595701 -0.803207 -0
    outer loop
      vertex -1.38893 -2.07867 12
      vertex -1.58598 -1.93253 10
      vertex -1.38893 -2.07867 10
    endloop
  endfacet
  facet normal -0.427554 -0.90399 0
    outer loop
      vertex -1.17849 -2.2048 10
      vertex -0.956708 -2.3097 12
      vertex -1.17849 -2.2048 12
    endloop
  endfacet
  facet normal -0.427554 -0.90399 -0
    outer loop
      vertex -0.956708 -2.3097 12
      vertex -1.17849 -2.2048 10
      vertex -0.956708 -2.3097 10
    endloop
  endfacet
  facet normal -0.24298 -0.970031 0
    outer loop
      vertex -0.725711 -2.39235 10
      vertex -0.487725 -2.45196 12
      vertex -0.725711 -2.39235 12
    endloop
  endfacet
  facet normal -0.24298 -0.970031 -0
    outer loop
      vertex -0.487725 -2.45196 12
      vertex -0.725711 -2.39235 10
      vertex -0.487725 -2.45196 10
    endloop
  endfacet
  facet normal -0.857729 -0.514102 0
    outer loop
      vertex -2.07867 -1.38893 10
      vertex -2.2048 -1.17849 12
      vertex -2.2048 -1.17849 10
    endloop
  endfacet
  facet normal -0.857729 -0.514102 0
    outer loop
      vertex -2.2048 -1.17849 12
      vertex -2.07867 -1.38893 10
      vertex -2.07867 -1.38893 12
    endloop
  endfacet
  facet normal -0.941544 -0.33689 0
    outer loop
      vertex -2.3097 -0.956708 10
      vertex -2.39235 -0.725711 12
      vertex -2.39235 -0.725711 10
    endloop
  endfacet
  facet normal -0.941544 -0.33689 0
    outer loop
      vertex -2.39235 -0.725711 12
      vertex -2.3097 -0.956708 10
      vertex -2.3097 -0.956708 12
    endloop
  endfacet
  facet normal -0.989176 -0.146733 0
    outer loop
      vertex -2.45196 -0.487725 10
      vertex -2.48796 -0.245043 12
      vertex -2.48796 -0.245043 10
    endloop
  endfacet
  facet normal -0.989176 -0.146733 0
    outer loop
      vertex -2.48796 -0.245043 12
      vertex -2.45196 -0.487725 10
      vertex -2.45196 -0.487725 12
    endloop
  endfacet
  facet normal 0.989176 -0.146733 0
    outer loop
      vertex 2.45196 -0.487725 12
      vertex 2.48796 -0.245043 10
      vertex 2.48796 -0.245043 12
    endloop
  endfacet
  facet normal 0.989176 -0.146733 0
    outer loop
      vertex 2.48796 -0.245043 10
      vertex 2.45196 -0.487725 12
      vertex 2.45196 -0.487725 10
    endloop
  endfacet
  facet normal 0.857729 -0.514102 0
    outer loop
      vertex 2.07867 -1.38893 12
      vertex 2.2048 -1.17849 10
      vertex 2.2048 -1.17849 12
    endloop
  endfacet
  facet normal 0.857729 -0.514102 0
    outer loop
      vertex 2.2048 -1.17849 10
      vertex 2.07867 -1.38893 12
      vertex 2.07867 -1.38893 10
    endloop
  endfacet
  facet normal 0.941544 -0.33689 0
    outer loop
      vertex 2.3097 -0.956708 12
      vertex 2.39235 -0.725711 10
      vertex 2.39235 -0.725711 12
    endloop
  endfacet
  facet normal 0.941544 -0.33689 0
    outer loop
      vertex 2.39235 -0.725711 10
      vertex 2.3097 -0.956708 12
      vertex 2.3097 -0.956708 10
    endloop
  endfacet
  facet normal 0.998795 0.0490685 0
    outer loop
      vertex 1.3 0 10
      vertex 1.29374 0.127421 6
      vertex 1.29374 0.127421 10
    endloop
  endfacet
  facet normal 0.998795 0.0490685 0
    outer loop
      vertex 1.29374 0.127421 6
      vertex 1.3 0 10
      vertex 1.3 0 6
    endloop
  endfacet
  facet normal -0.998795 0.0490685 0
    outer loop
      vertex -1.3 0 6
      vertex -1.29374 0.127421 10
      vertex -1.29374 0.127421 6
    endloop
  endfacet
  facet normal -0.998795 0.0490685 0
    outer loop
      vertex -1.29374 0.127421 10
      vertex -1.3 0 6
      vertex -1.3 0 10
    endloop
  endfacet
  facet normal 0.0490685 0.998795 -0
    outer loop
      vertex 0.127421 1.29374 6
      vertex 0 1.3 10
      vertex 0.127421 1.29374 10
    endloop
  endfacet
  facet normal 0.0490685 0.998795 0
    outer loop
      vertex 0 1.3 10
      vertex 0.127421 1.29374 6
      vertex 0 1.3 6
    endloop
  endfacet
  facet normal -0.0490685 -0.998795 0
    outer loop
      vertex -0.127421 -1.29374 6
      vertex 0 -1.3 10
      vertex -0.127421 -1.29374 10
    endloop
  endfacet
  facet normal -0.0490685 -0.998795 -0
    outer loop
      vertex 0 -1.3 10
      vertex -0.127421 -1.29374 6
      vertex 0 -1.3 6
    endloop
  endfacet
  facet normal 0.671562 0.740948 -0
    outer loop
      vertex 0.919238 0.919238 6
      vertex 0.824711 1.00491 10
      vertex 0.919238 0.919238 10
    endloop
  endfacet
  facet normal 0.671562 0.740948 0
    outer loop
      vertex 0.824711 1.00491 10
      vertex 0.919238 0.919238 6
      vertex 0.824711 1.00491 6
    endloop
  endfacet
  facet normal -0.671562 0.740948 0
    outer loop
      vertex -0.824711 1.00491 6
      vertex -0.919238 0.919238 10
      vertex -0.824711 1.00491 10
    endloop
  endfacet
  facet normal -0.671562 0.740948 0
    outer loop
      vertex -0.919238 0.919238 10
      vertex -0.824711 1.00491 6
      vertex -0.919238 0.919238 6
    endloop
  endfacet
  facet normal -0.336892 0.941543 0
    outer loop
      vertex -0.37737 1.24402 6
      vertex -0.497488 1.20104 10
      vertex -0.37737 1.24402 10
    endloop
  endfacet
  facet normal -0.336892 0.941543 0
    outer loop
      vertex -0.497488 1.20104 10
      vertex -0.37737 1.24402 6
      vertex -0.497488 1.20104 6
    endloop
  endfacet
  facet normal 0.903987 0.42756 0
    outer loop
      vertex 1.20104 0.497488 10
      vertex 1.1465 0.612815 6
      vertex 1.1465 0.612815 10
    endloop
  endfacet
  facet normal 0.903987 0.42756 0
    outer loop
      vertex 1.1465 0.612815 6
      vertex 1.20104 0.497488 10
      vertex 1.20104 0.497488 6
    endloop
  endfacet
  facet normal 0.336892 0.941543 -0
    outer loop
      vertex 0.497488 1.20104 6
      vertex 0.37737 1.24402 10
      vertex 0.497488 1.20104 10
    endloop
  endfacet
  facet normal 0.336892 0.941543 0
    outer loop
      vertex 0.37737 1.24402 10
      vertex 0.497488 1.20104 6
      vertex 0.37737 1.24402 6
    endloop
  endfacet
  facet normal 0.242979 0.970032 -0
    outer loop
      vertex 0.37737 1.24402 6
      vertex 0.253617 1.27502 10
      vertex 0.37737 1.24402 10
    endloop
  endfacet
  facet normal 0.242979 0.970032 0
    outer loop
      vertex 0.253617 1.27502 10
      vertex 0.37737 1.24402 6
      vertex 0.253617 1.27502 6
    endloop
  endfacet
  facet normal 0.514102 0.857729 -0
    outer loop
      vertex 0.72224 1.08091 6
      vertex 0.612815 1.1465 10
      vertex 0.72224 1.08091 10
    endloop
  endfacet
  facet normal 0.514102 0.857729 0
    outer loop
      vertex 0.612815 1.1465 10
      vertex 0.72224 1.08091 6
      vertex 0.612815 1.1465 6
    endloop
  endfacet
  facet normal -0.903987 0.42756 0
    outer loop
      vertex -1.20104 0.497488 6
      vertex -1.1465 0.612815 10
      vertex -1.1465 0.612815 6
    endloop
  endfacet
  facet normal -0.903987 0.42756 0
    outer loop
      vertex -1.1465 0.612815 10
      vertex -1.20104 0.497488 6
      vertex -1.20104 0.497488 10
    endloop
  endfacet
  facet normal -0.146725 0.989177 0
    outer loop
      vertex -0.127421 1.29374 6
      vertex -0.253617 1.27502 10
      vertex -0.127421 1.29374 10
    endloop
  endfacet
  facet normal -0.146725 0.989177 0
    outer loop
      vertex -0.253617 1.27502 10
      vertex -0.127421 1.29374 6
      vertex -0.253617 1.27502 6
    endloop
  endfacet
  facet normal 0.941543 -0.336892 0
    outer loop
      vertex 1.20104 -0.497488 10
      vertex 1.24402 -0.37737 6
      vertex 1.24402 -0.37737 10
    endloop
  endfacet
  facet normal 0.941543 -0.336892 0
    outer loop
      vertex 1.24402 -0.37737 6
      vertex 1.20104 -0.497488 10
      vertex 1.20104 -0.497488 6
    endloop
  endfacet
  facet normal 0.970032 -0.242979 0
    outer loop
      vertex 1.24402 -0.37737 10
      vertex 1.27502 -0.253617 6
      vertex 1.27502 -0.253617 10
    endloop
  endfacet
  facet normal 0.970032 -0.242979 0
    outer loop
      vertex 1.27502 -0.253617 6
      vertex 1.24402 -0.37737 10
      vertex 1.24402 -0.37737 6
    endloop
  endfacet
  facet normal 0.970032 0.242979 0
    outer loop
      vertex 1.27502 0.253617 10
      vertex 1.24402 0.37737 6
      vertex 1.24402 0.37737 10
    endloop
  endfacet
  facet normal 0.970032 0.242979 0
    outer loop
      vertex 1.24402 0.37737 6
      vertex 1.27502 0.253617 10
      vertex 1.27502 0.253617 6
    endloop
  endfacet
  facet normal 0.989177 0.146725 0
    outer loop
      vertex 1.29374 0.127421 10
      vertex 1.27502 0.253617 6
      vertex 1.27502 0.253617 10
    endloop
  endfacet
  facet normal 0.989177 0.146725 0
    outer loop
      vertex 1.27502 0.253617 6
      vertex 1.29374 0.127421 10
      vertex 1.29374 0.127421 6
    endloop
  endfacet
  facet normal 0.941543 0.336892 0
    outer loop
      vertex 1.24402 0.37737 10
      vertex 1.20104 0.497488 6
      vertex 1.20104 0.497488 10
    endloop
  endfacet
  facet normal 0.941543 0.336892 0
    outer loop
      vertex 1.20104 0.497488 6
      vertex 1.24402 0.37737 10
      vertex 1.24402 0.37737 6
    endloop
  endfacet
  facet normal 0.803211 0.595695 0
    outer loop
      vertex 1.08091 0.72224 10
      vertex 1.00491 0.824711 6
      vertex 1.00491 0.824711 10
    endloop
  endfacet
  facet normal 0.803211 0.595695 0
    outer loop
      vertex 1.00491 0.824711 6
      vertex 1.08091 0.72224 10
      vertex 1.08091 0.72224 6
    endloop
  endfacet
  facet normal 0.740948 0.671562 0
    outer loop
      vertex 1.00491 0.824711 10
      vertex 0.919238 0.919238 6
      vertex 0.919238 0.919238 10
    endloop
  endfacet
  facet normal 0.740948 0.671562 0
    outer loop
      vertex 0.919238 0.919238 6
      vertex 1.00491 0.824711 10
      vertex 1.00491 0.824711 6
    endloop
  endfacet
  facet normal 0.857729 0.514102 0
    outer loop
      vertex 1.1465 0.612815 10
      vertex 1.08091 0.72224 6
      vertex 1.08091 0.72224 10
    endloop
  endfacet
  facet normal 0.857729 0.514102 0
    outer loop
      vertex 1.08091 0.72224 6
      vertex 1.1465 0.612815 10
      vertex 1.1465 0.612815 6
    endloop
  endfacet
  facet normal 0.146725 0.989177 -0
    outer loop
      vertex 0.253617 1.27502 6
      vertex 0.127421 1.29374 10
      vertex 0.253617 1.27502 10
    endloop
  endfacet
  facet normal 0.146725 0.989177 0
    outer loop
      vertex 0.127421 1.29374 10
      vertex 0.253617 1.27502 6
      vertex 0.127421 1.29374 6
    endloop
  endfacet
  facet normal 0.42756 0.903987 -0
    outer loop
      vertex 0.612815 1.1465 6
      vertex 0.497488 1.20104 10
      vertex 0.612815 1.1465 10
    endloop
  endfacet
  facet normal 0.42756 0.903987 0
    outer loop
      vertex 0.497488 1.20104 10
      vertex 0.612815 1.1465 6
      vertex 0.497488 1.20104 6
    endloop
  endfacet
  facet normal 0.595695 0.803211 -0
    outer loop
      vertex 0.824711 1.00491 6
      vertex 0.72224 1.08091 10
      vertex 0.824711 1.00491 10
    endloop
  endfacet
  facet normal 0.595695 0.803211 0
    outer loop
      vertex 0.72224 1.08091 10
      vertex 0.824711 1.00491 6
      vertex 0.72224 1.08091 6
    endloop
  endfacet
  facet normal -0.970032 0.242979 0
    outer loop
      vertex -1.27502 0.253617 6
      vertex -1.24402 0.37737 10
      vertex -1.24402 0.37737 6
    endloop
  endfacet
  facet normal -0.970032 0.242979 0
    outer loop
      vertex -1.24402 0.37737 10
      vertex -1.27502 0.253617 6
      vertex -1.27502 0.253617 10
    endloop
  endfacet
  facet normal -0.803211 0.595695 0
    outer loop
      vertex -1.08091 0.72224 6
      vertex -1.00491 0.824711 10
      vertex -1.00491 0.824711 6
    endloop
  endfacet
  facet normal -0.803211 0.595695 0
    outer loop
      vertex -1.00491 0.824711 10
      vertex -1.08091 0.72224 6
      vertex -1.08091 0.72224 10
    endloop
  endfacet
  facet normal -0.740948 0.671562 0
    outer loop
      vertex -1.00491 0.824711 6
      vertex -0.919238 0.919238 10
      vertex -0.919238 0.919238 6
    endloop
  endfacet
  facet normal -0.740948 0.671562 0
    outer loop
      vertex -0.919238 0.919238 10
      vertex -1.00491 0.824711 6
      vertex -1.00491 0.824711 10
    endloop
  endfacet
  facet normal -0.857729 0.514102 0
    outer loop
      vertex -1.1465 0.612815 6
      vertex -1.08091 0.72224 10
      vertex -1.08091 0.72224 6
    endloop
  endfacet
  facet normal -0.857729 0.514102 0
    outer loop
      vertex -1.08091 0.72224 10
      vertex -1.1465 0.612815 6
      vertex -1.1465 0.612815 10
    endloop
  endfacet
  facet normal -0.941543 0.336892 0
    outer loop
      vertex -1.24402 0.37737 6
      vertex -1.20104 0.497488 10
      vertex -1.20104 0.497488 6
    endloop
  endfacet
  facet normal -0.941543 0.336892 0
    outer loop
      vertex -1.20104 0.497488 10
      vertex -1.24402 0.37737 6
      vertex -1.24402 0.37737 10
    endloop
  endfacet
  facet normal -0.989177 0.146725 0
    outer loop
      vertex -1.29374 0.127421 6
      vertex -1.27502 0.253617 10
      vertex -1.27502 0.253617 6
    endloop
  endfacet
  facet normal -0.989177 0.146725 0
    outer loop
      vertex -1.27502 0.253617 10
      vertex -1.29374 0.127421 6
      vertex -1.29374 0.127421 10
    endloop
  endfacet
  facet normal -0.514102 0.857729 0
    outer loop
      vertex -0.612815 1.1465 6
      vertex -0.72224 1.08091 10
      vertex -0.612815 1.1465 10
    endloop
  endfacet
  facet normal -0.514102 0.857729 0
    outer loop
      vertex -0.72224 1.08091 10
      vertex -0.612815 1.1465 6
      vertex -0.72224 1.08091 6
    endloop
  endfacet
  facet normal -0.42756 0.903987 0
    outer loop
      vertex -0.497488 1.20104 6
      vertex -0.612815 1.1465 10
      vertex -0.497488 1.20104 10
    endloop
  endfacet
  facet normal -0.42756 0.903987 0
    outer loop
      vertex -0.612815 1.1465 10
      vertex -0.497488 1.20104 6
      vertex -0.612815 1.1465 6
    endloop
  endfacet
  facet normal -0.595695 0.803211 0
    outer loop
      vertex -0.72224 1.08091 6
      vertex -0.824711 1.00491 10
      vertex -0.72224 1.08091 10
    endloop
  endfacet
  facet normal -0.595695 0.803211 0
    outer loop
      vertex -0.824711 1.00491 10
      vertex -0.72224 1.08091 6
      vertex -0.824711 1.00491 6
    endloop
  endfacet
  facet normal -0.242979 0.970032 0
    outer loop
      vertex -0.253617 1.27502 6
      vertex -0.37737 1.24402 10
      vertex -0.253617 1.27502 10
    endloop
  endfacet
  facet normal -0.242979 0.970032 0
    outer loop
      vertex -0.37737 1.24402 10
      vertex -0.253617 1.27502 6
      vertex -0.37737 1.24402 6
    endloop
  endfacet
  facet normal -0.0490685 0.998795 0
    outer loop
      vertex 0 1.3 6
      vertex -0.127421 1.29374 10
      vertex 0 1.3 10
    endloop
  endfacet
  facet normal -0.0490685 0.998795 0
    outer loop
      vertex -0.127421 1.29374 10
      vertex 0 1.3 6
      vertex -0.127421 1.29374 6
    endloop
  endfacet
  facet normal 0.998795 -0.0490685 0
    outer loop
      vertex 1.29374 -0.127421 10
      vertex 1.3 0 6
      vertex 1.3 0 10
    endloop
  endfacet
  facet normal 0.998795 -0.0490685 0
    outer loop
      vertex 1.3 0 6
      vertex 1.29374 -0.127421 10
      vertex 1.29374 -0.127421 6
    endloop
  endfacet
  facet normal 0.0490685 -0.998795 0
    outer loop
      vertex 0 -1.3 6
      vertex 0.127421 -1.29374 10
      vertex 0 -1.3 10
    endloop
  endfacet
  facet normal 0.0490685 -0.998795 0
    outer loop
      vertex 0.127421 -1.29374 10
      vertex 0 -1.3 6
      vertex 0.127421 -1.29374 6
    endloop
  endfacet
  facet normal 0.242979 -0.970032 0
    outer loop
      vertex 0.253617 -1.27502 6
      vertex 0.37737 -1.24402 10
      vertex 0.253617 -1.27502 10
    endloop
  endfacet
  facet normal 0.242979 -0.970032 0
    outer loop
      vertex 0.37737 -1.24402 10
      vertex 0.253617 -1.27502 6
      vertex 0.37737 -1.24402 6
    endloop
  endfacet
  facet normal 0.671562 -0.740948 0
    outer loop
      vertex 0.824711 -1.00491 6
      vertex 0.919238 -0.919238 10
      vertex 0.824711 -1.00491 10
    endloop
  endfacet
  facet normal 0.671562 -0.740948 0
    outer loop
      vertex 0.919238 -0.919238 10
      vertex 0.824711 -1.00491 6
      vertex 0.919238 -0.919238 6
    endloop
  endfacet
  facet normal 0.42756 -0.903987 0
    outer loop
      vertex 0.497488 -1.20104 6
      vertex 0.612815 -1.1465 10
      vertex 0.497488 -1.20104 10
    endloop
  endfacet
  facet normal 0.42756 -0.903987 0
    outer loop
      vertex 0.612815 -1.1465 10
      vertex 0.497488 -1.20104 6
      vertex 0.612815 -1.1465 6
    endloop
  endfacet
  facet normal 0.803211 -0.595695 0
    outer loop
      vertex 1.00491 -0.824711 10
      vertex 1.08091 -0.72224 6
      vertex 1.08091 -0.72224 10
    endloop
  endfacet
  facet normal 0.803211 -0.595695 0
    outer loop
      vertex 1.08091 -0.72224 6
      vertex 1.00491 -0.824711 10
      vertex 1.00491 -0.824711 6
    endloop
  endfacet
  facet normal 0.903987 -0.42756 0
    outer loop
      vertex 1.1465 -0.612815 10
      vertex 1.20104 -0.497488 6
      vertex 1.20104 -0.497488 10
    endloop
  endfacet
  facet normal 0.903987 -0.42756 0
    outer loop
      vertex 1.20104 -0.497488 6
      vertex 1.1465 -0.612815 10
      vertex 1.1465 -0.612815 6
    endloop
  endfacet
  facet normal -0.671562 -0.740948 0
    outer loop
      vertex -0.919238 -0.919238 6
      vertex -0.824711 -1.00491 10
      vertex -0.919238 -0.919238 10
    endloop
  endfacet
  facet normal -0.671562 -0.740948 -0
    outer loop
      vertex -0.824711 -1.00491 10
      vertex -0.919238 -0.919238 6
      vertex -0.824711 -1.00491 6
    endloop
  endfacet
  facet normal -0.514102 -0.857729 0
    outer loop
      vertex -0.72224 -1.08091 6
      vertex -0.612815 -1.1465 10
      vertex -0.72224 -1.08091 10
    endloop
  endfacet
  facet normal -0.514102 -0.857729 -0
    outer loop
      vertex -0.612815 -1.1465 10
      vertex -0.72224 -1.08091 6
      vertex -0.612815 -1.1465 6
    endloop
  endfacet
  facet normal -0.336892 -0.941543 0
    outer loop
      vertex -0.497488 -1.20104 6
      vertex -0.37737 -1.24402 10
      vertex -0.497488 -1.20104 10
    endloop
  endfacet
  facet normal -0.336892 -0.941543 -0
    outer loop
      vertex -0.37737 -1.24402 10
      vertex -0.497488 -1.20104 6
      vertex -0.37737 -1.24402 6
    endloop
  endfacet
  facet normal -0.146725 -0.989177 0
    outer loop
      vertex -0.253617 -1.27502 6
      vertex -0.127421 -1.29374 10
      vertex -0.253617 -1.27502 10
    endloop
  endfacet
  facet normal -0.146725 -0.989177 -0
    outer loop
      vertex -0.127421 -1.29374 10
      vertex -0.253617 -1.27502 6
      vertex -0.127421 -1.29374 6
    endloop
  endfacet
  facet normal -0.803211 -0.595695 0
    outer loop
      vertex -1.00491 -0.824711 6
      vertex -1.08091 -0.72224 10
      vertex -1.08091 -0.72224 6
    endloop
  endfacet
  facet normal -0.803211 -0.595695 0
    outer loop
      vertex -1.08091 -0.72224 10
      vertex -1.00491 -0.824711 6
      vertex -1.00491 -0.824711 10
    endloop
  endfacet
  facet normal -0.903987 -0.42756 0
    outer loop
      vertex -1.1465 -0.612815 6
      vertex -1.20104 -0.497488 10
      vertex -1.20104 -0.497488 6
    endloop
  endfacet
  facet normal -0.903987 -0.42756 0
    outer loop
      vertex -1.20104 -0.497488 10
      vertex -1.1465 -0.612815 6
      vertex -1.1465 -0.612815 10
    endloop
  endfacet
  facet normal -0.857729 -0.514102 0
    outer loop
      vertex -1.08091 -0.72224 6
      vertex -1.1465 -0.612815 10
      vertex -1.1465 -0.612815 6
    endloop
  endfacet
  facet normal -0.857729 -0.514102 0
    outer loop
      vertex -1.1465 -0.612815 10
      vertex -1.08091 -0.72224 6
      vertex -1.08091 -0.72224 10
    endloop
  endfacet
  facet normal -0.970032 -0.242979 0
    outer loop
      vertex -1.24402 -0.37737 6
      vertex -1.27502 -0.253617 10
      vertex -1.27502 -0.253617 6
    endloop
  endfacet
  facet normal -0.970032 -0.242979 0
    outer loop
      vertex -1.27502 -0.253617 10
      vertex -1.24402 -0.37737 6
      vertex -1.24402 -0.37737 10
    endloop
  endfacet
  facet normal -0.941543 -0.336892 0
    outer loop
      vertex -1.20104 -0.497488 6
      vertex -1.24402 -0.37737 10
      vertex -1.24402 -0.37737 6
    endloop
  endfacet
  facet normal -0.941543 -0.336892 0
    outer loop
      vertex -1.24402 -0.37737 10
      vertex -1.20104 -0.497488 6
      vertex -1.20104 -0.497488 10
    endloop
  endfacet
  facet normal -0.998795 -0.0490685 0
    outer loop
      vertex -1.29374 -0.127421 6
      vertex -1.3 0 10
      vertex -1.3 0 6
    endloop
  endfacet
  facet normal -0.998795 -0.0490685 0
    outer loop
      vertex -1.3 0 10
      vertex -1.29374 -0.127421 6
      vertex -1.29374 -0.127421 10
    endloop
  endfacet
  facet normal 0.146725 -0.989177 0
    outer loop
      vertex 0.127421 -1.29374 6
      vertex 0.253617 -1.27502 10
      vertex 0.127421 -1.29374 10
    endloop
  endfacet
  facet normal 0.146725 -0.989177 0
    outer loop
      vertex 0.253617 -1.27502 10
      vertex 0.127421 -1.29374 6
      vertex 0.253617 -1.27502 6
    endloop
  endfacet
  facet normal 0.336892 -0.941543 0
    outer loop
      vertex 0.37737 -1.24402 6
      vertex 0.497488 -1.20104 10
      vertex 0.37737 -1.24402 10
    endloop
  endfacet
  facet normal 0.336892 -0.941543 0
    outer loop
      vertex 0.497488 -1.20104 10
      vertex 0.37737 -1.24402 6
      vertex 0.497488 -1.20104 6
    endloop
  endfacet
  facet normal 0.740948 -0.671562 0
    outer loop
      vertex 0.919238 -0.919238 10
      vertex 1.00491 -0.824711 6
      vertex 1.00491 -0.824711 10
    endloop
  endfacet
  facet normal 0.740948 -0.671562 0
    outer loop
      vertex 1.00491 -0.824711 6
      vertex 0.919238 -0.919238 10
      vertex 0.919238 -0.919238 6
    endloop
  endfacet
  facet normal 0.595695 -0.803211 0
    outer loop
      vertex 0.72224 -1.08091 6
      vertex 0.824711 -1.00491 10
      vertex 0.72224 -1.08091 10
    endloop
  endfacet
  facet normal 0.595695 -0.803211 0
    outer loop
      vertex 0.824711 -1.00491 10
      vertex 0.72224 -1.08091 6
      vertex 0.824711 -1.00491 6
    endloop
  endfacet
  facet normal 0.514102 -0.857729 0
    outer loop
      vertex 0.612815 -1.1465 6
      vertex 0.72224 -1.08091 10
      vertex 0.612815 -1.1465 10
    endloop
  endfacet
  facet normal 0.514102 -0.857729 0
    outer loop
      vertex 0.72224 -1.08091 10
      vertex 0.612815 -1.1465 6
      vertex 0.72224 -1.08091 6
    endloop
  endfacet
  facet normal 0.857729 -0.514102 0
    outer loop
      vertex 1.08091 -0.72224 10
      vertex 1.1465 -0.612815 6
      vertex 1.1465 -0.612815 10
    endloop
  endfacet
  facet normal 0.857729 -0.514102 0
    outer loop
      vertex 1.1465 -0.612815 6
      vertex 1.08091 -0.72224 10
      vertex 1.08091 -0.72224 6
    endloop
  endfacet
  facet normal 0.989177 -0.146725 0
    outer loop
      vertex 1.27502 -0.253617 10
      vertex 1.29374 -0.127421 6
      vertex 1.29374 -0.127421 10
    endloop
  endfacet
  facet normal 0.989177 -0.146725 0
    outer loop
      vertex 1.29374 -0.127421 6
      vertex 1.27502 -0.253617 10
      vertex 1.27502 -0.253617 6
    endloop
  endfacet
  facet normal -0.595695 -0.803211 0
    outer loop
      vertex -0.824711 -1.00491 6
      vertex -0.72224 -1.08091 10
      vertex -0.824711 -1.00491 10
    endloop
  endfacet
  facet normal -0.595695 -0.803211 -0
    outer loop
      vertex -0.72224 -1.08091 10
      vertex -0.824711 -1.00491 6
      vertex -0.72224 -1.08091 6
    endloop
  endfacet
  facet normal -0.42756 -0.903987 0
    outer loop
      vertex -0.612815 -1.1465 6
      vertex -0.497488 -1.20104 10
      vertex -0.612815 -1.1465 10
    endloop
  endfacet
  facet normal -0.42756 -0.903987 -0
    outer loop
      vertex -0.497488 -1.20104 10
      vertex -0.612815 -1.1465 6
      vertex -0.497488 -1.20104 6
    endloop
  endfacet
  facet normal -0.242979 -0.970032 0
    outer loop
      vertex -0.37737 -1.24402 6
      vertex -0.253617 -1.27502 10
      vertex -0.37737 -1.24402 10
    endloop
  endfacet
  facet normal -0.242979 -0.970032 -0
    outer loop
      vertex -0.253617 -1.27502 10
      vertex -0.37737 -1.24402 6
      vertex -0.253617 -1.27502 6
    endloop
  endfacet
  facet normal -0.740948 -0.671562 0
    outer loop
      vertex -0.919238 -0.919238 6
      vertex -1.00491 -0.824711 10
      vertex -1.00491 -0.824711 6
    endloop
  endfacet
  facet normal -0.740948 -0.671562 0
    outer loop
      vertex -1.00491 -0.824711 10
      vertex -0.919238 -0.919238 6
      vertex -0.919238 -0.919238 10
    endloop
  endfacet
  facet normal -0.989177 -0.146725 0
    outer loop
      vertex -1.27502 -0.253617 6
      vertex -1.29374 -0.127421 10
      vertex -1.29374 -0.127421 6
    endloop
  endfacet
  facet normal -0.989177 -0.146725 0
    outer loop
      vertex -1.29374 -0.127421 10
      vertex -1.27502 -0.253617 6
      vertex -1.27502 -0.253617 10
    endloop
  endfacet
  facet normal 0 0 -1
    outer loop
      vertex 1.29374 -0.127421 6
      vertex 1.29374 0.127421 6
      vertex 1.3 0 6
    endloop
  endfacet
  facet normal 0 0 -1
    outer loop
      vertex 1.27502 -0.253617 6
      vertex 1.29374 0.127421 6
      vertex 1.29374 -0.127421 6
    endloop
  endfacet
  facet normal 0 0 -1
    outer loop
      vertex 1.27502 -0.253617 6
      vertex 1.27502 0.253617 6
      vertex 1.29374 0.127421 6
    endloop
  endfacet
  facet normal 0 0 -1
    outer loop
      vertex 1.24402 -0.37737 6
      vertex 1.27502 0.253617 6
      vertex 1.27502 -0.253617 6
    endloop
  endfacet
  facet normal 0 0 -1
    outer loop
      vertex 1.24402 -0.37737 6
      vertex 1.24402 0.37737 6
      vertex 1.27502 0.253617 6
    endloop
  endfacet
  facet normal 0 0 -1
    outer loop
      vertex 1.20104 -0.497488 6
      vertex 1.24402 0.37737 6
      vertex 1.24402 -0.37737 6
    endloop
  endfacet
  facet normal 0 0 -1
    outer loop
      vertex 1.20104 -0.497488 6
      vertex 1.20104 0.497488 6
      vertex 1.24402 0.37737 6
    endloop
  endfacet
  facet normal 0 0 -1
    outer loop
      vertex 1.1465 -0.612815 6
      vertex 1.20104 0.497488 6
      vertex 1.20104 -0.497488 6
    endloop
  endfacet
  facet normal 0 0 -1
    outer loop
      vertex 1.1465 -0.612815 6
      vertex 1.1465 0.612815 6
      vertex 1.20104 0.497488 6
    endloop
  endfacet
  facet normal 0 0 -1
    outer loop
      vertex 1.08091 -0.72224 6
      vertex 1.1465 0.612815 6
      vertex 1.1465 -0.612815 6
    endloop
  endfacet
  facet normal 0 0 -1
    outer loop
      vertex 1.08091 -0.72224 6
      vertex 1.08091 0.72224 6
      vertex 1.1465 0.612815 6
    endloop
  endfacet
  facet normal 0 0 -1
    outer loop
      vertex 1.00491 -0.824711 6
      vertex 1.08091 0.72224 6
      vertex 1.08091 -0.72224 6
    endloop
  endfacet
  facet normal 0 0 -1
    outer loop
      vertex 1.00491 -0.824711 6
      vertex 1.00491 0.824711 6
      vertex 1.08091 0.72224 6
    endloop
  endfacet
  facet normal 0 0 -1
    outer loop
      vertex 0.919238 -0.919238 6
      vertex 1.00491 0.824711 6
      vertex 1.00491 -0.824711 6
    endloop
  endfacet
  facet normal 0 0 -1
    outer loop
      vertex 0.919238 -0.919238 6
      vertex 0.919238 0.919238 6
      vertex 1.00491 0.824711 6
    endloop
  endfacet
  facet normal 0 0 -1
    outer loop
      vertex 0.824711 -1.00491 6
      vertex 0.919238 0.919238 6
      vertex 0.919238 -0.919238 6
    endloop
  endfacet
  facet normal 0 0 -1
    outer loop
      vertex 0.824711 -1.00491 6
      vertex 0.824711 1.00491 6
      vertex 0.919238 0.919238 6
    endloop
  endfacet
  facet normal 0 0 -1
    outer loop
      vertex 0.72224 -1.08091 6
      vertex 0.824711 1.00491 6
      vertex 0.824711 -1.00491 6
    endloop
  endfacet
  facet normal 0 0 -1
    outer loop
      vertex 0.72224 -1.08091 6
      vertex 0.72224 1.08091 6
      vertex 0.824711 1.00491 6
    endloop
  endfacet
  facet normal 0 0 -1
    outer loop
      vertex 0.612815 -1.1465 6
      vertex 0.72224 1.08091 6
      vertex 0.72224 -1.08091 6
    endloop
  endfacet
  facet normal 0 0 -1
    outer loop
      vertex 0.612815 -1.1465 6
      vertex 0.612815 1.1465 6
      vertex 0.72224 1.08091 6
    endloop
  endfacet
  facet normal 0 0 -1
    outer loop
      vertex 0.497488 -1.20104 6
      vertex 0.612815 1.1465 6
      vertex 0.612815 -1.1465 6
    endloop
  endfacet
  facet normal 0 0 -1
    outer loop
      vertex 0.497488 -1.20104 6
      vertex 0.497488 1.20104 6
      vertex 0.612815 1.1465 6
    endloop
  endfacet
  facet normal 0 0 -1
    outer loop
      vertex 0.37737 -1.24402 6
      vertex 0.497488 1.20104 6
      vertex 0.497488 -1.20104 6
    endloop
  endfacet
  facet normal 0 0 -1
    outer loop
      vertex 0.37737 -1.24402 6
      vertex 0.37737 1.24402 6
      vertex 0.497488 1.20104 6
    endloop
  endfacet
  facet normal 0 0 -1
    outer loop
      vertex 0.253617 -1.27502 6
      vertex 0.37737 1.24402 6
      vertex 0.37737 -1.24402 6
    endloop
  endfacet
  facet normal 0 0 -1
    outer loop
      vertex 0.253617 -1.27502 6
      vertex 0.253617 1.27502 6
      vertex 0.37737 1.24402 6
    endloop
  endfacet
  facet normal 0 0 -1
    outer loop
      vertex 0.127421 -1.29374 6
      vertex 0.253617 1.27502 6
      vertex 0.253617 -1.27502 6
    endloop
  endfacet
  facet normal 0 0 -1
    outer loop
      vertex 0.127421 -1.29374 6
      vertex 0.127421 1.29374 6
      vertex 0.253617 1.27502 6
    endloop
  endfacet
  facet normal 0 0 -1
    outer loop
      vertex 0 -1.3 6
      vertex 0.127421 1.29374 6
      vertex 0.127421 -1.29374 6
    endloop
  endfacet
  facet normal 0 0 -1
    outer loop
      vertex 0 -1.3 6
      vertex 0 1.3 6
      vertex 0.127421 1.29374 6
    endloop
  endfacet
  facet normal 0 0 -1
    outer loop
      vertex -0.127421 -1.29374 6
      vertex 0 1.3 6
      vertex 0 -1.3 6
    endloop
  endfacet
  facet normal 0 0 -1
    outer loop
      vertex -0.127421 -1.29374 6
      vertex -0.127421 1.29374 6
      vertex 0 1.3 6
    endloop
  endfacet
  facet normal 0 0 -1
    outer loop
      vertex -0.253617 -1.27502 6
      vertex -0.127421 1.29374 6
      vertex -0.127421 -1.29374 6
    endloop
  endfacet
  facet normal 0 0 -1
    outer loop
      vertex -0.253617 -1.27502 6
      vertex -0.253617 1.27502 6
      vertex -0.127421 1.29374 6
    endloop
  endfacet
  facet normal 0 0 -1
    outer loop
      vertex -0.37737 -1.24402 6
      vertex -0.253617 1.27502 6
      vertex -0.253617 -1.27502 6
    endloop
  endfacet
  facet normal 0 0 -1
    outer loop
      vertex -0.37737 -1.24402 6
      vertex -0.37737 1.24402 6
      vertex -0.253617 1.27502 6
    endloop
  endfacet
  facet normal 0 0 -1
    outer loop
      vertex -0.497488 -1.20104 6
      vertex -0.37737 1.24402 6
      vertex -0.37737 -1.24402 6
    endloop
  endfacet
  facet normal 0 0 -1
    outer loop
      vertex -0.497488 -1.20104 6
      vertex -0.497488 1.20104 6
      vertex -0.37737 1.24402 6
    endloop
  endfacet
  facet normal 0 0 -1
    outer loop
      vertex -0.612815 -1.1465 6
      vertex -0.497488 1.20104 6
      vertex -0.497488 -1.20104 6
    endloop
  endfacet
  facet normal 0 0 -1
    outer loop
      vertex -0.612815 -1.1465 6
      vertex -0.612815 1.1465 6
      vertex -0.497488 1.20104 6
    endloop
  endfacet
  facet normal 0 0 -1
    outer loop
      vertex -0.72224 -1.08091 6
      vertex -0.612815 1.1465 6
      vertex -0.612815 -1.1465 6
    endloop
  endfacet
  facet normal 0 0 -1
    outer loop
      vertex -0.72224 -1.08091 6
      vertex -0.72224 1.08091 6
      vertex -0.612815 1.1465 6
    endloop
  endfacet
  facet normal 0 0 -1
    outer loop
      vertex -0.824711 -1.00491 6
      vertex -0.72224 1.08091 6
      vertex -0.72224 -1.08091 6
    endloop
  endfacet
  facet normal 0 0 -1
    outer loop
      vertex -0.824711 -1.00491 6
      vertex -0.824711 1.00491 6
      vertex -0.72224 1.08091 6
    endloop
  endfacet
  facet normal 0 0 -1
    outer loop
      vertex -0.919238 -0.919238 6
      vertex -0.824711 1.00491 6
      vertex -0.824711 -1.00491 6
    endloop
  endfacet
  facet normal 0 0 -1
    outer loop
      vertex -0.919238 -0.919238 6
      vertex -0.919238 0.919238 6
      vertex -0.824711 1.00491 6
    endloop
  endfacet
  facet normal 0 0 -1
    outer loop
      vertex -1.00491 -0.824711 6
      vertex -0.919238 0.919238 6
      vertex -0.919238 -0.919238 6
    endloop
  endfacet
  facet normal 0 0 -1
    outer loop
      vertex -1.00491 -0.824711 6
      vertex -1.00491 0.824711 6
      vertex -0.919238 0.919238 6
    endloop
  endfacet
  facet normal 0 0 -1
    outer loop
      vertex -1.08091 -0.72224 6
      vertex -1.00491 0.824711 6
      vertex -1.00491 -0.824711 6
    endloop
  endfacet
  facet normal 0 0 -1
    outer loop
      vertex -1.08091 -0.72224 6
      vertex -1.08091 0.72224 6
      vertex -1.00491 0.824711 6
    endloop
  endfacet
  facet normal 0 0 -1
    outer loop
      vertex -1.1465 -0.612815 6
      vertex -1.08091 0.72224 6
      vertex -1.08091 -0.72224 6
    endloop
  endfacet
  facet normal 0 0 -1
    outer loop
      vertex -1.1465 -0.612815 6
      vertex -1.1465 0.612815 6
      vertex -1.08091 0.72224 6
    endloop
  endfacet
  facet normal 0 0 -1
    outer loop
      vertex -1.20104 -0.497488 6
      vertex -1.1465 0.612815 6
      vertex -1.1465 -0.612815 6
    endloop
  endfacet
  facet normal 0 0 -1
    outer loop
      vertex -1.20104 -0.497488 6
      vertex -1.20104 0.497488 6
      vertex -1.1465 0.612815 6
    endloop
  endfacet
  facet normal 0 0 -1
    outer loop
      vertex -1.24402 -0.37737 6
      vertex -1.20104 0.497488 6
      vertex -1.20104 -0.497488 6
    endloop
  endfacet
  facet normal 0 0 -1
    outer loop
      vertex -1.24402 -0.37737 6
      vertex -1.24402 0.37737 6
      vertex -1.20104 0.497488 6
    endloop
  endfacet
  facet normal 0 0 -1
    outer loop
      vertex -1.27502 -0.253617 6
      vertex -1.24402 0.37737 6
      vertex -1.24402 -0.37737 6
    endloop
  endfacet
  facet normal 0 0 -1
    outer loop
      vertex -1.27502 -0.253617 6
      vertex -1.27502 0.253617 6
      vertex -1.24402 0.37737 6
    endloop
  endfacet
  facet normal 0 0 -1
    outer loop
      vertex -1.29374 -0.127421 6
      vertex -1.27502 0.253617 6
      vertex -1.27502 -0.253617 6
    endloop
  endfacet
  facet normal 0 0 -1
    outer loop
      vertex -1.29374 -0.127421 6
      vertex -1.29374 0.127421 6
      vertex -1.27502 0.253617 6
    endloop
  endfacet
  facet normal 0 -0 -1
    outer loop
      vertex -1.29374 0.127421 6
      vertex -1.29374 -0.127421 6
      vertex -1.3 0 6
    endloop
  endfacet
  facet normal 0 0 1
    outer loop
      vertex 2.48796 0.245043 12
      vertex 2.48796 -0.245043 12
      vertex 2.5 0 12
    endloop
  endfacet
  facet normal 0 0 1
    outer loop
      vertex 2.45196 0.487725 12
      vertex 2.48796 -0.245043 12
      vertex 2.48796 0.245043 12
    endloop
  endfacet
  facet normal 0 0 1
    outer loop
      vertex 2.45196 0.487725 12
      vertex 2.45196 -0.487725 12
      vertex 2.48796 -0.245043 12
    endloop
  endfacet
  facet normal 0 0 1
    outer loop
      vertex 2.39235 0.725711 12
      vertex 2.45196 -0.487725 12
      vertex 2.45196 0.487725 12
    endloop
  endfacet
  facet normal 0 0 1
    outer loop
      vertex 2.39235 0.725711 12
      vertex 2.39235 -0.725711 12
      vertex 2.45196 -0.487725 12
    endloop
  endfacet
  facet normal 0 0 1
    outer loop
      vertex 2.3097 0.956708 12
      vertex 2.39235 -0.725711 12
      vertex 2.39235 0.725711 12
    endloop
  endfacet
  facet normal 0 0 1
    outer loop
      vertex 2.3097 0.956708 12
      vertex 2.3097 -0.956708 12
      vertex 2.39235 -0.725711 12
    endloop
  endfacet
  facet normal 0 0 1
    outer loop
      vertex 2.2048 1.17849 12
      vertex 2.3097 -0.956708 12
      vertex 2.3097 0.956708 12
    endloop
  endfacet
  facet normal 0 0 1
    outer loop
      vertex 2.2048 1.17849 12
      vertex 2.2048 -1.17849 12
      vertex 2.3097 -0.956708 12
    endloop
  endfacet
  facet normal 0 0 1
    outer loop
      vertex 2.07867 1.38893 12
      vertex 2.2048 -1.17849 12
      vertex 2.2048 1.17849 12
    endloop
  endfacet
  facet normal 0 0 1
    outer loop
      vertex 2.07867 1.38893 12
      vertex 2.07867 -1.38893 12
      vertex 2.2048 -1.17849 12
    endloop
  endfacet
  facet normal 0 0 1
    outer loop
      vertex 1.93253 1.58598 12
      vertex 2.07867 -1.38893 12
      vertex 2.07867 1.38893 12
    endloop
  endfacet
  facet normal 0 0 1
    outer loop
      vertex 1.93253 1.58598 12
      vertex 1.93253 -1.58598 12
      vertex 2.07867 -1.38893 12
    endloop
  endfacet
  facet normal 0 0 1
    outer loop
      vertex 1.76777 1.76777 12
      vertex 1.93253 -1.58598 12
      vertex 1.93253 1.58598 12
    endloop
  endfacet
  facet normal 0 0 1
    outer loop
      vertex 1.76777 1.76777 12
      vertex 1.76777 -1.76777 12
      vertex 1.93253 -1.58598 12
    endloop
  endfacet
  facet normal 0 0 1
    outer loop
      vertex 1.58598 1.93253 12
      vertex 1.76777 -1.76777 12
      vertex 1.76777 1.76777 12
    endloop
  endfacet
  facet normal 0 0 1
    outer loop
      vertex 1.58598 1.93253 12
      vertex 1.58598 -1.93253 12
      vertex 1.76777 -1.76777 12
    endloop
  endfacet
  facet normal 0 0 1
    outer loop
      vertex 1.38893 2.07867 12
      vertex 1.58598 -1.93253 12
      vertex 1.58598 1.93253 12
    endloop
  endfacet
  facet normal 0 0 1
    outer loop
      vertex 1.38893 2.07867 12
      vertex 1.38893 -2.07867 12
      vertex 1.58598 -1.93253 12
    endloop
  endfacet
  facet normal 0 0 1
    outer loop
      vertex 1.17849 2.2048 12
      vertex 1.38893 -2.07867 12
      vertex 1.38893 2.07867 12
    endloop
  endfacet
  facet normal 0 0 1
    outer loop
      vertex 1.17849 2.2048 12
      vertex 1.17849 -2.2048 12
      vertex 1.38893 -2.07867 12
    endloop
  endfacet
  facet normal 0 0 1
    outer loop
      vertex 0.956708 2.3097 12
      vertex 1.17849 -2.2048 12
      vertex 1.17849 2.2048 12
    endloop
  endfacet
  facet normal 0 0 1
    outer loop
      vertex 0.956708 2.3097 12
      vertex 0.956708 -2.3097 12
      vertex 1.17849 -2.2048 12
    endloop
  endfacet
  facet normal 0 0 1
    outer loop
      vertex 0.725711 2.39235 12
      vertex 0.956708 -2.3097 12
      vertex 0.956708 2.3097 12
    endloop
  endfacet
  facet normal 0 0 1
    outer loop
      vertex 0.725711 2.39235 12
      vertex 0.725711 -2.39235 12
      vertex 0.956708 -2.3097 12
    endloop
  endfacet
  facet normal 0 0 1
    outer loop
      vertex 0.487725 2.45196 12
      vertex 0.725711 -2.39235 12
      vertex 0.725711 2.39235 12
    endloop
  endfacet
  facet normal 0 0 1
    outer loop
      vertex 0.487725 2.45196 12
      vertex 0.487725 -2.45196 12
      vertex 0.725711 -2.39235 12
    endloop
  endfacet
  facet normal 0 0 1
    outer loop
      vertex 0.245043 2.48796 12
      vertex 0.487725 -2.45196 12
      vertex 0.487725 2.45196 12
    endloop
  endfacet
  facet normal 0 0 1
    outer loop
      vertex 0.245043 2.48796 12
      vertex 0.245043 -2.48796 12
      vertex 0.487725 -2.45196 12
    endloop
  endfacet
  facet normal 0 0 1
    outer loop
      vertex 0 2.5 12
      vertex 0.245043 -2.48796 12
      vertex 0.245043 2.48796 12
    endloop
  endfacet
  facet normal 0 0 1
    outer loop
      vertex 0 2.5 12
      vertex 0 -2.5 12
      vertex 0.245043 -2.48796 12
    endloop
  endfacet
  facet normal -0 0 1
    outer loop
      vertex -0.245043 2.48796 12
      vertex 0 -2.5 12
      vertex 0 2.5 12
    endloop
  endfacet
  facet normal 0 0 1
    outer loop
      vertex -0.245043 2.48796 12
      vertex -0.245043 -2.48796 12
      vertex 0 -2.5 12
    endloop
  endfacet
  facet normal -0 0 1
    outer loop
      vertex -0.487725 2.45196 12
      vertex -0.245043 -2.48796 12
      vertex -0.245043 2.48796 12
    endloop
  endfacet
  facet normal 0 0 1
    outer loop
      vertex -0.487725 2.45196 12
      vertex -0.487725 -2.45196 12
      vertex -0.245043 -2.48796 12
    endloop
  endfacet
  facet normal -0 0 1
    outer loop
      vertex -0.725711 2.39235 12
      vertex -0.487725 -2.45196 12
      vertex -0.487725 2.45196 12
    endloop
  endfacet
  facet normal 0 0 1
    outer loop
      vertex -0.725711 2.39235 12
      vertex -0.725711 -2.39235 12
      vertex -0.487725 -2.45196 12
    endloop
  endfacet
  facet normal -0 0 1
    outer loop
      vertex -0.956708 2.3097 12
      vertex -0.725711 -2.39235 12
      vertex -0.725711 2.39235 12
    endloop
  endfacet
  facet normal 0 0 1
    outer loop
      vertex -0.956708 2.3097 12
      vertex -0.956708 -2.3097 12
      vertex -0.725711 -2.39235 12
    endloop
  endfacet
  facet normal -0 0 1
    outer loop
      vertex -1.17849 2.2048 12
      vertex -0.956708 -2.3097 12
      vertex -0.956708 2.3097 12
    endloop
  endfacet
  facet normal 0 0 1
    outer loop
      vertex -1.17849 2.2048 12
      vertex -1.17849 -2.2048 12
      vertex -0.956708 -2.3097 12
    endloop
  endfacet
  facet normal -0 0 1
    outer loop
      vertex -1.38893 2.07867 12
      vertex -1.17849 -2.2048 12
      vertex -1.17849 2.2048 12
    endloop
  endfacet
  facet normal 0 0 1
    outer loop
      vertex -1.38893 2.07867 12
      vertex -1.38893 -2.07867 12
      vertex -1.17849 -2.2048 12
    endloop
  endfacet
  facet normal -0 0 1
    outer loop
      vertex -1.58598 1.93253 12
      vertex -1.38893 -2.07867 12
      vertex -1.38893 2.07867 12
    endloop
  endfacet
  facet normal 0 0 1
    outer loop
      vertex -1.58598 1.93253 12
      vertex -1.58598 -1.93253 12
      vertex -1.38893 -2.07867 12
    endloop
  endfacet
  facet normal -0 0 1
    outer loop
      vertex -1.76777 1.76777 12
      vertex -1.58598 -1.93253 12
      vertex -1.58598 1.93253 12
    endloop
  endfacet
  facet normal 0 0 1
    outer loop
      vertex -1.76777 1.76777 12
      vertex -1.76777 -1.76777 12
      vertex -1.58598 -1.93253 12
    endloop
  endfacet
  facet normal -0 0 1
    outer loop
      vertex -1.93253 1.58598 12
      vertex -1.76777 -1.76777 12
      vertex -1.76777 1.76777 12
    endloop
  endfacet
  facet normal 0 0 1
    outer loop
      vertex -1.93253 1.58598 12
      vertex -1.93253 -1.58598 12
      vertex -1.76777 -1.76777 12
    endloop
  endfacet
  facet normal -0 0 1
    outer loop
      vertex -2.07867 1.38893 12
      vertex -1.93253 -1.58598 12
      vertex -1.93253 1.58598 12
    endloop
  endfacet
  facet normal 0 0 1
    outer loop
      vertex -2.07867 1.38893 12
      vertex -2.07867 -1.38893 12
      vertex -1.93253 -1.58598 12
    endloop
  endfacet
  facet normal -0 0 1
    outer loop
      vertex -2.2048 1.17849 12
      vertex -2.07867 -1.38893 12
      vertex -2.07867 1.38893 12
    endloop
  endfacet
  facet normal 0 0 1
    outer loop
      vertex -2.2048 1.17849 12
      vertex -2.2048 -1.17849 12
      vertex -2.07867 -1.38893 12
    endloop
  endfacet
  facet normal -0 0 1
    outer loop
      vertex -2.3097 0.956708 12
      vertex -2.2048 -1.17849 12
      vertex -2.2048 1.17849 12
    endloop
  endfacet
  facet normal 0 0 1
    outer loop
      vertex -2.3097 0.956708 12
      vertex -2.3097 -0.956708 12
      vertex -2.2048 -1.17849 12
    endloop
  endfacet
  facet normal -0 0 1
    outer loop
      vertex -2.39235 0.725711 12
      vertex -2.3097 -0.956708 12
      vertex -2.3097 0.956708 12
    endloop
  endfacet
  facet normal 0 0 1
    outer loop
      vertex -2.39235 0.725711 12
      vertex -2.39235 -0.725711 12
      vertex -2.3097 -0.956708 12
    endloop
  endfacet
  facet normal -0 0 1
    outer loop
      vertex -2.45196 0.487725 12
      vertex -2.39235 -0.725711 12
      vertex -2.39235 0.725711 12
    endloop
  endfacet
  facet normal 0 0 1
    outer loop
      vertex -2.45196 0.487725 12
      vertex -2.45196 -0.487725 12
      vertex -2.39235 -0.725711 12
    endloop
  endfacet
  facet normal -0 0 1
    outer loop
      vertex -2.48796 0.245043 12
      vertex -2.45196 -0.487725 12
      vertex -2.45196 0.487725 12
    endloop
  endfacet
  facet normal 0 0 1
    outer loop
      vertex -2.48796 0.245043 12
      vertex -2.48796 -0.245043 12
      vertex -2.45196 -0.487725 12
    endloop
  endfacet
  facet normal 0 -0 1
    outer loop
      vertex -2.48796 -0.245043 12
      vertex -2.48796 0.245043 12
      vertex -2.5 0 12
    endloop
  endfacet
endsolid OpenSCAD_Model
