solid OpenSCAD_Model
  facet normal -1 0 0
    outer loop
      vertex 0 0 4
      vertex 0 9 10.5
      vertex 0 9 4
    endloop
  endfacet
  facet normal -1 -0 0
    outer loop
      vertex 0 9 10.5
      vertex 0 0 4
      vertex 0 0 10.5
    endloop
  endfacet
  facet normal -1 0 0
    outer loop
      vertex 0 0 0
      vertex 0 9 1
      vertex 0 9 0
    endloop
  endfacet
  facet normal -1 -0 0
    outer loop
      vertex 0 9 1
      vertex 0 0 0
      vertex 0 0 1
    endloop
  endfacet
  facet normal 0 0 1
    outer loop
      vertex 16 9 10.5
      vertex 14.75 7.75 10.5
      vertex 16 0 10.5
    endloop
  endfacet
  facet normal 0 0 1
    outer loop
      vertex 16 9 10.5
      vertex 1.25 7.75 10.5
      vertex 14.75 7.75 10.5
    endloop
  endfacet
  facet normal 0 0 1
    outer loop
      vertex 1.25 7.75 10.5
      vertex 0 9 10.5
      vertex 1.25 1.25 10.5
    endloop
  endfacet
  facet normal -0 0 1
    outer loop
      vertex 0 9 10.5
      vertex 1.25 7.75 10.5
      vertex 16 9 10.5
    endloop
  endfacet
  facet normal -0 0 1
    outer loop
      vertex 14.75 1.25 10.5
      vertex 16 0 10.5
      vertex 14.75 7.75 10.5
    endloop
  endfacet
  facet normal -0 0 1
    outer loop
      vertex 1.25 1.25 10.5
      vertex 16 0 10.5
      vertex 14.75 1.25 10.5
    endloop
  endfacet
  facet normal 0 0 1
    outer loop
      vertex 1.25 1.25 10.5
      vertex 0 0 10.5
      vertex 16 0 10.5
    endloop
  endfacet
  facet normal 0 0 1
    outer loop
      vertex 0 0 10.5
      vertex 1.25 1.25 10.5
      vertex 0 9 10.5
    endloop
  endfacet
  facet normal 1 -0 0
    outer loop
      vertex 16 0 10.5
      vertex 16 9 4
      vertex 16 9 10.5
    endloop
  endfacet
  facet normal 1 0 0
    outer loop
      vertex 16 9 4
      vertex 16 0 10.5
      vertex 16 0 4
    endloop
  endfacet
  facet normal 1 -0 0
    outer loop
      vertex 16 0 1
      vertex 16 9 0
      vertex 16 9 1
    endloop
  endfacet
  facet normal 1 0 0
    outer loop
      vertex 16 9 0
      vertex 16 0 1
      vertex 16 0 0
    endloop
  endfacet
  facet normal 0 1 -0
    outer loop
      vertex 16 9 4
      vertex 0 9 10.5
      vertex 16 9 10.5
    endloop
  endfacet
  facet normal 0 1 0
    outer loop
      vertex 0 9 10.5
      vertex 16 9 4
      vertex 0 9 4
    endloop
  endfacet
  facet normal 0 1 -0
    outer loop
      vertex 16 9 0
      vertex 0 9 1
      vertex 16 9 1
    endloop
  endfacet
  facet normal 0 1 0
    outer loop
      vertex 0 9 1
      vertex 16 9 0
      vertex 0 9 0
    endloop
  endfacet
  facet normal 0 0 -1
    outer loop
      vertex 15.6 -1.4 0
      vertex 14.75 1.25 0
      vertex 15.6 0 0
    endloop
  endfacet
  facet normal 0 0 -1
    outer loop
      vertex 15.6 -1.4 0
      vertex 1.25 1.25 0
      vertex 14.75 1.25 0
    endloop
  endfacet
  facet normal 0 0 -1
    outer loop
      vertex 0.4 0 0
      vertex 1.25 1.25 0
      vertex 0.4 -1.4 0
    endloop
  endfacet
  facet normal 0 0 -1
    outer loop
      vertex 0.4 -1.4 0
      vertex 1.25 1.25 0
      vertex 15.6 -1.4 0
    endloop
  endfacet
  facet normal 0 0 -1
    outer loop
      vertex 14.75 1.25 0
      vertex 16 0 0
      vertex 15.6 0 0
    endloop
  endfacet
  facet normal 0 0 -1
    outer loop
      vertex 16 0 0
      vertex 14.75 1.25 0
      vertex 16 9 0
    endloop
  endfacet
  facet normal 0 0 -1
    outer loop
      vertex 14.75 7.75 0
      vertex 16 9 0
      vertex 14.75 1.25 0
    endloop
  endfacet
  facet normal 0 0 -1
    outer loop
      vertex 1.25 7.75 0
      vertex 16 9 0
      vertex 14.75 7.75 0
    endloop
  endfacet
  facet normal 0 0 -1
    outer loop
      vertex 0 0 0
      vertex 1.25 1.25 0
      vertex 0.4 0 0
    endloop
  endfacet
  facet normal -0 0 -1
    outer loop
      vertex 1.25 1.25 0
      vertex 0 0 0
      vertex 1.25 7.75 0
    endloop
  endfacet
  facet normal 0 0 -1
    outer loop
      vertex 1.25 7.75 0
      vertex 0 9 0
      vertex 16 9 0
    endloop
  endfacet
  facet normal 0 0 -1
    outer loop
      vertex 0 9 0
      vertex 1.25 7.75 0
      vertex 0 0 0
    endloop
  endfacet
  facet normal 0 -1 0
    outer loop
      vertex 0.4 0 4
      vertex 0 0 10.5
      vertex 0 0 4
    endloop
  endfacet
  facet normal 0 -1 0
    outer loop
      vertex 0 0 10.5
      vertex 0.4 0 4
      vertex 16 0 10.5
    endloop
  endfacet
  facet normal 0 -1 0
    outer loop
      vertex 15.6 0 4
      vertex 16 0 10.5
      vertex 0.4 0 4
    endloop
  endfacet
  facet normal 0 -1 -0
    outer loop
      vertex 16 0 10.5
      vertex 15.6 0 4
      vertex 16 0 4
    endloop
  endfacet
  facet normal 0 -1 0
    outer loop
      vertex 0 0 0
      vertex 0.4 0 1
      vertex 0 0 1
    endloop
  endfacet
  facet normal 0 -1 -0
    outer loop
      vertex 0.4 0 1
      vertex 0 0 0
      vertex 0.4 0 0
    endloop
  endfacet
  facet normal 0 -1 0
    outer loop
      vertex 15.6 0 0
      vertex 16 0 1
      vertex 15.6 0 1
    endloop
  endfacet
  facet normal 0 -1 -0
    outer loop
      vertex 16 0 1
      vertex 15.6 0 0
      vertex 16 0 0
    endloop
  endfacet
  facet normal -1 0 0
    outer loop
      vertex 0.4 -1.4 0
      vertex 0.4 0 1
      vertex 0.4 0 0
    endloop
  endfacet
  facet normal -1 0 0
    outer loop
      vertex 0.4 -1.4 4
      vertex 0.4 0 1
      vertex 0.4 -1.4 0
    endloop
  endfacet
  facet normal -1 0 0
    outer loop
      vertex 0.4 0 1
      vertex 0.4 -1.4 4
      vertex 0.4 0 4
    endloop
  endfacet
  facet normal -0 0 1
    outer loop
      vertex 0.4 0 4
      vertex 15.6 -1 4
      vertex 15.6 0 4
    endloop
  endfacet
  facet normal 0 0 1
    outer loop
      vertex 0.4 -1.4 4
      vertex 15.6 -1 4
      vertex 0.4 0 4
    endloop
  endfacet
  facet normal 0 0 1
    outer loop
      vertex 15.6 -1 4
      vertex 0.4 -1.4 4
      vertex 15.6 -1.4 4
    endloop
  endfacet
  facet normal 1 0 0
    outer loop
      vertex 15.6 -1 4
      vertex 15.6 -1.4 4
      vertex 15.6 -1 1
    endloop
  endfacet
  facet normal 1 -0 0
    outer loop
      vertex 15.6 -1 1
      vertex 15.6 0 0
      vertex 15.6 0 1
    endloop
  endfacet
  facet normal 1 0 0
    outer loop
      vertex 15.6 -1 1
      vertex 15.6 -1.4 0
      vertex 15.6 0 0
    endloop
  endfacet
  facet normal 1 0 0
    outer loop
      vertex 15.6 -1.4 0
      vertex 15.6 -1 1
      vertex 15.6 -1.4 4
    endloop
  endfacet
  facet normal 1 -0 0
    outer loop
      vertex 15.6 0 4
      vertex 15.6 8.6 1
      vertex 15.6 8.6 4
    endloop
  endfacet
  facet normal 1 0 0
    outer loop
      vertex 15.6 0 4
      vertex 15.6 0 1
      vertex 15.6 8.6 1
    endloop
  endfacet
  facet normal 1 -0 0
    outer loop
      vertex 15.6 -1 4
      vertex 15.6 0 1
      vertex 15.6 0 4
    endloop
  endfacet
  facet normal 1 0 0
    outer loop
      vertex 15.6 0 1
      vertex 15.6 -1 4
      vertex 15.6 -1 1
    endloop
  endfacet
  facet normal 0 -1 0
    outer loop
      vertex 0.4 -1.4 0
      vertex 15.6 -1.4 4
      vertex 0.4 -1.4 4
    endloop
  endfacet
  facet normal 0 -1 -0
    outer loop
      vertex 15.6 -1.4 4
      vertex 0.4 -1.4 0
      vertex 15.6 -1.4 0
    endloop
  endfacet
  facet normal 1 -0 0
    outer loop
      vertex 1.25 1.25 10.5
      vertex 1.25 7.75 0
      vertex 1.25 7.75 10.5
    endloop
  endfacet
  facet normal 1 0 0
    outer loop
      vertex 1.25 7.75 0
      vertex 1.25 1.25 10.5
      vertex 1.25 1.25 0
    endloop
  endfacet
  facet normal -1 0 0
    outer loop
      vertex 14.75 1.25 0
      vertex 14.75 7.75 10.5
      vertex 14.75 7.75 0
    endloop
  endfacet
  facet normal -1 -0 0
    outer loop
      vertex 14.75 7.75 10.5
      vertex 14.75 1.25 0
      vertex 14.75 1.25 10.5
    endloop
  endfacet
  facet normal 0 1 -0
    outer loop
      vertex 14.75 1.25 0
      vertex 1.25 1.25 10.5
      vertex 14.75 1.25 10.5
    endloop
  endfacet
  facet normal 0 1 0
    outer loop
      vertex 1.25 1.25 10.5
      vertex 14.75 1.25 0
      vertex 1.25 1.25 0
    endloop
  endfacet
  facet normal 0 -1 0
    outer loop
      vertex 1.25 7.75 0
      vertex 14.75 7.75 10.5
      vertex 1.25 7.75 10.5
    endloop
  endfacet
  facet normal 0 -1 -0
    outer loop
      vertex 14.75 7.75 10.5
      vertex 1.25 7.75 0
      vertex 14.75 7.75 0
    endloop
  endfacet
  facet normal 0 0 -1
    outer loop
      vertex 0.4 0 4
      vertex 0 0 4
      vertex 0.4 8.6 4
    endloop
  endfacet
  facet normal 0 0 -1
    outer loop
      vertex 15.6 8.6 4
      vertex 16 0 4
      vertex 15.6 0 4
    endloop
  endfacet
  facet normal 0 0 -1
    outer loop
      vertex 16 0 4
      vertex 15.6 8.6 4
      vertex 16 9 4
    endloop
  endfacet
  facet normal 0 0 -1
    outer loop
      vertex 0.4 8.6 4
      vertex 16 9 4
      vertex 15.6 8.6 4
    endloop
  endfacet
  facet normal 0 0 -1
    outer loop
      vertex 0.4 8.6 4
      vertex 0 9 4
      vertex 16 9 4
    endloop
  endfacet
  facet normal 0 0 -1
    outer loop
      vertex 0 9 4
      vertex 0.4 8.6 4
      vertex 0 0 4
    endloop
  endfacet
  facet normal 0 0 1
    outer loop
      vertex 16 9 1
      vertex 15.6 8.6 1
      vertex 16 0 1
    endloop
  endfacet
  facet normal 0 0 1
    outer loop
      vertex 16 9 1
      vertex 0.4 8.6 1
      vertex 15.6 8.6 1
    endloop
  endfacet
  facet normal -0 0 1
    outer loop
      vertex 0 9 1
      vertex 0.4 8.6 1
      vertex 16 9 1
    endloop
  endfacet
  facet normal 0 0 1
    outer loop
      vertex 0 0 1
      vertex 0.4 8.6 1
      vertex 0 9 1
    endloop
  endfacet
  facet normal 0 0 1
    outer loop
      vertex 0.4 8.6 1
      vertex 0 0 1
      vertex 0.4 0 1
    endloop
  endfacet
  facet normal 0 0 1
    outer loop
      vertex 16 0 1
      vertex 15.6 8.6 1
      vertex 15.6 0 1
    endloop
  endfacet
  facet normal 0 1 -0
    outer loop
      vertex 15.6 8.6 1
      vertex 0.4 8.6 4
      vertex 15.6 8.6 4
    endloop
  endfacet
  facet normal 0 1 0
    outer loop
      vertex 0.4 8.6 4
      vertex 15.6 8.6 1
      vertex 0.4 8.6 1
    endloop
  endfacet
  facet normal -1 0 0
    outer loop
      vertex 0.4 0 1
      vertex 0.4 8.6 4
      vertex 0.4 8.6 1
    endloop
  endfacet
  facet normal -1 -0 0
    outer loop
      vertex 0.4 8.6 4
      vertex 0.4 0 1
      vertex 0.4 0 4
    endloop
  endfacet
endsolid OpenSCAD_Model
