solid note_10_1_stand
facet normal -1.616946165706699e-15 -7.38298311375729e-15 1.0
  outer loop
    vertex 137.6100666981642 -32.79541258251582 1.9999999999996185
    vertex 151.610066698164 -8.496597396120642 1.9999999999998215
    vertex 137.6100666981641 -8.496597396120668 1.9999999999997933
  endloop
endfacet
facet normal -1.616946165706699e-15 -7.38298311375729e-15 1.0
  outer loop
    vertex 151.610066698164 -8.496597396120642 1.9999999999998215
    vertex 137.6100666981642 -32.79541258251582 1.9999999999996185
    vertex 151.61006669816408 -32.79541258251578 1.9999999999996467
  endloop
endfacet
facet normal 3.2439675484365607e-15 -1.0 -2.2204460492503127e-15
  outer loop
    vertex 184.34443089725667 -74.7954125825157 2.8199664825478976e-14
    vertex 167.11006669816425 -74.79541258251578 4.999999999999416
    vertex 167.11006669816425 -74.79541258251581 -4.963141009284299e-13
  endloop
endfacet
facet normal 3.2439675484365607e-15 -1.0 -2.2204460492503127e-15
  outer loop
    vertex 167.11006669816425 -74.79541258251578 4.999999999999416
    vertex 184.34443089725667 -74.7954125825157 2.8199664825478976e-14
    vertex 172.1100666981642 -74.79541258251577 4.999999999999427
  endloop
endfacet
facet normal 3.2439675484365607e-15 -1.0 -2.2204460492503127e-15
  outer loop
    vertex 172.1100666981642 -74.79541258251577 4.999999999999427
    vertex 184.34443089725667 -74.7954125825157 2.8199664825478976e-14
    vertex 172.11006669816416 -74.79541258251584 9.999999999999531
  endloop
endfacet
facet normal 3.2439675484365607e-15 -1.0 -2.2204460492503127e-15
  outer loop
    vertex 172.11006669816416 -74.79541258251584 9.999999999999531
    vertex 184.34443089725667 -74.7954125825157 2.8199664825478976e-14
    vertex 184.34443089725661 -74.7954125825157 4.9999999999998614
  endloop
endfacet
facet normal 3.2439675484365607e-15 -1.0 -2.2204460492503127e-15
  outer loop
    vertex 184.34443089725661 -74.7954125825157 4.9999999999998614
    vertex 191.34443089725664 -74.7954125825157 9.99999999999971
    vertex 172.11006669816416 -74.79541258251584 9.999999999999531
  endloop
endfacet
facet normal 3.2439675484365607e-15 -1.0 -2.2204460492503127e-15
  outer loop
    vertex 191.34443089725664 -74.7954125825157 9.99999999999971
    vertex 184.34443089725661 -74.7954125825157 4.9999999999998614
    vertex 191.34443089725664 -74.7954125825157 4.999999999999878
  endloop
endfacet
facet normal -0.9417210211339865 -1.1102230246251565e-16 0.336394884554391
  outer loop
    vertex 106.30913738289021 -13.47271058251586 0.7641084022014969
    vertex 106.2117687738182 -9.476209433908164 0.4915297448798497
    vertex 106.21176877381818 -13.472710582515846 0.49152974487986656
  endloop
endfacet
facet normal -0.9417210211339865 -1.1102230246251565e-16 0.336394884554391
  outer loop
    vertex 106.2117687738182 -9.476209433908164 0.4915297448798497
    vertex 106.30913738289021 -13.47271058251586 0.7641084022014969
    vertex 106.3091373828902 -9.299194784099917 0.764108402201463
  endloop
endfacet
facet normal 2.2126738445620504e-06 1.1405321957980166e-06 0.9999999999969018
  outer loop
    vertex 117.10998345280807 -13.472710582515921 5.001899508300578
    vertex 137.61006669816413 -6.548374616528059 4.999999999999917
    vertex 117.1101401787983 -6.549463475010859 4.998323304971733
  endloop
endfacet
facet normal 2.2126738445620504e-06 1.1405321957980166e-06 0.9999999999969018
  outer loop
    vertex 137.61006669816413 -6.548374616528059 4.999999999999917
    vertex 117.10998345280807 -13.472710582515921 5.001899508300578
    vertex 137.6100666981642 -32.79541258251579 4.999999999999697
  endloop
endfacet
facet normal 2.2126738445620504e-06 1.1405321957980166e-06 0.9999999999969018
  outer loop
    vertex 137.6100666981642 -32.79541258251579 4.999999999999697
    vertex 117.10998345280807 -13.472710582515921 5.001899508300578
    vertex 122.11006669816409 -32.79541258251584 4.99999999999967
  endloop
endfacet
facet normal 2.2126738445620504e-06 1.1405321957980166e-06 0.9999999999969018
  outer loop
    vertex 122.11006669816409 -32.79541258251584 4.99999999999967
    vertex 117.10998345280807 -13.472710582515921 5.001899508300578
    vertex 117.11006669816423 -74.7954125825159 4.999999999999348
  endloop
endfacet
facet normal 2.2126738445620504e-06 1.1405321957980166e-06 0.9999999999969018
  outer loop
    vertex 122.11006669816409 -32.79541258251584 4.99999999999967
    vertex 117.11006669816423 -74.7954125825159 4.999999999999348
    vertex 122.11006669816418 -74.79541258251587 4.9999999999993365
  endloop
endfacet
facet normal -1.0 -1.9634756932080177e-15 -1.6169461657067131e-15
  outer loop
    vertex 151.61006669816405 -32.795412582515766 4.9999999999997256
    vertex 151.610066698164 -8.496597396120642 1.9999999999998215
    vertex 151.61006669816408 -32.79541258251578 1.9999999999996467
  endloop
endfacet
facet normal -1.0 -1.9634756932080177e-15 -1.6169461657067131e-15
  outer loop
    vertex 151.610066698164 -8.496597396120642 1.9999999999998215
    vertex 151.61006669816405 -32.795412582515766 4.9999999999997256
    vertex 151.61006669816402 -6.548374616528073 4.999999999999906
  endloop
endfacet
facet normal -0.8921041379354692 6.217248937900877e-15 0.45182984305866036
  outer loop
    vertex 106.45967338014219 -13.472710582515765 1.0613304385940587
    vertex 106.3091373828902 -9.299194784099917 0.764108402201463
    vertex 106.30913738289021 -13.47271058251586 0.7641084022014969
  endloop
endfacet
facet normal -0.8921041379354692 6.217248937900877e-15 0.45182984305866036
  outer loop
    vertex 106.3091373828902 -9.299194784099917 0.764108402201463
    vertex 106.45967338014219 -13.472710582515765 1.0613304385940587
    vertex 106.45967338014219 -9.106176536801012 1.0613304385939233
  endloop
endfacet
facet normal -0.9781487983850324 -5.259681579161678e-15 0.20790605623193625
  outer loop
    vertex 106.21176877381818 -13.472710582515846 0.49152974487986656
    vertex 106.15825557199882 -9.639708804183138 0.23976279298767492
    vertex 106.15825557199885 -13.472710582515834 0.23976279298751701
  endloop
endfacet
facet normal -0.9781487983850324 -5.259681579161678e-15 0.20790605623193625
  outer loop
    vertex 106.15825557199882 -9.639708804183138 0.23976279298767492
    vertex 106.21176877381818 -13.472710582515846 0.49152974487986656
    vertex 106.2117687738182 -9.476209433908164 0.4915297448798497
  endloop
endfacet
facet normal 1.0 1.9634756932080177e-15 1.6169461657067131e-15
  outer loop
    vertex 137.6100666981641 -8.496597396120668 1.9999999999997933
    vertex 137.6100666981642 -32.79541258251579 4.999999999999697
    vertex 137.6100666981642 -32.79541258251582 1.9999999999996185
  endloop
endfacet
facet normal 1.0 1.9634756932080177e-15 1.6169461657067131e-15
  outer loop
    vertex 137.6100666981642 -32.79541258251579 4.999999999999697
    vertex 137.6100666981641 -8.496597396120668 1.9999999999997933
    vertex 137.61006669816413 -6.548374616528059 4.999999999999917
  endloop
endfacet
facet normal -1.9819901063711105e-15 -7.993605777301127e-15 1.0
  outer loop
    vertex 172.11006669816405 -6.54837461652803 4.9999999999999405
    vertex 167.11006669816413 -32.795412582515745 4.999999999999742
    vertex 172.1100666981642 -74.79541258251577 4.999999999999427
  endloop
endfacet
facet normal -1.9819901063711105e-15 -7.993605777301127e-15 1.0
  outer loop
    vertex 167.11006669816413 -32.795412582515745 4.999999999999742
    vertex 172.11006669816405 -6.54837461652803 4.9999999999999405
    vertex 151.61006669816402 -6.548374616528073 4.999999999999906
  endloop
endfacet
facet normal -1.9819901063711105e-15 -7.993605777301127e-15 1.0
  outer loop
    vertex 167.11006669816413 -32.795412582515745 4.999999999999742
    vertex 151.61006669816402 -6.548374616528073 4.999999999999906
    vertex 151.61006669816405 -32.795412582515766 4.9999999999997256
  endloop
endfacet
facet normal -1.9819901063711105e-15 -7.993605777301127e-15 1.0
  outer loop
    vertex 172.1100666981642 -74.79541258251577 4.999999999999427
    vertex 167.11006669816413 -32.795412582515745 4.999999999999742
    vertex 167.11006669816425 -74.79541258251578 4.999999999999416
  endloop
endfacet
facet normal 0.9999999999621487 7.29035903571566e-07 -8.670138401165052e-06
  outer loop
    vertex 117.10998345280807 -13.472710582515921 5.001899508300578
    vertex 117.11006669816422 -74.79541258251592 9.99999999999943
    vertex 117.11006669816423 -74.7954125825159 4.999999999999348
  endloop
endfacet
facet normal 0.9999999999621487 7.29035903571566e-07 -8.670138401165052e-06
  outer loop
    vertex 117.11006669816422 -74.79541258251592 9.99999999999943
    vertex 117.10998345280807 -13.472710582515921 5.001899508300578
    vertex 117.11006669816422 -64.79541258251574 9.99999999999949
  endloop
endfacet
facet normal 0.9999999999621487 7.29035903571566e-07 -8.670138401165052e-06
  outer loop
    vertex 117.11006669816422 -64.79541258251574 9.99999999999949
    vertex 117.10998345280807 -13.472710582515921 5.001899508300578
    vertex 117.11006669816418 -35.50357963212306 9.99999999999957
  endloop
endfacet
facet normal 0.9999999999621487 7.29035903571566e-07 -8.670138401165052e-06
  outer loop
    vertex 117.11006669816418 -35.50357963212306 9.99999999999957
    vertex 117.10998345280807 -13.472710582515921 5.001899508300578
    vertex 117.11006669816415 -34.29541258251581 9.999999999999565
  endloop
endfacet
facet normal 0.9999999999621487 7.29035903571566e-07 -8.670138401165052e-06
  outer loop
    vertex 117.11006669816415 -34.29541258251581 9.999999999999565
    vertex 117.10998345280807 -13.472710582515921 5.001899508300578
    vertex 117.11006669816412 -22.389862038410268 9.999999999999632
  endloop
endfacet
facet normal 0.9999999999621487 7.29035903571566e-07 -8.670138401165052e-06
  outer loop
    vertex 117.11006669816412 -22.389862038410268 9.999999999999632
    vertex 117.10998345280807 -13.472710582515921 5.001899508300578
    vertex 117.11006669816412 -13.472710582515942 9.99999999999969
  endloop
endfacet
facet normal -1.0 -1.9634756932080177e-15 -1.6169461657067131e-15
  outer loop
    vertex 167.11006669816425 -74.79541258251578 4.999999999999416
    vertex 167.11006669816416 -32.7954125825158 -4.1735503941708883e-13
    vertex 167.11006669816425 -74.79541258251581 -4.963141009284299e-13
  endloop
endfacet
facet normal -1.0 -1.9634756932080177e-15 -1.6169461657067131e-15
  outer loop
    vertex 167.11006669816416 -32.7954125825158 -4.1735503941708883e-13
    vertex 167.11006669816425 -74.79541258251578 4.999999999999416
    vertex 167.11006669816413 -32.795412582515745 4.999999999999742
  endloop
endfacet
facet normal -0.041841416210510546 0.0002604299977993496 0.99912423054679
  outer loop
    vertex 115.19516981044808 -6.600400894731697 4.919886556996523
    vertex 117.10998345280807 -13.472710582515921 5.001899508300578
    vertex 117.1101401787983 -6.549463475010859 4.998323304971733
  endloop
endfacet
facet normal -0.041841416210510546 0.0002604299977993496 0.99912423054679
  outer loop
    vertex 117.10998345280807 -13.472710582515921 5.001899508300578
    vertex 115.19516981044808 -6.600400894731697 4.919886556996523
    vertex 115.19516981044809 -13.472710582515957 4.919886556996174
  endloop
endfacet
facet normal 1.8494422669523553e-15 -1.0 -3.719247132494274e-15
  outer loop
    vertex 122.11006669816412 -32.795412582515894 -4.850342349982384e-13
    vertex 137.6100666981642 -32.79541258251582 1.9999999999996185
    vertex 122.11006669816409 -32.79541258251584 4.99999999999967
  endloop
endfacet
facet normal 1.8494422669523553e-15 -1.0 -3.719247132494274e-15
  outer loop
    vertex 137.6100666981642 -32.79541258251582 1.9999999999996185
    vertex 122.11006669816412 -32.795412582515894 -4.850342349982384e-13
    vertex 167.11006669816416 -32.7954125825158 -4.1735503941708883e-13
  endloop
endfacet
facet normal 1.8494422669523553e-15 -1.0 -3.719247132494274e-15
  outer loop
    vertex 137.6100666981642 -32.79541258251582 1.9999999999996185
    vertex 167.11006669816416 -32.7954125825158 -4.1735503941708883e-13
    vertex 151.61006669816408 -32.79541258251578 1.9999999999996467
  endloop
endfacet
facet normal 1.8494422669523553e-15 -1.0 -3.719247132494274e-15
  outer loop
    vertex 151.61006669816408 -32.79541258251578 1.9999999999996467
    vertex 167.11006669816416 -32.7954125825158 -4.1735503941708883e-13
    vertex 151.61006669816405 -32.795412582515766 4.9999999999997256
  endloop
endfacet
facet normal 1.8494422669523553e-15 -1.0 -3.719247132494274e-15
  outer loop
    vertex 151.61006669816405 -32.795412582515766 4.9999999999997256
    vertex 167.11006669816416 -32.7954125825158 -4.1735503941708883e-13
    vertex 167.11006669816413 -32.795412582515745 4.999999999999742
  endloop
endfacet
facet normal 1.8494422669523553e-15 -1.0 -3.719247132494274e-15
  outer loop
    vertex 137.6100666981642 -32.79541258251579 4.999999999999697
    vertex 122.11006669816409 -32.79541258251584 4.99999999999967
    vertex 137.6100666981642 -32.79541258251582 1.9999999999996185
  endloop
endfacet
facet normal -1.0 -1.9634756932080177e-15 -1.6169461657067131e-15
  outer loop
    vertex 172.11006669816416 -74.79541258251584 9.999999999999531
    vertex 172.11006669816405 -6.54837461652803 4.9999999999999405
    vertex 172.1100666981642 -74.79541258251577 4.999999999999427
  endloop
endfacet
facet normal -1.0 -1.9634756932080177e-15 -1.6169461657067131e-15
  outer loop
    vertex 172.11006669816405 -6.54837461652803 4.9999999999999405
    vertex 172.11006669816416 -74.79541258251584 9.999999999999531
    vertex 172.11006669816416 -64.79541258251564 9.999999999999575
  endloop
endfacet
facet normal -1.0 -1.9634756932080177e-15 -1.6169461657067131e-15
  outer loop
    vertex 172.11006669816405 -6.54837461652803 4.9999999999999405
    vertex 172.11006669816416 -64.79541258251564 9.999999999999575
    vertex 172.11006669816408 -34.295412582515745 9.999999999999705
  endloop
endfacet
facet normal -1.0 -1.9634756932080177e-15 -1.6169461657067131e-15
  outer loop
    vertex 172.11006669816405 -6.54837461652803 4.9999999999999405
    vertex 172.11006669816408 -34.295412582515745 9.999999999999705
    vertex 172.1100666981641 -31.910947631568806 9.990692383757608
  endloop
endfacet
facet normal -1.0 -1.9634756932080177e-15 -1.6169461657067131e-15
  outer loop
    vertex 172.11006669816405 -6.54837461652803 4.9999999999999405
    vertex 172.1100666981641 -31.910947631568806 9.990692383757608
    vertex 172.11006669816408 -3.3013366505405615 9.99999999999984
  endloop
endfacet
facet normal 1.0 1.9634756932080177e-15 1.6169461657067131e-15
  outer loop
    vertex 122.11006669816412 -32.795412582515894 -4.850342349982384e-13
    vertex 122.11006669816418 -74.79541258251587 4.9999999999993365
    vertex 122.11006669816418 -74.79541258251588 -5.639932965095795e-13
  endloop
endfacet
facet normal 1.0 1.9634756932080177e-15 1.6169461657067131e-15
  outer loop
    vertex 122.11006669816418 -74.79541258251587 4.9999999999993365
    vertex 122.11006669816412 -32.795412582515894 -4.850342349982384e-13
    vertex 122.11006669816409 -32.79541258251584 4.99999999999967
  endloop
endfacet
facet normal -0.11009018063148404 -4.707345624410665e-14 0.993921602606829
  outer loop
    vertex 114.29674728874559 -6.665024985666593 4.820374183547519
    vertex 115.19516981044809 -13.472710582515957 4.919886556996174
    vertex 115.19516981044808 -6.600400894731697 4.919886556996523
  endloop
endfacet
facet normal -0.11009018063148404 -4.707345624410665e-14 0.993921602606829
  outer loop
    vertex 115.19516981044809 -13.472710582515957 4.919886556996174
    vertex 114.29674728874559 -6.665024985666593 4.820374183547519
    vertex 114.29674728874562 -13.472710582515901 4.8203741835472425
  endloop
endfacet
facet normal -0.5160015502876192 -6.7168492989821955e-15 0.8565876488140449
  outer loop
    vertex 108.23296253742424 -7.98904400766308 2.781563680151063
    vertex 108.80166322356848 -13.472710582515797 3.1241444260984292
    vertex 108.80166322356844 -7.766569469961525 3.1241444260985136
  endloop
endfacet
facet normal -0.5160015502876192 -6.7168492989821955e-15 0.8565876488140449
  outer loop
    vertex 108.80166322356848 -13.472710582515797 3.1241444260984292
    vertex 108.23296253742424 -7.98904400766308 2.781563680151063
    vertex 108.23296253742431 -13.472710582515793 2.78156368015108
  endloop
endfacet
facet normal -0.8336435318167494 4.82947015711943e-15 0.5523028714936183
  outer loop
    vertex 106.67218627684042 -13.472710582515807 1.3820964727826477
    vertex 106.45967338014219 -9.106176536801012 1.0613304385939233
    vertex 106.45967338014219 -13.472710582515765 1.0613304385940587
  endloop
endfacet
facet normal -0.8336435318167494 4.82947015711943e-15 0.5523028714936183
  outer loop
    vertex 106.45967338014219 -9.106176536801012 1.0613304385939233
    vertex 106.67218627684042 -13.472710582515807 1.3820964727826477
    vertex 106.67218627684042 -8.897868638559014 1.3820964727826759
  endloop
endfacet
facet normal -0.7702796809204278 3.941291737419306e-15 0.6377062122648047
  outer loop
    vertex 106.95328986956477 -13.472710582515816 1.7216390106237347
    vertex 106.67218627684042 -8.897868638559014 1.3820964727826759
    vertex 106.67218627684042 -13.472710582515807 1.3820964727826477
  endloop
endfacet
facet normal -0.7702796809204278 3.941291737419306e-15 0.6377062122648047
  outer loop
    vertex 106.67218627684042 -8.897868638559014 1.3820964727826759
    vertex 106.95328986956477 -13.472710582515816 1.7216390106237347
    vertex 106.95328986956477 -8.677367136271544 1.7216390106236332
  endloop
endfacet
facet normal -0.15514508774126104 -4.218847493575594e-14 0.9878916953541802
  outer loop
    vertex 113.39260723794666 -13.472710582515894 4.678382011559865
    vertex 114.29674728874559 -6.665024985666593 4.820374183547519
    vertex 113.39260723794665 -6.75723578032978 4.6783820115601245
  endloop
endfacet
facet normal -0.15514508774126104 -4.218847493575594e-14 0.9878916953541802
  outer loop
    vertex 114.29674728874559 -6.665024985666593 4.820374183547519
    vertex 113.39260723794666 -13.472710582515894 4.678382011559865
    vertex 114.29674728874562 -13.472710582515901 4.8203741835472425
  endloop
endfacet
facet normal -0.5769408741288802 9.270362255620056e-15 0.8167859130515189
  outer loop
    vertex 107.73371322420458 -13.472710582515813 2.428916394522654
    vertex 108.23296253742424 -7.98904400766308 2.781563680151063
    vertex 107.73371322420458 -8.21805583267069 2.428916394522581
  endloop
endfacet
facet normal -0.5769408741288802 9.270362255620056e-15 0.8167859130515189
  outer loop
    vertex 108.23296253742424 -7.98904400766308 2.781563680151063
    vertex 107.73371322420458 -13.472710582515813 2.428916394522654
    vertex 108.23296253742431 -13.472710582515793 2.78156368015108
  endloop
endfacet
facet normal -0.34871659238926456 -3.3306690738754696e-14 0.9372282209752435
  outer loop
    vertex 110.13013471660537 -13.472710582515889 3.755355495011971
    vertex 110.87928852175796 -7.17564077442806 4.034094820463177
    vertex 110.13013471660535 -7.3566562088986736 3.7553554950121573
  endloop
endfacet
facet normal -0.34871659238926456 -3.3306690738754696e-14 0.9372282209752435
  outer loop
    vertex 110.87928852175796 -7.17564077442806 4.034094820463177
    vertex 110.13013471660537 -13.472710582515889 3.755355495011971
    vertex 110.87928852175797 -13.472710582515845 4.034094820462962
  endloop
endfacet
facet normal 0.5769408741288853 1.2323475573339238e-14 -0.8167859130515155
  outer loop
    vertex 105.50376801285006 -13.472710582515855 6.960157044801063
    vertex 104.69355983861855 -5.647086242237265 6.3878623898638
    vertex 105.50376801285006 -5.275433747774489 6.960157044801283
  endloop
endfacet
facet normal 0.5769408741288853 1.2323475573339238e-14 -0.8167859130515155
  outer loop
    vertex 104.69355983861855 -5.647086242237265 6.3878623898638
    vertex 105.50376801285006 -13.472710582515855 6.960157044801063
    vertex 104.69355983861857 -13.47271058251587 6.387862389863834
  endloop
endfacet
facet normal 0.11009018063146776 -3.885780586188047e-15 -0.9939216026068307
  outer loop
    vertex 114.8110169423953 -3.369239648872853 9.895438551930072
    vertex 113.63496170440094 -13.472710582515894 9.765174622417147
    vertex 113.6349617044009 -3.4538340338183278 9.765174622417085
  endloop
endfacet
facet normal 0.11009018063146776 -3.885780586188047e-15 -0.9939216026068307
  outer loop
    vertex 113.63496170440094 -13.472710582515894 9.765174622417147
    vertex 114.8110169423953 -3.369239648872853 9.895438551930072
    vertex 114.81101694239534 -13.472710582515855 9.895438551930106
  endloop
endfacet
facet normal -0.2977082556917107 -6.011857678345221e-14 0.9546568988348636
  outer loop
    vertex 110.87928852175797 -13.472710582515845 4.034094820462962
    vertex 111.67708576671515 -7.01407347817332 4.282886639264115
    vertex 110.87928852175796 -7.17564077442806 4.034094820463177
  endloop
endfacet
facet normal -0.2977082556917107 -6.011857678345221e-14 0.9546568988348636
  outer loop
    vertex 111.67708576671515 -7.01407347817332 4.282886639264115
    vertex 110.87928852175797 -13.472710582515845 4.034094820462962
    vertex 111.67708576671517 -13.472710582515985 4.282886639263539
  endloop
endfacet
facet normal 0.4019571731410521 4.746203430272544e-14 -0.9156584685134814
  outer loop
    vertex 108.25655884054991 -4.3534422685389265 8.379899420611757
    vertex 107.2899377196195 -13.472710582515951 7.955570583355614
    vertex 107.28993771961946 -4.629004637465329 7.955570583356207
  endloop
endfacet
facet normal 0.4019571731410521 4.746203430272544e-14 -0.9156584685134814
  outer loop
    vertex 107.2899377196195 -13.472710582515951 7.955570583355614
    vertex 108.25655884054991 -4.3534422685389265 8.379899420611757
    vertex 108.25655884054991 -13.472710582515901 8.37989942061144
  endloop
endfacet
facet normal 0.7050896908492403 2.5812685322534896e-14 -0.709118133922778
  outer loop
    vertex 103.26539377615397 -13.415285712170068 5.0882184854687935
    vertex 103.94540447268153 -13.472710582515903 5.764366095933323
    vertex 103.26539377615397 -13.472710582515894 5.0882184854687935
  endloop
endfacet
facet normal 0.7050896908492403 2.5812685322534896e-14 -0.709118133922778
  outer loop
    vertex 103.94540447268153 -13.472710582515903 5.764366095933323
    vertex 103.26539377615397 -13.415285712170068 5.0882184854687935
    vertex 103.26539377615394 -6.491084862203985 5.088218485469171
  endloop
endfacet
facet normal 0.7050896908492403 2.5812685322534896e-14 -0.709118133922778
  outer loop
    vertex 103.94540447268153 -13.472710582515903 5.764366095933323
    vertex 103.26539377615394 -6.491084862203985 5.088218485469171
    vertex 103.9454044726815 -6.051989469846116 5.76436609593347
  endloop
endfacet
facet normal 0.24864709120754197 1.3655743202889425e-14 -0.9685941482551029
  outer loop
    vertex 111.39452479316512 -13.472710582515878 9.359669434192524
    vertex 110.31369815691608 -3.8973556509113263 9.0822112235612
    vertex 111.39452479316512 -3.7171721821323107 9.359669434192552
  endloop
endfacet
facet normal 0.24864709120754197 1.3655743202889425e-14 -0.9685941482551029
  outer loop
    vertex 110.31369815691608 -3.8973556509113263 9.0822112235612
    vertex 111.39452479316512 -13.472710582515878 9.359669434192524
    vertex 110.31369815691608 -13.47271058251595 9.082211223561004
  endloop
endfacet
facet normal 0.45766926226897947 4.0523140398818214e-14 -0.8891225148280569
  outer loop
    vertex 107.2899377196195 -13.472710582515951 7.955570583355614
    vertex 106.3708118041258 -4.936248001509981 7.482457291699342
    vertex 107.28993771961946 -4.629004637465329 7.955570583356207
  endloop
endfacet
facet normal 0.45766926226897947 4.0523140398818214e-14 -0.8891225148280569
  outer loop
    vertex 106.3708118041258 -4.936248001509981 7.482457291699342
    vertex 107.2899377196195 -13.472710582515951 7.955570583355614
    vertex 106.37081180412582 -13.472710582515875 7.482457291699201
  endloop
endfacet
facet normal -0.9975200142584514 -3.969047313034935e-15 0.07038338691636788
  outer loop
    vertex 106.15825557199885 -13.472710582515834 0.23976279298751701
    vertex 106.14133829997832 -9.795412582515784 -3.665956427312267e-13
    vertex 106.14133829997833 -13.472710582515898 -4.2299497238218464e-13
  endloop
endfacet
facet normal -0.9975200142584514 -3.969047313034935e-15 0.07038338691636788
  outer loop
    vertex 106.14133829997832 -9.795412582515784 -3.665956427312267e-13
    vertex 106.15825557199885 -13.472710582515834 0.23976279298751701
    vertex 106.15825557199882 -9.639708804183138 0.23976279298767492
  endloop
endfacet
facet normal -0.705089690849291 8.715250743307479e-15 0.7091181339227276
  outer loop
    vertex 107.30677133350704 -13.47271058251584 2.0731123748052087
    vertex 106.95328986956477 -8.677367136271544 1.7216390106236332
    vertex 106.95328986956477 -13.472710582515816 1.7216390106237347
  endloop
endfacet
facet normal -0.705089690849291 8.715250743307479e-15 0.7091181339227276
  outer loop
    vertex 106.95328986956477 -8.677367136271544 1.7216390106236332
    vertex 107.30677133350704 -13.47271058251584 2.0731123748052087
    vertex 107.30677133350704 -8.449117664765383 2.073112374805186
  endloop
endfacet
facet normal 3.5184046756563367e-15 -1.0 -1.2212453270876722e-15
  outer loop
    vertex 122.11006669816418 -74.79541258251588 -5.639932965095795e-13
    vertex 104.8757024990714 -74.79541258251595 4.99979193957163
    vertex 104.87570249907132 -74.79541258251594 -3.665956427312267e-13
  endloop
endfacet
facet normal 3.5184046756563367e-15 -1.0 -1.2212453270876722e-15
  outer loop
    vertex 104.8757024990714 -74.79541258251595 4.99979193957163
    vertex 122.11006669816418 -74.79541258251588 -5.639932965095795e-13
    vertex 117.11006669816423 -74.7954125825159 4.999999999999348
  endloop
endfacet
facet normal 3.5184046756563367e-15 -1.0 -1.2212453270876722e-15
  outer loop
    vertex 117.11006669816423 -74.7954125825159 4.999999999999348
    vertex 122.11006669816418 -74.79541258251588 -5.639932965095795e-13
    vertex 122.11006669816418 -74.79541258251587 4.9999999999993365
  endloop
endfacet
facet normal 3.5184046756563367e-15 -1.0 -1.2212453270876722e-15
  outer loop
    vertex 97.8757024990714 -74.79541258251597 4.999791939571619
    vertex 117.11006669816422 -74.79541258251592 9.99999999999943
    vertex 97.87570249907138 -74.79541258251598 9.999583879143593
  endloop
endfacet
facet normal 3.5184046756563367e-15 -1.0 -1.2212453270876722e-15
  outer loop
    vertex 117.11006669816422 -74.79541258251592 9.99999999999943
    vertex 97.8757024990714 -74.79541258251597 4.999791939571619
    vertex 104.8757024990714 -74.79541258251595 4.99979193957163
  endloop
endfacet
facet normal 3.5184046756563367e-15 -1.0 -1.2212453270876722e-15
  outer loop
    vertex 117.11006669816422 -74.79541258251592 9.99999999999943
    vertex 104.8757024990714 -74.79541258251595 4.99979193957163
    vertex 117.11006669816423 -74.7954125825159 4.999999999999348
  endloop
endfacet
facet normal -0.4019571731411635 -1.404432126150823e-14 0.9156584685134326
  outer loop
    vertex 109.43571693332635 -7.554619407965777 3.4505189006440875
    vertex 110.13013471660537 -13.472710582515889 3.755355495011971
    vertex 110.13013471660535 -7.3566562088986736 3.7553554950121573
  endloop
endfacet
facet normal -0.4019571731411635 -1.404432126150823e-14 0.9156584685134326
  outer loop
    vertex 110.13013471660537 -13.472710582515889 3.755355495011971
    vertex 109.43571693332635 -7.554619407965777 3.4505189006440875
    vertex 109.43571693332638 -13.472710582515807 3.450518900644127
  endloop
endfacet
facet normal -0.248647091207354 -6.589173651150304e-14 0.9685941482551512
  outer loop
    vertex 111.67708576671515 -7.01407347817332 4.282886639264115
    vertex 112.51709017714137 -13.472710582515985 4.498523553476002
    vertex 112.51709017714134 -6.874037228710207 4.498523553476302
  endloop
endfacet
facet normal -0.248647091207354 -6.589173651150304e-14 0.9685941482551512
  outer loop
    vertex 112.51709017714137 -13.472710582515985 4.498523553476002
    vertex 111.67708576671515 -7.01407347817332 4.282886639264115
    vertex 111.67708576671517 -13.472710582515985 4.282886639263539
  endloop
endfacet
facet normal 0.2977082556915319 2.94764213037979e-14 -0.9546568988349193
  outer loop
    vertex 110.31369815691608 -3.8973556509113263 9.0822112235612
    vertex 109.26606236136799 -13.472710582515935 8.755507644847725
    vertex 109.26606236136799 -4.1095194356524 8.755507644848098
  endloop
endfacet
facet normal 0.2977082556915319 2.94764213037979e-14 -0.9546568988349193
  outer loop
    vertex 109.26606236136799 -13.472710582515935 8.755507644847725
    vertex 110.31369815691608 -3.8973556509113263 9.0822112235612
    vertex 110.31369815691608 -13.47271058251595 9.082211223561004
  endloop
endfacet
facet normal 0.15514508774125185 6.1062266354383594e-15 -0.9878916953541816
  outer loop
    vertex 113.63496170440094 -13.472710582515894 9.765174622417147
    vertex 112.50339422306155 -3.569239536071007 9.587465732866766
    vertex 113.6349617044009 -3.4538340338183278 9.765174622417085
  endloop
endfacet
facet normal 0.15514508774125185 6.1062266354383594e-15 -0.9878916953541816
  outer loop
    vertex 112.50339422306155 -3.569239536071007 9.587465732866766
    vertex 113.63496170440094 -13.472710582515894 9.765174622417147
    vertex 112.50339422306159 -13.472710582515864 9.58746573286658
  endloop
endfacet
facet normal -0.4576692622688634 -3.885780586188048e-15 0.8891225148281167
  outer loop
    vertex 108.80166322356844 -7.766569469961525 3.1241444260985136
    vertex 109.43571693332638 -13.472710582515807 3.450518900644127
    vertex 109.43571693332635 -7.554619407965777 3.4505189006440875
  endloop
endfacet
facet normal -0.4576692622688634 -3.885780586188048e-15 0.8891225148281167
  outer loop
    vertex 109.43571693332638 -13.472710582515807 3.450518900644127
    vertex 108.80166322356844 -7.766569469961525 3.1241444260985136
    vertex 108.80166322356848 -13.472710582515797 3.1241444260984292
  endloop
endfacet
facet normal 0.20122888096061334 1.1379786002407851e-14 -0.979544249877125
  outer loop
    vertex 112.50339422306155 -3.569239536071007 9.587465732866766
    vertex 111.39452479316512 -13.472710582515878 9.359669434192524
    vertex 111.39452479316512 -3.7171721821323107 9.359669434192552
  endloop
endfacet
facet normal 0.20122888096061334 1.1379786002407851e-14 -0.979544249877125
  outer loop
    vertex 111.39452479316512 -13.472710582515878 9.359669434192524
    vertex 112.50339422306155 -3.569239536071007 9.587465732866766
    vertex 112.50339422306159 -13.472710582515864 9.58746573286658
  endloop
endfacet
facet normal -0.6402046930646668 1.1601830607332883e-14 0.7682043679763711
  outer loop
    vertex 107.30677133350704 -8.449117664765383 2.073112374805186
    vertex 107.73371322420458 -13.472710582515813 2.428916394522654
    vertex 107.73371322420458 -8.21805583267069 2.428916394522581
  endloop
endfacet
facet normal -0.6402046930646668 1.1601830607332883e-14 0.7682043679763711
  outer loop
    vertex 107.73371322420458 -13.472710582515813 2.428916394522654
    vertex 107.30677133350704 -8.449117664765383 2.073112374805186
    vertex 107.30677133350704 -13.47271058251584 2.0731123748052087
  endloop
endfacet
facet normal 0.6402046930646849 6.161737786669619e-15 -0.7682043679763562
  outer loop
    vertex 104.69355983861855 -5.647086242237265 6.3878623898638
    vertex 103.94540447268153 -13.472710582515903 5.764366095933323
    vertex 103.9454044726815 -6.051989469846116 5.76436609593347
  endloop
endfacet
facet normal 0.6402046930646849 6.161737786669619e-15 -0.7682043679763562
  outer loop
    vertex 103.94540447268153 -13.472710582515903 5.764366095933323
    vertex 104.69355983861855 -5.647086242237265 6.3878623898638
    vertex 104.69355983861857 -13.47271058251587 6.387862389863834
  endloop
endfacet
facet normal 0.5160015502875608 2.1371793224034263e-14 -0.8565876488140802
  outer loop
    vertex 106.3708118041258 -4.936248001509981 7.482457291699342
    vertex 105.50376801285006 -13.472710582515855 6.960157044801063
    vertex 105.50376801285006 -5.275433747774489 6.960157044801283
  endloop
endfacet
facet normal 0.5160015502875608 2.1371793224034263e-14 -0.8565876488140802
  outer loop
    vertex 105.50376801285006 -13.472710582515855 6.960157044801063
    vertex 106.3708118041258 -4.936248001509981 7.482457291699342
    vertex 106.37081180412582 -13.472710582515875 7.482457291699201
  endloop
endfacet
facet normal 0.3487165923893051 3.480549182199866e-14 -0.9372282209752283
  outer loop
    vertex 109.26606236136799 -13.472710582515935 8.755507644847725
    vertex 108.25655884054991 -4.3534422685389265 8.379899420611757
    vertex 109.26606236136799 -4.1095194356524 8.755507644848098
  endloop
endfacet
facet normal 0.3487165923893051 3.480549182199866e-14 -0.9372282209752283
  outer loop
    vertex 108.25655884054991 -4.3534422685389265 8.379899420611757
    vertex 109.26606236136799 -13.472710582515935 8.755507644847725
    vertex 108.25655884054991 -13.472710582515901 8.37989942061144
  endloop
endfacet
facet normal -0.20122888096068242 -4.4020342926387457e-14 0.9795442498771108
  outer loop
    vertex 112.51709017714137 -13.472710582515985 4.498523553476002
    vertex 113.39260723794665 -6.75723578032978 4.6783820115601245
    vertex 112.51709017714134 -6.874037228710207 4.498523553476302
  endloop
endfacet
facet normal -0.20122888096068242 -4.4020342926387457e-14 0.9795442498771108
  outer loop
    vertex 113.39260723794665 -6.75723578032978 4.6783820115601245
    vertex 112.51709017714137 -13.472710582515985 4.498523553476002
    vertex 113.39260723794666 -13.472710582515894 4.678382011559865
  endloop
endfacet
facet normal 1.0 -6.181620155882893e-16 2.4552137311954122e-15
  outer loop
    vertex 191.3444308972567 -6.54837461652807 4.99999999999998
    vertex 191.34443089725664 -74.7954125825157 9.99999999999971
    vertex 191.34443089725664 -74.7954125825157 4.999999999999878
  endloop
endfacet
facet normal 1.0 -6.181620155882893e-16 2.4552137311954122e-15
  outer loop
    vertex 191.34443089725664 -74.7954125825157 9.99999999999971
    vertex 191.3444308972567 -6.54837461652807 4.99999999999998
    vertex 191.34443089725667 -3.301336650540567 9.999999999999954
  endloop
endfacet
facet normal -4.192202202106222e-16 0.8386705679454258 -0.5446390350150244
  outer loop
    vertex 137.61006669816413 -6.548374616528059 4.999999999999917
    vertex 137.6100666981641 -8.496597396120668 1.9999999999997933
    vertex 117.1101401787983 -6.549463475010859 4.998323304971733
  endloop
endfacet
facet normal -4.192202202106222e-16 0.8386705679454258 -0.5446390350150244
  outer loop
    vertex 191.34443089725667 -3.301336650540567 9.999999999999954
    vertex 184.3444308972567 -6.54837461652807 4.999999999999951
    vertex 172.11006669816408 -3.3013366505405615 9.99999999999984
  endloop
endfacet
facet normal -4.192202202106222e-16 0.8386705679454258 -0.5446390350150244
  outer loop
    vertex 184.3444308972567 -6.54837461652807 4.999999999999951
    vertex 191.34443089725667 -3.301336650540567 9.999999999999954
    vertex 191.3444308972567 -6.54837461652807 4.99999999999998
  endloop
endfacet
facet normal -4.192202202106222e-16 0.8386705679454258 -0.5446390350150244
  outer loop
    vertex 106.15825557199882 -9.639708804183138 0.23976279298767492
    vertex 184.3444308972567 -9.795412582515596 -4.511946372076636e-14
    vertex 106.14133829997832 -9.795412582515784 -3.665956427312267e-13
  endloop
endfacet
facet normal -4.192202202106222e-16 0.8386705679454258 -0.5446390350150244
  outer loop
    vertex 184.3444308972567 -9.795412582515596 -4.511946372076636e-14
    vertex 106.15825557199882 -9.639708804183138 0.23976279298767492
    vertex 106.2117687738182 -9.476209433908164 0.4915297448798497
  endloop
endfacet
facet normal -4.192202202106222e-16 0.8386705679454258 -0.5446390350150244
  outer loop
    vertex 184.3444308972567 -9.795412582515596 -4.511946372076636e-14
    vertex 106.2117687738182 -9.476209433908164 0.4915297448798497
    vertex 106.3091373828902 -9.299194784099917 0.764108402201463
  endloop
endfacet
facet normal -4.192202202106222e-16 0.8386705679454258 -0.5446390350150244
  outer loop
    vertex 184.3444308972567 -9.795412582515596 -4.511946372076636e-14
    vertex 106.3091373828902 -9.299194784099917 0.764108402201463
    vertex 106.45967338014219 -9.106176536801012 1.0613304385939233
  endloop
endfacet
facet normal -4.192202202106222e-16 0.8386705679454258 -0.5446390350150244
  outer loop
    vertex 184.3444308972567 -9.795412582515596 -4.511946372076636e-14
    vertex 106.45967338014219 -9.106176536801012 1.0613304385939233
    vertex 106.67218627684042 -8.897868638559014 1.3820964727826759
  endloop
endfacet
facet normal -4.192202202106222e-16 0.8386705679454258 -0.5446390350150244
  outer loop
    vertex 184.3444308972567 -9.795412582515596 -4.511946372076636e-14
    vertex 106.67218627684042 -8.897868638559014 1.3820964727826759
    vertex 106.95328986956477 -8.677367136271544 1.7216390106236332
  endloop
endfacet
facet normal -4.192202202106222e-16 0.8386705679454258 -0.5446390350150244
  outer loop
    vertex 184.3444308972567 -9.795412582515596 -4.511946372076636e-14
    vertex 106.95328986956477 -8.677367136271544 1.7216390106236332
    vertex 107.30677133350704 -8.449117664765383 2.073112374805186
  endloop
endfacet
facet normal -4.192202202106222e-16 0.8386705679454258 -0.5446390350150244
  outer loop
    vertex 184.3444308972567 -9.795412582515596 -4.511946372076636e-14
    vertex 107.30677133350704 -8.449117664765383 2.073112374805186
    vertex 107.73371322420458 -8.21805583267069 2.428916394522581
  endloop
endfacet
facet normal -4.192202202106222e-16 0.8386705679454258 -0.5446390350150244
  outer loop
    vertex 184.3444308972567 -9.795412582515596 -4.511946372076636e-14
    vertex 107.73371322420458 -8.21805583267069 2.428916394522581
    vertex 108.23296253742424 -7.98904400766308 2.781563680151063
  endloop
endfacet
facet normal -4.192202202106222e-16 0.8386705679454258 -0.5446390350150244
  outer loop
    vertex 184.3444308972567 -9.795412582515596 -4.511946372076636e-14
    vertex 108.23296253742424 -7.98904400766308 2.781563680151063
    vertex 108.80166322356844 -7.766569469961525 3.1241444260985136
  endloop
endfacet
facet normal -4.192202202106222e-16 0.8386705679454258 -0.5446390350150244
  outer loop
    vertex 184.3444308972567 -9.795412582515596 -4.511946372076636e-14
    vertex 108.80166322356844 -7.766569469961525 3.1241444260985136
    vertex 137.6100666981641 -8.496597396120668 1.9999999999997933
  endloop
endfacet
facet normal -4.192202202106222e-16 0.8386705679454258 -0.5446390350150244
  outer loop
    vertex 137.6100666981641 -8.496597396120668 1.9999999999997933
    vertex 108.80166322356844 -7.766569469961525 3.1241444260985136
    vertex 109.43571693332635 -7.554619407965777 3.4505189006440875
  endloop
endfacet
facet normal -4.192202202106222e-16 0.8386705679454258 -0.5446390350150244
  outer loop
    vertex 137.6100666981641 -8.496597396120668 1.9999999999997933
    vertex 109.43571693332635 -7.554619407965777 3.4505189006440875
    vertex 110.13013471660535 -7.3566562088986736 3.7553554950121573
  endloop
endfacet
facet normal -4.192202202106222e-16 0.8386705679454258 -0.5446390350150244
  outer loop
    vertex 137.6100666981641 -8.496597396120668 1.9999999999997933
    vertex 110.13013471660535 -7.3566562088986736 3.7553554950121573
    vertex 110.87928852175796 -7.17564077442806 4.034094820463177
  endloop
endfacet
facet normal -4.192202202106222e-16 0.8386705679454258 -0.5446390350150244
  outer loop
    vertex 137.6100666981641 -8.496597396120668 1.9999999999997933
    vertex 110.87928852175796 -7.17564077442806 4.034094820463177
    vertex 111.67708576671515 -7.01407347817332 4.282886639264115
  endloop
endfacet
facet normal -4.192202202106222e-16 0.8386705679454258 -0.5446390350150244
  outer loop
    vertex 137.6100666981641 -8.496597396120668 1.9999999999997933
    vertex 111.67708576671515 -7.01407347817332 4.282886639264115
    vertex 112.51709017714134 -6.874037228710207 4.498523553476302
  endloop
endfacet
facet normal -4.192202202106222e-16 0.8386705679454258 -0.5446390350150244
  outer loop
    vertex 137.6100666981641 -8.496597396120668 1.9999999999997933
    vertex 112.51709017714134 -6.874037228710207 4.498523553476302
    vertex 113.39260723794665 -6.75723578032978 4.6783820115601245
  endloop
endfacet
facet normal -4.192202202106222e-16 0.8386705679454258 -0.5446390350150244
  outer loop
    vertex 137.6100666981641 -8.496597396120668 1.9999999999997933
    vertex 113.39260723794665 -6.75723578032978 4.6783820115601245
    vertex 114.29674728874559 -6.665024985666593 4.820374183547519
  endloop
endfacet
facet normal -4.192202202106222e-16 0.8386705679454258 -0.5446390350150244
  outer loop
    vertex 137.6100666981641 -8.496597396120668 1.9999999999997933
    vertex 114.29674728874559 -6.665024985666593 4.820374183547519
    vertex 115.19516981044808 -6.600400894731697 4.919886556996523
  endloop
endfacet
facet normal -4.192202202106222e-16 0.8386705679454258 -0.5446390350150244
  outer loop
    vertex 137.6100666981641 -8.496597396120668 1.9999999999997933
    vertex 115.19516981044808 -6.600400894731697 4.919886556996523
    vertex 117.1101401787983 -6.549463475010859 4.998323304971733
  endloop
endfacet
facet normal -4.192202202106222e-16 0.8386705679454258 -0.5446390350150244
  outer loop
    vertex 184.3444308972567 -9.795412582515596 -4.511946372076636e-14
    vertex 137.6100666981641 -8.496597396120668 1.9999999999997933
    vertex 151.610066698164 -8.496597396120642 1.9999999999998215
  endloop
endfacet
facet normal -4.192202202106222e-16 0.8386705679454258 -0.5446390350150244
  outer loop
    vertex 184.3444308972567 -9.795412582515596 -4.511946372076636e-14
    vertex 151.610066698164 -8.496597396120642 1.9999999999998215
    vertex 151.61006669816402 -6.548374616528073 4.999999999999906
  endloop
endfacet
facet normal -4.192202202106222e-16 0.8386705679454258 -0.5446390350150244
  outer loop
    vertex 184.3444308972567 -9.795412582515596 -4.511946372076636e-14
    vertex 151.61006669816402 -6.548374616528073 4.999999999999906
    vertex 172.11006669816405 -6.54837461652803 4.9999999999999405
  endloop
endfacet
facet normal -4.192202202106222e-16 0.8386705679454258 -0.5446390350150244
  outer loop
    vertex 184.3444308972567 -9.795412582515596 -4.511946372076636e-14
    vertex 172.11006669816405 -6.54837461652803 4.9999999999999405
    vertex 172.11006669816408 -3.3013366505405615 9.99999999999984
  endloop
endfacet
facet normal -4.192202202106222e-16 0.8386705679454258 -0.5446390350150244
  outer loop
    vertex 184.3444308972567 -9.795412582515596 -4.511946372076636e-14
    vertex 172.11006669816408 -3.3013366505405615 9.99999999999984
    vertex 184.3444308972567 -6.54837461652807 4.999999999999951
  endloop
endfacet
facet normal -9.806211136212424e-05 1.4221866785568693e-05 0.9999999950907804
  outer loop
    vertex 172.1100666981641 -31.910947631568806 9.990692383757608
    vertex 191.34443089725667 -3.301336650540567 9.999999999999954
    vertex 172.11006669816408 -3.3013366505405615 9.99999999999984
  endloop
endfacet
facet normal -9.806211136212424e-05 1.4221866785568693e-05 0.9999999950907804
  outer loop
    vertex 191.34443089725667 -3.301336650540567 9.999999999999954
    vertex 172.1100666981641 -31.910947631568806 9.990692383757608
    vertex 191.34443089725664 -74.7954125825157 9.99999999999971
  endloop
endfacet
facet normal -9.806211136212424e-05 1.4221866785568693e-05 0.9999999950907804
  outer loop
    vertex 191.34443089725664 -74.7954125825157 9.99999999999971
    vertex 172.1100666981641 -31.910947631568806 9.990692383757608
    vertex 172.11006669816408 -34.295412582515745 9.999999999999705
  endloop
endfacet
facet normal -9.806211136212424e-05 1.4221866785568693e-05 0.9999999950907804
  outer loop
    vertex 191.34443089725664 -74.7954125825157 9.99999999999971
    vertex 172.11006669816408 -34.295412582515745 9.999999999999705
    vertex 172.11006669816416 -64.79541258251564 9.999999999999575
  endloop
endfacet
facet normal -9.806211136212424e-05 1.4221866785568693e-05 0.9999999950907804
  outer loop
    vertex 191.34443089725664 -74.7954125825157 9.99999999999971
    vertex 172.11006669816416 -64.79541258251564 9.999999999999575
    vertex 172.11006669816416 -74.79541258251584 9.999999999999531
  endloop
endfacet
facet normal 1.0 -7.438377105245908e-16 2.496021106481403e-15
  outer loop
    vertex 184.3444308972567 -9.795412582515596 -4.511946372076636e-14
    vertex 184.34443089725661 -74.7954125825157 4.9999999999998614
    vertex 184.34443089725667 -74.7954125825157 2.8199664825478976e-14
  endloop
endfacet
facet normal 1.0 -7.438377105245908e-16 2.496021106481403e-15
  outer loop
    vertex 184.34443089725661 -74.7954125825157 4.9999999999998614
    vertex 184.3444308972567 -9.795412582515596 -4.511946372076636e-14
    vertex 184.3444308972567 -6.54837461652807 4.999999999999951
  endloop
endfacet
facet normal 2.4960211064814035e-15 1.7763568394002505e-15 -1.0
  outer loop
    vertex 191.3444308972567 -6.54837461652807 4.99999999999998
    vertex 184.34443089725661 -74.7954125825157 4.9999999999998614
    vertex 184.3444308972567 -6.54837461652807 4.999999999999951
  endloop
endfacet
facet normal 2.4960211064814035e-15 1.7763568394002505e-15 -1.0
  outer loop
    vertex 184.34443089725661 -74.7954125825157 4.9999999999998614
    vertex 191.3444308972567 -6.54837461652807 4.99999999999998
    vertex 191.34443089725664 -74.7954125825157 4.999999999999878
  endloop
endfacet
facet normal 3.732387927887654e-15 1.7763568394002505e-15 -1.0
  outer loop
    vertex 184.3444308972567 -9.795412582515596 -4.511946372076636e-14
    vertex 106.14133829997833 -13.472710582515898 -4.2299497238218464e-13
    vertex 106.14133829997832 -9.795412582515784 -3.665956427312267e-13
  endloop
endfacet
facet normal 3.732387927887654e-15 1.7763568394002505e-15 -1.0
  outer loop
    vertex 106.14133829997833 -13.472710582515898 -4.2299497238218464e-13
    vertex 184.3444308972567 -9.795412582515596 -4.511946372076636e-14
    vertex 167.11006669816416 -32.7954125825158 -4.1735503941708883e-13
  endloop
endfacet
facet normal 3.732387927887654e-15 1.7763568394002505e-15 -1.0
  outer loop
    vertex 167.11006669816416 -32.7954125825158 -4.1735503941708883e-13
    vertex 184.3444308972567 -9.795412582515596 -4.511946372076636e-14
    vertex 184.34443089725667 -74.7954125825157 2.8199664825478976e-14
  endloop
endfacet
facet normal 3.732387927887654e-15 1.7763568394002505e-15 -1.0
  outer loop
    vertex 167.11006669816416 -32.7954125825158 -4.1735503941708883e-13
    vertex 184.34443089725667 -74.7954125825157 2.8199664825478976e-14
    vertex 167.11006669816425 -74.79541258251581 -4.963141009284299e-13
  endloop
endfacet
facet normal 3.732387927887654e-15 1.7763568394002505e-15 -1.0
  outer loop
    vertex 106.14133829997833 -13.472710582515898 -4.2299497238218464e-13
    vertex 104.87570249907132 -74.79541258251594 -3.665956427312267e-13
    vertex 104.87570249907122 -13.472710582515912 -4.68114436102951e-13
  endloop
endfacet
facet normal 3.732387927887654e-15 1.7763568394002505e-15 -1.0
  outer loop
    vertex 104.87570249907132 -74.79541258251594 -3.665956427312267e-13
    vertex 106.14133829997833 -13.472710582515898 -4.2299497238218464e-13
    vertex 122.11006669816412 -32.795412582515894 -4.850342349982384e-13
  endloop
endfacet
facet normal 3.732387927887654e-15 1.7763568394002505e-15 -1.0
  outer loop
    vertex 122.11006669816412 -32.795412582515894 -4.850342349982384e-13
    vertex 106.14133829997833 -13.472710582515898 -4.2299497238218464e-13
    vertex 167.11006669816416 -32.7954125825158 -4.1735503941708883e-13
  endloop
endfacet
facet normal 3.732387927887654e-15 1.7763568394002505e-15 -1.0
  outer loop
    vertex 104.87570249907132 -74.79541258251594 -3.665956427312267e-13
    vertex 122.11006669816412 -32.795412582515894 -4.850342349982384e-13
    vertex 122.11006669816418 -74.79541258251588 -5.639932965095795e-13
  endloop
endfacet
facet normal -1.0 -1.9634756932080177e-15 -1.6169461657067131e-15
  outer loop
    vertex 97.87570249907138 -74.79541258251598 9.999583879143593
    vertex 97.87570249907125 -6.548509732549971 4.999791939571765
    vertex 97.8757024990714 -74.79541258251597 4.999791939571619
  endloop
endfacet
facet normal -1.0 -1.9634756932080177e-15 -1.6169461657067131e-15
  outer loop
    vertex 97.87570249907125 -6.548509732549971 4.999791939571765
    vertex 97.87570249907138 -74.79541258251598 9.999583879143593
    vertex 97.87570249907124 -3.3013366505406405 9.999999999999801
  endloop
endfacet
facet normal -1.4789902599772194e-14 1.3877787807814457e-15 -1.0
  outer loop
    vertex 104.8757024990714 -74.79541258251595 4.99979193957163
    vertex 103.1921863957122 -13.472710582515912 4.99979193957163
    vertex 104.87570249907128 -13.472710582515893 4.999791939571528
  endloop
endfacet
facet normal -1.4789902599772194e-14 1.3877787807814457e-15 -1.0
  outer loop
    vertex 103.1921863957122 -13.472710582515912 4.99979193957163
    vertex 97.87570249907125 -6.548509732549971 4.999791939571765
    vertex 103.19218639571189 -6.548509732550008 4.999791939571653
  endloop
endfacet
facet normal -1.4789902599772194e-14 1.3877787807814457e-15 -1.0
  outer loop
    vertex 97.87570249907125 -6.548509732549971 4.999791939571765
    vertex 103.1921863957122 -13.472710582515912 4.99979193957163
    vertex 97.8757024990714 -74.79541258251597 4.999791939571619
  endloop
endfacet
facet normal -1.4789902599772194e-14 1.3877787807814457e-15 -1.0
  outer loop
    vertex 97.8757024990714 -74.79541258251597 4.999791939571619
    vertex 103.1921863957122 -13.472710582515912 4.99979193957163
    vertex 104.8757024990714 -74.79541258251595 4.99979193957163
  endloop
endfacet
facet normal -1.0 -1.9634756932080016e-15 1.1919456228458376e-14
  outer loop
    vertex 104.8757024990714 -74.79541258251595 4.99979193957163
    vertex 104.87570249907122 -13.472710582515912 -4.68114436102951e-13
    vertex 104.87570249907132 -74.79541258251594 -3.665956427312267e-13
  endloop
endfacet
facet normal -1.0 -1.9634756932080016e-15 1.1919456228458376e-14
  outer loop
    vertex 104.87570249907122 -13.472710582515912 -4.68114436102951e-13
    vertex 104.8757024990714 -74.79541258251595 4.99979193957163
    vertex 104.87570249907128 -13.472710582515893 4.999791939571528
  endloop
endfacet
facet normal -3.412432080650464e-08 0.9999999999999981 -5.2036479458728024e-08
  outer loop
    vertex 103.26539377615397 -13.472710582515894 5.0882184854687935
    vertex 104.87570249907128 -13.472710582515893 4.999791939571528
    vertex 103.1921863957122 -13.472710582515912 4.99979193957163
  endloop
endfacet
facet normal -3.412432080650464e-08 0.9999999999999981 -5.2036479458728024e-08
  outer loop
    vertex 104.87570249907128 -13.472710582515893 4.999791939571528
    vertex 103.26539377615397 -13.472710582515894 5.0882184854687935
    vertex 103.94540447268153 -13.472710582515903 5.764366095933323
  endloop
endfacet
facet normal -3.412432080650464e-08 0.9999999999999981 -5.2036479458728024e-08
  outer loop
    vertex 104.87570249907128 -13.472710582515893 4.999791939571528
    vertex 103.94540447268153 -13.472710582515903 5.764366095933323
    vertex 104.69355983861857 -13.47271058251587 6.387862389863834
  endloop
endfacet
facet normal -3.412432080650464e-08 0.9999999999999981 -5.2036479458728024e-08
  outer loop
    vertex 104.87570249907128 -13.472710582515893 4.999791939571528
    vertex 104.69355983861857 -13.47271058251587 6.387862389863834
    vertex 105.50376801285006 -13.472710582515855 6.960157044801063
  endloop
endfacet
facet normal -3.412432080650464e-08 0.9999999999999981 -5.2036479458728024e-08
  outer loop
    vertex 104.87570249907128 -13.472710582515893 4.999791939571528
    vertex 106.14133829997833 -13.472710582515898 -4.2299497238218464e-13
    vertex 104.87570249907122 -13.472710582515912 -4.68114436102951e-13
  endloop
endfacet
facet normal -3.412432080650464e-08 0.9999999999999981 -5.2036479458728024e-08
  outer loop
    vertex 106.14133829997833 -13.472710582515898 -4.2299497238218464e-13
    vertex 104.87570249907128 -13.472710582515893 4.999791939571528
    vertex 105.50376801285006 -13.472710582515855 6.960157044801063
  endloop
endfacet
facet normal -3.412432080650464e-08 0.9999999999999981 -5.2036479458728024e-08
  outer loop
    vertex 106.14133829997833 -13.472710582515898 -4.2299497238218464e-13
    vertex 105.50376801285006 -13.472710582515855 6.960157044801063
    vertex 106.37081180412582 -13.472710582515875 7.482457291699201
  endloop
endfacet
facet normal -3.412432080650464e-08 0.9999999999999981 -5.2036479458728024e-08
  outer loop
    vertex 106.14133829997833 -13.472710582515898 -4.2299497238218464e-13
    vertex 106.37081180412582 -13.472710582515875 7.482457291699201
    vertex 106.15825557199885 -13.472710582515834 0.23976279298751701
  endloop
endfacet
facet normal -3.412432080650464e-08 0.9999999999999981 -5.2036479458728024e-08
  outer loop
    vertex 106.15825557199885 -13.472710582515834 0.23976279298751701
    vertex 106.37081180412582 -13.472710582515875 7.482457291699201
    vertex 106.21176877381818 -13.472710582515846 0.49152974487986656
  endloop
endfacet
facet normal -3.412432080650464e-08 0.9999999999999981 -5.2036479458728024e-08
  outer loop
    vertex 106.21176877381818 -13.472710582515846 0.49152974487986656
    vertex 106.37081180412582 -13.472710582515875 7.482457291699201
    vertex 106.30913738289021 -13.47271058251586 0.7641084022014969
  endloop
endfacet
facet normal -3.412432080650464e-08 0.9999999999999981 -5.2036479458728024e-08
  outer loop
    vertex 106.30913738289021 -13.47271058251586 0.7641084022014969
    vertex 106.37081180412582 -13.472710582515875 7.482457291699201
    vertex 106.45967338014219 -13.472710582515765 1.0613304385940587
  endloop
endfacet
facet normal -3.412432080650464e-08 0.9999999999999981 -5.2036479458728024e-08
  outer loop
    vertex 106.45967338014219 -13.472710582515765 1.0613304385940587
    vertex 106.37081180412582 -13.472710582515875 7.482457291699201
    vertex 107.2899377196195 -13.472710582515951 7.955570583355614
  endloop
endfacet
facet normal -3.412432080650464e-08 0.9999999999999981 -5.2036479458728024e-08
  outer loop
    vertex 106.45967338014219 -13.472710582515765 1.0613304385940587
    vertex 107.2899377196195 -13.472710582515951 7.955570583355614
    vertex 106.67218627684042 -13.472710582515807 1.3820964727826477
  endloop
endfacet
facet normal -3.412432080650464e-08 0.9999999999999981 -5.2036479458728024e-08
  outer loop
    vertex 106.67218627684042 -13.472710582515807 1.3820964727826477
    vertex 107.2899377196195 -13.472710582515951 7.955570583355614
    vertex 106.95328986956477 -13.472710582515816 1.7216390106237347
  endloop
endfacet
facet normal -3.412432080650464e-08 0.9999999999999981 -5.2036479458728024e-08
  outer loop
    vertex 106.95328986956477 -13.472710582515816 1.7216390106237347
    vertex 107.2899377196195 -13.472710582515951 7.955570583355614
    vertex 107.30677133350704 -13.47271058251584 2.0731123748052087
  endloop
endfacet
facet normal -3.412432080650464e-08 0.9999999999999981 -5.2036479458728024e-08
  outer loop
    vertex 107.30677133350704 -13.47271058251584 2.0731123748052087
    vertex 107.2899377196195 -13.472710582515951 7.955570583355614
    vertex 108.25655884054991 -13.472710582515901 8.37989942061144
  endloop
endfacet
facet normal -3.412432080650464e-08 0.9999999999999981 -5.2036479458728024e-08
  outer loop
    vertex 107.30677133350704 -13.47271058251584 2.0731123748052087
    vertex 108.25655884054991 -13.472710582515901 8.37989942061144
    vertex 107.73371322420458 -13.472710582515813 2.428916394522654
  endloop
endfacet
facet normal -3.412432080650464e-08 0.9999999999999981 -5.2036479458728024e-08
  outer loop
    vertex 107.73371322420458 -13.472710582515813 2.428916394522654
    vertex 108.25655884054991 -13.472710582515901 8.37989942061144
    vertex 108.23296253742431 -13.472710582515793 2.78156368015108
  endloop
endfacet
facet normal -3.412432080650464e-08 0.9999999999999981 -5.2036479458728024e-08
  outer loop
    vertex 108.23296253742431 -13.472710582515793 2.78156368015108
    vertex 108.25655884054991 -13.472710582515901 8.37989942061144
    vertex 108.80166322356848 -13.472710582515797 3.1241444260984292
  endloop
endfacet
facet normal -3.412432080650464e-08 0.9999999999999981 -5.2036479458728024e-08
  outer loop
    vertex 108.80166322356848 -13.472710582515797 3.1241444260984292
    vertex 108.25655884054991 -13.472710582515901 8.37989942061144
    vertex 109.26606236136799 -13.472710582515935 8.755507644847725
  endloop
endfacet
facet normal -3.412432080650464e-08 0.9999999999999981 -5.2036479458728024e-08
  outer loop
    vertex 108.80166322356848 -13.472710582515797 3.1241444260984292
    vertex 109.26606236136799 -13.472710582515935 8.755507644847725
    vertex 109.43571693332638 -13.472710582515807 3.450518900644127
  endloop
endfacet
facet normal -3.412432080650464e-08 0.9999999999999981 -5.2036479458728024e-08
  outer loop
    vertex 109.43571693332638 -13.472710582515807 3.450518900644127
    vertex 109.26606236136799 -13.472710582515935 8.755507644847725
    vertex 110.31369815691608 -13.47271058251595 9.082211223561004
  endloop
endfacet
facet normal -3.412432080650464e-08 0.9999999999999981 -5.2036479458728024e-08
  outer loop
    vertex 109.43571693332638 -13.472710582515807 3.450518900644127
    vertex 110.31369815691608 -13.47271058251595 9.082211223561004
    vertex 110.13013471660537 -13.472710582515889 3.755355495011971
  endloop
endfacet
facet normal -3.412432080650464e-08 0.9999999999999981 -5.2036479458728024e-08
  outer loop
    vertex 110.13013471660537 -13.472710582515889 3.755355495011971
    vertex 110.31369815691608 -13.47271058251595 9.082211223561004
    vertex 110.87928852175797 -13.472710582515845 4.034094820462962
  endloop
endfacet
facet normal -3.412432080650464e-08 0.9999999999999981 -5.2036479458728024e-08
  outer loop
    vertex 110.87928852175797 -13.472710582515845 4.034094820462962
    vertex 110.31369815691608 -13.47271058251595 9.082211223561004
    vertex 111.39452479316512 -13.472710582515878 9.359669434192524
  endloop
endfacet
facet normal -3.412432080650464e-08 0.9999999999999981 -5.2036479458728024e-08
  outer loop
    vertex 110.87928852175797 -13.472710582515845 4.034094820462962
    vertex 111.39452479316512 -13.472710582515878 9.359669434192524
    vertex 111.67708576671517 -13.472710582515985 4.282886639263539
  endloop
endfacet
facet normal -3.412432080650464e-08 0.9999999999999981 -5.2036479458728024e-08
  outer loop
    vertex 111.67708576671517 -13.472710582515985 4.282886639263539
    vertex 111.39452479316512 -13.472710582515878 9.359669434192524
    vertex 112.50339422306159 -13.472710582515864 9.58746573286658
  endloop
endfacet
facet normal -3.412432080650464e-08 0.9999999999999981 -5.2036479458728024e-08
  outer loop
    vertex 111.67708576671517 -13.472710582515985 4.282886639263539
    vertex 112.50339422306159 -13.472710582515864 9.58746573286658
    vertex 112.51709017714137 -13.472710582515985 4.498523553476002
  endloop
endfacet
facet normal -3.412432080650464e-08 0.9999999999999981 -5.2036479458728024e-08
  outer loop
    vertex 112.51709017714137 -13.472710582515985 4.498523553476002
    vertex 112.50339422306159 -13.472710582515864 9.58746573286658
    vertex 113.63496170440094 -13.472710582515894 9.765174622417147
  endloop
endfacet
facet normal -3.412432080650464e-08 0.9999999999999981 -5.2036479458728024e-08
  outer loop
    vertex 112.51709017714137 -13.472710582515985 4.498523553476002
    vertex 113.63496170440094 -13.472710582515894 9.765174622417147
    vertex 113.39260723794666 -13.472710582515894 4.678382011559865
  endloop
endfacet
facet normal -3.412432080650464e-08 0.9999999999999981 -5.2036479458728024e-08
  outer loop
    vertex 113.39260723794666 -13.472710582515894 4.678382011559865
    vertex 113.63496170440094 -13.472710582515894 9.765174622417147
    vertex 114.29674728874562 -13.472710582515901 4.8203741835472425
  endloop
endfacet
facet normal -3.412432080650464e-08 0.9999999999999981 -5.2036479458728024e-08
  outer loop
    vertex 114.29674728874562 -13.472710582515901 4.8203741835472425
    vertex 113.63496170440094 -13.472710582515894 9.765174622417147
    vertex 114.81101694239534 -13.472710582515855 9.895438551930106
  endloop
endfacet
facet normal -3.412432080650464e-08 0.9999999999999981 -5.2036479458728024e-08
  outer loop
    vertex 114.29674728874562 -13.472710582515901 4.8203741835472425
    vertex 114.81101694239534 -13.472710582515855 9.895438551930106
    vertex 115.19516981044809 -13.472710582515957 4.919886556996174
  endloop
endfacet
facet normal -3.412432080650464e-08 0.9999999999999981 -5.2036479458728024e-08
  outer loop
    vertex 115.19516981044809 -13.472710582515957 4.919886556996174
    vertex 114.81101694239534 -13.472710582515855 9.895438551930106
    vertex 114.81101868381592 -13.472705134379124 9.999992923876913
  endloop
endfacet
facet normal -3.412432080650464e-08 0.9999999999999981 -5.2036479458728024e-08
  outer loop
    vertex 115.19516981044809 -13.472710582515957 4.919886556996174
    vertex 114.81101868381592 -13.472705134379124 9.999992923876913
    vertex 117.11006669816412 -13.472710582515942 9.99999999999969
  endloop
endfacet
facet normal -3.412432080650464e-08 0.9999999999999981 -5.2036479458728024e-08
  outer loop
    vertex 115.19516981044809 -13.472710582515957 4.919886556996174
    vertex 117.11006669816412 -13.472710582515942 9.99999999999969
    vertex 117.10998345280807 -13.472710582515921 5.001899508300578
  endloop
endfacet
facet normal 0.7702796809205883 9.514611321037592e-14 -0.6377062122646108
  outer loop
    vertex 103.26539377615397 -13.415285712170068 5.0882184854687935
    vertex 103.26539377615397 -13.472710582515894 5.0882184854687935
    vertex 103.1921863957122 -13.472710582515912 4.99979193957163
  endloop
endfacet
facet normal 0.7702796809205913 3.563815909046752e-14 -0.637706212264607
  outer loop
    vertex 103.19218639571189 -6.548509732550008 4.999791939571653
    vertex 103.26539377615397 -13.415285712170068 5.0882184854687935
    vertex 103.1921863957122 -13.472710582515912 4.99979193957163
  endloop
endfacet
facet normal 0.7702796809205913 3.563815909046752e-14 -0.637706212264607
  outer loop
    vertex 103.26539377615397 -13.415285712170068 5.0882184854687935
    vertex 103.19218639571189 -6.548509732550008 4.999791939571653
    vertex 103.26539377615394 -6.491084862203985 5.088218485469171
  endloop
endfacet
facet normal -9.016347613940892e-06 -2.437035490521211e-06 0.9999999999563832
  outer loop
    vertex 97.87570249907138 -74.79541258251598 9.999583879143593
    vertex 114.8110169423953 -3.3013366505406063 9.99999999999984
    vertex 97.87570249907124 -3.3013366505406405 9.999999999999801
  endloop
endfacet
facet normal -9.016347613940892e-06 -2.437035490521211e-06 0.9999999999563832
  outer loop
    vertex 114.8110169423953 -3.3013366505406063 9.99999999999984
    vertex 97.87570249907138 -74.79541258251598 9.999583879143593
    vertex 114.81101868381592 -13.472705134379124 9.999992923876913
  endloop
endfacet
facet normal -9.016347613940892e-06 -2.437035490521211e-06 0.9999999999563832
  outer loop
    vertex 114.81101868381592 -13.472705134379124 9.999992923876913
    vertex 97.87570249907138 -74.79541258251598 9.999583879143593
    vertex 117.11006669816412 -13.472710582515942 9.99999999999969
  endloop
endfacet
facet normal -9.016347613940892e-06 -2.437035490521211e-06 0.9999999999563832
  outer loop
    vertex 117.11006669816412 -13.472710582515942 9.99999999999969
    vertex 97.87570249907138 -74.79541258251598 9.999583879143593
    vertex 117.11006669816412 -22.389862038410268 9.999999999999632
  endloop
endfacet
facet normal -9.016347613940892e-06 -2.437035490521211e-06 0.9999999999563832
  outer loop
    vertex 117.11006669816412 -22.389862038410268 9.999999999999632
    vertex 97.87570249907138 -74.79541258251598 9.999583879143593
    vertex 117.11006669816415 -34.29541258251581 9.999999999999565
  endloop
endfacet
facet normal -9.016347613940892e-06 -2.437035490521211e-06 0.9999999999563832
  outer loop
    vertex 117.11006669816415 -34.29541258251581 9.999999999999565
    vertex 97.87570249907138 -74.79541258251598 9.999583879143593
    vertex 117.11006669816418 -35.50357963212306 9.99999999999957
  endloop
endfacet
facet normal -9.016347613940892e-06 -2.437035490521211e-06 0.9999999999563832
  outer loop
    vertex 117.11006669816418 -35.50357963212306 9.99999999999957
    vertex 97.87570249907138 -74.79541258251598 9.999583879143593
    vertex 117.11006669816422 -64.79541258251574 9.99999999999949
  endloop
endfacet
facet normal -9.016347613940892e-06 -2.437035490521211e-06 0.9999999999563832
  outer loop
    vertex 117.11006669816422 -64.79541258251574 9.99999999999949
    vertex 97.87570249907138 -74.79541258251598 9.999583879143593
    vertex 117.11006669816422 -74.79541258251592 9.99999999999943
  endloop
endfacet
facet normal -1.3457000150290756e-16 0.8386705679454266 -0.5446390350150232
  outer loop
    vertex 97.87570249907124 -3.3013366505406405 9.999999999999801
    vertex 109.26606236136799 -4.1095194356524 8.755507644848098
    vertex 97.87570249907125 -6.548509732549971 4.999791939571765
  endloop
endfacet
facet normal -1.3457000150290756e-16 0.8386705679454266 -0.5446390350150232
  outer loop
    vertex 109.26606236136799 -4.1095194356524 8.755507644848098
    vertex 97.87570249907124 -3.3013366505406405 9.999999999999801
    vertex 110.31369815691608 -3.8973556509113263 9.0822112235612
  endloop
endfacet
facet normal -1.3457000150290756e-16 0.8386705679454266 -0.5446390350150232
  outer loop
    vertex 110.31369815691608 -3.8973556509113263 9.0822112235612
    vertex 97.87570249907124 -3.3013366505406405 9.999999999999801
    vertex 111.39452479316512 -3.7171721821323107 9.359669434192552
  endloop
endfacet
facet normal -1.3457000150290756e-16 0.8386705679454266 -0.5446390350150232
  outer loop
    vertex 111.39452479316512 -3.7171721821323107 9.359669434192552
    vertex 97.87570249907124 -3.3013366505406405 9.999999999999801
    vertex 112.50339422306155 -3.569239536071007 9.587465732866766
  endloop
endfacet
facet normal -1.3457000150290756e-16 0.8386705679454266 -0.5446390350150232
  outer loop
    vertex 112.50339422306155 -3.569239536071007 9.587465732866766
    vertex 97.87570249907124 -3.3013366505406405 9.999999999999801
    vertex 114.8110169423953 -3.3013366505406063 9.99999999999984
  endloop
endfacet
facet normal -1.3457000150290756e-16 0.8386705679454266 -0.5446390350150232
  outer loop
    vertex 97.87570249907125 -6.548509732549971 4.999791939571765
    vertex 109.26606236136799 -4.1095194356524 8.755507644848098
    vertex 108.25655884054991 -4.3534422685389265 8.379899420611757
  endloop
endfacet
facet normal -1.3457000150290756e-16 0.8386705679454266 -0.5446390350150232
  outer loop
    vertex 97.87570249907125 -6.548509732549971 4.999791939571765
    vertex 108.25655884054991 -4.3534422685389265 8.379899420611757
    vertex 107.28993771961946 -4.629004637465329 7.955570583356207
  endloop
endfacet
facet normal -1.3457000150290756e-16 0.8386705679454266 -0.5446390350150232
  outer loop
    vertex 97.87570249907125 -6.548509732549971 4.999791939571765
    vertex 107.28993771961946 -4.629004637465329 7.955570583356207
    vertex 106.3708118041258 -4.936248001509981 7.482457291699342
  endloop
endfacet
facet normal -1.3457000150290756e-16 0.8386705679454266 -0.5446390350150232
  outer loop
    vertex 97.87570249907125 -6.548509732549971 4.999791939571765
    vertex 106.3708118041258 -4.936248001509981 7.482457291699342
    vertex 105.50376801285006 -5.275433747774489 6.960157044801283
  endloop
endfacet
facet normal -1.3457000150290756e-16 0.8386705679454266 -0.5446390350150232
  outer loop
    vertex 97.87570249907125 -6.548509732549971 4.999791939571765
    vertex 105.50376801285006 -5.275433747774489 6.960157044801283
    vertex 104.69355983861855 -5.647086242237265 6.3878623898638
  endloop
endfacet
facet normal -1.3457000150290756e-16 0.8386705679454266 -0.5446390350150232
  outer loop
    vertex 97.87570249907125 -6.548509732549971 4.999791939571765
    vertex 104.69355983861855 -5.647086242237265 6.3878623898638
    vertex 103.9454044726815 -6.051989469846116 5.76436609593347
  endloop
endfacet
facet normal -1.3457000150290756e-16 0.8386705679454266 -0.5446390350150232
  outer loop
    vertex 97.87570249907125 -6.548509732549971 4.999791939571765
    vertex 103.9454044726815 -6.051989469846116 5.76436609593347
    vertex 103.26539377615394 -6.491084862203985 5.088218485469171
  endloop
endfacet
facet normal -1.3457000150290756e-16 0.8386705679454266 -0.5446390350150232
  outer loop
    vertex 97.87570249907125 -6.548509732549971 4.999791939571765
    vertex 103.26539377615394 -6.491084862203985 5.088218485469171
    vertex 103.19218639571189 -6.548509732550008 4.999791939571653
  endloop
endfacet
facet normal -1.3457000150290756e-16 0.8386705679454266 -0.5446390350150232
  outer loop
    vertex 112.50339422306155 -3.569239536071007 9.587465732866766
    vertex 114.8110169423953 -3.3013366505406063 9.99999999999984
    vertex 113.6349617044009 -3.4538340338183278 9.765174622417085
  endloop
endfacet
facet normal -1.3457000150290756e-16 0.8386705679454266 -0.5446390350150232
  outer loop
    vertex 113.6349617044009 -3.4538340338183278 9.765174622417085
    vertex 114.8110169423953 -3.3013366505406063 9.99999999999984
    vertex 114.8110169423953 -3.369239648872853 9.895438551930072
  endloop
endfacet
facet normal 0.9999999999650913 8.618031109822486e-08 -8.355247424434406e-06
  outer loop
    vertex 114.8110169423953 -3.369239648872853 9.895438551930072
    vertex 114.81101868381592 -13.472705134379124 9.999992923876913
    vertex 114.81101694239534 -13.472710582515855 9.895438551930106
  endloop
endfacet
facet normal 0.9999999999650913 8.618031109822486e-08 -8.355247424434406e-06
  outer loop
    vertex 114.81101868381592 -13.472705134379124 9.999992923876913
    vertex 114.8110169423953 -3.369239648872853 9.895438551930072
    vertex 114.8110169423953 -3.3013366505406063 9.99999999999984
  endloop
endfacet
endsolid note_10_1_stand
