solid note_10_1_stand
facet normal 0.0 -1.0 -2.7755575615628914e-16
  outer loop
    vertex 88.36325220133973 211.60248269139328 -1.2689849171465539e-14
    vertex 43.363252201339684 211.60248269139328 4.999999999999978
    vertex 43.363252201339684 211.60248269139328 -1.2689849171465539e-14
  endloop
endfacet
facet normal 0.0 -1.0 -2.7755575615628914e-16
  outer loop
    vertex 43.363252201339684 211.60248269139328 4.999999999999978
    vertex 38.36325220133974 211.60248269139328 9.99999999999997
    vertex 38.36325220133974 211.60248269139328 4.999999999999978
  endloop
endfacet
facet normal 0.0 -1.0 -2.7755575615628914e-16
  outer loop
    vertex 38.36325220133974 211.60248269139328 9.99999999999997
    vertex 43.363252201339684 211.60248269139328 4.999999999999978
    vertex 93.36325220133978 211.60248269139328 9.99999999999997
  endloop
endfacet
facet normal 0.0 -1.0 -2.7755575615628914e-16
  outer loop
    vertex 93.36325220133978 211.60248269139328 9.99999999999997
    vertex 43.363252201339684 211.60248269139328 4.999999999999978
    vertex 88.36325220133973 211.60248269139328 4.999999999999978
  endloop
endfacet
facet normal 0.0 -1.0 -2.7755575615628914e-16
  outer loop
    vertex 88.36325220133973 211.60248269139328 4.999999999999978
    vertex 43.363252201339684 211.60248269139328 4.999999999999978
    vertex 88.36325220133973 211.60248269139328 -1.2689849171465539e-14
  endloop
endfacet
facet normal 0.0 -1.0 -2.7755575615628914e-16
  outer loop
    vertex 93.36325220133978 211.60248269139328 9.99999999999997
    vertex 88.36325220133973 211.60248269139328 4.999999999999978
    vertex 93.36325220133978 211.60248269139328 4.999999999999978
  endloop
endfacet
facet normal -1.0 -0.0 0.0
  outer loop
    vertex 43.363252201339684 211.60248269139328 4.999999999999978
    vertex 43.363252201339684 253.6024826913933 -1.4099832412739487e-15
    vertex 43.363252201339684 211.60248269139328 -1.2689849171465539e-14
  endloop
endfacet
facet normal -1.0 -0.0 0.0
  outer loop
    vertex 43.363252201339684 253.6024826913933 -1.4099832412739487e-15
    vertex 43.363252201339684 211.60248269139328 4.999999999999978
    vertex 43.363252201339684 253.6024826913933 4.99999999999999
  endloop
endfacet
facet normal 1.0 0.0 0.0
  outer loop
    vertex 88.36325220133973 253.6024826913933 4.99999999999999
    vertex 88.36325220133973 211.60248269139328 -1.2689849171465539e-14
    vertex 88.36325220133973 253.6024826913933 -1.4099832412739487e-15
  endloop
endfacet
facet normal 1.0 0.0 0.0
  outer loop
    vertex 88.36325220133973 211.60248269139328 -1.2689849171465539e-14
    vertex 88.36325220133973 253.6024826913933 4.99999999999999
    vertex 88.36325220133973 211.60248269139328 4.999999999999978
  endloop
endfacet
facet normal 0.0 2.7755575615628914e-16 -1.0
  outer loop
    vertex 93.36325220133978 256.6024826913933 4.999999999999991
    vertex 88.36325220133973 253.6024826913933 4.99999999999999
    vertex 38.36325220133974 256.6024826913933 4.999999999999991
  endloop
endfacet
facet normal 0.0 2.7755575615628914e-16 -1.0
  outer loop
    vertex 88.36325220133973 253.6024826913933 4.99999999999999
    vertex 93.36325220133978 256.6024826913933 4.999999999999991
    vertex 93.36325220133978 211.60248269139328 4.999999999999978
  endloop
endfacet
facet normal 0.0 2.7755575615628914e-16 -1.0
  outer loop
    vertex 88.36325220133973 253.6024826913933 4.99999999999999
    vertex 93.36325220133978 211.60248269139328 4.999999999999978
    vertex 88.36325220133973 211.60248269139328 4.999999999999978
  endloop
endfacet
facet normal 0.0 2.7755575615628914e-16 -1.0
  outer loop
    vertex 38.36325220133974 256.6024826913933 4.999999999999991
    vertex 43.363252201339684 253.6024826913933 4.99999999999999
    vertex 38.36325220133974 211.60248269139328 4.999999999999978
  endloop
endfacet
facet normal 0.0 2.7755575615628914e-16 -1.0
  outer loop
    vertex 43.363252201339684 253.6024826913933 4.99999999999999
    vertex 38.36325220133974 256.6024826913933 4.999999999999991
    vertex 88.36325220133973 253.6024826913933 4.99999999999999
  endloop
endfacet
facet normal 0.0 2.7755575615628914e-16 -1.0
  outer loop
    vertex 38.36325220133974 211.60248269139328 4.999999999999978
    vertex 43.363252201339684 253.6024826913933 4.99999999999999
    vertex 43.363252201339684 211.60248269139328 4.999999999999978
  endloop
endfacet
facet normal 1.0 0.0 0.0
  outer loop
    vertex 93.36325220133978 256.6024826913933 9.999999999999982
    vertex 93.36325220133978 211.60248269139328 4.999999999999978
    vertex 93.36325220133978 256.6024826913933 4.999999999999991
  endloop
endfacet
facet normal 1.0 0.0 0.0
  outer loop
    vertex 93.36325220133978 211.60248269139328 4.999999999999978
    vertex 93.36325220133978 256.6024826913933 9.999999999999982
    vertex 93.36325220133978 211.60248269139328 9.99999999999997
  endloop
endfacet
facet normal 0.0 2.7755575615628914e-16 -1.0
  outer loop
    vertex 88.36325220133973 211.60248269139328 -1.2689849171465539e-14
    vertex 43.363252201339684 253.6024826913933 -1.4099832412739487e-15
    vertex 88.36325220133973 253.6024826913933 -1.4099832412739487e-15
  endloop
endfacet
facet normal 0.0 2.7755575615628914e-16 -1.0
  outer loop
    vertex 43.363252201339684 253.6024826913933 -1.4099832412739487e-15
    vertex 88.36325220133973 211.60248269139328 -1.2689849171465539e-14
    vertex 43.363252201339684 211.60248269139328 -1.2689849171465539e-14
  endloop
endfacet
facet normal -1.8799776550319303e-16 1.0 -2.864375403532915e-16
  outer loop
    vertex 88.36325220133973 253.6024826913933 4.99999999999999
    vertex 43.363252201339684 253.6024826913933 -1.4099832412739487e-15
    vertex 43.363252201339684 253.6024826913933 4.99999999999999
  endloop
endfacet
facet normal -1.8799776550319303e-16 1.0 -2.864375403532915e-16
  outer loop
    vertex 43.363252201339684 253.6024826913933 -1.4099832412739487e-15
    vertex 88.36325220133973 253.6024826913933 4.99999999999999
    vertex 88.36325220133973 253.6024826913933 -1.4099832412739487e-15
  endloop
endfacet
facet normal 0.0 1.0 2.7755575615628914e-16
  outer loop
    vertex 93.36325220133978 256.6024826913933 9.999999999999982
    vertex 38.36325220133974 256.6024826913933 4.999999999999991
    vertex 38.36325220133974 256.6024826913933 9.999999999999982
  endloop
endfacet
facet normal 0.0 1.0 2.7755575615628914e-16
  outer loop
    vertex 38.36325220133974 256.6024826913933 4.999999999999991
    vertex 93.36325220133978 256.6024826913933 9.999999999999982
    vertex 93.36325220133978 256.6024826913933 4.999999999999991
  endloop
endfacet
facet normal -1.0 -0.0 0.0
  outer loop
    vertex 38.36325220133974 211.60248269139328 9.99999999999997
    vertex 38.36325220133974 256.6024826913933 4.999999999999991
    vertex 38.36325220133974 211.60248269139328 4.999999999999978
  endloop
endfacet
facet normal -1.0 -0.0 0.0
  outer loop
    vertex 38.36325220133974 256.6024826913933 4.999999999999991
    vertex 38.36325220133974 211.60248269139328 9.99999999999997
    vertex 38.36325220133974 256.6024826913933 9.999999999999982
  endloop
endfacet
facet normal 0.0 -2.7755575615628914e-16 1.0
  outer loop
    vertex 38.36325220133974 256.6024826913933 9.999999999999982
    vertex 59.86325220133977 238.1024826913933 9.999999999999977
    vertex 93.36325220133978 256.6024826913933 9.999999999999982
  endloop
endfacet
facet normal 0.0 -2.7755575615628914e-16 1.0
  outer loop
    vertex 59.86325220133977 238.1024826913933 9.999999999999977
    vertex 38.36325220133974 256.6024826913933 9.999999999999982
    vertex 38.36325220133974 211.60248269139328 9.99999999999997
  endloop
endfacet
facet normal 0.0 -2.7755575615628914e-16 1.0
  outer loop
    vertex 59.86325220133977 238.1024826913933 9.999999999999977
    vertex 38.36325220133974 211.60248269139328 9.99999999999997
    vertex 59.86325220133977 221.6024826913933 9.999999999999972
  endloop
endfacet
facet normal 0.0 -2.7755575615628914e-16 1.0
  outer loop
    vertex 59.86325220133977 221.6024826913933 9.999999999999972
    vertex 38.36325220133974 211.60248269139328 9.99999999999997
    vertex 71.86325220133975 221.6024826913933 9.999999999999972
  endloop
endfacet
facet normal 0.0 -2.7755575615628914e-16 1.0
  outer loop
    vertex 93.36325220133978 256.6024826913933 9.999999999999982
    vertex 71.86325220133975 238.1024826913933 9.999999999999977
    vertex 93.36325220133978 211.60248269139328 9.99999999999997
  endloop
endfacet
facet normal 0.0 -2.7755575615628914e-16 1.0
  outer loop
    vertex 71.86325220133975 238.1024826913933 9.999999999999977
    vertex 93.36325220133978 256.6024826913933 9.999999999999982
    vertex 59.86325220133977 238.1024826913933 9.999999999999977
  endloop
endfacet
facet normal 0.0 -2.7755575615628914e-16 1.0
  outer loop
    vertex 93.36325220133978 211.60248269139328 9.99999999999997
    vertex 71.86325220133975 238.1024826913933 9.999999999999977
    vertex 71.86325220133975 221.6024826913933 9.999999999999972
  endloop
endfacet
facet normal 0.0 -2.7755575615628914e-16 1.0
  outer loop
    vertex 93.36325220133978 211.60248269139328 9.99999999999997
    vertex 71.86325220133975 221.6024826913933 9.999999999999972
    vertex 38.36325220133974 211.60248269139328 9.99999999999997
  endloop
endfacet
facet normal -0.9880810244666316 -4.2725459555318754e-17 0.1539346909860534
  outer loop
    vertex 71.81855604308961 221.6024826913933 14.422744908802292
    vertex 71.68553303317245 238.1024826913933 13.859250396221585
    vertex 71.68553303317245 221.6024826913933 13.85925039622158
  endloop
endfacet
facet normal -0.9526082218220584 -8.443243169645249e-17 0.3041998943409026
  outer loop
    vertex 71.68553303317245 238.1024826913933 13.859250396221585
    vertex 71.81855604308961 221.6024826913933 14.422744908802292
    vertex 71.81855604308961 238.1024826913933 14.422744908802297
  endloop
endfacet
facet normal 0.0 -2.7755575615628914e-16 1.0
  outer loop
    vertex 61.36325220133978 221.6024826913933 11.999999999999968
    vertex 70.36325220133972 238.1024826913933 11.999999999999972
    vertex 61.36325220133978 238.1024826913933 11.999999999999972
  endloop
endfacet
facet normal 0.0 -2.7755575615628914e-16 1.0
  outer loop
    vertex 70.36325220133972 238.1024826913933 11.999999999999972
    vertex 61.36325220133978 221.6024826913933 11.999999999999968
    vertex 70.36325220133972 221.6024826913933 11.999999999999968
  endloop
endfacet
facet normal 0.0 1.0 2.7755575615628914e-16
  outer loop
    vertex 59.907948359589895 238.1024826913933 14.422744908802297
    vertex 59.86325220133977 238.1024826913933 9.999999999999977
    vertex 59.86325220133977 238.1024826913933 15.000000000000012
  endloop
endfacet
facet normal 0.0 1.0 2.7755575615628914e-16
  outer loop
    vertex 59.86325220133977 238.1024826913933 9.999999999999977
    vertex 59.907948359589895 238.1024826913933 14.422744908802297
    vertex 60.040971369507055 238.1024826913933 13.859250396221585
  endloop
endfacet
facet normal 0.0 1.0 2.7755575615628914e-16
  outer loop
    vertex 59.86325220133977 238.1024826913933 9.999999999999977
    vertex 60.040971369507055 238.1024826913933 13.859250396221585
    vertex 60.259150235090075 238.1024826913933 13.322949016875143
  endloop
endfacet
facet normal 0.0 1.0 2.7755575615628914e-16
  outer loop
    vertex 59.86325220133977 238.1024826913933 9.999999999999977
    vertex 60.259150235090075 238.1024826913933 13.322949016875143
    vertex 60.55728401921742 238.1024826913933 12.82662509680086
  endloop
endfacet
facet normal 0.0 1.0 2.7755575615628914e-16
  outer loop
    vertex 59.86325220133977 238.1024826913933 9.999999999999977
    vertex 60.55728401921742 238.1024826913933 12.82662509680086
    vertex 60.92826582333162 238.1024826913933 12.382109981318715
  endloop
endfacet
facet normal 0.0 1.0 2.7755575615628914e-16
  outer loop
    vertex 59.86325220133977 238.1024826913933 9.999999999999977
    vertex 60.92826582333162 238.1024826913933 12.382109981318715
    vertex 61.36325220133978 238.1024826913933 11.999999999999972
  endloop
endfacet
facet normal 0.0 1.0 2.7755575615628914e-16
  outer loop
    vertex 59.86325220133977 238.1024826913933 9.999999999999977
    vertex 61.36325220133978 238.1024826913933 11.999999999999972
    vertex 71.86325220133975 238.1024826913933 9.999999999999977
  endloop
endfacet
facet normal 0.0 1.0 2.7755575615628914e-16
  outer loop
    vertex 71.86325220133975 238.1024826913933 9.999999999999977
    vertex 61.36325220133978 238.1024826913933 11.999999999999972
    vertex 70.36325220133972 238.1024826913933 11.999999999999972
  endloop
endfacet
facet normal 0.0 1.0 2.7755575615628914e-16
  outer loop
    vertex 71.86325220133975 238.1024826913933 9.999999999999977
    vertex 70.36325220133972 238.1024826913933 11.999999999999972
    vertex 70.7982385793478 238.1024826913933 12.382109981318715
  endloop
endfacet
facet normal 0.0 1.0 2.7755575615628914e-16
  outer loop
    vertex 71.86325220133975 238.1024826913933 9.999999999999977
    vertex 70.7982385793478 238.1024826913933 12.382109981318715
    vertex 71.16922038346209 238.1024826913933 12.82662509680086
  endloop
endfacet
facet normal 0.0 1.0 2.7755575615628914e-16
  outer loop
    vertex 71.86325220133975 238.1024826913933 9.999999999999977
    vertex 71.16922038346209 238.1024826913933 12.82662509680086
    vertex 71.46735416758943 238.1024826913933 13.322949016875143
  endloop
endfacet
facet normal 0.0 1.0 2.7755575615628914e-16
  outer loop
    vertex 71.86325220133975 238.1024826913933 9.999999999999977
    vertex 71.46735416758943 238.1024826913933 13.322949016875143
    vertex 71.68553303317245 238.1024826913933 13.859250396221585
  endloop
endfacet
facet normal 0.0 1.0 2.7755575615628914e-16
  outer loop
    vertex 71.86325220133975 238.1024826913933 9.999999999999977
    vertex 71.68553303317245 238.1024826913933 13.859250396221585
    vertex 71.81855604308961 238.1024826913933 14.422744908802297
  endloop
endfacet
facet normal 0.0 1.0 2.7755575615628914e-16
  outer loop
    vertex 71.86325220133975 238.1024826913933 9.999999999999977
    vertex 71.81855604308961 238.1024826913933 14.422744908802297
    vertex 71.86325220133975 238.1024826913933 15.000000000000012
  endloop
endfacet
facet normal 0.0 -1.0 -2.7755575615628914e-16
  outer loop
    vertex 59.86325220133977 221.6024826913933 9.999999999999972
    vertex 59.907948359589895 221.6024826913933 14.422744908802292
    vertex 59.86325220133977 221.6024826913933 15.000000000000007
  endloop
endfacet
facet normal 0.0 -1.0 -2.7755575615628914e-16
  outer loop
    vertex 59.907948359589895 221.6024826913933 14.422744908802292
    vertex 59.86325220133977 221.6024826913933 9.999999999999972
    vertex 60.040971369507055 221.6024826913933 13.85925039622158
  endloop
endfacet
facet normal 0.0 -1.0 -2.7755575615628914e-16
  outer loop
    vertex 60.040971369507055 221.6024826913933 13.85925039622158
    vertex 59.86325220133977 221.6024826913933 9.999999999999972
    vertex 60.259150235090075 221.6024826913933 13.322949016875137
  endloop
endfacet
facet normal 0.0 -1.0 -2.7755575615628914e-16
  outer loop
    vertex 60.259150235090075 221.6024826913933 13.322949016875137
    vertex 59.86325220133977 221.6024826913933 9.999999999999972
    vertex 60.55728401921742 221.6024826913933 12.826625096800855
  endloop
endfacet
facet normal 0.0 -1.0 -2.7755575615628914e-16
  outer loop
    vertex 60.55728401921742 221.6024826913933 12.826625096800855
    vertex 59.86325220133977 221.6024826913933 9.999999999999972
    vertex 60.92826582333162 221.6024826913933 12.382109981318711
  endloop
endfacet
facet normal 0.0 -1.0 -2.7755575615628914e-16
  outer loop
    vertex 60.92826582333162 221.6024826913933 12.382109981318711
    vertex 59.86325220133977 221.6024826913933 9.999999999999972
    vertex 61.36325220133978 221.6024826913933 11.999999999999968
  endloop
endfacet
facet normal 0.0 -1.0 -2.7755575615628914e-16
  outer loop
    vertex 61.36325220133978 221.6024826913933 11.999999999999968
    vertex 59.86325220133977 221.6024826913933 9.999999999999972
    vertex 71.86325220133975 221.6024826913933 9.999999999999972
  endloop
endfacet
facet normal 0.0 -1.0 -2.7755575615628914e-16
  outer loop
    vertex 61.36325220133978 221.6024826913933 11.999999999999968
    vertex 71.86325220133975 221.6024826913933 9.999999999999972
    vertex 70.36325220133972 221.6024826913933 11.999999999999968
  endloop
endfacet
facet normal 0.0 -1.0 -2.7755575615628914e-16
  outer loop
    vertex 70.36325220133972 221.6024826913933 11.999999999999968
    vertex 71.86325220133975 221.6024826913933 9.999999999999972
    vertex 70.7982385793478 221.6024826913933 12.382109981318711
  endloop
endfacet
facet normal 0.0 -1.0 -2.7755575615628914e-16
  outer loop
    vertex 70.7982385793478 221.6024826913933 12.382109981318711
    vertex 71.86325220133975 221.6024826913933 9.999999999999972
    vertex 71.16922038346209 221.6024826913933 12.826625096800855
  endloop
endfacet
facet normal 0.0 -1.0 -2.7755575615628914e-16
  outer loop
    vertex 71.16922038346209 221.6024826913933 12.826625096800855
    vertex 71.86325220133975 221.6024826913933 9.999999999999972
    vertex 71.46735416758943 221.6024826913933 13.322949016875137
  endloop
endfacet
facet normal 0.0 -1.0 -2.7755575615628914e-16
  outer loop
    vertex 71.46735416758943 221.6024826913933 13.322949016875137
    vertex 71.86325220133975 221.6024826913933 9.999999999999972
    vertex 71.68553303317245 221.6024826913933 13.85925039622158
  endloop
endfacet
facet normal 0.0 -1.0 -2.7755575615628914e-16
  outer loop
    vertex 71.68553303317245 221.6024826913933 13.85925039622158
    vertex 71.86325220133975 221.6024826913933 9.999999999999972
    vertex 71.81855604308961 221.6024826913933 14.422744908802292
  endloop
endfacet
facet normal 0.0 -1.0 -2.7755575615628914e-16
  outer loop
    vertex 71.81855604308961 221.6024826913933 14.422744908802292
    vertex 71.86325220133975 221.6024826913933 9.999999999999972
    vertex 71.86325220133975 221.6024826913933 15.000000000000007
  endloop
endfacet
facet normal -0.9970158034019904 -2.1426671176891692e-17 0.07719771866243166
  outer loop
    vertex 71.86325220133975 221.6024826913933 15.000000000000007
    vertex 71.81855604308961 238.1024826913933 14.422744908802297
    vertex 71.81855604308961 221.6024826913933 14.422744908802292
  endloop
endfacet
facet normal -0.9880810244666316 -4.2725459555318754e-17 0.1539346909860534
  outer loop
    vertex 71.81855604308961 238.1024826913933 14.422744908802297
    vertex 71.86325220133975 221.6024826913933 15.000000000000007
    vertex 71.86325220133975 238.1024826913933 15.000000000000012
  endloop
endfacet
facet normal -0.8944271909999161 -1.2412670766236363e-16 0.4472135954999579
  outer loop
    vertex 71.46735416758943 221.6024826913933 13.322949016875137
    vertex 71.16922038346209 238.1024826913933 12.82662509680086
    vertex 71.16922038346209 221.6024826913933 12.826625096800855
  endloop
endfacet
facet normal -0.8149248485659473 -1.6086205724494785e-16 0.5795666408531188
  outer loop
    vertex 71.16922038346209 238.1024826913933 12.82662509680086
    vertex 71.46735416758943 221.6024826913933 13.322949016875137
    vertex 71.46735416758943 238.1024826913933 13.322949016875143
  endloop
endfacet
facet normal -0.9526082218220584 -8.443243169645249e-17 0.3041998943409026
  outer loop
    vertex 71.68553303317245 221.6024826913933 13.85925039622158
    vertex 71.46735416758943 238.1024826913933 13.322949016875143
    vertex 71.46735416758943 221.6024826913933 13.322949016875137
  endloop
endfacet
facet normal -0.8944271909999161 -1.2412670766236363e-16 0.4472135954999579
  outer loop
    vertex 71.46735416758943 238.1024826913933 13.322949016875143
    vertex 71.68553303317245 221.6024826913933 13.85925039622158
    vertex 71.68553303317245 238.1024826913933 13.859250396221585
  endloop
endfacet
facet normal -1.0 0.0 0.0
  outer loop
    vertex 59.86325220133977 221.6024826913933 15.000000000000007
    vertex 59.86325220133977 238.1024826913933 9.999999999999977
    vertex 59.86325220133977 221.6024826913933 9.999999999999972
  endloop
endfacet
facet normal -1.0 0.0 0.0
  outer loop
    vertex 59.86325220133977 238.1024826913933 9.999999999999977
    vertex 59.86325220133977 221.6024826913933 15.000000000000007
    vertex 59.86325220133977 238.1024826913933 15.000000000000012
  endloop
endfacet
facet normal 0.9880810244666316 -4.2725459555318754e-17 0.1539346909860534
  outer loop
    vertex 59.907948359589895 238.1024826913933 14.422744908802297
    vertex 60.040971369507055 221.6024826913933 13.85925039622158
    vertex 60.040971369507055 238.1024826913933 13.859250396221585
  endloop
endfacet
facet normal 0.9526082218220584 -8.443243169645249e-17 0.3041998943409026
  outer loop
    vertex 60.040971369507055 221.6024826913933 13.85925039622158
    vertex 59.907948359589895 238.1024826913933 14.422744908802297
    vertex 59.907948359589895 221.6024826913933 14.422744908802292
  endloop
endfacet
facet normal 0.715996367468827 -1.9376278497842067e-16 0.6981040049816678
  outer loop
    vertex 60.92826582333162 221.6024826913933 12.382109981318711
    vertex 61.36325220133978 238.1024826913933 11.999999999999972
    vertex 60.92826582333162 238.1024826913933 12.382109981318715
  endloop
endfacet
facet normal 0.6599676569710865 -2.0852597746428555e-16 0.75129401152418
  outer loop
    vertex 61.36325220133978 238.1024826913933 11.999999999999972
    vertex 60.92826582333162 221.6024826913933 12.382109981318711
    vertex 61.36325220133978 221.6024826913933 11.999999999999968
  endloop
endfacet
facet normal 0.9970158034019904 -2.1426671176891692e-17 0.07719771866243166
  outer loop
    vertex 59.86325220133977 238.1024826913933 15.000000000000012
    vertex 59.907948359589895 221.6024826913933 14.422744908802292
    vertex 59.907948359589895 238.1024826913933 14.422744908802297
  endloop
endfacet
facet normal 0.9880810244666316 -4.2725459555318754e-17 0.1539346909860534
  outer loop
    vertex 59.907948359589895 221.6024826913933 14.422744908802292
    vertex 59.86325220133977 238.1024826913933 15.000000000000012
    vertex 59.86325220133977 221.6024826913933 15.000000000000007
  endloop
endfacet
facet normal 0.9526082218220584 -8.443243169645249e-17 0.3041998943409026
  outer loop
    vertex 60.040971369507055 238.1024826913933 13.859250396221585
    vertex 60.259150235090075 221.6024826913933 13.322949016875137
    vertex 60.259150235090075 238.1024826913933 13.322949016875143
  endloop
endfacet
facet normal 0.8944271909999161 -1.2412670766236363e-16 0.4472135954999579
  outer loop
    vertex 60.259150235090075 221.6024826913933 13.322949016875137
    vertex 60.040971369507055 238.1024826913933 13.859250396221585
    vertex 60.040971369507055 221.6024826913933 13.85925039622158
  endloop
endfacet
facet normal 0.814924848565982 -1.608620572449343e-16 0.57956664085307
  outer loop
    vertex 60.55728401921742 238.1024826913933 12.82662509680086
    vertex 60.92826582333162 221.6024826913933 12.382109981318711
    vertex 60.92826582333162 238.1024826913933 12.382109981318715
  endloop
endfacet
facet normal 0.715996367468827 -1.9376278497842067e-16 0.6981040049816678
  outer loop
    vertex 60.92826582333162 221.6024826913933 12.382109981318711
    vertex 60.55728401921742 238.1024826913933 12.82662509680086
    vertex 60.55728401921742 221.6024826913933 12.826625096800855
  endloop
endfacet
facet normal -0.8149248485659473 -1.6086205724494785e-16 0.5795666408531188
  outer loop
    vertex 71.16922038346209 221.6024826913933 12.826625096800855
    vertex 70.7982385793478 238.1024826913933 12.382109981318715
    vertex 70.7982385793478 221.6024826913933 12.382109981318711
  endloop
endfacet
facet normal -0.7159963674688211 -1.9376278497842235e-16 0.6981040049816739
  outer loop
    vertex 70.7982385793478 238.1024826913933 12.382109981318715
    vertex 71.16922038346209 221.6024826913933 12.826625096800855
    vertex 71.16922038346209 238.1024826913933 12.82662509680086
  endloop
endfacet
facet normal -0.6599676569711638 -2.0852597746426674e-16 0.7512940115241121
  outer loop
    vertex 70.36325220133972 221.6024826913933 11.999999999999968
    vertex 70.7982385793478 238.1024826913933 12.382109981318715
    vertex 70.36325220133972 238.1024826913933 11.999999999999972
  endloop
endfacet
facet normal -0.7159963674688211 -1.9376278497842235e-16 0.6981040049816739
  outer loop
    vertex 70.7982385793478 238.1024826913933 12.382109981318715
    vertex 70.36325220133972 221.6024826913933 11.999999999999968
    vertex 70.7982385793478 221.6024826913933 12.382109981318711
  endloop
endfacet
facet normal 0.8944271909999161 -1.2412670766236363e-16 0.4472135954999579
  outer loop
    vertex 60.259150235090075 238.1024826913933 13.322949016875143
    vertex 60.55728401921742 221.6024826913933 12.826625096800855
    vertex 60.55728401921742 238.1024826913933 12.82662509680086
  endloop
endfacet
facet normal 0.814924848565982 -1.608620572449343e-16 0.57956664085307
  outer loop
    vertex 60.55728401921742 221.6024826913933 12.826625096800855
    vertex 60.259150235090075 238.1024826913933 13.322949016875143
    vertex 60.259150235090075 221.6024826913933 13.322949016875137
  endloop
endfacet
facet normal 1.0 0.0 0.0
  outer loop
    vertex 71.86325220133975 238.1024826913933 15.000000000000012
    vertex 71.86325220133975 221.6024826913933 9.999999999999972
    vertex 71.86325220133975 238.1024826913933 9.999999999999977
  endloop
endfacet
facet normal 1.0 0.0 0.0
  outer loop
    vertex 71.86325220133975 221.6024826913933 9.999999999999972
    vertex 71.86325220133975 238.1024826913933 15.000000000000012
    vertex 71.86325220133975 221.6024826913933 15.000000000000007
  endloop
endfacet
endsolid note_10_1_stand
