solid note_10_1_stand
facet normal 6.077737290036729e-16 -2.631228568361621e-14 -1.0
  outer loop
    vertex 287.59620003723586 251.29302745234628 -2.177014124526977e-12
    vertex 229.3305642363286 241.2930274523464 -1.9739765377835283e-12
    vertex 219.33056423632866 251.29302745234637 -2.19957385638736e-12
  endloop
endfacet
facet normal 6.077737290036729e-16 -2.631228568361621e-14 -1.0
  outer loop
    vertex 229.3305642363286 241.2930274523464 -1.9739765377835283e-12
    vertex 287.59620003723586 251.29302745234628 -2.177014124526977e-12
    vertex 287.59620003723575 241.2930274523465 -1.928857074062762e-12
  endloop
endfacet
facet normal 6.077737290036729e-16 -2.631228568361621e-14 -1.0
  outer loop
    vertex 219.3305642363286 221.2930274523465 -1.3423040456927992e-12
    vertex 229.33056423632863 231.2930274523465 -1.928857074062762e-12
    vertex 287.5962000372358 221.29302745234665 -1.3535839116229909e-12
  endloop
endfacet
facet normal 6.077737290036729e-16 -2.631228568361621e-14 -1.0
  outer loop
    vertex 229.33056423632863 231.2930274523465 -1.928857074062762e-12
    vertex 219.3305642363286 221.2930274523465 -1.3423040456927992e-12
    vertex 219.33056423632866 251.29302745234637 -2.19957385638736e-12
  endloop
endfacet
facet normal 6.077737290036729e-16 -2.631228568361621e-14 -1.0
  outer loop
    vertex 229.33056423632863 231.2930274523465 -1.928857074062762e-12
    vertex 219.33056423632866 251.29302745234637 -2.19957385638736e-12
    vertex 229.3305642363286 241.2930274523464 -1.9739765377835283e-12
  endloop
endfacet
facet normal 6.077737290036729e-16 -2.631228568361621e-14 -1.0
  outer loop
    vertex 287.5962000372358 221.29302745234665 -1.3535839116229909e-12
    vertex 229.33056423632863 231.2930274523465 -1.928857074062762e-12
    vertex 287.59620003723575 231.29302745234662 -1.759659085109888e-12
  endloop
endfacet
facet normal 4.3399430185692108e-16 -2.7366997557010102e-14 -1.0
  outer loop
    vertex 297.5962000372358 251.29302745234673 17.499999999997865
    vertex 287.5962000372358 221.2930274523471 17.499999999998682
    vertex 287.59620003723575 251.29302745234668 17.499999999997858
  endloop
endfacet
facet normal 4.3399430185692108e-16 -2.7366997557010102e-14 -1.0
  outer loop
    vertex 287.5962000372358 221.2930274523471 17.499999999998682
    vertex 297.5962000372358 251.29302745234673 17.499999999997865
    vertex 297.59620003723586 221.29302745234713 17.499999999998682
  endloop
endfacet
facet normal 5.168596274438301e-16 -6.217248937900877e-15 -1.0
  outer loop
    vertex 302.59620003723575 241.2930274523467 9.999999999998233
    vertex 297.59620003723586 231.29302745234676 9.999999999998312
    vertex 297.5962000372358 241.2930274523467 9.999999999998233
  endloop
endfacet
facet normal 5.168596274438301e-16 -6.217248937900877e-15 -1.0
  outer loop
    vertex 297.59620003723586 231.29302745234676 9.999999999998312
    vertex 302.59620003723575 241.2930274523467 9.999999999998233
    vertex 302.5962000372358 231.29302745234682 9.999999999998312
  endloop
endfacet
facet normal -1.0 -2.255973186038355e-15 -3.589048250515644e-16
  outer loop
    vertex 297.59620003723586 221.29302745234688 7.499999999998689
    vertex 297.59620003723586 231.29302745234676 9.999999999998312
    vertex 297.59620003723586 231.2930274523467 7.499999999998418
  endloop
endfacet
facet normal -1.0 -2.255973186038355e-15 -3.589048250515644e-16
  outer loop
    vertex 297.5962000372358 241.29302745234665 7.499999999998147
    vertex 297.5962000372358 251.29302745234673 17.499999999997865
    vertex 297.5962000372359 251.29302745234645 7.499999999997877
  endloop
endfacet
facet normal -1.0 -2.255973186038355e-15 -3.589048250515644e-16
  outer loop
    vertex 297.5962000372358 251.29302745234673 17.499999999997865
    vertex 297.5962000372358 241.29302745234665 7.499999999998147
    vertex 297.5962000372358 241.2930274523467 9.999999999998233
  endloop
endfacet
facet normal -1.0 -2.255973186038355e-15 -3.589048250515644e-16
  outer loop
    vertex 297.5962000372358 251.29302745234673 17.499999999997865
    vertex 297.5962000372358 241.2930274523467 9.999999999998233
    vertex 297.59620003723586 221.29302745234713 17.499999999998682
  endloop
endfacet
facet normal -1.0 -2.255973186038355e-15 -3.589048250515644e-16
  outer loop
    vertex 297.59620003723586 221.29302745234713 17.499999999998682
    vertex 297.5962000372358 241.2930274523467 9.999999999998233
    vertex 297.59620003723586 231.29302745234676 9.999999999998312
  endloop
endfacet
facet normal -1.0 -2.255973186038355e-15 -3.589048250515644e-16
  outer loop
    vertex 297.59620003723586 221.29302745234713 17.499999999998682
    vertex 297.59620003723586 231.29302745234676 9.999999999998312
    vertex 297.59620003723586 221.29302745234688 7.499999999998689
  endloop
endfacet
facet normal 1.0 2.255973186038355e-15 3.589048250515644e-16
  outer loop
    vertex 302.59620003723575 251.29302745234776 57.499999999997875
    vertex 302.59620003723575 241.29302745234665 7.499999999998147
    vertex 302.59620003723586 251.2930274523465 7.499999999997877
  endloop
endfacet
facet normal 1.0 2.255973186038355e-15 3.589048250515644e-16
  outer loop
    vertex 302.59620003723575 241.29302745234665 7.499999999998147
    vertex 302.59620003723575 251.29302745234776 57.499999999997875
    vertex 302.59620003723575 241.2930274523467 9.999999999998233
  endloop
endfacet
facet normal 1.0 2.255973186038355e-15 3.589048250515644e-16
  outer loop
    vertex 302.59620003723575 241.2930274523467 9.999999999998233
    vertex 302.59620003723575 251.29302745234776 57.499999999997875
    vertex 302.5962000372358 231.29302745234682 9.999999999998312
  endloop
endfacet
facet normal 1.0 2.255973186038355e-15 3.589048250515644e-16
  outer loop
    vertex 302.5962000372358 231.29302745234682 9.999999999998312
    vertex 302.59620003723575 251.29302745234776 57.499999999997875
    vertex 302.5962000372358 221.29302745234688 7.499999999998701
  endloop
endfacet
facet normal 1.0 2.255973186038355e-15 3.589048250515644e-16
  outer loop
    vertex 302.5962000372358 221.29302745234688 7.499999999998701
    vertex 302.59620003723575 251.29302745234776 57.499999999997875
    vertex 302.59620003723586 221.29302745234813 57.4999999999987
  endloop
endfacet
facet normal 1.0 2.255973186038355e-15 3.589048250515644e-16
  outer loop
    vertex 302.5962000372358 221.29302745234688 7.499999999998701
    vertex 302.5962000372358 231.29302745234676 7.499999999998418
    vertex 302.5962000372358 231.29302745234682 9.999999999998312
  endloop
endfacet
facet normal -2.991145004564249e-15 0.5446390350150474 0.8386705679454108
  outer loop
    vertex 287.59620003723586 221.29302745234835 84.48222779592409
    vertex 219.3305642363285 251.29302745234773 64.99999999999791
    vertex 219.33056423632866 221.2930274523478 84.48222779592408
  endloop
endfacet
facet normal -2.991145004564249e-15 0.5446390350150474 0.8386705679454108
  outer loop
    vertex 219.3305642363285 251.29302745234773 64.99999999999791
    vertex 287.59620003723586 221.29302745234835 84.48222779592409
    vertex 269.33056423632854 242.0996746126209 70.97023314106077
  endloop
endfacet
facet normal -2.991145004564249e-15 0.5446390350150474 0.8386705679454108
  outer loop
    vertex 269.33056423632854 242.0996746126209 70.97023314106077
    vertex 287.59620003723586 221.29302745234835 84.48222779592409
    vertex 282.33056423632866 242.09967461262096 70.97023314106079
  endloop
endfacet
facet normal -2.991145004564249e-15 0.5446390350150474 0.8386705679454108
  outer loop
    vertex 282.33056423632866 242.09967461262096 70.97023314106079
    vertex 287.59620003723586 221.29302745234835 84.48222779592409
    vertex 282.3305642363286 247.0996746126209 67.72319517507312
  endloop
endfacet
facet normal -2.991145004564249e-15 0.5446390350150474 0.8386705679454108
  outer loop
    vertex 282.3305642363286 247.0996746126209 67.72319517507312
    vertex 277.3305642363285 251.29302745234796 64.99999999999788
    vertex 277.3305642363285 247.09967461262084 67.72319517507312
  endloop
endfacet
facet normal -2.991145004564249e-15 0.5446390350150474 0.8386705679454108
  outer loop
    vertex 277.3305642363285 251.29302745234796 64.99999999999788
    vertex 282.3305642363286 247.0996746126209 67.72319517507312
    vertex 287.59620003723575 251.29302745234796 64.99999999999791
  endloop
endfacet
facet normal -2.991145004564249e-15 0.5446390350150474 0.8386705679454108
  outer loop
    vertex 287.59620003723575 251.29302745234796 64.99999999999791
    vertex 282.3305642363286 247.0996746126209 67.72319517507312
    vertex 287.59620003723586 221.29302745234835 84.48222779592409
  endloop
endfacet
facet normal -2.991145004564249e-15 0.5446390350150474 0.8386705679454108
  outer loop
    vertex 219.3305642363285 251.29302745234773 64.99999999999791
    vertex 269.3305642363285 247.09967461262084 67.7231951750731
    vertex 274.33056423632866 251.2930274523479 64.9999999999979
  endloop
endfacet
facet normal -2.991145004564249e-15 0.5446390350150474 0.8386705679454108
  outer loop
    vertex 269.3305642363285 247.09967461262084 67.7231951750731
    vertex 219.3305642363285 251.29302745234773 64.99999999999791
    vertex 269.33056423632854 242.0996746126209 70.97023314106077
  endloop
endfacet
facet normal -2.991145004564249e-15 0.5446390350150474 0.8386705679454108
  outer loop
    vertex 274.33056423632866 251.2930274523479 64.9999999999979
    vertex 269.3305642363285 247.09967461262084 67.7231951750731
    vertex 274.33056423632866 247.09967461262084 67.7231951750731
  endloop
endfacet
facet normal -3.589048250516268e-16 2.747801985947263e-14 1.0
  outer loop
    vertex 302.59620003723586 221.29302745234813 57.4999999999987
    vertex 297.5962000372358 251.29302745234776 57.499999999997875
    vertex 297.5962000372359 221.29302745234813 57.4999999999987
  endloop
endfacet
facet normal -3.589048250516268e-16 2.747801985947263e-14 1.0
  outer loop
    vertex 297.5962000372358 251.29302745234776 57.499999999997875
    vertex 302.59620003723586 221.29302745234813 57.4999999999987
    vertex 302.59620003723575 251.29302745234776 57.499999999997875
  endloop
endfacet
facet normal -3.589048250516269e-16 2.758904216193514e-14 1.0
  outer loop
    vertex 297.59620003723586 221.2930274523479 47.4999999999987
    vertex 287.59620003723575 251.2930274523475 47.49999999999787
    vertex 287.5962000372358 221.29302745234787 47.49999999999869
  endloop
endfacet
facet normal -3.589048250516269e-16 2.758904216193514e-14 1.0
  outer loop
    vertex 287.59620003723575 251.2930274523475 47.49999999999787
    vertex 297.59620003723586 221.2930274523479 47.4999999999987
    vertex 297.5962000372358 251.2930274523475 47.49999999999787
  endloop
endfacet
facet normal 2.5607461635795364e-15 -1.0 2.6922908347160046e-14
  outer loop
    vertex 297.5962000372358 241.2930274523467 9.999999999998233
    vertex 302.59620003723575 241.29302745234665 7.499999999998147
    vertex 302.59620003723575 241.2930274523467 9.999999999998233
  endloop
endfacet
facet normal 2.5607461635795364e-15 -1.0 2.6922908347160046e-14
  outer loop
    vertex 302.59620003723575 241.29302745234665 7.499999999998147
    vertex 297.5962000372358 241.2930274523467 9.999999999998233
    vertex 297.5962000372358 241.29302745234665 7.499999999998147
  endloop
endfacet
facet normal 2.251672393414616e-16 -2.7366997557010102e-14 -1.0
  outer loop
    vertex 302.5962000372358 231.29302745234676 7.499999999998418
    vertex 297.59620003723586 221.29302745234688 7.499999999998689
    vertex 297.59620003723586 231.2930274523467 7.499999999998418
  endloop
endfacet
facet normal 2.251672393414616e-16 -2.7366997557010102e-14 -1.0
  outer loop
    vertex 297.59620003723586 221.29302745234688 7.499999999998689
    vertex 302.5962000372358 231.29302745234676 7.499999999998418
    vertex 302.5962000372358 221.29302745234688 7.499999999998701
  endloop
endfacet
facet normal 1.4764168124027532e-15 -1.0 1.6209256159527285e-14
  outer loop
    vertex 229.3305642363286 241.2930274523464 -1.9739765377835283e-12
    vertex 287.59620003723575 241.29302745234665 9.999999999998245
    vertex 229.3305642363286 241.29302745234662 9.999999999998222
  endloop
endfacet
facet normal 1.4764168124027532e-15 -1.0 1.6209256159527285e-14
  outer loop
    vertex 287.59620003723575 241.29302745234665 9.999999999998245
    vertex 229.3305642363286 241.2930274523464 -1.9739765377835283e-12
    vertex 287.59620003723575 241.2930274523465 -1.928857074062762e-12
  endloop
endfacet
facet normal -1.0 -2.255973186038355e-15 -3.589048250515644e-16
  outer loop
    vertex 219.3305642363286 221.2930274523465 -1.3423040456927992e-12
    vertex 219.3305642363285 251.29302745234773 64.99999999999791
    vertex 219.33056423632866 251.29302745234637 -2.19957385638736e-12
  endloop
endfacet
facet normal -1.0 -2.255973186038355e-15 -3.589048250515644e-16
  outer loop
    vertex 219.3305642363285 251.29302745234773 64.99999999999791
    vertex 219.3305642363286 221.2930274523465 -1.3423040456927992e-12
    vertex 219.33056423632866 221.2930274523478 84.48222779592408
  endloop
endfacet
facet normal -1.2765347645496679e-15 1.0 -2.581268532253489e-14
  outer loop
    vertex 302.59620003723575 251.29302745234776 57.499999999997875
    vertex 297.5962000372358 251.2930274523475 47.49999999999787
    vertex 297.5962000372358 251.29302745234776 57.499999999997875
  endloop
endfacet
facet normal -1.2765347645496679e-15 1.0 -2.581268532253489e-14
  outer loop
    vertex 297.5962000372358 251.2930274523475 47.49999999999787
    vertex 302.59620003723575 251.29302745234776 57.499999999997875
    vertex 302.59620003723586 251.2930274523465 7.499999999997877
  endloop
endfacet
facet normal -1.2765347645496679e-15 1.0 -2.581268532253489e-14
  outer loop
    vertex 297.5962000372358 251.2930274523475 47.49999999999787
    vertex 302.59620003723586 251.2930274523465 7.499999999997877
    vertex 297.5962000372358 251.29302745234673 17.499999999997865
  endloop
endfacet
facet normal -1.2765347645496679e-15 1.0 -2.581268532253489e-14
  outer loop
    vertex 297.5962000372358 251.29302745234673 17.499999999997865
    vertex 302.59620003723586 251.2930274523465 7.499999999997877
    vertex 297.5962000372359 251.29302745234645 7.499999999997877
  endloop
endfacet
facet normal -1.2765347645496679e-15 1.0 -2.581268532253489e-14
  outer loop
    vertex 287.59620003723575 251.29302745234796 64.99999999999791
    vertex 277.3305642363285 251.29302745234705 17.30546828656007
    vertex 277.3305642363285 251.29302745234796 64.99999999999788
  endloop
endfacet
facet normal -1.2765347645496679e-15 1.0 -2.581268532253489e-14
  outer loop
    vertex 277.3305642363285 251.29302745234705 17.30546828656007
    vertex 287.59620003723575 251.29302745234796 64.99999999999791
    vertex 287.59620003723575 251.2930274523475 47.49999999999787
  endloop
endfacet
facet normal -1.2765347645496679e-15 1.0 -2.581268532253489e-14
  outer loop
    vertex 277.3305642363285 251.29302745234705 17.30546828656007
    vertex 287.59620003723575 251.2930274523475 47.49999999999787
    vertex 297.5962000372358 251.2930274523475 47.49999999999787
  endloop
endfacet
facet normal -1.2765347645496679e-15 1.0 -2.581268532253489e-14
  outer loop
    vertex 277.3305642363285 251.29302745234705 17.30546828656007
    vertex 297.5962000372358 251.2930274523475 47.49999999999787
    vertex 287.59620003723575 251.29302745234668 17.499999999997858
  endloop
endfacet
facet normal -1.2765347645496679e-15 1.0 -2.581268532253489e-14
  outer loop
    vertex 287.59620003723575 251.29302745234668 17.499999999997858
    vertex 297.5962000372358 251.2930274523475 47.49999999999787
    vertex 297.5962000372358 251.29302745234673 17.499999999997865
  endloop
endfacet
facet normal -1.2765347645496679e-15 1.0 -2.581268532253489e-14
  outer loop
    vertex 277.3305642363285 251.29302745234705 17.30546828656007
    vertex 287.59620003723575 251.29302745234668 17.499999999997858
    vertex 287.59620003723586 251.29302745234628 -2.177014124526977e-12
  endloop
endfacet
facet normal -1.2765347645496679e-15 1.0 -2.581268532253489e-14
  outer loop
    vertex 277.3305642363285 251.29302745234705 17.30546828656007
    vertex 287.59620003723586 251.29302745234628 -2.177014124526977e-12
    vertex 274.33056423632866 251.29302745234568 17.305468286560888
  endloop
endfacet
facet normal -1.2765347645496679e-15 1.0 -2.581268532253489e-14
  outer loop
    vertex 274.33056423632866 251.29302745234568 17.305468286560888
    vertex 287.59620003723586 251.29302745234628 -2.177014124526977e-12
    vertex 219.33056423632866 251.29302745234637 -2.19957385638736e-12
  endloop
endfacet
facet normal -1.2765347645496679e-15 1.0 -2.581268532253489e-14
  outer loop
    vertex 274.33056423632866 251.2930274523479 64.9999999999979
    vertex 219.33056423632866 251.29302745234637 -2.19957385638736e-12
    vertex 219.3305642363285 251.29302745234773 64.99999999999791
  endloop
endfacet
facet normal -1.2765347645496679e-15 1.0 -2.581268532253489e-14
  outer loop
    vertex 219.33056423632866 251.29302745234637 -2.19957385638736e-12
    vertex 274.33056423632866 251.2930274523479 64.9999999999979
    vertex 274.33056423632866 251.29302745234568 17.305468286560888
  endloop
endfacet
facet normal 1.0 2.255973186038355e-15 3.589048250515644e-16
  outer loop
    vertex 287.59620003723575 251.29302745234668 17.499999999997858
    vertex 287.59620003723575 241.2930274523465 -1.928857074062762e-12
    vertex 287.59620003723586 251.29302745234628 -2.177014124526977e-12
  endloop
endfacet
facet normal 1.0 2.255973186038355e-15 3.589048250515644e-16
  outer loop
    vertex 287.59620003723575 241.2930274523465 -1.928857074062762e-12
    vertex 287.59620003723575 251.29302745234668 17.499999999997858
    vertex 287.59620003723575 241.29302745234665 9.999999999998245
  endloop
endfacet
facet normal 1.0 2.255973186038355e-15 3.589048250515644e-16
  outer loop
    vertex 287.59620003723575 241.29302745234665 9.999999999998245
    vertex 287.59620003723575 251.29302745234668 17.499999999997858
    vertex 287.5962000372358 221.2930274523471 17.499999999998682
  endloop
endfacet
facet normal 1.0 2.255973186038355e-15 3.589048250515644e-16
  outer loop
    vertex 287.59620003723575 241.29302745234665 9.999999999998245
    vertex 287.5962000372358 221.2930274523471 17.499999999998682
    vertex 287.59620003723575 231.29302745234676 9.999999999998312
  endloop
endfacet
facet normal 1.0 2.255973186038355e-15 3.589048250515644e-16
  outer loop
    vertex 287.59620003723575 231.29302745234676 9.999999999998312
    vertex 287.5962000372358 221.2930274523471 17.499999999998682
    vertex 287.5962000372358 221.29302745234665 -1.3535839116229909e-12
  endloop
endfacet
facet normal 1.0 2.255973186038355e-15 3.589048250515644e-16
  outer loop
    vertex 287.5962000372358 221.29302745234665 -1.3535839116229909e-12
    vertex 287.59620003723575 231.29302745234662 -1.759659085109888e-12
    vertex 287.59620003723575 231.29302745234676 9.999999999998312
  endloop
endfacet
facet normal -1.9344049122612508e-15 1.0 -1.6209256159527285e-14
  outer loop
    vertex 287.59620003723575 231.29302745234676 9.999999999998312
    vertex 229.33056423632863 231.2930274523465 -1.928857074062762e-12
    vertex 229.33056423632863 231.29302745234668 9.999999999998279
  endloop
endfacet
facet normal -1.9344049122612508e-15 1.0 -1.6209256159527285e-14
  outer loop
    vertex 229.33056423632863 231.2930274523465 -1.928857074062762e-12
    vertex 287.59620003723575 231.29302745234676 9.999999999998312
    vertex 287.59620003723575 231.29302745234662 -1.759659085109888e-12
  endloop
endfacet
facet normal 1.0 -5.875528130005255e-16 1.2240253590110449e-16
  outer loop
    vertex 274.33056423632866 251.2930274523479 64.9999999999979
    vertex 274.33056423632866 247.09967461261994 20.02866346163527
    vertex 274.33056423632866 251.29302745234568 17.305468286560888
  endloop
endfacet
facet normal 1.0 -5.875528130005255e-16 1.2240253590110449e-16
  outer loop
    vertex 274.33056423632866 247.09967461261994 20.02866346163527
    vertex 274.33056423632866 251.2930274523479 64.9999999999979
    vertex 274.33056423632866 247.09967461262084 67.7231951750731
  endloop
endfacet
facet normal 3.7503503139397814e-16 -5.9396931817445875e-15 -1.0
  outer loop
    vertex 287.59620003723575 241.29302745234665 9.999999999998245
    vertex 229.33056423632863 231.29302745234668 9.999999999998279
    vertex 229.3305642363286 241.29302745234662 9.999999999998222
  endloop
endfacet
facet normal 3.7503503139397814e-16 -5.9396931817445875e-15 -1.0
  outer loop
    vertex 229.33056423632863 231.29302745234668 9.999999999998279
    vertex 287.59620003723575 241.29302745234665 9.999999999998245
    vertex 287.59620003723575 231.29302745234676 9.999999999998312
  endloop
endfacet
facet normal -1.0 -2.255973186038355e-15 -3.589048250515644e-16
  outer loop
    vertex 297.59620003723586 221.2930274523479 47.4999999999987
    vertex 297.5962000372358 251.29302745234776 57.499999999997875
    vertex 297.5962000372358 251.2930274523475 47.49999999999787
  endloop
endfacet
facet normal -1.0 -2.255973186038355e-15 -3.589048250515644e-16
  outer loop
    vertex 297.5962000372358 251.29302745234776 57.499999999997875
    vertex 297.59620003723586 221.2930274523479 47.4999999999987
    vertex 297.5962000372359 221.29302745234813 57.4999999999987
  endloop
endfacet
facet normal 2.363518096811743e-15 -1.0 1.8984813721090174e-14
  outer loop
    vertex 269.3305642363285 247.09967461262084 67.7231951750731
    vertex 274.33056423632866 247.09967461261994 20.02866346163527
    vertex 274.33056423632866 247.09967461262084 67.7231951750731
  endloop
endfacet
facet normal 2.363518096811743e-15 -1.0 1.8984813721090174e-14
  outer loop
    vertex 274.33056423632866 247.09967461261994 20.02866346163527
    vertex 269.3305642363285 247.09967461262084 67.7231951750731
    vertex 269.3305642363285 247.09967461261994 20.02866346163525
  endloop
endfacet
facet normal -2.031182809877419e-15 1.0 -1.9206858326015208e-14
  outer loop
    vertex 282.3305642363286 242.09967461262 23.275701427622927
    vertex 269.33056423632854 242.0996746126209 70.97023314106077
    vertex 282.33056423632866 242.09967461262096 70.97023314106079
  endloop
endfacet
facet normal -2.031182809877419e-15 1.0 -1.9206858326015208e-14
  outer loop
    vertex 269.33056423632854 242.0996746126209 70.97023314106077
    vertex 282.3305642363286 242.09967461262 23.275701427622927
    vertex 269.3305642363285 242.09967461262 23.275701427622927
  endloop
endfacet
facet normal 6.514868834911702e-16 -2.7755575615628914e-14 -1.0
  outer loop
    vertex 297.5962000372359 251.29302745234645 7.499999999997877
    vertex 302.59620003723575 241.29302745234665 7.499999999998147
    vertex 297.5962000372358 241.29302745234665 7.499999999998147
  endloop
endfacet
facet normal 6.514868834911702e-16 -2.7755575615628914e-14 -1.0
  outer loop
    vertex 302.59620003723575 241.29302745234665 7.499999999998147
    vertex 297.5962000372359 251.29302745234645 7.499999999997877
    vertex 302.59620003723586 251.2930274523465 7.499999999997877
  endloop
endfacet
facet normal -1.0 -2.2559731860383513e-15 -3.58904825051564e-16
  outer loop
    vertex 282.3305642363286 242.09967461262 23.275701427622927
    vertex 282.3305642363286 247.0996746126209 67.72319517507312
    vertex 282.3305642363286 247.09967461261994 20.02866346163531
  endloop
endfacet
facet normal -1.0 -2.2559731860383513e-15 -3.58904825051564e-16
  outer loop
    vertex 282.3305642363286 247.0996746126209 67.72319517507312
    vertex 282.3305642363286 242.09967461262 23.275701427622927
    vertex 282.33056423632866 242.09967461262096 70.97023314106079
  endloop
endfacet
facet normal -2.9872047387887802e-15 0.5446390350150433 0.8386705679454135
  outer loop
    vertex 282.3305642363286 242.09967461262 23.275701427622927
    vertex 269.3305642363285 247.09967461261994 20.02866346163525
    vertex 269.3305642363285 242.09967461262 23.275701427622927
  endloop
endfacet
facet normal -2.9872047387887802e-15 0.5446390350150433 0.8386705679454135
  outer loop
    vertex 269.3305642363285 247.09967461261994 20.02866346163525
    vertex 282.3305642363286 242.09967461262 23.275701427622927
    vertex 274.33056423632866 247.09967461261994 20.02866346163527
  endloop
endfacet
facet normal -2.9872047387887802e-15 0.5446390350150433 0.8386705679454135
  outer loop
    vertex 274.33056423632866 247.09967461261994 20.02866346163527
    vertex 282.3305642363286 242.09967461262 23.275701427622927
    vertex 277.3305642363285 247.09967461261994 20.0286634616353
  endloop
endfacet
facet normal -2.9872047387887802e-15 0.5446390350150433 0.8386705679454135
  outer loop
    vertex 274.33056423632866 247.09967461261994 20.02866346163527
    vertex 277.3305642363285 247.09967461261994 20.0286634616353
    vertex 274.33056423632866 251.29302745234568 17.305468286560888
  endloop
endfacet
facet normal -2.9872047387887802e-15 0.5446390350150433 0.8386705679454135
  outer loop
    vertex 277.3305642363285 247.09967461261994 20.0286634616353
    vertex 282.3305642363286 242.09967461262 23.275701427622927
    vertex 282.3305642363286 247.09967461261994 20.02866346163531
  endloop
endfacet
facet normal -2.9872047387887802e-15 0.5446390350150433 0.8386705679454135
  outer loop
    vertex 277.3305642363285 251.29302745234705 17.30546828656007
    vertex 274.33056423632866 251.29302745234568 17.305468286560888
    vertex 277.3305642363285 247.09967461261994 20.0286634616353
  endloop
endfacet
facet normal 1.97340868555903e-15 -1.0 1.9095836023552692e-14
  outer loop
    vertex 277.3305642363285 247.09967461261994 20.0286634616353
    vertex 282.3305642363286 247.0996746126209 67.72319517507312
    vertex 277.3305642363285 247.09967461262084 67.72319517507312
  endloop
endfacet
facet normal 1.97340868555903e-15 -1.0 1.9095836023552692e-14
  outer loop
    vertex 282.3305642363286 247.0996746126209 67.72319517507312
    vertex 277.3305642363285 247.09967461261994 20.0286634616353
    vertex 282.3305642363286 247.09967461261994 20.02866346163531
  endloop
endfacet
facet normal -1.0 3.123906047270147e-15 -3.589048250516679e-16
  outer loop
    vertex 277.3305642363285 247.09967461261994 20.0286634616353
    vertex 277.3305642363285 251.29302745234796 64.99999999999788
    vertex 277.3305642363285 251.29302745234705 17.30546828656007
  endloop
endfacet
facet normal -1.0 3.123906047270147e-15 -3.589048250516679e-16
  outer loop
    vertex 277.3305642363285 251.29302745234796 64.99999999999788
    vertex 277.3305642363285 247.09967461261994 20.0286634616353
    vertex 277.3305642363285 247.09967461262084 67.72319517507312
  endloop
endfacet
facet normal -5.5356106380289245e-15 1.0 -2.142730437526552e-14
  outer loop
    vertex 302.5962000372358 231.29302745234676 7.499999999998418
    vertex 297.59620003723586 231.29302745234676 9.999999999998312
    vertex 302.5962000372358 231.29302745234682 9.999999999998312
  endloop
endfacet
facet normal -5.5356106380289245e-15 1.0 -2.142730437526552e-14
  outer loop
    vertex 297.59620003723586 231.29302745234676 9.999999999998312
    vertex 302.5962000372358 231.29302745234676 7.499999999998418
    vertex 297.59620003723586 231.2930274523467 7.499999999998418
  endloop
endfacet
facet normal 1.0 2.255973186038355e-15 3.589048250515644e-16
  outer loop
    vertex 287.59620003723575 251.29302745234796 64.99999999999791
    vertex 287.5962000372358 221.29302745234787 47.49999999999869
    vertex 287.59620003723575 251.2930274523475 47.49999999999787
  endloop
endfacet
facet normal 1.0 2.255973186038355e-15 3.589048250515644e-16
  outer loop
    vertex 287.5962000372358 221.29302745234787 47.49999999999869
    vertex 287.59620003723575 251.29302745234796 64.99999999999791
    vertex 287.59620003723586 221.29302745234833 64.99999999999874
  endloop
endfacet
facet normal 1.0 2.255973186038355e-15 3.589048250515644e-16
  outer loop
    vertex 287.59620003723586 221.29302745234833 64.99999999999874
    vertex 287.59620003723575 251.29302745234796 64.99999999999791
    vertex 287.59620003723586 221.29302745234835 84.48222779592409
  endloop
endfacet
facet normal 7.378381602554278e-15 -1.0 2.0539125955565396e-14
  outer loop
    vertex 219.33056423632866 221.2930274523478 84.48222779592408
    vertex 287.59620003723586 221.29302745234833 64.99999999999874
    vertex 287.59620003723586 221.29302745234835 84.48222779592409
  endloop
endfacet
facet normal 7.378381602554278e-15 -1.0 2.0539125955565396e-14
  outer loop
    vertex 287.59620003723586 221.29302745234833 64.99999999999874
    vertex 219.33056423632866 221.2930274523478 84.48222779592408
    vertex 219.3305642363286 221.2930274523465 -1.3423040456927992e-12
  endloop
endfacet
facet normal 7.378381602554278e-15 -1.0 2.0539125955565396e-14
  outer loop
    vertex 287.59620003723586 221.29302745234833 64.99999999999874
    vertex 219.3305642363286 221.2930274523465 -1.3423040456927992e-12
    vertex 287.5962000372358 221.29302745234787 47.49999999999869
  endloop
endfacet
facet normal 7.378381602554278e-15 -1.0 2.0539125955565396e-14
  outer loop
    vertex 287.5962000372358 221.29302745234787 47.49999999999869
    vertex 219.3305642363286 221.2930274523465 -1.3423040456927992e-12
    vertex 297.59620003723586 221.2930274523479 47.4999999999987
  endloop
endfacet
facet normal 7.378381602554278e-15 -1.0 2.0539125955565396e-14
  outer loop
    vertex 297.59620003723586 221.2930274523479 47.4999999999987
    vertex 219.3305642363286 221.2930274523465 -1.3423040456927992e-12
    vertex 287.5962000372358 221.2930274523471 17.499999999998682
  endloop
endfacet
facet normal 7.378381602554278e-15 -1.0 2.0539125955565396e-14
  outer loop
    vertex 287.5962000372358 221.2930274523471 17.499999999998682
    vertex 219.3305642363286 221.2930274523465 -1.3423040456927992e-12
    vertex 287.5962000372358 221.29302745234665 -1.3535839116229909e-12
  endloop
endfacet
facet normal 7.378381602554278e-15 -1.0 2.0539125955565396e-14
  outer loop
    vertex 297.59620003723586 221.2930274523479 47.4999999999987
    vertex 302.59620003723586 221.29302745234813 57.4999999999987
    vertex 297.5962000372359 221.29302745234813 57.4999999999987
  endloop
endfacet
facet normal 7.378381602554278e-15 -1.0 2.0539125955565396e-14
  outer loop
    vertex 302.59620003723586 221.29302745234813 57.4999999999987
    vertex 297.59620003723586 221.2930274523479 47.4999999999987
    vertex 302.5962000372358 221.29302745234688 7.499999999998701
  endloop
endfacet
facet normal 7.378381602554278e-15 -1.0 2.0539125955565396e-14
  outer loop
    vertex 302.5962000372358 221.29302745234688 7.499999999998701
    vertex 297.59620003723586 221.2930274523479 47.4999999999987
    vertex 297.59620003723586 221.29302745234713 17.499999999998682
  endloop
endfacet
facet normal 7.378381602554278e-15 -1.0 2.0539125955565396e-14
  outer loop
    vertex 297.59620003723586 221.29302745234713 17.499999999998682
    vertex 297.59620003723586 221.2930274523479 47.4999999999987
    vertex 287.5962000372358 221.2930274523471 17.499999999998682
  endloop
endfacet
facet normal 7.378381602554278e-15 -1.0 2.0539125955565396e-14
  outer loop
    vertex 302.5962000372358 221.29302745234688 7.499999999998701
    vertex 297.59620003723586 221.29302745234713 17.499999999998682
    vertex 297.59620003723586 221.29302745234688 7.499999999998689
  endloop
endfacet
facet normal 1.0 2.255973186038352e-15 3.5890482505156423e-16
  outer loop
    vertex 269.3305642363285 247.09967461262084 67.7231951750731
    vertex 269.3305642363285 242.09967461262 23.275701427622927
    vertex 269.3305642363285 247.09967461261994 20.02866346163525
  endloop
endfacet
facet normal 1.0 2.255973186038352e-15 3.5890482505156423e-16
  outer loop
    vertex 269.3305642363285 242.09967461262 23.275701427622927
    vertex 269.3305642363285 247.09967461262084 67.7231951750731
    vertex 269.33056423632854 242.0996746126209 70.97023314106077
  endloop
endfacet
facet normal 1.0 2.255973186038355e-15 3.589048250515644e-16
  outer loop
    vertex 229.3305642363286 241.29302745234662 9.999999999998222
    vertex 229.33056423632863 231.2930274523465 -1.928857074062762e-12
    vertex 229.3305642363286 241.2930274523464 -1.9739765377835283e-12
  endloop
endfacet
facet normal 1.0 2.255973186038355e-15 3.589048250515644e-16
  outer loop
    vertex 229.33056423632863 231.2930274523465 -1.928857074062762e-12
    vertex 229.3305642363286 241.29302745234662 9.999999999998222
    vertex 229.33056423632863 231.29302745234668 9.999999999998279
  endloop
endfacet
endsolid note_10_1_stand
