solid note_10_1_stand
facet normal -6.106226635438361e-16 0.0 1.0
  outer loop
    vertex 247.77923930905456 158.29328851314293 7.999999999999985
    vertex 207.77923930905465 142.3169847852425 7.999999999999963
    vertex 207.7792393090546 132.31698478524248 7.999999999999962
  endloop
endfacet
facet normal -6.106226635438361e-16 0.0 1.0
  outer loop
    vertex 207.77923930905465 142.3169847852425 7.999999999999963
    vertex 247.77923930905456 158.29328851314293 7.999999999999985
    vertex 247.77923930905456 168.29328851314295 7.999999999999985
  endloop
endfacet
facet normal 0.5446390350150274 -0.8386705679454238 2.2955281008709253e-15
  outer loop
    vertex 207.7792393090546 132.31698478524248 7.999999999999962
    vertex 247.77923930905456 158.2932885131429 2.999999999999857
    vertex 247.77923930905456 158.29328851314293 7.999999999999985
  endloop
endfacet
facet normal 0.5446390350150274 -0.8386705679454238 2.2955281008709253e-15
  outer loop
    vertex 247.77923930905456 158.2932885131429 2.999999999999857
    vertex 207.7792393090546 132.31698478524248 7.999999999999962
    vertex 207.77923930905465 132.31698478524248 2.9999999999998326
  endloop
endfacet
facet normal -0.8386705679454234 -0.5446390350150282 -9.773639845569712e-16
  outer loop
    vertex 63.65259395568327 52.06658996053015 -6.92654267275826e-14
    vertex 62.018676850638165 54.58260166436642 19.999999999999883
    vertex 62.018676850638194 54.58260166436642 -1.134296094297593e-13
  endloop
endfacet
facet normal -0.8386705679454234 -0.5446390350150282 -9.773639845569712e-16
  outer loop
    vertex 62.018676850638165 54.58260166436642 19.999999999999883
    vertex 63.65259395568327 52.06658996053015 -6.92654267275826e-14
    vertex 63.65259395568327 52.06658996053015 2.999999999999927
  endloop
endfacet
facet normal -0.8386705679454234 -0.5446390350150282 -9.773639845569712e-16
  outer loop
    vertex 62.018676850638165 54.58260166436642 19.999999999999883
    vertex 63.65259395568327 52.06658996053015 2.999999999999927
    vertex 63.65259395568325 52.06658996053015 19.999999999999854
  endloop
endfacet
facet normal -6.106226635438361e-16 0.0 1.0
  outer loop
    vertex 80.42600531459172 62.95937066083069 19.999999999999893
    vertex 62.018676850638165 54.58260166436642 19.999999999999883
    vertex 63.65259395568325 52.06658996053015 19.999999999999854
  endloop
endfacet
facet normal -6.106226635438361e-16 0.0 1.0
  outer loop
    vertex 62.018676850638165 54.58260166436642 19.999999999999883
    vertex 80.42600531459172 62.95937066083069 19.999999999999893
    vertex 78.79208820954663 65.47538236466696 19.99999999999986
  endloop
endfacet
facet normal 0.8386705679454232 0.5446390350150283 9.74485151023666e-16
  outer loop
    vertex 78.79208820954663 65.47538236466696 19.99999999999986
    vertex 80.42600531459175 62.95937066083069 -6.23917584263722e-14
    vertex 78.79208820954666 65.47538236466696 -1.0318738430906618e-13
  endloop
endfacet
facet normal 0.8386705679454232 0.5446390350150283 9.74485151023666e-16
  outer loop
    vertex 80.42600531459175 62.95937066083069 -6.23917584263722e-14
    vertex 78.79208820954663 65.47538236466696 19.99999999999986
    vertex 80.42600531459175 62.95937066083069 2.999999999999938
  endloop
endfacet
facet normal 0.8386705679454232 0.5446390350150283 9.74485151023666e-16
  outer loop
    vertex 80.42600531459175 62.95937066083069 2.999999999999938
    vertex 78.79208820954663 65.47538236466696 19.99999999999986
    vertex 80.42600531459172 62.95937066083069 19.999999999999893
  endloop
endfacet
facet normal 0.5446390350150269 -0.8386705679454242 5.30291115103678e-16
  outer loop
    vertex 80.42600531459172 62.95937066083069 19.999999999999893
    vertex 73.88771812678459 58.71335731456272 16.834151366978634
    vertex 80.42600531459175 62.95937066083069 2.999999999999938
  endloop
endfacet
facet normal 0.5446390350150269 -0.8386705679454242 5.30291115103678e-16
  outer loop
    vertex 73.88771812678459 58.71335731456272 16.834151366978634
    vertex 80.42600531459172 62.95937066083069 19.999999999999893
    vertex 63.65259395568325 52.06658996053015 19.999999999999854
  endloop
endfacet
facet normal 0.5446390350150269 -0.8386705679454242 5.30291115103678e-16
  outer loop
    vertex 80.42600531459175 62.95937066083069 2.999999999999938
    vertex 73.88771812678459 58.71335731456272 16.834151366978634
    vertex 77.54698740993369 61.08971457259417 2.9999999999999387
  endloop
endfacet
facet normal 0.5446390350150269 -0.8386705679454242 5.30291115103678e-16
  outer loop
    vertex 77.54698740993369 61.08971457259417 2.9999999999999387
    vertex 73.88771812678459 58.71335731456272 16.834151366978634
    vertex 77.54698740993369 61.089714572594154 -6.203926261605372e-14
  endloop
endfacet
facet normal 0.5446390350150269 -0.8386705679454242 5.30291115103678e-16
  outer loop
    vertex 73.88771812678459 58.71335731456272 16.834151366978634
    vertex 63.65259395568325 52.06658996053015 19.999999999999854
    vertex 72.03929963513754 57.51298031068042 16.83415136697863
  endloop
endfacet
facet normal 0.5446390350150269 -0.8386705679454242 5.30291115103678e-16
  outer loop
    vertex 72.03929963513754 57.51298031068042 16.83415136697863
    vertex 63.65259395568325 52.06658996053015 19.999999999999854
    vertex 70.53303585500288 56.5348011745026 16.834151366978638
  endloop
endfacet
facet normal 0.5446390350150269 -0.8386705679454242 5.30291115103678e-16
  outer loop
    vertex 70.53303585500288 56.5348011745026 16.834151366978638
    vertex 63.65259395568325 52.06658996053015 19.999999999999854
    vertex 70.53303585500288 56.5348011745026 11.834151366978626
  endloop
endfacet
facet normal 0.5446390350150269 -0.8386705679454242 5.30291115103678e-16
  outer loop
    vertex 70.53303585500288 56.5348011745026 11.834151366978626
    vertex 63.65259395568325 52.06658996053015 19.999999999999854
    vertex 66.53161186034133 53.9362460487667 2.9999999999999254
  endloop
endfacet
facet normal 0.5446390350150269 -0.8386705679454242 5.30291115103678e-16
  outer loop
    vertex 66.53161186034133 53.9362460487667 2.9999999999999254
    vertex 63.65259395568325 52.06658996053015 19.999999999999854
    vertex 63.65259395568327 52.06658996053015 2.999999999999927
  endloop
endfacet
facet normal 0.5446390350150269 -0.8386705679454242 5.30291115103678e-16
  outer loop
    vertex 77.54698740993369 61.089714572594154 -6.203926261605372e-14
    vertex 73.88771812678456 58.71335731456272 11.834151366978634
    vertex 66.53161186034133 53.9362460487667 -7.613909502879323e-14
  endloop
endfacet
facet normal 0.5446390350150269 -0.8386705679454242 5.30291115103678e-16
  outer loop
    vertex 73.88771812678456 58.71335731456272 11.834151366978634
    vertex 77.54698740993369 61.089714572594154 -6.203926261605372e-14
    vertex 73.88771812678459 58.71335731456272 16.834151366978634
  endloop
endfacet
facet normal 0.5446390350150269 -0.8386705679454242 5.30291115103678e-16
  outer loop
    vertex 66.53161186034133 53.9362460487667 -7.613909502879323e-14
    vertex 73.88771812678456 58.71335731456272 11.834151366978634
    vertex 70.53303585500288 56.5348011745026 11.834151366978626
  endloop
endfacet
facet normal 0.5446390350150269 -0.8386705679454242 5.30291115103678e-16
  outer loop
    vertex 66.53161186034133 53.9362460487667 -7.613909502879323e-14
    vertex 70.53303585500288 56.5348011745026 11.834151366978626
    vertex 66.53161186034133 53.9362460487667 2.9999999999999254
  endloop
endfacet
facet normal 0.5446390350150281 -0.8386705679454235 3.325689382308167e-16
  outer loop
    vertex 207.77923930905465 142.3169847852425 4.999999999999921
    vertex 247.77923930905456 168.29328851314295 5.009266748153425e-29
    vertex 247.77923930905456 168.29328851314295 4.999999999999946
  endloop
endfacet
facet normal 0.5446390350150281 -0.8386705679454235 3.325689382308167e-16
  outer loop
    vertex 247.77923930905456 168.29328851314295 5.009266748153425e-29
    vertex 207.77923930905465 142.3169847852425 4.999999999999921
    vertex 207.77923930905465 142.3169847852425 -2.4424906541753368e-14
  endloop
endfacet
facet normal -6.106226635438361e-16 0.0 1.0
  outer loop
    vertex 247.77923930905456 168.29328851314295 12.999999999999934
    vertex 207.77923930905465 148.27880124942226 12.999999999999906
    vertex 207.77923930905465 142.3169847852425 12.999999999999906
  endloop
endfacet
facet normal -6.106226635438361e-16 0.0 1.0
  outer loop
    vertex 207.77923930905465 148.27880124942226 12.999999999999906
    vertex 247.77923930905456 168.29328851314295 12.999999999999934
    vertex 247.77923930905456 174.2551049773227 12.99999999999993
  endloop
endfacet
facet normal 6.106226635438361e-16 0.0 -1.0
  outer loop
    vertex 207.77923930905465 148.27880124942226 -2.442490654175341e-14
    vertex 247.77923930905456 168.29328851314295 5.009266748153425e-29
    vertex 207.77923930905465 142.3169847852425 -2.4424906541753368e-14
  endloop
endfacet
facet normal 6.106226635438361e-16 0.0 -1.0
  outer loop
    vertex 247.77923930905456 168.29328851314295 5.009266748153425e-29
    vertex 207.77923930905465 148.27880124942226 -2.442490654175341e-14
    vertex 247.77923930905456 174.2551049773227 5.009266748153425e-29
  endloop
endfacet
facet normal -0.544639035015028 0.8386705679454235 -7.768853690314097e-16
  outer loop
    vertex 207.77923930905465 148.27880124942226 -2.442490654175341e-14
    vertex 247.77923930905456 174.2551049773227 12.99999999999993
    vertex 247.77923930905456 174.2551049773227 5.009266748153425e-29
  endloop
endfacet
facet normal -0.544639035015028 0.8386705679454235 -7.768853690314097e-16
  outer loop
    vertex 247.77923930905456 174.2551049773227 12.99999999999993
    vertex 207.77923930905465 148.27880124942226 -2.442490654175341e-14
    vertex 207.77923930905465 148.27880124942226 12.999999999999906
  endloop
endfacet
facet normal -0.544639035015028 0.8386705679454235 -7.693334421734849e-16
  outer loop
    vertex 207.77923930905465 137.31698478524248 -2.4424906541753374e-14
    vertex 247.77923930905456 163.29328851314293 4.999999999999946
    vertex 247.77923930905456 163.29328851314293 -3.0055600488920545e-29
  endloop
endfacet
facet normal -0.544639035015028 0.8386705679454235 -7.693334421734849e-16
  outer loop
    vertex 247.77923930905456 163.29328851314293 4.999999999999946
    vertex 207.77923930905465 137.31698478524248 -2.4424906541753374e-14
    vertex 207.77923930905465 137.3169847852425 4.999999999999921
  endloop
endfacet
facet normal 6.106226635438361e-16 0.0 -1.0
  outer loop
    vertex 207.77923930905465 142.3169847852425 4.999999999999921
    vertex 247.77923930905456 163.29328851314293 4.999999999999946
    vertex 207.77923930905465 137.3169847852425 4.999999999999921
  endloop
endfacet
facet normal 6.106226635438361e-16 0.0 -1.0
  outer loop
    vertex 247.77923930905456 163.29328851314293 4.999999999999946
    vertex 207.77923930905465 142.3169847852425 4.999999999999921
    vertex 247.77923930905456 168.29328851314295 4.999999999999946
  endloop
endfacet
facet normal 0.5446390350150282 -0.8386705679454234 4.827478918414113e-16
  outer loop
    vertex 207.77923930905465 142.3169847852425 12.999999999999906
    vertex 247.77923930905456 168.29328851314295 7.999999999999985
    vertex 247.77923930905456 168.29328851314295 12.999999999999934
  endloop
endfacet
facet normal 0.5446390350150282 -0.8386705679454234 4.827478918414113e-16
  outer loop
    vertex 247.77923930905456 168.29328851314295 7.999999999999985
    vertex 207.77923930905465 142.3169847852425 12.999999999999906
    vertex 207.77923930905465 142.3169847852425 7.999999999999963
  endloop
endfacet
facet normal -0.5446390350150272 0.8386705679454239 -3.325689382308209e-16
  outer loop
    vertex 62.018676850638194 54.58260166436642 -1.134296094297593e-13
    vertex 78.79208820954663 65.47538236466696 19.99999999999986
    vertex 78.79208820954666 65.47538236466696 -1.0318738430906618e-13
  endloop
endfacet
facet normal -0.5446390350150272 0.8386705679454239 -3.325689382308209e-16
  outer loop
    vertex 78.79208820954663 65.47538236466696 19.99999999999986
    vertex 62.018676850638194 54.58260166436642 -1.134296094297593e-13
    vertex 62.018676850638165 54.58260166436642 19.999999999999883
  endloop
endfacet
facet normal 6.06989990248521e-16 -6.318491991387007e-18 1.0
  outer loop
    vertex 135.72882081456729 37.72762804054503 2.9999999999999494
    vertex 107.14204065254428 19.374729903972625 2.999999999999902
    vertex 111.17122266412457 11.352653948886148 2.9999999999999107
  endloop
endfacet
facet normal 6.06989990248521e-16 -6.318491991387007e-18 1.0
  outer loop
    vertex 107.14204065254428 19.374729903972625 2.999999999999902
    vertex 135.72882081456729 37.72762804054503 2.9999999999999494
    vertex 132.30178379368112 43.490389299877236 2.999999999999969
  endloop
endfacet
facet normal 6.06989990248521e-16 -6.318491991387007e-18 1.0
  outer loop
    vertex 132.30178379368112 43.490389299877236 2.999999999999969
    vertex 135.72882081456729 37.72762804054503 2.9999999999999494
    vertex 214.9023777100236 40.3041664254062 3.000000000000032
  endloop
endfacet
facet normal 6.06989990248521e-16 -6.318491991387007e-18 1.0
  outer loop
    vertex 132.30178379368112 43.490389299877236 2.999999999999969
    vertex 214.9023777100236 40.3041664254062 3.000000000000032
    vertex 207.77923930905453 43.490389299877236 2.9999999999997895
  endloop
endfacet
facet normal 6.06989990248521e-16 -6.318491991387007e-18 1.0
  outer loop
    vertex 235.84412293599624 61.460179103857115 3.0000000000000036
    vertex 219.68803914155603 63.8348662308211 2.999999999999978
    vertex 234.63454415957176 50.96063825866842 2.9999999999999947
  endloop
endfacet
facet normal 6.06989990248521e-16 -6.318491991387007e-18 1.0
  outer loop
    vertex 219.68803914155603 63.8348662308211 2.999999999999978
    vertex 235.84412293599624 61.460179103857115 3.0000000000000036
    vertex 222.4293065543037 73.01508134316373 2.9999999999999947
  endloop
endfacet
facet normal 6.06989990248521e-16 -6.318491991387007e-18 1.0
  outer loop
    vertex 235.57916967798465 15.304371547126085 2.99999999999984
    vertex 101.1429816525443 6.768820124343878 2.9999999999999503
    vertex 219.50686500407767 6.768820124343878 2.999999999999836
  endloop
endfacet
facet normal 6.06989990248521e-16 -6.318491991387007e-18 1.0
  outer loop
    vertex 101.1429816525443 6.768820124343878 2.9999999999999503
    vertex 235.57916967798465 15.304371547126085 2.99999999999984
    vertex 169.90277766412459 11.352653948886148 2.9999999999999494
  endloop
endfacet
facet normal 6.06989990248521e-16 -6.318491991387007e-18 1.0
  outer loop
    vertex 169.90277766412459 11.352653948886148 2.9999999999999494
    vertex 235.57916967798465 15.304371547126085 2.99999999999984
    vertex 175.79467290440797 15.015997496835137 2.9999999999999467
  endloop
endfacet
facet normal 6.06989990248521e-16 -6.318491991387007e-18 1.0
  outer loop
    vertex 175.79467290440797 15.015997496835137 2.9999999999999467
    vertex 235.57916967798465 15.304371547126085 2.99999999999984
    vertex 183.97066993427356 15.304371547126085 2.999999999999992
  endloop
endfacet
facet normal 6.06989990248521e-16 -6.318491991387007e-18 1.0
  outer loop
    vertex 183.97066993427356 15.304371547126085 2.999999999999992
    vertex 235.57916967798465 15.304371547126085 2.99999999999984
    vertex 204.51900985698555 16.20900614476363 2.9999999999999947
  endloop
endfacet
facet normal 6.06989990248521e-16 -6.318491991387007e-18 1.0
  outer loop
    vertex 204.51900985698555 16.20900614476363 2.9999999999999947
    vertex 235.57916967798465 15.304371547126085 2.99999999999984
    vertex 241.85545315197334 22.517866297105826 2.9999999999998535
  endloop
endfacet
facet normal 6.06989990248521e-16 -6.318491991387007e-18 1.0
  outer loop
    vertex 204.51900985698555 16.20900614476363 2.9999999999999947
    vertex 241.85545315197334 22.517866297105826 2.9999999999998535
    vertex 214.90237771002364 18.350570494572693 3.0000000000000395
  endloop
endfacet
facet normal 6.06989990248521e-16 -6.318491991387007e-18 1.0
  outer loop
    vertex 214.90237771002364 18.350570494572693 3.0000000000000395
    vertex 241.85545315197334 22.517866297105826 2.9999999999998535
    vertex 221.30948997224598 22.928477313524922 3.0000000000000395
  endloop
endfacet
facet normal 6.06989990248521e-16 -6.318491991387007e-18 1.0
  outer loop
    vertex 221.30948997224598 22.928477313524922 3.0000000000000395
    vertex 241.85545315197334 22.517866297105826 2.9999999999998535
    vertex 247.7792393090545 40.99385133338332 2.999999999999854
  endloop
endfacet
facet normal 6.06989990248521e-16 -6.318491991387007e-18 1.0
  outer loop
    vertex 221.30948997224598 22.928477313524922 3.0000000000000395
    vertex 247.7792393090545 40.99385133338332 2.999999999999854
    vertex 224.73008103455672 26.549583606153668 3.0000000000000395
  endloop
endfacet
facet normal 6.06989990248521e-16 -6.318491991387007e-18 1.0
  outer loop
    vertex 224.73008103455672 26.549583606153668 3.0000000000000395
    vertex 247.7792393090545 40.99385133338332 2.999999999999854
    vertex 227.88574660237845 32.999556271212526 3.00000000000004
  endloop
endfacet
facet normal 6.06989990248521e-16 -6.318491991387007e-18 1.0
  outer loop
    vertex 227.88574660237845 32.999556271212526 3.00000000000004
    vertex 247.7792393090545 40.99385133338332 2.999999999999854
    vertex 231.52507069372345 39.151231095912074 2.9999999999999947
  endloop
endfacet
facet normal 6.06989990248521e-16 -6.318491991387007e-18 1.0
  outer loop
    vertex 231.52507069372345 39.151231095912074 2.9999999999999947
    vertex 247.7792393090545 40.99385133338332 2.999999999999854
    vertex 234.63454415957176 50.96063825866842 2.9999999999999947
  endloop
endfacet
facet normal 6.06989990248521e-16 -6.318491991387007e-18 1.0
  outer loop
    vertex 234.63454415957176 50.96063825866842 2.9999999999999947
    vertex 247.7792393090545 40.99385133338332 2.999999999999854
    vertex 247.77923930905456 158.2932885131429 2.999999999999857
  endloop
endfacet
facet normal 6.06989990248521e-16 -6.318491991387007e-18 1.0
  outer loop
    vertex 234.63454415957176 50.96063825866842 2.9999999999999947
    vertex 247.77923930905456 158.2932885131429 2.999999999999857
    vertex 235.84412293599624 61.460179103857115 3.0000000000000036
  endloop
endfacet
facet normal 6.06989990248521e-16 -6.318491991387007e-18 1.0
  outer loop
    vertex 235.84412293599624 61.460179103857115 3.0000000000000036
    vertex 247.77923930905456 158.2932885131429 2.999999999999857
    vertex 235.84412293599624 145.09568010385712 3.000000000000004
  endloop
endfacet
facet normal 6.06989990248521e-16 -6.318491991387007e-18 1.0
  outer loop
    vertex 231.52507069372345 39.151231095912074 2.9999999999999947
    vertex 214.9023777100236 40.3041664254062 3.000000000000032
    vertex 227.88574660237845 32.999556271212526 3.00000000000004
  endloop
endfacet
facet normal 6.06989990248521e-16 -6.318491991387007e-18 1.0
  outer loop
    vertex 214.9023777100236 40.3041664254062 3.000000000000032
    vertex 231.52507069372345 39.151231095912074 2.9999999999999947
    vertex 219.68803914155603 50.96063825866842 2.9999999999999822
  endloop
endfacet
facet normal 6.06989990248521e-16 -6.318491991387007e-18 1.0
  outer loop
    vertex 214.9023777100236 40.3041664254062 3.000000000000032
    vertex 219.68803914155603 50.96063825866842 2.9999999999999822
    vertex 207.77923930905453 43.490389299877236 2.9999999999997895
  endloop
endfacet
facet normal 6.06989990248521e-16 -6.318491991387007e-18 1.0
  outer loop
    vertex 207.77923930905453 43.490389299877236 2.9999999999997895
    vertex 219.68803914155603 50.96063825866842 2.9999999999999822
    vertex 207.77923930905465 132.31698478524248 2.9999999999998326
  endloop
endfacet
facet normal 6.06989990248521e-16 -6.318491991387007e-18 1.0
  outer loop
    vertex 207.77923930905465 132.31698478524248 2.9999999999998326
    vertex 219.68803914155603 50.96063825866842 2.9999999999999822
    vertex 219.68803914155603 63.8348662308211 2.999999999999978
  endloop
endfacet
facet normal 6.06989990248521e-16 -6.318491991387007e-18 1.0
  outer loop
    vertex 207.77923930905465 132.31698478524248 2.9999999999998326
    vertex 219.68803914155603 63.8348662308211 2.999999999999978
    vertex 222.4293065543037 73.01508134316373 2.9999999999999947
  endloop
endfacet
facet normal 6.06989990248521e-16 -6.318491991387007e-18 1.0
  outer loop
    vertex 207.77923930905465 132.31698478524248 2.9999999999998326
    vertex 222.4293065543037 73.01508134316373 2.9999999999999947
    vertex 215.03086396609396 131.5793916896164 2.9999999999999947
  endloop
endfacet
facet normal 6.06989990248521e-16 -6.318491991387007e-18 1.0
  outer loop
    vertex 207.77923930905465 132.31698478524248 2.9999999999998326
    vertex 215.03086396609396 131.5793916896164 2.9999999999999947
    vertex 235.84412293599624 145.09568010385712 3.000000000000004
  endloop
endfacet
facet normal 6.06989990248521e-16 -6.318491991387007e-18 1.0
  outer loop
    vertex 207.77923930905465 132.31698478524248 2.9999999999998326
    vertex 235.84412293599624 145.09568010385712 3.000000000000004
    vertex 247.77923930905456 158.2932885131429 2.999999999999857
  endloop
endfacet
facet normal 6.06989990248521e-16 -6.318491991387007e-18 1.0
  outer loop
    vertex 82.23977348418737 38.50800605875151 2.999999999999937
    vertex 63.65259395568327 52.06658996053015 2.999999999999927
    vertex 81.03809671542011 37.72762804054503 2.999999999999938
  endloop
endfacet
facet normal 6.06989990248521e-16 -6.318491991387007e-18 1.0
  outer loop
    vertex 63.65259395568327 52.06658996053015 2.999999999999927
    vertex 82.23977348418737 38.50800605875151 2.999999999999937
    vertex 80.02842997179916 41.913176456436794 2.999999999999938
  endloop
endfacet
facet normal 6.06989990248521e-16 -6.318491991387007e-18 1.0
  outer loop
    vertex 63.65259395568327 52.06658996053015 2.999999999999927
    vertex 80.02842997179916 41.913176456436794 2.999999999999938
    vertex 66.53161186034133 53.9362460487667 2.9999999999999254
  endloop
endfacet
facet normal 6.06989990248521e-16 -6.318491991387007e-18 1.0
  outer loop
    vertex 101.1429816525443 6.768820124343878 2.9999999999999503
    vertex 101.1429816525443 19.374729903972632 2.9999999999999005
    vertex 81.03809671542011 37.72762804054503 2.999999999999938
  endloop
endfacet
facet normal 6.06989990248521e-16 -6.318491991387007e-18 1.0
  outer loop
    vertex 101.1429816525443 19.374729903972632 2.9999999999999005
    vertex 101.1429816525443 6.768820124343878 2.9999999999999503
    vertex 111.17122266412457 11.352653948886148 2.9999999999999107
  endloop
endfacet
facet normal 6.06989990248521e-16 -6.318491991387007e-18 1.0
  outer loop
    vertex 111.17122266412457 11.352653948886148 2.9999999999999107
    vertex 101.1429816525443 6.768820124343878 2.9999999999999503
    vertex 169.90277766412459 11.352653948886148 2.9999999999999494
  endloop
endfacet
facet normal 6.06989990248521e-16 -6.318491991387007e-18 1.0
  outer loop
    vertex 101.1429816525443 19.374729903972632 2.9999999999999005
    vertex 111.17122266412457 11.352653948886148 2.9999999999999107
    vertex 107.14204065254428 19.374729903972625 2.999999999999902
  endloop
endfacet
facet normal 6.06989990248521e-16 -6.318491991387007e-18 1.0
  outer loop
    vertex 81.03809671542011 37.72762804054503 2.999999999999938
    vertex 101.1429816525443 19.374729903972632 2.9999999999999005
    vertex 82.23977348418737 38.50800605875151 2.999999999999937
  endloop
endfacet
facet normal 6.06989990248521e-16 -6.318491991387007e-18 1.0
  outer loop
    vertex 82.23977348418737 38.50800605875151 2.999999999999937
    vertex 101.1429816525443 19.374729903972632 2.9999999999999005
    vertex 83.91711462007821 39.59728412878155 2.999999999999936
  endloop
endfacet
facet normal 6.06989990248521e-16 -6.318491991387007e-18 1.0
  outer loop
    vertex 83.91711462007821 39.59728412878155 2.999999999999936
    vertex 101.1429816525443 19.374729903972632 2.9999999999999005
    vertex 86.79613252473627 41.46694021701808 2.9999999999999343
  endloop
endfacet
facet normal 6.06989990248521e-16 -6.318491991387007e-18 1.0
  outer loop
    vertex 83.91711462007821 39.59728412878155 2.999999999999936
    vertex 86.79613252473627 41.46694021701808 2.9999999999999343
    vertex 85.59445575596905 40.68656219881161 2.999999999999935
  endloop
endfacet
facet normal 6.06989990248521e-16 -6.318491991387007e-18 1.0
  outer loop
    vertex 85.59445575596905 40.68656219881161 2.999999999999935
    vertex 86.79613252473627 41.46694021701808 2.9999999999999343
    vertex 83.38311224358084 44.0917325964969 2.9999999999999316
  endloop
endfacet
facet normal 6.06989990248521e-16 -6.318491991387007e-18 1.0
  outer loop
    vertex 83.38311224358084 44.0917325964969 2.9999999999999316
    vertex 86.79613252473627 41.46694021701808 2.9999999999999343
    vertex 80.42600531459175 62.95937066083069 2.999999999999938
  endloop
endfacet
facet normal 6.06989990248521e-16 -6.318491991387007e-18 1.0
  outer loop
    vertex 83.38311224358084 44.0917325964969 2.9999999999999316
    vertex 80.42600531459175 62.95937066083069 2.999999999999938
    vertex 77.54698740993369 61.08971457259417 2.9999999999999387
  endloop
endfacet
facet normal 6.06989990248521e-16 -6.318491991387007e-18 1.0
  outer loop
    vertex 224.73008103455672 26.549583606153668 3.0000000000000395
    vertex 214.90237771002364 32.84113149457269 3.0000000000000395
    vertex 221.30948997224598 22.928477313524922 3.0000000000000395
  endloop
endfacet
facet normal 6.06989990248521e-16 -6.318491991387007e-18 1.0
  outer loop
    vertex 214.90237771002364 32.84113149457269 3.0000000000000395
    vertex 224.73008103455672 26.549583606153668 3.0000000000000395
    vertex 214.9023777100236 40.3041664254062 3.000000000000032
  endloop
endfacet
facet normal 6.06989990248521e-16 -6.318491991387007e-18 1.0
  outer loop
    vertex 214.90237771002364 32.84113149457269 3.0000000000000395
    vertex 214.9023777100236 40.3041664254062 3.000000000000032
    vertex 204.51900985698555 35.54970814476363 2.9999999999999947
  endloop
endfacet
facet normal 6.06989990248521e-16 -6.318491991387007e-18 1.0
  outer loop
    vertex 204.51900985698555 35.54970814476363 2.9999999999999947
    vertex 214.9023777100236 40.3041664254062 3.000000000000032
    vertex 195.51456842074168 37.573780559546094 2.9999999999999765
  endloop
endfacet
facet normal 6.06989990248521e-16 -6.318491991387007e-18 1.0
  outer loop
    vertex 195.51456842074168 37.573780559546094 2.9999999999999765
    vertex 214.9023777100236 40.3041664254062 3.000000000000032
    vertex 146.56663642074173 37.573780559546094 2.9999999999999494
  endloop
endfacet
facet normal 6.06989990248521e-16 -6.318491991387007e-18 1.0
  outer loop
    vertex 146.56663642074173 37.573780559546094 2.9999999999999494
    vertex 214.9023777100236 40.3041664254062 3.000000000000032
    vertex 135.72882081456729 37.72762804054503 2.9999999999999494
  endloop
endfacet
facet normal 6.06989990248521e-16 -6.318491991387007e-18 1.0
  outer loop
    vertex 175.79467290440797 15.015997496835137 2.9999999999999467
    vertex 135.72882081456729 37.72762804054503 2.9999999999999494
    vertex 169.90277766412459 11.352653948886148 2.9999999999999494
  endloop
endfacet
facet normal 6.06989990248521e-16 -6.318491991387007e-18 1.0
  outer loop
    vertex 135.72882081456729 37.72762804054503 2.9999999999999494
    vertex 175.79467290440797 15.015997496835137 2.9999999999999467
    vertex 146.56663642074173 37.573780559546094 2.9999999999999494
  endloop
endfacet
facet normal 6.06989990248521e-16 -6.318491991387007e-18 1.0
  outer loop
    vertex 183.97066993427356 15.304371547126085 2.999999999999992
    vertex 195.51456842074168 37.573780559546094 2.9999999999999765
    vertex 175.79467290440797 15.015997496835137 2.9999999999999467
  endloop
endfacet
facet normal 6.06989990248521e-16 -6.318491991387007e-18 1.0
  outer loop
    vertex 195.51456842074168 37.573780559546094 2.9999999999999765
    vertex 183.97066993427356 15.304371547126085 2.999999999999992
    vertex 204.51900985698555 35.54970814476363 2.9999999999999947
  endloop
endfacet
facet normal 6.06989990248521e-16 -6.318491991387007e-18 1.0
  outer loop
    vertex 214.90237771002364 18.350570494572693 3.0000000000000395
    vertex 204.51900985698555 35.54970814476363 2.9999999999999947
    vertex 204.51900985698555 16.20900614476363 2.9999999999999947
  endloop
endfacet
facet normal 6.06989990248521e-16 -6.318491991387007e-18 1.0
  outer loop
    vertex 204.51900985698555 35.54970814476363 2.9999999999999947
    vertex 214.90237771002364 18.350570494572693 3.0000000000000395
    vertex 214.90237771002364 32.84113149457269 3.0000000000000395
  endloop
endfacet
facet normal 0.0 -1.0 0.0
  outer loop
    vertex 101.1429816525443 6.768820124343878 2.9999999999999503
    vertex 219.50686500407767 6.768820124343878 2.255973186038324e-14
    vertex 219.50686500407767 6.768820124343878 2.999999999999836
  endloop
endfacet
facet normal 0.0 -1.0 0.0
  outer loop
    vertex 219.50686500407767 6.768820124343878 2.255973186038324e-14
    vertex 101.1429816525443 6.768820124343878 2.9999999999999503
    vertex 101.1429816525443 6.768820124343878 -4.617695115172178e-14
  endloop
endfacet
facet normal 0.46903263601926143 -0.8831808344551092 3.0083022122627285e-16
  outer loop
    vertex 219.50686500407767 6.768820124343878 2.999999999999836
    vertex 235.57916967798465 15.304371547126085 2.678968158420506e-14
    vertex 235.57916967798465 15.304371547126085 2.99999999999984
  endloop
endfacet
facet normal 0.46903263601926143 -0.8831808344551092 3.0083022122627285e-16
  outer loop
    vertex 235.57916967798465 15.304371547126085 2.678968158420506e-14
    vertex 219.50686500407767 6.768820124343878 2.999999999999836
    vertex 219.50686500407767 6.768820124343878 2.255973186038324e-14
  endloop
endfacet
facet normal 0.7544149543569728 -0.6563978036545877 5.249884606986649e-16
  outer loop
    vertex 241.85545315197334 22.517866297105826 4.018452237630757e-14
    vertex 235.57916967798465 15.304371547126085 2.99999999999984
    vertex 235.57916967798465 15.304371547126085 2.678968158420506e-14
  endloop
endfacet
facet normal 0.7544149543569728 -0.6563978036545877 5.249884606986649e-16
  outer loop
    vertex 235.57916967798465 15.304371547126085 2.99999999999984
    vertex 241.85545315197334 22.517866297105826 4.018452237630757e-14
    vertex 241.85545315197334 22.517866297105826 2.9999999999998535
  endloop
endfacet
facet normal 0.9522523815213303 -0.30531197468647514 6.908151959614925e-16
  outer loop
    vertex 247.7792393090545 40.99385133338332 2.999999999999854
    vertex 241.85545315197334 22.517866297105826 4.018452237630757e-14
    vertex 247.7792393090545 40.99385133338332 4.018452237630756e-14
  endloop
endfacet
facet normal 0.9522523815213303 -0.30531197468647514 6.908151959614925e-16
  outer loop
    vertex 241.85545315197334 22.517866297105826 4.018452237630757e-14
    vertex 247.7792393090545 40.99385133338332 2.999999999999854
    vertex 241.85545315197334 22.517866297105826 2.9999999999998535
  endloop
endfacet
facet normal 1.0 -3.6016590852936457e-16 1.043782997607478e-16
  outer loop
    vertex 247.77923930905456 174.2551049773227 12.99999999999993
    vertex 247.77923930905456 168.29328851314295 5.009266748153425e-29
    vertex 247.77923930905456 174.2551049773227 5.009266748153425e-29
  endloop
endfacet
facet normal 1.0 -3.6016590852936457e-16 1.043782997607478e-16
  outer loop
    vertex 247.77923930905456 168.29328851314295 5.009266748153425e-29
    vertex 247.77923930905456 174.2551049773227 12.99999999999993
    vertex 247.77923930905456 168.29328851314295 4.999999999999946
  endloop
endfacet
facet normal 1.0 -3.6016590852936457e-16 1.043782997607478e-16
  outer loop
    vertex 247.77923930905456 168.29328851314295 4.999999999999946
    vertex 247.77923930905456 174.2551049773227 12.99999999999993
    vertex 247.77923930905456 168.29328851314295 7.999999999999985
  endloop
endfacet
facet normal 1.0 -3.6016590852936457e-16 1.043782997607478e-16
  outer loop
    vertex 247.77923930905456 168.29328851314295 4.999999999999946
    vertex 247.77923930905456 168.29328851314295 7.999999999999985
    vertex 247.77923930905456 163.29328851314293 4.999999999999946
  endloop
endfacet
facet normal 1.0 -3.6016590852936457e-16 1.043782997607478e-16
  outer loop
    vertex 247.77923930905456 168.29328851314295 7.999999999999985
    vertex 247.77923930905456 174.2551049773227 12.99999999999993
    vertex 247.77923930905456 168.29328851314295 12.999999999999934
  endloop
endfacet
facet normal 1.0 -3.6016590852936457e-16 1.043782997607478e-16
  outer loop
    vertex 247.77923930905456 163.29328851314293 -3.0055600488920545e-29
    vertex 247.77923930905456 158.2932885131429 2.999999999999857
    vertex 247.7792393090545 40.99385133338332 4.018452237630756e-14
  endloop
endfacet
facet normal 1.0 -3.6016590852936457e-16 1.043782997607478e-16
  outer loop
    vertex 247.77923930905456 158.2932885131429 2.999999999999857
    vertex 247.77923930905456 163.29328851314293 -3.0055600488920545e-29
    vertex 247.77923930905456 163.29328851314293 4.999999999999946
  endloop
endfacet
facet normal 1.0 -3.6016590852936457e-16 1.043782997607478e-16
  outer loop
    vertex 247.7792393090545 40.99385133338332 4.018452237630756e-14
    vertex 247.77923930905456 158.2932885131429 2.999999999999857
    vertex 247.7792393090545 40.99385133338332 2.999999999999854
  endloop
endfacet
facet normal 1.0 -3.6016590852936457e-16 1.043782997607478e-16
  outer loop
    vertex 247.77923930905456 158.2932885131429 2.999999999999857
    vertex 247.77923930905456 163.29328851314293 4.999999999999946
    vertex 247.77923930905456 158.29328851314293 7.999999999999985
  endloop
endfacet
facet normal 1.0 -3.6016590852936457e-16 1.043782997607478e-16
  outer loop
    vertex 247.77923930905456 158.29328851314293 7.999999999999985
    vertex 247.77923930905456 163.29328851314293 4.999999999999946
    vertex 247.77923930905456 168.29328851314295 7.999999999999985
  endloop
endfacet
facet normal -1.0 8.409895368724994e-16 3.37220440950498e-16
  outer loop
    vertex 207.77923930905465 137.31698478524248 -2.4424906541753374e-14
    vertex 207.77923930905465 132.31698478524248 2.9999999999998326
    vertex 207.77923930905465 137.3169847852425 4.999999999999921
  endloop
endfacet
facet normal -1.0 8.409895368724994e-16 3.37220440950498e-16
  outer loop
    vertex 207.77923930905465 132.31698478524248 2.9999999999998326
    vertex 207.77923930905465 137.31698478524248 -2.4424906541753374e-14
    vertex 207.77923930905453 43.490389299877236 -2.442490654175344e-14
  endloop
endfacet
facet normal -1.0 8.409895368724994e-16 3.37220440950498e-16
  outer loop
    vertex 207.77923930905465 132.31698478524248 2.9999999999998326
    vertex 207.77923930905453 43.490389299877236 -2.442490654175344e-14
    vertex 207.77923930905453 43.490389299877236 2.9999999999997895
  endloop
endfacet
facet normal -1.0 8.409895368724994e-16 3.37220440950498e-16
  outer loop
    vertex 207.77923930905465 137.3169847852425 4.999999999999921
    vertex 207.77923930905465 132.31698478524248 2.9999999999998326
    vertex 207.7792393090546 132.31698478524248 7.999999999999962
  endloop
endfacet
facet normal -1.0 8.409895368724994e-16 3.37220440950498e-16
  outer loop
    vertex 207.77923930905465 137.3169847852425 4.999999999999921
    vertex 207.7792393090546 132.31698478524248 7.999999999999962
    vertex 207.77923930905465 142.3169847852425 4.999999999999921
  endloop
endfacet
facet normal -1.0 8.409895368724994e-16 3.37220440950498e-16
  outer loop
    vertex 207.77923930905465 142.3169847852425 -2.4424906541753368e-14
    vertex 207.77923930905465 148.27880124942226 12.999999999999906
    vertex 207.77923930905465 148.27880124942226 -2.442490654175341e-14
  endloop
endfacet
facet normal -1.0 8.409895368724994e-16 3.37220440950498e-16
  outer loop
    vertex 207.77923930905465 148.27880124942226 12.999999999999906
    vertex 207.77923930905465 142.3169847852425 -2.4424906541753368e-14
    vertex 207.77923930905465 142.3169847852425 4.999999999999921
  endloop
endfacet
facet normal -1.0 8.409895368724994e-16 3.37220440950498e-16
  outer loop
    vertex 207.77923930905465 148.27880124942226 12.999999999999906
    vertex 207.77923930905465 142.3169847852425 4.999999999999921
    vertex 207.77923930905465 142.3169847852425 7.999999999999963
  endloop
endfacet
facet normal -1.0 8.409895368724994e-16 3.37220440950498e-16
  outer loop
    vertex 207.77923930905465 142.3169847852425 7.999999999999963
    vertex 207.77923930905465 142.3169847852425 4.999999999999921
    vertex 207.7792393090546 132.31698478524248 7.999999999999962
  endloop
endfacet
facet normal -1.0 8.409895368724994e-16 3.37220440950498e-16
  outer loop
    vertex 207.77923930905465 148.27880124942226 12.999999999999906
    vertex 207.77923930905465 142.3169847852425 7.999999999999963
    vertex 207.77923930905465 142.3169847852425 12.999999999999906
  endloop
endfacet
facet normal 0.0 1.0 0.0
  outer loop
    vertex 132.30178379368112 43.490389299877236 -2.7142177394523432e-14
    vertex 207.77923930905453 43.490389299877236 2.9999999999997895
    vertex 207.77923930905453 43.490389299877236 -2.442490654175344e-14
  endloop
endfacet
facet normal 0.0 1.0 0.0
  outer loop
    vertex 207.77923930905453 43.490389299877236 2.9999999999997895
    vertex 132.30178379368112 43.490389299877236 -2.7142177394523432e-14
    vertex 132.30178379368112 43.490389299877236 2.999999999999969
  endloop
endfacet
facet normal -0.6109807229348508 -0.79164547380883 6.409494854920719e-31
  outer loop
    vertex 135.72882081456729 37.72762804054503 2.9999999999999494
    vertex 169.90277766412459 11.352653948886147 -4.6881942772358764e-14
    vertex 169.90277766412459 11.352653948886148 2.9999999999999494
  endloop
endfacet
facet normal -0.6109807229348508 -0.79164547380883 6.409494854920719e-31
  outer loop
    vertex 169.90277766412459 11.352653948886147 -4.6881942772358764e-14
    vertex 135.72882081456729 37.72762804054503 2.9999999999999494
    vertex 135.72882081456729 37.72762804054503 -4.6881942772358776e-14
  endloop
endfacet
facet normal 0.7318720006106345 -0.681442128666982 6.747751996703224e-17
  outer loop
    vertex 135.72882081456729 37.72762804054503 -4.6881942772358776e-14
    vertex 111.17122266412457 11.352653948886148 2.9999999999999107
    vertex 111.17122266412457 11.352653948886148 -8.35415070454814e-14
  endloop
endfacet
facet normal 0.7318720006106345 -0.681442128666982 6.747751996703224e-17
  outer loop
    vertex 111.17122266412457 11.352653948886148 2.9999999999999107
    vertex 135.72882081456729 37.72762804054503 -4.6881942772358776e-14
    vertex 135.72882081456729 37.72762804054503 2.9999999999999494
  endloop
endfacet
facet normal -0.7528770611062489 0.6581611739232403 -1.4140782888469412e-16
  outer loop
    vertex 175.79467290440797 15.015997496835137 2.9999999999999467
    vertex 195.51456842074168 37.573780559546094 -1.727229470560587e-14
    vertex 175.79467290440797 15.015997496835137 -4.758693439299572e-14
  endloop
endfacet
facet normal -0.7528770611062489 0.6581611739232403 -1.4140782888469412e-16
  outer loop
    vertex 195.51456842074168 37.573780559546094 -1.727229470560587e-14
    vertex 175.79467290440797 15.015997496835137 2.9999999999999467
    vertex 195.51456842074168 37.573780559546094 2.9999999999999765
  endloop
endfacet
facet normal 0.0 -1.0 0.0
  outer loop
    vertex 146.56663642074173 37.573780559546094 2.9999999999999494
    vertex 195.51456842074168 37.573780559546094 -1.727229470560587e-14
    vertex 195.51456842074168 37.573780559546094 2.9999999999999765
  endloop
endfacet
facet normal 0.0 -1.0 0.0
  outer loop
    vertex 195.51456842074168 37.573780559546094 -1.727229470560587e-14
    vertex 146.56663642074173 37.573780559546094 2.9999999999999494
    vertex 146.56663642074173 37.573780559546094 -4.6881942772358764e-14
  endloop
endfacet
facet normal -1.0 2.93687956766783e-32 0.0
  outer loop
    vertex 204.51900985698555 16.20900614476363 2.9999999999999947
    vertex 204.51900985698555 35.54970814476363 -1.7624790515924058e-15
    vertex 204.51900985698555 16.20900614476363 -1.7624790515924159e-15
  endloop
endfacet
facet normal -1.0 2.93687956766783e-32 0.0
  outer loop
    vertex 204.51900985698555 35.54970814476363 -1.7624790515924058e-15
    vertex 204.51900985698555 16.20900614476363 2.9999999999999947
    vertex 204.51900985698555 35.54970814476363 2.9999999999999947
  endloop
endfacet
facet normal 0.7018352416950225 -0.7123393106623341 5.9164567891575885e-31
  outer loop
    vertex 183.97066993427356 15.304371547126085 2.999999999999992
    vertex 204.51900985698555 35.54970814476363 -1.7624790515924058e-15
    vertex 204.51900985698555 35.54970814476363 2.9999999999999947
  endloop
endfacet
facet normal 0.7018352416950225 -0.7123393106623341 5.9164567891575885e-31
  outer loop
    vertex 204.51900985698555 35.54970814476363 -1.7624790515924058e-15
    vertex 183.97066993427356 15.304371547126085 2.999999999999992
    vertex 183.97066993427356 15.304371547126085 -1.762479051592411e-15
  endloop
endfacet
facet normal -0.9670395669202744 0.2546261495028509 9.860761315262648e-32
  outer loop
    vertex 231.52507069372345 39.151231095912074 -1.7624790515924058e-15
    vertex 234.63454415957176 50.96063825866842 2.9999999999999947
    vertex 234.63454415957176 50.96063825866842 -1.7624790515924159e-15
  endloop
endfacet
facet normal -0.9670395669202744 0.2546261495028509 9.860761315262648e-32
  outer loop
    vertex 234.63454415957176 50.96063825866842 2.9999999999999947
    vertex 231.52507069372345 39.151231095912074 -1.7624790515924058e-15
    vertex 231.52507069372345 39.151231095912074 2.9999999999999947
  endloop
endfacet
facet normal -0.6526286885884661 -0.7576778964911798 -6.1710987882808156e-18
  outer loop
    vertex 219.68803914155603 63.8348662308211 2.999999999999978
    vertex 234.63454415957176 50.96063825866842 -1.7624790515924159e-15
    vertex 234.63454415957176 50.96063825866842 2.9999999999999947
  endloop
endfacet
facet normal -0.6526286885884661 -0.7576778964911798 -6.1710987882808156e-18
  outer loop
    vertex 234.63454415957176 50.96063825866842 -1.7624790515924159e-15
    vertex 219.68803914155603 63.8348662308211 2.999999999999978
    vertex 219.68803914155603 63.8348662308211 -1.586231146433189e-14
  endloop
endfacet
facet normal -1.0 2.93687956766783e-32 0.0
  outer loop
    vertex 235.84412293599624 61.460179103857115 1.0222378499236139e-14
    vertex 235.84412293599624 145.09568010385712 3.000000000000004
    vertex 235.84412293599624 145.09568010385712 1.0222378499236118e-14
  endloop
endfacet
facet normal -1.0 2.93687956766783e-32 0.0
  outer loop
    vertex 235.84412293599624 145.09568010385712 3.000000000000004
    vertex 235.84412293599624 61.460179103857115 1.0222378499236139e-14
    vertex 235.84412293599624 61.460179103857115 3.0000000000000036
  endloop
endfacet
facet normal 0.5446390350150273 -0.8386705679454239 1.910103490427449e-16
  outer loop
    vertex 215.03086396609396 131.5793916896164 2.9999999999999947
    vertex 235.84412293599624 145.09568010385712 1.0222378499236118e-14
    vertex 235.84412293599624 145.09568010385712 3.000000000000004
  endloop
endfacet
facet normal 0.5446390350150273 -0.8386705679454239 1.910103490427449e-16
  outer loop
    vertex 235.84412293599624 145.09568010385712 1.0222378499236118e-14
    vertex 215.03086396609396 131.5793916896164 2.9999999999999947
    vertex 215.03086396609396 131.5793916896164 -1.7624790515923908e-15
  endloop
endfacet
facet normal -0.4903359496849984 -0.8715335085046994 6.883668009544838e-17
  outer loop
    vertex 214.9023777100236 40.3041664254062 3.000000000000032
    vertex 227.88574660237845 32.999556271212526 4.3356984669173955e-14
    vertex 227.88574660237845 32.999556271212526 3.00000000000004
  endloop
endfacet
facet normal -0.4903359496849984 -0.8715335085046994 6.883668009544838e-17
  outer loop
    vertex 227.88574660237845 32.999556271212526 4.3356984669173955e-14
    vertex 214.9023777100236 40.3041664254062 3.000000000000032
    vertex 214.9023777100236 40.3041664254062 3.5602076842167234e-14
  endloop
endfacet
facet normal -0.8982554289949873 0.4394737583531372 -1.577721810442024e-30
  outer loop
    vertex 224.73008103455672 26.549583606153668 4.3356984669173955e-14
    vertex 227.88574660237845 32.999556271212526 3.00000000000004
    vertex 227.88574660237845 32.999556271212526 4.3356984669173955e-14
  endloop
endfacet
facet normal -0.8982554289949873 0.4394737583531372 -1.577721810442024e-30
  outer loop
    vertex 227.88574660237845 32.999556271212526 3.00000000000004
    vertex 224.73008103455672 26.549583606153668 4.3356984669173955e-14
    vertex 224.73008103455672 26.549583606153668 3.0000000000000395
  endloop
endfacet
facet normal -0.839838931442231 -0.5428356742458732 -6.750307558225247e-17
  outer loop
    vertex 221.30948997224598 22.928477313524922 3.0000000000000395
    vertex 214.90237771002364 32.84113149457269 4.3356984669174024e-14
    vertex 221.30948997224598 22.928477313524922 4.335698466917396e-14
  endloop
endfacet
facet normal -0.839838931442231 -0.5428356742458732 -6.750307558225247e-17
  outer loop
    vertex 214.90237771002364 32.84113149457269 4.3356984669174024e-14
    vertex 221.30948997224598 22.928477313524922 3.0000000000000395
    vertex 214.90237771002364 32.84113149457269 3.0000000000000395
  endloop
endfacet
facet normal -0.5813557491922178 0.8136494901867481 5.0589750857698777e-17
  outer loop
    vertex 214.90237771002364 18.350570494572693 4.3356984669174024e-14
    vertex 221.30948997224598 22.928477313524922 3.0000000000000395
    vertex 221.30948997224598 22.928477313524922 4.335698466917396e-14
  endloop
endfacet
facet normal -0.5813557491922178 0.8136494901867481 5.0589750857698777e-17
  outer loop
    vertex 221.30948997224598 22.928477313524922 3.0000000000000395
    vertex 214.90237771002364 18.350570494572693 4.3356984669174024e-14
    vertex 214.90237771002364 18.350570494572693 3.0000000000000395
  endloop
endfacet
facet normal 1.0 -2.93687956766783e-32 0.0
  outer loop
    vertex 219.68803914155603 63.8348662308211 2.999999999999978
    vertex 219.68803914155603 50.96063825866842 -1.1632361740510063e-14
    vertex 219.68803914155603 63.8348662308211 -1.586231146433189e-14
  endloop
endfacet
facet normal 1.0 -2.93687956766783e-32 0.0
  outer loop
    vertex 219.68803914155603 50.96063825866842 -1.1632361740510063e-14
    vertex 219.68803914155603 63.8348662308211 2.999999999999978
    vertex 219.68803914155603 50.96063825866842 2.9999999999999822
  endloop
endfacet
facet normal 0.7062802385648693 0.7079323587834867 2.095545029646362e-17
  outer loop
    vertex 219.68803914155603 50.96063825866842 -1.1632361740510063e-14
    vertex 231.52507069372345 39.151231095912074 2.9999999999999947
    vertex 231.52507069372345 39.151231095912074 -1.7624790515924058e-15
  endloop
endfacet
facet normal 0.7062802385648693 0.7079323587834867 2.095545029646362e-17
  outer loop
    vertex 231.52507069372345 39.151231095912074 2.9999999999999947
    vertex 219.68803914155603 50.96063825866842 -1.1632361740510063e-14
    vertex 219.68803914155603 50.96063825866842 2.9999999999999822
  endloop
endfacet
facet normal 0.9921145967000767 0.12533406166977937 1.67632942359465e-30
  outer loop
    vertex 215.03086396609396 131.5793916896164 -1.7624790515923908e-15
    vertex 222.4293065543037 73.01508134316373 2.9999999999999947
    vertex 222.4293065543037 73.01508134316373 -1.7624790515922731e-15
  endloop
endfacet
facet normal 0.9921145967000767 0.12533406166977937 1.67632942359465e-30
  outer loop
    vertex 222.4293065543037 73.01508134316373 2.9999999999999947
    vertex 215.03086396609396 131.5793916896164 -1.7624790515923908e-15
    vertex 215.03086396609396 131.5793916896164 2.9999999999999947
  endloop
endfacet
facet normal 0.6526286885884661 0.7576778964911799 -3.2918633580704928e-18
  outer loop
    vertex 222.4293065543037 73.01508134316373 -1.7624790515922731e-15
    vertex 235.84412293599624 61.460179103857115 3.0000000000000036
    vertex 235.84412293599624 61.460179103857115 1.0222378499236139e-14
  endloop
endfacet
facet normal 0.6526286885884661 0.7576778964911799 -3.2918633580704928e-18
  outer loop
    vertex 235.84412293599624 61.460179103857115 3.0000000000000036
    vertex 222.4293065543037 73.01508134316373 -1.7624790515922731e-15
    vertex 222.4293065543037 73.01508134316373 2.9999999999999947
  endloop
endfacet
facet normal 0.8136494901867483 0.5813557491922176 5.993632832439939e-17
  outer loop
    vertex 214.9023777100236 40.3041664254062 3.000000000000032
    vertex 224.73008103455672 26.549583606153668 4.3356984669173955e-14
    vertex 214.9023777100236 40.3041664254062 3.5602076842167234e-14
  endloop
endfacet
facet normal 0.8136494901867483 0.5813557491922176 5.993632832439939e-17
  outer loop
    vertex 224.73008103455672 26.549583606153668 4.3356984669173955e-14
    vertex 214.9023777100236 40.3041664254062 3.000000000000032
    vertex 224.73008103455672 26.549583606153668 3.0000000000000395
  endloop
endfacet
facet normal 0.6109807229348512 0.79164547380883 -3.5945836021886643e-16
  outer loop
    vertex 146.56663642074173 37.573780559546094 -4.6881942772358764e-14
    vertex 175.79467290440797 15.015997496835137 2.9999999999999467
    vertex 175.79467290440797 15.015997496835137 -4.758693439299572e-14
  endloop
endfacet
facet normal 0.6109807229348512 0.79164547380883 -3.5945836021886643e-16
  outer loop
    vertex 175.79467290440797 15.015997496835137 2.9999999999999467
    vertex 146.56663642074173 37.573780559546094 -4.6881942772358764e-14
    vertex 146.56663642074173 37.573780559546094 2.9999999999999494
  endloop
endfacet
facet normal 1.0 -2.93687956766783e-32 0.0
  outer loop
    vertex 214.90237771002364 32.84113149457269 3.0000000000000395
    vertex 214.90237771002364 18.350570494572693 4.3356984669174024e-14
    vertex 214.90237771002364 32.84113149457269 4.3356984669174024e-14
  endloop
endfacet
facet normal 1.0 -2.93687956766783e-32 0.0
  outer loop
    vertex 214.90237771002364 18.350570494572693 4.3356984669174024e-14
    vertex 214.90237771002364 32.84113149457269 3.0000000000000395
    vertex 214.90237771002364 18.350570494572693 3.0000000000000395
  endloop
endfacet
facet normal 0.0 1.0 0.0
  outer loop
    vertex 111.17122266412457 11.352653948886148 -8.35415070454814e-14
    vertex 169.90277766412459 11.352653948886148 2.9999999999999494
    vertex 169.90277766412459 11.352653948886147 -4.6881942772358764e-14
  endloop
endfacet
facet normal 0.0 1.0 0.0
  outer loop
    vertex 169.90277766412459 11.352653948886148 2.9999999999999494
    vertex 111.17122266412457 11.352653948886148 -8.35415070454814e-14
    vertex 111.17122266412457 11.352653948886148 2.9999999999999107
  endloop
endfacet
facet normal 0.0 1.0 0.0
  outer loop
    vertex 101.1429816525443 19.374729903972632 -9.552636459630999e-14
    vertex 107.14204065254428 19.374729903972625 2.999999999999902
    vertex 107.14204065254428 19.374729903972632 -9.200140649312513e-14
  endloop
endfacet
facet normal 0.0 1.0 0.0
  outer loop
    vertex 107.14204065254428 19.374729903972625 2.999999999999902
    vertex 101.1429816525443 19.374729903972632 -9.552636459630999e-14
    vertex 101.1429816525443 19.374729903972632 2.9999999999999005
  endloop
endfacet
facet normal -0.6919687620271185 0.7219274425997788 -2.4717791435638183e-16
  outer loop
    vertex 107.14204065254428 19.374729903972632 -9.200140649312513e-14
    vertex 132.30178379368112 43.490389299877236 2.999999999999969
    vertex 132.30178379368112 43.490389299877236 -2.7142177394523432e-14
  endloop
endfacet
facet normal -0.6919687620271185 0.7219274425997788 -2.4717791435638183e-16
  outer loop
    vertex 132.30178379368112 43.490389299877236 2.999999999999969
    vertex 107.14204065254428 19.374729903972632 -9.200140649312513e-14
    vertex 107.14204065254428 19.374729903972625 2.999999999999902
  endloop
endfacet
facet normal -0.8386705679454246 -0.5446390350150261 -2.079397015363025e-16
  outer loop
    vertex 101.1429816525443 6.768820124343878 -4.617695115172178e-14
    vertex 81.03809671542011 37.72762804054503 2.999999999999938
    vertex 81.03809671542011 37.72762804054503 -5.886680032318733e-14
  endloop
endfacet
facet normal -0.8386705679454246 -0.5446390350150261 -2.079397015363025e-16
  outer loop
    vertex 81.03809671542011 37.72762804054503 2.999999999999938
    vertex 101.1429816525443 6.768820124343878 -4.617695115172178e-14
    vertex 101.1429816525443 6.768820124343878 2.9999999999999503
  endloop
endfacet
facet normal -0.6362752801390452 -0.7714620975031629 1.2102313015361535e-16
  outer loop
    vertex 63.65259395568327 52.06658996053015 2.999999999999927
    vertex 81.03809671542011 37.72762804054503 -5.886680032318733e-14
    vertex 81.03809671542011 37.72762804054503 2.999999999999938
  endloop
endfacet
facet normal -0.6362752801390452 -0.7714620975031629 1.2102313015361535e-16
  outer loop
    vertex 81.03809671542011 37.72762804054503 -5.886680032318733e-14
    vertex 63.65259395568327 52.06658996053015 2.999999999999927
    vertex 63.65259395568327 52.06658996053015 -6.92654267275826e-14
  endloop
endfacet
facet normal 0.9587738112423476 0.2841703342641937 -2.2133388058983197e-13
  outer loop
    vertex 80.42600531459175 62.95937066083069 -6.23917584263722e-14
    vertex 86.79613252473627 41.46694021701808 2.9999999999999343
    vertex 86.796132524735 41.46694021701771 -6.450673328828312e-14
  endloop
endfacet
facet normal 0.9587738112423476 0.2841703342641937 -2.2133388058983197e-13
  outer loop
    vertex 86.79613252473627 41.46694021701808 2.9999999999999343
    vertex 80.42600531459175 62.95937066083069 -6.23917584263722e-14
    vertex 80.42600531459175 62.95937066083069 2.999999999999938
  endloop
endfacet
facet normal 0.8386705679454176 0.5446390350150369 -1.4140633970787383e-13
  outer loop
    vertex 86.796132524735 41.46694021701771 -6.450673328828312e-14
    vertex 101.1429816525443 19.374729903972632 2.9999999999999005
    vertex 101.1429816525443 19.374729903972632 -9.552636459630999e-14
  endloop
endfacet
facet normal 0.8386705679454176 0.5446390350150369 -1.4140633970787383e-13
  outer loop
    vertex 101.1429816525443 19.374729903972632 2.9999999999999005
    vertex 86.796132524735 41.46694021701771 -6.450673328828312e-14
    vertex 86.79613252473627 41.46694021701808 2.9999999999999343
  endloop
endfacet
facet normal 0.29476287841421034 -0.45389502910318114 0.8408889035207874
  outer loop
    vertex 83.91711462007821 39.59728412878155 2.999999999999936
    vertex 70.53303585500288 56.5348011745026 16.834151366978638
    vertex 82.23977348418737 38.50800605875151 2.999999999999937
  endloop
endfacet
facet normal 0.29476287841421034 -0.45389502910318114 0.8408889035207874
  outer loop
    vertex 70.53303585500288 56.5348011745026 16.834151366978638
    vertex 83.91711462007821 39.59728412878155 2.999999999999936
    vertex 85.59445575596905 40.68656219881161 2.999999999999935
  endloop
endfacet
facet normal 0.29476287841421034 -0.45389502910318114 0.8408889035207874
  outer loop
    vertex 70.53303585500288 56.5348011745026 16.834151366978638
    vertex 85.59445575596905 40.68656219881161 2.999999999999935
    vertex 72.03929963513754 57.51298031068042 16.83415136697863
  endloop
endfacet
facet normal 0.29476287841421034 -0.45389502910318114 0.8408889035207874
  outer loop
    vertex 72.03929963513754 57.51298031068042 16.83415136697863
    vertex 85.59445575596905 40.68656219881161 2.999999999999935
    vertex 73.88771812678459 58.71335731456272 16.834151366978634
  endloop
endfacet
facet normal -0.8386705679454257 -0.5446390350150244 0.0
  outer loop
    vertex 70.53303585500288 56.5348011745026 16.834151366978638
    vertex 80.02842997179916 41.913176456436794 2.999999999999938
    vertex 82.23977348418737 38.50800605875151 2.999999999999937
  endloop
endfacet
facet normal -0.8386705679454257 -0.5446390350150244 0.0
  outer loop
    vertex 80.02842997179916 41.913176456436794 2.999999999999938
    vertex 70.53303585500288 56.5348011745026 16.834151366978638
    vertex 70.53303585500288 56.5348011745026 11.834151366978626
  endloop
endfacet
facet normal 0.8386705679454259 0.5446390350150242 -9.601865135464565e-16
  outer loop
    vertex 73.88771812678456 58.71335731456272 11.834151366978634
    vertex 85.59445575596905 40.68656219881161 2.999999999999935
    vertex 83.38311224358084 44.0917325964969 2.9999999999999316
  endloop
endfacet
facet normal 0.8386705679454259 0.5446390350150242 -9.601865135464565e-16
  outer loop
    vertex 85.59445575596905 40.68656219881161 2.999999999999935
    vertex 73.88771812678456 58.71335731456272 11.834151366978634
    vertex 73.88771812678459 58.71335731456272 16.834151366978634
  endloop
endfacet
facet normal -0.2461749306323138 0.3790761506501864 -0.8920197170110159
  outer loop
    vertex 70.53303585500288 56.5348011745026 11.834151366978626
    vertex 83.38311224358084 44.0917325964969 2.9999999999999316
    vertex 80.02842997179916 41.913176456436794 2.999999999999938
  endloop
endfacet
facet normal -0.2461749306323138 0.3790761506501864 -0.8920197170110159
  outer loop
    vertex 83.38311224358084 44.0917325964969 2.9999999999999316
    vertex 70.53303585500288 56.5348011745026 11.834151366978626
    vertex 73.88771812678456 58.71335731456272 11.834151366978634
  endloop
endfacet
facet normal -0.04398210285722121 0.9990323191109769 -1.201370891679057e-17
  outer loop
    vertex 183.97066993427356 15.304371547126085 -1.762479051592411e-15
    vertex 204.51900985698555 16.20900614476363 2.9999999999999947
    vertex 204.51900985698555 16.20900614476363 -1.7624790515924159e-15
  endloop
endfacet
facet normal -0.04398210285722121 0.9990323191109769 -1.201370891679057e-17
  outer loop
    vertex 204.51900985698555 16.20900614476363 2.9999999999999947
    vertex 183.97066993427356 15.304371547126085 -1.762479051592411e-15
    vertex 183.97066993427356 15.304371547126085 2.999999999999992
  endloop
endfacet
facet normal 0.6651638364935382 0.7466974424900608 -1.3523020601335758e-15
  outer loop
    vertex 66.53161186034133 53.9362460487667 -7.613909502879323e-14
    vertex 80.02842997179916 41.913176456436794 2.999999999999938
    vertex 80.02842997179916 41.913176456436794 -5.992428775414277e-14
  endloop
endfacet
facet normal 0.6651638364935382 0.7466974424900608 -1.3523020601335758e-15
  outer loop
    vertex 80.02842997179916 41.913176456436794 2.999999999999938
    vertex 66.53161186034133 53.9362460487667 -7.613909502879323e-14
    vertex 66.53161186034133 53.9362460487667 2.9999999999999254
  endloop
endfacet
facet normal -0.5446390350150248 0.8386705679454256 -1.0541326294362562e-16
  outer loop
    vertex 80.02842997179916 41.913176456436794 -5.992428775414277e-14
    vertex 83.38311224358084 44.0917325964969 2.9999999999999316
    vertex 83.38311224358084 44.0917325964969 -6.697420396051253e-14
  endloop
endfacet
facet normal -0.5446390350150248 0.8386705679454256 -1.0541326294362562e-16
  outer loop
    vertex 83.38311224358084 44.0917325964969 2.9999999999999316
    vertex 80.02842997179916 41.913176456436794 -5.992428775414277e-14
    vertex 80.02842997179916 41.913176456436794 2.999999999999938
  endloop
endfacet
facet normal -0.9458051042270049 -0.324734822306054 5.536757810328323e-16
  outer loop
    vertex 83.38311224358084 44.0917325964969 2.9999999999999316
    vertex 77.54698740993369 61.089714572594154 -6.203926261605372e-14
    vertex 83.38311224358084 44.0917325964969 -6.697420396051253e-14
  endloop
endfacet
facet normal -0.9458051042270049 -0.324734822306054 5.536757810328323e-16
  outer loop
    vertex 77.54698740993369 61.089714572594154 -6.203926261605372e-14
    vertex 83.38311224358084 44.0917325964969 2.9999999999999316
    vertex 77.54698740993369 61.08971457259417 2.9999999999999387
  endloop
endfacet
facet normal 6.72500158080352e-16 -8.7352469672609e-17 -1.0
  outer loop
    vertex 101.1429816525443 6.768820124343878 -4.617695115172178e-14
    vertex 111.17122266412457 11.352653948886148 -8.35415070454814e-14
    vertex 219.50686500407767 6.768820124343878 2.255973186038324e-14
  endloop
endfacet
facet normal 6.72500158080352e-16 -8.7352469672609e-17 -1.0
  outer loop
    vertex 111.17122266412457 11.352653948886148 -8.35415070454814e-14
    vertex 101.1429816525443 6.768820124343878 -4.617695115172178e-14
    vertex 101.1429816525443 19.374729903972632 -9.552636459630999e-14
  endloop
endfacet
facet normal 6.72500158080352e-16 -8.7352469672609e-17 -1.0
  outer loop
    vertex 101.1429816525443 19.374729903972632 -9.552636459630999e-14
    vertex 101.1429816525443 6.768820124343878 -4.617695115172178e-14
    vertex 81.03809671542011 37.72762804054503 -5.886680032318733e-14
  endloop
endfacet
facet normal 6.72500158080352e-16 -8.7352469672609e-17 -1.0
  outer loop
    vertex 219.50686500407767 6.768820124343878 2.255973186038324e-14
    vertex 111.17122266412457 11.352653948886148 -8.35415070454814e-14
    vertex 169.90277766412459 11.352653948886147 -4.6881942772358764e-14
  endloop
endfacet
facet normal 6.72500158080352e-16 -8.7352469672609e-17 -1.0
  outer loop
    vertex 111.17122266412457 11.352653948886148 -8.35415070454814e-14
    vertex 101.1429816525443 19.374729903972632 -9.552636459630999e-14
    vertex 107.14204065254428 19.374729903972632 -9.200140649312513e-14
  endloop
endfacet
facet normal 6.72500158080352e-16 -8.7352469672609e-17 -1.0
  outer loop
    vertex 101.1429816525443 19.374729903972632 -9.552636459630999e-14
    vertex 81.03809671542011 37.72762804054503 -5.886680032318733e-14
    vertex 86.796132524735 41.46694021701771 -6.450673328828312e-14
  endloop
endfacet
facet normal 6.72500158080352e-16 -8.7352469672609e-17 -1.0
  outer loop
    vertex 204.51900985698555 35.54970814476363 -1.7624790515924058e-15
    vertex 214.90237771002364 18.350570494572693 4.3356984669174024e-14
    vertex 204.51900985698555 16.20900614476363 -1.7624790515924159e-15
  endloop
endfacet
facet normal 6.72500158080352e-16 -8.7352469672609e-17 -1.0
  outer loop
    vertex 214.90237771002364 18.350570494572693 4.3356984669174024e-14
    vertex 204.51900985698555 35.54970814476363 -1.7624790515924058e-15
    vertex 214.90237771002364 32.84113149457269 4.3356984669174024e-14
  endloop
endfacet
facet normal 6.72500158080352e-16 -8.7352469672609e-17 -1.0
  outer loop
    vertex 195.51456842074168 37.573780559546094 -1.727229470560587e-14
    vertex 183.97066993427356 15.304371547126085 -1.762479051592411e-15
    vertex 175.79467290440797 15.015997496835137 -4.758693439299572e-14
  endloop
endfacet
facet normal 6.72500158080352e-16 -8.7352469672609e-17 -1.0
  outer loop
    vertex 183.97066993427356 15.304371547126085 -1.762479051592411e-15
    vertex 195.51456842074168 37.573780559546094 -1.727229470560587e-14
    vertex 204.51900985698555 35.54970814476363 -1.7624790515924058e-15
  endloop
endfacet
facet normal 6.72500158080352e-16 -8.7352469672609e-17 -1.0
  outer loop
    vertex 135.72882081456729 37.72762804054503 -4.6881942772358776e-14
    vertex 175.79467290440797 15.015997496835137 -4.758693439299572e-14
    vertex 169.90277766412459 11.352653948886147 -4.6881942772358764e-14
  endloop
endfacet
facet normal 6.72500158080352e-16 -8.7352469672609e-17 -1.0
  outer loop
    vertex 175.79467290440797 15.015997496835137 -4.758693439299572e-14
    vertex 135.72882081456729 37.72762804054503 -4.6881942772358776e-14
    vertex 146.56663642074173 37.573780559546094 -4.6881942772358764e-14
  endloop
endfacet
facet normal 6.72500158080352e-16 -8.7352469672609e-17 -1.0
  outer loop
    vertex 146.56663642074173 37.573780559546094 -4.6881942772358764e-14
    vertex 135.72882081456729 37.72762804054503 -4.6881942772358776e-14
    vertex 195.51456842074168 37.573780559546094 -1.727229470560587e-14
  endloop
endfacet
facet normal 6.72500158080352e-16 -8.7352469672609e-17 -1.0
  outer loop
    vertex 107.14204065254428 19.374729903972632 -9.200140649312513e-14
    vertex 135.72882081456729 37.72762804054503 -4.6881942772358776e-14
    vertex 111.17122266412457 11.352653948886148 -8.35415070454814e-14
  endloop
endfacet
facet normal 6.72500158080352e-16 -8.7352469672609e-17 -1.0
  outer loop
    vertex 135.72882081456729 37.72762804054503 -4.6881942772358776e-14
    vertex 107.14204065254428 19.374729903972632 -9.200140649312513e-14
    vertex 132.30178379368112 43.490389299877236 -2.7142177394523432e-14
  endloop
endfacet
facet normal 6.72500158080352e-16 -8.7352469672609e-17 -1.0
  outer loop
    vertex 135.72882081456729 37.72762804054503 -4.6881942772358776e-14
    vertex 132.30178379368112 43.490389299877236 -2.7142177394523432e-14
    vertex 214.9023777100236 40.3041664254062 3.5602076842167234e-14
  endloop
endfacet
facet normal 6.72500158080352e-16 -8.7352469672609e-17 -1.0
  outer loop
    vertex 214.9023777100236 40.3041664254062 3.5602076842167234e-14
    vertex 231.52507069372345 39.151231095912074 -1.7624790515924058e-15
    vertex 227.88574660237845 32.999556271212526 4.3356984669173955e-14
  endloop
endfacet
facet normal 6.72500158080352e-16 -8.7352469672609e-17 -1.0
  outer loop
    vertex 231.52507069372345 39.151231095912074 -1.7624790515924058e-15
    vertex 214.9023777100236 40.3041664254062 3.5602076842167234e-14
    vertex 219.68803914155603 50.96063825866842 -1.1632361740510063e-14
  endloop
endfacet
facet normal 6.72500158080352e-16 -8.7352469672609e-17 -1.0
  outer loop
    vertex 219.68803914155603 50.96063825866842 -1.1632361740510063e-14
    vertex 214.9023777100236 40.3041664254062 3.5602076842167234e-14
    vertex 207.77923930905453 43.490389299877236 -2.442490654175344e-14
  endloop
endfacet
facet normal 6.72500158080352e-16 -8.7352469672609e-17 -1.0
  outer loop
    vertex 207.77923930905453 43.490389299877236 -2.442490654175344e-14
    vertex 214.9023777100236 40.3041664254062 3.5602076842167234e-14
    vertex 132.30178379368112 43.490389299877236 -2.7142177394523432e-14
  endloop
endfacet
facet normal 6.72500158080352e-16 -8.7352469672609e-17 -1.0
  outer loop
    vertex 219.68803914155603 50.96063825866842 -1.1632361740510063e-14
    vertex 207.77923930905453 43.490389299877236 -2.442490654175344e-14
    vertex 207.77923930905465 137.31698478524248 -2.4424906541753374e-14
  endloop
endfacet
facet normal 6.72500158080352e-16 -8.7352469672609e-17 -1.0
  outer loop
    vertex 219.68803914155603 50.96063825866842 -1.1632361740510063e-14
    vertex 207.77923930905465 137.31698478524248 -2.4424906541753374e-14
    vertex 219.68803914155603 63.8348662308211 -1.586231146433189e-14
  endloop
endfacet
facet normal 6.72500158080352e-16 -8.7352469672609e-17 -1.0
  outer loop
    vertex 219.68803914155603 63.8348662308211 -1.586231146433189e-14
    vertex 207.77923930905465 137.31698478524248 -2.4424906541753374e-14
    vertex 222.4293065543037 73.01508134316373 -1.7624790515922731e-15
  endloop
endfacet
facet normal 6.72500158080352e-16 -8.7352469672609e-17 -1.0
  outer loop
    vertex 222.4293065543037 73.01508134316373 -1.7624790515922731e-15
    vertex 207.77923930905465 137.31698478524248 -2.4424906541753374e-14
    vertex 215.03086396609396 131.5793916896164 -1.7624790515923908e-15
  endloop
endfacet
facet normal 6.72500158080352e-16 -8.7352469672609e-17 -1.0
  outer loop
    vertex 215.03086396609396 131.5793916896164 -1.7624790515923908e-15
    vertex 207.77923930905465 137.31698478524248 -2.4424906541753374e-14
    vertex 235.84412293599624 145.09568010385712 1.0222378499236118e-14
  endloop
endfacet
facet normal 6.72500158080352e-16 -8.7352469672609e-17 -1.0
  outer loop
    vertex 235.84412293599624 145.09568010385712 1.0222378499236118e-14
    vertex 207.77923930905465 137.31698478524248 -2.4424906541753374e-14
    vertex 247.77923930905456 163.29328851314293 -3.0055600488920545e-29
  endloop
endfacet
facet normal 6.72500158080352e-16 -8.7352469672609e-17 -1.0
  outer loop
    vertex 169.90277766412459 11.352653948886147 -4.6881942772358764e-14
    vertex 235.57916967798465 15.304371547126085 2.678968158420506e-14
    vertex 219.50686500407767 6.768820124343878 2.255973186038324e-14
  endloop
endfacet
facet normal 6.72500158080352e-16 -8.7352469672609e-17 -1.0
  outer loop
    vertex 235.57916967798465 15.304371547126085 2.678968158420506e-14
    vertex 169.90277766412459 11.352653948886147 -4.6881942772358764e-14
    vertex 175.79467290440797 15.015997496835137 -4.758693439299572e-14
  endloop
endfacet
facet normal 6.72500158080352e-16 -8.7352469672609e-17 -1.0
  outer loop
    vertex 235.57916967798465 15.304371547126085 2.678968158420506e-14
    vertex 175.79467290440797 15.015997496835137 -4.758693439299572e-14
    vertex 183.97066993427356 15.304371547126085 -1.762479051592411e-15
  endloop
endfacet
facet normal 6.72500158080352e-16 -8.7352469672609e-17 -1.0
  outer loop
    vertex 235.57916967798465 15.304371547126085 2.678968158420506e-14
    vertex 183.97066993427356 15.304371547126085 -1.762479051592411e-15
    vertex 204.51900985698555 16.20900614476363 -1.7624790515924159e-15
  endloop
endfacet
facet normal 6.72500158080352e-16 -8.7352469672609e-17 -1.0
  outer loop
    vertex 235.57916967798465 15.304371547126085 2.678968158420506e-14
    vertex 204.51900985698555 16.20900614476363 -1.7624790515924159e-15
    vertex 241.85545315197334 22.517866297105826 4.018452237630757e-14
  endloop
endfacet
facet normal 6.72500158080352e-16 -8.7352469672609e-17 -1.0
  outer loop
    vertex 241.85545315197334 22.517866297105826 4.018452237630757e-14
    vertex 204.51900985698555 16.20900614476363 -1.7624790515924159e-15
    vertex 214.90237771002364 18.350570494572693 4.3356984669174024e-14
  endloop
endfacet
facet normal 6.72500158080352e-16 -8.7352469672609e-17 -1.0
  outer loop
    vertex 241.85545315197334 22.517866297105826 4.018452237630757e-14
    vertex 214.90237771002364 18.350570494572693 4.3356984669174024e-14
    vertex 221.30948997224598 22.928477313524922 4.335698466917396e-14
  endloop
endfacet
facet normal 6.72500158080352e-16 -8.7352469672609e-17 -1.0
  outer loop
    vertex 241.85545315197334 22.517866297105826 4.018452237630757e-14
    vertex 221.30948997224598 22.928477313524922 4.335698466917396e-14
    vertex 247.7792393090545 40.99385133338332 4.018452237630756e-14
  endloop
endfacet
facet normal 6.72500158080352e-16 -8.7352469672609e-17 -1.0
  outer loop
    vertex 247.7792393090545 40.99385133338332 4.018452237630756e-14
    vertex 221.30948997224598 22.928477313524922 4.335698466917396e-14
    vertex 224.73008103455672 26.549583606153668 4.3356984669173955e-14
  endloop
endfacet
facet normal 6.72500158080352e-16 -8.7352469672609e-17 -1.0
  outer loop
    vertex 247.7792393090545 40.99385133338332 4.018452237630756e-14
    vertex 224.73008103455672 26.549583606153668 4.3356984669173955e-14
    vertex 227.88574660237845 32.999556271212526 4.3356984669173955e-14
  endloop
endfacet
facet normal 6.72500158080352e-16 -8.7352469672609e-17 -1.0
  outer loop
    vertex 247.7792393090545 40.99385133338332 4.018452237630756e-14
    vertex 227.88574660237845 32.999556271212526 4.3356984669173955e-14
    vertex 231.52507069372345 39.151231095912074 -1.7624790515924058e-15
  endloop
endfacet
facet normal 6.72500158080352e-16 -8.7352469672609e-17 -1.0
  outer loop
    vertex 247.7792393090545 40.99385133338332 4.018452237630756e-14
    vertex 231.52507069372345 39.151231095912074 -1.7624790515924058e-15
    vertex 234.63454415957176 50.96063825866842 -1.7624790515924159e-15
  endloop
endfacet
facet normal 6.72500158080352e-16 -8.7352469672609e-17 -1.0
  outer loop
    vertex 247.7792393090545 40.99385133338332 4.018452237630756e-14
    vertex 234.63454415957176 50.96063825866842 -1.7624790515924159e-15
    vertex 247.77923930905456 163.29328851314293 -3.0055600488920545e-29
  endloop
endfacet
facet normal 6.72500158080352e-16 -8.7352469672609e-17 -1.0
  outer loop
    vertex 247.77923930905456 163.29328851314293 -3.0055600488920545e-29
    vertex 234.63454415957176 50.96063825866842 -1.7624790515924159e-15
    vertex 235.84412293599624 61.460179103857115 1.0222378499236139e-14
  endloop
endfacet
facet normal 6.72500158080352e-16 -8.7352469672609e-17 -1.0
  outer loop
    vertex 247.77923930905456 163.29328851314293 -3.0055600488920545e-29
    vertex 235.84412293599624 61.460179103857115 1.0222378499236139e-14
    vertex 235.84412293599624 145.09568010385712 1.0222378499236118e-14
  endloop
endfacet
facet normal 6.72500158080352e-16 -8.7352469672609e-17 -1.0
  outer loop
    vertex 219.68803914155603 63.8348662308211 -1.586231146433189e-14
    vertex 235.84412293599624 61.460179103857115 1.0222378499236139e-14
    vertex 234.63454415957176 50.96063825866842 -1.7624790515924159e-15
  endloop
endfacet
facet normal 6.72500158080352e-16 -8.7352469672609e-17 -1.0
  outer loop
    vertex 235.84412293599624 61.460179103857115 1.0222378499236139e-14
    vertex 219.68803914155603 63.8348662308211 -1.586231146433189e-14
    vertex 222.4293065543037 73.01508134316373 -1.7624790515922731e-15
  endloop
endfacet
facet normal 6.72500158080352e-16 -8.7352469672609e-17 -1.0
  outer loop
    vertex 214.90237771002364 32.84113149457269 4.3356984669174024e-14
    vertex 224.73008103455672 26.549583606153668 4.3356984669173955e-14
    vertex 221.30948997224598 22.928477313524922 4.335698466917396e-14
  endloop
endfacet
facet normal 6.72500158080352e-16 -8.7352469672609e-17 -1.0
  outer loop
    vertex 224.73008103455672 26.549583606153668 4.3356984669173955e-14
    vertex 214.90237771002364 32.84113149457269 4.3356984669174024e-14
    vertex 214.9023777100236 40.3041664254062 3.5602076842167234e-14
  endloop
endfacet
facet normal 6.72500158080352e-16 -8.7352469672609e-17 -1.0
  outer loop
    vertex 214.9023777100236 40.3041664254062 3.5602076842167234e-14
    vertex 214.90237771002364 32.84113149457269 4.3356984669174024e-14
    vertex 204.51900985698555 35.54970814476363 -1.7624790515924058e-15
  endloop
endfacet
facet normal 6.72500158080352e-16 -8.7352469672609e-17 -1.0
  outer loop
    vertex 214.9023777100236 40.3041664254062 3.5602076842167234e-14
    vertex 204.51900985698555 35.54970814476363 -1.7624790515924058e-15
    vertex 195.51456842074168 37.573780559546094 -1.727229470560587e-14
  endloop
endfacet
facet normal 6.72500158080352e-16 -8.7352469672609e-17 -1.0
  outer loop
    vertex 214.9023777100236 40.3041664254062 3.5602076842167234e-14
    vertex 195.51456842074168 37.573780559546094 -1.727229470560587e-14
    vertex 135.72882081456729 37.72762804054503 -4.6881942772358776e-14
  endloop
endfacet
facet normal 9.122951337355143e-16 -7.390515926834969e-16 -1.0
  outer loop
    vertex 81.03809671542011 37.72762804054503 -5.886680032318733e-14
    vertex 80.02842997179916 41.913176456436794 -5.992428775414277e-14
    vertex 86.796132524735 41.46694021701771 -6.450673328828312e-14
  endloop
endfacet
facet normal 9.122951337355143e-16 -7.390515926834969e-16 -1.0
  outer loop
    vertex 80.02842997179916 41.913176456436794 -5.992428775414277e-14
    vertex 81.03809671542011 37.72762804054503 -5.886680032318733e-14
    vertex 63.65259395568327 52.06658996053015 -6.92654267275826e-14
  endloop
endfacet
facet normal 9.122951337355143e-16 -7.390515926834969e-16 -1.0
  outer loop
    vertex 80.02842997179916 41.913176456436794 -5.992428775414277e-14
    vertex 63.65259395568327 52.06658996053015 -6.92654267275826e-14
    vertex 66.53161186034133 53.9362460487667 -7.613909502879323e-14
  endloop
endfacet
facet normal 9.122951337355143e-16 -7.390515926834969e-16 -1.0
  outer loop
    vertex 66.53161186034133 53.9362460487667 -7.613909502879323e-14
    vertex 63.65259395568327 52.06658996053015 -6.92654267275826e-14
    vertex 62.018676850638194 54.58260166436642 -1.134296094297593e-13
  endloop
endfacet
facet normal 9.122951337355143e-16 -7.390515926834969e-16 -1.0
  outer loop
    vertex 66.53161186034133 53.9362460487667 -7.613909502879323e-14
    vertex 62.018676850638194 54.58260166436642 -1.134296094297593e-13
    vertex 77.54698740993369 61.089714572594154 -6.203926261605372e-14
  endloop
endfacet
facet normal 9.122951337355143e-16 -7.390515926834969e-16 -1.0
  outer loop
    vertex 77.54698740993369 61.089714572594154 -6.203926261605372e-14
    vertex 62.018676850638194 54.58260166436642 -1.134296094297593e-13
    vertex 78.79208820954666 65.47538236466696 -1.0318738430906618e-13
  endloop
endfacet
facet normal 9.122951337355143e-16 -7.390515926834969e-16 -1.0
  outer loop
    vertex 77.54698740993369 61.089714572594154 -6.203926261605372e-14
    vertex 78.79208820954666 65.47538236466696 -1.0318738430906618e-13
    vertex 80.42600531459175 62.95937066083069 -6.23917584263722e-14
  endloop
endfacet
facet normal 9.122951337355143e-16 -7.390515926834969e-16 -1.0
  outer loop
    vertex 86.796132524735 41.46694021701771 -6.450673328828312e-14
    vertex 83.38311224358084 44.0917325964969 -6.697420396051253e-14
    vertex 80.42600531459175 62.95937066083069 -6.23917584263722e-14
  endloop
endfacet
facet normal 9.122951337355143e-16 -7.390515926834969e-16 -1.0
  outer loop
    vertex 83.38311224358084 44.0917325964969 -6.697420396051253e-14
    vertex 86.796132524735 41.46694021701771 -6.450673328828312e-14
    vertex 80.02842997179916 41.913176456436794 -5.992428775414277e-14
  endloop
endfacet
facet normal 9.122951337355143e-16 -7.390515926834969e-16 -1.0
  outer loop
    vertex 80.42600531459175 62.95937066083069 -6.23917584263722e-14
    vertex 83.38311224358084 44.0917325964969 -6.697420396051253e-14
    vertex 77.54698740993369 61.089714572594154 -6.203926261605372e-14
  endloop
endfacet
endsolid note_10_1_stand
