  0
SECTION
  2
HEADER
  9
$ACADVER
  1
AC1014
  9
$HANDSEED
  5
FFFF
  9
$MEASUREMENT
 70
     1
  0
ENDSEC
  0
SECTION
  2
TABLES
  0
TABLE
  2
VPORT
  5
8
330
0
100
AcDbSymbolTable
 70
     4
  0
VPORT
  5
2E
330
8
100
AcDbSymbolTableRecord
100
AcDbViewportTableRecord
  2
*ACTIVE
 70
     0
 10
0.0
 20
0.0
 11
1.0
 21
1.0
 12
210.0
 22
148.5
 13
0.0
 23
0.0
 14
10.0
 24
10.0
 15
10.0
 25
10.0
 16
0.0
 26
0.0
 36
1.0
 17
0.0
 27
0.0
 37
0.0
 40
341.0
 41
1.24
 42
50.0
 43
0.0
 44
0.0
 50
0.0
 51
0.0
 71
     0
 72
   100
 73
     1
 74
     3
 75
     0
 76
     0
 77
     0
 78
     0
  0
ENDTAB
  0
TABLE
  2
LTYPE
  5
5
330
0
100
AcDbSymbolTable
 70
     1
  0
LTYPE
  5
14
330
5
100
AcDbSymbolTableRecord
100
AcDbLinetypeTableRecord
  2
BYBLOCK
 70
     0
  3

 72
    65
 73
     0
 40
0.0
  0
LTYPE
  5
15
330
5
100
AcDbSymbolTableRecord
100
AcDbLinetypeTableRecord
  2
BYLAYER
 70
     0
  3

 72
    65
 73
     0
 40
0.0
  0
LTYPE
  5
16
330
5
100
AcDbSymbolTableRecord
100
AcDbLinetypeTableRecord
  2
CONTINUOUS
 70
     0
  3
Solid line
 72
    65
 73
     0
 40
0.0
  0
ENDTAB
  0
TABLE
  2
LAYER
  5
2
100
AcDbSymbolTable
 70
2
  0
LAYER
  5
50
100
AcDbSymbolTableRecord
100
AcDbLayerTableRecord
  2
0
 70
0
  6
CONTINUOUS
  0
LAYER
  5
51
100
AcDbSymbolTableRecord
100
AcDbLayerTableRecord
  2
Layer_1
 70
0
  6
CONTINUOUS
  0
ENDTAB
  0
TABLE
  2
STYLE
  5
3
330
0
100
AcDbSymbolTable
 70
     1
  0
STYLE
  5
11
330
3
100
AcDbSymbolTableRecord
100
AcDbTextStyleTableRecord
  2
STANDARD
 70
     0
 40
0.0
 41
1.0
 50
0.0
 71
     0
 42
2.5
  3
txt
  4

  0
ENDTAB
  0
TABLE
  2
VIEW
  5
6
330
0
100
AcDbSymbolTable
 70
     0
  0
ENDTAB
  0
TABLE
  2
UCS
  5
7
330
0
100
AcDbSymbolTable
 70
     0
  0
ENDTAB
  0
TABLE
  2
APPID
  5
9
330
0
100
AcDbSymbolTable
 70
     2
  0
APPID
  5
12
330
9
100
AcDbSymbolTableRecord
100
AcDbRegAppTableRecord
  2
ACAD
 70
     0
  0
ENDTAB
  0
TABLE
  2
DIMSTYLE
  5
A
330
0
100
AcDbSymbolTable
 70
     1
  0
DIMSTYLE
105
27
330
A
100
AcDbSymbolTableRecord
100
AcDbDimStyleTableRecord
  2
ISO-25
 70
     0
  3

  4

  5

  6

  7

 40
1.0
 41
2.5
 42
0.625
 43
3.75
 44
1.25
 45
0.0
 46
0.0
 47
0.0
 48
0.0
140
2.5
141
2.5
142
0.0
143
0.03937007874016
144
1.0
145
0.0
146
1.0
147
0.625
 71
     0
 72
     0
 73
     0
 74
     0
 75
     0
 76
     0
 77
     1
 78
     8
170
     0
171
     3
172
     1
173
     0
174
     0
175
     0
176
     0
177
     0
178
     0
270
     2
271
     2
272
     2
273
     2
274
     3
340
11
275
     0
280
     0
281
     0
282
     0
283
     0
284
     8
285
     0
286
     0
287
     3
288
     0
  0
ENDTAB
  0
TABLE
  2
BLOCK_RECORD
  5
1
330
0
100
AcDbSymbolTable
 70
     1
  0
BLOCK_RECORD
  5
1F
330
1
100
AcDbSymbolTableRecord
100
AcDbBlockTableRecord
  2
*MODEL_SPACE
  0
BLOCK_RECORD
  5
1B
330
1
100
AcDbSymbolTableRecord
100
AcDbBlockTableRecord
  2
*PAPER_SPACE
  0
ENDTAB
  0
ENDSEC
  0
SECTION
  2
BLOCKS
  0
BLOCK
  5
20
330
1F
100
AcDbEntity
  8
0
100
AcDbBlockBegin
  2
*MODEL_SPACE
 70
     0
 10
0.0
 20
0.0
 30
0.0
  3
*MODEL_SPACE
  1

  0
ENDBLK
  5
21
330
1F
100
AcDbEntity
  8
0
100
AcDbBlockEnd
  0
BLOCK
  5
1C
330
1B
100
AcDbEntity
 67
     1
  8
0
100
AcDbBlockBegin
  2
*PAPER_SPACE
  1

  0
ENDBLK
  5
1D
330
1B
100
AcDbEntity
 67
     1
  8
0
100
AcDbBlockEnd
  0
ENDSEC
  0
SECTION
  2
ENTITIES
  0
SPLINE
  5
100
100
AcDbEntity
  8
Layer_1
 62
7
100
AcDbSpline
 70
8
 71
3
 72
8
 73
4
 74
0
 40
0
 40
0
 40
0
 40
0
 40
1
 40
1
 40
1
 40
1
 10
185.462848
 20
624.313292
 30
0.0
 10
40.195026
 20
541.244500
 30
0.0
 10
135.910011
 20
442.366140
 30
0.0
 10
246.340264
 20
456.061316
 30
0.0
  0
SPLINE
  5
101
100
AcDbEntity
  8
Layer_1
 62
7
100
AcDbSpline
 70
8
 71
3
 72
8
 73
4
 74
0
 40
0
 40
0
 40
0
 40
0
 40
1
 40
1
 40
1
 40
1
 10
246.340264
 20
456.061316
 30
0.0
 10
382.165384
 20
440.290364
 30
0.0
 10
439.702752
 20
555.329308
 30
0.0
 10
333.364512
 20
616.929764
 30
0.0
  0
SPLINE
  5
102
100
AcDbEntity
  8
Layer_1
 62
7
100
AcDbSpline
 70
8
 71
3
 72
8
 73
4
 74
0
 40
0
 40
0
 40
0
 40
0
 40
1
 40
1
 40
1
 40
1
 10
333.364512
 20
616.929764
 30
0.0
 10
293.716624
 20
635.499884
 30
0.0
 10
264.919824
 20
633.232684
 30
0.0
 10
185.462848
 20
624.313292
 30
0.0
  0
LWPOLYLINE
  5
103
100
AcDbEntity
  8
Layer_1
 62
7
100
AcDbPolyline
 90
2
 70
0
 10
185.462848
 20
624.313292
 30
0.0
 10
185.462848
 20
624.313292
 30
0.0
  0
LWPOLYLINE
  5
104
100
AcDbEntity
  8
Layer_1
 62
7
100
AcDbPolyline
 90
4
 70
0
 10
152.056889
 20
595.838940
 30
0.0
 10
169.638976
 20
667.925428
 30
0.0
 10
203.044952
 20
610.783668
 30
0.0
 10
152.056889
 20
595.838940
 30
0.0
  0
SPLINE
  5
105
100
AcDbEntity
  8
Layer_1
 62
7
100
AcDbSpline
 70
8
 71
3
 72
8
 73
4
 74
0
 40
0
 40
0
 40
0
 40
0
 40
1
 40
1
 40
1
 40
1
 10
247.000192
 20
456.061316
 30
0.0
 10
247.000192
 20
456.061316
 30
0.0
 10
241.725576
 20
373.425316
 30
0.0
 10
230.297208
 20
365.513476
 30
0.0
  0
SPLINE
  5
106
100
AcDbEntity
  8
Layer_1
 62
7
100
AcDbSpline
 70
8
 71
3
 72
8
 73
4
 74
0
 40
0
 40
0
 40
0
 40
0
 40
1
 40
1
 40
1
 40
1
 10
230.297208
 20
365.513476
 30
0.0
 10
218.868848
 20
357.601492
 30
0.0
 10
288.318112
 20
342.656756
 30
0.0
 10
305.021104
 20
358.480716
 30
0.0
  0
SPLINE
  5
107
100
AcDbEntity
  8
Layer_1
 62
7
100
AcDbSpline
 70
8
 71
3
 72
8
 73
4
 74
0
 40
0
 40
0
 40
0
 40
0
 40
1
 40
1
 40
1
 40
1
 10
305.021104
 20
358.480716
 30
0.0
 10
335.675416
 20
384.607364
 30
0.0
 10
280.740696
 20
438.509836
 30
0.0
 10
274.252456
 20
458.698604
 30
0.0
  0
SPLINE
  5
108
100
AcDbEntity
  8
Layer_1
 62
7
100
AcDbSpline
 70
8
 71
3
 72
8
 73
4
 74
0
 40
0
 40
0
 40
0
 40
0
 40
1
 40
1
 40
1
 40
1
 10
274.252456
 20
458.698604
 30
0.0
 10
254.198872
 20
521.630612
 30
0.0
 10
247.000192
 20
456.061316
 30
0.0
 10
247.000192
 20
456.061316
 30
0.0
  0
LWPOLYLINE
  5
109
100
AcDbEntity
  8
Layer_1
 62
7
100
AcDbPolyline
 90
4
 70
0
 10
308.537512
 20
603.750916
 30
0.0
 10
342.822592
 20
666.167244
 30
0.0
 10
363.042000
 20
562.432980
 30
0.0
 10
308.537512
 20
603.750916
 30
0.0
  0
SPLINE
  5
10a
100
AcDbEntity
  8
Layer_1
 62
7
100
AcDbSpline
 70
8
 71
3
 72
8
 73
4
 74
0
 40
0
 40
0
 40
0
 40
0
 40
1
 40
1
 40
1
 40
1
 10
303.988504
 20
377.429764
 30
0.0
 10
303.988504
 20
377.429764
 30
0.0
 10
351.700080
 20
381.272444
 30
0.0
 10
368.846424
 20
415.857548
 30
0.0
  0
SPLINE
  5
10b
100
AcDbEntity
  8
Layer_1
 62
7
100
AcDbSpline
 70
8
 71
3
 72
8
 73
4
 74
0
 40
0
 40
0
 40
0
 40
0
 40
1
 40
1
 40
1
 40
1
 10
368.846424
 20
415.857548
 30
0.0
 10
385.992784
 20
450.442780
 30
0.0
 10
375.555872
 20
478.110852
 30
0.0
 10
379.283344
 20
488.870700
 30
0.0
  0
SPLINE
  5
10c
100
AcDbEntity
  8
Layer_1
 62
7
100
AcDbSpline
 70
8
 71
3
 72
8
 73
4
 74
0
 40
0
 40
0
 40
0
 40
0
 40
1
 40
1
 40
1
 40
1
 10
379.283344
 20
488.870700
 30
0.0
 10
383.010824
 20
499.630428
 30
0.0
 10
400.902640
 20
542.669700
 30
0.0
 10
444.141296
 20
518.075876
 30
0.0
  0
SPLINE
  5
10d
100
AcDbEntity
  8
Layer_1
 62
7
100
AcDbSpline
 70
8
 71
3
 72
8
 73
4
 74
0
 40
0
 40
0
 40
0
 40
0
 40
1
 40
1
 40
1
 40
1
 10
444.141296
 20
518.075876
 30
0.0
 10
487.379904
 20
493.482068
 30
0.0
 10
483.652464
 20
457.359828
 30
0.0
 10
464.269632
 20
448.137100
 30
0.0
  0
SPLINE
  5
10e
100
AcDbEntity
  8
Layer_1
 62
7
100
AcDbSpline
 70
8
 71
3
 72
8
 73
4
 74
0
 40
0
 40
0
 40
0
 40
0
 40
1
 40
1
 40
1
 40
1
 10
464.269632
 20
448.137100
 30
0.0
 10
444.886792
 20
438.914372
 30
0.0
 10
410.899560
 20
440.097684
 30
0.0
 10
432.958880
 20
448.137100
 30
0.0
  0
SPLINE
  5
10f
100
AcDbEntity
  8
Layer_1
 62
7
100
AcDbSpline
 70
8
 71
3
 72
8
 73
4
 74
0
 40
0
 40
0
 40
0
 40
0
 40
1
 40
1
 40
1
 40
1
 10
432.958880
 20
448.137100
 30
0.0
 10
454.255952
 20
455.898796
 30
0.0
 10
481.574008
 20
469.529492
 30
0.0
 10
450.850728
 20
496.556308
 30
0.0
  0
SPLINE
  5
110
100
AcDbEntity
  8
Layer_1
 62
7
100
AcDbSpline
 70
8
 71
3
 72
8
 73
4
 74
0
 40
0
 40
0
 40
0
 40
0
 40
1
 40
1
 40
1
 40
1
 10
450.850728
 20
496.556308
 30
0.0
 10
427.198408
 20
517.362844
 30
0.0
 10
418.034800
 20
517.551476
 30
0.0
 10
399.411680
 20
501.167548
 30
0.0
  0
SPLINE
  5
111
100
AcDbEntity
  8
Layer_1
 62
7
100
AcDbSpline
 70
8
 71
3
 72
8
 73
4
 74
0
 40
0
 40
0
 40
0
 40
0
 40
1
 40
1
 40
1
 40
1
 10
399.411680
 20
501.167548
 30
0.0
 10
376.920736
 20
481.380668
 30
0.0
 10
411.039496
 20
432.170196
 30
0.0
 10
368.100936
 20
393.569412
 30
0.0
  0
SPLINE
  5
112
100
AcDbEntity
  8
Layer_1
 62
7
100
AcDbSpline
 70
8
 71
3
 72
8
 73
4
 74
0
 40
0
 40
0
 40
0
 40
0
 40
1
 40
1
 40
1
 40
1
 10
368.100936
 20
393.569412
 30
0.0
 10
328.447048
 20
357.921484
 30
0.0
 10
302.497560
 20
369.744156
 30
0.0
 10
302.497512
 20
369.744156
 30
0.0
  0
LWPOLYLINE
  5
113
100
AcDbEntity
  8
Layer_1
 62
7
100
AcDbPolyline
 90
2
 70
0
 10
247.000192
 20
456.061316
 30
0.0
 10
247.000192
 20
456.061316
 30
0.0
  0
SPLINE
  5
114
100
AcDbEntity
  8
Layer_1
 62
1
100
AcDbSpline
 70
8
 71
3
 72
8
 73
4
 74
0
 40
0
 40
0
 40
0
 40
0
 40
1
 40
1
 40
1
 40
1
 10
269.758983
 20
548.552554
 30
0.0
 10
284.401436
 20
567.027277
 30
0.0
 10
316.304261
 20
631.857331
 30
0.0
 10
370.950477
 20
546.322738
 30
0.0
  0
SPLINE
  5
115
100
AcDbEntity
  8
Layer_1
 62
1
100
AcDbSpline
 70
8
 71
3
 72
8
 73
4
 74
0
 40
0
 40
0
 40
0
 40
0
 40
1
 40
1
 40
1
 40
1
 10
370.950477
 20
546.322738
 30
0.0
 10
355.294321
 20
524.482149
 30
0.0
 10
342.057429
 20
513.038294
 30
0.0
 10
322.764065
 20
507.674786
 30
0.0
  0
SPLINE
  5
116
100
AcDbEntity
  8
Layer_1
 62
1
100
AcDbSpline
 70
8
 71
3
 72
8
 73
4
 74
0
 40
0
 40
0
 40
0
 40
0
 40
1
 40
1
 40
1
 40
1
 10
322.764065
 20
507.674786
 30
0.0
 10
324.376942
 20
513.501291
 30
0.0
 10
290.041347
 20
508.029444
 30
0.0
 10
269.758983
 20
548.552554
 30
0.0
  0
LWPOLYLINE
  5
117
100
AcDbEntity
  8
Layer_1
 62
7
100
AcDbPolyline
 90
2
 70
0
 10
302.497512
 20
369.744156
 30
0.0
 10
303.988504
 20
377.429764
 30
0.0
  0
SPLINE
  5
118
100
AcDbEntity
  8
Layer_1
 62
7
100
AcDbSpline
 70
8
 71
3
 72
8
 73
4
 74
0
 40
0
 40
0
 40
0
 40
0
 40
1
 40
1
 40
1
 40
1
 10
346.086081
 20
551.017978
 30
0.0
 10
346.086081
 20
529.684671
 30
0.0
 10
334.100098
 20
512.390544
 30
0.0
 10
319.314629
 20
512.390544
 30
0.0
  0
SPLINE
  5
119
100
AcDbEntity
  8
Layer_1
 62
7
100
AcDbSpline
 70
8
 71
3
 72
8
 73
4
 74
0
 40
0
 40
0
 40
0
 40
0
 40
1
 40
1
 40
1
 40
1
 10
319.314629
 20
512.390544
 30
0.0
 10
304.529168
 20
512.390544
 30
0.0
 10
292.543185
 20
529.684671
 30
0.0
 10
292.543185
 20
551.017978
 30
0.0
  0
SPLINE
  5
11a
100
AcDbEntity
  8
Layer_1
 62
7
100
AcDbSpline
 70
8
 71
3
 72
8
 73
4
 74
0
 40
0
 40
0
 40
0
 40
0
 40
1
 40
1
 40
1
 40
1
 10
292.543185
 20
551.017978
 30
0.0
 10
292.543185
 20
572.351285
 30
0.0
 10
304.529168
 20
589.645411
 30
0.0
 10
319.314629
 20
589.645411
 30
0.0
  0
SPLINE
  5
11b
100
AcDbEntity
  8
Layer_1
 62
7
100
AcDbSpline
 70
8
 71
3
 72
8
 73
4
 74
0
 40
0
 40
0
 40
0
 40
0
 40
1
 40
1
 40
1
 40
1
 10
319.314629
 20
589.645411
 30
0.0
 10
334.100098
 20
589.645411
 30
0.0
 10
346.086081
 20
572.351285
 30
0.0
 10
346.086081
 20
551.017978
 30
0.0
  0
LWPOLYLINE
  5
11c
100
AcDbEntity
  8
Layer_1
 62
1
100
AcDbPolyline
 90
2
 70
0
 10
269.758983
 20
548.552554
 30
0.0
 10
269.758983
 20
548.552554
 30
0.0
  0
SPLINE
  5
11d
100
AcDbEntity
  8
Layer_1
 62
1
100
AcDbSpline
 70
8
 71
3
 72
8
 73
4
 74
0
 40
0
 40
0
 40
0
 40
0
 40
1
 40
1
 40
1
 40
1
 10
131.873159
 20
548.552554
 30
0.0
 10
146.515612
 20
567.027277
 30
0.0
 10
178.418437
 20
631.857331
 30
0.0
 10
233.064653
 20
546.322738
 30
0.0
  0
SPLINE
  5
11e
100
AcDbEntity
  8
Layer_1
 62
1
100
AcDbSpline
 70
8
 71
3
 72
8
 73
4
 74
0
 40
0
 40
0
 40
0
 40
0
 40
1
 40
1
 40
1
 40
1
 10
233.064653
 20
546.322738
 30
0.0
 10
217.408497
 20
524.482149
 30
0.0
 10
204.171605
 20
513.038294
 30
0.0
 10
184.878241
 20
507.674786
 30
0.0
  0
SPLINE
  5
11f
100
AcDbEntity
  8
Layer_1
 62
1
100
AcDbSpline
 70
8
 71
3
 72
8
 73
4
 74
0
 40
0
 40
0
 40
0
 40
0
 40
1
 40
1
 40
1
 40
1
 10
184.878241
 20
507.674786
 30
0.0
 10
186.491118
 20
513.501291
 30
0.0
 10
152.155523
 20
508.029444
 30
0.0
 10
131.873159
 20
548.552554
 30
0.0
  0
LWPOLYLINE
  5
120
100
AcDbEntity
  8
Layer_1
 62
7
100
AcDbPolyline
 90
2
 70
0
 10
346.086081
 20
551.017978
 30
0.0
 10
346.086081
 20
551.017978
 30
0.0
  0
SPLINE
  5
121
100
AcDbEntity
  8
Layer_1
 62
7
100
AcDbSpline
 70
8
 71
3
 72
8
 73
4
 74
0
 40
0
 40
0
 40
0
 40
0
 40
1
 40
1
 40
1
 40
1
 10
208.200257
 20
551.017978
 30
0.0
 10
208.200257
 20
529.684671
 30
0.0
 10
196.214274
 20
512.390544
 30
0.0
 10
181.428805
 20
512.390544
 30
0.0
  0
SPLINE
  5
122
100
AcDbEntity
  8
Layer_1
 62
7
100
AcDbSpline
 70
8
 71
3
 72
8
 73
4
 74
0
 40
0
 40
0
 40
0
 40
0
 40
1
 40
1
 40
1
 40
1
 10
181.428805
 20
512.390544
 30
0.0
 10
166.643344
 20
512.390544
 30
0.0
 10
154.657361
 20
529.684671
 30
0.0
 10
154.657361
 20
551.017978
 30
0.0
  0
SPLINE
  5
123
100
AcDbEntity
  8
Layer_1
 62
7
100
AcDbSpline
 70
8
 71
3
 72
8
 73
4
 74
0
 40
0
 40
0
 40
0
 40
0
 40
1
 40
1
 40
1
 40
1
 10
154.657361
 20
551.017978
 30
0.0
 10
154.657361
 20
572.351285
 30
0.0
 10
166.643344
 20
589.645411
 30
0.0
 10
181.428805
 20
589.645411
 30
0.0
  0
SPLINE
  5
124
100
AcDbEntity
  8
Layer_1
 62
7
100
AcDbSpline
 70
8
 71
3
 72
8
 73
4
 74
0
 40
0
 40
0
 40
0
 40
0
 40
1
 40
1
 40
1
 40
1
 10
181.428805
 20
589.645411
 30
0.0
 10
196.214274
 20
589.645411
 30
0.0
 10
208.200257
 20
572.351285
 30
0.0
 10
208.200257
 20
551.017978
 30
0.0
  0
LWPOLYLINE
  5
125
100
AcDbEntity
  8
Layer_1
 62
1
100
AcDbPolyline
 90
2
 70
0
 10
131.873159
 20
548.552554
 30
0.0
 10
131.873159
 20
548.552554
 30
0.0
  0
SPLINE
  5
126
100
AcDbEntity
  8
Layer_1
 62
7
100
AcDbSpline
 70
8
 71
3
 72
8
 73
4
 74
0
 40
0
 40
0
 40
0
 40
0
 40
1
 40
1
 40
1
 40
1
 10
183.103784
 20
507.182956
 30
0.0
 10
184.624720
 20
507.705044
 30
0.0
 10
186.261672
 20
507.724716
 30
0.0
 10
187.793472
 20
508.168564
 30
0.0
  0
SPLINE
  5
127
100
AcDbEntity
  8
Layer_1
 62
7
100
AcDbSpline
 70
8
 71
3
 72
8
 73
4
 74
0
 40
0
 40
0
 40
0
 40
0
 40
1
 40
1
 40
1
 40
1
 10
187.793472
 20
508.168564
 30
0.0
 10
188.968584
 20
508.557268
 30
0.0
 10
190.194688
 20
508.682100
 30
0.0
 10
191.422920
 20
508.748860
 30
0.0
  0
SPLINE
  5
128
100
AcDbEntity
  8
Layer_1
 62
7
100
AcDbSpline
 70
8
 71
3
 72
8
 73
4
 74
0
 40
0
 40
0
 40
0
 40
0
 40
1
 40
1
 40
1
 40
1
 10
191.422920
 20
508.748860
 30
0.0
 10
191.625520
 20
508.755260
 30
0.0
 10
191.828120
 20
508.762300
 30
0.0
 10
192.030728
 20
508.769020
 30
0.0
  0
LWPOLYLINE
  5
129
100
AcDbEntity
  8
Layer_1
 62
7
100
AcDbPolyline
 90
2
 70
0
 10
208.200257
 20
551.017978
 30
0.0
 10
208.200257
 20
551.017978
 30
0.0
  0
SPLINE
  5
12a
100
AcDbEntity
  8
Layer_1
 62
7
100
AcDbSpline
 70
8
 71
3
 72
8
 73
4
 74
0
 40
0
 40
0
 40
0
 40
0
 40
1
 40
1
 40
1
 40
1
 10
184.569120
 20
503.289924
 30
0.0
 10
184.371104
 20
503.276324
 30
0.0
 10
184.173080
 20
503.262724
 30
0.0
 10
183.975064
 20
503.249124
 30
0.0
  0
SPLINE
  5
12b
100
AcDbEntity
  8
Layer_1
 62
7
100
AcDbSpline
 70
8
 71
3
 72
8
 73
4
 74
0
 40
0
 40
0
 40
0
 40
0
 40
1
 40
1
 40
1
 40
1
 10
183.975064
 20
503.249124
 30
0.0
 10
182.778208
 20
503.127708
 30
0.0
 10
181.608472
 20
502.885924
 30
0.0
 10
180.447160
 20
502.571708
 30
0.0
  0
SPLINE
  5
12c
100
AcDbEntity
  8
Layer_1
 62
7
100
AcDbSpline
 70
8
 71
3
 72
8
 73
4
 74
0
 40
0
 40
0
 40
0
 40
0
 40
1
 40
1
 40
1
 40
1
 10
180.447160
 20
502.571708
 30
0.0
 10
178.870752
 20
502.295412
 30
0.0
 10
177.280264
 20
502.053844
 30
0.0
 10
175.773536
 20
501.488108
 30
0.0
  0
LWPOLYLINE
  5
12d
100
AcDbEntity
  8
Layer_1
 62
7
100
AcDbPolyline
 90
3
 70
0
 10
192.030728
 20
508.769020
 30
0.0
 10
184.569120
 20
503.289924
 30
0.0
 10
184.569120
 20
503.289924
 30
0.0
  0
SPLINE
  5
12e
100
AcDbEntity
  8
Layer_1
 62
7
100
AcDbSpline
 70
8
 71
3
 72
8
 73
4
 74
0
 40
0
 40
0
 40
0
 40
0
 40
1
 40
1
 40
1
 40
1
 10
186.349784
 20
508.913540
 30
0.0
 10
188.026768
 20
508.976420
 30
0.0
 10
189.637808
 20
509.345092
 30
0.0
 10
191.270000
 20
509.688868
 30
0.0
  0
SPLINE
  5
12f
100
AcDbEntity
  8
Layer_1
 62
7
100
AcDbSpline
 70
8
 71
3
 72
8
 73
4
 74
0
 40
0
 40
0
 40
0
 40
0
 40
1
 40
1
 40
1
 40
1
 10
191.270000
 20
509.688868
 30
0.0
 10
192.317896
 20
510.228100
 30
0.0
 10
193.439048
 20
510.464484
 30
0.0
 10
194.600144
 20
510.581948
 30
0.0
  0
SPLINE
  5
130
100
AcDbEntity
  8
Layer_1
 62
7
100
AcDbSpline
 70
8
 71
3
 72
8
 73
4
 74
0
 40
0
 40
0
 40
0
 40
0
 40
1
 40
1
 40
1
 40
1
 10
194.600144
 20
510.581948
 30
0.0
 10
195.612360
 20
510.699108
 30
0.0
 10
196.791216
 20
510.455596
 30
0.0
 10
197.657328
 20
511.110140
 30
0.0
  0
SPLINE
  5
131
100
AcDbEntity
  8
Layer_1
 62
7
100
AcDbSpline
 70
8
 71
3
 72
8
 73
4
 74
0
 40
0
 40
0
 40
0
 40
0
 40
1
 40
1
 40
1
 40
1
 10
197.657328
 20
511.110140
 30
0.0
 10
198.171432
 20
511.080140
 30
0.0
 10
198.789096
 20
510.113564
 30
0.0
 10
198.268624
 20
509.805324
 30
0.0
  0
SPLINE
  5
132
100
AcDbEntity
  8
Layer_1
 62
7
100
AcDbSpline
 70
8
 71
3
 72
8
 73
4
 74
0
 40
0
 40
0
 40
0
 40
0
 40
1
 40
1
 40
1
 40
1
 10
198.268624
 20
509.805324
 30
0.0
 10
193.346200
 20
506.890148
 30
0.0
 10
192.702496
 20
505.524812
 30
0.0
 10
189.052048
 20
504.828476
 30
0.0
  0
SPLINE
  5
133
100
AcDbEntity
  8
Layer_1
 62
7
100
AcDbSpline
 70
8
 71
3
 72
8
 73
4
 74
0
 40
0
 40
0
 40
0
 40
0
 40
1
 40
1
 40
1
 40
1
 10
189.052048
 20
504.828476
 30
0.0
 10
187.845088
 20
504.633908
 30
0.0
 10
186.620008
 20
504.611524
 30
0.0
 10
185.400352
 20
504.591948
 30
0.0
  0
SPLINE
  5
134
100
AcDbEntity
  8
Layer_1
 62
7
100
AcDbSpline
 70
8
 71
3
 72
8
 73
4
 74
0
 40
0
 40
0
 40
0
 40
0
 40
1
 40
1
 40
1
 40
1
 10
185.400352
 20
504.591948
 30
0.0
 10
184.179056
 20
504.501620
 30
0.0
 10
182.914912
 20
504.751404
 30
0.0
 10
181.719688
 20
504.458884
 30
0.0
  0
SPLINE
  5
135
100
AcDbEntity
  8
Layer_1
 62
7
100
AcDbSpline
 70
8
 71
3
 72
8
 73
4
 74
0
 40
0
 40
0
 40
0
 40
0
 40
1
 40
1
 40
1
 40
1
 10
181.719688
 20
504.458884
 30
0.0
 10
180.648688
 20
504.151500
 30
0.0
 10
179.538088
 20
504.064772
 30
0.0
 10
178.430968
 20
504.006900
 30
0.0
  0
SPLINE
  5
136
100
AcDbEntity
  8
Layer_1
 62
7
100
AcDbSpline
 70
8
 71
3
 72
8
 73
4
 74
0
 40
0
 40
0
 40
0
 40
0
 40
1
 40
1
 40
1
 40
1
 10
178.430968
 20
504.006900
 30
0.0
 10
177.624784
 20
503.903284
 30
0.0
 10
176.790288
 20
504.058580
 30
0.0
 10
175.986120
 20
503.963140
 30
0.0
  0
SPLINE
  5
137
100
AcDbEntity
  8
Layer_1
 62
7
100
AcDbSpline
 70
8
 71
3
 72
8
 73
4
 74
0
 40
0
 40
0
 40
0
 40
0
 40
1
 40
1
 40
1
 40
1
 10
175.986120
 20
503.963140
 30
0.0
 10
175.637272
 20
503.921700
 30
0.0
 10
175.305032
 20
503.790596
 30
0.0
 10
174.964256
 20
503.705268
 30
0.0
  0
SPLINE
  5
138
100
AcDbEntity
  8
Layer_1
 62
7
100
AcDbSpline
 70
8
 71
3
 72
8
 73
4
 74
0
 40
0
 40
0
 40
0
 40
0
 40
1
 40
1
 40
1
 40
1
 10
174.964256
 20
503.705268
 30
0.0
 10
173.896968
 20
503.380996
 30
0.0
 10
172.746464
 20
503.557052
 30
0.0
 10
171.692544
 20
503.227228
 30
0.0
  0
SPLINE
  5
139
100
AcDbEntity
  8
Layer_1
 62
7
100
AcDbSpline
 70
8
 71
3
 72
8
 73
4
 74
0
 40
0
 40
0
 40
0
 40
0
 40
1
 40
1
 40
1
 40
1
 10
171.692544
 20
503.227228
 30
0.0
 10
170.683552
 20
502.822228
 30
0.0
 10
169.557800
 20
502.968164
 30
0.0
 10
168.548696
 20
502.616828
 30
0.0
  0
SPLINE
  5
13a
100
AcDbEntity
  8
Layer_1
 62
7
100
AcDbSpline
 70
8
 71
3
 72
8
 73
4
 74
0
 40
0
 40
0
 40
0
 40
0
 40
1
 40
1
 40
1
 40
1
 10
168.548696
 20
502.616828
 30
0.0
 10
167.506880
 20
502.256316
 30
0.0
 10
166.403786
 20
502.182820
 30
0.0
 10
165.311898
 20
502.126284
 30
0.0
  0
SPLINE
  5
13b
100
AcDbEntity
  8
Layer_1
 62
7
100
AcDbSpline
 70
8
 71
3
 72
8
 73
4
 74
0
 40
0
 40
0
 40
0
 40
0
 40
1
 40
1
 40
1
 40
1
 10
165.311898
 20
502.126284
 30
0.0
 10
164.537122
 20
502.101084
 30
0.0
 10
164.903474
 20
502.162044
 30
0.0
 10
164.209770
 20
501.963108
 30
0.0
  0
LWPOLYLINE
  5
13c
100
AcDbEntity
  8
Layer_1
 62
7
100
AcDbPolyline
 90
3
 70
0
 10
175.773536
 20
501.488108
 30
0.0
 10
183.103784
 20
507.182948
 30
0.0
 10
183.103784
 20
507.182956
 30
0.0
  0
SPLINE
  5
13d
100
AcDbEntity
  8
Layer_1
 62
7
100
AcDbSpline
 70
8
 71
3
 72
8
 73
4
 74
0
 40
0
 40
0
 40
0
 40
0
 40
1
 40
1
 40
1
 40
1
 10
171.612384
 20
507.541956
 30
0.0
 10
172.369808
 20
507.601556
 30
0.0
 10
171.986360
 20
507.573396
 30
0.0
 10
172.762744
 20
507.626292
 30
0.0
  0
SPLINE
  5
13e
100
AcDbEntity
  8
Layer_1
 62
7
100
AcDbSpline
 70
8
 71
3
 72
8
 73
4
 74
0
 40
0
 40
0
 40
0
 40
0
 40
1
 40
1
 40
1
 40
1
 10
172.762744
 20
507.626292
 30
0.0
 10
173.836800
 20
507.734316
 30
0.0
 10
174.885488
 20
507.942220
 30
0.0
 10
175.924280
 20
508.237404
 30
0.0
  0
SPLINE
  5
13f
100
AcDbEntity
  8
Layer_1
 62
7
100
AcDbSpline
 70
8
 71
3
 72
8
 73
4
 74
0
 40
0
 40
0
 40
0
 40
0
 40
1
 40
1
 40
1
 40
1
 10
175.924280
 20
508.237404
 30
0.0
 10
176.989680
 20
508.375956
 30
0.0
 10
178.041504
 20
508.560700
 30
0.0
 10
179.084032
 20
508.823428
 30
0.0
  0
SPLINE
  5
140
100
AcDbEntity
  8
Layer_1
 62
7
100
AcDbSpline
 70
8
 71
3
 72
8
 73
4
 74
0
 40
0
 40
0
 40
0
 40
0
 40
1
 40
1
 40
1
 40
1
 10
179.084032
 20
508.823428
 30
0.0
 10
180.182096
 20
508.932300
 30
0.0
 10
181.279832
 20
509.040556
 30
0.0
 10
182.355000
 20
509.302628
 30
0.0
  0
SPLINE
  5
141
100
AcDbEntity
  8
Layer_1
 62
7
100
AcDbSpline
 70
8
 71
3
 72
8
 73
4
 74
0
 40
0
 40
0
 40
0
 40
0
 40
1
 40
1
 40
1
 40
1
 10
182.355000
 20
509.302628
 30
0.0
 10
183.522576
 20
509.483428
 30
0.0
 10
184.708016
 20
509.390028
 30
0.0
 10
185.883072
 20
509.504852
 30
0.0
  0
SPLINE
  5
142
100
AcDbEntity
  8
Layer_1
 62
7
100
AcDbSpline
 70
8
 71
3
 72
8
 73
4
 74
0
 40
0
 40
0
 40
0
 40
0
 40
1
 40
1
 40
1
 40
1
 10
185.883072
 20
509.504852
 30
0.0
 10
186.981120
 20
509.608828
 30
0.0
 10
188.057344
 20
509.817700
 30
0.0
 10
189.143032
 20
510.004116
 30
0.0
  0
SPLINE
  5
143
100
AcDbEntity
  8
Layer_1
 62
7
100
AcDbSpline
 70
8
 71
3
 72
8
 73
4
 74
0
 40
0
 40
0
 40
0
 40
0
 40
1
 40
1
 40
1
 40
1
 10
189.143032
 20
510.004116
 30
0.0
 10
190.385088
 20
510.046196
 30
0.0
 10
191.628464
 20
510.007316
 30
0.0
 10
192.870744
 20
510.049556
 30
0.0
  0
SPLINE
  5
144
100
AcDbEntity
  8
Layer_1
 62
7
100
AcDbSpline
 70
8
 71
3
 72
8
 73
4
 74
0
 40
0
 40
0
 40
0
 40
0
 40
1
 40
1
 40
1
 40
1
 10
192.870744
 20
510.049556
 30
0.0
 10
194.058176
 20
510.093156
 30
0.0
 10
195.260456
 20
510.141972
 30
0.0
 10
196.407664
 20
510.480868
 30
0.0
  0
SPLINE
  5
145
100
AcDbEntity
  8
Layer_1
 62
7
100
AcDbSpline
 70
8
 71
3
 72
8
 73
4
 74
0
 40
0
 40
0
 40
0
 40
0
 40
1
 40
1
 40
1
 40
1
 10
196.407664
 20
510.480868
 30
0.0
 10
199.310528
 20
511.548604
 30
0.0
 10
204.185320
 20
515.061852
 30
0.0
 10
189.583992
 20
506.387164
 30
0.0
  0
SPLINE
  5
146
100
AcDbEntity
  8
Layer_1
 62
7
100
AcDbSpline
 70
8
 71
3
 72
8
 73
4
 74
0
 40
0
 40
0
 40
0
 40
0
 40
1
 40
1
 40
1
 40
1
 10
189.583992
 20
506.387164
 30
0.0
 10
189.527112
 20
506.353404
 30
0.0
 10
189.738144
 20
506.461644
 30
0.0
 10
189.781008
 20
506.411244
 30
0.0
  0
SPLINE
  5
147
100
AcDbEntity
  8
Layer_1
 62
7
100
AcDbSpline
 70
8
 71
3
 72
8
 73
4
 74
0
 40
0
 40
0
 40
0
 40
0
 40
1
 40
1
 40
1
 40
1
 10
189.781008
 20
506.411244
 30
0.0
 10
190.489056
 20
505.578780
 30
0.0
 10
190.547960
 20
505.767948
 30
0.0
 10
190.336176
 20
505.343916
 30
0.0
  0
SPLINE
  5
148
100
AcDbEntity
  8
Layer_1
 62
7
100
AcDbSpline
 70
8
 71
3
 72
8
 73
4
 74
0
 40
0
 40
0
 40
0
 40
0
 40
1
 40
1
 40
1
 40
1
 10
190.336176
 20
505.343916
 30
0.0
 10
189.287096
 20
505.205356
 30
0.0
 10
188.233224
 20
505.161156
 30
0.0
 10
187.183352
 20
505.030500
 30
0.0
  0
SPLINE
  5
149
100
AcDbEntity
  8
Layer_1
 62
7
100
AcDbSpline
 70
8
 71
3
 72
8
 73
4
 74
0
 40
0
 40
0
 40
0
 40
0
 40
1
 40
1
 40
1
 40
1
 10
187.183352
 20
505.030500
 30
0.0
 10
186.060576
 20
504.820036
 30
0.0
 10
185.016512
 20
504.390436
 30
0.0
 10
183.913456
 20
504.108548
 30
0.0
  0
SPLINE
  5
14a
100
AcDbEntity
  8
Layer_1
 62
7
100
AcDbSpline
 70
8
 71
3
 72
8
 73
4
 74
0
 40
0
 40
0
 40
0
 40
0
 40
1
 40
1
 40
1
 40
1
 10
183.913456
 20
504.108548
 30
0.0
 10
182.262784
 20
503.765364
 30
0.0
 10
180.595984
 20
503.588116
 30
0.0
 10
178.927056
 20
503.357964
 30
0.0
  0
LWPOLYLINE
  5
14b
100
AcDbEntity
  8
Layer_1
 62
7
100
AcDbPolyline
 90
3
 70
0
 10
164.209770
 20
501.963108
 30
0.0
 10
171.612384
 20
507.541956
 30
0.0
 10
171.612384
 20
507.541956
 30
0.0
  0
SPLINE
  5
14c
100
AcDbEntity
  8
Layer_1
 62
7
100
AcDbSpline
 70
8
 71
3
 72
8
 73
4
 74
0
 40
0
 40
0
 40
0
 40
0
 40
1
 40
1
 40
1
 40
1
 10
321.127176
 20
509.298580
 30
0.0
 10
322.008264
 20
509.300980
 30
0.0
 10
322.877560
 20
509.299348
 30
0.0
 10
323.750600
 20
509.177444
 30
0.0
  0
SPLINE
  5
14d
100
AcDbEntity
  8
Layer_1
 62
7
100
AcDbSpline
 70
8
 71
3
 72
8
 73
4
 74
0
 40
0
 40
0
 40
0
 40
0
 40
1
 40
1
 40
1
 40
1
 10
323.750600
 20
509.177444
 30
0.0
 10
324.433584
 20
509.067508
 30
0.0
 10
325.123000
 20
509.018124
 30
0.0
 10
325.813624
 20
508.994196
 30
0.0
  0
SPLINE
  5
14e
100
AcDbEntity
  8
Layer_1
 62
7
100
AcDbSpline
 70
8
 71
3
 72
8
 73
4
 74
0
 40
0
 40
0
 40
0
 40
0
 40
1
 40
1
 40
1
 40
1
 10
325.813624
 20
508.994196
 30
0.0
 10
326.445208
 20
508.916516
 30
0.0
 10
327.043496
 20
509.047556
 30
0.0
 10
327.660168
 20
509.153260
 30
0.0
  0
SPLINE
  5
14f
100
AcDbEntity
  8
Layer_1
 62
7
100
AcDbSpline
 70
8
 71
3
 72
8
 73
4
 74
0
 40
0
 40
0
 40
0
 40
0
 40
1
 40
1
 40
1
 40
1
 10
327.660168
 20
509.153260
 30
0.0
 10
328.263888
 20
509.293124
 30
0.0
 10
328.903120
 20
509.191580
 30
0.0
 10
329.497096
 20
509.356036
 30
0.0
  0
SPLINE
  5
150
100
AcDbEntity
  8
Layer_1
 62
7
100
AcDbSpline
 70
8
 71
3
 72
8
 73
4
 74
0
 40
0
 40
0
 40
0
 40
0
 40
1
 40
1
 40
1
 40
1
 10
329.497096
 20
509.356036
 30
0.0
 10
330.024752
 20
509.542284
 30
0.0
 10
330.593608
 20
509.504884
 30
0.0
 10
331.126656
 20
509.650284
 30
0.0
  0
SPLINE
  5
151
100
AcDbEntity
  8
Layer_1
 62
7
100
AcDbSpline
 70
8
 71
3
 72
8
 73
4
 74
0
 40
0
 40
0
 40
0
 40
0
 40
1
 40
1
 40
1
 40
1
 10
331.126656
 20
509.650284
 30
0.0
 10
331.732072
 20
509.814404
 30
0.0
 10
332.357096
 20
509.868068
 30
0.0
 10
332.980992
 20
509.901068
 30
0.0
  0
SPLINE
  5
152
100
AcDbEntity
  8
Layer_1
 62
7
100
AcDbSpline
 70
8
 71
3
 72
8
 73
4
 74
0
 40
0
 40
0
 40
0
 40
0
 40
1
 40
1
 40
1
 40
1
 10
332.980992
 20
509.901068
 30
0.0
 10
333.576656
 20
509.852428
 30
0.0
 10
334.126712
 20
509.987628
 30
0.0
 10
334.701496
 20
510.105020
 30
0.0
  0
SPLINE
  5
153
100
AcDbEntity
  8
Layer_1
 62
7
100
AcDbSpline
 70
8
 71
3
 72
8
 73
4
 74
0
 40
0
 40
0
 40
0
 40
0
 40
1
 40
1
 40
1
 40
1
 10
334.701496
 20
510.105020
 30
0.0
 10
335.285672
 20
510.141500
 30
0.0
 10
335.841176
 20
510.292348
 30
0.0
 10
336.412920
 20
510.402844
 30
0.0
  0
SPLINE
  5
154
100
AcDbEntity
  8
Layer_1
 62
7
100
AcDbSpline
 70
8
 71
3
 72
8
 73
4
 74
0
 40
0
 40
0
 40
0
 40
0
 40
1
 40
1
 40
1
 40
1
 10
336.412920
 20
510.402844
 30
0.0
 10
337.032328
 20
510.438444
 30
0.0
 10
337.616896
 20
510.604620
 30
0.0
 10
338.223128
 20
510.715132
 30
0.0
  0
SPLINE
  5
155
100
AcDbEntity
  8
Layer_1
 62
7
100
AcDbSpline
 70
8
 71
3
 72
8
 73
4
 74
0
 40
0
 40
0
 40
0
 40
0
 40
1
 40
1
 40
1
 40
1
 10
338.223128
 20
510.715132
 30
0.0
 10
338.536792
 20
510.700972
 30
0.0
 10
339.230856
 20
511.027492
 30
0.0
 10
339.475640
 20
510.688252
 30
0.0
  0
SPLINE
  5
156
100
AcDbEntity
  8
Layer_1
 62
7
100
AcDbSpline
 70
8
 71
3
 72
8
 73
4
 74
0
 40
0
 40
0
 40
0
 40
0
 40
1
 40
1
 40
1
 40
1
 10
339.475640
 20
510.688252
 30
0.0
 10
339.542440
 20
510.595620
 30
0.0
 10
339.576880
 20
510.483452
 30
0.0
 10
339.627496
 20
510.381060
 30
0.0
  0
SPLINE
  5
157
100
AcDbEntity
  8
Layer_1
 62
7
100
AcDbSpline
 70
8
 71
3
 72
8
 73
4
 74
0
 40
0
 40
0
 40
0
 40
0
 40
1
 40
1
 40
1
 40
1
 10
339.627496
 20
510.381060
 30
0.0
 10
328.668160
 20
503.818012
 30
0.0
 10
339.588296
 20
510.129500
 30
0.0
 10
339.490968
 20
510.074020
 30
0.0
  0
SPLINE
  5
158
100
AcDbEntity
  8
Layer_1
 62
7
100
AcDbSpline
 70
8
 71
3
 72
8
 73
4
 74
0
 40
0
 40
0
 40
0
 40
0
 40
1
 40
1
 40
1
 40
1
 10
339.490968
 20
510.074020
 30
0.0
 10
337.152760
 20
508.740748
 30
0.0
 10
336.571360
 20
507.818804
 30
0.0
 10
334.625832
 20
507.574644
 30
0.0
  0
SPLINE
  5
159
100
AcDbEntity
  8
Layer_1
 62
7
100
AcDbSpline
 70
8
 71
3
 72
8
 73
4
 74
0
 40
0
 40
0
 40
0
 40
0
 40
1
 40
1
 40
1
 40
1
 10
334.625832
 20
507.574644
 30
0.0
 10
333.961560
 20
507.511524
 30
0.0
 10
333.292880
 20
507.517684
 30
0.0
 10
332.626248
 20
507.513524
 30
0.0
  0
SPLINE
  5
15a
100
AcDbEntity
  8
Layer_1
 62
7
100
AcDbSpline
 70
8
 71
3
 72
8
 73
4
 74
0
 40
0
 40
0
 40
0
 40
0
 40
1
 40
1
 40
1
 40
1
 10
332.626248
 20
507.513524
 30
0.0
 10
331.957048
 20
507.511124
 30
0.0
 10
331.287848
 20
507.512724
 30
0.0
 10
330.618640
 20
507.512980
 30
0.0
  0
SPLINE
  5
15b
100
AcDbEntity
  8
Layer_1
 62
7
100
AcDbSpline
 70
8
 71
3
 72
8
 73
4
 74
0
 40
0
 40
0
 40
0
 40
0
 40
1
 40
1
 40
1
 40
1
 10
330.618640
 20
507.512980
 30
0.0
 10
330.105296
 20
507.470180
 30
0.0
 10
329.511128
 20
507.408724
 30
0.0
 10
329.037512
 20
507.188948
 30
0.0
  0
SPLINE
  5
15c
100
AcDbEntity
  8
Layer_1
 62
7
100
AcDbSpline
 70
8
 71
3
 72
8
 73
4
 74
0
 40
0
 40
0
 40
0
 40
0
 40
1
 40
1
 40
1
 40
1
 10
329.037512
 20
507.188948
 30
0.0
 10
328.539576
 20
506.974396
 30
0.0
 10
327.995840
 20
506.937916
 30
0.0
 10
327.461544
 20
506.906980
 30
0.0
  0
SPLINE
  5
15d
100
AcDbEntity
  8
Layer_1
 62
7
100
AcDbSpline
 70
8
 71
3
 72
8
 73
4
 74
0
 40
0
 40
0
 40
0
 40
0
 40
1
 40
1
 40
1
 40
1
 10
327.461544
 20
506.906980
 30
0.0
 10
326.846744
 20
506.881380
 30
0.0
 10
326.231200
 20
506.884580
 30
0.0
 10
325.616000
 20
506.885220
 30
0.0
  0
SPLINE
  5
15e
100
AcDbEntity
  8
Layer_1
 62
7
100
AcDbSpline
 70
8
 71
3
 72
8
 73
4
 74
0
 40
0
 40
0
 40
0
 40
0
 40
1
 40
1
 40
1
 40
1
 10
325.616000
 20
506.885220
 30
0.0
 10
324.990032
 20
506.886820
 30
0.0
 10
324.364072
 20
506.887620
 30
0.0
 10
323.738104
 20
506.888420
 30
0.0
  0
SPLINE
  5
15f
100
AcDbEntity
  8
Layer_1
 62
7
100
AcDbSpline
 70
8
 71
3
 72
8
 73
4
 74
0
 40
0
 40
0
 40
0
 40
0
 40
1
 40
1
 40
1
 40
1
 10
323.738104
 20
506.888420
 30
0.0
 10
323.212936
 20
506.732156
 30
0.0
 10
322.674952
 20
506.654740
 30
0.0
 10
322.130288
 20
506.612188
 30
0.0
  0
SPLINE
  5
160
100
AcDbEntity
  8
Layer_1
 62
7
100
AcDbSpline
 70
8
 71
3
 72
8
 73
4
 74
0
 40
0
 40
0
 40
0
 40
0
 40
1
 40
1
 40
1
 40
1
 10
322.130288
 20
506.612188
 30
0.0
 10
321.521608
 20
506.575148
 30
0.0
 10
320.911480
 20
506.575308
 30
0.0
 10
320.301912
 20
506.573948
 30
0.0
  0
SPLINE
  5
161
100
AcDbEntity
  8
Layer_1
 62
7
100
AcDbSpline
 70
8
 71
3
 72
8
 73
4
 74
0
 40
0
 40
0
 40
0
 40
0
 40
1
 40
1
 40
1
 40
1
 10
320.301912
 20
506.573948
 30
0.0
 10
319.676544
 20
506.573772
 30
0.0
 10
319.051176
 20
506.574748
 30
0.0
 10
318.425800
 20
506.575548
 30
0.0
  0
SPLINE
  5
162
100
AcDbEntity
  8
Layer_1
 62
7
100
AcDbSpline
 70
8
 71
3
 72
8
 73
4
 74
0
 40
0
 40
0
 40
0
 40
0
 40
1
 40
1
 40
1
 40
1
 10
318.425800
 20
506.575548
 30
0.0
 10
317.800528
 20
506.576132
 30
0.0
 10
317.175256
 20
506.576220
 30
0.0
 10
316.549984
 20
506.576284
 30
0.0
  0
SPLINE
  5
163
100
AcDbEntity
  8
Layer_1
 62
7
100
AcDbSpline
 70
8
 71
3
 72
8
 73
4
 74
0
 40
0
 40
0
 40
0
 40
0
 40
1
 40
1
 40
1
 40
1
 10
316.549984
 20
506.576284
 30
0.0
 10
315.924968
 20
506.576324
 30
0.0
 10
315.299960
 20
506.576308
 30
0.0
 10
314.674944
 20
506.576300
 30
0.0
  0
SPLINE
  5
164
100
AcDbEntity
  8
Layer_1
 62
7
100
AcDbSpline
 70
8
 71
3
 72
8
 73
4
 74
0
 40
0
 40
0
 40
0
 40
0
 40
1
 40
1
 40
1
 40
1
 10
314.674944
 20
506.576300
 30
0.0
 10
314.049952
 20
506.576292
 30
0.0
 10
313.424952
 20
506.576292
 30
0.0
 10
312.799960
 20
506.576292
 30
0.0
  0
SPLINE
  5
165
100
AcDbEntity
  8
Layer_1
 62
7
100
AcDbSpline
 70
8
 71
3
 72
8
 73
4
 74
0
 40
0
 40
0
 40
0
 40
0
 40
1
 40
1
 40
1
 40
1
 10
312.799960
 20
506.576292
 30
0.0
 10
312.174960
 20
506.576292
 30
0.0
 10
311.549960
 20
506.576292
 30
0.0
 10
310.924960
 20
506.576292
 30
0.0
  0
SPLINE
  5
166
100
AcDbEntity
  8
Layer_1
 62
7
100
AcDbSpline
 70
8
 71
3
 72
8
 73
4
 74
0
 40
0
 40
0
 40
0
 40
0
 40
1
 40
1
 40
1
 40
1
 10
310.924960
 20
506.576292
 30
0.0
 10
310.167208
 20
506.581092
 30
0.0
 10
309.454952
 20
506.890284
 30
0.0
 10
308.714568
 20
507.035732
 30
0.0
  0
SPLINE
  5
167
100
AcDbEntity
  8
Layer_1
 62
7
100
AcDbSpline
 70
8
 71
3
 72
8
 73
4
 74
0
 40
0
 40
0
 40
0
 40
0
 40
1
 40
1
 40
1
 40
1
 10
308.714568
 20
507.035732
 30
0.0
 10
307.868712
 20
507.146452
 30
0.0
 10
307.033040
 20
507.313484
 30
0.0
 10
306.185688
 20
507.416236
 30
0.0
  0
SPLINE
  5
168
100
AcDbEntity
  8
Layer_1
 62
7
100
AcDbSpline
 70
8
 71
3
 72
8
 73
4
 74
0
 40
0
 40
0
 40
0
 40
0
 40
1
 40
1
 40
1
 40
1
 10
306.185688
 20
507.416236
 30
0.0
 10
305.258640
 20
507.632396
 30
0.0
 10
304.313376
 20
507.755084
 30
0.0
 10
303.373320
 20
507.900644
 30
0.0
  0
SPLINE
  5
169
100
AcDbEntity
  8
Layer_1
 62
7
100
AcDbSpline
 70
8
 71
3
 72
8
 73
4
 74
0
 40
0
 40
0
 40
0
 40
0
 40
1
 40
1
 40
1
 40
1
 10
303.373320
 20
507.900644
 30
0.0
 10
302.401904
 20
508.017788
 30
0.0
 10
301.431512
 20
508.065740
 30
0.0
 10
300.492504
 20
508.356716
 30
0.0
  0
SPLINE
  5
16a
100
AcDbEntity
  8
Layer_1
 62
7
100
AcDbSpline
 70
8
 71
3
 72
8
 73
4
 74
0
 40
0
 40
0
 40
0
 40
0
 40
1
 40
1
 40
1
 40
1
 10
300.492504
 20
508.356716
 30
0.0
 10
299.695344
 20
508.621876
 30
0.0
 10
298.854672
 20
508.691172
 30
0.0
 10
298.021512
 20
508.741436
 30
0.0
  0
SPLINE
  5
16b
100
AcDbEntity
  8
Layer_1
 62
7
100
AcDbSpline
 70
8
 71
3
 72
8
 73
4
 74
0
 40
0
 40
0
 40
0
 40
0
 40
1
 40
1
 40
1
 40
1
 10
298.021512
 20
508.741436
 30
0.0
 10
297.321112
 20
508.855188
 30
0.0
 10
296.662496
 20
509.114748
 30
0.0
 10
295.967864
 20
509.256220
 30
0.0
  0
SPLINE
  5
16c
100
AcDbEntity
  8
Layer_1
 62
7
100
AcDbSpline
 70
8
 71
3
 72
8
 73
4
 74
0
 40
0
 40
0
 40
0
 40
0
 40
1
 40
1
 40
1
 40
1
 10
295.967864
 20
509.256220
 30
0.0
 10
295.334728
 20
509.369828
 30
0.0
 10
294.690384
 20
509.382700
 30
0.0
 10
294.049064
 20
509.391580
 30
0.0
  0
SPLINE
  5
16d
100
AcDbEntity
  8
Layer_1
 62
7
100
AcDbSpline
 70
8
 71
3
 72
8
 73
4
 74
0
 40
0
 40
0
 40
0
 40
0
 40
1
 40
1
 40
1
 40
1
 10
294.049064
 20
509.391580
 30
0.0
 10
293.412656
 20
509.396380
 30
0.0
 10
292.776248
 20
509.390780
 30
0.0
 10
292.139840
 20
509.393180
 30
0.0
  0
SPLINE
  5
16e
100
AcDbEntity
  8
Layer_1
 62
7
100
AcDbSpline
 70
8
 71
3
 72
8
 73
4
 74
0
 40
0
 40
0
 40
0
 40
0
 40
1
 40
1
 40
1
 40
1
 10
292.139840
 20
509.393180
 30
0.0
 10
292.007432
 20
509.393972
 30
0.0
 10
291.875024
 20
509.394780
 30
0.0
 10
291.742616
 20
509.395580
 30
0.0
  0
LWPOLYLINE
  5
16f
100
AcDbEntity
  8
Layer_1
 62
7
100
AcDbPolyline
 90
3
 70
0
 10
178.927056
 20
503.357964
 30
0.0
 10
186.349784
 20
508.913500
 30
0.0
 10
186.349784
 20
508.913540
 30
0.0
  0
SPLINE
  5
170
100
AcDbEntity
  8
Layer_1
 62
7
100
AcDbSpline
 70
8
 71
3
 72
8
 73
4
 74
0
 40
0
 40
0
 40
0
 40
0
 40
1
 40
1
 40
1
 40
1
 10
295.470880
 20
512.105276
 30
0.0
 10
295.605976
 20
512.106876
 30
0.0
 10
295.741072
 20
512.107676
 30
0.0
 10
295.876176
 20
512.109276
 30
0.0
  0
SPLINE
  5
171
100
AcDbEntity
  8
Layer_1
 62
7
100
AcDbSpline
 70
8
 71
3
 72
8
 73
4
 74
0
 40
0
 40
0
 40
0
 40
0
 40
1
 40
1
 40
1
 40
1
 10
295.876176
 20
512.109276
 30
0.0
 10
296.516688
 20
512.114076
 30
0.0
 10
297.157376
 20
512.115676
 30
0.0
 10
297.797792
 20
512.102076
 30
0.0
  0
SPLINE
  5
172
100
AcDbEntity
  8
Layer_1
 62
7
100
AcDbSpline
 70
8
 71
3
 72
8
 73
4
 74
0
 40
0
 40
0
 40
0
 40
0
 40
1
 40
1
 40
1
 40
1
 10
297.797792
 20
512.102076
 30
0.0
 10
298.457536
 20
512.079676
 30
0.0
 10
299.119344
 20
512.040316
 30
0.0
 10
299.764272
 20
511.888572
 30
0.0
  0
SPLINE
  5
173
100
AcDbEntity
  8
Layer_1
 62
7
100
AcDbSpline
 70
8
 71
3
 72
8
 73
4
 74
0
 40
0
 40
0
 40
0
 40
0
 40
1
 40
1
 40
1
 40
1
 10
299.764272
 20
511.888572
 30
0.0
 10
300.430560
 20
511.724532
 30
0.0
 10
301.081824
 20
511.486900
 30
0.0
 10
301.768944
 20
511.421692
 30
0.0
  0
SPLINE
  5
174
100
AcDbEntity
  8
Layer_1
 62
7
100
AcDbSpline
 70
8
 71
3
 72
8
 73
4
 74
0
 40
0
 40
0
 40
0
 40
0
 40
1
 40
1
 40
1
 40
1
 10
301.768944
 20
511.421692
 30
0.0
 10
302.622888
 20
511.344092
 30
0.0
 10
303.476480
 20
511.233676
 30
0.0
 10
304.294608
 20
510.964580
 30
0.0
  0
SPLINE
  5
175
100
AcDbEntity
  8
Layer_1
 62
7
100
AcDbSpline
 70
8
 71
3
 72
8
 73
4
 74
0
 40
0
 40
0
 40
0
 40
0
 40
1
 40
1
 40
1
 40
1
 10
304.294608
 20
510.964580
 30
0.0
 10
305.222488
 20
510.735420
 30
0.0
 10
306.170112
 20
510.661796
 30
0.0
 10
307.115632
 20
510.534180
 30
0.0
  0
SPLINE
  5
176
100
AcDbEntity
  8
Layer_1
 62
7
100
AcDbSpline
 70
8
 71
3
 72
8
 73
4
 74
0
 40
0
 40
0
 40
0
 40
0
 40
1
 40
1
 40
1
 40
1
 10
307.115632
 20
510.534180
 30
0.0
 10
308.060848
 20
510.390876
 30
0.0
 10
309.009280
 20
510.269692
 30
0.0
 10
309.945608
 20
510.073284
 30
0.0
  0
SPLINE
  5
177
100
AcDbEntity
  8
Layer_1
 62
7
100
AcDbSpline
 70
8
 71
3
 72
8
 73
4
 74
0
 40
0
 40
0
 40
0
 40
0
 40
1
 40
1
 40
1
 40
1
 10
309.945608
 20
510.073284
 30
0.0
 10
310.797896
 20
509.949844
 30
0.0
 10
311.648992
 20
509.813644
 30
0.0
 10
312.497248
 20
509.666108
 30
0.0
  0
SPLINE
  5
178
100
AcDbEntity
  8
Layer_1
 62
7
100
AcDbSpline
 70
8
 71
3
 72
8
 73
4
 74
0
 40
0
 40
0
 40
0
 40
0
 40
1
 40
1
 40
1
 40
1
 10
312.497248
 20
509.666108
 30
0.0
 10
313.215376
 20
509.504204
 30
0.0
 10
313.920256
 20
509.243044
 30
0.0
 10
314.667736
 20
509.296156
 30
0.0
  0
SPLINE
  5
179
100
AcDbEntity
  8
Layer_1
 62
7
100
AcDbSpline
 70
8
 71
3
 72
8
 73
4
 74
0
 40
0
 40
0
 40
0
 40
0
 40
1
 40
1
 40
1
 40
1
 10
314.667736
 20
509.296156
 30
0.0
 10
315.292736
 20
509.296156
 30
0.0
 10
315.917736
 20
509.296156
 30
0.0
 10
316.542736
 20
509.296164
 30
0.0
  0
SPLINE
  5
17a
100
AcDbEntity
  8
Layer_1
 62
7
100
AcDbSpline
 70
8
 71
3
 72
8
 73
4
 74
0
 40
0
 40
0
 40
0
 40
0
 40
1
 40
1
 40
1
 40
1
 10
316.542736
 20
509.296164
 30
0.0
 10
317.167728
 20
509.296164
 30
0.0
 10
317.792728
 20
509.296164
 30
0.0
 10
318.417720
 20
509.296172
 30
0.0
  0
SPLINE
  5
17b
100
AcDbEntity
  8
Layer_1
 62
7
100
AcDbSpline
 70
8
 71
3
 72
8
 73
4
 74
0
 40
0
 40
0
 40
0
 40
0
 40
1
 40
1
 40
1
 40
1
 10
318.417720
 20
509.296172
 30
0.0
 10
319.042744
 20
509.296172
 30
0.0
 10
319.667768
 20
509.296188
 30
0.0
 10
320.292792
 20
509.296084
 30
0.0
  0
SPLINE
  5
17c
100
AcDbEntity
  8
Layer_1
 62
7
100
AcDbSpline
 70
8
 71
3
 72
8
 73
4
 74
0
 40
0
 40
0
 40
0
 40
0
 40
1
 40
1
 40
1
 40
1
 10
320.292792
 20
509.296084
 30
0.0
 10
320.918136
 20
509.295948
 30
0.0
 10
321.543480
 20
509.295716
 30
0.0
 10
322.168824
 20
509.295284
 30
0.0
  0
SPLINE
  5
17d
100
AcDbEntity
  8
Layer_1
 62
7
100
AcDbSpline
 70
8
 71
3
 72
8
 73
4
 74
0
 40
0
 40
0
 40
0
 40
0
 40
1
 40
1
 40
1
 40
1
 10
322.168824
 20
509.295284
 30
0.0
 10
322.793664
 20
509.294564
 30
0.0
 10
323.418520
 20
509.292884
 30
0.0
 10
324.043352
 20
509.296084
 30
0.0
  0
SPLINE
  5
17e
100
AcDbEntity
  8
Layer_1
 62
7
100
AcDbSpline
 70
8
 71
3
 72
8
 73
4
 74
0
 40
0
 40
0
 40
0
 40
0
 40
1
 40
1
 40
1
 40
1
 10
324.043352
 20
509.296084
 30
0.0
 10
324.645792
 20
509.301684
 30
0.0
 10
325.249608
 20
509.307764
 30
0.0
 10
325.849128
 20
509.373684
 30
0.0
  0
SPLINE
  5
17f
100
AcDbEntity
  8
Layer_1
 62
7
100
AcDbSpline
 70
8
 71
3
 72
8
 73
4
 74
0
 40
0
 40
0
 40
0
 40
0
 40
1
 40
1
 40
1
 40
1
 10
325.849128
 20
509.373684
 30
0.0
 10
326.394832
 20
509.444724
 30
0.0
 10
326.929840
 20
509.594772
 30
0.0
 10
327.481144
 20
509.607628
 30
0.0
  0
SPLINE
  5
180
100
AcDbEntity
  8
Layer_1
 62
7
100
AcDbSpline
 70
8
 71
3
 72
8
 73
4
 74
0
 40
0
 40
0
 40
0
 40
0
 40
1
 40
1
 40
1
 40
1
 10
327.481144
 20
509.607628
 30
0.0
 10
328.106920
 20
509.606828
 30
0.0
 10
328.732704
 20
509.605228
 30
0.0
 10
329.358488
 20
509.605228
 30
0.0
  0
SPLINE
  5
181
100
AcDbEntity
  8
Layer_1
 62
7
100
AcDbSpline
 70
8
 71
3
 72
8
 73
4
 74
0
 40
0
 40
0
 40
0
 40
0
 40
1
 40
1
 40
1
 40
1
 10
329.358488
 20
509.605228
 30
0.0
 10
329.967328
 20
509.607628
 30
0.0
 10
330.577408
 20
509.606828
 30
0.0
 10
331.184312
 20
509.661708
 30
0.0
  0
SPLINE
  5
182
100
AcDbEntity
  8
Layer_1
 62
7
100
AcDbSpline
 70
8
 71
3
 72
8
 73
4
 74
0
 40
0
 40
0
 40
0
 40
0
 40
1
 40
1
 40
1
 40
1
 10
331.184312
 20
509.661708
 30
0.0
 10
331.707272
 20
509.723228
 30
0.0
 10
332.212200
 20
509.840004
 30
0.0
 10
332.704424
 20
510.030404
 30
0.0
  0
SPLINE
  5
183
100
AcDbEntity
  8
Layer_1
 62
7
100
AcDbSpline
 70
8
 71
3
 72
8
 73
4
 74
0
 40
0
 40
0
 40
0
 40
0
 40
1
 40
1
 40
1
 40
1
 10
332.704424
 20
510.030404
 30
0.0
 10
333.252288
 20
510.136756
 30
0.0
 10
333.797416
 20
510.272620
 30
0.0
 10
334.360752
 20
510.230996
 30
0.0
  0
SPLINE
  5
184
100
AcDbEntity
  8
Layer_1
 62
7
100
AcDbSpline
 70
8
 71
3
 72
8
 73
4
 74
0
 40
0
 40
0
 40
0
 40
0
 40
1
 40
1
 40
1
 40
1
 10
334.360752
 20
510.230996
 30
0.0
 10
335.026808
 20
510.229396
 30
0.0
 10
335.692880
 20
510.226196
 30
0.0
 10
336.358928
 20
510.231300
 30
0.0
  0
SPLINE
  5
185
100
AcDbEntity
  8
Layer_1
 62
7
100
AcDbSpline
 70
8
 71
3
 72
8
 73
4
 74
0
 40
0
 40
0
 40
0
 40
0
 40
1
 40
1
 40
1
 40
1
 10
336.358928
 20
510.231300
 30
0.0
 10
337.015664
 20
510.240260
 30
0.0
 10
337.678376
 20
510.241700
 30
0.0
 10
338.325160
 20
510.369884
 30
0.0
  0
SPLINE
  5
186
100
AcDbEntity
  8
Layer_1
 62
7
100
AcDbSpline
 70
8
 71
3
 72
8
 73
4
 74
0
 40
0
 40
0
 40
0
 40
0
 40
1
 40
1
 40
1
 40
1
 10
338.325160
 20
510.369884
 30
0.0
 10
338.526120
 20
510.421804
 30
0.0
 10
338.602792
 20
510.432684
 30
0.0
 10
338.790272
 20
510.514412
 30
0.0
  0
SPLINE
  5
187
100
AcDbEntity
  8
Layer_1
 62
7
100
AcDbSpline
 70
8
 71
3
 72
8
 73
4
 74
0
 40
0
 40
0
 40
0
 40
0
 40
1
 40
1
 40
1
 40
1
 10
338.790272
 20
510.514412
 30
0.0
 10
338.853552
 20
510.542012
 30
0.0
 10
339.034192
 20
510.643788
 30
0.0
 10
338.974480
 20
510.609124
 30
0.0
  0
SPLINE
  5
188
100
AcDbEntity
  8
Layer_1
 62
7
100
AcDbSpline
 70
8
 71
3
 72
8
 73
4
 74
0
 40
0
 40
0
 40
0
 40
0
 40
1
 40
1
 40
1
 40
1
 10
338.974480
 20
510.609124
 30
0.0
 10
337.699184
 20
509.868764
 30
0.0
 10
333.832984
 20
507.720708
 30
0.0
 10
335.143288
 20
508.397188
 30
0.0
  0
SPLINE
  5
189
100
AcDbEntity
  8
Layer_1
 62
7
100
AcDbSpline
 70
8
 71
3
 72
8
 73
4
 74
0
 40
0
 40
0
 40
0
 40
0
 40
1
 40
1
 40
1
 40
1
 10
335.143288
 20
508.397188
 30
0.0
 10
338.013768
 20
509.879132
 30
0.0
 10
343.060448
 20
513.174748
 30
0.0
 10
335.428416
 20
508.317068
 30
0.0
  0
SPLINE
  5
18a
100
AcDbEntity
  8
Layer_1
 62
7
100
AcDbSpline
 70
8
 71
3
 72
8
 73
4
 74
0
 40
0
 40
0
 40
0
 40
0
 40
1
 40
1
 40
1
 40
1
 10
335.428416
 20
508.317068
 30
0.0
 10
335.483216
 20
508.243308
 30
0.0
 10
335.550320
 20
508.177364
 30
0.0
 10
335.592712
 20
508.095892
 30
0.0
  0
SPLINE
  5
18b
100
AcDbEntity
  8
Layer_1
 62
7
100
AcDbSpline
 70
8
 71
3
 72
8
 73
4
 74
0
 40
0
 40
0
 40
0
 40
0
 40
1
 40
1
 40
1
 40
1
 10
335.592712
 20
508.095892
 30
0.0
 10
335.621912
 20
508.039812
 30
0.0
 10
335.469672
 20
508.065412
 30
0.0
 10
335.406920
 20
508.057732
 30
0.0
  0
SPLINE
  5
18c
100
AcDbEntity
  8
Layer_1
 62
7
100
AcDbSpline
 70
8
 71
3
 72
8
 73
4
 74
0
 40
0
 40
0
 40
0
 40
0
 40
1
 40
1
 40
1
 40
1
 10
335.406920
 20
508.057732
 30
0.0
 10
335.115088
 20
508.022052
 30
0.0
 10
334.822808
 20
507.988372
 30
0.0
 10
334.535472
 20
507.923492
 30
0.0
  0
SPLINE
  5
18d
100
AcDbEntity
  8
Layer_1
 62
7
100
AcDbSpline
 70
8
 71
3
 72
8
 73
4
 74
0
 40
0
 40
0
 40
0
 40
0
 40
1
 40
1
 40
1
 40
1
 10
334.535472
 20
507.923492
 30
0.0
 10
333.934872
 20
507.793164
 30
0.0
 10
333.330536
 20
507.713988
 30
0.0
 10
332.725400
 20
507.608124
 30
0.0
  0
SPLINE
  5
18e
100
AcDbEntity
  8
Layer_1
 62
7
100
AcDbSpline
 70
8
 71
3
 72
8
 73
4
 74
0
 40
0
 40
0
 40
0
 40
0
 40
1
 40
1
 40
1
 40
1
 10
332.725400
 20
507.608124
 30
0.0
 10
332.155312
 20
507.484204
 30
0.0
 10
331.580240
 20
507.410716
 30
0.0
 10
331.006800
 20
507.305708
 30
0.0
  0
SPLINE
  5
18f
100
AcDbEntity
  8
Layer_1
 62
7
100
AcDbSpline
 70
8
 71
3
 72
8
 73
4
 74
0
 40
0
 40
0
 40
0
 40
0
 40
1
 40
1
 40
1
 40
1
 10
331.006800
 20
507.305708
 30
0.0
 10
330.427880
 20
507.188076
 30
0.0
 10
329.846432
 20
507.182460
 30
0.0
 10
329.257544
 20
507.155564
 30
0.0
  0
SPLINE
  5
190
100
AcDbEntity
  8
Layer_1
 62
7
100
AcDbSpline
 70
8
 71
3
 72
8
 73
4
 74
0
 40
0
 40
0
 40
0
 40
0
 40
1
 40
1
 40
1
 40
1
 10
329.257544
 20
507.155564
 30
0.0
 10
328.642848
 20
507.100684
 30
0.0
 10
328.036552
 20
507.000092
 30
0.0
 10
327.436280
 20
506.855420
 30
0.0
  0
SPLINE
  5
191
100
AcDbEntity
  8
Layer_1
 62
7
100
AcDbSpline
 70
8
 71
3
 72
8
 73
4
 74
0
 40
0
 40
0
 40
0
 40
0
 40
1
 40
1
 40
1
 40
1
 10
327.436280
 20
506.855420
 30
0.0
 10
326.885408
 20
506.779900
 30
0.0
 10
326.338976
 20
506.690868
 30
0.0
 10
325.796144
 20
506.569372
 30
0.0
  0
SPLINE
  5
192
100
AcDbEntity
  8
Layer_1
 62
7
100
AcDbSpline
 70
8
 71
3
 72
8
 73
4
 74
0
 40
0
 40
0
 40
0
 40
0
 40
1
 40
1
 40
1
 40
1
 10
325.796144
 20
506.569372
 30
0.0
 10
325.183568
 20
506.521052
 30
0.0
 10
324.568424
 20
506.491052
 30
0.0
 10
323.963760
 20
506.372548
 30
0.0
  0
SPLINE
  5
193
100
AcDbEntity
  8
Layer_1
 62
7
100
AcDbSpline
 70
8
 71
3
 72
8
 73
4
 74
0
 40
0
 40
0
 40
0
 40
0
 40
1
 40
1
 40
1
 40
1
 10
323.963760
 20
506.372548
 30
0.0
 10
323.330912
 20
506.268124
 30
0.0
 10
322.700080
 20
506.238628
 30
0.0
 10
322.059296
 20
506.293428
 30
0.0
  0
SPLINE
  5
194
100
AcDbEntity
  8
Layer_1
 62
7
100
AcDbSpline
 70
8
 71
3
 72
8
 73
4
 74
0
 40
0
 40
0
 40
0
 40
0
 40
1
 40
1
 40
1
 40
1
 10
322.059296
 20
506.293428
 30
0.0
 10
321.365720
 20
506.334228
 30
0.0
 10
320.676056
 20
506.411052
 30
0.0
 10
319.989256
 20
506.516796
 30
0.0
  0
SPLINE
  5
195
100
AcDbEntity
  8
Layer_1
 62
7
100
AcDbSpline
 70
8
 71
3
 72
8
 73
4
 74
0
 40
0
 40
0
 40
0
 40
0
 40
1
 40
1
 40
1
 40
1
 10
319.989256
 20
506.516796
 30
0.0
 10
319.121216
 20
506.615716
 30
0.0
 10
318.248656
 20
506.589196
 30
0.0
 10
317.376344
 20
506.573596
 30
0.0
  0
LWPOLYLINE
  5
196
100
AcDbEntity
  8
Layer_1
 62
7
100
AcDbPolyline
 90
3
 70
0
 10
291.742616
 20
509.395580
 30
0.0
 10
295.470880
 20
512.105276
 30
0.0
 10
295.470880
 20
512.105276
 30
0.0
  0
LWPOLYLINE
  5
197
100
AcDbEntity
  8
Layer_1
 62
7
100
AcDbPolyline
 90
3
 70
0
 10
317.376344
 20
506.573596
 30
0.0
 10
321.127176
 20
509.298732
 30
0.0
 10
321.127176
 20
509.298580
 30
0.0
  0
ENDSEC
  0
SECTION
  2
OBJECTS
  0
DICTIONARY
  5
C
330
0
100
AcDbDictionary
  3
ACAD_GROUP
350
D
  3
ACAD_MLINESTYLE
350
17
  0
DICTIONARY
  5
D
330
C
100
AcDbDictionary
  0
DICTIONARY
  5
1A
330
C
100
AcDbDictionary
  0
DICTIONARY
  5
17
330
C
100
AcDbDictionary
  3
STANDARD
350
18
  0
DICTIONARY
  5
19
330
C
100
AcDbDictionary
  0
ENDSEC
  0
EOF
