  0
SECTION
  2
HEADER
  9
$ACADVER
  1
AC1009
  9
$EXTMIN
  10
 0.000000
  20
 0.000000
  30
 0.000000
  9
$EXTMAX
  10
 574.000000
  20
 453.000000
  30
 0.000000
  0
ENDSEC
  0
SECTION
  2
TABLES
  0
TABLE
  2
LAYER
  70
     2048
  0
LAYER
  2
0
  70
    0
  62
     7
  6
CONTINUOUS
  0
LAYER
   2
C7
  70
     64
  62
7
  6
CONTINUOUS
  0
LAYER
   2
C18
  70
     64
  62
18
  6
CONTINUOUS
  0
ENDTAB
  0
ENDSEC
  0
SECTION
  2
ENTITIES
  0
POLYLINE
  8
C7
  66
1
  10
0.000000
  20
453.000000
  0
VERTEX
  8
C7
  10
0.000000
  20
453.000000
  0
SEQEND
  8
C7
  0
POLYLINE
  8
C7
  66
1
  10
0.000000
  20
453.000000
  0
VERTEX
  8
C7
  10
0.000000
  20
453.000000
  0
VERTEX
  8
C7
  10
0.000000
  20
0.000000
  0
VERTEX
  8
C7
  10
574.000000
  20
0.000000
  0
VERTEX
  8
C7
  10
574.000000
  20
453.000000
  0
VERTEX
  8
C7
  10
0.000000
  20
453.000000
  0
SEQEND
  8
C7
  0
POLYLINE
  8
C7
  66
1
  10
274.000000
  20
141.000000
  0
VERTEX
  8
C7
  10
274.000000
  20
141.000000
  0
VERTEX
  8
C7
  10
273.338900
  20
140.289100
  0
VERTEX
  8
C7
  10
272.668000
  20
139.593500
  0
VERTEX
  8
C7
  10
271.987400
  20
138.912800
  0
VERTEX
  8
C7
  10
271.297300
  20
138.246400
  0
VERTEX
  8
C7
  10
270.598000
  20
137.594200
  0
VERTEX
  8
C7
  10
269.889800
  20
136.955600
  0
VERTEX
  8
C7
  10
269.172800
  20
136.330400
  0
VERTEX
  8
C7
  10
268.447300
  20
135.718200
  0
VERTEX
  8
C7
  10
267.713600
  20
135.118500
  0
VERTEX
  8
C7
  10
266.971900
  20
134.531000
  0
VERTEX
  8
C7
  10
266.222400
  20
133.955300
  0
VERTEX
  8
C7
  10
265.465300
  20
133.391000
  0
VERTEX
  8
C7
  10
264.701000
  20
132.837900
  0
VERTEX
  8
C7
  10
263.929700
  20
132.295400
  0
VERTEX
  8
C7
  10
263.151500
  20
131.763300
  0
VERTEX
  8
C7
  10
262.366800
  20
131.241100
  0
VERTEX
  8
C7
  10
261.575700
  20
130.728500
  0
VERTEX
  8
C7
  10
260.778600
  20
130.225100
  0
VERTEX
  8
C7
  10
259.975600
  20
129.730500
  0
VERTEX
  8
C7
  10
259.167000
  20
129.244300
  0
VERTEX
  8
C7
  10
258.353000
  20
128.766300
  0
VERTEX
  8
C7
  10
257.533900
  20
128.295900
  0
VERTEX
  8
C7
  10
256.709900
  20
127.832800
  0
VERTEX
  8
C7
  10
255.881300
  20
127.376700
  0
VERTEX
  8
C7
  10
255.048200
  20
126.927100
  0
VERTEX
  8
C7
  10
254.211000
  20
126.483800
  0
VERTEX
  8
C7
  10
253.369900
  20
126.046200
  0
VERTEX
  8
C7
  10
252.525100
  20
125.614100
  0
VERTEX
  8
C7
  10
251.676900
  20
125.187100
  0
VERTEX
  8
C7
  10
250.825400
  20
124.764800
  0
VERTEX
  8
C7
  10
249.971000
  20
124.346800
  0
VERTEX
  8
C7
  10
249.113800
  20
123.932700
  0
VERTEX
  8
C7
  10
248.254200
  20
123.522200
  0
VERTEX
  8
C7
  10
247.392300
  20
123.114900
  0
VERTEX
  8
C7
  10
246.528400
  20
122.710400
  0
VERTEX
  8
C7
  10
245.662800
  20
122.308300
  0
VERTEX
  8
C7
  10
244.795600
  20
121.908300
  0
VERTEX
  8
C7
  10
243.927100
  20
121.510000
  0
VERTEX
  8
C7
  10
243.057600
  20
121.113000
  0
VERTEX
  8
C7
  10
242.187300
  20
120.717000
  0
VERTEX
  8
C7
  10
241.316500
  20
120.321500
  0
VERTEX
  8
C7
  10
240.445300
  20
119.926200
  0
VERTEX
  8
C7
  10
239.574000
  20
119.530700
  0
VERTEX
  8
C7
  10
238.702900
  20
119.134700
  0
VERTEX
  8
C7
  10
237.832200
  20
118.737700
  0
VERTEX
  8
C7
  10
236.962100
  20
118.339400
  0
VERTEX
  8
C7
  10
236.092900
  20
117.939400
  0
VERTEX
  8
C7
  10
235.224800
  20
117.537300
  0
VERTEX
  8
C7
  10
234.358100
  20
117.132900
  0
VERTEX
  8
C7
  10
233.493000
  20
116.725600
  0
VERTEX
  8
C7
  10
232.629700
  20
116.315100
  0
VERTEX
  8
C7
  10
231.768500
  20
115.901000
  0
VERTEX
  8
C7
  10
230.909600
  20
115.483000
  0
VERTEX
  8
C7
  10
230.053300
  20
115.060700
  0
VERTEX
  8
C7
  10
229.199700
  20
114.633700
  0
VERTEX
  8
C7
  10
228.349200
  20
114.201700
  0
VERTEX
  8
C7
  10
227.502000
  20
113.764200
  0
VERTEX
  8
C7
  10
226.658300
  20
113.320900
  0
VERTEX
  8
C7
  10
225.818400
  20
112.871400
  0
VERTEX
  8
C7
  10
224.982500
  20
112.415300
  0
VERTEX
  8
C7
  10
224.150800
  20
111.952300
  0
VERTEX
  8
C7
  10
223.323600
  20
111.481900
  0
VERTEX
  8
C7
  10
222.501100
  20
111.003900
  0
VERTEX
  8
C7
  10
221.683600
  20
110.517800
  0
VERTEX
  8
C7
  10
220.871200
  20
110.023300
  0
VERTEX
  8
C7
  10
220.064300
  20
109.519900
  0
VERTEX
  8
C7
  10
219.263100
  20
109.007300
  0
VERTEX
  8
C7
  10
218.467900
  20
108.485200
  0
VERTEX
  8
C7
  10
217.678700
  20
107.953200
  0
VERTEX
  8
C7
  10
216.896000
  20
107.410800
  0
VERTEX
  8
C7
  10
216.119900
  20
106.857700
  0
VERTEX
  8
C7
  10
215.350700
  20
106.293500
  0
VERTEX
  8
C7
  10
214.588700
  20
105.717900
  0
VERTEX
  8
C7
  10
213.834000
  20
105.130500
  0
VERTEX
  8
C7
  10
213.086900
  20
104.530900
  0
VERTEX
  8
C7
  10
212.347600
  20
103.918700
  0
VERTEX
  8
C7
  10
211.616400
  20
103.293600
  0
VERTEX
  8
C7
  10
210.893500
  20
102.655100
  0
VERTEX
  8
C7
  10
210.179300
  20
102.003000
  0
VERTEX
  8
C7
  10
209.473800
  20
101.336700
  0
VERTEX
  8
C7
  10
208.777300
  20
100.656100
  0
VERTEX
  8
C7
  10
208.090200
  20
99.960600
  0
VERTEX
  8
C7
  10
207.378400
  20
99.215700
  0
VERTEX
  8
C7
  10
206.685500
  20
98.466800
  0
VERTEX
  8
C7
  10
206.011200
  20
97.714200
  0
VERTEX
  8
C7
  10
205.355600
  20
96.958000
  0
VERTEX
  8
C7
  10
204.718600
  20
96.198300
  0
VERTEX
  8
C7
  10
204.100300
  20
95.435300
  0
VERTEX
  8
C7
  10
203.500600
  20
94.669300
  0
VERTEX
  8
C7
  10
202.919500
  20
93.900200
  0
VERTEX
  8
C7
  10
202.357000
  20
93.128300
  0
VERTEX
  8
C7
  10
201.813000
  20
92.353900
  0
VERTEX
  8
C7
  10
201.287500
  20
91.576900
  0
VERTEX
  8
C7
  10
200.780600
  20
90.797700
  0
VERTEX
  8
C7
  10
200.292100
  20
90.016300
  0
VERTEX
  8
C7
  10
199.822000
  20
89.233000
  0
VERTEX
  8
C7
  10
199.370500
  20
88.447900
  0
VERTEX
  8
C7
  10
198.937300
  20
87.661100
  0
VERTEX
  8
C7
  10
198.522500
  20
86.872900
  0
VERTEX
  8
C7
  10
198.126100
  20
86.083300
  0
VERTEX
  8
C7
  10
197.748000
  20
85.292600
  0
VERTEX
  8
C7
  10
197.388200
  20
84.501000
  0
VERTEX
  8
C7
  10
197.046800
  20
83.708500
  0
VERTEX
  8
C7
  10
196.723600
  20
82.915400
  0
VERTEX
  8
C7
  10
196.418700
  20
82.121800
  0
VERTEX
  8
C7
  10
196.132000
  20
81.328000
  0
VERTEX
  8
C7
  10
195.863500
  20
80.533900
  0
VERTEX
  8
C7
  10
195.613200
  20
79.739900
  0
VERTEX
  8
C7
  10
195.381100
  20
78.946100
  0
VERTEX
  8
C7
  10
195.167200
  20
78.152600
  0
VERTEX
  8
C7
  10
194.971300
  20
77.359600
  0
VERTEX
  8
C7
  10
194.793600
  20
76.567300
  0
VERTEX
  8
C7
  10
194.633900
  20
75.775900
  0
VERTEX
  8
C7
  10
194.492300
  20
74.985500
  0
VERTEX
  8
C7
  10
194.368700
  20
74.196200
  0
VERTEX
  8
C7
  10
194.263200
  20
73.408300
  0
VERTEX
  8
C7
  10
194.175600
  20
72.621900
  0
VERTEX
  8
C7
  10
194.106000
  20
71.837200
  0
VERTEX
  8
C7
  10
194.054300
  20
71.054300
  0
VERTEX
  8
C7
  10
194.020600
  20
70.273400
  0
VERTEX
  8
C7
  10
194.004700
  20
69.494700
  0
VERTEX
  8
C7
  10
194.006800
  20
68.718300
  0
VERTEX
  8
C7
  10
194.026700
  20
67.944400
  0
VERTEX
  8
C7
  10
194.064400
  20
67.173200
  0
VERTEX
  8
C7
  10
194.119900
  20
66.404800
  0
VERTEX
  8
C7
  10
194.193300
  20
65.639400
  0
VERTEX
  8
C7
  10
194.284400
  20
64.877200
  0
VERTEX
  8
C7
  10
194.393200
  20
64.118300
  0
VERTEX
  8
C7
  10
194.519800
  20
63.362900
  0
VERTEX
  8
C7
  10
194.664000
  20
62.611100
  0
VERTEX
  8
C7
  10
194.826000
  20
61.863200
  0
VERTEX
  8
C7
  10
195.005600
  20
61.119300
  0
VERTEX
  8
C7
  10
195.202800
  20
60.379500
  0
VERTEX
  8
C7
  10
195.417600
  20
59.644000
  0
VERTEX
  8
C7
  10
195.650100
  20
58.913000
  0
VERTEX
  8
C7
  10
195.900100
  20
58.186700
  0
VERTEX
  8
C7
  10
196.167600
  20
57.465200
  0
VERTEX
  8
C7
  10
196.452700
  20
56.748700
  0
VERTEX
  8
C7
  10
196.755200
  20
56.037300
  0
VERTEX
  8
C7
  10
197.075300
  20
55.331200
  0
VERTEX
  8
C7
  10
197.412800
  20
54.630600
  0
VERTEX
  8
C7
  10
197.767700
  20
53.935700
  0
VERTEX
  8
C7
  10
198.140000
  20
53.246500
  0
VERTEX
  8
C7
  10
198.529800
  20
52.563400
  0
VERTEX
  8
C7
  10
198.936900
  20
51.886300
  0
VERTEX
  8
C7
  10
199.361300
  20
51.215600
  0
VERTEX
  8
C7
  10
199.803100
  20
50.551400
  0
VERTEX
  8
C7
  10
200.262100
  20
49.893800
  0
VERTEX
  8
C7
  10
200.738400
  20
49.242900
  0
VERTEX
  8
C7
  10
201.232000
  20
48.599100
  0
VERTEX
  8
C7
  10
201.742900
  20
47.962400
  0
VERTEX
  8
C7
  10
202.270900
  20
47.332900
  0
VERTEX
  8
C7
  10
202.816100
  20
46.711000
  0
VERTEX
  8
C7
  10
203.378500
  20
46.096700
  0
VERTEX
  8
C7
  10
203.958000
  20
45.490100
  0
VERTEX
  8
C7
  10
204.554700
  20
44.891500
  0
VERTEX
  8
C7
  10
205.168400
  20
44.301100
  0
VERTEX
  8
C7
  10
205.799300
  20
43.718900
  0
VERTEX
  8
C7
  10
206.447100
  20
43.145200
  0
VERTEX
  8
C7
  10
207.112100
  20
42.580100
  0
VERTEX
  8
C7
  10
207.794000
  20
42.023800
  0
VERTEX
  8
C7
  10
208.492900
  20
41.476500
  0
VERTEX
  8
C7
  10
209.208800
  20
40.938200
  0
VERTEX
  8
C7
  10
209.941600
  20
40.409300
  0
VERTEX
  8
C7
  10
210.691300
  20
39.889800
  0
VERTEX
  8
C7
  10
211.458000
  20
39.379900
  0
VERTEX
  8
C7
  10
212.241500
  20
38.879800
  0
VERTEX
  8
C7
  10
213.041900
  20
38.389600
  0
VERTEX
  8
C7
  10
213.859100
  20
37.909600
  0
VERTEX
  8
C7
  10
214.693100
  20
37.439800
  0
VERTEX
  8
C7
  10
215.543900
  20
36.980400
  0
VERTEX
  8
C7
  10
216.411400
  20
36.531700
  0
VERTEX
  8
C7
  10
217.295700
  20
36.093700
  0
VERTEX
  8
C7
  10
218.196800
  20
35.666700
  0
VERTEX
  8
C7
  10
219.114500
  20
35.250700
  0
VERTEX
  8
C7
  10
220.048900
  20
34.846100
  0
VERTEX
  8
C7
  10
221.000000
  20
34.452900
  0
VERTEX
  8
C7
  10
221.868000
  20
34.108100
  0
VERTEX
  8
C7
  10
222.742200
  20
33.772600
  0
VERTEX
  8
C7
  10
223.622300
  20
33.446400
  0
VERTEX
  8
C7
  10
224.508100
  20
33.129400
  0
VERTEX
  8
C7
  10
225.399500
  20
32.821800
  0
VERTEX
  8
C7
  10
226.296300
  20
32.523400
  0
VERTEX
  8
C7
  10
227.198400
  20
32.234300
  0
VERTEX
  8
C7
  10
228.105500
  20
31.954600
  0
VERTEX
  8
C7
  10
229.017700
  20
31.684100
  0
VERTEX
  8
C7
  10
229.934600
  20
31.423100
  0
VERTEX
  8
C7
  10
230.856100
  20
31.171400
  0
VERTEX
  8
C7
  10
231.782100
  20
30.929000
  0
VERTEX
  8
C7
  10
232.712400
  20
30.696000
  0
VERTEX
  8
C7
  10
233.646800
  20
30.472500
  0
VERTEX
  8
C7
  10
234.585200
  20
30.258300
  0
VERTEX
  8
C7
  10
235.527400
  20
30.053600
  0
VERTEX
  8
C7
  10
236.473300
  20
29.858300
  0
VERTEX
  8
C7
  10
237.422700
  20
29.672400
  0
VERTEX
  8
C7
  10
238.375400
  20
29.496000
  0
VERTEX
  8
C7
  10
239.331300
  20
29.329000
  0
VERTEX
  8
C7
  10
240.290200
  20
29.171600
  0
VERTEX
  8
C7
  10
241.251900
  20
29.023600
  0
VERTEX
  8
C7
  10
242.216400
  20
28.885100
  0
VERTEX
  8
C7
  10
243.183400
  20
28.756200
  0
VERTEX
  8
C7
  10
244.152800
  20
28.636800
  0
VERTEX
  8
C7
  10
245.124300
  20
28.526900
  0
VERTEX
  8
C7
  10
246.098000
  20
28.426600
  0
VERTEX
  8
C7
  10
247.073500
  20
28.335800
  0
VERTEX
  8
C7
  10
248.050800
  20
28.254600
  0
VERTEX
  8
C7
  10
249.029600
  20
28.183100
  0
VERTEX
  8
C7
  10
250.009800
  20
28.121100
  0
VERTEX
  8
C7
  10
250.991300
  20
28.068700
  0
VERTEX
  8
C7
  10
251.973900
  20
28.026000
  0
VERTEX
  8
C7
  10
252.957400
  20
27.992900
  0
VERTEX
  8
C7
  10
253.941700
  20
27.969500
  0
VERTEX
  8
C7
  10
254.926600
  20
27.955700
  0
VERTEX
  8
C7
  10
255.911900
  20
27.951600
  0
VERTEX
  8
C7
  10
256.897600
  20
27.957200
  0
VERTEX
  8
C7
  10
257.883300
  20
27.972500
  0
VERTEX
  8
C7
  10
258.869100
  20
27.997500
  0
VERTEX
  8
C7
  10
259.854600
  20
28.032300
  0
VERTEX
  8
C7
  10
260.839800
  20
28.076800
  0
VERTEX
  8
C7
  10
261.824400
  20
28.131000
  0
VERTEX
  8
C7
  10
262.808400
  20
28.195000
  0
VERTEX
  8
C7
  10
263.791600
  20
28.268800
  0
VERTEX
  8
C7
  10
264.773700
  20
28.352300
  0
VERTEX
  8
C7
  10
265.754700
  20
28.445700
  0
VERTEX
  8
C7
  10
266.734400
  20
28.548900
  0
VERTEX
  8
C7
  10
267.712600
  20
28.661900
  0
VERTEX
  8
C7
  10
268.689200
  20
28.784800
  0
VERTEX
  8
C7
  10
269.664000
  20
28.917500
  0
VERTEX
  8
C7
  10
270.636800
  20
29.060000
  0
VERTEX
  8
C7
  10
271.607500
  20
29.212500
  0
VERTEX
  8
C7
  10
272.575900
  20
29.374800
  0
VERTEX
  8
C7
  10
273.541900
  20
29.547000
  0
VERTEX
  8
C7
  10
274.505200
  20
29.729200
  0
VERTEX
  8
C7
  10
275.465800
  20
29.921200
  0
VERTEX
  8
C7
  10
276.423500
  20
30.123300
  0
VERTEX
  8
C7
  10
277.378100
  20
30.335200
  0
VERTEX
  8
C7
  10
278.329500
  20
30.557100
  0
VERTEX
  8
C7
  10
279.277500
  20
30.789000
  0
VERTEX
  8
C7
  10
280.221900
  20
31.030900
  0
VERTEX
  8
C7
  10
281.162600
  20
31.282800
  0
VERTEX
  8
C7
  10
282.099400
  20
31.544700
  0
VERTEX
  8
C7
  10
283.032100
  20
31.816600
  0
VERTEX
  8
C7
  10
283.960600
  20
32.098500
  0
VERTEX
  8
C7
  10
284.884800
  20
32.390500
  0
VERTEX
  8
C7
  10
285.804500
  20
32.692600
  0
VERTEX
  8
C7
  10
286.719400
  20
33.004700
  0
VERTEX
  8
C7
  10
287.629600
  20
33.326900
  0
VERTEX
  8
C7
  10
288.534700
  20
33.659300
  0
VERTEX
  8
C7
  10
289.434600
  20
34.001700
  0
VERTEX
  8
C7
  10
290.329200
  20
34.354200
  0
VERTEX
  8
C7
  10
291.218400
  20
34.716900
  0
VERTEX
  8
C7
  10
292.101800
  20
35.089800
  0
VERTEX
  8
C7
  10
292.979500
  20
35.472800
  0
VERTEX
  8
C7
  10
293.851200
  20
35.865900
  0
VERTEX
  8
C7
  10
294.716800
  20
36.269300
  0
VERTEX
  8
C7
  10
295.576100
  20
36.682800
  0
VERTEX
  8
C7
  10
296.428900
  20
37.106600
  0
VERTEX
  8
C7
  10
297.275100
  20
37.540600
  0
VERTEX
  8
C7
  10
298.114500
  20
37.984800
  0
VERTEX
  8
C7
  10
298.947000
  20
38.439200
  0
VERTEX
  8
C7
  10
299.772400
  20
38.903900
  0
VERTEX
  8
C7
  10
300.590600
  20
39.378900
  0
VERTEX
  8
C7
  10
301.401300
  20
39.864200
  0
VERTEX
  8
C7
  10
302.204500
  20
40.359800
  0
VERTEX
  8
C7
  10
303.000000
  20
40.865700
  0
VERTEX
  8
C7
  10
303.781400
  20
41.378200
  0
VERTEX
  8
C7
  10
304.557900
  20
41.903500
  0
VERTEX
  8
C7
  10
305.328900
  20
42.441500
  0
VERTEX
  8
C7
  10
306.094000
  20
42.992000
  0
VERTEX
  8
C7
  10
306.852600
  20
43.554900
  0
VERTEX
  8
C7
  10
307.604300
  20
44.129900
  0
VERTEX
  8
C7
  10
308.348500
  20
44.717000
  0
VERTEX
  8
C7
  10
309.084800
  20
45.316000
  0
VERTEX
  8
C7
  10
309.812700
  20
45.926700
  0
VERTEX
  8
C7
  10
310.531800
  20
46.549000
  0
VERTEX
  8
C7
  10
311.241500
  20
47.182700
  0
VERTEX
  8
C7
  10
311.941300
  20
47.827600
  0
VERTEX
  8
C7
  10
312.630800
  20
48.483700
  0
VERTEX
  8
C7
  10
313.309500
  20
49.150700
  0
VERTEX
  8
C7
  10
313.976800
  20
49.828500
  0
VERTEX
  8
C7
  10
314.632400
  20
50.517000
  0
VERTEX
  8
C7
  10
315.275700
  20
51.215900
  0
VERTEX
  8
C7
  10
315.906200
  20
51.925200
  0
VERTEX
  8
C7
  10
316.523400
  20
52.644600
  0
VERTEX
  8
C7
  10
317.126900
  20
53.374100
  0
VERTEX
  8
C7
  10
317.716200
  20
54.113400
  0
VERTEX
  8
C7
  10
318.290800
  20
54.862400
  0
VERTEX
  8
C7
  10
318.850200
  20
55.621000
  0
VERTEX
  8
C7
  10
319.393900
  20
56.389000
  0
VERTEX
  8
C7
  10
319.921500
  20
57.166200
  0
VERTEX
  8
C7
  10
320.432400
  20
57.952500
  0
VERTEX
  8
C7
  10
320.926100
  20
58.747700
  0
VERTEX
  8
C7
  10
321.402200
  20
59.551800
  0
VERTEX
  8
C7
  10
321.860200
  20
60.364400
  0
VERTEX
  8
C7
  10
322.299700
  20
61.185500
  0
VERTEX
  8
C7
  10
322.720000
  20
62.014900
  0
VERTEX
  8
C7
  10
323.120700
  20
62.852500
  0
VERTEX
  8
C7
  10
323.501500
  20
63.698000
  0
VERTEX
  8
C7
  10
323.861600
  20
64.551400
  0
VERTEX
  8
C7
  10
324.200800
  20
65.412500
  0
VERTEX
  8
C7
  10
324.518400
  20
66.281100
  0
VERTEX
  8
C7
  10
324.814100
  20
67.157100
  0
VERTEX
  8
C7
  10
325.087200
  20
68.040400
  0
VERTEX
  8
C7
  10
325.337400
  20
68.930600
  0
VERTEX
  8
C7
  10
325.564100
  20
69.827800
  0
VERTEX
  8
C7
  10
325.766900
  20
70.731800
  0
VERTEX
  8
C7
  10
325.945300
  20
71.642300
  0
VERTEX
  8
C7
  10
326.098700
  20
72.559300
  0
VERTEX
  8
C7
  10
326.226800
  20
73.482600
  0
VERTEX
  8
C7
  10
326.329000
  20
74.412000
  0
VERTEX
  8
C7
  10
326.404800
  20
75.347400
  0
VERTEX
  8
C7
  10
326.453700
  20
76.288700
  0
VERTEX
  8
C7
  10
326.475300
  20
77.235600
  0
VERTEX
  8
C7
  10
326.469100
  20
78.188000
  0
VERTEX
  8
C7
  10
326.434600
  20
79.145700
  0
VERTEX
  8
C7
  10
326.371300
  20
80.108700
  0
VERTEX
  8
C7
  10
326.278600
  20
81.076700
  0
VERTEX
  8
C7
  10
326.156300
  20
82.049600
  0
VERTEX
  8
C7
  10
326.003600
  20
83.027200
  0
VERTEX
  8
C7
  10
325.820300
  20
84.009400
  0
VERTEX
  8
C7
  10
325.605700
  20
84.996100
  0
VERTEX
  8
C7
  10
325.344200
  20
85.929400
  0
VERTEX
  8
C7
  10
325.011900
  20
86.801100
  0
VERTEX
  8
C7
  10
324.613500
  20
87.608500
  0
VERTEX
  8
C7
  10
324.153800
  20
88.348900
  0
VERTEX
  8
C7
  10
323.637700
  20
89.019600
  0
VERTEX
  8
C7
  10
323.069900
  20
89.617800
  0
VERTEX
  8
C7
  10
322.455300
  20
90.140800
  0
VERTEX
  8
C7
  10
321.798600
  20
90.586000
  0
VERTEX
  8
C7
  10
321.104700
  20
90.950600
  0
VERTEX
  8
C7
  10
320.378300
  20
91.231900
  0
VERTEX
  8
C7
  10
319.624300
  20
91.427100
  0
VERTEX
  8
C7
  10
318.847400
  20
91.533600
  0
VERTEX
  8
C7
  10
318.052500
  20
91.548700
  0
VERTEX
  8
C7
  10
317.244400
  20
91.469600
  0
VERTEX
  8
C7
  10
316.427900
  20
91.293500
  0
VERTEX
  8
C7
  10
315.607700
  20
91.017900
  0
VERTEX
  8
C7
  10
314.788700
  20
90.640000
  0
VERTEX
  8
C7
  10
313.975800
  20
90.157000
  0
VERTEX
  8
C7
  10
313.173600
  20
89.566300
  0
VERTEX
  8
C7
  10
312.426400
  20
88.940500
  0
VERTEX
  8
C7
  10
311.696800
  20
88.292100
  0
VERTEX
  8
C7
  10
310.983600
  20
87.622400
  0
VERTEX
  8
C7
  10
310.285700
  20
86.933000
  0
VERTEX
  8
C7
  10
309.602000
  20
86.225300
  0
VERTEX
  8
C7
  10
308.931200
  20
85.500700
  0
VERTEX
  8
C7
  10
308.272200
  20
84.760600
  0
VERTEX
  8
C7
  10
307.623900
  20
84.006500
  0
VERTEX
  8
C7
  10
306.985100
  20
83.239800
  0
VERTEX
  8
C7
  10
306.354600
  20
82.461900
  0
VERTEX
  8
C7
  10
305.731400
  20
81.674300
  0
VERTEX
  8
C7
  10
305.114200
  20
80.878500
  0
VERTEX
  8
C7
  10
304.501800
  20
80.075800
  0
VERTEX
  8
C7
  10
303.893200
  20
79.267600
  0
VERTEX
  8
C7
  10
303.287200
  20
78.455500
  0
VERTEX
  8
C7
  10
302.682600
  20
77.640900
  0
VERTEX
  8
C7
  10
302.078300
  20
76.825200
  0
VERTEX
  8
C7
  10
301.473100
  20
76.009800
  0
VERTEX
  8
C7
  10
300.865900
  20
75.196100
  0
VERTEX
  8
C7
  10
300.255500
  20
74.385700
  0
VERTEX
  8
C7
  10
299.640700
  20
73.579900
  0
VERTEX
  8
C7
  10
299.020400
  20
72.780200
  0
VERTEX
  8
C7
  10
298.393500
  20
71.988000
  0
VERTEX
  8
C7
  10
297.758700
  20
71.204800
  0
VERTEX
  8
C7
  10
297.115000
  20
70.431900
  0
VERTEX
  8
C7
  10
296.461200
  20
69.670900
  0
VERTEX
  8
C7
  10
295.796100
  20
68.923100
  0
VERTEX
  8
C7
  10
295.118600
  20
68.190000
  0
VERTEX
  8
C7
  10
294.427500
  20
67.473000
  0
VERTEX
  8
C7
  10
293.721700
  20
66.773600
  0
VERTEX
  8
C7
  10
293.000000
  20
66.093300
  0
VERTEX
  8
C7
  10
292.235500
  20
65.408400
  0
VERTEX
  8
C7
  10
291.460800
  20
64.748200
  0
VERTEX
  8
C7
  10
290.676100
  20
64.112300
  0
VERTEX
  8
C7
  10
289.881700
  20
63.500100
  0
VERTEX
  8
C7
  10
289.077800
  20
62.911300
  0
VERTEX
  8
C7
  10
288.264700
  20
62.345600
  0
VERTEX
  8
C7
  10
287.442600
  20
61.802500
  0
VERTEX
  8
C7
  10
286.611800
  20
61.281500
  0
VERTEX
  8
C7
  10
285.772500
  20
60.782400
  0
VERTEX
  8
C7
  10
284.924900
  20
60.304700
  0
VERTEX
  8
C7
  10
284.069200
  20
59.848000
  0
VERTEX
  8
C7
  10
283.205900
  20
59.411900
  0
VERTEX
  8
C7
  10
282.335000
  20
58.996000
  0
VERTEX
  8
C7
  10
281.456800
  20
58.599900
  0
VERTEX
  8
C7
  10
280.571600
  20
58.223200
  0
VERTEX
  8
C7
  10
279.679600
  20
57.865500
  0
VERTEX
  8
C7
  10
278.781100
  20
57.526400
  0
VERTEX
  8
C7
  10
277.876300
  20
57.205500
  0
VERTEX
  8
C7
  10
276.965500
  20
56.902400
  0
VERTEX
  8
C7
  10
276.048800
  20
56.616700
  0
VERTEX
  8
C7
  10
275.126600
  20
56.348000
  0
VERTEX
  8
C7
  10
274.199000
  20
56.095800
  0
VERTEX
  8
C7
  10
273.266400
  20
55.859900
  0
VERTEX
  8
C7
  10
272.329000
  20
55.639700
  0
VERTEX
  8
C7
  10
271.387000
  20
55.435000
  0
VERTEX
  8
C7
  10
270.440600
  20
55.245200
  0
VERTEX
  8
C7
  10
269.490200
  20
55.070000
  0
VERTEX
  8
C7
  10
268.535900
  20
54.909000
  0
VERTEX
  8
C7
  10
267.578000
  20
54.761700
  0
VERTEX
  8
C7
  10
266.616800
  20
54.627900
  0
VERTEX
  8
C7
  10
265.652400
  20
54.507000
  0
VERTEX
  8
C7
  10
264.685200
  20
54.398700
  0
VERTEX
  8
C7
  10
263.715400
  20
54.302600
  0
VERTEX
  8
C7
  10
262.743200
  20
54.218300
  0
VERTEX
  8
C7
  10
261.768800
  20
54.145300
  0
VERTEX
  8
C7
  10
260.792600
  20
54.083300
  0
VERTEX
  8
C7
  10
259.814800
  20
54.031900
  0
VERTEX
  8
C7
  10
258.835500
  20
53.990600
  0
VERTEX
  8
C7
  10
257.855100
  20
53.959100
  0
VERTEX
  8
C7
  10
256.873800
  20
53.937000
  0
VERTEX
  8
C7
  10
255.891800
  20
53.923900
  0
VERTEX
  8
C7
  10
254.909500
  20
53.919300
  0
VERTEX
  8
C7
  10
253.926900
  20
53.922800
  0
VERTEX
  8
C7
  10
252.944500
  20
53.934200
  0
VERTEX
  8
C7
  10
251.962300
  20
53.952900
  0
VERTEX
  8
C7
  10
250.980700
  20
53.978500
  0
VERTEX
  8
C7
  10
250.000000
  20
54.010800
  0
VERTEX
  8
C7
  10
249.179800
  20
54.046500
  0
VERTEX
  8
C7
  10
248.338900
  20
54.096100
  0
VERTEX
  8
C7
  10
247.479600
  20
54.160200
  0
VERTEX
  8
C7
  10
246.604600
  20
54.239800
  0
VERTEX
  8
C7
  10
245.716100
  20
54.335700
  0
VERTEX
  8
C7
  10
244.816800
  20
54.448700
  0
VERTEX
  8
C7
  10
243.909000
  20
54.579700
  0
VERTEX
  8
C7
  10
242.995200
  20
54.729500
  0
VERTEX
  8
C7
  10
242.078000
  20
54.899000
  0
VERTEX
  8
C7
  10
241.159700
  20
55.089000
  0
VERTEX
  8
C7
  10
240.242800
  20
55.300400
  0
VERTEX
  8
C7
  10
239.329900
  20
55.533900
  0
VERTEX
  8
C7
  10
238.423300
  20
55.790600
  0
VERTEX
  8
C7
  10
237.525600
  20
56.071100
  0
VERTEX
  8
C7
  10
236.639100
  20
56.376300
  0
VERTEX
  8
C7
  10
235.766500
  20
56.707200
  0
VERTEX
  8
C7
  10
234.910100
  20
57.064400
  0
VERTEX
  8
C7
  10
234.072400
  20
57.449000
  0
VERTEX
  8
C7
  10
233.255900
  20
57.861600
  0
VERTEX
  8
C7
  10
232.463000
  20
58.303300
  0
VERTEX
  8
C7
  10
231.696300
  20
58.774700
  0
VERTEX
  8
C7
  10
230.958200
  20
59.276800
  0
VERTEX
  8
C7
  10
230.251100
  20
59.810300
  0
VERTEX
  8
C7
  10
229.577500
  20
60.376200
  0
VERTEX
  8
C7
  10
228.939900
  20
60.975300
  0
VERTEX
  8
C7
  10
228.340800
  20
61.608500
  0
VERTEX
  8
C7
  10
227.782500
  20
62.276500
  0
VERTEX
  8
C7
  10
227.267700
  20
62.980200
  0
VERTEX
  8
C7
  10
226.798800
  20
63.720500
  0
VERTEX
  8
C7
  10
226.378200
  20
64.498200
  0
VERTEX
  8
C7
  10
226.008300
  20
65.314100
  0
VERTEX
  8
C7
  10
225.691800
  20
66.169200
  0
VERTEX
  8
C7
  10
225.431000
  20
67.064200
  0
VERTEX
  8
C7
  10
225.228400
  20
68.000000
  0
SEQEND
  8
C7
  0
POLYLINE
  8
C7
  66
1
  10
225.228300
  20
68.000000
  0
VERTEX
  8
C7
  10
225.228300
  20
68.000000
  0
VERTEX
  8
C7
  10
225.081400
  20
68.967400
  0
VERTEX
  8
C7
  10
224.990900
  20
69.924600
  0
VERTEX
  8
C7
  10
224.954700
  20
70.871500
  0
VERTEX
  8
C7
  10
224.971000
  20
71.807900
  0
VERTEX
  8
C7
  10
225.037800
  20
72.733700
  0
VERTEX
  8
C7
  10
225.153200
  20
73.648800
  0
VERTEX
  8
C7
  10
225.315300
  20
74.553100
  0
VERTEX
  8
C7
  10
225.522100
  20
75.446400
  0
VERTEX
  8
C7
  10
225.771700
  20
76.328700
  0
VERTEX
  8
C7
  10
226.062300
  20
77.199800
  0
VERTEX
  8
C7
  10
226.391800
  20
78.059600
  0
VERTEX
  8
C7
  10
226.758500
  20
78.908000
  0
VERTEX
  8
C7
  10
227.160200
  20
79.744900
  0
VERTEX
  8
C7
  10
227.595200
  20
80.570100
  0
VERTEX
  8
C7
  10
228.061500
  20
81.383500
  0
VERTEX
  8
C7
  10
228.557100
  20
82.185100
  0
VERTEX
  8
C7
  10
229.080200
  20
82.974600
  0
VERTEX
  8
C7
  10
229.628900
  20
83.752000
  0
VERTEX
  8
C7
  10
230.201100
  20
84.517100
  0
VERTEX
  8
C7
  10
230.795000
  20
85.269900
  0
VERTEX
  8
C7
  10
231.408800
  20
86.010200
  0
VERTEX
  8
C7
  10
232.040300
  20
86.737900
  0
VERTEX
  8
C7
  10
232.687800
  20
87.452800
  0
VERTEX
  8
C7
  10
233.349300
  20
88.154900
  0
VERTEX
  8
C7
  10
234.022800
  20
88.844100
  0
VERTEX
  8
C7
  10
234.706500
  20
89.520100
  0
VERTEX
  8
C7
  10
235.398500
  20
90.182900
  0
VERTEX
  8
C7
  10
236.096700
  20
90.832500
  0
VERTEX
  8
C7
  10
236.799400
  20
91.468500
  0
VERTEX
  8
C7
  10
237.504500
  20
92.091100
  0
VERTEX
  8
C7
  10
238.210200
  20
92.699900
  0
VERTEX
  8
C7
  10
238.914500
  20
93.294900
  0
VERTEX
  8
C7
  10
239.615500
  20
93.876100
  0
VERTEX
  8
C7
  10
240.311300
  20
94.443100
  0
VERTEX
  8
C7
  10
241.000000
  20
94.996100
  0
VERTEX
  8
C7
  10
241.678900
  20
95.530300
  0
VERTEX
  8
C7
  10
242.370800
  20
96.061100
  0
VERTEX
  8
C7
  10
243.075200
  20
96.588500
  0
VERTEX
  8
C7
  10
243.791400
  20
97.112900
  0
VERTEX
  8
C7
  10
244.518900
  20
97.634500
  0
VERTEX
  8
C7
  10
245.257300
  20
98.153600
  0
VERTEX
  8
C7
  10
246.005900
  20
98.670400
  0
VERTEX
  8
C7
  10
246.764200
  20
99.185100
  0
VERTEX
  8
C7
  10
247.531700
  20
99.698000
  0
VERTEX
  8
C7
  10
248.307800
  20
100.209300
  0
VERTEX
  8
C7
  10
249.092000
  20
100.719300
  0
VERTEX
  8
C7
  10
249.883800
  20
101.228200
  0
VERTEX
  8
C7
  10
250.682600
  20
101.736300
  0
VERTEX
  8
C7
  10
251.487900
  20
102.243800
  0
VERTEX
  8
C7
  10
252.299100
  20
102.751000
  0
VERTEX
  8
C7
  10
253.115600
  20
103.258100
  0
VERTEX
  8
C7
  10
253.937100
  20
103.765400
  0
VERTEX
  8
C7
  10
254.762800
  20
104.273000
  0
VERTEX
  8
C7
  10
255.592300
  20
104.781300
  0
VERTEX
  8
C7
  10
256.425100
  20
105.290500
  0
VERTEX
  8
C7
  10
257.260500
  20
105.800800
  0
VERTEX
  8
C7
  10
258.098100
  20
106.312500
  0
VERTEX
  8
C7
  10
258.937300
  20
106.825800
  0
VERTEX
  8
C7
  10
259.777500
  20
107.341000
  0
VERTEX
  8
C7
  10
260.618300
  20
107.858300
  0
VERTEX
  8
C7
  10
261.459100
  20
108.378000
  0
VERTEX
  8
C7
  10
262.299300
  20
108.900300
  0
VERTEX
  8
C7
  10
263.138400
  20
109.425500
  0
VERTEX
  8
C7
  10
263.975900
  20
109.953700
  0
VERTEX
  8
C7
  10
264.811200
  20
110.485300
  0
VERTEX
  8
C7
  10
265.643800
  20
111.020500
  0
VERTEX
  8
C7
  10
266.473100
  20
111.559600
  0
VERTEX
  8
C7
  10
267.298600
  20
112.102700
  0
VERTEX
  8
C7
  10
268.119800
  20
112.650200
  0
VERTEX
  8
C7
  10
268.936100
  20
113.202200
  0
VERTEX
  8
C7
  10
269.747000
  20
113.759100
  0
VERTEX
  8
C7
  10
270.551900
  20
114.321000
  0
VERTEX
  8
C7
  10
271.350400
  20
114.888200
  0
VERTEX
  8
C7
  10
272.141800
  20
115.461000
  0
VERTEX
  8
C7
  10
272.925600
  20
116.039700
  0
VERTEX
  8
C7
  10
273.701300
  20
116.624300
  0
VERTEX
  8
C7
  10
274.468300
  20
117.215300
  0
VERTEX
  8
C7
  10
275.226100
  20
117.812800
  0
VERTEX
  8
C7
  10
275.974200
  20
118.417100
  0
VERTEX
  8
C7
  10
276.712000
  20
119.028400
  0
VERTEX
  8
C7
  10
277.438900
  20
119.647000
  0
VERTEX
  8
C7
  10
278.154500
  20
120.273200
  0
VERTEX
  8
C7
  10
278.858200
  20
120.907100
  0
VERTEX
  8
C7
  10
279.549500
  20
121.549000
  0
VERTEX
  8
C7
  10
280.227700
  20
122.199200
  0
VERTEX
  8
C7
  10
280.892500
  20
122.857900
  0
VERTEX
  8
C7
  10
281.543100
  20
123.525400
  0
VERTEX
  8
C7
  10
282.179200
  20
124.201900
  0
VERTEX
  8
C7
  10
282.800100
  20
124.887600
  0
VERTEX
  8
C7
  10
283.405300
  20
125.582800
  0
VERTEX
  8
C7
  10
283.994300
  20
126.287700
  0
VERTEX
  8
C7
  10
284.566500
  20
127.002600
  0
VERTEX
  8
C7
  10
285.121400
  20
127.727800
  0
VERTEX
  8
C7
  10
285.658400
  20
128.463400
  0
VERTEX
  8
C7
  10
286.177100
  20
129.209800
  0
VERTEX
  8
C7
  10
286.676800
  20
129.967100
  0
VERTEX
  8
C7
  10
287.157100
  20
130.735700
  0
VERTEX
  8
C7
  10
287.617300
  20
131.515600
  0
VERTEX
  8
C7
  10
288.057000
  20
132.307300
  0
VERTEX
  8
C7
  10
288.475600
  20
133.111000
  0
VERTEX
  8
C7
  10
288.872500
  20
133.926900
  0
VERTEX
  8
C7
  10
289.247300
  20
134.755100
  0
VERTEX
  8
C7
  10
289.599400
  20
135.596100
  0
VERTEX
  8
C7
  10
289.928100
  20
136.450000
  0
VERTEX
  8
C7
  10
290.233100
  20
137.317100
  0
VERTEX
  8
C7
  10
290.513800
  20
138.197700
  0
VERTEX
  8
C7
  10
290.769600
  20
139.091800
  0
VERTEX
  8
C7
  10
291.000000
  20
140.000000
  0
VERTEX
  8
C7
  10
292.014600
  20
139.788800
  0
VERTEX
  8
C7
  10
293.024900
  20
139.575500
  0
VERTEX
  8
C7
  10
294.031100
  20
139.360900
  0
VERTEX
  8
C7
  10
295.033600
  20
139.145800
  0
VERTEX
  8
C7
  10
296.032600
  20
138.930700
  0
VERTEX
  8
C7
  10
297.028500
  20
138.716600
  0
VERTEX
  8
C7
  10
298.021700
  20
138.504000
  0
VERTEX
  8
C7
  10
299.012500
  20
138.293800
  0
VERTEX
  8
C7
  10
300.001100
  20
138.086700
  0
VERTEX
  8
C7
  10
300.988000
  20
137.883300
  0
VERTEX
  8
C7
  10
301.973400
  20
137.684500
  0
VERTEX
  8
C7
  10
302.957700
  20
137.491000
  0
VERTEX
  8
C7
  10
303.941300
  20
137.303500
  0
VERTEX
  8
C7
  10
304.924300
  20
137.122700
  0
VERTEX
  8
C7
  10
305.907300
  20
136.949400
  0
VERTEX
  8
C7
  10
306.890500
  20
136.784200
  0
VERTEX
  8
C7
  10
307.874200
  20
136.628100
  0
VERTEX
  8
C7
  10
308.858800
  20
136.481500
  0
VERTEX
  8
C7
  10
309.844600
  20
136.345400
  0
VERTEX
  8
C7
  10
310.831900
  20
136.220400
  0
VERTEX
  8
C7
  10
311.821100
  20
136.107300
  0
VERTEX
  8
C7
  10
312.812500
  20
136.006800
  0
VERTEX
  8
C7
  10
313.806400
  20
135.919600
  0
VERTEX
  8
C7
  10
314.803100
  20
135.846500
  0
VERTEX
  8
C7
  10
315.803000
  20
135.788200
  0
VERTEX
  8
C7
  10
316.806500
  20
135.745400
  0
VERTEX
  8
C7
  10
317.813700
  20
135.718800
  0
VERTEX
  8
C7
  10
318.825200
  20
135.709300
  0
VERTEX
  8
C7
  10
319.841100
  20
135.717500
  0
VERTEX
  8
C7
  10
320.861900
  20
135.744100
  0
VERTEX
  8
C7
  10
321.887900
  20
135.790000
  0
VERTEX
  8
C7
  10
322.919300
  20
135.855800
  0
VERTEX
  8
C7
  10
323.956500
  20
135.942200
  0
VERTEX
  8
C7
  10
325.000000
  20
136.050100
  0
VERTEX
  8
C7
  10
325.976400
  20
136.167200
  0
VERTEX
  8
C7
  10
326.942200
  20
136.295700
  0
VERTEX
  8
C7
  10
327.897300
  20
136.435600
  0
VERTEX
  8
C7
  10
328.841900
  20
136.586700
  0
VERTEX
  8
C7
  10
329.776000
  20
136.748900
  0
VERTEX
  8
C7
  10
330.699600
  20
136.922200
  0
VERTEX
  8
C7
  10
331.612700
  20
137.106500
  0
VERTEX
  8
C7
  10
332.515600
  20
137.301600
  0
VERTEX
  8
C7
  10
333.408100
  20
137.507600
  0
VERTEX
  8
C7
  10
334.290300
  20
137.724300
  0
VERTEX
  8
C7
  10
335.162400
  20
137.951600
  0
VERTEX
  8
C7
  10
336.024200
  20
138.189600
  0
VERTEX
  8
C7
  10
336.876000
  20
138.437900
  0
VERTEX
  8
C7
  10
337.717800
  20
138.696700
  0
VERTEX
  8
C7
  10
338.549500
  20
138.965800
  0
VERTEX
  8
C7
  10
339.371300
  20
139.245100
  0
VERTEX
  8
C7
  10
340.183200
  20
139.534600
  0
VERTEX
  8
C7
  10
340.985300
  20
139.834100
  0
VERTEX
  8
C7
  10
341.777600
  20
140.143600
  0
VERTEX
  8
C7
  10
342.560100
  20
140.463000
  0
VERTEX
  8
C7
  10
343.333000
  20
140.792200
  0
VERTEX
  8
C7
  10
344.096200
  20
141.131200
  0
VERTEX
  8
C7
  10
344.849900
  20
141.479800
  0
VERTEX
  8
C7
  10
345.594000
  20
141.837900
  0
VERTEX
  8
C7
  10
346.328600
  20
142.205500
  0
VERTEX
  8
C7
  10
347.053900
  20
142.582600
  0
VERTEX
  8
C7
  10
347.769700
  20
142.968900
  0
VERTEX
  8
C7
  10
348.476300
  20
143.364500
  0
VERTEX
  8
C7
  10
349.173600
  20
143.769200
  0
VERTEX
  8
C7
  10
349.861600
  20
144.183000
  0
VERTEX
  8
C7
  10
350.540500
  20
144.605700
  0
VERTEX
  8
C7
  10
351.210300
  20
145.037400
  0
VERTEX
  8
C7
  10
351.871100
  20
145.477800
  0
VERTEX
  8
C7
  10
352.522800
  20
145.927000
  0
VERTEX
  8
C7
  10
353.165600
  20
146.384900
  0
VERTEX
  8
C7
  10
353.799500
  20
146.851300
  0
VERTEX
  8
C7
  10
354.424500
  20
147.326100
  0
VERTEX
  8
C7
  10
355.040700
  20
147.809400
  0
VERTEX
  8
C7
  10
355.648200
  20
148.301000
  0
VERTEX
  8
C7
  10
356.247000
  20
148.800800
  0
VERTEX
  8
C7
  10
356.837200
  20
149.308800
  0
VERTEX
  8
C7
  10
357.418800
  20
149.824800
  0
VERTEX
  8
C7
  10
357.991800
  20
150.348800
  0
VERTEX
  8
C7
  10
358.556400
  20
150.880700
  0
VERTEX
  8
C7
  10
359.112500
  20
151.420500
  0
VERTEX
  8
C7
  10
359.660300
  20
151.967900
  0
VERTEX
  8
C7
  10
360.199700
  20
152.523000
  0
VERTEX
  8
C7
  10
360.730900
  20
153.085700
  0
VERTEX
  8
C7
  10
361.253800
  20
153.655800
  0
VERTEX
  8
C7
  10
361.768600
  20
154.233300
  0
VERTEX
  8
C7
  10
362.275200
  20
154.818200
  0
VERTEX
  8
C7
  10
362.773800
  20
155.410300
  0
VERTEX
  8
C7
  10
363.264400
  20
156.009500
  0
VERTEX
  8
C7
  10
363.747000
  20
156.615800
  0
VERTEX
  8
C7
  10
364.221700
  20
157.229100
  0
VERTEX
  8
C7
  10
364.688600
  20
157.849300
  0
VERTEX
  8
C7
  10
365.147700
  20
158.476300
  0
VERTEX
  8
C7
  10
365.599000
  20
159.110000
  0
VERTEX
  8
C7
  10
366.042600
  20
159.750300
  0
VERTEX
  8
C7
  10
366.478500
  20
160.397300
  0
VERTEX
  8
C7
  10
366.906900
  20
161.050700
  0
VERTEX
  8
C7
  10
367.327700
  20
161.710500
  0
VERTEX
  8
C7
  10
367.741000
  20
162.376600
  0
VERTEX
  8
C7
  10
368.146900
  20
163.049000
  0
VERTEX
  8
C7
  10
368.545400
  20
163.727500
  0
VERTEX
  8
C7
  10
368.936600
  20
164.412100
  0
VERTEX
  8
C7
  10
369.320500
  20
165.102600
  0
VERTEX
  8
C7
  10
369.697200
  20
165.799100
  0
VERTEX
  8
C7
  10
370.066700
  20
166.501300
  0
VERTEX
  8
C7
  10
370.429100
  20
167.209300
  0
VERTEX
  8
C7
  10
370.784400
  20
167.923000
  0
VERTEX
  8
C7
  10
371.132600
  20
168.642200
  0
VERTEX
  8
C7
  10
371.474000
  20
169.366900
  0
VERTEX
  8
C7
  10
371.808300
  20
170.097000
  0
VERTEX
  8
C7
  10
372.135900
  20
170.832400
  0
VERTEX
  8
C7
  10
372.456600
  20
171.573000
  0
VERTEX
  8
C7
  10
372.770600
  20
172.318800
  0
VERTEX
  8
C7
  10
373.077800
  20
173.069700
  0
VERTEX
  8
C7
  10
373.378400
  20
173.825500
  0
VERTEX
  8
C7
  10
373.672400
  20
174.586200
  0
VERTEX
  8
C7
  10
373.959900
  20
175.351800
  0
VERTEX
  8
C7
  10
374.240900
  20
176.122100
  0
VERTEX
  8
C7
  10
374.515400
  20
176.897000
  0
VERTEX
  8
C7
  10
374.783500
  20
177.676500
  0
VERTEX
  8
C7
  10
375.045300
  20
178.460500
  0
VERTEX
  8
C7
  10
375.300800
  20
179.248900
  0
VERTEX
  8
C7
  10
375.550000
  20
180.041600
  0
VERTEX
  8
C7
  10
375.793100
  20
180.838500
  0
VERTEX
  8
C7
  10
376.030000
  20
181.639600
  0
VERTEX
  8
C7
  10
376.260900
  20
182.444700
  0
VERTEX
  8
C7
  10
376.485700
  20
183.253800
  0
VERTEX
  8
C7
  10
376.704600
  20
184.066900
  0
VERTEX
  8
C7
  10
376.917500
  20
184.883700
  0
VERTEX
  8
C7
  10
377.124600
  20
185.704300
  0
VERTEX
  8
C7
  10
377.325800
  20
186.528500
  0
VERTEX
  8
C7
  10
377.521300
  20
187.356300
  0
VERTEX
  8
C7
  10
377.711100
  20
188.187600
  0
VERTEX
  8
C7
  10
377.895200
  20
189.022300
  0
VERTEX
  8
C7
  10
378.073700
  20
189.860300
  0
VERTEX
  8
C7
  10
378.246700
  20
190.701500
  0
VERTEX
  8
C7
  10
378.414100
  20
191.545900
  0
VERTEX
  8
C7
  10
378.576100
  20
192.393300
  0
VERTEX
  8
C7
  10
378.732700
  20
193.243800
  0
VERTEX
  8
C7
  10
378.883900
  20
194.097100
  0
VERTEX
  8
C7
  10
379.029800
  20
194.953300
  0
VERTEX
  8
C7
  10
379.170500
  20
195.812100
  0
VERTEX
  8
C7
  10
379.306000
  20
196.673700
  0
VERTEX
  8
C7
  10
379.436400
  20
197.537800
  0
VERTEX
  8
C7
  10
379.561700
  20
198.404400
  0
VERTEX
  8
C7
  10
379.681900
  20
199.273400
  0
VERTEX
  8
C7
  10
379.797200
  20
200.144700
  0
VERTEX
  8
C7
  10
379.907500
  20
201.018200
  0
VERTEX
  8
C7
  10
380.013000
  20
201.893900
  0
VERTEX
  8
C7
  10
380.113600
  20
202.771700
  0
VERTEX
  8
C7
  10
380.209500
  20
203.651400
  0
VERTEX
  8
C7
  10
380.300600
  20
204.533100
  0
VERTEX
  8
C7
  10
380.387100
  20
205.416500
  0
VERTEX
  8
C7
  10
380.468900
  20
206.301700
  0
VERTEX
  8
C7
  10
380.546200
  20
207.188600
  0
VERTEX
  8
C7
  10
380.619000
  20
208.077000
  0
VERTEX
  8
C7
  10
380.687300
  20
208.966900
  0
VERTEX
  8
C7
  10
380.751200
  20
209.858200
  0
VERTEX
  8
C7
  10
380.810800
  20
210.750800
  0
VERTEX
  8
C7
  10
380.866000
  20
211.644700
  0
VERTEX
  8
C7
  10
380.917000
  20
212.539700
  0
VERTEX
  8
C7
  10
380.963800
  20
213.435800
  0
VERTEX
  8
C7
  10
381.006400
  20
214.332800
  0
VERTEX
  8
C7
  10
381.045000
  20
215.230800
  0
VERTEX
  8
C7
  10
381.079500
  20
216.129600
  0
VERTEX
  8
C7
  10
381.110000
  20
217.029100
  0
VERTEX
  8
C7
  10
381.136600
  20
217.929300
  0
VERTEX
  8
C7
  10
381.159300
  20
218.830000
  0
VERTEX
  8
C7
  10
381.178200
  20
219.731300
  0
VERTEX
  8
C7
  10
381.193300
  20
220.632900
  0
VERTEX
  8
C7
  10
381.204600
  20
221.534800
  0
VERTEX
  8
C7
  10
381.212300
  20
222.437000
  0
VERTEX
  8
C7
  10
381.216400
  20
223.339400
  0
VERTEX
  8
C7
  10
381.216800
  20
224.241800
  0
VERTEX
  8
C7
  10
381.213800
  20
225.144200
  0
VERTEX
  8
C7
  10
381.207300
  20
226.046500
  0
VERTEX
  8
C7
  10
381.197400
  20
226.948600
  0
VERTEX
  8
C7
  10
381.184100
  20
227.850500
  0
VERTEX
  8
C7
  10
381.167500
  20
228.752000
  0
VERTEX
  8
C7
  10
381.147700
  20
229.653000
  0
VERTEX
  8
C7
  10
381.124600
  20
230.553600
  0
VERTEX
  8
C7
  10
381.098400
  20
231.453600
  0
VERTEX
  8
C7
  10
381.069100
  20
232.352900
  0
VERTEX
  8
C7
  10
381.036700
  20
233.251400
  0
VERTEX
  8
C7
  10
381.001300
  20
234.149100
  0
VERTEX
  8
C7
  10
380.963000
  20
235.045800
  0
VERTEX
  8
C7
  10
380.921800
  20
235.941500
  0
VERTEX
  8
C7
  10
380.877800
  20
236.836200
  0
VERTEX
  8
C7
  10
380.831000
  20
237.729600
  0
VERTEX
  8
C7
  10
380.781400
  20
238.621800
  0
VERTEX
  8
C7
  10
380.729100
  20
239.512700
  0
VERTEX
  8
C7
  10
380.674300
  20
240.402100
  0
VERTEX
  8
C7
  10
380.616800
  20
241.290000
  0
VERTEX
  8
C7
  10
380.556800
  20
242.176300
  0
VERTEX
  8
C7
  10
380.494300
  20
243.061000
  0
VERTEX
  8
C7
  10
380.429500
  20
243.943800
  0
VERTEX
  8
C7
  10
380.362200
  20
244.824900
  0
VERTEX
  8
C7
  10
380.292600
  20
245.704000
  0
VERTEX
  8
C7
  10
380.220800
  20
246.581000
  0
VERTEX
  8
C7
  10
380.146700
  20
247.456000
  0
VERTEX
  8
C7
  10
380.070500
  20
248.328800
  0
VERTEX
  8
C7
  10
379.992200
  20
249.199400
  0
VERTEX
  8
C7
  10
379.911800
  20
250.067600
  0
VERTEX
  8
C7
  10
379.829400
  20
250.933400
  0
VERTEX
  8
C7
  10
379.745000
  20
251.796600
  0
VERTEX
  8
C7
  10
379.658800
  20
252.657300
  0
VERTEX
  8
C7
  10
379.570700
  20
253.515300
  0
VERTEX
  8
C7
  10
379.480800
  20
254.370500
  0
VERTEX
  8
C7
  10
379.389200
  20
255.222900
  0
VERTEX
  8
C7
  10
379.295800
  20
256.072300
  0
VERTEX
  8
C7
  10
379.200900
  20
256.918800
  0
VERTEX
  8
C7
  10
379.104300
  20
257.762100
  0
VERTEX
  8
C7
  10
379.006200
  20
258.602300
  0
VERTEX
  8
C7
  10
378.906700
  20
259.439200
  0
VERTEX
  8
C7
  10
378.805700
  20
260.272800
  0
VERTEX
  8
C7
  10
378.703300
  20
261.102900
  0
VERTEX
  8
C7
  10
378.599600
  20
261.929500
  0
VERTEX
  8
C7
  10
378.494600
  20
262.752500
  0
VERTEX
  8
C7
  10
378.388400
  20
263.571900
  0
VERTEX
  8
C7
  10
378.281000
  20
264.387500
  0
VERTEX
  8
C7
  10
378.172500
  20
265.199200
  0
VERTEX
  8
C7
  10
378.063000
  20
266.007100
  0
VERTEX
  8
C7
  10
377.952400
  20
266.810900
  0
VERTEX
  8
C7
  10
377.840900
  20
267.610600
  0
VERTEX
  8
C7
  10
377.728400
  20
268.406100
  0
VERTEX
  8
C7
  10
377.615100
  20
269.197400
  0
VERTEX
  8
C7
  10
377.501000
  20
269.984300
  0
VERTEX
  8
C7
  10
377.386200
  20
270.766800
  0
VERTEX
  8
C7
  10
377.270700
  20
271.544800
  0
VERTEX
  8
C7
  10
377.154500
  20
272.318200
  0
VERTEX
  8
C7
  10
377.037700
  20
273.086900
  0
VERTEX
  8
C7
  10
376.920300
  20
273.850900
  0
VERTEX
  8
C7
  10
376.802500
  20
274.610000
  0
VERTEX
  8
C7
  10
376.684300
  20
275.364200
  0
VERTEX
  8
C7
  10
376.565600
  20
276.113400
  0
VERTEX
  8
C7
  10
376.446600
  20
276.857500
  0
VERTEX
  8
C7
  10
376.327400
  20
277.596400
  0
VERTEX
  8
C7
  10
376.207900
  20
278.330100
  0
VERTEX
  8
C7
  10
376.088200
  20
279.058400
  0
VERTEX
  8
C7
  10
375.968400
  20
279.781300
  0
VERTEX
  8
C7
  10
375.848500
  20
280.498600
  0
VERTEX
  8
C7
  10
375.728700
  20
281.210400
  0
VERTEX
  8
C7
  10
375.608800
  20
281.916500
  0
VERTEX
  8
C7
  10
375.489000
  20
282.616900
  0
VERTEX
  8
C7
  10
375.369400
  20
283.311400
  0
VERTEX
  8
C7
  10
375.250000
  20
284.000000
  0
VERTEX
  8
C7
  10
375.071700
  20
285.012400
  0
VERTEX
  8
C7
  10
374.889700
  20
286.024100
  0
VERTEX
  8
C7
  10
374.703900
  20
287.034800
  0
VERTEX
  8
C7
  10
374.514500
  20
288.044700
  0
VERTEX
  8
C7
  10
374.321300
  20
289.053800
  0
VERTEX
  8
C7
  10
374.124500
  20
290.062100
  0
VERTEX
  8
C7
  10
373.924100
  20
291.069500
  0
VERTEX
  8
C7
  10
373.720100
  20
292.076100
  0
VERTEX
  8
C7
  10
373.512600
  20
293.081900
  0
VERTEX
  8
C7
  10
373.301600
  20
294.086900
  0
VERTEX
  8
C7
  10
373.087200
  20
295.091100
  0
VERTEX
  8
C7
  10
372.869300
  20
296.094500
  0
VERTEX
  8
C7
  10
372.648100
  20
297.097200
  0
VERTEX
  8
C7
  10
372.423600
  20
298.099000
  0
VERTEX
  8
C7
  10
372.195700
  20
299.100200
  0
VERTEX
  8
C7
  10
371.964600
  20
300.100500
  0
VERTEX
  8
C7
  10
371.730200
  20
301.100200
  0
VERTEX
  8
C7
  10
371.492600
  20
302.099100
  0
VERTEX
  8
C7
  10
371.252000
  20
303.097200
  0
VERTEX
  8
C7
  10
371.008100
  20
304.094700
  0
VERTEX
  8
C7
  10
370.761300
  20
305.091400
  0
VERTEX
  8
C7
  10
370.511300
  20
306.087500
  0
VERTEX
  8
C7
  10
370.258400
  20
307.082800
  0
VERTEX
  8
C7
  10
370.002500
  20
308.077500
  0
VERTEX
  8
C7
  10
369.743700
  20
309.071500
  0
VERTEX
  8
C7
  10
369.482000
  20
310.064800
  0
VERTEX
  8
C7
  10
369.217500
  20
311.057500
  0
VERTEX
  8
C7
  10
368.950100
  20
312.049500
  0
VERTEX
  8
C7
  10
368.680000
  20
313.040800
  0
VERTEX
  8
C7
  10
368.407100
  20
314.031500
  0
VERTEX
  8
C7
  10
368.131500
  20
315.021600
  0
VERTEX
  8
C7
  10
367.853300
  20
316.011100
  0
VERTEX
  8
C7
  10
367.572500
  20
317.000000
  0
VERTEX
  8
C7
  10
367.302000
  20
317.923300
  0
VERTEX
  8
C7
  10
367.018200
  20
318.847400
  0
VERTEX
  8
C7
  10
366.721800
  20
319.772100
  0
VERTEX
  8
C7
  10
366.413400
  20
320.697400
  0
VERTEX
  8
C7
  10
366.094000
  20
321.623400
  0
VERTEX
  8
C7
  10
365.764100
  20
322.550000
  0
VERTEX
  8
C7
  10
365.424600
  20
323.477100
  0
VERTEX
  8
C7
  10
365.076200
  20
324.404800
  0
VERTEX
  8
C7
  10
364.719800
  20
325.333000
  0
VERTEX
  8
C7
  10
364.355900
  20
326.261700
  0
VERTEX
  8
C7
  10
363.985500
  20
327.190800
  0
VERTEX
  8
C7
  10
363.609200
  20
328.120300
  0
VERTEX
  8
C7
  10
363.227800
  20
329.050300
  0
VERTEX
  8
C7
  10
362.842100
  20
329.980600
  0
VERTEX
  8
C7
  10
362.452800
  20
330.911300
  0
VERTEX
  8
C7
  10
362.060600
  20
331.842300
  0
VERTEX
  8
C7
  10
361.666400
  20
332.773500
  0
VERTEX
  8
C7
  10
361.270900
  20
333.705100
  0
VERTEX
  8
C7
  10
360.874800
  20
334.636800
  0
VERTEX
  8
C7
  10
360.478900
  20
335.568800
  0
VERTEX
  8
C7
  10
360.084000
  20
336.501000
  0
VERTEX
  8
C7
  10
359.690700
  20
337.433300
  0
VERTEX
  8
C7
  10
359.299900
  20
338.365800
  0
VERTEX
  8
C7
  10
358.912400
  20
339.298300
  0
VERTEX
  8
C7
  10
358.528800
  20
340.231000
  0
VERTEX
  8
C7
  10
358.149900
  20
341.163600
  0
VERTEX
  8
C7
  10
357.776500
  20
342.096300
  0
VERTEX
  8
C7
  10
357.409400
  20
343.029000
  0
VERTEX
  8
C7
  10
357.049200
  20
343.961700
  0
VERTEX
  8
C7
  10
356.696800
  20
344.894200
  0
VERTEX
  8
C7
  10
356.352900
  20
345.826800
  0
VERTEX
  8
C7
  10
356.018300
  20
346.759100
  0
VERTEX
  8
C7
  10
355.693600
  20
347.691400
  0
VERTEX
  8
C7
  10
355.379800
  20
348.623500
  0
VERTEX
  8
C7
  10
355.077400
  20
349.555300
  0
VERTEX
  8
C7
  10
354.787400
  20
350.487000
  0
VERTEX
  8
C7
  10
354.510300
  20
351.418400
  0
VERTEX
  8
C7
  10
354.247100
  20
352.349500
  0
VERTEX
  8
C7
  10
353.998400
  20
353.280300
  0
VERTEX
  8
C7
  10
353.765000
  20
354.210800
  0
VERTEX
  8
C7
  10
353.547700
  20
355.140900
  0
VERTEX
  8
C7
  10
353.347200
  20
356.070600
  0
VERTEX
  8
C7
  10
353.164300
  20
357.000000
  0
VERTEX
  8
C7
  10
353.044100
  20
357.935900
  0
VERTEX
  8
C7
  10
353.025000
  20
358.877700
  0
VERTEX
  8
C7
  10
353.095900
  20
359.824000
  0
VERTEX
  8
C7
  10
353.245200
  20
360.773300
  0
VERTEX
  8
C7
  10
353.461900
  20
361.724100
  0
VERTEX
  8
C7
  10
353.734500
  20
362.675100
  0
VERTEX
  8
C7
  10
354.051800
  20
363.624700
  0
VERTEX
  8
C7
  10
354.402400
  20
364.571600
  0
VERTEX
  8
C7
  10
354.775100
  20
365.514200
  0
VERTEX
  8
C7
  10
355.158600
  20
366.451100
  0
VERTEX
  8
C7
  10
355.541500
  20
367.380900
  0
VERTEX
  8
C7
  10
355.912600
  20
368.302200
  0
VERTEX
  8
C7
  10
356.260500
  20
369.213400
  0
VERTEX
  8
C7
  10
356.574000
  20
370.113100
  0
VERTEX
  8
C7
  10
356.841800
  20
371.000000
  0
VERTEX
  8
C7
  10
357.076800
  20
371.866600
  0
VERTEX
  8
C7
  10
357.311600
  20
372.751800
  0
VERTEX
  8
C7
  10
357.545000
  20
373.654200
  0
VERTEX
  8
C7
  10
357.776100
  20
374.572800
  0
VERTEX
  8
C7
  10
358.003800
  20
375.506500
  0
VERTEX
  8
C7
  10
358.227100
  20
376.454000
  0
VERTEX
  8
C7
  10
358.445000
  20
377.414100
  0
VERTEX
  8
C7
  10
358.656400
  20
378.385900
  0
VERTEX
  8
C7
  10
358.860300
  20
379.368100
  0
VERTEX
  8
C7
  10
359.055700
  20
380.359500
  0
VERTEX
  8
C7
  10
359.241600
  20
381.359000
  0
VERTEX
  8
C7
  10
359.416800
  20
382.365500
  0
VERTEX
  8
C7
  10
359.580500
  20
383.377800
  0
VERTEX
  8
C7
  10
359.731500
  20
384.394700
  0
VERTEX
  8
C7
  10
359.868900
  20
385.415200
  0
VERTEX
  8
C7
  10
359.991600
  20
386.438000
  0
VERTEX
  8
C7
  10
360.098600
  20
387.462100
  0
VERTEX
  8
C7
  10
360.188800
  20
388.486100
  0
VERTEX
  8
C7
  10
360.261300
  20
389.509100
  0
VERTEX
  8
C7
  10
360.314900
  20
390.529900
  0
VERTEX
  8
C7
  10
360.348800
  20
391.547300
  0
VERTEX
  8
C7
  10
360.361800
  20
392.560100
  0
VERTEX
  8
C7
  10
360.352900
  20
393.567200
  0
VERTEX
  8
C7
  10
360.321100
  20
394.567500
  0
VERTEX
  8
C7
  10
360.265300
  20
395.559800
  0
VERTEX
  8
C7
  10
360.184600
  20
396.543000
  0
VERTEX
  8
C7
  10
360.077900
  20
397.515900
  0
VERTEX
  8
C7
  10
359.944200
  20
398.477300
  0
VERTEX
  8
C7
  10
359.782400
  20
399.426100
  0
VERTEX
  8
C7
  10
359.591600
  20
400.361300
  0
VERTEX
  8
C7
  10
359.370600
  20
401.281500
  0
VERTEX
  8
C7
  10
359.118500
  20
402.185600
  0
VERTEX
  8
C7
  10
358.834300
  20
403.072600
  0
VERTEX
  8
C7
  10
358.516900
  20
403.941300
  0
VERTEX
  8
C7
  10
358.164800
  20
404.711700
  0
VERTEX
  8
C7
  10
357.747800
  20
405.389900
  0
VERTEX
  8
C7
  10
357.269700
  20
405.979900
  0
VERTEX
  8
C7
  10
356.734300
  20
406.485800
  0
VERTEX
  8
C7
  10
356.145500
  20
406.911600
  0
VERTEX
  8
C7
  10
355.507000
  20
407.261400
  0
VERTEX
  8
C7
  10
354.822700
  20
407.539200
  0
VERTEX
  8
C7
  10
354.096400
  20
407.749200
  0
VERTEX
  8
C7
  10
353.332000
  20
407.895400
  0
VERTEX
  8
C7
  10
352.533200
  20
407.981900
  0
VERTEX
  8
C7
  10
351.703800
  20
408.012600
  0
VERTEX
  8
C7
  10
350.847700
  20
407.991800
  0
VERTEX
  8
C7
  10
349.968800
  20
407.923500
  0
VERTEX
  8
C7
  10
349.070800
  20
407.811600
  0
VERTEX
  8
C7
  10
348.157500
  20
407.660400
  0
VERTEX
  8
C7
  10
347.232800
  20
407.473800
  0
VERTEX
  8
C7
  10
346.300400
  20
407.255900
  0
VERTEX
  8
C7
  10
345.364300
  20
407.010900
  0
VERTEX
  8
C7
  10
344.428200
  20
406.742700
  0
VERTEX
  8
C7
  10
343.496000
  20
406.455400
  0
VERTEX
  8
C7
  10
342.571400
  20
406.153100
  0
VERTEX
  8
C7
  10
341.658300
  20
405.839800
  0
VERTEX
  8
C7
  10
340.760600
  20
405.519700
  0
VERTEX
  8
C7
  10
339.881900
  20
405.196800
  0
VERTEX
  8
C7
  10
339.026200
  20
404.875100
  0
VERTEX
  8
C7
  10
338.197300
  20
404.558700
  0
VERTEX
  8
C7
  10
337.399000
  20
404.251800
  0
VERTEX
  8
C7
  10
336.635100
  20
403.958200
  0
VERTEX
  8
C7
  10
335.909400
  20
403.682200
  0
VERTEX
  8
C7
  10
335.225800
  20
403.427800
  0
VERTEX
  8
C7
  10
334.588000
  20
403.199000
  0
VERTEX
  8
C7
  10
334.000000
  20
403.000000
  0
VERTEX
  8
C7
  10
333.869500
  20
403.665200
  0
VERTEX
  8
C7
  10
333.704800
  20
404.388300
  0
VERTEX
  8
C7
  10
333.506800
  20
405.163000
  0
VERTEX
  8
C7
  10
333.276000
  20
405.983300
  0
VERTEX
  8
C7
  10
333.013500
  20
406.843000
  0
VERTEX
  8
C7
  10
332.719800
  20
407.736000
  0
VERTEX
  8
C7
  10
332.396000
  20
408.656100
  0
VERTEX
  8
C7
  10
332.042600
  20
409.597200
  0
VERTEX
  8
C7
  10
331.660600
  20
410.553100
  0
VERTEX
  8
C7
  10
331.250600
  20
411.517800
  0
VERTEX
  8
C7
  10
330.813600
  20
412.485100
  0
VERTEX
  8
C7
  10
330.350300
  20
413.448800
  0
VERTEX
  8
C7
  10
329.861400
  20
414.402800
  0
VERTEX
  8
C7
  10
329.347800
  20
415.341100
  0
VERTEX
  8
C7
  10
328.810200
  20
416.257300
  0
VERTEX
  8
C7
  10
328.249500
  20
417.145500
  0
VERTEX
  8
C7
  10
327.666500
  20
417.999400
  0
VERTEX
  8
C7
  10
327.061900
  20
418.813000
  0
VERTEX
  8
C7
  10
326.436400
  20
419.580100
  0
VERTEX
  8
C7
  10
325.791000
  20
420.294500
  0
VERTEX
  8
C7
  10
325.126400
  20
420.950200
  0
VERTEX
  8
C7
  10
324.443400
  20
421.541000
  0
VERTEX
  8
C7
  10
323.742800
  20
422.060700
  0
VERTEX
  8
C7
  10
323.025300
  20
422.503200
  0
VERTEX
  8
C7
  10
322.291800
  20
422.862400
  0
VERTEX
  8
C7
  10
321.543100
  20
423.132200
  0
VERTEX
  8
C7
  10
320.779800
  20
423.306300
  0
VERTEX
  8
C7
  10
320.003000
  20
423.378800
  0
VERTEX
  8
C7
  10
319.261900
  20
423.355900
  0
VERTEX
  8
C7
  10
318.528100
  20
423.253000
  0
VERTEX
  8
C7
  10
317.801500
  20
423.074100
  0
VERTEX
  8
C7
  10
317.081800
  20
422.823200
  0
VERTEX
  8
C7
  10
316.368900
  20
422.504400
  0
VERTEX
  8
C7
  10
315.662700
  20
422.121700
  0
VERTEX
  8
C7
  10
314.963100
  20
421.679300
  0
VERTEX
  8
C7
  10
314.270000
  20
421.181000
  0
VERTEX
  8
C7
  10
313.583100
  20
420.631000
  0
VERTEX
  8
C7
  10
312.902300
  20
420.033400
  0
VERTEX
  8
C7
  10
312.227600
  20
419.392100
  0
VERTEX
  8
C7
  10
311.558700
  20
418.711300
  0
VERTEX
  8
C7
  10
310.895600
  20
417.994900
  0
VERTEX
  8
C7
  10
310.238100
  20
417.247100
  0
VERTEX
  8
C7
  10
309.586000
  20
416.471900
  0
VERTEX
  8
C7
  10
308.939300
  20
415.673300
  0
VERTEX
  8
C7
  10
308.297700
  20
414.855400
  0
VERTEX
  8
C7
  10
307.661200
  20
414.022200
  0
VERTEX
  8
C7
  10
307.029600
  20
413.177900
  0
VERTEX
  8
C7
  10
306.402800
  20
412.326300
  0
VERTEX
  8
C7
  10
305.780600
  20
411.471600
  0
VERTEX
  8
C7
  10
305.162900
  20
410.617900
  0
VERTEX
  8
C7
  10
304.549600
  20
409.769200
  0
VERTEX
  8
C7
  10
303.940500
  20
408.929500
  0
VERTEX
  8
C7
  10
303.335400
  20
408.102900
  0
VERTEX
  8
C7
  10
302.734400
  20
407.293400
  0
VERTEX
  8
C7
  10
302.137100
  20
406.505100
  0
VERTEX
  8
C7
  10
301.543500
  20
405.742100
  0
VERTEX
  8
C7
  10
300.953400
  20
405.008300
  0
VERTEX
  8
C7
  10
300.366800
  20
404.307900
  0
VERTEX
  8
C7
  10
299.783400
  20
403.644900
  0
VERTEX
  8
C7
  10
299.203100
  20
403.023300
  0
VERTEX
  8
C7
  10
298.625800
  20
402.447200
  0
VERTEX
  8
C7
  10
298.051400
  20
401.920600
  0
VERTEX
  8
C7
  10
297.479600
  20
401.447700
  0
VERTEX
  8
C7
  10
296.910500
  20
401.032400
  0
SEQEND
  8
C7
  0
POLYLINE
  8
C7
  66
1
  10
296.910400
  20
401.032400
  0
VERTEX
  8
C7
  10
296.910400
  20
401.032400
  0
VERTEX
  8
C7
  10
296.145300
  20
400.549000
  0
VERTEX
  8
C7
  10
295.351000
  20
400.113600
  0
VERTEX
  8
C7
  10
294.529500
  20
399.722700
  0
VERTEX
  8
C7
  10
293.682800
  20
399.372900
  0
VERTEX
  8
C7
  10
292.813000
  20
399.060600
  0
VERTEX
  8
C7
  10
291.922200
  20
398.782400
  0
VERTEX
  8
C7
  10
291.012400
  20
398.534800
  0
VERTEX
  8
C7
  10
290.085700
  20
398.314400
  0
VERTEX
  8
C7
  10
289.144200
  20
398.117700
  0
VERTEX
  8
C7
  10
288.189800
  20
397.941300
  0
VERTEX
  8
C7
  10
287.224700
  20
397.781700
  0
VERTEX
  8
C7
  10
286.250900
  20
397.635400
  0
VERTEX
  8
C7
  10
285.270400
  20
397.499000
  0
VERTEX
  8
C7
  10
284.285400
  20
397.369000
  0
VERTEX
  8
C7
  10
283.297900
  20
397.241900
  0
VERTEX
  8
C7
  10
282.309900
  20
397.114300
  0
VERTEX
  8
C7
  10
281.323500
  20
396.982700
  0
VERTEX
  8
C7
  10
280.340700
  20
396.843700
  0
VERTEX
  8
C7
  10
279.363700
  20
396.693800
  0
VERTEX
  8
C7
  10
278.394400
  20
396.529500
  0
VERTEX
  8
C7
  10
277.435000
  20
396.347400
  0
VERTEX
  8
C7
  10
276.487400
  20
396.144000
  0
VERTEX
  8
C7
  10
275.553800
  20
395.915900
  0
VERTEX
  8
C7
  10
274.636200
  20
395.659600
  0
VERTEX
  8
C7
  10
273.736700
  20
395.371600
  0
VERTEX
  8
C7
  10
272.857200
  20
395.048400
  0
VERTEX
  8
C7
  10
272.000000
  20
394.686700
  0
VERTEX
  8
C7
  10
271.062000
  20
394.248500
  0
VERTEX
  8
C7
  10
270.144600
  20
393.792000
  0
VERTEX
  8
C7
  10
269.247200
  20
393.317700
  0
VERTEX
  8
C7
  10
268.369100
  20
392.826100
  0
VERTEX
  8
C7
  10
267.509600
  20
392.317600
  0
VERTEX
  8
C7
  10
266.668100
  20
391.793000
  0
VERTEX
  8
C7
  10
265.843800
  20
391.252600
  0
VERTEX
  8
C7
  10
265.036200
  20
390.697000
  0
VERTEX
  8
C7
  10
264.244500
  20
390.126800
  0
VERTEX
  8
C7
  10
263.468000
  20
389.542500
  0
VERTEX
  8
C7
  10
262.706200
  20
388.944600
  0
VERTEX
  8
C7
  10
261.958300
  20
388.333700
  0
VERTEX
  8
C7
  10
261.223600
  20
387.710300
  0
VERTEX
  8
C7
  10
260.501600
  20
387.074800
  0
VERTEX
  8
C7
  10
259.791500
  20
386.428000
  0
VERTEX
  8
C7
  10
259.092700
  20
385.770200
  0
VERTEX
  8
C7
  10
258.404400
  20
385.102100
  0
VERTEX
  8
C7
  10
257.726100
  20
384.424100
  0
VERTEX
  8
C7
  10
257.057000
  20
383.736800
  0
VERTEX
  8
C7
  10
256.396600
  20
383.040700
  0
VERTEX
  8
C7
  10
255.744000
  20
382.336400
  0
VERTEX
  8
C7
  10
255.098700
  20
381.624400
  0
VERTEX
  8
C7
  10
254.460000
  20
380.905200
  0
VERTEX
  8
C7
  10
253.827200
  20
380.179400
  0
VERTEX
  8
C7
  10
253.199600
  20
379.447500
  0
VERTEX
  8
C7
  10
252.576700
  20
378.710000
  0
VERTEX
  8
C7
  10
251.957600
  20
377.967400
  0
VERTEX
  8
C7
  10
251.341800
  20
377.220400
  0
VERTEX
  8
C7
  10
250.728500
  20
376.469400
  0
VERTEX
  8
C7
  10
250.117200
  20
375.714900
  0
VERTEX
  8
C7
  10
249.507100
  20
374.957500
  0
VERTEX
  8
C7
  10
248.897600
  20
374.197800
  0
VERTEX
  8
C7
  10
248.287900
  20
373.436200
  0
VERTEX
  8
C7
  10
247.677500
  20
372.673300
  0
VERTEX
  8
C7
  10
247.065700
  20
371.909700
  0
VERTEX
  8
C7
  10
246.451700
  20
371.145800
  0
VERTEX
  8
C7
  10
245.835000
  20
370.382200
  0
VERTEX
  8
C7
  10
245.214800
  20
369.619400
  0
VERTEX
  8
C7
  10
244.590600
  20
368.858000
  0
VERTEX
  8
C7
  10
243.961500
  20
368.098500
  0
VERTEX
  8
C7
  10
243.327000
  20
367.341500
  0
VERTEX
  8
C7
  10
242.686400
  20
366.587300
  0
VERTEX
  8
C7
  10
242.039000
  20
365.836700
  0
VERTEX
  8
C7
  10
241.384200
  20
365.090200
  0
VERTEX
  8
C7
  10
240.734000
  20
364.399300
  0
VERTEX
  8
C7
  10
240.038200
  20
363.735600
  0
VERTEX
  8
C7
  10
239.304000
  20
363.094400
  0
VERTEX
  8
C7
  10
238.539000
  20
362.471100
  0
VERTEX
  8
C7
  10
237.750500
  20
361.861200
  0
VERTEX
  8
C7
  10
236.946200
  20
361.259900
  0
VERTEX
  8
C7
  10
236.133300
  20
360.662800
  0
VERTEX
  8
C7
  10
235.319500
  20
360.065200
  0
VERTEX
  8
C7
  10
234.512000
  20
359.462500
  0
VERTEX
  8
C7
  10
233.718500
  20
358.850200
  0
VERTEX
  8
C7
  10
232.946300
  20
358.223600
  0
VERTEX
  8
C7
  10
232.202900
  20
357.578100
  0
VERTEX
  8
C7
  10
231.495700
  20
356.909100
  0
VERTEX
  8
C7
  10
230.832300
  20
356.212100
  0
VERTEX
  8
C7
  10
230.220100
  20
355.482400
  0
VERTEX
  8
C7
  10
229.666500
  20
354.715400
  0
VERTEX
  8
C7
  10
229.179000
  20
353.906600
  0
VERTEX
  8
C7
  10
228.756000
  20
353.086600
  0
VERTEX
  8
C7
  10
228.377000
  20
352.264400
  0
VERTEX
  8
C7
  10
228.041000
  20
351.440400
  0
VERTEX
  8
C7
  10
227.747200
  20
350.614800
  0
VERTEX
  8
C7
  10
227.494800
  20
349.787900
  0
VERTEX
  8
C7
  10
227.282800
  20
348.960000
  0
VERTEX
  8
C7
  10
227.110400
  20
348.131400
  0
VERTEX
  8
C7
  10
226.976700
  20
347.302400
  0
VERTEX
  8
C7
  10
226.880900
  20
346.473200
  0
VERTEX
  8
C7
  10
226.822100
  20
345.644300
  0
VERTEX
  8
C7
  10
226.799400
  20
344.815700
  0
VERTEX
  8
C7
  10
226.811900
  20
343.987900
  0
VERTEX
  8
C7
  10
226.858900
  20
343.161200
  0
VERTEX
  8
C7
  10
226.939300
  20
342.335700
  0
VERTEX
  8
C7
  10
227.052400
  20
341.511900
  0
VERTEX
  8
C7
  10
227.197300
  20
340.690000
  0
VERTEX
  8
C7
  10
227.373100
  20
339.870300
  0
VERTEX
  8
C7
  10
227.578900
  20
339.053100
  0
VERTEX
  8
C7
  10
227.813900
  20
338.238600
  0
VERTEX
  8
C7
  10
228.077300
  20
337.427200
  0
VERTEX
  8
C7
  10
228.368000
  20
336.619200
  0
VERTEX
  8
C7
  10
228.685400
  20
335.814800
  0
VERTEX
  8
C7
  10
229.028400
  20
335.014400
  0
VERTEX
  8
C7
  10
229.396300
  20
334.218100
  0
VERTEX
  8
C7
  10
229.788200
  20
333.426500
  0
VERTEX
  8
C7
  10
230.203200
  20
332.639600
  0
VERTEX
  8
C7
  10
230.640400
  20
331.857800
  0
VERTEX
  8
C7
  10
231.098900
  20
331.081400
  0
VERTEX
  8
C7
  10
231.578000
  20
330.310700
  0
VERTEX
  8
C7
  10
232.076700
  20
329.545900
  0
VERTEX
  8
C7
  10
232.594100
  20
328.787400
  0
VERTEX
  8
C7
  10
233.129500
  20
328.035500
  0
VERTEX
  8
C7
  10
233.681900
  20
327.290400
  0
VERTEX
  8
C7
  10
234.250400
  20
326.552500
  0
VERTEX
  8
C7
  10
234.834300
  20
325.822000
  0
VERTEX
  8
C7
  10
235.432500
  20
325.099200
  0
VERTEX
  8
C7
  10
236.044400
  20
324.384300
  0
VERTEX
  8
C7
  10
236.668900
  20
323.677800
  0
VERTEX
  8
C7
  10
237.305200
  20
322.979900
  0
VERTEX
  8
C7
  10
237.952500
  20
322.290900
  0
VERTEX
  8
C7
  10
238.609800
  20
321.611000
  0
VERTEX
  8
C7
  10
239.276400
  20
320.940600
  0
VERTEX
  8
C7
  10
239.951400
  20
320.279900
  0
VERTEX
  8
C7
  10
240.633800
  20
319.629200
  0
VERTEX
  8
C7
  10
241.322800
  20
318.988900
  0
VERTEX
  8
C7
  10
242.017600
  20
318.359200
  0
VERTEX
  8
C7
  10
242.717200
  20
317.740500
  0
VERTEX
  8
C7
  10
243.420900
  20
317.132900
  0
VERTEX
  8
C7
  10
244.127700
  20
316.536800
  0
VERTEX
  8
C7
  10
244.836800
  20
315.952500
  0
VERTEX
  8
C7
  10
245.547300
  20
315.380300
  0
VERTEX
  8
C7
  10
246.258300
  20
314.820400
  0
VERTEX
  8
C7
  10
246.969000
  20
314.273200
  0
VERTEX
  8
C7
  10
247.678500
  20
313.738900
  0
VERTEX
  8
C7
  10
248.386000
  20
313.217900
  0
VERTEX
  8
C7
  10
249.090500
  20
312.710300
  0
VERTEX
  8
C7
  10
249.791200
  20
312.216600
  0
VERTEX
  8
C7
  10
250.487200
  20
311.737000
  0
VERTEX
  8
C7
  10
251.177700
  20
311.271800
  0
VERTEX
  8
C7
  10
251.861800
  20
310.821300
  0
VERTEX
  8
C7
  10
252.538700
  20
310.385800
  0
VERTEX
  8
C7
  10
253.207300
  20
309.965500
  0
VERTEX
  8
C7
  10
253.867000
  20
309.560800
  0
VERTEX
  8
C7
  10
254.516800
  20
309.171900
  0
VERTEX
  8
C7
  10
255.155900
  20
308.799200
  0
VERTEX
  8
C7
  10
255.783300
  20
308.442900
  0
VERTEX
  8
C7
  10
256.398300
  20
308.103300
  0
VERTEX
  8
C7
  10
257.000000
  20
307.780800
  0
VERTEX
  8
C7
  10
257.677500
  20
307.433800
  0
VERTEX
  8
C7
  10
258.403900
  20
307.079600
  0
VERTEX
  8
C7
  10
259.172700
  20
306.716800
  0
VERTEX
  8
C7
  10
259.977500
  20
306.344200
  0
VERTEX
  8
C7
  10
260.811700
  20
305.960400
  0
VERTEX
  8
C7
  10
261.669100
  20
305.564400
  0
VERTEX
  8
C7
  10
262.543100
  20
305.154600
  0
VERTEX
  8
C7
  10
263.427300
  20
304.730000
  0
VERTEX
  8
C7
  10
264.315400
  20
304.289200
  0
VERTEX
  8
C7
  10
265.200800
  20
303.830900
  0
VERTEX
  8
C7
  10
266.077200
  20
303.353900
  0
VERTEX
  8
C7
  10
266.938000
  20
302.857000
  0
VERTEX
  8
C7
  10
267.777000
  20
302.338700
  0
VERTEX
  8
C7
  10
268.587600
  20
301.798000
  0
VERTEX
  8
C7
  10
269.363400
  20
301.233400
  0
VERTEX
  8
C7
  10
270.098000
  20
300.643800
  0
VERTEX
  8
C7
  10
270.785000
  20
300.027800
  0
VERTEX
  8
C7
  10
271.417900
  20
299.384200
  0
VERTEX
  8
C7
  10
271.990200
  20
298.711700
  0
VERTEX
  8
C7
  10
272.495700
  20
298.009100
  0
VERTEX
  8
C7
  10
272.927800
  20
297.275000
  0
VERTEX
  8
C7
  10
273.280100
  20
296.508300
  0
VERTEX
  8
C7
  10
273.546100
  20
295.707600
  0
VERTEX
  8
C7
  10
273.719500
  20
294.871600
  0
VERTEX
  8
C7
  10
273.793900
  20
293.999200
  0
VERTEX
  8
C7
  10
273.797300
  20
293.120100
  0
VERTEX
  8
C7
  10
273.764000
  20
292.229200
  0
VERTEX
  8
C7
  10
273.695500
  20
291.327100
  0
VERTEX
  8
C7
  10
273.593000
  20
290.415000
  0
VERTEX
  8
C7
  10
273.457800
  20
289.493700
  0
VERTEX
  8
C7
  10
273.291300
  20
288.564100
  0
VERTEX
  8
C7
  10
273.094800
  20
287.627200
  0
VERTEX
  8
C7
  10
272.869600
  20
286.683900
  0
VERTEX
  8
C7
  10
272.617000
  20
285.735100
  0
VERTEX
  8
C7
  10
272.338300
  20
284.781700
  0
VERTEX
  8
C7
  10
272.035000
  20
283.824700
  0
VERTEX
  8
C7
  10
271.708200
  20
282.865000
  0
VERTEX
  8
C7
  10
271.359300
  20
281.903600
  0
VERTEX
  8
C7
  10
270.989700
  20
280.941300
  0
VERTEX
  8
C7
  10
270.600700
  20
279.979000
  0
VERTEX
  8
C7
  10
270.193500
  20
279.017800
  0
VERTEX
  8
C7
  10
269.769500
  20
278.058500
  0
VERTEX
  8
C7
  10
269.330100
  20
277.102100
  0
VERTEX
  8
C7
  10
268.876500
  20
276.149400
  0
VERTEX
  8
C7
  10
268.410100
  20
275.201500
  0
VERTEX
  8
C7
  10
267.932200
  20
274.259200
  0
VERTEX
  8
C7
  10
267.444100
  20
273.323400
  0
VERTEX
  8
C7
  10
266.947200
  20
272.395200
  0
VERTEX
  8
C7
  10
266.442700
  20
271.475300
  0
VERTEX
  8
C7
  10
265.932000
  20
270.564800
  0
VERTEX
  8
C7
  10
265.416400
  20
269.664600
  0
VERTEX
  8
C7
  10
264.897300
  20
268.775600
  0
VERTEX
  8
C7
  10
264.375900
  20
267.898600
  0
VERTEX
  8
C7
  10
263.853500
  20
267.034800
  0
VERTEX
  8
C7
  10
263.331600
  20
266.184900
  0
VERTEX
  8
C7
  10
262.811400
  20
265.349900
  0
VERTEX
  8
C7
  10
262.294300
  20
264.530700
  0
VERTEX
  8
C7
  10
261.781500
  20
263.728300
  0
VERTEX
  8
C7
  10
261.274400
  20
262.943600
  0
VERTEX
  8
C7
  10
260.774300
  20
262.177400
  0
VERTEX
  8
C7
  10
260.282600
  20
261.430800
  0
VERTEX
  8
C7
  10
259.800500
  20
260.704700
  0
VERTEX
  8
C7
  10
259.329400
  20
260.000000
  0
VERTEX
  8
C7
  10
258.778900
  20
259.185800
  0
VERTEX
  8
C7
  10
258.222200
  20
258.375500
  0
VERTEX
  8
C7
  10
257.659700
  20
257.568900
  0
VERTEX
  8
C7
  10
257.091700
  20
256.765700
  0
VERTEX
  8
C7
  10
256.518400
  20
255.965700
  0
VERTEX
  8
C7
  10
255.940400
  20
255.168800
  0
VERTEX
  8
C7
  10
255.357800
  20
254.374700
  0
VERTEX
  8
C7
  10
254.771000
  20
253.583300
  0
VERTEX
  8
C7
  10
254.180400
  20
252.794200
  0
VERTEX
  8
C7
  10
253.586200
  20
252.007400
  0
VERTEX
  8
C7
  10
252.988900
  20
251.222600
  0
VERTEX
  8
C7
  10
252.388800
  20
250.439600
  0
VERTEX
  8
C7
  10
251.786100
  20
249.658200
  0
VERTEX
  8
C7
  10
251.181300
  20
248.878100
  0
VERTEX
  8
C7
  10
250.574700
  20
248.099300
  0
VERTEX
  8
C7
  10
249.966600
  20
247.321500
  0
VERTEX
  8
C7
  10
249.357300
  20
246.544400
  0
VERTEX
  8
C7
  10
248.747300
  20
245.767900
  0
VERTEX
  8
C7
  10
248.136700
  20
244.991700
  0
VERTEX
  8
C7
  10
247.526000
  20
244.215700
  0
VERTEX
  8
C7
  10
246.915500
  20
243.439700
  0
VERTEX
  8
C7
  10
246.305500
  20
242.663400
  0
VERTEX
  8
C7
  10
245.696400
  20
241.886700
  0
VERTEX
  8
C7
  10
245.088500
  20
241.109300
  0
VERTEX
  8
C7
  10
244.482100
  20
240.331000
  0
VERTEX
  8
C7
  10
243.877600
  20
239.551600
  0
VERTEX
  8
C7
  10
243.275400
  20
238.771000
  0
VERTEX
  8
C7
  10
242.675600
  20
237.988900
  0
VERTEX
  8
C7
  10
242.078800
  20
237.205100
  0
VERTEX
  8
C7
  10
241.485200
  20
236.419400
  0
VERTEX
  8
C7
  10
240.895100
  20
235.631600
  0
VERTEX
  8
C7
  10
240.308900
  20
234.841500
  0
VERTEX
  8
C7
  10
239.727000
  20
234.048800
  0
VERTEX
  8
C7
  10
239.149600
  20
233.253500
  0
VERTEX
  8
C7
  10
238.577100
  20
232.455200
  0
VERTEX
  8
C7
  10
238.009900
  20
231.653800
  0
VERTEX
  8
C7
  10
237.448200
  20
230.849100
  0
VERTEX
  8
C7
  10
236.892500
  20
230.040800
  0
VERTEX
  8
C7
  10
236.343000
  20
229.228800
  0
VERTEX
  8
C7
  10
235.800100
  20
228.412800
  0
VERTEX
  8
C7
  10
235.264100
  20
227.592600
  0
VERTEX
  8
C7
  10
234.735400
  20
226.768100
  0
VERTEX
  8
C7
  10
234.214200
  20
225.939100
  0
VERTEX
  8
C7
  10
233.701000
  20
225.105200
  0
VERTEX
  8
C7
  10
233.196100
  20
224.266400
  0
VERTEX
  8
C7
  10
232.699800
  20
223.422400
  0
VERTEX
  8
C7
  10
232.212400
  20
222.573000
  0
VERTEX
  8
C7
  10
231.734300
  20
221.717900
  0
VERTEX
  8
C7
  10
231.265800
  20
220.857100
  0
VERTEX
  8
C7
  10
230.807200
  20
219.990300
  0
VERTEX
  8
C7
  10
230.359000
  20
219.117300
  0
VERTEX
  8
C7
  10
229.921300
  20
218.237800
  0
VERTEX
  8
C7
  10
229.494700
  20
217.351800
  0
VERTEX
  8
C7
  10
229.079300
  20
216.458800
  0
VERTEX
  8
C7
  10
228.675500
  20
215.558900
  0
VERTEX
  8
C7
  10
228.283700
  20
214.651700
  0
VERTEX
  8
C7
  10
227.904300
  20
213.737100
  0
VERTEX
  8
C7
  10
227.537400
  20
212.814800
  0
VERTEX
  8
C7
  10
227.183600
  20
211.884600
  0
VERTEX
  8
C7
  10
226.843000
  20
210.946400
  0
VERTEX
  8
C7
  10
226.516200
  20
210.000000
  0
VERTEX
  8
C7
  10
226.291500
  20
209.319400
  0
VERTEX
  8
C7
  10
226.071100
  20
208.625000
  0
VERTEX
  8
C7
  10
225.855100
  20
207.917000
  0
VERTEX
  8
C7
  10
225.643500
  20
207.195900
  0
VERTEX
  8
C7
  10
225.436600
  20
206.462100
  0
VERTEX
  8
C7
  10
225.234500
  20
205.716000
  0
VERTEX
  8
C7
  10
225.037400
  20
204.957900
  0
VERTEX
  8
C7
  10
224.845300
  20
204.188300
  0
VERTEX
  8
C7
  10
224.658600
  20
203.407600
  0
VERTEX
  8
C7
  10
224.477300
  20
202.616100
  0
VERTEX
  8
C7
  10
224.301600
  20
201.814300
  0
VERTEX
  8
C7
  10
224.131600
  20
201.002500
  0
VERTEX
  8
C7
  10
223.967500
  20
200.181200
  0
VERTEX
  8
C7
  10
223.809400
  20
199.350700
  0
VERTEX
  8
C7
  10
223.657600
  20
198.511400
  0
VERTEX
  8
C7
  10
223.512100
  20
197.663800
  0
VERTEX
  8
C7
  10
223.373200
  20
196.808200
  0
VERTEX
  8
C7
  10
223.240900
  20
195.945100
  0
VERTEX
  8
C7
  10
223.115400
  20
195.074700
  0
VERTEX
  8
C7
  10
222.996900
  20
194.197600
  0
VERTEX
  8
C7
  10
222.885600
  20
193.314100
  0
VERTEX
  8
C7
  10
222.781500
  20
192.424700
  0
VERTEX
  8
C7
  10
222.684900
  20
191.529600
  0
VERTEX
  8
C7
  10
222.595900
  20
190.629400
  0
VERTEX
  8
C7
  10
222.514700
  20
189.724300
  0
VERTEX
  8
C7
  10
222.441300
  20
188.814800
  0
VERTEX
  8
C7
  10
222.376000
  20
187.901400
  0
VERTEX
  8
C7
  10
222.319000
  20
186.984300
  0
VERTEX
  8
C7
  10
222.270300
  20
186.064000
  0
VERTEX
  8
C7
  10
222.230100
  20
185.140900
  0
VERTEX
  8
C7
  10
222.198700
  20
184.215400
  0
VERTEX
  8
C7
  10
222.176100
  20
183.287900
  0
VERTEX
  8
C7
  10
222.162400
  20
182.358800
  0
VERTEX
  8
C7
  10
222.157900
  20
181.428400
  0
VERTEX
  8
C7
  10
222.162800
  20
180.497200
  0
VERTEX
  8
C7
  10
222.177100
  20
179.565500
  0
VERTEX
  8
C7
  10
222.201000
  20
178.633800
  0
VERTEX
  8
C7
  10
222.234600
  20
177.702500
  0
VERTEX
  8
C7
  10
222.278200
  20
176.771900
  0
VERTEX
  8
C7
  10
222.331900
  20
175.842500
  0
VERTEX
  8
C7
  10
222.395900
  20
174.914600
  0
VERTEX
  8
C7
  10
222.470200
  20
173.988600
  0
VERTEX
  8
C7
  10
222.555000
  20
173.065000
  0
VERTEX
  8
C7
  10
222.650600
  20
172.144100
  0
VERTEX
  8
C7
  10
222.757000
  20
171.226400
  0
VERTEX
  8
C7
  10
222.874400
  20
170.312200
  0
VERTEX
  8
C7
  10
223.003000
  20
169.401900
  0
VERTEX
  8
C7
  10
223.142900
  20
168.495900
  0
VERTEX
  8
C7
  10
223.294300
  20
167.594700
  0
VERTEX
  8
C7
  10
223.457300
  20
166.698600
  0
VERTEX
  8
C7
  10
223.632200
  20
165.807900
  0
VERTEX
  8
C7
  10
223.818900
  20
164.923200
  0
VERTEX
  8
C7
  10
224.017800
  20
164.044800
  0
VERTEX
  8
C7
  10
224.228900
  20
163.173100
  0
VERTEX
  8
C7
  10
224.452400
  20
162.308500
  0
VERTEX
  8
C7
  10
224.688400
  20
161.451300
  0
VERTEX
  8
C7
  10
224.937200
  20
160.602100
  0
VERTEX
  8
C7
  10
225.198900
  20
159.761100
  0
VERTEX
  8
C7
  10
225.473600
  20
158.928900
  0
VERTEX
  8
C7
  10
225.761400
  20
158.105700
  0
VERTEX
  8
C7
  10
226.062600
  20
157.291900
  0
VERTEX
  8
C7
  10
226.377300
  20
156.488100
  0
VERTEX
  8
C7
  10
226.705700
  20
155.694500
  0
VERTEX
  8
C7
  10
227.047800
  20
154.911600
  0
VERTEX
  8
C7
  10
227.403900
  20
154.139700
  0
VERTEX
  8
C7
  10
227.774100
  20
153.379300
  0
VERTEX
  8
C7
  10
228.158600
  20
152.630800
  0
VERTEX
  8
C7
  10
228.557500
  20
151.894500
  0
VERTEX
  8
C7
  10
228.971000
  20
151.170800
  0
VERTEX
  8
C7
  10
229.399200
  20
150.460200
  0
VERTEX
  8
C7
  10
229.842300
  20
149.763000
  0
VERTEX
  8
C7
  10
230.300400
  20
149.079700
  0
VERTEX
  8
C7
  10
230.773800
  20
148.410600
  0
VERTEX
  8
C7
  10
231.262500
  20
147.756100
  0
VERTEX
  8
C7
  10
231.766700
  20
147.116600
  0
VERTEX
  8
C7
  10
232.286500
  20
146.492600
  0
VERTEX
  8
C7
  10
232.822200
  20
145.884400
  0
VERTEX
  8
C7
  10
233.373900
  20
145.292400
  0
VERTEX
  8
C7
  10
233.941700
  20
144.717000
  0
VERTEX
  8
C7
  10
234.525700
  20
144.158600
  0
VERTEX
  8
C7
  10
235.126200
  20
143.617600
  0
VERTEX
  8
C7
  10
235.743300
  20
143.094400
  0
VERTEX
  8
C7
  10
236.377200
  20
142.589400
  0
VERTEX
  8
C7
  10
237.027900
  20
142.103000
  0
VERTEX
  8
C7
  10
237.695700
  20
141.635600
  0
VERTEX
  8
C7
  10
238.380700
  20
141.187500
  0
VERTEX
  8
C7
  10
239.083100
  20
140.759300
  0
VERTEX
  8
C7
  10
239.803000
  20
140.351200
  0
VERTEX
  8
C7
  10
240.540600
  20
139.963700
  0
VERTEX
  8
C7
  10
241.296000
  20
139.597200
  0
VERTEX
  8
C7
  10
242.069400
  20
139.252000
  0
VERTEX
  8
C7
  10
242.861000
  20
138.928600
  0
VERTEX
  8
C7
  10
243.670800
  20
138.627400
  0
VERTEX
  8
C7
  10
244.499100
  20
138.348700
  0
VERTEX
  8
C7
  10
245.346000
  20
138.093000
  0
VERTEX
  8
C7
  10
246.211700
  20
137.860600
  0
VERTEX
  8
C7
  10
247.096300
  20
137.651900
  0
VERTEX
  8
C7
  10
248.000000
  20
137.467500
  0
VERTEX
  8
C7
  10
249.044500
  20
137.288200
  0
VERTEX
  8
C7
  10
250.083200
  20
137.144700
  0
VERTEX
  8
C7
  10
251.116300
  20
137.035600
  0
VERTEX
  8
C7
  10
252.144100
  20
136.959800
  0
VERTEX
  8
C7
  10
253.166900
  20
136.915700
  0
VERTEX
  8
C7
  10
254.185000
  20
136.902200
  0
VERTEX
  8
C7
  10
255.198700
  20
136.917800
  0
VERTEX
  8
C7
  10
256.208200
  20
136.961300
  0
VERTEX
  8
C7
  10
257.213900
  20
137.031300
  0
VERTEX
  8
C7
  10
258.216100
  20
137.126600
  0
VERTEX
  8
C7
  10
259.214900
  20
137.245700
  0
VERTEX
  8
C7
  10
260.210800
  20
137.387400
  0
VERTEX
  8
C7
  10
261.204000
  20
137.550300
  0
VERTEX
  8
C7
  10
262.194700
  20
137.733200
  0
VERTEX
  8
C7
  10
263.183400
  20
137.934700
  0
VERTEX
  8
C7
  10
264.170200
  20
138.153400
  0
VERTEX
  8
C7
  10
265.155400
  20
138.388100
  0
VERTEX
  8
C7
  10
266.139400
  20
138.637400
  0
VERTEX
  8
C7
  10
267.122400
  20
138.900000
  0
VERTEX
  8
C7
  10
268.104700
  20
139.174600
  0
VERTEX
  8
C7
  10
269.086500
  20
139.459900
  0
VERTEX
  8
C7
  10
270.068300
  20
139.754500
  0
VERTEX
  8
C7
  10
271.050300
  20
140.057200
  0
VERTEX
  8
C7
  10
272.032700
  20
140.366500
  0
VERTEX
  8
C7
  10
273.015800
  20
140.681200
  0
VERTEX
  8
C7
  10
274.000000
  20
141.000000
  0
SEQEND
  8
C7
  0
POLYLINE
  8
C7
  66
1
  10
318.000000
  20
377.000000
  0
VERTEX
  8
C7
  10
318.000000
  20
377.000000
  0
VERTEX
  8
C7
  10
318.000000
  20
376.000000
  0
VERTEX
  8
C7
  10
319.121400
  20
376.018600
  0
VERTEX
  8
C7
  10
320.206000
  20
376.068200
  0
VERTEX
  8
C7
  10
321.256900
  20
376.148500
  0
VERTEX
  8
C7
  10
322.277200
  20
376.259300
  0
VERTEX
  8
C7
  10
323.270000
  20
376.400400
  0
VERTEX
  8
C7
  10
324.238500
  20
376.571500
  0
VERTEX
  8
C7
  10
325.185800
  20
376.772500
  0
VERTEX
  8
C7
  10
326.115100
  20
377.003000
  0
VERTEX
  8
C7
  10
327.029400
  20
377.263000
  0
VERTEX
  8
C7
  10
327.932000
  20
377.552100
  0
VERTEX
  8
C7
  10
328.825900
  20
377.870200
  0
VERTEX
  8
C7
  10
329.714400
  20
378.217000
  0
VERTEX
  8
C7
  10
330.600400
  20
378.592400
  0
VERTEX
  8
C7
  10
331.487200
  20
378.996000
  0
VERTEX
  8
C7
  10
332.378000
  20
379.427800
  0
VERTEX
  8
C7
  10
333.275700
  20
379.887300
  0
VERTEX
  8
C7
  10
334.183700
  20
380.374600
  0
VERTEX
  8
C7
  10
335.104900
  20
380.889200
  0
VERTEX
  8
C7
  10
336.042700
  20
381.431100
  0
VERTEX
  8
C7
  10
337.000000
  20
382.000000
  0
VERTEX
  8
C7
  10
336.000000
  20
376.000000
  0
VERTEX
  8
C7
  10
342.000000
  20
379.000000
  0
VERTEX
  8
C7
  10
343.000000
  20
370.000000
  0
VERTEX
  8
C7
  10
344.000000
  20
370.000000
  0
VERTEX
  8
C7
  10
344.195000
  20
370.981300
  0
VERTEX
  8
C7
  10
344.398700
  20
371.966600
  0
VERTEX
  8
C7
  10
344.608800
  20
372.955500
  0
VERTEX
  8
C7
  10
344.823200
  20
373.947600
  0
VERTEX
  8
C7
  10
345.039400
  20
374.942800
  0
VERTEX
  8
C7
  10
345.255200
  20
375.940600
  0
VERTEX
  8
C7
  10
345.468400
  20
376.940900
  0
VERTEX
  8
C7
  10
345.676700
  20
377.943200
  0
VERTEX
  8
C7
  10
345.877800
  20
378.947300
  0
VERTEX
  8
C7
  10
346.069500
  20
379.952900
  0
VERTEX
  8
C7
  10
346.249500
  20
380.959700
  0
VERTEX
  8
C7
  10
346.415400
  20
381.967400
  0
VERTEX
  8
C7
  10
346.565100
  20
382.975700
  0
VERTEX
  8
C7
  10
346.696300
  20
383.984300
  0
VERTEX
  8
C7
  10
346.806700
  20
384.992800
  0
VERTEX
  8
C7
  10
346.894000
  20
386.001000
  0
VERTEX
  8
C7
  10
346.956100
  20
387.008700
  0
VERTEX
  8
C7
  10
346.990500
  20
388.015400
  0
VERTEX
  8
C7
  10
346.995000
  20
389.020900
  0
VERTEX
  8
C7
  10
346.967400
  20
390.024800
  0
VERTEX
  8
C7
  10
346.905400
  20
391.027000
  0
VERTEX
  8
C7
  10
346.806700
  20
392.027000
  0
VERTEX
  8
C7
  10
346.669100
  20
393.024600
  0
VERTEX
  8
C7
  10
346.490300
  20
394.019500
  0
VERTEX
  8
C7
  10
346.268000
  20
395.011400
  0
VERTEX
  8
C7
  10
346.000000
  20
396.000000
  0
VERTEX
  8
C7
  10
318.000000
  20
377.000000
  0
SEQEND
  8
C7
  0
POLYLINE
  8
C7
  66
1
  10
266.000000
  20
362.000000
  0
VERTEX
  8
C7
  10
266.000000
  20
362.000000
  0
VERTEX
  8
C7
  10
266.130100
  20
360.863400
  0
VERTEX
  8
C7
  10
266.336300
  20
359.839700
  0
VERTEX
  8
C7
  10
266.615200
  20
358.923100
  0
VERTEX
  8
C7
  10
266.963000
  20
358.107500
  0
VERTEX
  8
C7
  10
267.376300
  20
357.387100
  0
VERTEX
  8
C7
  10
267.851600
  20
356.756000
  0
VERTEX
  8
C7
  10
268.385200
  20
356.208400
  0
VERTEX
  8
C7
  10
268.973700
  20
355.738300
  0
VERTEX
  8
C7
  10
269.613400
  20
355.339800
  0
VERTEX
  8
C7
  10
270.300900
  20
355.007000
  0
VERTEX
  8
C7
  10
271.032600
  20
354.734100
  0
VERTEX
  8
C7
  10
271.805000
  20
354.515100
  0
VERTEX
  8
C7
  10
272.614400
  20
354.344200
  0
VERTEX
  8
C7
  10
273.457400
  20
354.215500
  0
VERTEX
  8
C7
  10
274.330400
  20
354.123000
  0
VERTEX
  8
C7
  10
275.229900
  20
354.061000
  0
VERTEX
  8
C7
  10
276.152200
  20
354.023400
  0
VERTEX
  8
C7
  10
277.094000
  20
354.004400
  0
VERTEX
  8
C7
  10
278.051600
  20
353.998000
  0
VERTEX
  8
C7
  10
279.021400
  20
353.998500
  0
VERTEX
  8
C7
  10
280.000000
  20
354.000000
  0
VERTEX
  8
C7
  10
279.899600
  20
355.194900
  0
VERTEX
  8
C7
  10
279.736200
  20
356.289200
  0
VERTEX
  8
C7
  10
279.511600
  20
357.286300
  0
VERTEX
  8
C7
  10
279.227600
  20
358.189200
  0
VERTEX
  8
C7
  10
278.886000
  20
359.001200
  0
VERTEX
  8
C7
  10
278.488500
  20
359.725400
  0
VERTEX
  8
C7
  10
278.037000
  20
360.365200
  0
VERTEX
  8
C7
  10
277.533300
  20
360.923600
  0
VERTEX
  8
C7
  10
276.979100
  20
361.404000
  0
VERTEX
  8
C7
  10
276.376300
  20
361.809400
  0
VERTEX
  8
C7
  10
275.726600
  20
362.143200
  0
VERTEX
  8
C7
  10
275.031800
  20
362.408500
  0
VERTEX
  8
C7
  10
274.293800
  20
362.608500
  0
VERTEX
  8
C7
  10
273.514300
  20
362.746400
  0
VERTEX
  8
C7
  10
272.695100
  20
362.825500
  0
VERTEX
  8
C7
  10
271.838000
  20
362.848900
  0
VERTEX
  8
C7
  10
270.944800
  20
362.819800
  0
VERTEX
  8
C7
  10
270.017200
  20
362.741500
  0
VERTEX
  8
C7
  10
269.057200
  20
362.617200
  0
VERTEX
  8
C7
  10
268.066500
  20
362.450000
  0
VERTEX
  8
C7
  10
267.046800
  20
362.243200
  0
VERTEX
  8
C7
  10
266.000000
  20
362.000000
  0
SEQEND
  8
0
  0
ENDSEC
  0
EOF
