solid OpenSCAD_Model
  facet normal -1 0 0
    outer loop
      vertex -8 -5 -5
      vertex -8 23 5
      vertex -8 23 -5
    endloop
  endfacet
  facet normal -1 -0 0
    outer loop
      vertex -8 23 5
      vertex -8 -5 -5
      vertex -8 -5 5
    endloop
  endfacet
  facet normal -0 0 1
    outer loop
      vertex -8 23 5
      vertex 20 -5 5
      vertex 20 23 5
    endloop
  endfacet
  facet normal 0 0 1
    outer loop
      vertex 20 -5 5
      vertex -8 23 5
      vertex -8 -5 5
    endloop
  endfacet
  facet normal 1 -0 0
    outer loop
      vertex 20 -5 5
      vertex 20 23 -5
      vertex 20 23 5
    endloop
  endfacet
  facet normal 1 0 0
    outer loop
      vertex 20 23 -5
      vertex 20 -5 5
      vertex 20 -5 -5
    endloop
  endfacet
  facet normal 0 1 0
    outer loop
      vertex 20 23 5
      vertex 18.1 23 3
      vertex -8 23 5
    endloop
  endfacet
  facet normal 0 1 0
    outer loop
      vertex 20 23 5
      vertex 18.1 23 -3
      vertex 18.1 23 3
    endloop
  endfacet
  facet normal 0 1 0
    outer loop
      vertex 18.1 23 -3
      vertex 20 23 -5
      vertex -6.1 23 -3
    endloop
  endfacet
  facet normal 0 1 -0
    outer loop
      vertex 20 23 -5
      vertex 18.1 23 -3
      vertex 20 23 5
    endloop
  endfacet
  facet normal 0 1 -0
    outer loop
      vertex -6.1 23 3
      vertex -8 23 5
      vertex 18.1 23 3
    endloop
  endfacet
  facet normal 0 1 -0
    outer loop
      vertex -6.1 23 -3
      vertex -8 23 5
      vertex -6.1 23 3
    endloop
  endfacet
  facet normal 0 1 0
    outer loop
      vertex -6.1 23 -3
      vertex -8 23 -5
      vertex -8 23 5
    endloop
  endfacet
  facet normal 0 1 0
    outer loop
      vertex -8 23 -5
      vertex -6.1 23 -3
      vertex 20 23 -5
    endloop
  endfacet
  facet normal 0 0 -1
    outer loop
      vertex -8 -5 -5
      vertex 20 23 -5
      vertex 20 -5 -5
    endloop
  endfacet
  facet normal -0 0 -1
    outer loop
      vertex 20 23 -5
      vertex -8 -5 -5
      vertex -8 23 -5
    endloop
  endfacet
  facet normal 0 -1 0
    outer loop
      vertex -8 -5 -5
      vertex 20 -5 5
      vertex -8 -5 5
    endloop
  endfacet
  facet normal 0 -1 -0
    outer loop
      vertex 20 -5 5
      vertex -8 -5 -5
      vertex 20 -5 -5
    endloop
  endfacet
  facet normal 1 -0 0
    outer loop
      vertex -6.1 0 3
      vertex -6.1 23 -3
      vertex -6.1 23 3
    endloop
  endfacet
  facet normal 1 0 0
    outer loop
      vertex -6.1 23 -3
      vertex -6.1 0 3
      vertex -6.1 0 -3
    endloop
  endfacet
  facet normal 0 0 -1
    outer loop
      vertex -6.1 0 3
      vertex 18.1 23 3
      vertex 18.1 0 3
    endloop
  endfacet
  facet normal -0 0 -1
    outer loop
      vertex 18.1 23 3
      vertex -6.1 0 3
      vertex -6.1 23 3
    endloop
  endfacet
  facet normal -1 0 0
    outer loop
      vertex 18.1 0 -3
      vertex 18.1 23 3
      vertex 18.1 23 -3
    endloop
  endfacet
  facet normal -1 -0 0
    outer loop
      vertex 18.1 23 3
      vertex 18.1 0 -3
      vertex 18.1 0 3
    endloop
  endfacet
  facet normal -0 0 1
    outer loop
      vertex -6.1 23 -3
      vertex 18.1 0 -3
      vertex 18.1 23 -3
    endloop
  endfacet
  facet normal 0 0 1
    outer loop
      vertex 18.1 0 -3
      vertex -6.1 23 -3
      vertex -6.1 0 -3
    endloop
  endfacet
  facet normal 0 1 -0
    outer loop
      vertex 18.1 0 -3
      vertex -6.1 0 3
      vertex 18.1 0 3
    endloop
  endfacet
  facet normal 0 1 0
    outer loop
      vertex -6.1 0 3
      vertex 18.1 0 -3
      vertex -6.1 0 -3
    endloop
  endfacet
endsolid OpenSCAD_Model
