solid OpenSCAD_Model
  facet normal 0 1 -0
    outer loop
      vertex 7.98604 39.8959 0
      vertex 4.01396 39.8959 1.2
      vertex 7.98604 39.8959 1.2
    endloop
  endfacet
  facet normal 0 1 0
    outer loop
      vertex 4.01396 39.8959 1.2
      vertex 7.98604 39.8959 0
      vertex 4.01396 39.8959 0
    endloop
  endfacet
  facet normal -0.406737 0.913545 0
    outer loop
      vertex 0.128676 39.0701 0
      vertex -2.25 38.011 1.2
      vertex 0.128676 39.0701 1.2
    endloop
  endfacet
  facet normal -0.406737 0.913545 0
    outer loop
      vertex -2.25 38.011 1.2
      vertex 0.128676 39.0701 0
      vertex -2.25 38.011 0
    endloop
  endfacet
  facet normal 0.207912 0.978148 -0
    outer loop
      vertex 11.8713 39.0701 0
      vertex 7.98604 39.8959 1.2
      vertex 11.8713 39.0701 1.2
    endloop
  endfacet
  facet normal 0.207912 0.978148 0
    outer loop
      vertex 7.98604 39.8959 1.2
      vertex 11.8713 39.0701 0
      vertex 7.98604 39.8959 0
    endloop
  endfacet
  facet normal 0.406737 0.913545 -0
    outer loop
      vertex 14.25 38.011 0
      vertex 11.8713 39.0701 1.2
      vertex 14.25 38.011 1.2
    endloop
  endfacet
  facet normal 0.406737 0.913545 0
    outer loop
      vertex 11.8713 39.0701 1.2
      vertex 14.25 38.011 0
      vertex 11.8713 39.0701 0
    endloop
  endfacet
  facet normal 0 0 -1
    outer loop
      vertex 0 16 0
      vertex 12 16 0
      vertex 12 0 0
    endloop
  endfacet
  facet normal 0 0 -1
    outer loop
      vertex 12 16 0
      vertex 8.54318 29.4594 0
      vertex 11.8713 39.0701 0
    endloop
  endfacet
  facet normal 0 0 -1
    outer loop
      vertex 11.8713 39.0701 0
      vertex 8.54318 29.4594 0
      vertex 8.6 30 0
    endloop
  endfacet
  facet normal 0 0 -1
    outer loop
      vertex 12 16 0
      vertex 8.37522 28.9425 0
      vertex 8.54318 29.4594 0
    endloop
  endfacet
  facet normal 0 0 -1
    outer loop
      vertex 12 16 0
      vertex 8.10344 28.4718 0
      vertex 8.37522 28.9425 0
    endloop
  endfacet
  facet normal 0 0 -1
    outer loop
      vertex 12 16 0
      vertex 7.73974 28.0678 0
      vertex 8.10344 28.4718 0
    endloop
  endfacet
  facet normal 0 0 -1
    outer loop
      vertex 12 16 0
      vertex 7.3 27.7483 0
      vertex 7.73974 28.0678 0
    endloop
  endfacet
  facet normal 0 -0 -1
    outer loop
      vertex 6.27177 27.4142 0
      vertex 12 16 0
      vertex 0 16 0
    endloop
  endfacet
  facet normal 0 0 -1
    outer loop
      vertex 12 16 0
      vertex 6.80344 27.5273 0
      vertex 7.3 27.7483 0
    endloop
  endfacet
  facet normal 0 0 -1
    outer loop
      vertex 12 16 0
      vertex 6.27177 27.4142 0
      vertex 6.80344 27.5273 0
    endloop
  endfacet
  facet normal -0 0 -1
    outer loop
      vertex 6.27177 27.4142 0
      vertex 0 16 0
      vertex 5.72823 27.4142 0
    endloop
  endfacet
  facet normal -0 0 -1
    outer loop
      vertex 5.72823 27.4142 0
      vertex 0 16 0
      vertex 5.19656 27.5273 0
    endloop
  endfacet
  facet normal -0 0 -1
    outer loop
      vertex 5.19656 27.5273 0
      vertex 0 16 0
      vertex 4.7 27.7483 0
    endloop
  endfacet
  facet normal -0 0 -1
    outer loop
      vertex 4.7 27.7483 0
      vertex 0 16 0
      vertex 4.26026 28.0678 0
    endloop
  endfacet
  facet normal 0 0 -1
    outer loop
      vertex -2.25 16 0
      vertex 4.26026 28.0678 0
      vertex 0 16 0
    endloop
  endfacet
  facet normal -0 0 -1
    outer loop
      vertex 4.26026 28.0678 0
      vertex -2.25 16 0
      vertex 3.89655 28.4718 0
    endloop
  endfacet
  facet normal 0 0 -1
    outer loop
      vertex -2.25 38.011 0
      vertex 3.4 30 0
      vertex 3.45682 29.4594 0
    endloop
  endfacet
  facet normal -0 0 -1
    outer loop
      vertex 3.89655 28.4718 0
      vertex -2.25 16 0
      vertex 3.62478 28.9425 0
    endloop
  endfacet
  facet normal 0 0 -1
    outer loop
      vertex 0 16 0
      vertex 12 0 0
      vertex 0 0 0
    endloop
  endfacet
  facet normal -0 0 -1
    outer loop
      vertex 3.62478 28.9425 0
      vertex -2.25 16 0
      vertex 3.45682 29.4594 0
    endloop
  endfacet
  facet normal -0 0 -1
    outer loop
      vertex 3.45682 29.4594 0
      vertex -2.25 16 0
      vertex -2.25 38.011 0
    endloop
  endfacet
  facet normal 0 0 -1
    outer loop
      vertex 3.4 30 0
      vertex -2.25 38.011 0
      vertex 0.128676 39.0701 0
    endloop
  endfacet
  facet normal 0 0 -1
    outer loop
      vertex 12 16 0
      vertex 14.25 38.011 0
      vertex 14.25 16 0
    endloop
  endfacet
  facet normal -0 0 -1
    outer loop
      vertex 14.25 38.011 0
      vertex 12 16 0
      vertex 11.8713 39.0701 0
    endloop
  endfacet
  facet normal 0 0 -1
    outer loop
      vertex 8.54318 30.5406 0
      vertex 11.8713 39.0701 0
      vertex 8.6 30 0
    endloop
  endfacet
  facet normal 0 0 -1
    outer loop
      vertex 8.37522 31.0575 0
      vertex 11.8713 39.0701 0
      vertex 8.54318 30.5406 0
    endloop
  endfacet
  facet normal 0 0 -1
    outer loop
      vertex 8.10344 31.5282 0
      vertex 11.8713 39.0701 0
      vertex 8.37522 31.0575 0
    endloop
  endfacet
  facet normal 0 0 -1
    outer loop
      vertex 7.73974 31.9322 0
      vertex 11.8713 39.0701 0
      vertex 8.10344 31.5282 0
    endloop
  endfacet
  facet normal 0 0 -1
    outer loop
      vertex 7.3 32.2517 0
      vertex 11.8713 39.0701 0
      vertex 7.73974 31.9322 0
    endloop
  endfacet
  facet normal -0 0 -1
    outer loop
      vertex 11.8713 39.0701 0
      vertex 7.3 32.2517 0
      vertex 7.98604 39.8959 0
    endloop
  endfacet
  facet normal 0 0 -1
    outer loop
      vertex 6.80344 32.4727 0
      vertex 7.98604 39.8959 0
      vertex 7.3 32.2517 0
    endloop
  endfacet
  facet normal 0 0 -1
    outer loop
      vertex 6.27177 32.5858 0
      vertex 7.98604 39.8959 0
      vertex 6.80344 32.4727 0
    endloop
  endfacet
  facet normal 0 0 -1
    outer loop
      vertex 5.72823 32.5858 0
      vertex 7.98604 39.8959 0
      vertex 6.27177 32.5858 0
    endloop
  endfacet
  facet normal 0 0 -1
    outer loop
      vertex 4.01396 39.8959 0
      vertex 5.72823 32.5858 0
      vertex 5.19656 32.4727 0
    endloop
  endfacet
  facet normal 0 0 -1
    outer loop
      vertex 4.01396 39.8959 0
      vertex 5.19656 32.4727 0
      vertex 4.7 32.2517 0
    endloop
  endfacet
  facet normal 0 0 -1
    outer loop
      vertex 0.128676 39.0701 0
      vertex 4.7 32.2517 0
      vertex 4.26026 31.9322 0
    endloop
  endfacet
  facet normal 0 0 -1
    outer loop
      vertex 5.72823 32.5858 0
      vertex 4.01396 39.8959 0
      vertex 7.98604 39.8959 0
    endloop
  endfacet
  facet normal 0 0 -1
    outer loop
      vertex 0.128676 39.0701 0
      vertex 4.26026 31.9322 0
      vertex 3.89655 31.5282 0
    endloop
  endfacet
  facet normal 0 0 -1
    outer loop
      vertex 0.128676 39.0701 0
      vertex 3.89655 31.5282 0
      vertex 3.62478 31.0575 0
    endloop
  endfacet
  facet normal 0 0 -1
    outer loop
      vertex 0.128676 39.0701 0
      vertex 3.62478 31.0575 0
      vertex 3.45682 30.5406 0
    endloop
  endfacet
  facet normal 0 0 -1
    outer loop
      vertex 0.128676 39.0701 0
      vertex 3.45682 30.5406 0
      vertex 3.4 30 0
    endloop
  endfacet
  facet normal 0 0 -1
    outer loop
      vertex 4.7 32.2517 0
      vertex 0.128676 39.0701 0
      vertex 4.01396 39.8959 0
    endloop
  endfacet
  facet normal 0 0 1
    outer loop
      vertex 14.25 38.011 1.2
      vertex 8.54318 30.5406 1.2
      vertex 8.6 30 1.2
    endloop
  endfacet
  facet normal 0 0 1
    outer loop
      vertex 14.25 38.011 1.2
      vertex 8.37522 31.0575 1.2
      vertex 8.54318 30.5406 1.2
    endloop
  endfacet
  facet normal 0 0 1
    outer loop
      vertex 14.25 38.011 1.2
      vertex 8.10344 31.5282 1.2
      vertex 8.37522 31.0575 1.2
    endloop
  endfacet
  facet normal 0 0 1
    outer loop
      vertex 7.3 32.2517 1.2
      vertex 11.8713 39.0701 1.2
      vertex 7.98604 39.8959 1.2
    endloop
  endfacet
  facet normal 0 0 1
    outer loop
      vertex 11.8713 39.0701 1.2
      vertex 7.73974 31.9322 1.2
      vertex 8.10344 31.5282 1.2
    endloop
  endfacet
  facet normal 0 0 1
    outer loop
      vertex 11.8713 39.0701 1.2
      vertex 7.3 32.2517 1.2
      vertex 7.73974 31.9322 1.2
    endloop
  endfacet
  facet normal 0 0 1
    outer loop
      vertex 7.98604 39.8959 1.2
      vertex 6.80344 32.4727 1.2
      vertex 7.3 32.2517 1.2
    endloop
  endfacet
  facet normal 0 0 1
    outer loop
      vertex 7.98604 39.8959 1.2
      vertex 6.27177 32.5858 1.2
      vertex 6.80344 32.4727 1.2
    endloop
  endfacet
  facet normal 0 0 1
    outer loop
      vertex 7.98604 39.8959 1.2
      vertex 5.72823 32.5858 1.2
      vertex 6.27177 32.5858 1.2
    endloop
  endfacet
  facet normal -0 0 1
    outer loop
      vertex 4.01396 39.8959 1.2
      vertex 5.72823 32.5858 1.2
      vertex 7.98604 39.8959 1.2
    endloop
  endfacet
  facet normal 0 0 1
    outer loop
      vertex 5.72823 32.5858 1.2
      vertex 4.01396 39.8959 1.2
      vertex 5.19656 32.4727 1.2
    endloop
  endfacet
  facet normal 0 0 1
    outer loop
      vertex 5.19656 32.4727 1.2
      vertex 4.01396 39.8959 1.2
      vertex 4.7 32.2517 1.2
    endloop
  endfacet
  facet normal -0 0 1
    outer loop
      vertex 0.128676 39.0701 1.2
      vertex 4.7 32.2517 1.2
      vertex 4.01396 39.8959 1.2
    endloop
  endfacet
  facet normal 0 0 1
    outer loop
      vertex 4.7 32.2517 1.2
      vertex 0.128676 39.0701 1.2
      vertex 4.26026 31.9322 1.2
    endloop
  endfacet
  facet normal 0 0 1
    outer loop
      vertex 4.26026 31.9322 1.2
      vertex 0.128676 39.0701 1.2
      vertex 3.89655 31.5282 1.2
    endloop
  endfacet
  facet normal -0 0 1
    outer loop
      vertex -2.25 38.011 1.2
      vertex 3.89655 31.5282 1.2
      vertex 0.128676 39.0701 1.2
    endloop
  endfacet
  facet normal 0 0 1
    outer loop
      vertex 3.89655 31.5282 1.2
      vertex -2.25 38.011 1.2
      vertex 3.62478 31.0575 1.2
    endloop
  endfacet
  facet normal 0 0 1
    outer loop
      vertex 3.62478 31.0575 1.2
      vertex -2.25 38.011 1.2
      vertex 3.45682 30.5406 1.2
    endloop
  endfacet
  facet normal -0 0 1
    outer loop
      vertex 8.54318 29.4594 1.2
      vertex 14.25 16 1.2
      vertex 14.25 38.011 1.2
    endloop
  endfacet
  facet normal 0 0 1
    outer loop
      vertex 8.10344 31.5282 1.2
      vertex 14.25 38.011 1.2
      vertex 11.8713 39.0701 1.2
    endloop
  endfacet
  facet normal 0 0 1
    outer loop
      vertex 8.54318 29.4594 1.2
      vertex 14.25 38.011 1.2
      vertex 8.6 30 1.2
    endloop
  endfacet
  facet normal -0 0 1
    outer loop
      vertex 8.37522 28.9425 1.2
      vertex 14.25 16 1.2
      vertex 8.54318 29.4594 1.2
    endloop
  endfacet
  facet normal -0 0 1
    outer loop
      vertex 8.10344 28.4718 1.2
      vertex 14.25 16 1.2
      vertex 8.37522 28.9425 1.2
    endloop
  endfacet
  facet normal 0 0 1
    outer loop
      vertex 14.25 16 1.2
      vertex 8.10344 28.4718 1.2
      vertex 12 16.6 1.2
    endloop
  endfacet
  facet normal -0 0 1
    outer loop
      vertex 7.73974 28.0678 1.2
      vertex 12 16.6 1.2
      vertex 8.10344 28.4718 1.2
    endloop
  endfacet
  facet normal -0 0 1
    outer loop
      vertex 7.3 27.7483 1.2
      vertex 12 16.6 1.2
      vertex 7.73974 28.0678 1.2
    endloop
  endfacet
  facet normal -0 0 1
    outer loop
      vertex 6.80344 27.5273 1.2
      vertex 12 16.6 1.2
      vertex 7.3 27.7483 1.2
    endloop
  endfacet
  facet normal -0 0 1
    outer loop
      vertex 6.27177 27.4142 1.2
      vertex 12 16.6 1.2
      vertex 6.80344 27.5273 1.2
    endloop
  endfacet
  facet normal -0 0 1
    outer loop
      vertex 5.72823 27.4142 1.2
      vertex 12 16.6 1.2
      vertex 6.27177 27.4142 1.2
    endloop
  endfacet
  facet normal 0 0 1
    outer loop
      vertex 0 16.6 1.2
      vertex 5.72823 27.4142 1.2
      vertex 5.19656 27.5273 1.2
    endloop
  endfacet
  facet normal 0 0 1
    outer loop
      vertex 0 16.6 1.2
      vertex 5.19656 27.5273 1.2
      vertex 4.7 27.7483 1.2
    endloop
  endfacet
  facet normal 0 0 1
    outer loop
      vertex 0 16.6 1.2
      vertex 4.7 27.7483 1.2
      vertex 4.26026 28.0678 1.2
    endloop
  endfacet
  facet normal 0 0 1
    outer loop
      vertex 0 16.6 1.2
      vertex 4.26026 28.0678 1.2
      vertex 3.89655 28.4718 1.2
    endloop
  endfacet
  facet normal 0 0 1
    outer loop
      vertex 3.45682 30.5406 1.2
      vertex -2.25 38.011 1.2
      vertex 3.4 30 1.2
    endloop
  endfacet
  facet normal 0 0 1
    outer loop
      vertex 3.4 30 1.2
      vertex -2.25 38.011 1.2
      vertex 3.45682 29.4594 1.2
    endloop
  endfacet
  facet normal 0 0 1
    outer loop
      vertex 5.72823 27.4142 1.2
      vertex 0 16.6 1.2
      vertex 12 16.6 1.2
    endloop
  endfacet
  facet normal 0 0 1
    outer loop
      vertex -2.25 16 1.2
      vertex 3.89655 28.4718 1.2
      vertex 3.62478 28.9425 1.2
    endloop
  endfacet
  facet normal 0 0 1
    outer loop
      vertex -2.25 16 1.2
      vertex 3.45682 29.4594 1.2
      vertex -2.25 38.011 1.2
    endloop
  endfacet
  facet normal 0 0 1
    outer loop
      vertex 3.45682 29.4594 1.2
      vertex -2.25 16 1.2
      vertex 3.62478 28.9425 1.2
    endloop
  endfacet
  facet normal 0 0 1
    outer loop
      vertex 3.89655 28.4718 1.2
      vertex -2.25 16 1.2
      vertex 0 16.6 1.2
    endloop
  endfacet
  facet normal 0 0 1
    outer loop
      vertex 0 16.6 1.2
      vertex -2.25 16 1.2
      vertex 0 16 1.2
    endloop
  endfacet
  facet normal 0 0 1
    outer loop
      vertex 14.25 16 1.2
      vertex 12 16.6 1.2
      vertex 12 16 1.2
    endloop
  endfacet
  facet normal -0.207912 0.978148 0
    outer loop
      vertex 4.01396 39.8959 0
      vertex 0.128676 39.0701 1.2
      vertex 4.01396 39.8959 1.2
    endloop
  endfacet
  facet normal -0.207912 0.978148 0
    outer loop
      vertex 0.128676 39.0701 1.2
      vertex 4.01396 39.8959 0
      vertex 0.128676 39.0701 0
    endloop
  endfacet
  facet normal 1 -0 0
    outer loop
      vertex 14.25 16 1.2
      vertex 14.25 38.011 0
      vertex 14.25 38.011 1.2
    endloop
  endfacet
  facet normal 1 0 0
    outer loop
      vertex 14.25 38.011 0
      vertex 14.25 16 1.2
      vertex 14.25 16 0
    endloop
  endfacet
  facet normal -1 0 0
    outer loop
      vertex -2.25 16 0
      vertex -2.25 38.011 1.2
      vertex -2.25 38.011 0
    endloop
  endfacet
  facet normal -1 -0 0
    outer loop
      vertex -2.25 38.011 1.2
      vertex -2.25 16 0
      vertex -2.25 16 1.2
    endloop
  endfacet
  facet normal 0 -1 0
    outer loop
      vertex -2.25 16 0
      vertex 0 16 1.2
      vertex -2.25 16 1.2
    endloop
  endfacet
  facet normal 0 -1 -0
    outer loop
      vertex 0 16 1.2
      vertex -2.25 16 0
      vertex 0 16 0
    endloop
  endfacet
  facet normal 0 -1 0
    outer loop
      vertex 12 16 0
      vertex 14.25 16 1.2
      vertex 12 16 1.2
    endloop
  endfacet
  facet normal 0 -1 -0
    outer loop
      vertex 14.25 16 1.2
      vertex 12 16 0
      vertex 14.25 16 0
    endloop
  endfacet
  facet normal -0.994522 -0.104528 0
    outer loop
      vertex 8.6 30 0
      vertex 8.54318 30.5406 1.2
      vertex 8.54318 30.5406 0
    endloop
  endfacet
  facet normal -0.994522 -0.104528 0
    outer loop
      vertex 8.54318 30.5406 1.2
      vertex 8.6 30 0
      vertex 8.6 30 1.2
    endloop
  endfacet
  facet normal 0.207906 -0.978149 0
    outer loop
      vertex 5.19656 32.4727 0
      vertex 5.72823 32.5858 1.2
      vertex 5.19656 32.4727 1.2
    endloop
  endfacet
  facet normal 0.207906 -0.978149 0
    outer loop
      vertex 5.72823 32.5858 1.2
      vertex 5.19656 32.4727 0
      vertex 5.72823 32.5858 0
    endloop
  endfacet
  facet normal -0.207912 0.978147 0
    outer loop
      vertex 6.80344 27.5273 0
      vertex 6.27177 27.4142 1.2
      vertex 6.80344 27.5273 1.2
    endloop
  endfacet
  facet normal -0.207912 0.978147 0
    outer loop
      vertex 6.27177 27.4142 1.2
      vertex 6.80344 27.5273 0
      vertex 6.27177 27.4142 0
    endloop
  endfacet
  facet normal -0.587784 -0.809018 0
    outer loop
      vertex 7.3 32.2517 0
      vertex 7.73974 31.9322 1.2
      vertex 7.3 32.2517 1.2
    endloop
  endfacet
  facet normal -0.587784 -0.809018 -0
    outer loop
      vertex 7.73974 31.9322 1.2
      vertex 7.3 32.2517 0
      vertex 7.73974 31.9322 0
    endloop
  endfacet
  facet normal 0.743144 -0.669131 0
    outer loop
      vertex 3.89655 31.5282 1.2
      vertex 4.26026 31.9322 0
      vertex 4.26026 31.9322 1.2
    endloop
  endfacet
  facet normal 0.743144 -0.669131 0
    outer loop
      vertex 4.26026 31.9322 0
      vertex 3.89655 31.5282 1.2
      vertex 3.89655 31.5282 0
    endloop
  endfacet
  facet normal 0.587784 -0.809018 0
    outer loop
      vertex 4.26026 31.9322 0
      vertex 4.7 32.2517 1.2
      vertex 4.26026 31.9322 1.2
    endloop
  endfacet
  facet normal 0.587784 -0.809018 0
    outer loop
      vertex 4.7 32.2517 1.2
      vertex 4.26026 31.9322 0
      vertex 4.7 32.2517 0
    endloop
  endfacet
  facet normal -0.866026 -0.499999 0
    outer loop
      vertex 8.37522 31.0575 0
      vertex 8.10344 31.5282 1.2
      vertex 8.10344 31.5282 0
    endloop
  endfacet
  facet normal -0.866026 -0.499999 0
    outer loop
      vertex 8.10344 31.5282 1.2
      vertex 8.37522 31.0575 0
      vertex 8.37522 31.0575 1.2
    endloop
  endfacet
  facet normal -0.951056 -0.309018 0
    outer loop
      vertex 8.54318 30.5406 0
      vertex 8.37522 31.0575 1.2
      vertex 8.37522 31.0575 0
    endloop
  endfacet
  facet normal -0.951056 -0.309018 0
    outer loop
      vertex 8.37522 31.0575 1.2
      vertex 8.54318 30.5406 0
      vertex 8.54318 30.5406 1.2
    endloop
  endfacet
  facet normal -0.743144 -0.669131 0
    outer loop
      vertex 8.10344 31.5282 0
      vertex 7.73974 31.9322 1.2
      vertex 7.73974 31.9322 0
    endloop
  endfacet
  facet normal -0.743144 -0.669131 0
    outer loop
      vertex 7.73974 31.9322 1.2
      vertex 8.10344 31.5282 0
      vertex 8.10344 31.5282 1.2
    endloop
  endfacet
  facet normal -0.207906 -0.978149 0
    outer loop
      vertex 6.27177 32.5858 0
      vertex 6.80344 32.4727 1.2
      vertex 6.27177 32.5858 1.2
    endloop
  endfacet
  facet normal -0.207906 -0.978149 -0
    outer loop
      vertex 6.80344 32.4727 1.2
      vertex 6.27177 32.5858 0
      vertex 6.80344 32.4727 0
    endloop
  endfacet
  facet normal 0 -1 0
    outer loop
      vertex 5.72823 32.5858 0
      vertex 6.27177 32.5858 1.2
      vertex 5.72823 32.5858 1.2
    endloop
  endfacet
  facet normal 0 -1 -0
    outer loop
      vertex 6.27177 32.5858 1.2
      vertex 5.72823 32.5858 0
      vertex 6.27177 32.5858 0
    endloop
  endfacet
  facet normal -0.406743 -0.913543 0
    outer loop
      vertex 6.80344 32.4727 0
      vertex 7.3 32.2517 1.2
      vertex 6.80344 32.4727 1.2
    endloop
  endfacet
  facet normal -0.406743 -0.913543 -0
    outer loop
      vertex 7.3 32.2517 1.2
      vertex 6.80344 32.4727 0
      vertex 7.3 32.2517 0
    endloop
  endfacet
  facet normal 0.951056 -0.309018 0
    outer loop
      vertex 3.45682 30.5406 1.2
      vertex 3.62478 31.0575 0
      vertex 3.62478 31.0575 1.2
    endloop
  endfacet
  facet normal 0.951056 -0.309018 0
    outer loop
      vertex 3.62478 31.0575 0
      vertex 3.45682 30.5406 1.2
      vertex 3.45682 30.5406 0
    endloop
  endfacet
  facet normal 0.866026 -0.499999 0
    outer loop
      vertex 3.62478 31.0575 1.2
      vertex 3.89655 31.5282 0
      vertex 3.89655 31.5282 1.2
    endloop
  endfacet
  facet normal 0.866026 -0.499999 0
    outer loop
      vertex 3.89655 31.5282 0
      vertex 3.62478 31.0575 1.2
      vertex 3.62478 31.0575 0
    endloop
  endfacet
  facet normal 0.994522 -0.104528 0
    outer loop
      vertex 3.4 30 1.2
      vertex 3.45682 30.5406 0
      vertex 3.45682 30.5406 1.2
    endloop
  endfacet
  facet normal 0.994522 -0.104528 0
    outer loop
      vertex 3.45682 30.5406 0
      vertex 3.4 30 1.2
      vertex 3.4 30 0
    endloop
  endfacet
  facet normal 0.406743 -0.913543 0
    outer loop
      vertex 4.7 32.2517 0
      vertex 5.19656 32.4727 1.2
      vertex 4.7 32.2517 1.2
    endloop
  endfacet
  facet normal 0.406743 -0.913543 0
    outer loop
      vertex 5.19656 32.4727 1.2
      vertex 4.7 32.2517 0
      vertex 5.19656 32.4727 0
    endloop
  endfacet
  facet normal -0.994522 0.104528 0
    outer loop
      vertex 8.54318 29.4594 0
      vertex 8.6 30 1.2
      vertex 8.6 30 0
    endloop
  endfacet
  facet normal -0.994522 0.104528 0
    outer loop
      vertex 8.6 30 1.2
      vertex 8.54318 29.4594 0
      vertex 8.54318 29.4594 1.2
    endloop
  endfacet
  facet normal -0.743144 0.669131 0
    outer loop
      vertex 7.73974 28.0678 0
      vertex 8.10344 28.4718 1.2
      vertex 8.10344 28.4718 0
    endloop
  endfacet
  facet normal -0.743144 0.669131 0
    outer loop
      vertex 8.10344 28.4718 1.2
      vertex 7.73974 28.0678 0
      vertex 7.73974 28.0678 1.2
    endloop
  endfacet
  facet normal 0.994522 0.104528 0
    outer loop
      vertex 3.45682 29.4594 1.2
      vertex 3.4 30 0
      vertex 3.4 30 1.2
    endloop
  endfacet
  facet normal 0.994522 0.104528 0
    outer loop
      vertex 3.4 30 0
      vertex 3.45682 29.4594 1.2
      vertex 3.45682 29.4594 0
    endloop
  endfacet
  facet normal 0.743144 0.669131 0
    outer loop
      vertex 4.26026 28.0678 1.2
      vertex 3.89655 28.4718 0
      vertex 3.89655 28.4718 1.2
    endloop
  endfacet
  facet normal 0.743144 0.669131 0
    outer loop
      vertex 3.89655 28.4718 0
      vertex 4.26026 28.0678 1.2
      vertex 4.26026 28.0678 0
    endloop
  endfacet
  facet normal -0.951056 0.309018 0
    outer loop
      vertex 8.37522 28.9425 0
      vertex 8.54318 29.4594 1.2
      vertex 8.54318 29.4594 0
    endloop
  endfacet
  facet normal -0.951056 0.309018 0
    outer loop
      vertex 8.54318 29.4594 1.2
      vertex 8.37522 28.9425 0
      vertex 8.37522 28.9425 1.2
    endloop
  endfacet
  facet normal -0.866026 0.499999 0
    outer loop
      vertex 8.10344 28.4718 0
      vertex 8.37522 28.9425 1.2
      vertex 8.37522 28.9425 0
    endloop
  endfacet
  facet normal -0.866026 0.499999 0
    outer loop
      vertex 8.37522 28.9425 1.2
      vertex 8.10344 28.4718 0
      vertex 8.10344 28.4718 1.2
    endloop
  endfacet
  facet normal 0 1 -0
    outer loop
      vertex 6.27177 27.4142 0
      vertex 5.72823 27.4142 1.2
      vertex 6.27177 27.4142 1.2
    endloop
  endfacet
  facet normal 0 1 0
    outer loop
      vertex 5.72823 27.4142 1.2
      vertex 6.27177 27.4142 0
      vertex 5.72823 27.4142 0
    endloop
  endfacet
  facet normal 0.587786 0.809017 -0
    outer loop
      vertex 4.7 27.7483 0
      vertex 4.26026 28.0678 1.2
      vertex 4.7 27.7483 1.2
    endloop
  endfacet
  facet normal 0.587786 0.809017 0
    outer loop
      vertex 4.26026 28.0678 1.2
      vertex 4.7 27.7483 0
      vertex 4.26026 28.0678 0
    endloop
  endfacet
  facet normal 0.866026 0.499999 0
    outer loop
      vertex 3.89655 28.4718 1.2
      vertex 3.62478 28.9425 0
      vertex 3.62478 28.9425 1.2
    endloop
  endfacet
  facet normal 0.866026 0.499999 0
    outer loop
      vertex 3.62478 28.9425 0
      vertex 3.89655 28.4718 1.2
      vertex 3.89655 28.4718 0
    endloop
  endfacet
  facet normal 0.951056 0.309018 0
    outer loop
      vertex 3.62478 28.9425 1.2
      vertex 3.45682 29.4594 0
      vertex 3.45682 29.4594 1.2
    endloop
  endfacet
  facet normal 0.951056 0.309018 0
    outer loop
      vertex 3.45682 29.4594 0
      vertex 3.62478 28.9425 1.2
      vertex 3.62478 28.9425 0
    endloop
  endfacet
  facet normal -0.587786 0.809017 0
    outer loop
      vertex 7.73974 28.0678 0
      vertex 7.3 27.7483 1.2
      vertex 7.73974 28.0678 1.2
    endloop
  endfacet
  facet normal -0.587786 0.809017 0
    outer loop
      vertex 7.3 27.7483 1.2
      vertex 7.73974 28.0678 0
      vertex 7.3 27.7483 0
    endloop
  endfacet
  facet normal -0.406737 0.913545 0
    outer loop
      vertex 7.3 27.7483 0
      vertex 6.80344 27.5273 1.2
      vertex 7.3 27.7483 1.2
    endloop
  endfacet
  facet normal -0.406737 0.913545 0
    outer loop
      vertex 6.80344 27.5273 1.2
      vertex 7.3 27.7483 0
      vertex 6.80344 27.5273 0
    endloop
  endfacet
  facet normal 0.207912 0.978147 -0
    outer loop
      vertex 5.72823 27.4142 0
      vertex 5.19656 27.5273 1.2
      vertex 5.72823 27.4142 1.2
    endloop
  endfacet
  facet normal 0.207912 0.978147 0
    outer loop
      vertex 5.19656 27.5273 1.2
      vertex 5.72823 27.4142 0
      vertex 5.19656 27.5273 0
    endloop
  endfacet
  facet normal 0.406737 0.913545 -0
    outer loop
      vertex 5.19656 27.5273 0
      vertex 4.7 27.7483 1.2
      vertex 5.19656 27.5273 1.2
    endloop
  endfacet
  facet normal 0.406737 0.913545 0
    outer loop
      vertex 4.7 27.7483 1.2
      vertex 5.19656 27.5273 0
      vertex 4.7 27.7483 0
    endloop
  endfacet
  facet normal -1 0 0
    outer loop
      vertex 0 16 0
      vertex 0 0 0
      vertex 0 16 1.2
    endloop
  endfacet
  facet normal -1 0 0
    outer loop
      vertex 0 16 1.2
      vertex 0 16.6 2.2
      vertex 0 16.6 1.2
    endloop
  endfacet
  facet normal -1 0 0
    outer loop
      vertex 0 0 2.2
      vertex 0 16 1.2
      vertex 0 0 0
    endloop
  endfacet
  facet normal -1 0 0
    outer loop
      vertex 0 16 1.2
      vertex 0 0 2.2
      vertex 0 16.6 2.2
    endloop
  endfacet
  facet normal -0 0 1
    outer loop
      vertex 0 16.6 2.2
      vertex 12 0 2.2
      vertex 12 16.6 2.2
    endloop
  endfacet
  facet normal 0 0 1
    outer loop
      vertex 12 0 2.2
      vertex 0 16.6 2.2
      vertex 0 0 2.2
    endloop
  endfacet
  facet normal 1 0 0
    outer loop
      vertex 12 16.6 2.2
      vertex 12 16 1.2
      vertex 12 16.6 1.2
    endloop
  endfacet
  facet normal 1 -0 0
    outer loop
      vertex 12 0 2.2
      vertex 12 16 1.2
      vertex 12 16.6 2.2
    endloop
  endfacet
  facet normal 1 0 0
    outer loop
      vertex 12 0 0
      vertex 12 16 1.2
      vertex 12 0 2.2
    endloop
  endfacet
  facet normal 1 0 0
    outer loop
      vertex 12 16 1.2
      vertex 12 0 0
      vertex 12 16 0
    endloop
  endfacet
  facet normal 0 1 -0
    outer loop
      vertex 12 16.6 1.2
      vertex 0 16.6 2.2
      vertex 12 16.6 2.2
    endloop
  endfacet
  facet normal 0 1 0
    outer loop
      vertex 0 16.6 2.2
      vertex 12 16.6 1.2
      vertex 0 16.6 1.2
    endloop
  endfacet
  facet normal 0 -1 0
    outer loop
      vertex 0 0 0
      vertex 12 0 2.2
      vertex 0 0 2.2
    endloop
  endfacet
  facet normal 0 -1 -0
    outer loop
      vertex 12 0 2.2
      vertex 0 0 0
      vertex 12 0 0
    endloop
  endfacet
endsolid OpenSCAD_Model
